<svg xmlns="http://www.w3.org/2000/svg" width="328.973" height="348.204" viewBox="0 0 328.973 348.204">
  <g id="Grupo_895791" data-name="Grupo 895791" transform="translate(6022.486 8490.024)">
    <path id="Trazado_624764" data-name="Trazado 624764" d="M21,0H307.486a21,21,0,0,1,21,21V327.2a21,21,0,0,1-21,21H21a21,21,0,0,1-21-21V21A21,21,0,0,1,21,0Z" transform="translate(-6022 -8490.024)" fill="#f6f6f6"/>
    <path id="Trazado_624765" data-name="Trazado 624765" d="M0,0H328.486V62.8a21,21,0,0,1-21,21H21a21,21,0,0,1-21-21Z" transform="translate(-6022.486 -8225.618)" fill="#fecb2f"/>
    <path id="Trazado_624766" data-name="Trazado 624766" d="M123.932,13.443h1.445v2.539h-1.445V19h-3.291V15.982h-5.5l-.2-2.012,5.693-9.16V4.781h3.291Zm-5.85,0h2.559V9.068l-.205.332Zm18.613-.254a6.789,6.789,0,0,1-1.294,4.443,5.056,5.056,0,0,1-7.319-.01,6.779,6.779,0,0,1-1.3-4.434v-2.6a6.789,6.789,0,0,1,1.294-4.443,5.056,5.056,0,0,1,7.319.01,6.8,6.8,0,0,1,1.3,4.443ZM133.4,10.172a5.071,5.071,0,0,0-.4-2.29,1.338,1.338,0,0,0-1.27-.757,1.307,1.307,0,0,0-1.235.7,4.777,4.777,0,0,0-.415,2.129V13.59a5.11,5.11,0,0,0,.4,2.329,1.343,1.343,0,0,0,1.27.737,1.325,1.325,0,0,0,1.24-.718,4.878,4.878,0,0,0,.41-2.251ZM147.1,13.443h1.445v2.539H147.1V19H143.8V15.982h-5.5l-.2-2.012,5.693-9.16V4.781H147.1Zm-5.85,0H143.8V9.068L143.6,9.4Z" transform="translate(-5990.975 -8197)" fill="#12263f"/>
    <g id="Grupo_895788" data-name="Grupo 895788" transform="translate(-6971.684 -9917.766)">
      <path id="Trazado_623989" data-name="Trazado 623989" d="M1053.569,1507.2c22.058-24.944,55.789-38.829,89.065-37.6s65.551,17.262,87.378,42.409,33.127,58.939,31.806,92.211c-.765,19.269-6.079,39.217-19.415,53.147-10.412,10.876-24.875,17.173-39.619,20.227s-29.921,3.117-44.977,3.167l-127.551.424c-13.645.045-28.031-.1-39.817-6.973-11.658-6.8-19.037-19.45-22.069-32.6-4.167-18.071-.6-38.038,10.577-52.834,7-9.269,16.37-15.248,27.055-19.43,6.757-2.644,25.434-7.167,25.434-7.167s2.16-15.371,4.263-22.693A83.174,83.174,0,0,1,1053.569,1507.2Z" transform="translate(0 -6.578)" fill="#dce4ff"/>
      <path id="Trazado_623990" data-name="Trazado 623990" d="M1267.768,1802.535v11.472a8.227,8.227,0,0,1-1.053,4.193,8.663,8.663,0,0,1-3.049,3.184c-5.717,3.431-13.718,6.038-22.838,7.31a91.329,91.329,0,0,1-12.6.862l-.5,0-.491,0c-14.249,0-27.158-3.233-35.387-8.172a8.9,8.9,0,0,1-3.133-3.184,8.229,8.229,0,0,1-1.048-4.193v-10.53c6.2,7,20.735,12.993,37.726,13.569h.035c.743.026,1.5.04,2.249.044.828,0,1.654-.024,2.471-.057a69.8,69.8,0,0,0,10.713-1.275C1252.977,1813.342,1262.524,1807.98,1267.768,1802.535Z" transform="translate(-116.438 -182.036)" fill="#5564a2"/>
      <path id="Trazado_623991" data-name="Trazado 623991" d="M1267.315,1782.562a6.354,6.354,0,0,1-.271,1.828c-1.806,6.059-12.48,11.066-26.844,13.009a97.623,97.623,0,0,1-10.656.837q-1.3.033-2.632.034-1.046,0-2.08-.021h-.024c-18.994-.378-34.522-5.857-37.7-12.982a6.583,6.583,0,0,1-.6-2.7c0-2.364,1.342-4.6,3.747-6.615.08-.067.16-.133.243-.2q.49-.394,1.032-.775a40.34,40.34,0,0,1,12.607-5.386q.771-.205,1.567-.4a83.42,83.42,0,0,1,11.108-1.84c3.228-.323,6.612-.495,10.1-.495a101.517,101.517,0,0,1,10.288.514q1.524.155,3,.355c2.614.353,5.106.809,7.443,1.354q1.042.242,2.043.509c5.716,1.519,10.377,3.594,13.467,6.025q.226.176.439.356l.184.155C1266.049,1778.087,1267.315,1780.267,1267.315,1782.562Z" transform="translate(-115.824 -163.237)" fill="#a9c5db"/>
      <ellipse id="Elipse_6283" data-name="Elipse 6283" cx="37.14" cy="13.387" rx="37.14" ry="13.387" transform="translate(1074.136 1603.81)" fill="#fff"/>
      <ellipse id="Elipse_6284" data-name="Elipse 6284" cx="37.14" cy="13.387" rx="37.14" ry="13.387" transform="translate(1074.136 1602.212)" fill="#fabbd0"/>
      <ellipse id="Elipse_6285" data-name="Elipse 6285" cx="37.14" cy="13.387" rx="37.14" ry="13.387" transform="translate(1074.136 1596.842)" fill="#fff"/>
      <path id="Trazado_623992" data-name="Trazado 623992" d="M1267.768,1747.684v11.472a8.224,8.224,0,0,1-1.053,4.193,9.043,9.043,0,0,1-2.3,2.672c-.07.053-.154.106-.226.158s-.174.118-.26.174-.191.122-.289.18l-.206.122c-5.7,3.37-13.609,5.933-22.622,7.19a91.249,91.249,0,0,1-12.589.862c-.169,0-.328,0-.5,0s-.32,0-.489,0c-14.158,0-26.991-3.193-35.227-8.078l-.16-.1q-.2-.121-.4-.252c-.064-.044-.129-.088-.192-.133q-.2-.147-.4-.3a9.042,9.042,0,0,1-2.147-2.5,8.22,8.22,0,0,1-1.048-4.193v-10.53a34.6,34.6,0,0,0,9.763,6.971,55.971,55.971,0,0,0,6.706,2.788c.707.244,1.434.478,2.169.7.181.056.365.11.549.164a74.634,74.634,0,0,0,18.472,2.942q1.17.041,2.355.048,1.265-.006,2.51-.059h.019a68.947,68.947,0,0,0,10.6-1.273,67.309,67.309,0,0,0,7.082-1.816l.362-.116q1.177-.38,2.311-.794a58.746,58.746,0,0,0,6.755-2.927A37.1,37.1,0,0,0,1267.768,1747.684Z" transform="translate(-116.438 -153.136)" fill="#5564a2"/>
      <path id="Trazado_623993" data-name="Trazado 623993" d="M1267.315,1727.711a6.357,6.357,0,0,1-.271,1.828c-.887,2.974-3.909,5.694-8.458,7.923a45.372,45.372,0,0,1-6.555,2.552q-1.139.351-2.345.672l-.41.108a78,78,0,0,1-9.076,1.754,97.4,97.4,0,0,1-10.6.835h-.018q-1.325.034-2.673.034-1.1,0-2.192-.023a89.26,89.26,0,0,1-19.98-2.552c-.2-.051-.4-.1-.6-.157q-1.1-.292-2.151-.612a46.163,46.163,0,0,1-6.546-2.511c-4.207-2.029-7.141-4.472-8.335-7.148a6.582,6.582,0,0,1-.6-2.7c0-2.363,1.342-4.6,3.747-6.614.08-.067.16-.133.243-.2q.49-.4,1.034-.777a40.365,40.365,0,0,1,12.6-5.385q.771-.205,1.567-.4a83.382,83.382,0,0,1,11.108-1.84c3.228-.323,6.612-.494,10.1-.494a101.52,101.52,0,0,1,10.288.514q1.524.155,3,.355c2.614.353,5.106.809,7.445,1.354q1.043.242,2.042.508c5.715,1.519,10.375,3.594,13.466,6.024q.225.177.439.357l.184.156C1266.049,1723.237,1267.315,1725.417,1267.315,1727.711Z" transform="translate(-115.824 -134.337)" fill="#a9c5db"/>
      <ellipse id="Elipse_6286" data-name="Elipse 6286" cx="37.14" cy="13.387" rx="37.14" ry="13.387" transform="translate(1074.136 1577.859)" fill="#fff"/>
      <ellipse id="Elipse_6287" data-name="Elipse 6287" cx="37.14" cy="13.387" rx="37.14" ry="13.387" transform="translate(1074.136 1576.262)" fill="#fabbd0"/>
      <ellipse id="Elipse_6288" data-name="Elipse 6288" cx="37.14" cy="13.387" rx="37.14" ry="13.387" transform="translate(1074.136 1570.891)" fill="#fff"/>
      <path id="Trazado_623994" data-name="Trazado 623994" d="M1267.768,1692.834v11.473a8.227,8.227,0,0,1-1.053,4.193,9.068,9.068,0,0,1-2.3,2.672c-.07.053-.154.106-.226.158s-.174.117-.26.174-.191.122-.289.18l-.206.122c-5.7,3.37-13.609,5.932-22.622,7.189a91.288,91.288,0,0,1-12.589.861c-.169,0-.328,0-.5,0s-.32,0-.489,0c-14.158,0-26.991-3.192-35.227-8.077l-.16-.1c-.135-.081-.267-.165-.4-.252-.064-.043-.129-.088-.192-.133-.137-.1-.269-.2-.4-.3a9.06,9.06,0,0,1-2.147-2.5,8.223,8.223,0,0,1-1.048-4.193v-10.529a34.615,34.615,0,0,0,9.762,6.97,55.583,55.583,0,0,0,6.707,2.788c.707.245,1.434.478,2.169.7.181.056.365.11.549.164a74.663,74.663,0,0,0,18.472,2.942q1.17.04,2.355.047,1.265-.006,2.51-.059h.019a68.857,68.857,0,0,0,10.6-1.273,66.921,66.921,0,0,0,7.082-1.816l.363-.115q1.178-.381,2.31-.8a58.879,58.879,0,0,0,6.754-2.926A37.115,37.115,0,0,0,1267.768,1692.834Z" transform="translate(-116.438 -124.236)" fill="#5564a2"/>
      <path id="Trazado_623995" data-name="Trazado 623995" d="M1267.315,1672.861a6.358,6.358,0,0,1-.271,1.828c-.886,2.973-3.909,5.694-8.457,7.923a45.416,45.416,0,0,1-6.555,2.551q-1.139.352-2.345.672c-.136.037-.273.073-.41.108a78.063,78.063,0,0,1-9.077,1.754,97.369,97.369,0,0,1-10.6.835h-.018q-1.325.035-2.673.034-1.1,0-2.192-.023a89.36,89.36,0,0,1-19.982-2.552q-.3-.078-.6-.158-1.1-.292-2.152-.612a46.191,46.191,0,0,1-6.544-2.511c-4.206-2.029-7.141-4.472-8.334-7.147a6.581,6.581,0,0,1-.6-2.7c0-2.282,1.251-4.45,3.5-6.407q.235-.205.486-.408.155-.123.314-.247.228-.177.467-.349c.083-.061.168-.122.253-.181a39.333,39.333,0,0,1,11.848-5.179q.78-.218,1.587-.422a79.338,79.338,0,0,1,8.915-1.682,102.206,102.206,0,0,1,26.06,0l.258.035a79.558,79.558,0,0,1,8.17,1.526q1.06.259,2.075.542c5.37,1.5,9.755,3.5,12.709,5.817.15.118.3.237.439.357s.289.247.427.372C1266.14,1668.546,1267.315,1670.65,1267.315,1672.861Z" transform="translate(-115.824 -105.436)" fill="#a9c5db"/>
      <ellipse id="Elipse_6289" data-name="Elipse 6289" cx="37.14" cy="13.387" rx="37.14" ry="13.387" transform="translate(1074.136 1551.909)" fill="#fff"/>
      <ellipse id="Elipse_6290" data-name="Elipse 6290" cx="37.14" cy="13.387" rx="37.14" ry="13.387" transform="translate(1074.136 1550.312)" fill="#fabbd0"/>
      <path id="Trazado_623996" data-name="Trazado 623996" d="M1269.889,1641.537a8.519,8.519,0,0,1-.085,1.215c-3.442-8.893-19.644-15.628-39.113-15.628-21.016,0-34.115,10.948-35.216,21.16a8.622,8.622,0,0,1-.669-3.357c0-10.582,13.317-22.552,35.292-22.552S1269.889,1630.955,1269.889,1641.537Z" transform="translate(-120.196 -87.112)" fill="#fabbd0"/>
      <ellipse id="Elipse_6291" data-name="Elipse 6291" cx="37.14" cy="13.387" rx="37.14" ry="13.387" transform="translate(1074.136 1544.941)" fill="#fff"/>
      <path id="Trazado_623997" data-name="Trazado 623997" d="M1267.768,1638.855v11.472a8.228,8.228,0,0,1-1.053,4.193,9.251,9.251,0,0,1-2.055,2.476c-.1.083-.214.164-.318.243a8.026,8.026,0,0,1-.686.459l-.014.007-.246.145c-5.7,3.359-13.591,5.911-22.582,7.166a91.327,91.327,0,0,1-12.589.861c-.169,0-.328,0-.5,0s-.32,0-.489,0c-14.182,0-27.033-3.2-35.268-8.1l-.119-.07-.056-.034q-.358-.218-.684-.463-.253-.19-.488-.4a9.1,9.1,0,0,1-1.9-2.292,8.223,8.223,0,0,1-1.048-4.193V1639.8a25.5,25.5,0,0,0,6.28,5.038c.96.593,1.992,1.166,3.069,1.717.007,0,.021.008.028.011a54.41,54.41,0,0,0,6.47,2.771q1.009.361,2.058.693c.178.058.36.114.539.17a74.4,74.4,0,0,0,19.215,3.166q1.169.041,2.355.048,1.265-.007,2.51-.059h.019a68.872,68.872,0,0,0,10.6-1.273,66.551,66.551,0,0,0,7.812-2.052l.358-.119q1.125-.377,2.208-.787a57.05,57.05,0,0,0,6.487-2.908q1.45-.765,2.768-1.577c.937-.575,1.877-1.165,2.7-1.768A44.169,44.169,0,0,0,1267.768,1638.855Z" transform="translate(-116.438 -95.795)" fill="#5564a2"/>
      <path id="Trazado_623998" data-name="Trazado 623998" d="M1267.315,1618.881a6.358,6.358,0,0,1-.271,1.828,10.29,10.29,0,0,1-3.469,4.781,20.5,20.5,0,0,1-2.209,1.6q-1.11.7-2.4,1.355a43.645,43.645,0,0,1-6.3,2.54q-1.08.348-2.221.666c-.134.038-.27.076-.406.112a77.19,77.19,0,0,1-9.838,1.956,97.621,97.621,0,0,1-10.6.834h-.018q-1.325.035-2.673.034-1.1,0-2.192-.023a88.27,88.27,0,0,1-20.74-2.75q-.3-.081-.6-.164-1.038-.289-2.027-.6a45.254,45.254,0,0,1-5.85-2.284c-.148-.071-.295-.143-.44-.215q-1.3-.646-2.429-1.347a13.687,13.687,0,0,1-5.528-5.615,6.579,6.579,0,0,1-.6-2.7c0-8.675,18.089-15.708,40.4-15.708a99.341,99.341,0,0,1,13.288.87C1255.986,1606.18,1267.315,1612.015,1267.315,1618.881Z" transform="translate(-115.824 -76.995)" fill="#a9c5db"/>
      <path id="Trazado_623999" data-name="Trazado 623999" d="M1267.685,1617.505c0,5.706-9.9,10.578-23.851,12.5a97.628,97.628,0,0,1-13.288.883c-20.512,0-37.14-5.993-37.14-13.387s16.628-13.386,37.14-13.386a97.61,97.61,0,0,1,13.288.882C1257.783,1606.928,1267.685,1611.8,1267.685,1617.505Z" transform="translate(-119.458 -77.493)" fill="#fff"/>
      <path id="Trazado_624000" data-name="Trazado 624000" d="M1318.99,1786.753c-.082-.084-.211-.186-.3-.268l-.216.153a5.366,5.366,0,0,1,.679,2.561,4.867,4.867,0,0,0,0,1.6c0,5.731-9.992,10.621-24.039,12.53h0c-2.913.4-4.381.474-4.381.474l4.637,3.939v12.519c9.059-1.273,16.979-3.88,22.7-7.311a8.56,8.56,0,0,0,3.013-3.184,8.176,8.176,0,0,0,.989-4.193v-10.819c0-.6.216-1.21.216-1.828C1322.285,1790.735,1321.075,1788.649,1318.99,1786.753Z" transform="translate(-170.739 -173.58)" opacity="0.22"/>
      <path id="Trazado_624001" data-name="Trazado 624001" d="M1318.99,1731.988c-.082-.084-.211-.186-.3-.268l-.216.153a5.368,5.368,0,0,1,.679,2.562,4.867,4.867,0,0,0,0,1.6c0,5.731-9.992,10.621-24.039,12.53h0c-2.913.4-4.381.474-4.381.474l4.637,3.939V1765.5c9.059-1.272,16.979-3.88,22.7-7.311a8.559,8.559,0,0,0,3.013-3.184,8.176,8.176,0,0,0,.989-4.193V1739.99c0-.6.216-1.21.216-1.828C1322.285,1735.97,1321.075,1733.884,1318.99,1731.988Z" transform="translate(-170.739 -144.724)" opacity="0.22"/>
      <path id="Trazado_624002" data-name="Trazado 624002" d="M1318.99,1677.044c-.082-.084-.211-.186-.3-.268l-.216.153a5.367,5.367,0,0,1,.679,2.561,4.867,4.867,0,0,0,0,1.6c0,5.73-9.992,10.621-24.039,12.53h0c-2.913.4-4.381.474-4.381.474l4.637,3.939v12.519c9.059-1.272,16.979-3.88,22.7-7.311a8.56,8.56,0,0,0,3.013-3.184,8.176,8.176,0,0,0,.989-4.193v-10.818c0-.6.216-1.21.216-1.828C1322.285,1681.026,1321.075,1678.939,1318.99,1677.044Z" transform="translate(-170.739 -115.775)" opacity="0.22"/>
      <path id="Trazado_624003" data-name="Trazado 624003" d="M1322.552,1619.4a7.166,7.166,0,0,1-.1,1.129h-.011a6.386,6.386,0,0,0-.046.69v10.819a8.8,8.8,0,0,1-3.974,7.377c-5.717,3.432-13.665,6.038-22.724,7.311V1634.2l-4.348-3.691c1.442-.13,2.787-.29,4.156-.48,7.219-1,13.323-2.783,17.563-5.065a19.551,19.551,0,0,0,3.065-2.014c2.042-1.658,3.167-3.494,3.167-5.425,0-5.705-9.944-10.577-23.893-12.5-1.135-.156-2.094-.294-3.524-.411v-.452c1.43.114,2.381.246,3.52.4C1311.186,1606.7,1322.552,1612.53,1322.552,1619.4Z" transform="translate(-171.061 -77.515)" opacity="0.22"/>
      <g id="Grupo_895233" data-name="Grupo 895233" transform="translate(996.319 1480.171)">
        <g id="Grupo_895231" data-name="Grupo 895231">
          <path id="Trazado_624004" data-name="Trazado 624004" d="M1102.837,1540.959c0,.173-.008.344-.021.512a6.622,6.622,0,0,1-2.336,4.39,8.931,8.931,0,0,1-5.491,2.106v.05h-53.161v-.045a13.655,13.655,0,0,1-7.932-2.585,11.538,11.538,0,0,1-2.379-2.365,8.275,8.275,0,0,1-.649-1c-.076-.128-.146-.261-.213-.395a11.523,11.523,0,0,1-1.12-4.342c-.606-8.358,5.96-11.112,11.036-12.481-1.728-10.533,8.5-18.7,19.851-18.7a19.334,19.334,0,0,1,12.976,4.794,16.387,16.387,0,0,1,5.556,11.212c.038-.013.253-.068.578-.138a24.025,24.025,0,0,1,3.725-.594c.1,0,.2,0,.31,0a13.788,13.788,0,0,1,9.448,3.571v0a10,10,0,0,1,3.3,7.3,9.659,9.659,0,0,1-.178,1.817,8.5,8.5,0,0,1,5.114,2.759l.006.01A6.309,6.309,0,0,1,1102.837,1540.959Z" transform="translate(-1029.414 -1506.019)" fill="#465ab3"/>
          <path id="Trazado_624005" data-name="Trazado 624005" d="M1094.979,1548.008h-53.325v-.047a13.7,13.7,0,0,1-7.9-2.6,11.629,11.629,0,0,1-2.4-2.381,8.464,8.464,0,0,1-.655-1.012c-.065-.11-.131-.233-.214-.4a11.615,11.615,0,0,1-1.128-4.373c-.607-8.376,5.978-11.176,11.025-12.547a14.037,14.037,0,0,1,3.364-11.569,19.8,19.8,0,0,1,7.208-5.224,23.694,23.694,0,0,1,9.371-1.93,19.45,19.45,0,0,1,13.031,4.815,16.448,16.448,0,0,1,5.576,11.168c.1-.026.268-.066.486-.113a24.672,24.672,0,0,1,3.741-.595c.1,0,.205-.005.311-.005a13.947,13.947,0,0,1,9.5,3.593l.026.027a10.085,10.085,0,0,1,3.3,7.338,9.726,9.726,0,0,1-.164,1.75,8.533,8.533,0,0,1,5.08,2.773l.011.017a6.369,6.369,0,0,1,1.592,4.173c0,.166-.008.336-.022.519a6.716,6.716,0,0,1-2.364,4.445,8.985,8.985,0,0,1-5.463,2.122Zm-53.161-.164h53v-.047l.078,0a8.832,8.832,0,0,0,5.441-2.086,6.557,6.557,0,0,0,2.309-4.335c.014-.178.021-.344.021-.505a6.207,6.207,0,0,0-1.557-4.073l-.011-.017a8.393,8.393,0,0,0-5.059-2.725l-.083-.013.016-.083a9.609,9.609,0,0,0,.176-1.8,9.929,9.929,0,0,0-3.277-7.243l-.026-.026a13.79,13.79,0,0,0-9.366-3.524c-.1,0-.206,0-.307,0a23.513,23.513,0,0,0-3.71.591c-.33.072-.539.126-.571.136l-.1.033-.007-.106a16.278,16.278,0,0,0-5.528-11.156,19.288,19.288,0,0,0-12.922-4.773c-6.53,0-12.681,2.653-16.454,7.1a13.876,13.876,0,0,0-3.316,11.51l.012.073-.071.02c-5,1.348-11.577,4.1-10.976,12.4a11.463,11.463,0,0,0,1.111,4.312c.081.16.146.281.21.389a8.318,8.318,0,0,0,.643,1,11.467,11.467,0,0,0,2.363,2.348,13.563,13.563,0,0,0,7.885,2.569l.081,0Z" transform="translate(-1029.323 -1505.928)" fill="#06355c"/>
        </g>
        <g id="Grupo_895232" data-name="Grupo 895232" transform="translate(7.245 1.451)">
          <path id="Trazado_624006" data-name="Trazado 624006" d="M1110.906,1542.82c0,.167-.007.333-.019.495a6.538,6.538,0,0,1-2.105,4.238,7.751,7.751,0,0,1-4.949,2.033v.049h-47.909v-.044a11.769,11.769,0,0,1-7.149-2.5,10.8,10.8,0,0,1-2.144-2.282,8.233,8.233,0,0,1-.585-.968c-.068-.124-.131-.252-.192-.381a11.753,11.753,0,0,1-1.009-4.192c-.546-8.068,5.371-10.727,9.946-12.049-1.557-10.169,7.658-18.052,17.89-18.052a16.77,16.77,0,0,1,11.694,4.628,16.254,16.254,0,0,1,5.007,10.824c.034-.012.228-.065.521-.133a20.309,20.309,0,0,1,3.358-.573c.092,0,.184,0,.279,0a11.976,11.976,0,0,1,8.515,3.447v0a9.812,9.812,0,0,1,2.816,8.8,7.533,7.533,0,0,1,4.609,2.664l0,.01A6.342,6.342,0,0,1,1110.906,1542.82Z" transform="translate(-1044.728 -1509.088)" fill="#5971d4"/>
          <path id="Trazado_624007" data-name="Trazado 624007" d="M1103.823,1549.624h-48.073v-.046a11.823,11.823,0,0,1-7.117-2.512,10.876,10.876,0,0,1-2.161-2.3,8.334,8.334,0,0,1-.59-.977c-.058-.106-.118-.225-.193-.383a11.847,11.847,0,0,1-1.017-4.221c-.547-8.084,5.386-10.789,9.935-12.113a14.42,14.42,0,0,1,3.433-11.653A19.3,19.3,0,0,1,1072.59,1509a16.874,16.874,0,0,1,11.751,4.651,16.314,16.314,0,0,1,5.026,10.776c.092-.025.238-.062.427-.106a20.833,20.833,0,0,1,3.374-.575c.092,0,.186,0,.281,0a12.118,12.118,0,0,1,8.573,3.471l.024.026a9.888,9.888,0,0,1,2.829,8.771,7.575,7.575,0,0,1,4.578,2.679l.01.016a6.4,6.4,0,0,1,1.434,4.027c0,.161-.007.324-.02.5a6.638,6.638,0,0,1-2.131,4.292,7.812,7.812,0,0,1-4.923,2.051Zm-47.909-.164h47.745v-.045l.078,0a7.657,7.657,0,0,0,4.9-2.011,6.476,6.476,0,0,0,2.08-4.185c.013-.172.019-.332.019-.488a6.242,6.242,0,0,0-1.4-3.932l-.01-.017a7.421,7.421,0,0,0-4.554-2.627l-.081-.014.014-.081a9.726,9.726,0,0,0-2.794-8.731l-.024-.026a11.96,11.96,0,0,0-8.433-3.4c-.094,0-.185,0-.277,0a19.768,19.768,0,0,0-3.34.571c-.3.069-.485.121-.513.131l-.1.037-.007-.109a16.148,16.148,0,0,0-4.981-10.769,16.712,16.712,0,0,0-11.638-4.605,19.134,19.134,0,0,0-14.424,6.366,14.259,14.259,0,0,0-3.385,11.593l.011.071-.069.02c-4.5,1.3-10.428,3.958-9.887,11.964a11.7,11.7,0,0,0,1,4.163c.073.155.132.271.189.376a8.2,8.2,0,0,0,.58.96,10.739,10.739,0,0,0,2.129,2.266,11.678,11.678,0,0,0,7.1,2.478l.08,0Z" transform="translate(-1044.637 -1508.996)" fill="#06355c"/>
        </g>
        <path id="Trazado_624008" data-name="Trazado 624008" d="M1094.628,1536.523l-14.269,18.771H1108.9Z" transform="translate(-1056.214 -1522.048)" fill="#1d263f"/>
        <path id="Trazado_624009" data-name="Trazado 624009" d="M1100.169,1541.341l-12.536,16.492h25.072Z" transform="translate(-1060.046 -1524.587)" fill="#0b5999"/>
        <path id="Trazado_624010" data-name="Trazado 624010" d="M1092.34,1575.6v8.06h-4.857v1.951H1099.7V1575.6Z" transform="translate(-1059.967 -1542.637)" fill="#1d263f"/>
        <rect id="Rectángulo_302352" data-name="Rectángulo 302352" width="7.359" height="10.011" transform="translate(35.591 32.963)" fill="#0b5999"/>
      </g>
      <g id="Grupo_895239" data-name="Grupo 895239" transform="translate(1166.553 1471.027)">
        <g id="Grupo_895234" data-name="Grupo 895234" transform="translate(23.315 8.195)">
          <rect id="Rectángulo_302353" data-name="Rectángulo 302353" width="43.704" height="31.028" transform="translate(0.204 43.163) rotate(-79.398)" fill="#c4d2ff"/>
          <path id="Trazado_624011" data-name="Trazado 624011" d="M1469.265,1553l-30.843-5.773.032-.172,8.073-43.13,30.843,5.773-.032.172Zm-30.434-6.053,30.154,5.644,7.976-42.614-30.154-5.644Z" transform="translate(-1438.422 -1503.921)" fill="#06355c"/>
        </g>
        <g id="Grupo_895235" data-name="Grupo 895235" transform="translate(12.504 7.748)">
          <rect id="Rectángulo_302354" data-name="Rectángulo 302354" width="43.704" height="31.028" transform="translate(0.175 0.175)" fill="#b8c8fb"/>
          <path id="Trazado_624012" data-name="Trazado 624012" d="M1459.626,1534.355h-44.055v-31.378h44.055Zm-43.7-.35h43.353v-30.678h-43.353Z" transform="translate(-1415.571 -1502.977)" fill="#06355c"/>
        </g>
        <g id="Grupo_895236" data-name="Grupo 895236" transform="translate(2.33 6.097)">
          <rect id="Rectángulo_302355" data-name="Rectángulo 302355" width="43.704" height="31.028" transform="translate(0.175 0.175)" fill="#a9c5db"/>
          <path id="Trazado_624013" data-name="Trazado 624013" d="M1438.121,1530.867h-44.055v-31.379h44.055Zm-43.7-.351h43.354v-30.678h-43.354Z" transform="translate(-1394.066 -1499.488)" fill="#06355c"/>
        </g>
        <g id="Grupo_895237" data-name="Grupo 895237" transform="translate(2.527)">
          <rect id="Rectángulo_302356" data-name="Rectángulo 302356" width="31.028" height="43.704" transform="translate(0.217 30.009) rotate(-73.771)" fill="#97aaef"/>
          <path id="Trazado_624014" data-name="Trazado 624014" d="M1436.781,1529.04l-.168-.049-42.131-12.263,8.77-30.128.168.049,42.131,12.263Zm-41.865-12.551,41.626,12.116,8.574-29.455-41.626-12.116Z" transform="translate(-1394.482 -1486.6)" fill="#06355c"/>
        </g>
        <g id="Grupo_895238" data-name="Grupo 895238" transform="translate(0 13.864)">
          <rect id="Rectángulo_302357" data-name="Rectángulo 302357" width="43.704" height="44.491" transform="translate(0.175 0.175)" fill="#c4d2ff"/>
          <path id="Trazado_624015" data-name="Trazado 624015" d="M1433.2,1560.745h-44.055V1515.9H1433.2Zm-43.7-.351h43.354v-44.14h-43.354Z" transform="translate(-1389.141 -1515.904)" fill="#06355c"/>
        </g>
        <path id="Trazado_624016" data-name="Trazado 624016" d="M1446.746,1524.886h-.282l-1.5-3.211c-.453-1.161-1.391-1.461-2.856-1.461h-17.485a2.511,2.511,0,0,0-.692.1l-.026.008a2.674,2.674,0,0,0-1.6,1.2l-1.937,3.371h-25.487a2.762,2.762,0,0,0-2.934,2.529v29.391a.976.976,0,0,0,1.036.893h55.659a.976.976,0,0,0,1.036-.893v-29.391A2.762,2.762,0,0,0,1446.746,1524.886Z" transform="translate(-1390.62 -1504.311)" fill="#fabbd0"/>
        <rect id="Rectángulo_302358" data-name="Rectángulo 302358" width="57.732" height="33.585" rx="3.2" transform="translate(1.328 24.945)" fill="#fabbd0"/>
        <path id="Trazado_624017" data-name="Trazado 624017" d="M1446.746,1529.781h-.682l-1.426-3.094c-.438-1.161-1.344-1.461-2.761-1.461h-16.9a2.352,2.352,0,0,0-.67.1l-.025.008a2.6,2.6,0,0,0-1.544,1.2l-1.8,3.255h-26.052a2.762,2.762,0,0,0-2.934,2.529V1561.7a.976.976,0,0,0,1.036.893h55.659a.976.976,0,0,0,1.036-.893V1532.31A2.762,2.762,0,0,0,1446.746,1529.781Z" transform="translate(-1390.62 -1506.952)" fill="#fabbd0"/>
      </g>
      <g id="Grupo_895240" data-name="Grupo 895240" transform="translate(1090.532 1457.043)">
        <path id="Trazado_624018" data-name="Trazado 624018" d="M1284.136,1484.882a27.838,27.838,0,1,1-8.154-19.685A27.753,27.753,0,0,1,1284.136,1484.882Z" transform="translate(-1228.459 -1457.043)" fill="#ef3c79"/>
        <text id="X" transform="translate(27.771 36.723)" fill="#fff" font-size="24" font-family="Roboto-Black, Roboto" font-weight="800"><tspan x="-7.658" y="0">X</tspan></text>
      </g>
      <g id="Grupo_895253" data-name="Grupo 895253" transform="translate(1037.398 1624.348)">
        <rect id="Rectángulo_302359" data-name="Rectángulo 302359" width="43.786" height="10.307" rx="3.038" transform="translate(0)" fill="#3c4f93"/>
        <rect id="Rectángulo_302360" data-name="Rectángulo 302360" width="43.786" height="10.307" rx="3.038" transform="translate(15.035)" fill="#4d64c2"/>
        <path id="Trazado_624020" data-name="Trazado 624020" d="M1168.2,1830.315h17.166v-.985a.94.94,0,0,0-.94-.94h-15.285a.94.94,0,0,0-.941.94Z" transform="translate(-1143.575 -1820.007)" fill="#0b5999"/>
        <path id="Trazado_624021" data-name="Trazado 624021" d="M1122.949,1830.315h8.971v-.985a.94.94,0,0,0-.941-.94h-7.09a.94.94,0,0,0-.941.94Z" transform="translate(-1119.733 -1820.007)" fill="#0b5999"/>
        <rect id="Rectángulo_302361" data-name="Rectángulo 302361" width="49.641" height="1.873" transform="translate(4.33 10.307)" fill="#1d263f"/>
        <rect id="Rectángulo_302362" data-name="Rectángulo 302362" width="43.786" height="10.307" rx="3.038" transform="translate(0 12.18)" fill="#3c4f93"/>
        <rect id="Rectángulo_302363" data-name="Rectángulo 302363" width="43.786" height="10.307" rx="3.038" transform="translate(15.035 12.18)" fill="#4d64c2"/>
        <path id="Trazado_624022" data-name="Trazado 624022" d="M1168.2,1856.059h17.166v-.984a.94.94,0,0,0-.94-.94h-15.285a.94.94,0,0,0-.941.94Z" transform="translate(-1143.575 -1833.572)" fill="#0b5999"/>
        <path id="Trazado_624023" data-name="Trazado 624023" d="M1122.949,1856.059h8.971v-.984a.94.94,0,0,0-.941-.94h-7.09a.94.94,0,0,0-.941.94Z" transform="translate(-1119.733 -1833.572)" fill="#0b5999"/>
        <rect id="Rectángulo_302364" data-name="Rectángulo 302364" width="49.641" height="1.873" transform="translate(4.33 22.487)" fill="#1d263f"/>
        <rect id="Rectángulo_302365" data-name="Rectángulo 302365" width="43.786" height="10.307" rx="3.038" transform="translate(0 24.36)" fill="#3c4f93"/>
        <rect id="Rectángulo_302366" data-name="Rectángulo 302366" width="43.786" height="10.307" rx="3.038" transform="translate(15.035 24.36)" fill="#4d64c2"/>
        <path id="Trazado_624024" data-name="Trazado 624024" d="M1168.2,1881.8h17.166v-.984a.94.94,0,0,0-.94-.94h-15.285a.941.941,0,0,0-.941.94Z" transform="translate(-1143.575 -1847.136)" fill="#0b5999"/>
        <path id="Trazado_624025" data-name="Trazado 624025" d="M1122.949,1881.8h8.971v-.984a.94.94,0,0,0-.941-.94h-7.09a.94.94,0,0,0-.941.94Z" transform="translate(-1119.733 -1847.136)" fill="#0b5999"/>
        <rect id="Rectángulo_302367" data-name="Rectángulo 302367" width="49.641" height="1.873" transform="translate(4.33 34.667)" fill="#1d263f"/>
        <rect id="Rectángulo_302368" data-name="Rectángulo 302368" width="43.786" height="10.307" rx="3.038" transform="translate(0 36.54)" fill="#3c4f93"/>
        <rect id="Rectángulo_302369" data-name="Rectángulo 302369" width="43.786" height="10.307" rx="3.038" transform="translate(15.035 36.54)" fill="#4d64c2"/>
        <path id="Trazado_624026" data-name="Trazado 624026" d="M1168.2,1907.549h17.166v-.985a.94.94,0,0,0-.94-.94h-15.285a.94.94,0,0,0-.941.94Z" transform="translate(-1143.575 -1860.701)" fill="#0b5999"/>
        <path id="Trazado_624027" data-name="Trazado 624027" d="M1122.949,1907.549h8.971v-.985a.94.94,0,0,0-.941-.94h-7.09a.94.94,0,0,0-.941.94Z" transform="translate(-1119.733 -1860.701)" fill="#0b5999"/>
        <rect id="Rectángulo_302370" data-name="Rectángulo 302370" width="49.641" height="1.873" transform="translate(4.33 46.847)" fill="#1d263f"/>
        <rect id="Rectángulo_302371" data-name="Rectángulo 302371" width="29.756" height="1.366" transform="translate(17.721 3.054)" fill="#0b5999"/>
        <rect id="Rectángulo_302372" data-name="Rectángulo 302372" width="29.756" height="1.366" transform="translate(17.721 4.966)" fill="#0b5999"/>
        <rect id="Rectángulo_302373" data-name="Rectángulo 302373" width="21.808" height="1.366" transform="translate(17.721 3.054)" fill="#fabbd0"/>
        <rect id="Rectángulo_302374" data-name="Rectángulo 302374" width="12.709" height="1.366" transform="translate(17.721 4.966)" fill="#fabbd0"/>
        <rect id="Rectángulo_302375" data-name="Rectángulo 302375" width="29.756" height="1.366" transform="translate(17.721 15.521)" fill="#0b5999"/>
        <rect id="Rectángulo_302376" data-name="Rectángulo 302376" width="29.756" height="1.366" transform="translate(17.721 17.433)" fill="#0b5999"/>
        <rect id="Rectángulo_302377" data-name="Rectángulo 302377" width="21.808" height="1.366" transform="translate(17.721 15.521)" fill="#fabbd0"/>
        <rect id="Rectángulo_302378" data-name="Rectángulo 302378" width="12.709" height="1.366" transform="translate(17.721 17.433)" fill="#fabbd0"/>
        <rect id="Rectángulo_302379" data-name="Rectángulo 302379" width="29.756" height="1.366" transform="translate(17.721 27.701)" fill="#0b5999"/>
        <rect id="Rectángulo_302380" data-name="Rectángulo 302380" width="29.756" height="1.366" transform="translate(17.721 29.613)" fill="#0b5999"/>
        <rect id="Rectángulo_302381" data-name="Rectángulo 302381" width="21.808" height="1.366" transform="translate(17.721 27.701)" fill="#fabbd0"/>
        <rect id="Rectángulo_302382" data-name="Rectángulo 302382" width="12.709" height="1.366" transform="translate(17.721 29.613)" fill="#fabbd0"/>
        <rect id="Rectángulo_302383" data-name="Rectángulo 302383" width="29.756" height="1.366" transform="translate(17.721 39.881)" fill="#0b5999"/>
        <rect id="Rectángulo_302384" data-name="Rectángulo 302384" width="29.756" height="1.366" transform="translate(17.721 41.793)" fill="#0b5999"/>
        <rect id="Rectángulo_302385" data-name="Rectángulo 302385" width="21.808" height="1.366" transform="translate(17.721 39.881)" fill="#fabbd0"/>
        <rect id="Rectángulo_302386" data-name="Rectángulo 302386" width="12.709" height="1.366" transform="translate(17.721 41.793)" fill="#fabbd0"/>
        <path id="Trazado_624028" data-name="Trazado 624028" d="M1229.084,1821.855h0a.8.8,0,0,0,.8-.8h0a.8.8,0,0,0-.8-.8h0a.8.8,0,0,0-.8.8h0A.8.8,0,0,0,1229.084,1821.855Z" transform="translate(-1175.231 -1815.717)" fill="#fff"/>
        <path id="Trazado_624029" data-name="Trazado 624029" d="M1223.915,1821.855h0a.8.8,0,0,0,.8-.8h0a.8.8,0,0,0-.8-.8h0a.8.8,0,0,0-.8.8h0A.8.8,0,0,0,1223.915,1821.855Z" transform="translate(-1172.507 -1815.717)" fill="#fff"/>
        <path id="Trazado_624030" data-name="Trazado 624030" d="M1229.084,1847.218h0a.8.8,0,0,0,.8-.8h0a.8.8,0,0,0-.8-.8h0a.8.8,0,0,0-.8.8h0A.8.8,0,0,0,1229.084,1847.218Z" transform="translate(-1175.231 -1829.08)" fill="#fff"/>
        <path id="Trazado_624031" data-name="Trazado 624031" d="M1223.915,1847.218h0a.8.8,0,0,0,.8-.8h0a.8.8,0,0,0-.8-.8h0a.8.8,0,0,0-.8.8h0A.8.8,0,0,0,1223.915,1847.218Z" transform="translate(-1172.507 -1829.08)" fill="#fff"/>
        <path id="Trazado_624032" data-name="Trazado 624032" d="M1229.084,1873.187h0a.8.8,0,0,0,.8-.8h0a.8.8,0,0,0-.8-.8h0a.8.8,0,0,0-.8.8h0A.8.8,0,0,0,1229.084,1873.187Z" transform="translate(-1175.231 -1842.763)" fill="#fff"/>
        <path id="Trazado_624033" data-name="Trazado 624033" d="M1223.915,1873.187h0a.8.8,0,0,0,.8-.8h0a.8.8,0,0,0-.8-.8h0a.8.8,0,0,0-.8.8h0A.8.8,0,0,0,1223.915,1873.187Z" transform="translate(-1172.507 -1842.763)" fill="#fff"/>
        <path id="Trazado_624034" data-name="Trazado 624034" d="M1229.084,1898.932h0a.8.8,0,0,0,.8-.8h0a.8.8,0,0,0-.8-.8h0a.8.8,0,0,0-.8.8h0A.8.8,0,0,0,1229.084,1898.932Z" transform="translate(-1175.231 -1856.327)" fill="#fff"/>
        <path id="Trazado_624035" data-name="Trazado 624035" d="M1223.915,1898.932h0a.8.8,0,0,0,.8-.8h0a.8.8,0,0,0-.8-.8h0a.8.8,0,0,0-.8.8h0A.8.8,0,0,0,1223.915,1898.932Z" transform="translate(-1172.507 -1856.327)" fill="#fff"/>
        <g id="Grupo_895243" data-name="Grupo 895243" transform="translate(2.351 2.016)">
          <g id="Grupo_895241" data-name="Grupo 895241">
            <rect id="Rectángulo_302387" data-name="Rectángulo 302387" width="1" height="1" transform="translate(9.624)" fill="#0b5999"/>
            <rect id="Rectángulo_302388" data-name="Rectángulo 302388" width="1" height="1" transform="translate(6.416)" fill="#0b5999"/>
            <rect id="Rectángulo_302389" data-name="Rectángulo 302389" width="1" height="1" transform="translate(3.208)" fill="#0b5999"/>
            <rect id="Rectángulo_302390" data-name="Rectángulo 302390" width="1" height="1" fill="#0b5999"/>
          </g>
          <g id="Grupo_895242" data-name="Grupo 895242" transform="translate(0 3.315)">
            <rect id="Rectángulo_302391" data-name="Rectángulo 302391" width="1" height="1" transform="translate(9.624)" fill="#0b5999"/>
            <rect id="Rectángulo_302392" data-name="Rectángulo 302392" width="1" height="1" transform="translate(6.416)" fill="#0b5999"/>
            <rect id="Rectángulo_302393" data-name="Rectángulo 302393" width="1" height="1" transform="translate(3.208)" fill="#0b5999"/>
            <rect id="Rectángulo_302394" data-name="Rectángulo 302394" width="1" height="1" fill="#0b5999"/>
          </g>
        </g>
        <g id="Grupo_895246" data-name="Grupo 895246" transform="translate(2.351 14.483)">
          <g id="Grupo_895244" data-name="Grupo 895244">
            <rect id="Rectángulo_302395" data-name="Rectángulo 302395" width="1" height="1" transform="translate(9.624)" fill="#0b5999"/>
            <rect id="Rectángulo_302396" data-name="Rectángulo 302396" width="1" height="1" transform="translate(6.416)" fill="#0b5999"/>
            <rect id="Rectángulo_302397" data-name="Rectángulo 302397" width="1" height="1" transform="translate(3.208)" fill="#0b5999"/>
            <rect id="Rectángulo_302398" data-name="Rectángulo 302398" width="1" height="1" fill="#0b5999"/>
          </g>
          <g id="Grupo_895245" data-name="Grupo 895245" transform="translate(0 3.316)">
            <rect id="Rectángulo_302399" data-name="Rectángulo 302399" width="1" height="1" transform="translate(9.624)" fill="#0b5999"/>
            <rect id="Rectángulo_302400" data-name="Rectángulo 302400" width="1" height="1" transform="translate(6.416)" fill="#0b5999"/>
            <rect id="Rectángulo_302401" data-name="Rectángulo 302401" width="1" height="1" transform="translate(3.208)" fill="#0b5999"/>
            <rect id="Rectángulo_302402" data-name="Rectángulo 302402" width="1" height="1" fill="#0b5999"/>
          </g>
        </g>
        <g id="Grupo_895249" data-name="Grupo 895249" transform="translate(2.351 26.663)">
          <g id="Grupo_895247" data-name="Grupo 895247">
            <rect id="Rectángulo_302403" data-name="Rectángulo 302403" width="1" height="1" transform="translate(9.624)" fill="#0b5999"/>
            <rect id="Rectángulo_302404" data-name="Rectángulo 302404" width="1" height="1" transform="translate(6.416)" fill="#0b5999"/>
            <rect id="Rectángulo_302405" data-name="Rectángulo 302405" width="1" height="1" transform="translate(3.208)" fill="#0b5999"/>
            <rect id="Rectángulo_302406" data-name="Rectángulo 302406" width="1" height="1" fill="#0b5999"/>
          </g>
          <g id="Grupo_895248" data-name="Grupo 895248" transform="translate(0 3.316)">
            <rect id="Rectángulo_302407" data-name="Rectángulo 302407" width="1" height="1" transform="translate(9.624)" fill="#0b5999"/>
            <rect id="Rectángulo_302408" data-name="Rectángulo 302408" width="1" height="1" transform="translate(6.416)" fill="#0b5999"/>
            <rect id="Rectángulo_302409" data-name="Rectángulo 302409" width="1" height="1" transform="translate(3.208)" fill="#0b5999"/>
            <rect id="Rectángulo_302410" data-name="Rectángulo 302410" width="1" height="1" fill="#0b5999"/>
          </g>
        </g>
        <g id="Grupo_895252" data-name="Grupo 895252" transform="translate(2.351 38.877)">
          <g id="Grupo_895250" data-name="Grupo 895250">
            <rect id="Rectángulo_302411" data-name="Rectángulo 302411" width="1" height="1" transform="translate(9.624)" fill="#0b5999"/>
            <rect id="Rectángulo_302412" data-name="Rectángulo 302412" width="1" height="1" transform="translate(6.416)" fill="#0b5999"/>
            <rect id="Rectángulo_302413" data-name="Rectángulo 302413" width="1" height="1" transform="translate(3.208)" fill="#0b5999"/>
            <rect id="Rectángulo_302414" data-name="Rectángulo 302414" width="1" height="1" fill="#0b5999"/>
          </g>
          <g id="Grupo_895251" data-name="Grupo 895251" transform="translate(0 3.315)">
            <rect id="Rectángulo_302415" data-name="Rectángulo 302415" width="1" height="1" transform="translate(9.624)" fill="#0b5999"/>
            <rect id="Rectángulo_302416" data-name="Rectángulo 302416" width="1" height="1" transform="translate(6.416)" fill="#0b5999"/>
            <rect id="Rectángulo_302417" data-name="Rectángulo 302417" width="1" height="1" transform="translate(3.208)" fill="#0b5999"/>
            <rect id="Rectángulo_302418" data-name="Rectángulo 302418" width="1" height="1" fill="#0b5999"/>
          </g>
        </g>
      </g>
      <g id="Grupo_895266" data-name="Grupo 895266" transform="translate(1115.155 1624.348)">
        <rect id="Rectángulo_302419" data-name="Rectángulo 302419" width="43.786" height="10.307" rx="3.038" transform="translate(0)" fill="#3c4f93"/>
        <rect id="Rectángulo_302420" data-name="Rectángulo 302420" width="43.786" height="10.307" rx="3.038" transform="translate(15.035)" fill="#4d64c2"/>
        <path id="Trazado_624036" data-name="Trazado 624036" d="M1332.552,1830.315h17.166v-.985a.94.94,0,0,0-.94-.94h-15.285a.94.94,0,0,0-.94.94Z" transform="translate(-1307.927 -1820.007)" fill="#0b5999"/>
        <path id="Trazado_624037" data-name="Trazado 624037" d="M1287.3,1830.315h8.97v-.985a.94.94,0,0,0-.94-.94h-7.09a.94.94,0,0,0-.94.94Z" transform="translate(-1284.085 -1820.007)" fill="#0b5999"/>
        <rect id="Rectángulo_302421" data-name="Rectángulo 302421" width="49.641" height="1.873" transform="translate(4.33 10.307)" fill="#1d263f"/>
        <rect id="Rectángulo_302422" data-name="Rectángulo 302422" width="43.786" height="10.307" rx="3.038" transform="translate(0 12.18)" fill="#3c4f93"/>
        <rect id="Rectángulo_302423" data-name="Rectángulo 302423" width="43.786" height="10.307" rx="3.038" transform="translate(15.035 12.18)" fill="#4d64c2"/>
        <path id="Trazado_624038" data-name="Trazado 624038" d="M1332.552,1856.059h17.166v-.984a.94.94,0,0,0-.94-.94h-15.285a.94.94,0,0,0-.94.94Z" transform="translate(-1307.927 -1833.572)" fill="#0b5999"/>
        <path id="Trazado_624039" data-name="Trazado 624039" d="M1287.3,1856.059h8.97v-.984a.94.94,0,0,0-.94-.94h-7.09a.94.94,0,0,0-.94.94Z" transform="translate(-1284.085 -1833.572)" fill="#0b5999"/>
        <rect id="Rectángulo_302424" data-name="Rectángulo 302424" width="49.641" height="1.873" transform="translate(4.33 22.487)" fill="#1d263f"/>
        <rect id="Rectángulo_302425" data-name="Rectángulo 302425" width="43.786" height="10.307" rx="3.038" transform="translate(0 24.36)" fill="#3c4f93"/>
        <rect id="Rectángulo_302426" data-name="Rectángulo 302426" width="43.786" height="10.307" rx="3.038" transform="translate(15.035 24.36)" fill="#4d64c2"/>
        <path id="Trazado_624040" data-name="Trazado 624040" d="M1332.552,1881.8h17.166v-.984a.94.94,0,0,0-.94-.94h-15.285a.94.94,0,0,0-.94.94Z" transform="translate(-1307.927 -1847.136)" fill="#0b5999"/>
        <path id="Trazado_624041" data-name="Trazado 624041" d="M1287.3,1881.8h8.97v-.984a.94.94,0,0,0-.94-.94h-7.09a.94.94,0,0,0-.94.94Z" transform="translate(-1284.085 -1847.136)" fill="#0b5999"/>
        <rect id="Rectángulo_302427" data-name="Rectángulo 302427" width="49.641" height="1.873" transform="translate(4.33 34.667)" fill="#1d263f"/>
        <rect id="Rectángulo_302428" data-name="Rectángulo 302428" width="43.786" height="10.307" rx="3.038" transform="translate(0 36.54)" fill="#3c4f93"/>
        <rect id="Rectángulo_302429" data-name="Rectángulo 302429" width="43.786" height="10.307" rx="3.038" transform="translate(15.035 36.54)" fill="#4d64c2"/>
        <path id="Trazado_624042" data-name="Trazado 624042" d="M1332.552,1907.549h17.166v-.985a.94.94,0,0,0-.94-.94h-15.285a.94.94,0,0,0-.94.94Z" transform="translate(-1307.927 -1860.701)" fill="#0b5999"/>
        <path id="Trazado_624043" data-name="Trazado 624043" d="M1287.3,1907.549h8.97v-.985a.94.94,0,0,0-.94-.94h-7.09a.94.94,0,0,0-.94.94Z" transform="translate(-1284.085 -1860.701)" fill="#0b5999"/>
        <rect id="Rectángulo_302430" data-name="Rectángulo 302430" width="49.641" height="1.873" transform="translate(4.33 46.847)" fill="#1d263f"/>
        <rect id="Rectángulo_302431" data-name="Rectángulo 302431" width="29.756" height="1.366" transform="translate(17.721 3.054)" fill="#0b5999"/>
        <rect id="Rectángulo_302432" data-name="Rectángulo 302432" width="29.756" height="1.366" transform="translate(17.721 4.966)" fill="#0b5999"/>
        <rect id="Rectángulo_302433" data-name="Rectángulo 302433" width="21.808" height="1.366" transform="translate(17.721 3.054)" fill="#fabbd0"/>
        <rect id="Rectángulo_302434" data-name="Rectángulo 302434" width="12.709" height="1.366" transform="translate(17.721 4.966)" fill="#fabbd0"/>
        <rect id="Rectángulo_302435" data-name="Rectángulo 302435" width="29.756" height="1.366" transform="translate(17.721 15.521)" fill="#0b5999"/>
        <rect id="Rectángulo_302436" data-name="Rectángulo 302436" width="29.756" height="1.366" transform="translate(17.721 17.433)" fill="#0b5999"/>
        <rect id="Rectángulo_302437" data-name="Rectángulo 302437" width="21.808" height="1.366" transform="translate(17.721 15.521)" fill="#fabbd0"/>
        <rect id="Rectángulo_302438" data-name="Rectángulo 302438" width="12.709" height="1.366" transform="translate(17.721 17.433)" fill="#fabbd0"/>
        <rect id="Rectángulo_302439" data-name="Rectángulo 302439" width="29.756" height="1.366" transform="translate(17.721 27.701)" fill="#0b5999"/>
        <rect id="Rectángulo_302440" data-name="Rectángulo 302440" width="29.756" height="1.366" transform="translate(17.721 29.613)" fill="#0b5999"/>
        <rect id="Rectángulo_302441" data-name="Rectángulo 302441" width="21.808" height="1.366" transform="translate(17.721 27.701)" fill="#fabbd0"/>
        <rect id="Rectángulo_302442" data-name="Rectángulo 302442" width="12.709" height="1.366" transform="translate(17.721 29.613)" fill="#fabbd0"/>
        <rect id="Rectángulo_302443" data-name="Rectángulo 302443" width="29.756" height="1.366" transform="translate(17.721 39.881)" fill="#0b5999"/>
        <rect id="Rectángulo_302444" data-name="Rectángulo 302444" width="29.756" height="1.366" transform="translate(17.721 41.793)" fill="#0b5999"/>
        <rect id="Rectángulo_302445" data-name="Rectángulo 302445" width="21.808" height="1.366" transform="translate(17.721 39.881)" fill="#fabbd0"/>
        <rect id="Rectángulo_302446" data-name="Rectángulo 302446" width="12.709" height="1.366" transform="translate(17.721 41.793)" fill="#fabbd0"/>
        <path id="Trazado_624044" data-name="Trazado 624044" d="M1393.436,1821.855h0a.8.8,0,0,0,.8-.8h0a.8.8,0,0,0-.8-.8h0a.8.8,0,0,0-.8.8h0A.8.8,0,0,0,1393.436,1821.855Z" transform="translate(-1339.583 -1815.717)" fill="#fff"/>
        <path id="Trazado_624045" data-name="Trazado 624045" d="M1388.266,1821.855h0a.8.8,0,0,0,.8-.8h0a.8.8,0,0,0-.8-.8h0a.8.8,0,0,0-.8.8h0A.8.8,0,0,0,1388.266,1821.855Z" transform="translate(-1336.859 -1815.717)" fill="#fff"/>
        <path id="Trazado_624046" data-name="Trazado 624046" d="M1393.436,1847.218h0a.8.8,0,0,0,.8-.8h0a.8.8,0,0,0-.8-.8h0a.8.8,0,0,0-.8.8h0A.8.8,0,0,0,1393.436,1847.218Z" transform="translate(-1339.583 -1829.08)" fill="#fff"/>
        <path id="Trazado_624047" data-name="Trazado 624047" d="M1388.266,1847.218h0a.8.8,0,0,0,.8-.8h0a.8.8,0,0,0-.8-.8h0a.8.8,0,0,0-.8.8h0A.8.8,0,0,0,1388.266,1847.218Z" transform="translate(-1336.859 -1829.08)" fill="#fff"/>
        <path id="Trazado_624048" data-name="Trazado 624048" d="M1393.436,1873.187h0a.8.8,0,0,0,.8-.8h0a.8.8,0,0,0-.8-.8h0a.8.8,0,0,0-.8.8h0A.8.8,0,0,0,1393.436,1873.187Z" transform="translate(-1339.583 -1842.763)" fill="#fff"/>
        <path id="Trazado_624049" data-name="Trazado 624049" d="M1388.266,1873.187h0a.8.8,0,0,0,.8-.8h0a.8.8,0,0,0-.8-.8h0a.8.8,0,0,0-.8.8h0A.8.8,0,0,0,1388.266,1873.187Z" transform="translate(-1336.859 -1842.763)" fill="#fff"/>
        <path id="Trazado_624050" data-name="Trazado 624050" d="M1393.436,1898.932h0a.8.8,0,0,0,.8-.8h0a.8.8,0,0,0-.8-.8h0a.8.8,0,0,0-.8.8h0A.8.8,0,0,0,1393.436,1898.932Z" transform="translate(-1339.583 -1856.327)" fill="#fff"/>
        <path id="Trazado_624051" data-name="Trazado 624051" d="M1388.266,1898.932h0a.8.8,0,0,0,.8-.8h0a.8.8,0,0,0-.8-.8h0a.8.8,0,0,0-.8.8h0A.8.8,0,0,0,1388.266,1898.932Z" transform="translate(-1336.859 -1856.327)" fill="#fff"/>
        <g id="Grupo_895256" data-name="Grupo 895256" transform="translate(2.351 2.016)">
          <g id="Grupo_895254" data-name="Grupo 895254">
            <rect id="Rectángulo_302447" data-name="Rectángulo 302447" width="1" height="1" transform="translate(9.624)" fill="#0b5999"/>
            <rect id="Rectángulo_302448" data-name="Rectángulo 302448" width="1" height="1" transform="translate(6.416)" fill="#0b5999"/>
            <rect id="Rectángulo_302449" data-name="Rectángulo 302449" width="1" height="1" transform="translate(3.208)" fill="#0b5999"/>
            <rect id="Rectángulo_302450" data-name="Rectángulo 302450" width="1" height="1" fill="#0b5999"/>
          </g>
          <g id="Grupo_895255" data-name="Grupo 895255" transform="translate(0 3.315)">
            <rect id="Rectángulo_302451" data-name="Rectángulo 302451" width="1" height="1" transform="translate(9.624)" fill="#0b5999"/>
            <rect id="Rectángulo_302452" data-name="Rectángulo 302452" width="1" height="1" transform="translate(6.416)" fill="#0b5999"/>
            <rect id="Rectángulo_302453" data-name="Rectángulo 302453" width="1" height="1" transform="translate(3.208)" fill="#0b5999"/>
            <rect id="Rectángulo_302454" data-name="Rectángulo 302454" width="1" height="1" fill="#0b5999"/>
          </g>
        </g>
        <g id="Grupo_895259" data-name="Grupo 895259" transform="translate(2.351 14.483)">
          <g id="Grupo_895257" data-name="Grupo 895257">
            <rect id="Rectángulo_302455" data-name="Rectángulo 302455" width="1" height="1" transform="translate(9.624)" fill="#0b5999"/>
            <rect id="Rectángulo_302456" data-name="Rectángulo 302456" width="1" height="1" transform="translate(6.416)" fill="#0b5999"/>
            <rect id="Rectángulo_302457" data-name="Rectángulo 302457" width="1" height="1" transform="translate(3.208)" fill="#0b5999"/>
            <rect id="Rectángulo_302458" data-name="Rectángulo 302458" width="1" height="1" fill="#0b5999"/>
          </g>
          <g id="Grupo_895258" data-name="Grupo 895258" transform="translate(0 3.316)">
            <rect id="Rectángulo_302459" data-name="Rectángulo 302459" width="1" height="1" transform="translate(9.624)" fill="#0b5999"/>
            <rect id="Rectángulo_302460" data-name="Rectángulo 302460" width="1" height="1" transform="translate(6.416)" fill="#0b5999"/>
            <rect id="Rectángulo_302461" data-name="Rectángulo 302461" width="1" height="1" transform="translate(3.208)" fill="#0b5999"/>
            <rect id="Rectángulo_302462" data-name="Rectángulo 302462" width="1" height="1" fill="#0b5999"/>
          </g>
        </g>
        <g id="Grupo_895262" data-name="Grupo 895262" transform="translate(2.351 26.663)">
          <g id="Grupo_895260" data-name="Grupo 895260">
            <rect id="Rectángulo_302463" data-name="Rectángulo 302463" width="1" height="1" transform="translate(9.624)" fill="#0b5999"/>
            <rect id="Rectángulo_302464" data-name="Rectángulo 302464" width="1" height="1" transform="translate(6.416)" fill="#0b5999"/>
            <rect id="Rectángulo_302465" data-name="Rectángulo 302465" width="1" height="1" transform="translate(3.208)" fill="#0b5999"/>
            <rect id="Rectángulo_302466" data-name="Rectángulo 302466" width="1" height="1" fill="#0b5999"/>
          </g>
          <g id="Grupo_895261" data-name="Grupo 895261" transform="translate(0 3.316)">
            <rect id="Rectángulo_302467" data-name="Rectángulo 302467" width="1" height="1" transform="translate(9.624)" fill="#0b5999"/>
            <rect id="Rectángulo_302468" data-name="Rectángulo 302468" width="1" height="1" transform="translate(6.416)" fill="#0b5999"/>
            <rect id="Rectángulo_302469" data-name="Rectángulo 302469" width="1" height="1" transform="translate(3.208)" fill="#0b5999"/>
            <rect id="Rectángulo_302470" data-name="Rectángulo 302470" width="1" height="1" fill="#0b5999"/>
          </g>
        </g>
        <g id="Grupo_895265" data-name="Grupo 895265" transform="translate(2.351 38.877)">
          <g id="Grupo_895263" data-name="Grupo 895263">
            <rect id="Rectángulo_302471" data-name="Rectángulo 302471" width="1" height="1" transform="translate(9.624)" fill="#0b5999"/>
            <rect id="Rectángulo_302472" data-name="Rectángulo 302472" width="1" height="1" transform="translate(6.416)" fill="#0b5999"/>
            <rect id="Rectángulo_302473" data-name="Rectángulo 302473" width="1" height="1" transform="translate(3.208)" fill="#0b5999"/>
            <rect id="Rectángulo_302474" data-name="Rectángulo 302474" width="1" height="1" fill="#0b5999"/>
          </g>
          <g id="Grupo_895264" data-name="Grupo 895264" transform="translate(0 3.315)">
            <rect id="Rectángulo_302475" data-name="Rectángulo 302475" width="1" height="1" transform="translate(9.624)" fill="#0b5999"/>
            <rect id="Rectángulo_302476" data-name="Rectángulo 302476" width="1" height="1" transform="translate(6.416)" fill="#0b5999"/>
            <rect id="Rectángulo_302477" data-name="Rectángulo 302477" width="1" height="1" transform="translate(3.208)" fill="#0b5999"/>
            <rect id="Rectángulo_302478" data-name="Rectángulo 302478" width="1" height="1" fill="#0b5999"/>
          </g>
        </g>
      </g>
    </g>
  </g>
</svg>
