<svg xmlns="http://www.w3.org/2000/svg" width="328.486" height="348.204" viewBox="0 0 328.486 348.204">
  <g id="Grupo_895643" data-name="Grupo 895643" transform="translate(-635.757 -3134.976)">
    <path id="Trazado_624633" data-name="Trazado 624633" d="M21,0H307.486a21,21,0,0,1,21,21V327.2a21,21,0,0,1-21,21H21a21,21,0,0,1-21-21V21A21,21,0,0,1,21,0Z" transform="translate(635.757 3134.976)" fill="#f6f6f6"/>
    <path id="Trazado_624634" data-name="Trazado 624634" d="M0,0H328.486V62.8a21,21,0,0,1-21,21H21a21,21,0,0,1-21-21Z" transform="translate(635.757 3399.382)" fill="#fecb2f"/>
    <path id="Trazado_624635" data-name="Trazado 624635" d="M123.932,15.443h1.445v2.539h-1.445V21h-3.291V17.982h-5.5l-.2-2.012,5.693-9.16V6.781h3.291Zm-5.85,0h2.559V11.068l-.205.332Zm18.613-.254a6.789,6.789,0,0,1-1.294,4.443,5.056,5.056,0,0,1-7.319-.01,6.779,6.779,0,0,1-1.3-4.434v-2.6a6.789,6.789,0,0,1,1.294-4.443,5.056,5.056,0,0,1,7.319.01,6.8,6.8,0,0,1,1.3,4.443ZM133.4,12.172a5.071,5.071,0,0,0-.4-2.29,1.338,1.338,0,0,0-1.27-.757,1.307,1.307,0,0,0-1.235.7,4.777,4.777,0,0,0-.415,2.129V15.59a5.11,5.11,0,0,0,.4,2.329,1.343,1.343,0,0,0,1.27.737,1.325,1.325,0,0,0,1.24-.718,4.878,4.878,0,0,0,.41-2.251Zm8.008.342h1.553a1.614,1.614,0,0,0,1.846-1.807,1.562,1.562,0,0,0-.439-1.147,1.666,1.666,0,0,0-1.24-.444,1.784,1.784,0,0,0-1.138.381,1.162,1.162,0,0,0-.483.947h-3.291a3.369,3.369,0,0,1,.625-2,4.127,4.127,0,0,1,1.733-1.372,5.926,5.926,0,0,1,2.437-.493,5.823,5.823,0,0,1,3.73,1.084,3.6,3.6,0,0,1,1.357,2.979,3,3,0,0,1-.562,1.733A4,4,0,0,1,145.9,13.7a3.823,3.823,0,0,1,1.777,1.245,3.279,3.279,0,0,1,.645,2.065,3.669,3.669,0,0,1-1.465,3.047,6.08,6.08,0,0,1-3.848,1.143,6.306,6.306,0,0,1-2.593-.532,4.062,4.062,0,0,1-1.812-1.475,3.834,3.834,0,0,1-.615-2.144H141.3a1.482,1.482,0,0,0,.527,1.133,1.862,1.862,0,0,0,1.3.479,1.95,1.95,0,0,0,1.387-.483,1.616,1.616,0,0,0,.518-1.235,1.889,1.889,0,0,0-.537-1.523,2.245,2.245,0,0,0-1.484-.449h-1.6Z" transform="translate(667.269 3428)" fill="#12263f"/>
    <path id="Trazado_623989" data-name="Trazado 623989" d="M1053.569,1507.2c22.058-24.944,55.789-38.829,89.065-37.6s65.551,17.262,87.378,42.409,33.127,58.939,31.806,92.211c-.765,19.269-6.079,39.217-19.415,53.147-10.412,10.876-24.875,17.173-39.619,20.227s-29.921,3.117-44.977,3.167l-127.551.424c-13.645.045-28.031-.1-39.817-6.973-11.658-6.8-19.037-19.45-22.069-32.6-4.167-18.071-.6-38.038,10.577-52.834,7-9.269,16.37-15.248,27.055-19.43,6.757-2.644,25.434-7.167,25.434-7.167s2.16-15.371,4.263-22.693A83.174,83.174,0,0,1,1053.569,1507.2Z" transform="translate(-314.303 1700.655)" fill="#dce4ff"/>
    <path id="Trazado_623990" data-name="Trazado 623990" d="M1267.768,1802.535v11.472a8.227,8.227,0,0,1-1.053,4.193,8.663,8.663,0,0,1-3.049,3.184c-5.717,3.431-13.718,6.038-22.838,7.31a91.329,91.329,0,0,1-12.6.862l-.5,0-.491,0c-14.249,0-27.158-3.233-35.387-8.172a8.9,8.9,0,0,1-3.133-3.184,8.229,8.229,0,0,1-1.048-4.193v-10.53c6.2,7,20.735,12.993,37.726,13.569h.035c.743.026,1.5.04,2.249.044.828,0,1.654-.024,2.471-.057a69.8,69.8,0,0,0,10.713-1.275C1252.977,1813.342,1262.524,1807.98,1267.768,1802.535Z" transform="translate(-430.74 1525.198)" fill="#5564a2"/>
    <path id="Trazado_623991" data-name="Trazado 623991" d="M1267.315,1782.562a6.354,6.354,0,0,1-.271,1.828c-1.806,6.059-12.48,11.066-26.844,13.009a97.623,97.623,0,0,1-10.656.837q-1.3.033-2.632.034-1.046,0-2.08-.021h-.024c-18.994-.378-34.522-5.857-37.7-12.982a6.583,6.583,0,0,1-.6-2.7c0-2.364,1.342-4.6,3.747-6.615.08-.067.16-.133.243-.2q.49-.394,1.032-.775a40.34,40.34,0,0,1,12.607-5.386q.771-.205,1.567-.4a83.42,83.42,0,0,1,11.108-1.84c3.228-.323,6.612-.495,10.1-.495a101.517,101.517,0,0,1,10.288.514q1.524.155,3,.355c2.614.353,5.106.809,7.443,1.354q1.042.242,2.043.509c5.716,1.519,10.377,3.594,13.467,6.025q.226.176.439.356l.184.155C1266.049,1778.087,1267.315,1780.267,1267.315,1782.562Z" transform="translate(-430.127 1543.997)" fill="#a9c5db"/>
    <path id="Trazado_624636" data-name="Trazado 624636" d="M37.14,0c20.512,0,37.14,5.994,37.14,13.387S57.651,26.774,37.14,26.774,0,20.78,0,13.387,16.628,0,37.14,0Z" transform="translate(759.833 3311.044)" fill="#fff"/>
    <path id="Trazado_624637" data-name="Trazado 624637" d="M37.14,0c20.512,0,37.14,5.994,37.14,13.387S57.651,26.774,37.14,26.774,0,20.78,0,13.387,16.628,0,37.14,0Z" transform="translate(759.833 3309.446)" fill="#fabbd0"/>
    <path id="Trazado_624638" data-name="Trazado 624638" d="M37.14,0c20.512,0,37.14,5.994,37.14,13.387S57.651,26.774,37.14,26.774,0,20.78,0,13.387,16.628,0,37.14,0Z" transform="translate(759.833 3304.076)" fill="#fff"/>
    <path id="Trazado_623992" data-name="Trazado 623992" d="M1267.768,1747.684v11.472a8.224,8.224,0,0,1-1.053,4.193,9.043,9.043,0,0,1-2.3,2.672c-.07.053-.154.106-.226.158s-.174.118-.26.174-.191.122-.289.18l-.206.122c-5.7,3.37-13.609,5.933-22.622,7.19a91.249,91.249,0,0,1-12.589.862c-.169,0-.328,0-.5,0s-.32,0-.489,0c-14.158,0-26.991-3.193-35.227-8.078l-.16-.1q-.2-.121-.4-.252c-.064-.044-.129-.088-.192-.133q-.2-.147-.4-.3a9.042,9.042,0,0,1-2.147-2.5,8.22,8.22,0,0,1-1.048-4.193v-10.53a34.6,34.6,0,0,0,9.763,6.971,55.971,55.971,0,0,0,6.706,2.788c.707.244,1.434.478,2.169.7.181.056.365.11.549.164a74.634,74.634,0,0,0,18.472,2.942q1.17.041,2.355.048,1.265-.006,2.51-.059h.019a68.947,68.947,0,0,0,10.6-1.273,67.309,67.309,0,0,0,7.082-1.816l.362-.116q1.177-.38,2.311-.794a58.746,58.746,0,0,0,6.755-2.927A37.1,37.1,0,0,0,1267.768,1747.684Z" transform="translate(-430.74 1554.098)" fill="#5564a2"/>
    <path id="Trazado_623993" data-name="Trazado 623993" d="M1267.315,1727.711a6.357,6.357,0,0,1-.271,1.828c-.887,2.974-3.909,5.694-8.458,7.923a45.372,45.372,0,0,1-6.555,2.552q-1.139.351-2.345.672l-.41.108a78,78,0,0,1-9.076,1.754,97.4,97.4,0,0,1-10.6.835h-.018q-1.325.034-2.673.034-1.1,0-2.192-.023a89.26,89.26,0,0,1-19.98-2.552c-.2-.051-.4-.1-.6-.157q-1.1-.292-2.151-.612a46.163,46.163,0,0,1-6.546-2.511c-4.207-2.029-7.141-4.472-8.335-7.148a6.582,6.582,0,0,1-.6-2.7c0-2.363,1.342-4.6,3.747-6.614.08-.067.16-.133.243-.2q.49-.4,1.034-.777a40.365,40.365,0,0,1,12.6-5.385q.771-.205,1.567-.4a83.382,83.382,0,0,1,11.108-1.84c3.228-.323,6.612-.494,10.1-.494a101.52,101.52,0,0,1,10.288.514q1.524.155,3,.355c2.614.353,5.106.809,7.445,1.354q1.043.242,2.042.508c5.715,1.519,10.375,3.594,13.466,6.024q.225.177.439.357l.184.156C1266.049,1723.237,1267.315,1725.417,1267.315,1727.711Z" transform="translate(-430.127 1572.896)" fill="#a9c5db"/>
    <path id="Trazado_624639" data-name="Trazado 624639" d="M37.14,0c20.512,0,37.14,5.994,37.14,13.387S57.651,26.774,37.14,26.774,0,20.78,0,13.387,16.628,0,37.14,0Z" transform="translate(759.833 3285.094)" fill="#fff"/>
    <path id="Trazado_624640" data-name="Trazado 624640" d="M37.14,0c20.512,0,37.14,5.994,37.14,13.387S57.651,26.774,37.14,26.774,0,20.78,0,13.387,16.628,0,37.14,0Z" transform="translate(759.833 3283.496)" fill="#fabbd0"/>
    <path id="Trazado_624641" data-name="Trazado 624641" d="M37.14,0c20.512,0,37.14,5.994,37.14,13.387S57.651,26.774,37.14,26.774,0,20.78,0,13.387,16.628,0,37.14,0Z" transform="translate(759.833 3278.125)" fill="#fff"/>
    <path id="Trazado_623994" data-name="Trazado 623994" d="M1267.768,1692.834v11.473a8.227,8.227,0,0,1-1.053,4.193,9.068,9.068,0,0,1-2.3,2.672c-.07.053-.154.106-.226.158s-.174.117-.26.174-.191.122-.289.18l-.206.122c-5.7,3.37-13.609,5.932-22.622,7.189a91.288,91.288,0,0,1-12.589.861c-.169,0-.328,0-.5,0s-.32,0-.489,0c-14.158,0-26.991-3.192-35.227-8.077l-.16-.1c-.135-.081-.267-.165-.4-.252-.064-.043-.129-.088-.192-.133-.137-.1-.269-.2-.4-.3a9.06,9.06,0,0,1-2.147-2.5,8.223,8.223,0,0,1-1.048-4.193v-10.529a34.615,34.615,0,0,0,9.762,6.97,55.583,55.583,0,0,0,6.707,2.788c.707.245,1.434.478,2.169.7.181.056.365.11.549.164a74.663,74.663,0,0,0,18.472,2.942q1.17.04,2.355.047,1.265-.006,2.51-.059h.019a68.857,68.857,0,0,0,10.6-1.273,66.921,66.921,0,0,0,7.082-1.816l.363-.115q1.178-.381,2.31-.8a58.879,58.879,0,0,0,6.754-2.926A37.115,37.115,0,0,0,1267.768,1692.834Z" transform="translate(-430.74 1582.998)" fill="#5564a2"/>
    <path id="Trazado_623995" data-name="Trazado 623995" d="M1267.315,1672.861a6.358,6.358,0,0,1-.271,1.828c-.886,2.973-3.909,5.694-8.457,7.923a45.416,45.416,0,0,1-6.555,2.551q-1.139.352-2.345.672c-.136.037-.273.073-.41.108a78.063,78.063,0,0,1-9.077,1.754,97.369,97.369,0,0,1-10.6.835h-.018q-1.325.035-2.673.034-1.1,0-2.192-.023a89.36,89.36,0,0,1-19.982-2.552q-.3-.078-.6-.158-1.1-.292-2.152-.612a46.191,46.191,0,0,1-6.544-2.511c-4.206-2.029-7.141-4.472-8.334-7.147a6.581,6.581,0,0,1-.6-2.7c0-2.282,1.251-4.45,3.5-6.407q.235-.205.486-.408.155-.123.314-.247.228-.177.467-.349c.083-.061.168-.122.253-.181a39.333,39.333,0,0,1,11.848-5.179q.78-.218,1.587-.422a79.338,79.338,0,0,1,8.915-1.682,102.206,102.206,0,0,1,26.06,0l.258.035a79.558,79.558,0,0,1,8.17,1.526q1.06.259,2.075.542c5.37,1.5,9.755,3.5,12.709,5.817.15.118.3.237.439.357s.289.247.427.372C1266.14,1668.546,1267.315,1670.65,1267.315,1672.861Z" transform="translate(-430.127 1601.798)" fill="#a9c5db"/>
    <path id="Trazado_624642" data-name="Trazado 624642" d="M37.14,0c20.512,0,37.14,5.994,37.14,13.387S57.651,26.774,37.14,26.774,0,20.78,0,13.387,16.628,0,37.14,0Z" transform="translate(759.833 3259.144)" fill="#fff"/>
    <path id="Trazado_624643" data-name="Trazado 624643" d="M37.14,0c20.512,0,37.14,5.994,37.14,13.387S57.651,26.774,37.14,26.774,0,20.78,0,13.387,16.628,0,37.14,0Z" transform="translate(759.833 3257.546)" fill="#fabbd0"/>
    <path id="Trazado_623996" data-name="Trazado 623996" d="M1269.889,1641.537a8.519,8.519,0,0,1-.085,1.215c-3.442-8.893-19.644-15.628-39.113-15.628-21.016,0-34.115,10.948-35.216,21.16a8.622,8.622,0,0,1-.669-3.357c0-10.582,13.317-22.552,35.292-22.552S1269.889,1630.955,1269.889,1641.537Z" transform="translate(-434.498 1620.122)" fill="#fabbd0"/>
    <path id="Trazado_624644" data-name="Trazado 624644" d="M37.14,0c20.512,0,37.14,5.994,37.14,13.387S57.651,26.774,37.14,26.774,0,20.78,0,13.387,16.628,0,37.14,0Z" transform="translate(759.833 3252.175)" fill="#fff"/>
    <path id="Trazado_623997" data-name="Trazado 623997" d="M1267.768,1638.855v11.472a8.228,8.228,0,0,1-1.053,4.193,9.251,9.251,0,0,1-2.055,2.476c-.1.083-.214.164-.318.243a8.026,8.026,0,0,1-.686.459l-.014.007-.246.145c-5.7,3.359-13.591,5.911-22.582,7.166a91.327,91.327,0,0,1-12.589.861c-.169,0-.328,0-.5,0s-.32,0-.489,0c-14.182,0-27.033-3.2-35.268-8.1l-.119-.07-.056-.034q-.358-.218-.684-.463-.253-.19-.488-.4a9.1,9.1,0,0,1-1.9-2.292,8.223,8.223,0,0,1-1.048-4.193V1639.8a25.5,25.5,0,0,0,6.28,5.038c.96.593,1.992,1.166,3.069,1.717.007,0,.021.008.028.011a54.41,54.41,0,0,0,6.47,2.771q1.009.361,2.058.693c.178.058.36.114.539.17a74.4,74.4,0,0,0,19.215,3.166q1.169.041,2.355.048,1.265-.007,2.51-.059h.019a68.872,68.872,0,0,0,10.6-1.273,66.551,66.551,0,0,0,7.812-2.052l.358-.119q1.125-.377,2.208-.787a57.05,57.05,0,0,0,6.487-2.908q1.45-.765,2.768-1.577c.937-.575,1.877-1.165,2.7-1.768A44.169,44.169,0,0,0,1267.768,1638.855Z" transform="translate(-430.74 1611.439)" fill="#5564a2"/>
    <path id="Trazado_623998" data-name="Trazado 623998" d="M1267.315,1618.881a6.358,6.358,0,0,1-.271,1.828,10.29,10.29,0,0,1-3.469,4.781,20.5,20.5,0,0,1-2.209,1.6q-1.11.7-2.4,1.355a43.645,43.645,0,0,1-6.3,2.54q-1.08.348-2.221.666c-.134.038-.27.076-.406.112a77.19,77.19,0,0,1-9.838,1.956,97.621,97.621,0,0,1-10.6.834h-.018q-1.325.035-2.673.034-1.1,0-2.192-.023a88.27,88.27,0,0,1-20.74-2.75q-.3-.081-.6-.164-1.038-.289-2.027-.6a45.254,45.254,0,0,1-5.85-2.284c-.148-.071-.295-.143-.44-.215q-1.3-.646-2.429-1.347a13.687,13.687,0,0,1-5.528-5.615,6.579,6.579,0,0,1-.6-2.7c0-8.675,18.089-15.708,40.4-15.708a99.341,99.341,0,0,1,13.288.87C1255.986,1606.18,1267.315,1612.015,1267.315,1618.881Z" transform="translate(-430.127 1630.239)" fill="#a9c5db"/>
    <path id="Trazado_623999" data-name="Trazado 623999" d="M1267.685,1617.505c0,5.706-9.9,10.578-23.851,12.5a97.628,97.628,0,0,1-13.288.883c-20.512,0-37.14-5.993-37.14-13.387s16.628-13.386,37.14-13.386a97.61,97.61,0,0,1,13.288.882C1257.783,1606.928,1267.685,1611.8,1267.685,1617.505Z" transform="translate(-433.761 1629.741)" fill="#fff"/>
    <path id="Trazado_624000" data-name="Trazado 624000" d="M1318.99,1786.753c-.082-.084-.211-.186-.3-.268l-.216.153a5.366,5.366,0,0,1,.679,2.561,4.867,4.867,0,0,0,0,1.6c0,5.731-9.992,10.621-24.039,12.53h0c-2.913.4-4.381.474-4.381.474l4.637,3.939v12.519c9.059-1.273,16.979-3.88,22.7-7.311a8.56,8.56,0,0,0,3.013-3.184,8.176,8.176,0,0,0,.989-4.193v-10.819c0-.6.216-1.21.216-1.828C1322.285,1790.735,1321.075,1788.649,1318.99,1786.753Z" transform="translate(-485.042 1533.654)" opacity="0.22"/>
    <path id="Trazado_624001" data-name="Trazado 624001" d="M1318.99,1731.988c-.082-.084-.211-.186-.3-.268l-.216.153a5.368,5.368,0,0,1,.679,2.562,4.867,4.867,0,0,0,0,1.6c0,5.731-9.992,10.621-24.039,12.53h0c-2.913.4-4.381.474-4.381.474l4.637,3.939V1765.5c9.059-1.272,16.979-3.88,22.7-7.311a8.559,8.559,0,0,0,3.013-3.184,8.176,8.176,0,0,0,.989-4.193V1739.99c0-.6.216-1.21.216-1.828C1322.285,1735.97,1321.075,1733.884,1318.99,1731.988Z" transform="translate(-485.042 1562.51)" opacity="0.22"/>
    <path id="Trazado_624002" data-name="Trazado 624002" d="M1318.99,1677.044c-.082-.084-.211-.186-.3-.268l-.216.153a5.367,5.367,0,0,1,.679,2.561,4.867,4.867,0,0,0,0,1.6c0,5.73-9.992,10.621-24.039,12.53h0c-2.913.4-4.381.474-4.381.474l4.637,3.939v12.519c9.059-1.272,16.979-3.88,22.7-7.311a8.56,8.56,0,0,0,3.013-3.184,8.176,8.176,0,0,0,.989-4.193v-10.818c0-.6.216-1.21.216-1.828C1322.285,1681.026,1321.075,1678.939,1318.99,1677.044Z" transform="translate(-485.042 1591.459)" opacity="0.22"/>
    <path id="Trazado_624003" data-name="Trazado 624003" d="M1322.552,1619.4a7.166,7.166,0,0,1-.1,1.129h-.011a6.386,6.386,0,0,0-.046.69v10.819a8.8,8.8,0,0,1-3.974,7.377c-5.717,3.432-13.665,6.038-22.724,7.311V1634.2l-4.348-3.691c1.442-.13,2.787-.29,4.156-.48,7.219-1,13.323-2.783,17.563-5.065a19.551,19.551,0,0,0,3.065-2.014c2.042-1.658,3.167-3.494,3.167-5.425,0-5.705-9.944-10.577-23.893-12.5-1.135-.156-2.094-.294-3.524-.411v-.452c1.43.114,2.381.246,3.52.4C1311.186,1606.7,1322.552,1612.53,1322.552,1619.4Z" transform="translate(-485.363 1629.72)" opacity="0.22"/>
    <path id="Trazado_624004" data-name="Trazado 624004" d="M1102.837,1540.959c0,.173-.008.344-.021.512a6.622,6.622,0,0,1-2.336,4.39,8.931,8.931,0,0,1-5.491,2.106v.05h-53.161v-.045a13.655,13.655,0,0,1-7.932-2.585,11.538,11.538,0,0,1-2.379-2.365,8.275,8.275,0,0,1-.649-1c-.076-.128-.146-.261-.213-.395a11.523,11.523,0,0,1-1.12-4.342c-.606-8.358,5.96-11.112,11.036-12.481-1.728-10.533,8.5-18.7,19.851-18.7a19.334,19.334,0,0,1,12.976,4.794,16.387,16.387,0,0,1,5.556,11.212c.038-.013.253-.068.578-.138a24.025,24.025,0,0,1,3.725-.594c.1,0,.2,0,.31,0a13.788,13.788,0,0,1,9.448,3.571v0a10,10,0,0,1,3.3,7.3,9.659,9.659,0,0,1-.178,1.817,8.5,8.5,0,0,1,5.114,2.759l.006.01A6.309,6.309,0,0,1,1102.837,1540.959Z" transform="translate(-347.397 1681.385)" fill="#465ab3"/>
    <path id="Trazado_624005" data-name="Trazado 624005" d="M1094.979,1548.008h-53.325v-.047a13.7,13.7,0,0,1-7.9-2.6,11.629,11.629,0,0,1-2.4-2.381,8.464,8.464,0,0,1-.655-1.012c-.065-.11-.131-.233-.214-.4a11.615,11.615,0,0,1-1.128-4.373c-.607-8.376,5.978-11.176,11.025-12.547a14.037,14.037,0,0,1,3.364-11.569,19.8,19.8,0,0,1,7.208-5.224,23.694,23.694,0,0,1,9.371-1.93,19.45,19.45,0,0,1,13.031,4.815,16.448,16.448,0,0,1,5.576,11.168c.1-.026.268-.066.486-.113a24.672,24.672,0,0,1,3.741-.595c.1,0,.205-.005.311-.005a13.947,13.947,0,0,1,9.5,3.593l.026.027a10.085,10.085,0,0,1,3.3,7.338,9.726,9.726,0,0,1-.164,1.75,8.533,8.533,0,0,1,5.08,2.773l.011.017a6.369,6.369,0,0,1,1.592,4.173c0,.166-.008.336-.022.519a6.716,6.716,0,0,1-2.364,4.445,8.985,8.985,0,0,1-5.463,2.122Zm-53.161-.164h53v-.047l.078,0a8.832,8.832,0,0,0,5.441-2.086,6.557,6.557,0,0,0,2.309-4.335c.014-.178.021-.344.021-.505a6.207,6.207,0,0,0-1.557-4.073l-.011-.017a8.393,8.393,0,0,0-5.059-2.725l-.083-.013.016-.083a9.609,9.609,0,0,0,.176-1.8,9.929,9.929,0,0,0-3.277-7.243l-.026-.026a13.79,13.79,0,0,0-9.366-3.524c-.1,0-.206,0-.307,0a23.513,23.513,0,0,0-3.71.591c-.33.072-.539.126-.571.136l-.1.033-.007-.106a16.278,16.278,0,0,0-5.528-11.156,19.288,19.288,0,0,0-12.922-4.773c-6.53,0-12.681,2.653-16.454,7.1a13.876,13.876,0,0,0-3.316,11.51l.012.073-.071.02c-5,1.348-11.577,4.1-10.976,12.4a11.463,11.463,0,0,0,1.111,4.312c.081.16.146.281.21.389a8.318,8.318,0,0,0,.643,1,11.467,11.467,0,0,0,2.363,2.348,13.563,13.563,0,0,0,7.885,2.569l.081,0Z" transform="translate(-347.307 1681.477)" fill="#06355c"/>
    <path id="Trazado_624006" data-name="Trazado 624006" d="M1110.906,1542.82c0,.167-.007.333-.019.495a6.538,6.538,0,0,1-2.105,4.238,7.751,7.751,0,0,1-4.949,2.033v.049h-47.909v-.044a11.769,11.769,0,0,1-7.149-2.5,10.8,10.8,0,0,1-2.144-2.282,8.233,8.233,0,0,1-.585-.968c-.068-.124-.131-.252-.192-.381a11.753,11.753,0,0,1-1.009-4.192c-.546-8.068,5.371-10.727,9.946-12.049-1.557-10.169,7.658-18.052,17.89-18.052a16.77,16.77,0,0,1,11.694,4.628,16.254,16.254,0,0,1,5.007,10.824c.034-.012.228-.065.521-.133a20.309,20.309,0,0,1,3.358-.573c.092,0,.184,0,.279,0a11.976,11.976,0,0,1,8.515,3.447v0a9.812,9.812,0,0,1,2.816,8.8,7.533,7.533,0,0,1,4.609,2.664l0,.01A6.342,6.342,0,0,1,1110.906,1542.82Z" transform="translate(-355.467 1679.768)" fill="#5971d4"/>
    <path id="Trazado_624007" data-name="Trazado 624007" d="M1103.823,1549.624h-48.073v-.046a11.823,11.823,0,0,1-7.117-2.512,10.876,10.876,0,0,1-2.161-2.3,8.334,8.334,0,0,1-.59-.977c-.058-.106-.118-.225-.193-.383a11.847,11.847,0,0,1-1.017-4.221c-.547-8.084,5.386-10.789,9.935-12.113a14.42,14.42,0,0,1,3.433-11.653A19.3,19.3,0,0,1,1072.59,1509a16.874,16.874,0,0,1,11.751,4.651,16.314,16.314,0,0,1,5.026,10.776c.092-.025.238-.062.427-.106a20.833,20.833,0,0,1,3.374-.575c.092,0,.186,0,.281,0a12.118,12.118,0,0,1,8.573,3.471l.024.026a9.888,9.888,0,0,1,2.829,8.771,7.575,7.575,0,0,1,4.578,2.679l.01.016a6.4,6.4,0,0,1,1.434,4.027c0,.161-.007.324-.02.5a6.638,6.638,0,0,1-2.131,4.292,7.812,7.812,0,0,1-4.923,2.051Zm-47.909-.164h47.745v-.045l.078,0a7.657,7.657,0,0,0,4.9-2.011,6.476,6.476,0,0,0,2.08-4.185c.013-.172.019-.332.019-.488a6.242,6.242,0,0,0-1.4-3.932l-.01-.017a7.421,7.421,0,0,0-4.554-2.627l-.081-.014.014-.081a9.726,9.726,0,0,0-2.794-8.731l-.024-.026a11.96,11.96,0,0,0-8.433-3.4c-.094,0-.185,0-.277,0a19.768,19.768,0,0,0-3.34.571c-.3.069-.485.121-.513.131l-.1.037-.007-.109a16.148,16.148,0,0,0-4.981-10.769,16.712,16.712,0,0,0-11.638-4.605,19.134,19.134,0,0,0-14.424,6.366,14.259,14.259,0,0,0-3.385,11.593l.011.071-.069.02c-4.5,1.3-10.428,3.958-9.887,11.964a11.7,11.7,0,0,0,1,4.163c.073.155.132.271.189.376a8.2,8.2,0,0,0,.58.96,10.739,10.739,0,0,0,2.129,2.266,11.678,11.678,0,0,0,7.1,2.478l.08,0Z" transform="translate(-355.376 1679.859)" fill="#06355c"/>
    <path id="Trazado_624008" data-name="Trazado 624008" d="M1094.628,1536.523l-14.269,18.771H1108.9Z" transform="translate(-374.197 1665.356)" fill="#1d263f"/>
    <path id="Trazado_624009" data-name="Trazado 624009" d="M1100.169,1541.341l-12.536,16.492h25.072Z" transform="translate(-378.029 1662.817)" fill="#0b5999"/>
    <path id="Trazado_624010" data-name="Trazado 624010" d="M1092.34,1575.6v8.06h-4.857v1.951H1099.7V1575.6Z" transform="translate(-377.951 1644.767)" fill="#1d263f"/>
    <path id="Trazado_624645" data-name="Trazado 624645" d="M0,0H7.359V10.011H0Z" transform="translate(717.607 3220.367)" fill="#0b5999"/>
    <path id="Trazado_624646" data-name="Trazado 624646" d="M0,0H43.7V31.028H0Z" transform="translate(875.77 3229.617) rotate(-79.398)" fill="#c4d2ff"/>
    <path id="Trazado_624011" data-name="Trazado 624011" d="M1469.265,1553l-30.843-5.773.032-.172,8.073-43.13,30.843,5.773-.032.172Zm-30.434-6.053,30.154,5.644,7.976-42.614-30.154-5.644Z" transform="translate(-562.856 1682.534)" fill="#06355c"/>
    <path id="Trazado_624647" data-name="Trazado 624647" d="M0,0H43.7V31.028H0Z" transform="translate(864.93 3186.184)" fill="#b8c8fb"/>
    <path id="Trazado_624012" data-name="Trazado 624012" d="M1459.626,1534.355h-44.055v-31.378h44.055Zm-43.7-.35h43.353v-30.678h-43.353Z" transform="translate(-550.816 1683.031)" fill="#06355c"/>
    <path id="Trazado_624648" data-name="Trazado 624648" d="M0,0H43.7V31.028H0Z" transform="translate(854.755 3184.533)" fill="#a9c5db"/>
    <path id="Trazado_624013" data-name="Trazado 624013" d="M1438.121,1530.867h-44.055v-31.379h44.055Zm-43.7-.351h43.354v-30.678h-43.354Z" transform="translate(-539.486 1684.87)" fill="#06355c"/>
    <path id="Trazado_624649" data-name="Trazado 624649" d="M0,0H31.028V43.7H0Z" transform="translate(854.994 3208.27) rotate(-73.771)" fill="#97aaef"/>
    <path id="Trazado_624014" data-name="Trazado 624014" d="M1436.781,1529.04l-.168-.049-42.131-12.263,8.77-30.128.168.049,42.131,12.263Zm-41.865-12.551,41.626,12.116,8.574-29.455-41.626-12.116Z" transform="translate(-539.705 1691.66)" fill="#06355c"/>
    <path id="Trazado_624650" data-name="Trazado 624650" d="M0,0H43.7V44.491H0Z" transform="translate(852.425 3192.3)" fill="#c4d2ff"/>
    <path id="Trazado_624015" data-name="Trazado 624015" d="M1433.2,1560.745h-44.055V1515.9H1433.2Zm-43.7-.351h43.354v-44.14h-43.354Z" transform="translate(-536.891 1676.221)" fill="#06355c"/>
    <path id="Trazado_624016" data-name="Trazado 624016" d="M1446.746,1524.886h-.282l-1.5-3.211c-.453-1.161-1.391-1.461-2.856-1.461h-17.485a2.511,2.511,0,0,0-.692.1l-.026.008a2.674,2.674,0,0,0-1.6,1.2l-1.937,3.371h-25.487a2.762,2.762,0,0,0-2.934,2.529v29.391a.976.976,0,0,0,1.036.893h55.659a.976.976,0,0,0,1.036-.893v-29.391A2.762,2.762,0,0,0,1446.746,1524.886Z" transform="translate(-538.37 1673.95)" fill="#fabbd0"/>
    <path id="Trazado_624651" data-name="Trazado 624651" d="M3.2,0H54.532a3.2,3.2,0,0,1,3.2,3.2V30.385a3.2,3.2,0,0,1-3.2,3.2H3.2a3.2,3.2,0,0,1-3.2-3.2V3.2A3.2,3.2,0,0,1,3.2,0Z" transform="translate(853.578 3203.206)" fill="#fabbd0"/>
    <path id="Trazado_624017" data-name="Trazado 624017" d="M1446.746,1529.781h-.682l-1.426-3.094c-.438-1.161-1.344-1.461-2.761-1.461h-16.9a2.352,2.352,0,0,0-.67.1l-.025.008a2.6,2.6,0,0,0-1.544,1.2l-1.8,3.255h-26.052a2.762,2.762,0,0,0-2.934,2.529V1561.7a.976.976,0,0,0,1.036.893h55.659a.976.976,0,0,0,1.036-.893V1532.31A2.762,2.762,0,0,0,1446.746,1529.781Z" transform="translate(-538.37 1671.31)" fill="#fabbd0"/>
    <path id="Trazado_624018" data-name="Trazado 624018" d="M1284.136,1484.882a27.838,27.838,0,1,1-8.154-19.685A27.753,27.753,0,0,1,1284.136,1484.882Z" transform="translate(-452.229 1707.234)" fill="#ef3c79"/>
    <path id="Trazado_624652" data-name="Trazado 624652" d="M-.006-11.391l2.789-5.672h4.7L2.713-8.6,7.611,0H2.865L-.006-5.777-2.877,0H-7.611l4.887-8.6-4.758-8.461h4.688Z" transform="translate(804 3201)" fill="#fff"/>
    <path id="Trazado_624653" data-name="Trazado 624653" d="M3.038,0H40.749a3.038,3.038,0,0,1,3.038,3.038V7.269a3.038,3.038,0,0,1-3.038,3.038H3.038A3.038,3.038,0,0,1,0,7.269V3.038A3.038,3.038,0,0,1,3.038,0Z" transform="translate(723.096 3331.582)" fill="#3c4f93"/>
    <path id="Trazado_624654" data-name="Trazado 624654" d="M3.038,0H40.749a3.038,3.038,0,0,1,3.038,3.038V7.269a3.038,3.038,0,0,1-3.038,3.038H3.038A3.038,3.038,0,0,1,0,7.269V3.038A3.038,3.038,0,0,1,3.038,0Z" transform="translate(738.13 3331.582)" fill="#4d64c2"/>
    <path id="Trazado_624020" data-name="Trazado 624020" d="M1168.2,1830.315h17.166v-.985a.94.94,0,0,0-.94-.94h-15.285a.94.94,0,0,0-.941.94Z" transform="translate(-420.479 1511.574)" fill="#0b5999"/>
    <path id="Trazado_624021" data-name="Trazado 624021" d="M1122.949,1830.315h8.971v-.985a.94.94,0,0,0-.941-.94h-7.09a.94.94,0,0,0-.941.94Z" transform="translate(-396.637 1511.574)" fill="#0b5999"/>
    <path id="Trazado_624655" data-name="Trazado 624655" d="M0,0H49.641V1.873H0Z" transform="translate(727.426 3341.889)" fill="#1d263f"/>
    <path id="Trazado_624656" data-name="Trazado 624656" d="M3.038,0H40.749a3.038,3.038,0,0,1,3.038,3.038V7.269a3.038,3.038,0,0,1-3.038,3.038H3.038A3.038,3.038,0,0,1,0,7.269V3.038A3.038,3.038,0,0,1,3.038,0Z" transform="translate(723.096 3343.762)" fill="#3c4f93"/>
    <path id="Trazado_624657" data-name="Trazado 624657" d="M3.038,0H40.749a3.038,3.038,0,0,1,3.038,3.038V7.269a3.038,3.038,0,0,1-3.038,3.038H3.038A3.038,3.038,0,0,1,0,7.269V3.038A3.038,3.038,0,0,1,3.038,0Z" transform="translate(738.13 3343.762)" fill="#4d64c2"/>
    <path id="Trazado_624022" data-name="Trazado 624022" d="M1168.2,1856.059h17.166v-.984a.94.94,0,0,0-.94-.94h-15.285a.94.94,0,0,0-.941.94Z" transform="translate(-420.479 1498.01)" fill="#0b5999"/>
    <path id="Trazado_624023" data-name="Trazado 624023" d="M1122.949,1856.059h8.971v-.984a.94.94,0,0,0-.941-.94h-7.09a.94.94,0,0,0-.941.94Z" transform="translate(-396.637 1498.01)" fill="#0b5999"/>
    <path id="Trazado_624658" data-name="Trazado 624658" d="M0,0H49.641V1.873H0Z" transform="translate(727.426 3354.069)" fill="#1d263f"/>
    <path id="Trazado_624659" data-name="Trazado 624659" d="M3.038,0H40.749a3.038,3.038,0,0,1,3.038,3.038V7.269a3.038,3.038,0,0,1-3.038,3.038H3.038A3.038,3.038,0,0,1,0,7.269V3.038A3.038,3.038,0,0,1,3.038,0Z" transform="translate(723.096 3355.942)" fill="#3c4f93"/>
    <path id="Trazado_624660" data-name="Trazado 624660" d="M3.038,0H40.749a3.038,3.038,0,0,1,3.038,3.038V7.269a3.038,3.038,0,0,1-3.038,3.038H3.038A3.038,3.038,0,0,1,0,7.269V3.038A3.038,3.038,0,0,1,3.038,0Z" transform="translate(738.13 3355.942)" fill="#4d64c2"/>
    <path id="Trazado_624024" data-name="Trazado 624024" d="M1168.2,1881.8h17.166v-.984a.94.94,0,0,0-.94-.94h-15.285a.941.941,0,0,0-.941.94Z" transform="translate(-420.479 1484.445)" fill="#0b5999"/>
    <path id="Trazado_624025" data-name="Trazado 624025" d="M1122.949,1881.8h8.971v-.984a.94.94,0,0,0-.941-.94h-7.09a.94.94,0,0,0-.941.94Z" transform="translate(-396.637 1484.445)" fill="#0b5999"/>
    <path id="Trazado_624661" data-name="Trazado 624661" d="M0,0H49.641V1.873H0Z" transform="translate(727.426 3366.25)" fill="#1d263f"/>
    <path id="Trazado_624662" data-name="Trazado 624662" d="M3.038,0H40.749a3.038,3.038,0,0,1,3.038,3.038V7.269a3.038,3.038,0,0,1-3.038,3.038H3.038A3.038,3.038,0,0,1,0,7.269V3.038A3.038,3.038,0,0,1,3.038,0Z" transform="translate(723.096 3368.122)" fill="#3c4f93"/>
    <path id="Trazado_624663" data-name="Trazado 624663" d="M3.038,0H40.749a3.038,3.038,0,0,1,3.038,3.038V7.269a3.038,3.038,0,0,1-3.038,3.038H3.038A3.038,3.038,0,0,1,0,7.269V3.038A3.038,3.038,0,0,1,3.038,0Z" transform="translate(738.13 3368.122)" fill="#4d64c2"/>
    <path id="Trazado_624026" data-name="Trazado 624026" d="M1168.2,1907.549h17.166v-.985a.94.94,0,0,0-.94-.94h-15.285a.94.94,0,0,0-.941.94Z" transform="translate(-420.479 1470.881)" fill="#0b5999"/>
    <path id="Trazado_624027" data-name="Trazado 624027" d="M1122.949,1907.549h8.971v-.985a.94.94,0,0,0-.941-.94h-7.09a.94.94,0,0,0-.941.94Z" transform="translate(-396.637 1470.881)" fill="#0b5999"/>
    <path id="Trazado_624664" data-name="Trazado 624664" d="M0,0H49.641V1.873H0Z" transform="translate(727.426 3378.43)" fill="#1d263f"/>
    <path id="Trazado_624665" data-name="Trazado 624665" d="M0,0H29.756V1.366H0Z" transform="translate(740.816 3334.637)" fill="#0b5999"/>
    <path id="Trazado_624666" data-name="Trazado 624666" d="M0,0H29.756V1.366H0Z" transform="translate(740.816 3336.548)" fill="#0b5999"/>
    <path id="Trazado_624667" data-name="Trazado 624667" d="M0,0H21.808V1.366H0Z" transform="translate(740.816 3334.637)" fill="#fabbd0"/>
    <path id="Trazado_624668" data-name="Trazado 624668" d="M0,0H12.709V1.366H0Z" transform="translate(740.816 3336.548)" fill="#fabbd0"/>
    <path id="Trazado_624669" data-name="Trazado 624669" d="M0,0H29.756V1.366H0Z" transform="translate(740.816 3347.103)" fill="#0b5999"/>
    <path id="Trazado_624670" data-name="Trazado 624670" d="M0,0H29.756V1.366H0Z" transform="translate(740.816 3349.015)" fill="#0b5999"/>
    <path id="Trazado_624671" data-name="Trazado 624671" d="M0,0H21.808V1.366H0Z" transform="translate(740.816 3347.103)" fill="#fabbd0"/>
    <path id="Trazado_624672" data-name="Trazado 624672" d="M0,0H12.709V1.366H0Z" transform="translate(740.816 3349.015)" fill="#fabbd0"/>
    <path id="Trazado_624673" data-name="Trazado 624673" d="M0,0H29.756V1.366H0Z" transform="translate(740.816 3359.283)" fill="#0b5999"/>
    <path id="Trazado_624674" data-name="Trazado 624674" d="M0,0H29.756V1.366H0Z" transform="translate(740.816 3361.194)" fill="#0b5999"/>
    <path id="Trazado_624675" data-name="Trazado 624675" d="M0,0H21.808V1.366H0Z" transform="translate(740.816 3359.283)" fill="#fabbd0"/>
    <path id="Trazado_624676" data-name="Trazado 624676" d="M0,0H12.709V1.366H0Z" transform="translate(740.816 3361.194)" fill="#fabbd0"/>
    <path id="Trazado_624677" data-name="Trazado 624677" d="M0,0H29.756V1.366H0Z" transform="translate(740.816 3371.463)" fill="#0b5999"/>
    <path id="Trazado_624678" data-name="Trazado 624678" d="M0,0H29.756V1.366H0Z" transform="translate(740.816 3373.375)" fill="#0b5999"/>
    <path id="Trazado_624679" data-name="Trazado 624679" d="M0,0H21.808V1.366H0Z" transform="translate(740.816 3371.463)" fill="#fabbd0"/>
    <path id="Trazado_624680" data-name="Trazado 624680" d="M0,0H12.709V1.366H0Z" transform="translate(740.816 3373.375)" fill="#fabbd0"/>
    <path id="Trazado_624028" data-name="Trazado 624028" d="M1229.084,1821.855h0a.8.8,0,0,0,.8-.8h0a.8.8,0,0,0-.8-.8h0a.8.8,0,0,0-.8.8h0A.8.8,0,0,0,1229.084,1821.855Z" transform="translate(-452.135 1515.865)" fill="#fff"/>
    <path id="Trazado_624029" data-name="Trazado 624029" d="M1223.915,1821.855h0a.8.8,0,0,0,.8-.8h0a.8.8,0,0,0-.8-.8h0a.8.8,0,0,0-.8.8h0A.8.8,0,0,0,1223.915,1821.855Z" transform="translate(-449.411 1515.865)" fill="#fff"/>
    <path id="Trazado_624030" data-name="Trazado 624030" d="M1229.084,1847.218h0a.8.8,0,0,0,.8-.8h0a.8.8,0,0,0-.8-.8h0a.8.8,0,0,0-.8.8h0A.8.8,0,0,0,1229.084,1847.218Z" transform="translate(-452.135 1502.502)" fill="#fff"/>
    <path id="Trazado_624031" data-name="Trazado 624031" d="M1223.915,1847.218h0a.8.8,0,0,0,.8-.8h0a.8.8,0,0,0-.8-.8h0a.8.8,0,0,0-.8.8h0A.8.8,0,0,0,1223.915,1847.218Z" transform="translate(-449.411 1502.502)" fill="#fff"/>
    <path id="Trazado_624032" data-name="Trazado 624032" d="M1229.084,1873.187h0a.8.8,0,0,0,.8-.8h0a.8.8,0,0,0-.8-.8h0a.8.8,0,0,0-.8.8h0A.8.8,0,0,0,1229.084,1873.187Z" transform="translate(-452.135 1488.819)" fill="#fff"/>
    <path id="Trazado_624033" data-name="Trazado 624033" d="M1223.915,1873.187h0a.8.8,0,0,0,.8-.8h0a.8.8,0,0,0-.8-.8h0a.8.8,0,0,0-.8.8h0A.8.8,0,0,0,1223.915,1873.187Z" transform="translate(-449.411 1488.819)" fill="#fff"/>
    <path id="Trazado_624034" data-name="Trazado 624034" d="M1229.084,1898.932h0a.8.8,0,0,0,.8-.8h0a.8.8,0,0,0-.8-.8h0a.8.8,0,0,0-.8.8h0A.8.8,0,0,0,1229.084,1898.932Z" transform="translate(-452.135 1475.255)" fill="#fff"/>
    <path id="Trazado_624035" data-name="Trazado 624035" d="M1223.915,1898.932h0a.8.8,0,0,0,.8-.8h0a.8.8,0,0,0-.8-.8h0a.8.8,0,0,0-.8.8h0A.8.8,0,0,0,1223.915,1898.932Z" transform="translate(-449.411 1475.255)" fill="#fff"/>
    <g id="Grupo_895241" data-name="Grupo 895241" transform="translate(725.446 3333.598)">
      <rect id="Rectángulo_302387" data-name="Rectángulo 302387" width="1" height="1" transform="translate(9.624)" fill="#0b5999"/>
      <rect id="Rectángulo_302388" data-name="Rectángulo 302388" width="1" height="1" transform="translate(6.416)" fill="#0b5999"/>
      <rect id="Rectángulo_302389" data-name="Rectángulo 302389" width="1" height="1" transform="translate(3.208)" fill="#0b5999"/>
      <rect id="Rectángulo_302390" data-name="Rectángulo 302390" width="1" height="1" fill="#0b5999"/>
    </g>
    <g id="Grupo_895242" data-name="Grupo 895242" transform="translate(725.446 3336.913)">
      <rect id="Rectángulo_302391" data-name="Rectángulo 302391" width="1" height="1" transform="translate(9.624)" fill="#0b5999"/>
      <rect id="Rectángulo_302392" data-name="Rectángulo 302392" width="1" height="1" transform="translate(6.416)" fill="#0b5999"/>
      <rect id="Rectángulo_302393" data-name="Rectángulo 302393" width="1" height="1" transform="translate(3.208)" fill="#0b5999"/>
      <rect id="Rectángulo_302394" data-name="Rectángulo 302394" width="1" height="1" fill="#0b5999"/>
    </g>
    <g id="Grupo_895244" data-name="Grupo 895244" transform="translate(725.446 3346.064)">
      <rect id="Rectángulo_302395" data-name="Rectángulo 302395" width="1" height="1" transform="translate(9.624)" fill="#0b5999"/>
      <rect id="Rectángulo_302396" data-name="Rectángulo 302396" width="1" height="1" transform="translate(6.416)" fill="#0b5999"/>
      <rect id="Rectángulo_302397" data-name="Rectángulo 302397" width="1" height="1" transform="translate(3.208)" fill="#0b5999"/>
      <rect id="Rectángulo_302398" data-name="Rectángulo 302398" width="1" height="1" fill="#0b5999"/>
    </g>
    <g id="Grupo_895245" data-name="Grupo 895245" transform="translate(725.446 3349.38)">
      <rect id="Rectángulo_302399" data-name="Rectángulo 302399" width="1" height="1" transform="translate(9.624)" fill="#0b5999"/>
      <rect id="Rectángulo_302400" data-name="Rectángulo 302400" width="1" height="1" transform="translate(6.416)" fill="#0b5999"/>
      <rect id="Rectángulo_302401" data-name="Rectángulo 302401" width="1" height="1" transform="translate(3.208)" fill="#0b5999"/>
      <rect id="Rectángulo_302402" data-name="Rectángulo 302402" width="1" height="1" fill="#0b5999"/>
    </g>
    <g id="Grupo_895247" data-name="Grupo 895247" transform="translate(725.446 3358.245)">
      <rect id="Rectángulo_302403" data-name="Rectángulo 302403" width="1" height="1" transform="translate(9.624)" fill="#0b5999"/>
      <rect id="Rectángulo_302404" data-name="Rectángulo 302404" width="1" height="1" transform="translate(6.416)" fill="#0b5999"/>
      <rect id="Rectángulo_302405" data-name="Rectángulo 302405" width="1" height="1" transform="translate(3.208)" fill="#0b5999"/>
      <rect id="Rectángulo_302406" data-name="Rectángulo 302406" width="1" height="1" fill="#0b5999"/>
    </g>
    <g id="Grupo_895248" data-name="Grupo 895248" transform="translate(725.446 3361.561)">
      <rect id="Rectángulo_302407" data-name="Rectángulo 302407" width="1" height="1" transform="translate(9.624)" fill="#0b5999"/>
      <rect id="Rectángulo_302408" data-name="Rectángulo 302408" width="1" height="1" transform="translate(6.416)" fill="#0b5999"/>
      <rect id="Rectángulo_302409" data-name="Rectángulo 302409" width="1" height="1" transform="translate(3.208)" fill="#0b5999"/>
      <rect id="Rectángulo_302410" data-name="Rectángulo 302410" width="1" height="1" fill="#0b5999"/>
    </g>
    <g id="Grupo_895250" data-name="Grupo 895250" transform="translate(725.446 3370.459)">
      <rect id="Rectángulo_302411" data-name="Rectángulo 302411" width="1" height="1" transform="translate(9.624)" fill="#0b5999"/>
      <rect id="Rectángulo_302412" data-name="Rectángulo 302412" width="1" height="1" transform="translate(6.416)" fill="#0b5999"/>
      <rect id="Rectángulo_302413" data-name="Rectángulo 302413" width="1" height="1" transform="translate(3.208)" fill="#0b5999"/>
      <rect id="Rectángulo_302414" data-name="Rectángulo 302414" width="1" height="1" fill="#0b5999"/>
    </g>
    <g id="Grupo_895251" data-name="Grupo 895251" transform="translate(725.446 3373.774)">
      <rect id="Rectángulo_302415" data-name="Rectángulo 302415" width="1" height="1" transform="translate(9.624)" fill="#0b5999"/>
      <rect id="Rectángulo_302416" data-name="Rectángulo 302416" width="1" height="1" transform="translate(6.416)" fill="#0b5999"/>
      <rect id="Rectángulo_302417" data-name="Rectángulo 302417" width="1" height="1" transform="translate(3.208)" fill="#0b5999"/>
      <rect id="Rectángulo_302418" data-name="Rectángulo 302418" width="1" height="1" fill="#0b5999"/>
    </g>
    <path id="Trazado_624681" data-name="Trazado 624681" d="M3.038,0H40.748a3.038,3.038,0,0,1,3.038,3.038V7.269a3.038,3.038,0,0,1-3.038,3.038H3.038A3.038,3.038,0,0,1,0,7.27V3.038A3.038,3.038,0,0,1,3.038,0Z" transform="translate(800.852 3331.582)" fill="#3c4f93"/>
    <path id="Trazado_624682" data-name="Trazado 624682" d="M3.038,0H40.749a3.038,3.038,0,0,1,3.038,3.038V7.269a3.038,3.038,0,0,1-3.038,3.038H3.038A3.038,3.038,0,0,1,0,7.269V3.038A3.038,3.038,0,0,1,3.038,0Z" transform="translate(815.887 3331.582)" fill="#4d64c2"/>
    <path id="Trazado_624036" data-name="Trazado 624036" d="M1332.552,1830.315h17.166v-.985a.94.94,0,0,0-.94-.94h-15.285a.94.94,0,0,0-.94.94Z" transform="translate(-507.075 1511.574)" fill="#0b5999"/>
    <path id="Trazado_624037" data-name="Trazado 624037" d="M1287.3,1830.315h8.97v-.985a.94.94,0,0,0-.94-.94h-7.09a.94.94,0,0,0-.94.94Z" transform="translate(-483.232 1511.574)" fill="#0b5999"/>
    <path id="Trazado_624683" data-name="Trazado 624683" d="M0,0H49.641V1.873H0Z" transform="translate(805.182 3341.889)" fill="#1d263f"/>
    <path id="Trazado_624684" data-name="Trazado 624684" d="M3.038,0H40.748a3.038,3.038,0,0,1,3.038,3.038V7.269a3.038,3.038,0,0,1-3.038,3.038H3.038A3.038,3.038,0,0,1,0,7.269V3.038A3.038,3.038,0,0,1,3.038,0Z" transform="translate(800.852 3343.762)" fill="#3c4f93"/>
    <path id="Trazado_624685" data-name="Trazado 624685" d="M3.038,0H40.749a3.038,3.038,0,0,1,3.038,3.038V7.269a3.038,3.038,0,0,1-3.038,3.038H3.038A3.038,3.038,0,0,1,0,7.269V3.038A3.038,3.038,0,0,1,3.038,0Z" transform="translate(815.887 3343.762)" fill="#4d64c2"/>
    <path id="Trazado_624038" data-name="Trazado 624038" d="M1332.552,1856.059h17.166v-.984a.94.94,0,0,0-.94-.94h-15.285a.94.94,0,0,0-.94.94Z" transform="translate(-507.075 1498.01)" fill="#0b5999"/>
    <path id="Trazado_624039" data-name="Trazado 624039" d="M1287.3,1856.059h8.97v-.984a.94.94,0,0,0-.94-.94h-7.09a.94.94,0,0,0-.94.94Z" transform="translate(-483.232 1498.01)" fill="#0b5999"/>
    <path id="Trazado_624686" data-name="Trazado 624686" d="M0,0H49.641V1.873H0Z" transform="translate(805.182 3354.069)" fill="#1d263f"/>
    <path id="Trazado_624687" data-name="Trazado 624687" d="M3.038,0H40.748a3.038,3.038,0,0,1,3.038,3.038V7.269a3.038,3.038,0,0,1-3.038,3.038H3.038A3.038,3.038,0,0,1,0,7.27V3.038A3.038,3.038,0,0,1,3.038,0Z" transform="translate(800.852 3355.942)" fill="#3c4f93"/>
    <path id="Trazado_624688" data-name="Trazado 624688" d="M3.038,0H40.749a3.038,3.038,0,0,1,3.038,3.038V7.269a3.038,3.038,0,0,1-3.038,3.038H3.038A3.038,3.038,0,0,1,0,7.269V3.038A3.038,3.038,0,0,1,3.038,0Z" transform="translate(815.887 3355.942)" fill="#4d64c2"/>
    <path id="Trazado_624040" data-name="Trazado 624040" d="M1332.552,1881.8h17.166v-.984a.94.94,0,0,0-.94-.94h-15.285a.94.94,0,0,0-.94.94Z" transform="translate(-507.075 1484.445)" fill="#0b5999"/>
    <path id="Trazado_624041" data-name="Trazado 624041" d="M1287.3,1881.8h8.97v-.984a.94.94,0,0,0-.94-.94h-7.09a.94.94,0,0,0-.94.94Z" transform="translate(-483.232 1484.445)" fill="#0b5999"/>
    <path id="Trazado_624689" data-name="Trazado 624689" d="M0,0H49.641V1.873H0Z" transform="translate(805.182 3366.25)" fill="#1d263f"/>
    <path id="Trazado_624690" data-name="Trazado 624690" d="M3.038,0H40.748a3.038,3.038,0,0,1,3.038,3.038V7.269a3.038,3.038,0,0,1-3.038,3.038H3.038A3.038,3.038,0,0,1,0,7.27V3.038A3.038,3.038,0,0,1,3.038,0Z" transform="translate(800.852 3368.122)" fill="#3c4f93"/>
    <path id="Trazado_624691" data-name="Trazado 624691" d="M3.038,0H40.749a3.038,3.038,0,0,1,3.038,3.038V7.269a3.038,3.038,0,0,1-3.038,3.038H3.038A3.038,3.038,0,0,1,0,7.269V3.038A3.038,3.038,0,0,1,3.038,0Z" transform="translate(815.887 3368.122)" fill="#4d64c2"/>
    <path id="Trazado_624042" data-name="Trazado 624042" d="M1332.552,1907.549h17.166v-.985a.94.94,0,0,0-.94-.94h-15.285a.94.94,0,0,0-.94.94Z" transform="translate(-507.075 1470.881)" fill="#0b5999"/>
    <path id="Trazado_624043" data-name="Trazado 624043" d="M1287.3,1907.549h8.97v-.985a.94.94,0,0,0-.94-.94h-7.09a.94.94,0,0,0-.94.94Z" transform="translate(-483.232 1470.881)" fill="#0b5999"/>
    <path id="Trazado_624692" data-name="Trazado 624692" d="M0,0H49.641V1.873H0Z" transform="translate(805.182 3378.43)" fill="#1d263f"/>
    <path id="Trazado_624693" data-name="Trazado 624693" d="M0,0H29.756V1.366H0Z" transform="translate(818.573 3334.637)" fill="#0b5999"/>
    <path id="Trazado_624694" data-name="Trazado 624694" d="M0,0H29.756V1.366H0Z" transform="translate(818.573 3336.548)" fill="#0b5999"/>
    <path id="Trazado_624695" data-name="Trazado 624695" d="M0,0H21.808V1.366H0Z" transform="translate(818.573 3334.637)" fill="#fabbd0"/>
    <path id="Trazado_624696" data-name="Trazado 624696" d="M0,0H12.709V1.366H0Z" transform="translate(818.573 3336.548)" fill="#fabbd0"/>
    <path id="Trazado_624697" data-name="Trazado 624697" d="M0,0H29.756V1.366H0Z" transform="translate(818.573 3347.103)" fill="#0b5999"/>
    <path id="Trazado_624698" data-name="Trazado 624698" d="M0,0H29.756V1.366H0Z" transform="translate(818.573 3349.015)" fill="#0b5999"/>
    <path id="Trazado_624699" data-name="Trazado 624699" d="M0,0H21.808V1.366H0Z" transform="translate(818.573 3347.103)" fill="#fabbd0"/>
    <path id="Trazado_624700" data-name="Trazado 624700" d="M0,0H12.709V1.366H0Z" transform="translate(818.573 3349.015)" fill="#fabbd0"/>
    <path id="Trazado_624701" data-name="Trazado 624701" d="M0,0H29.756V1.366H0Z" transform="translate(818.573 3359.283)" fill="#0b5999"/>
    <path id="Trazado_624702" data-name="Trazado 624702" d="M0,0H29.756V1.366H0Z" transform="translate(818.573 3361.194)" fill="#0b5999"/>
    <path id="Trazado_624703" data-name="Trazado 624703" d="M0,0H21.808V1.366H0Z" transform="translate(818.573 3359.283)" fill="#fabbd0"/>
    <path id="Trazado_624704" data-name="Trazado 624704" d="M0,0H12.709V1.366H0Z" transform="translate(818.573 3361.194)" fill="#fabbd0"/>
    <path id="Trazado_624705" data-name="Trazado 624705" d="M0,0H29.756V1.366H0Z" transform="translate(818.573 3371.463)" fill="#0b5999"/>
    <path id="Trazado_624706" data-name="Trazado 624706" d="M0,0H29.756V1.366H0Z" transform="translate(818.573 3373.375)" fill="#0b5999"/>
    <path id="Trazado_624707" data-name="Trazado 624707" d="M0,0H21.808V1.366H0Z" transform="translate(818.573 3371.463)" fill="#fabbd0"/>
    <path id="Trazado_624708" data-name="Trazado 624708" d="M0,0H12.709V1.366H0Z" transform="translate(818.573 3373.375)" fill="#fabbd0"/>
    <path id="Trazado_624044" data-name="Trazado 624044" d="M1393.436,1821.855h0a.8.8,0,0,0,.8-.8h0a.8.8,0,0,0-.8-.8h0a.8.8,0,0,0-.8.8h0A.8.8,0,0,0,1393.436,1821.855Z" transform="translate(-538.73 1515.865)" fill="#fff"/>
    <path id="Trazado_624045" data-name="Trazado 624045" d="M1388.266,1821.855h0a.8.8,0,0,0,.8-.8h0a.8.8,0,0,0-.8-.8h0a.8.8,0,0,0-.8.8h0A.8.8,0,0,0,1388.266,1821.855Z" transform="translate(-536.007 1515.865)" fill="#fff"/>
    <path id="Trazado_624046" data-name="Trazado 624046" d="M1393.436,1847.218h0a.8.8,0,0,0,.8-.8h0a.8.8,0,0,0-.8-.8h0a.8.8,0,0,0-.8.8h0A.8.8,0,0,0,1393.436,1847.218Z" transform="translate(-538.73 1502.502)" fill="#fff"/>
    <path id="Trazado_624047" data-name="Trazado 624047" d="M1388.266,1847.218h0a.8.8,0,0,0,.8-.8h0a.8.8,0,0,0-.8-.8h0a.8.8,0,0,0-.8.8h0A.8.8,0,0,0,1388.266,1847.218Z" transform="translate(-536.007 1502.502)" fill="#fff"/>
    <path id="Trazado_624048" data-name="Trazado 624048" d="M1393.436,1873.187h0a.8.8,0,0,0,.8-.8h0a.8.8,0,0,0-.8-.8h0a.8.8,0,0,0-.8.8h0A.8.8,0,0,0,1393.436,1873.187Z" transform="translate(-538.73 1488.819)" fill="#fff"/>
    <path id="Trazado_624049" data-name="Trazado 624049" d="M1388.266,1873.187h0a.8.8,0,0,0,.8-.8h0a.8.8,0,0,0-.8-.8h0a.8.8,0,0,0-.8.8h0A.8.8,0,0,0,1388.266,1873.187Z" transform="translate(-536.007 1488.819)" fill="#fff"/>
    <path id="Trazado_624050" data-name="Trazado 624050" d="M1393.436,1898.932h0a.8.8,0,0,0,.8-.8h0a.8.8,0,0,0-.8-.8h0a.8.8,0,0,0-.8.8h0A.8.8,0,0,0,1393.436,1898.932Z" transform="translate(-538.73 1475.255)" fill="#fff"/>
    <path id="Trazado_624051" data-name="Trazado 624051" d="M1388.266,1898.932h0a.8.8,0,0,0,.8-.8h0a.8.8,0,0,0-.8-.8h0a.8.8,0,0,0-.8.8h0A.8.8,0,0,0,1388.266,1898.932Z" transform="translate(-536.007 1475.255)" fill="#fff"/>
    <g id="Grupo_895254" data-name="Grupo 895254" transform="translate(803.203 3333.598)">
      <rect id="Rectángulo_302447" data-name="Rectángulo 302447" width="1" height="1" transform="translate(9.624)" fill="#0b5999"/>
      <rect id="Rectángulo_302448" data-name="Rectángulo 302448" width="1" height="1" transform="translate(6.416)" fill="#0b5999"/>
      <rect id="Rectángulo_302449" data-name="Rectángulo 302449" width="1" height="1" transform="translate(3.208)" fill="#0b5999"/>
      <rect id="Rectángulo_302450" data-name="Rectángulo 302450" width="1" height="1" fill="#0b5999"/>
    </g>
    <g id="Grupo_895255" data-name="Grupo 895255" transform="translate(803.203 3336.913)">
      <rect id="Rectángulo_302451" data-name="Rectángulo 302451" width="1" height="1" transform="translate(9.624)" fill="#0b5999"/>
      <rect id="Rectángulo_302452" data-name="Rectángulo 302452" width="1" height="1" transform="translate(6.416)" fill="#0b5999"/>
      <rect id="Rectángulo_302453" data-name="Rectángulo 302453" width="1" height="1" transform="translate(3.208)" fill="#0b5999"/>
      <rect id="Rectángulo_302454" data-name="Rectángulo 302454" width="1" height="1" fill="#0b5999"/>
    </g>
    <g id="Grupo_895257" data-name="Grupo 895257" transform="translate(803.203 3346.064)">
      <rect id="Rectángulo_302455" data-name="Rectángulo 302455" width="1" height="1" transform="translate(9.624)" fill="#0b5999"/>
      <rect id="Rectángulo_302456" data-name="Rectángulo 302456" width="1" height="1" transform="translate(6.416)" fill="#0b5999"/>
      <rect id="Rectángulo_302457" data-name="Rectángulo 302457" width="1" height="1" transform="translate(3.208)" fill="#0b5999"/>
      <rect id="Rectángulo_302458" data-name="Rectángulo 302458" width="1" height="1" fill="#0b5999"/>
    </g>
    <g id="Grupo_895258" data-name="Grupo 895258" transform="translate(803.203 3349.38)">
      <rect id="Rectángulo_302459" data-name="Rectángulo 302459" width="1" height="1" transform="translate(9.624)" fill="#0b5999"/>
      <rect id="Rectángulo_302460" data-name="Rectángulo 302460" width="1" height="1" transform="translate(6.416)" fill="#0b5999"/>
      <rect id="Rectángulo_302461" data-name="Rectángulo 302461" width="1" height="1" transform="translate(3.208)" fill="#0b5999"/>
      <rect id="Rectángulo_302462" data-name="Rectángulo 302462" width="1" height="1" fill="#0b5999"/>
    </g>
    <g id="Grupo_895260" data-name="Grupo 895260" transform="translate(803.203 3358.245)">
      <rect id="Rectángulo_302463" data-name="Rectángulo 302463" width="1" height="1" transform="translate(9.624)" fill="#0b5999"/>
      <rect id="Rectángulo_302464" data-name="Rectángulo 302464" width="1" height="1" transform="translate(6.416)" fill="#0b5999"/>
      <rect id="Rectángulo_302465" data-name="Rectángulo 302465" width="1" height="1" transform="translate(3.208)" fill="#0b5999"/>
      <rect id="Rectángulo_302466" data-name="Rectángulo 302466" width="1" height="1" fill="#0b5999"/>
    </g>
    <g id="Grupo_895261" data-name="Grupo 895261" transform="translate(803.203 3361.561)">
      <rect id="Rectángulo_302467" data-name="Rectángulo 302467" width="1" height="1" transform="translate(9.624)" fill="#0b5999"/>
      <rect id="Rectángulo_302468" data-name="Rectángulo 302468" width="1" height="1" transform="translate(6.416)" fill="#0b5999"/>
      <rect id="Rectángulo_302469" data-name="Rectángulo 302469" width="1" height="1" transform="translate(3.208)" fill="#0b5999"/>
      <rect id="Rectángulo_302470" data-name="Rectángulo 302470" width="1" height="1" fill="#0b5999"/>
    </g>
    <g id="Grupo_895263" data-name="Grupo 895263" transform="translate(803.203 3370.459)">
      <rect id="Rectángulo_302471" data-name="Rectángulo 302471" width="1" height="1" transform="translate(9.624)" fill="#0b5999"/>
      <rect id="Rectángulo_302472" data-name="Rectángulo 302472" width="1" height="1" transform="translate(6.416)" fill="#0b5999"/>
      <rect id="Rectángulo_302473" data-name="Rectángulo 302473" width="1" height="1" transform="translate(3.208)" fill="#0b5999"/>
      <rect id="Rectángulo_302474" data-name="Rectángulo 302474" width="1" height="1" fill="#0b5999"/>
    </g>
    <g id="Grupo_895264" data-name="Grupo 895264" transform="translate(803.203 3373.774)">
      <rect id="Rectángulo_302475" data-name="Rectángulo 302475" width="1" height="1" transform="translate(9.624)" fill="#0b5999"/>
      <rect id="Rectángulo_302476" data-name="Rectángulo 302476" width="1" height="1" transform="translate(6.416)" fill="#0b5999"/>
      <rect id="Rectángulo_302477" data-name="Rectángulo 302477" width="1" height="1" transform="translate(3.208)" fill="#0b5999"/>
      <rect id="Rectángulo_302478" data-name="Rectángulo 302478" width="1" height="1" fill="#0b5999"/>
    </g>
  </g>
</svg>
