<svg xmlns="http://www.w3.org/2000/svg" xmlns:xlink="http://www.w3.org/1999/xlink" width="198.756" height="201.618" viewBox="0 0 198.756 201.618">
  <defs>
    <filter id="Elipse_6253" x="0" y="0" width="198.756" height="198.756" filterUnits="userSpaceOnUse">
      <feOffset dy="3" input="SourceAlpha"/>
      <feGaussianBlur stdDeviation="3" result="blur"/>
      <feFlood flood-opacity="0.161"/>
      <feComposite operator="in" in2="blur"/>
      <feComposite in="SourceGraphic"/>
    </filter>
  </defs>
  <g id="Grupo_895798" data-name="Grupo 895798" transform="translate(6154 8936.187)">
    <g id="Grupo_895793" data-name="Grupo 895793" transform="translate(-6137 -8927.833)">
      <path id="Trazado_29" data-name="Trazado 29" d="M25.632,310.921l-141.34,141.34a12.348,12.348,0,0,1-17.464,0h0a12.349,12.349,0,0,1,0-17.464L8.167,293.457a12.349,12.349,0,0,1,17.464,0h0A12.349,12.349,0,0,1,25.632,310.921Z" transform="translate(136.79 -289.84)" fill="none" stroke="#8f9294" stroke-miterlimit="10" stroke-width="2"/>
      <path id="Trazado_30" data-name="Trazado 30" d="M31.961,404.253-75.923,512.136a9.426,9.426,0,0,1-13.33,0h0a9.426,9.426,0,0,1,0-13.331L18.63,390.923a9.427,9.427,0,0,1,13.331,0h0A9.427,9.427,0,0,1,31.961,404.253Z" transform="translate(121.856 -322.633)" fill="none" stroke="#8f9294" stroke-miterlimit="10" stroke-width="2"/>
    </g>
    <g id="Grupo_895795" data-name="Grupo 895795" transform="translate(-6955 -9798.622)">
      <g transform="matrix(1, 0, 0, 1, 801, 862.44)" filter="url(#Elipse_6253)">
        <g id="Elipse_6253-2" data-name="Elipse 6253" transform="translate(9 6)" fill="#fff" stroke="#ef3c79" stroke-width="3">
          <circle cx="90.378" cy="90.378" r="90.378" stroke="none"/>
          <circle cx="90.378" cy="90.378" r="88.878" fill="none"/>
        </g>
      </g>
    </g>
    <g id="Grupo_895796" data-name="Grupo 895796" transform="translate(-6109.185 -8894.371)">
      <g id="Grupo_895181" data-name="Grupo 895181">
        <g id="Grupo_895180" data-name="Grupo 895180">
          <path id="Trazado_623928" data-name="Trazado 623928" d="M593.723,1889.638a2.272,2.272,0,0,1-2.272-2.272v-13.641a6.827,6.827,0,0,1,6.821-6.821h52.289a2.273,2.273,0,0,1,0,4.547H598.272a2.275,2.275,0,0,0-2.274,2.274v13.641A2.272,2.272,0,0,1,593.723,1889.638Z" transform="translate(-591.451 -1866.904)" fill="#06355c"/>
        </g>
      </g>
      <g id="Grupo_895182" data-name="Grupo 895182" transform="translate(0 9.095)">
        <path id="Trazado_623929" data-name="Trazado 623929" d="M643.74,1971.4H598.272a6.84,6.84,0,0,1-6.821-6.821v-38.33a2.273,2.273,0,0,1,4.547,0v38.33a2.281,2.281,0,0,0,2.274,2.274h45.491a2.273,2.273,0,0,1-.022,4.546Zm-50.017-51.971a2.273,2.273,0,1,1,2.274-2.274A2.28,2.28,0,0,1,593.723,1919.426Zm0-9.093a2.281,2.281,0,0,1-2.272-2.274v-25.324a2.229,2.229,0,0,1,.455-1.367l6.821-9.093a2.3,2.3,0,0,1,1.818-.907h13.641a2.3,2.3,0,0,1,1.818.907l6.14,8.186h21.6a2.273,2.273,0,0,1,0,4.547H621.006a2.308,2.308,0,0,1-1.82-.909l-6.138-8.184H601.681L596,1883.484v24.574A2.282,2.282,0,0,1,593.723,1910.333Z" transform="translate(-591.451 -1871.367)" fill="#ef3c79"/>
      </g>
      <g id="Grupo_895183" data-name="Grupo 895183" transform="translate(0 18.188)">
        <path id="Trazado_623930" data-name="Trazado 623930" d="M609.639,1880.375H593.723a2.273,2.273,0,0,1,0-4.547h15.916a2.273,2.273,0,0,1,0,4.547Z" transform="translate(-591.451 -1875.829)" fill="#ef3c79"/>
      </g>
      <g id="Grupo_895184" data-name="Grupo 895184" transform="translate(20.46 54.563)">
        <path id="Trazado_623931" data-name="Trazado 623931" d="M602.607,1894.794h0Z" transform="translate(-600.333 -1892.522)" fill="#fff"/>
        <path id="Trazado_623932" data-name="Trazado 623932" d="M633.32,1898.226H603.765a2.273,2.273,0,1,1,0-4.547H633.32a2.273,2.273,0,0,1,0,4.547Z" transform="translate(-601.491 -1893.679)" fill="#06355c"/>
      </g>
      <g id="Grupo_895185" data-name="Grupo 895185" transform="translate(15.914 45.468)">
        <path id="Trazado_623933" data-name="Trazado 623933" d="M628.815,1893.764a2.274,2.274,0,1,1,2.274-2.274A2.283,2.283,0,0,1,628.815,1893.764Zm-9.093,0H601.534a2.274,2.274,0,0,1,0-4.548h18.188a2.274,2.274,0,0,1,0,4.548Z" transform="translate(-599.26 -1889.216)" fill="#06355c"/>
      </g>
      <g id="Grupo_895186" data-name="Grupo 895186" transform="translate(11.367 36.376)">
        <path id="Trazado_623934" data-name="Trazado 623934" d="M635.677,1889.3h-9.093a2.273,2.273,0,1,1,0-4.546h9.093a2.273,2.273,0,1,1,0,4.546Zm-18.188,0a2.273,2.273,0,1,1,2.274-2.272A2.28,2.28,0,0,1,617.489,1889.3Zm-9.093,0H599.3a2.273,2.273,0,1,1,0-4.546H608.4a2.273,2.273,0,1,1,0,4.546Z" transform="translate(-597.029 -1884.754)" fill="#06355c"/>
      </g>
      <g id="Grupo_895187" data-name="Grupo 895187" transform="translate(11.367 27.283)">
        <path id="Trazado_623935" data-name="Trazado 623935" d="M603.85,1884.839H599.3a2.273,2.273,0,1,1,0-4.546h4.546a2.273,2.273,0,0,1,0,4.546Z" transform="translate(-597.029 -1880.292)" fill="#06355c"/>
      </g>
      <g id="Grupo_895188" data-name="Grupo 895188" transform="translate(11.367 90.939)">
        <path id="Trazado_623936" data-name="Trazado 623936" d="M635.677,1916.075h-9.093a2.273,2.273,0,1,1,0-4.546h9.093a2.273,2.273,0,1,1,0,4.546Zm-18.188,0a2.273,2.273,0,1,1,2.274-2.274A2.281,2.281,0,0,1,617.489,1916.075Zm-9.093,0H599.3a2.273,2.273,0,1,1,0-4.546H608.4a2.273,2.273,0,1,1,0,4.546Z" transform="translate(-597.029 -1911.529)" fill="#06355c"/>
      </g>
      <g id="Grupo_895189" data-name="Grupo 895189" transform="translate(11.367 81.844)">
        <path id="Trazado_623937" data-name="Trazado 623937" d="M603.85,1911.612H599.3a2.273,2.273,0,1,1,0-4.546h4.546a2.273,2.273,0,0,1,0,4.546Z" transform="translate(-597.029 -1907.066)" fill="#06355c"/>
      </g>
      <g id="Grupo_895190" data-name="Grupo 895190" transform="translate(15.914 63.656)">
        <path id="Trazado_623938" data-name="Trazado 623938" d="M628.815,1902.688a2.273,2.273,0,1,1,2.274-2.272A2.281,2.281,0,0,1,628.815,1902.688Zm-9.093,0H601.534a2.273,2.273,0,1,1,0-4.546h18.188a2.273,2.273,0,0,1,0,4.546Z" transform="translate(-599.26 -1898.141)" fill="#06355c"/>
      </g>
      <g id="Grupo_895191" data-name="Grupo 895191" transform="translate(20.46 72.751)">
        <path id="Trazado_623939" data-name="Trazado 623939" d="M632.162,1903.719h0Z" transform="translate(-600.333 -1901.447)" fill="#fff"/>
        <path id="Trazado_623940" data-name="Trazado 623940" d="M633.32,1907.15H603.765a2.273,2.273,0,1,1,0-4.546H633.32a2.273,2.273,0,0,1,0,4.546Z" transform="translate(-601.491 -1902.604)" fill="#06355c"/>
      </g>
      <g id="Grupo_895192" data-name="Grupo 895192" transform="translate(77.298)">
        <path id="Trazado_623941" data-name="Trazado 623941" d="M636.2,1885.092a6.827,6.827,0,0,1-6.819-6.82v-4.547a6.82,6.82,0,1,1,13.639,0v4.547A6.827,6.827,0,0,1,636.2,1885.092Zm0-13.641a2.275,2.275,0,0,0-2.272,2.274v4.547a2.273,2.273,0,1,0,4.547,0v-4.547A2.275,2.275,0,0,0,636.2,1871.451Z" transform="translate(-629.382 -1866.904)" fill="#ef3c79"/>
      </g>
      <g id="Grupo_895193" data-name="Grupo 895193" transform="translate(95.484 22.734)">
        <path id="Trazado_623942" data-name="Trazado 623942" d="M645.127,1896.248a6.828,6.828,0,0,1-6.821-6.819v-4.549a6.821,6.821,0,0,1,13.641,0v4.549A6.827,6.827,0,0,1,645.127,1896.248Zm0-13.639a2.276,2.276,0,0,0-2.274,2.272v4.549a2.274,2.274,0,0,0,4.548,0v-4.549A2.274,2.274,0,0,0,645.127,1882.609Z" transform="translate(-638.306 -1878.06)" fill="#ef3c79"/>
      </g>
      <g id="Grupo_895194" data-name="Grupo 895194" transform="translate(84.116 22.734)">
        <path id="Trazado_623943" data-name="Trazado 623943" d="M636.117,1892.817v-13.642h-2.273Z" transform="translate(-631.57 -1876.902)" fill="#fff"/>
        <path id="Trazado_623944" data-name="Trazado 623944" d="M637.274,1896.248a2.272,2.272,0,0,1-2.272-2.272v-11.367a2.274,2.274,0,1,1,0-4.549h2.272a2.273,2.273,0,0,1,2.274,2.274v13.641A2.272,2.272,0,0,1,637.274,1896.248Z" transform="translate(-632.728 -1878.06)" fill="#06355c"/>
      </g>
      <g id="Grupo_895195" data-name="Grupo 895195" transform="translate(93.211)">
        <path id="Trazado_623945" data-name="Trazado 623945" d="M640.58,1881.66v-13.64h-2.273Z" transform="translate(-636.033 -1865.746)" fill="#fff"/>
        <path id="Trazado_623946" data-name="Trazado 623946" d="M641.737,1885.092a2.272,2.272,0,0,1-2.274-2.274v-11.367a2.273,2.273,0,0,1,0-4.547h2.274a2.271,2.271,0,0,1,2.272,2.274v13.639A2.271,2.271,0,0,1,641.737,1885.092Z" transform="translate(-637.191 -1866.904)" fill="#06355c"/>
      </g>
      <g id="Grupo_895196" data-name="Grupo 895196" transform="translate(65.931)">
        <path id="Trazado_623947" data-name="Trazado 623947" d="M627.193,1881.66v-13.64h-2.274Z" transform="translate(-622.647 -1865.746)" fill="#fff"/>
        <path id="Trazado_623948" data-name="Trazado 623948" d="M628.35,1885.092a2.273,2.273,0,0,1-2.274-2.274v-11.367a2.273,2.273,0,0,1,0-4.547h2.274a2.272,2.272,0,0,1,2.272,2.274v13.639A2.272,2.272,0,0,1,628.35,1885.092Z" transform="translate(-623.804 -1866.904)" fill="#06355c"/>
      </g>
      <g id="Grupo_895197" data-name="Grupo 895197" transform="translate(68.203 22.734)">
        <path id="Trazado_623949" data-name="Trazado 623949" d="M631.74,1896.248a6.827,6.827,0,0,1-6.821-6.819v-4.549a6.821,6.821,0,0,1,13.641,0v4.549A6.827,6.827,0,0,1,631.74,1896.248Zm0-13.639a2.274,2.274,0,0,0-2.274,2.272v4.549a2.274,2.274,0,0,0,4.549,0v-4.549A2.274,2.274,0,0,0,631.74,1882.609Z" transform="translate(-624.919 -1878.06)" fill="#ef3c79"/>
      </g>
      <g id="Grupo_895198" data-name="Grupo 895198" transform="translate(56.836 22.734)">
        <path id="Trazado_623950" data-name="Trazado 623950" d="M622.73,1892.817v-13.642h-2.273Z" transform="translate(-618.183 -1876.902)" fill="#fff"/>
        <path id="Trazado_623951" data-name="Trazado 623951" d="M623.888,1896.248a2.272,2.272,0,0,1-2.272-2.272v-11.367a2.274,2.274,0,0,1,0-4.549h2.272a2.272,2.272,0,0,1,2.274,2.274v13.641A2.272,2.272,0,0,1,623.888,1896.248Z" transform="translate(-619.341 -1878.06)" fill="#06355c"/>
      </g>
      <g id="Grupo_895199" data-name="Grupo 895199" transform="translate(102.304)">
        <path id="Trazado_623952" data-name="Trazado 623952" d="M645.042,1881.66v-13.64h-2.274Z" transform="translate(-640.495 -1865.746)" fill="#fff"/>
        <path id="Trazado_623953" data-name="Trazado 623953" d="M646.2,1885.092a2.272,2.272,0,0,1-2.272-2.274v-11.367a2.273,2.273,0,1,1,0-4.547H646.2a2.273,2.273,0,0,1,2.274,2.274v13.639A2.273,2.273,0,0,1,646.2,1885.092Z" transform="translate(-641.653 -1866.904)" fill="#06355c"/>
      </g>
      <g id="Grupo_895200" data-name="Grupo 895200" transform="translate(77.298 68.203)">
        <path id="Trazado_623954" data-name="Trazado 623954" d="M636.2,1918.56a6.826,6.826,0,0,1-6.819-6.819v-4.549a6.82,6.82,0,1,1,13.639,0v4.549A6.827,6.827,0,0,1,636.2,1918.56Zm0-13.639a2.274,2.274,0,0,0-2.272,2.272v4.549a2.273,2.273,0,0,0,4.547,0v-4.549A2.275,2.275,0,0,0,636.2,1904.921Z" transform="translate(-629.382 -1900.372)" fill="#ef3c79"/>
      </g>
      <g id="Grupo_895201" data-name="Grupo 895201" transform="translate(59.11 68.203)">
        <path id="Trazado_623955" data-name="Trazado 623955" d="M627.278,1918.56a6.827,6.827,0,0,1-6.821-6.819v-4.549a6.82,6.82,0,1,1,13.639,0v4.549A6.826,6.826,0,0,1,627.278,1918.56Zm0-13.639a2.275,2.275,0,0,0-2.274,2.272v4.549a2.273,2.273,0,0,0,4.547,0v-4.549A2.274,2.274,0,0,0,627.278,1904.921Z" transform="translate(-620.457 -1900.372)" fill="#ef3c79"/>
      </g>
      <g id="Grupo_895202" data-name="Grupo 895202" transform="translate(95.484 68.203)">
        <path id="Trazado_623956" data-name="Trazado 623956" d="M645.127,1918.56a6.828,6.828,0,0,1-6.821-6.819v-4.549a6.821,6.821,0,0,1,13.641,0v4.549A6.827,6.827,0,0,1,645.127,1918.56Zm0-13.639a2.276,2.276,0,0,0-2.274,2.272v4.549a2.274,2.274,0,0,0,4.548,0v-4.549A2.275,2.275,0,0,0,645.127,1904.921Z" transform="translate(-638.306 -1900.372)" fill="#ef3c79"/>
      </g>
      <g id="Grupo_895203" data-name="Grupo 895203" transform="translate(86.391 45.468)">
        <path id="Trazado_623957" data-name="Trazado 623957" d="M640.665,1907.4a6.827,6.827,0,0,1-6.821-6.821v-4.546a6.82,6.82,0,1,1,13.639,0v4.546A6.827,6.827,0,0,1,640.665,1907.4Zm0-13.64a2.273,2.273,0,0,0-2.274,2.272v4.546a2.273,2.273,0,1,0,4.546,0v-4.546A2.273,2.273,0,0,0,640.665,1893.764Z" transform="translate(-633.844 -1889.216)" fill="#ef3c79"/>
      </g>
      <g id="Grupo_895204" data-name="Grupo 895204" transform="translate(59.11 45.468)">
        <path id="Trazado_623958" data-name="Trazado 623958" d="M627.278,1907.4a6.827,6.827,0,0,1-6.821-6.821v-4.546a6.82,6.82,0,1,1,13.639,0v4.546A6.827,6.827,0,0,1,627.278,1907.4Zm0-13.64a2.274,2.274,0,0,0-2.274,2.272v4.546a2.273,2.273,0,1,0,4.547,0v-4.546A2.273,2.273,0,0,0,627.278,1893.764Z" transform="translate(-620.457 -1889.216)" fill="#ef3c79"/>
      </g>
      <g id="Grupo_895205" data-name="Grupo 895205" transform="translate(102.304 45.468)">
        <path id="Trazado_623959" data-name="Trazado 623959" d="M645.042,1903.973v-13.641h-2.274Z" transform="translate(-640.495 -1888.058)" fill="#fff"/>
        <path id="Trazado_623960" data-name="Trazado 623960" d="M646.2,1907.4a2.272,2.272,0,0,1-2.272-2.272v-11.367a2.274,2.274,0,0,1,0-4.548H646.2a2.273,2.273,0,0,1,2.274,2.274v13.641A2.272,2.272,0,0,1,646.2,1907.4Z" transform="translate(-641.653 -1889.216)" fill="#06355c"/>
      </g>
      <g id="Grupo_895206" data-name="Grupo 895206" transform="translate(75.024 45.468)">
        <path id="Trazado_623961" data-name="Trazado 623961" d="M631.655,1903.973v-13.641h-2.273Z" transform="translate(-627.108 -1888.058)" fill="#fff"/>
        <path id="Trazado_623962" data-name="Trazado 623962" d="M632.813,1907.4a2.271,2.271,0,0,1-2.272-2.272v-11.367a2.274,2.274,0,1,1,0-4.548h2.272a2.273,2.273,0,0,1,2.274,2.274v13.641A2.272,2.272,0,0,1,632.813,1907.4Z" transform="translate(-628.266 -1889.216)" fill="#06355c"/>
      </g>
      <g id="Grupo_895207" data-name="Grupo 895207" transform="translate(59.11 90.939)">
        <path id="Trazado_623963" data-name="Trazado 623963" d="M627.278,1929.715a6.827,6.827,0,0,1-6.821-6.821v-4.546a6.82,6.82,0,0,1,13.639,0v4.546A6.827,6.827,0,0,1,627.278,1929.715Zm0-13.639a2.275,2.275,0,0,0-2.274,2.272v4.546a2.273,2.273,0,1,0,4.547,0v-4.546A2.274,2.274,0,0,0,627.278,1916.075Z" transform="translate(-620.457 -1911.529)" fill="#ef3c79"/>
      </g>
      <g id="Grupo_895208" data-name="Grupo 895208" transform="translate(95.484 90.939)">
        <path id="Trazado_623964" data-name="Trazado 623964" d="M645.127,1929.715a6.828,6.828,0,0,1-6.821-6.821v-4.546a6.821,6.821,0,0,1,13.641,0v4.546A6.827,6.827,0,0,1,645.127,1929.715Zm0-13.639a2.276,2.276,0,0,0-2.274,2.272v4.546a2.274,2.274,0,1,0,4.548,0v-4.546A2.275,2.275,0,0,0,645.127,1916.075Z" transform="translate(-638.306 -1911.529)" fill="#ef3c79"/>
      </g>
      <g id="Grupo_895209" data-name="Grupo 895209" transform="translate(84.116 90.939)">
        <path id="Trazado_623965" data-name="Trazado 623965" d="M636.117,1926.285v-13.641h-2.273Z" transform="translate(-631.57 -1910.372)" fill="#fff"/>
        <path id="Trazado_623966" data-name="Trazado 623966" d="M637.274,1929.715a2.272,2.272,0,0,1-2.272-2.272v-11.367a2.273,2.273,0,1,1,0-4.546h2.272a2.271,2.271,0,0,1,2.274,2.272v13.641A2.272,2.272,0,0,1,637.274,1929.715Z" transform="translate(-632.728 -1911.529)" fill="#06355c"/>
      </g>
      <g id="Grupo_895210" data-name="Grupo 895210" transform="translate(75.024 90.939)">
        <path id="Trazado_623967" data-name="Trazado 623967" d="M631.655,1926.285v-13.641h-2.273Z" transform="translate(-627.108 -1910.372)" fill="#fff"/>
        <path id="Trazado_623968" data-name="Trazado 623968" d="M632.813,1929.715a2.27,2.27,0,0,1-2.272-2.272v-11.367a2.273,2.273,0,1,1,0-4.546h2.272a2.271,2.271,0,0,1,2.274,2.272v13.641A2.272,2.272,0,0,1,632.813,1929.715Z" transform="translate(-628.266 -1911.529)" fill="#06355c"/>
      </g>
    </g>
  </g>
</svg>
