<svg xmlns="http://www.w3.org/2000/svg" xmlns:xlink="http://www.w3.org/1999/xlink" width="444.075" height="875.503" viewBox="0 0 444.075 875.503">
  <defs>
    <clipPath id="clip-path">
      <rect x="350" width="444.075" height="875.503" fill="none"/>
    </clipPath>
    <filter id="Trazado_623732" x="-330.919" y="19.081" width="828.913" height="837.341" filterUnits="userSpaceOnUse">
      <feOffset dy="3" input="SourceAlpha"/>
      <feGaussianBlur stdDeviation="7.5" result="blur"/>
      <feFlood flood-color="#121111" flood-opacity="0.161"/>
      <feComposite operator="in" in2="blur"/>
      <feComposite in="SourceGraphic"/>
    </filter>
  </defs>
  <g id="Grupo_895798" data-name="Grupo 895798" transform="translate(0.346 -2574.004)">
    <g id="Grupo_de_desplazamiento_1" data-name="Grupo de desplazamiento 1" transform="translate(-350.346 2574.004)" clip-path="url(#clip-path)" style="isolation: isolate">
      <g transform="matrix(1, 0, 0, 1, 350, 0)" filter="url(#Trazado_623732)">
        <path id="Trazado_623732-2" data-name="Trazado 623732" d="M364.469,383.022c-154.856,0-280.391,130.375-280.391,291.2s125.535,291.2,280.391,291.2S644.86,835.049,644.86,674.223,519.325,383.022,364.469,383.022Zm0,524.195c-123.9,0-224.344-104.315-224.344-232.994S240.567,441.229,364.469,441.229,588.813,545.544,588.813,674.223,488.371,907.217,364.469,907.217Z" transform="matrix(0.87, 0.48, -0.48, 0.87, 91.64, -331.64)" fill="#0b5999" opacity="0.04"/>
      </g>
    </g>
  </g>
</svg>
