<svg xmlns="http://www.w3.org/2000/svg" xmlns:xlink="http://www.w3.org/1999/xlink" width="193.59" height="193.59" viewBox="0 0 193.59 193.59">
  <defs>
    <filter id="Elipse_6394" x="0" y="0" width="193.59" height="193.59" filterUnits="userSpaceOnUse">
      <feOffset dy="3" input="SourceAlpha"/>
      <feGaussianBlur stdDeviation="3" result="blur"/>
      <feFlood flood-opacity="0.161"/>
      <feComposite operator="in" in2="blur"/>
      <feComposite in="SourceGraphic"/>
    </filter>
  </defs>
  <g id="Grupo_895824" data-name="Grupo 895824" transform="translate(-3601 10968.559)">
    <g transform="matrix(1, 0, 0, 1, 3601, -10968.56)" filter="url(#Elipse_6394)">
      <g id="Elipse_6394-2" data-name="Elipse 6394" transform="translate(9 6)" fill="#fff" stroke="#ef3c79" stroke-width="5">
        <ellipse cx="87.795" cy="87.795" rx="87.795" ry="87.795" stroke="none"/>
        <ellipse cx="87.795" cy="87.795" rx="85.295" ry="85.295" fill="none"/>
      </g>
    </g>
    <g id="Grupo_895530" data-name="Grupo 895530" transform="translate(3643 -10928.847)">
      <g id="Grupo_895522" data-name="Grupo 895522">
        <path id="Trazado_624427" data-name="Trazado 624427" d="M801.127,1897.04h-95.4a4.543,4.543,0,0,0-4.541,4.544v13.628H805.67v-13.628A4.544,4.544,0,0,0,801.127,1897.04Z" transform="translate(-698.911 -1894.768)" fill="#b1ede3"/>
        <path id="Trazado_624428" data-name="Trazado 624428" d="M806.907,1918.721H702.42a2.271,2.271,0,0,1-2.272-2.272V1902.82a6.821,6.821,0,0,1,6.813-6.816h95.4a6.822,6.822,0,0,1,6.813,6.816v13.628A2.269,2.269,0,0,1,806.907,1918.721Zm-102.216-4.543h99.944V1902.82a2.273,2.273,0,0,0-2.272-2.272h-95.4a2.271,2.271,0,0,0-2.27,2.272Z" transform="translate(-700.148 -1896.005)" fill="#06355c"/>
      </g>
      <g id="Grupo_895523" data-name="Grupo 895523" transform="translate(0 9.087)">
        <path id="Trazado_624429" data-name="Trazado 624429" d="M728.44,1910.265h77.23v81.771a4.544,4.544,0,0,1-4.544,4.544h-95.4a4.543,4.543,0,0,1-4.541-4.544v-81.771L708,1901.18h13.629Z" transform="translate(-698.911 -1898.908)" fill="#fff"/>
        <path id="Trazado_624430" data-name="Trazado 624430" d="M802.363,2000.089h-95.4a6.836,6.836,0,0,1-6.813-6.816v-3.883a2.272,2.272,0,0,1,4.544,0v3.883a2.279,2.279,0,0,0,2.27,2.272h95.4a2.279,2.279,0,0,0,2.272-2.272v-79.5H729.677a2.305,2.305,0,0,1-1.817-.909l-6.133-8.176H710.37l-5.678,7.564v58.942a2.272,2.272,0,1,1-4.544,0V1911.5a2.287,2.287,0,0,1,.454-1.365l6.816-9.085a2.261,2.261,0,0,1,1.815-.906h13.628a2.3,2.3,0,0,1,1.818.906l6.133,8.179h76.1a2.248,2.248,0,0,1,2.27,2.271v81.772A6.836,6.836,0,0,1,802.363,2000.089Zm-99.944-17.538a2.271,2.271,0,1,1,2.272-2.272A2.264,2.264,0,0,1,702.42,1982.551Z" transform="translate(-700.148 -1900.145)" fill="#ef3c79"/>
      </g>
      <g id="Grupo_895524" data-name="Grupo 895524" transform="translate(77.228 9.087)">
        <path id="Trazado_624431" data-name="Trazado 624431" d="M753.5,1902.417a2.279,2.279,0,0,1,2.272-2.272h0a2.279,2.279,0,0,1,2.272,2.272h0a2.279,2.279,0,0,1-2.272,2.271h0A2.279,2.279,0,0,1,753.5,1902.417Zm-9.085,0a2.279,2.279,0,0,1,2.272-2.272h0a2.279,2.279,0,0,1,2.272,2.272h0a2.279,2.279,0,0,1-2.272,2.271h0A2.279,2.279,0,0,1,744.419,1902.417Zm-9.087,0a2.281,2.281,0,0,1,2.274-2.272h0a2.279,2.279,0,0,1,2.27,2.272h0a2.278,2.278,0,0,1-2.27,2.271h0A2.281,2.281,0,0,1,735.332,1902.417Z" transform="translate(-735.332 -1900.145)" fill="#06355c"/>
      </g>
      <g id="Grupo_895528" data-name="Grupo 895528" transform="translate(26.335 32.347)">
        <g id="Grupo_895525" data-name="Grupo 895525" transform="translate(0 6.268)">
          <path id="Trazado_624432" data-name="Trazado 624432" d="M724.666,1932.385a3.116,3.116,0,0,1-1.732-.527l-9.394-6.262a3.13,3.13,0,0,1,0-5.209l9.394-6.264a3.131,3.131,0,0,1,3.472,5.211l-5.485,3.657,5.485,3.657a3.133,3.133,0,0,1-1.741,5.738Z" transform="translate(-712.146 -1913.597)" fill="#06355c"/>
        </g>
        <g id="Grupo_895526" data-name="Grupo 895526" transform="translate(40.703 6.268)">
          <path id="Trazado_624433" data-name="Trazado 624433" d="M733.825,1932.385a3.132,3.132,0,0,1-1.738-5.738l5.485-3.657-5.485-3.657a3.131,3.131,0,1,1,3.472-5.211l9.392,6.264a3.127,3.127,0,0,1,0,5.209l-9.392,6.262A3.123,3.123,0,0,1,733.825,1932.385Z" transform="translate(-730.69 -1913.597)" fill="#06355c"/>
        </g>
        <g id="Grupo_895527" data-name="Grupo 895527" transform="translate(21.648)">
          <path id="Trazado_624434" data-name="Trazado 624434" d="M725.144,1942.06a3.133,3.133,0,0,1-3.04-3.889l6.262-25.049a3.13,3.13,0,1,1,6.073,1.517l-6.262,25.049A3.129,3.129,0,0,1,725.144,1942.06Z" transform="translate(-722.009 -1910.742)" fill="#06355c"/>
        </g>
      </g>
      <g id="Grupo_895529" data-name="Grupo 895529" transform="translate(0 18.172)">
        <path id="Trazado_624435" data-name="Trazado 624435" d="M718.32,1908.827h-15.9a2.272,2.272,0,1,1,0-4.543h15.9a2.272,2.272,0,0,1,0,4.543Z" transform="translate(-700.148 -1904.284)" fill="#ef3c79"/>
      </g>
    </g>
    <g id="Grupo_895532" data-name="Grupo 895532" transform="translate(3652.085 -10833.444)">
      <g id="Grupo_895531" data-name="Grupo 895531">
        <path id="Trazado_624436" data-name="Trazado 624436" d="M781.517,1944.012H758.8a2.272,2.272,0,1,1,0-4.544h22.713a2.272,2.272,0,1,1,0,4.544Zm-31.8,0a2.272,2.272,0,1,1,2.272-2.272A2.281,2.281,0,0,1,749.716,1944.012Zm-9.085,0H706.559a2.272,2.272,0,0,1,0-4.544h34.073a2.272,2.272,0,0,1,0,4.544Z" transform="translate(-704.287 -1939.469)" fill="#ef3c79"/>
      </g>
    </g>
    <g id="Grupo_895533" data-name="Grupo 895533" transform="translate(3652.085 -10842.531)">
      <path id="Trazado_624437" data-name="Trazado 624437" d="M792.874,1939.873H779.245a2.272,2.272,0,1,1,0-4.544h13.629a2.272,2.272,0,1,1,0,4.544Zm-22.714,0a2.272,2.272,0,1,1,2.27-2.272A2.279,2.279,0,0,1,770.16,1939.873Zm-9.087,0H742.9a2.272,2.272,0,0,1,0-4.544h18.17a2.272,2.272,0,0,1,0,4.544Zm-27.257,0a2.272,2.272,0,1,1,2.272-2.272A2.277,2.277,0,0,1,733.816,1939.873Zm-9.085,0H706.559a2.272,2.272,0,1,1,0-4.544h18.172a2.272,2.272,0,0,1,0,4.544Z" transform="translate(-704.287 -1935.329)" fill="#ef3c79"/>
    </g>
  </g>
</svg>
