<svg id="Grupo_895777" data-name="Grupo 895777" xmlns="http://www.w3.org/2000/svg" width="125.26" height="125.261" viewBox="0 0 125.26 125.261">
  <circle id="Elipse_6346" data-name="Elipse 6346" cx="62.63" cy="62.63" r="62.63" transform="translate(0)" fill="#0b5999"/>
  <circle id="Elipse_6347" data-name="Elipse 6347" cx="53.504" cy="53.504" r="53.504" transform="translate(9.127 9.126)" fill="#fff"/>
  <g id="Grupo_895615" data-name="Grupo 895615" transform="translate(25.139 25.384)">
    <g id="Grupo_895363" data-name="Grupo 895363" transform="translate(0 0)">
      <g id="Grupo_895358" data-name="Grupo 895358" transform="translate(6.244)">
        <path id="Trazado_624212" data-name="Trazado 624212" d="M1190.45,2360.118l24.994,9.373,24.994-9.373,4.687-62.486h-59.362Z" transform="translate(-1184.197 -2296.07)" fill="#fff"/>
        <path id="Trazado_624213" data-name="Trazado 624213" d="M1213.927,2369.54a1.629,1.629,0,0,1-.548-.094l-24.995-9.388a1.54,1.54,0,0,1-1.015-1.344l-3.437-45.786h0a1.566,1.566,0,1,1,3.124-.235l3.359,44.8,23.51,8.81,23.51-8.81,4.483-59.815h-55.987l.188,2.547a1.567,1.567,0,0,1-3.125.233l-.312-4.233a1.561,1.561,0,0,1,.421-1.172,1.516,1.516,0,0,1,1.141-.5h59.362a1.576,1.576,0,0,1,1.561,1.671l-4.686,62.486a1.565,1.565,0,0,1-1.016,1.344l-24.994,9.388A1.62,1.62,0,0,1,1213.927,2369.54Zm-28.9-61.409a1.563,1.563,0,0,1-1.562-1.437,1.6,1.6,0,0,1,1.453-1.687,1.566,1.566,0,0,1,.234,3.124Z" transform="translate(-1182.68 -2294.556)" fill="#06355c"/>
      </g>
      <g id="Grupo_895359" data-name="Grupo 895359" transform="translate(12.984 6.249)">
        <path id="Trazado_624214" data-name="Trazado 624214" d="M1241.029,2361.722l3.885-51.789h-45.892l3.885,51.789,19.061,7.147Z" transform="translate(-1197.46 -2308.371)" fill="#b1ede3"/>
        <path id="Trazado_624215" data-name="Trazado 624215" d="M1220.455,2368.918a1.576,1.576,0,0,1-.549-.1l-19.062-7.147a1.564,1.564,0,0,1-1.009-1.345l-3.884-51.789a1.562,1.562,0,0,1,1.558-1.68H1243.4a1.562,1.562,0,0,1,1.557,1.68l-3.885,51.789a1.564,1.564,0,0,1-1.008,1.345L1221,2368.819A1.577,1.577,0,0,1,1220.455,2368.918Zm-17.579-9.822,17.579,6.591,17.579-6.591,3.684-49.114h-42.524Zm36.64,1.112h0Z" transform="translate(-1195.948 -2306.858)" fill="#06355c"/>
      </g>
      <g id="Grupo_895360" data-name="Grupo 895360" transform="translate(0 21.871)">
        <path id="Trazado_624216" data-name="Trazado 624216" d="M1232.824,2365.681h-46.865a12.5,12.5,0,0,1-12.5-12.5h0a12.5,12.5,0,0,1,12.5-12.5h46.865a12.5,12.5,0,0,1,12.5,12.5h0A12.5,12.5,0,0,1,1232.824,2365.681Z" transform="translate(-1171.9 -2339.125)" fill="#fff"/>
        <path id="Trazado_624217" data-name="Trazado 624217" d="M1239.121,2365.729h-62.486a6.247,6.247,0,0,1-6.249-6.248V2343.86a6.247,6.247,0,0,1,6.249-6.249h25.884a1.562,1.562,0,0,1,0,3.125h-25.884a3.132,3.132,0,0,0-3.125,3.124v15.622a3.133,3.133,0,0,0,3.125,3.124h62.486a3.134,3.134,0,0,0,3.124-3.124V2343.86a3.133,3.133,0,0,0-3.124-3.124h-24.105a1.562,1.562,0,0,1,0-3.125h24.105a6.247,6.247,0,0,1,6.249,6.249v15.622A6.247,6.247,0,0,1,1239.121,2365.729Zm-30.353-24.994a1.562,1.562,0,1,1,1.562-1.562A1.568,1.568,0,0,1,1208.768,2340.736Z" transform="translate(-1170.387 -2337.611)" fill="#ef3c79"/>
      </g>
      <g id="Grupo_895361" data-name="Grupo 895361" transform="translate(26.556 15.622)">
        <path id="Trazado_624218" data-name="Trazado 624218" d="M1241.412,2326.872a1.567,1.567,0,0,1,1.562-1.562h0a1.567,1.567,0,0,1,1.563,1.562h0a1.568,1.568,0,0,1-1.562,1.563h0A1.568,1.568,0,0,1,1241.412,2326.872Zm-6.249,0a1.567,1.567,0,0,1,1.562-1.562h0a1.567,1.567,0,0,1,1.563,1.562h0a1.568,1.568,0,0,1-1.562,1.563h0A1.568,1.568,0,0,1,1235.164,2326.872Zm-6.249,0a1.567,1.567,0,0,1,1.563-1.562h0a1.567,1.567,0,0,1,1.563,1.562h0a1.568,1.568,0,0,1-1.562,1.563h0A1.568,1.568,0,0,1,1228.915,2326.872Zm-6.249,0a1.567,1.567,0,0,1,1.563-1.562h0a1.566,1.566,0,0,1,1.562,1.562h0a1.567,1.567,0,0,1-1.562,1.563h0A1.568,1.568,0,0,1,1222.666,2326.872Z" transform="translate(-1222.666 -2325.31)" fill="#06355c"/>
      </g>
      <g id="Grupo_895362" data-name="Grupo 895362" transform="translate(26.556 53.113)">
        <path id="Trazado_624219" data-name="Trazado 624219" d="M1241.412,2400.678a1.567,1.567,0,0,1,1.562-1.562h0a1.568,1.568,0,0,1,1.563,1.562h0a1.567,1.567,0,0,1-1.562,1.562h0A1.567,1.567,0,0,1,1241.412,2400.678Zm-6.249,0a1.567,1.567,0,0,1,1.562-1.562h0a1.567,1.567,0,0,1,1.563,1.562h0a1.567,1.567,0,0,1-1.562,1.562h0A1.567,1.567,0,0,1,1235.164,2400.678Zm-6.249,0a1.557,1.557,0,0,1,1.563-1.562h0a1.567,1.567,0,0,1,1.563,1.562h0a1.567,1.567,0,0,1-1.562,1.562h0A1.556,1.556,0,0,1,1228.915,2400.678Zm-6.249,0a1.568,1.568,0,0,1,1.563-1.562h0a1.567,1.567,0,0,1,1.562,1.562h0a1.566,1.566,0,0,1-1.562,1.562h0A1.567,1.567,0,0,1,1222.666,2400.678Z" transform="translate(-1222.666 -2399.116)" fill="#06355c"/>
      </g>
    </g>
    <text id="JS" transform="translate(36.792 43.987)" fill="#06355c" font-size="21" font-family="Roboto-Bold, Roboto" font-weight="700"><tspan x="-12.32" y="0">JS</tspan></text>
  </g>
</svg>
