<svg xmlns="http://www.w3.org/2000/svg" xmlns:xlink="http://www.w3.org/1999/xlink" width="844.572" height="493.212" viewBox="0 0 844.572 493.212">
  <defs>
    <radialGradient id="radial-gradient" cx="0.5" cy="0.5" r="0.5" gradientUnits="objectBoundingBox">
      <stop offset="0"/>
      <stop offset="1" stop-color="#fff"/>
    </radialGradient>
    <radialGradient id="radial-gradient-2" cx="0.5" r="0.5" gradientTransform="translate(0)" xlink:href="#radial-gradient"/>
    <radialGradient id="radial-gradient-3" cx="0.5" r="0.5" gradientTransform="matrix(0.922, 0.387, -0.387, 0.922, 0.233, -0.155)" xlink:href="#radial-gradient"/>
  </defs>
  <g id="Grupo_895819" data-name="Grupo 895819" transform="translate(5136 12420.9)">
    <g id="Grupo_895815" data-name="Grupo 895815" transform="translate(-5720 -14480.94)">
      <circle id="Elipse_6293" data-name="Elipse 6293" cx="170.016" cy="170.016" r="170.016" transform="translate(721.807 2300.478) rotate(-45)" fill="#ef3c79"/>
      <circle id="Elipse_6294" data-name="Elipse 6294" cx="184.69" cy="184.69" r="184.69" transform="translate(1059.191 2183.872)" fill="#21cbae"/>
      <circle id="Elipse_6295" data-name="Elipse 6295" cx="144.7" cy="144.7" r="144.7" transform="translate(1118.422 2249.815)" fill="url(#radial-gradient)" style="mix-blend-mode: multiply;isolation: isolate"/>
      <circle id="Elipse_6296" data-name="Elipse 6296" cx="126.026" cy="126.026" r="126.026" transform="translate(859.67 2180.339)" fill="url(#radial-gradient-2)" style="mix-blend-mode: multiply;isolation: isolate"/>
      <circle id="Elipse_6297" data-name="Elipse 6297" cx="128.355" cy="128.355" r="128.355" transform="translate(584 2245.819)" fill="#0b5999"/>
      <circle id="Elipse_6298" data-name="Elipse 6298" cx="131.616" cy="131.616" r="131.616" transform="translate(1093.02 2477.585) rotate(-80.855)" fill="#fff"/>
      <circle id="Elipse_6299" data-name="Elipse 6299" cx="114.804" cy="114.804" r="114.804" transform="translate(829.478 2395.625) rotate(-80.845)" fill="#fff"/>
      <circle id="Elipse_6300" data-name="Elipse 6300" cx="98.311" cy="98.311" r="98.311" transform="translate(593.887 2337) rotate(-22.773)" fill="url(#radial-gradient-3)" style="mix-blend-mode: multiply;isolation: isolate"/>
      <circle id="Elipse_6301" data-name="Elipse 6301" cx="90.857" cy="90.857" r="90.857" transform="translate(621.498 2283.317)" fill="#fff"/>
      <g id="Grupo_895350" data-name="Grupo 895350">
        <g id="Grupo_895349" data-name="Grupo 895349">
          <g id="Grupo_895344" data-name="Grupo 895344">
            <path id="Trazado_624196" data-name="Trazado 624196" d="M673.645,2414.657l37.742,14.153,37.742-14.153,7.077-94.355H666.568Z" fill="#fff"/>
            <path id="Trazado_624197" data-name="Trazado 624197" d="M711.387,2431.17a2.45,2.45,0,0,1-.827-.143l-37.742-14.176a2.326,2.326,0,0,1-1.532-2.029l-5.19-69.139h0a2.365,2.365,0,1,1,4.717-.355l5.073,67.655,35.5,13.3,35.5-13.3,6.77-90.323H669.116l.283,3.846a2.366,2.366,0,0,1-4.718.352l-.472-6.392a2.356,2.356,0,0,1,.636-1.77,2.284,2.284,0,0,1,1.723-.754h89.638a2.381,2.381,0,0,1,2.359,2.524l-7.077,94.356a2.363,2.363,0,0,1-1.534,2.029l-37.743,14.176A2.424,2.424,0,0,1,711.387,2431.17Zm-43.64-92.73a2.36,2.36,0,0,1-2.358-2.17,2.407,2.407,0,0,1,2.193-2.547,2.365,2.365,0,0,1,.354,4.717Z" fill="#06355c"/>
          </g>
          <g id="Grupo_895345" data-name="Grupo 895345">
            <path id="Trazado_624198" data-name="Trazado 624198" d="M740.17,2407.94l5.867-78.2h-69.3l5.867,78.2,28.783,10.792Z" fill="#b1ede3"/>
            <path id="Trazado_624199" data-name="Trazado 624199" d="M711.387,2421.091a2.383,2.383,0,0,1-.829-.149l-28.784-10.793a2.363,2.363,0,0,1-1.523-2.031l-5.865-78.2a2.36,2.36,0,0,1,2.353-2.537h69.3a2.36,2.36,0,0,1,2.352,2.537l-5.868,78.2a2.358,2.358,0,0,1-1.522,2.031l-28.784,10.793A2.383,2.383,0,0,1,711.387,2421.091Zm-26.545-14.831,26.545,9.953,26.545-9.953,5.562-74.164H679.281Zm55.328,1.68h0Z" fill="#06355c"/>
          </g>
          <g id="Grupo_895346" data-name="Grupo 895346">
            <path id="Trazado_624200" data-name="Trazado 624200" d="M746.771,2391.069H676a18.871,18.871,0,0,1-18.872-18.871h0A18.871,18.871,0,0,1,676,2353.327h70.767a18.871,18.871,0,0,1,18.871,18.871h0A18.871,18.871,0,0,1,746.771,2391.069Z" fill="#fff"/>
            <path id="Trazado_624201" data-name="Trazado 624201" d="M758.565,2393.428H664.209a9.433,9.433,0,0,1-9.435-9.436V2360.4a9.433,9.433,0,0,1,9.435-9.436h39.085a2.359,2.359,0,1,1,0,4.718H664.209a4.73,4.73,0,0,0-4.718,4.718v23.589a4.732,4.732,0,0,0,4.718,4.718h94.356a4.732,4.732,0,0,0,4.717-4.718V2360.4a4.73,4.73,0,0,0-4.717-4.718h-36.4a2.359,2.359,0,0,1,0-4.718h36.4A9.433,9.433,0,0,1,768,2360.4v23.589A9.433,9.433,0,0,1,758.565,2393.428Zm-45.835-37.743a2.359,2.359,0,1,1,2.358-2.358A2.366,2.366,0,0,1,712.73,2355.685Z" fill="#ef3c79"/>
          </g>
          <g id="Grupo_895347" data-name="Grupo 895347">
            <path id="Trazado_624202" data-name="Trazado 624202" d="M723.181,2343.89a2.367,2.367,0,0,1,2.359-2.358h0a2.366,2.366,0,0,1,2.359,2.358h0a2.367,2.367,0,0,1-2.359,2.36h0A2.368,2.368,0,0,1,723.181,2343.89Zm-9.435,0a2.365,2.365,0,0,1,2.358-2.358h0a2.367,2.367,0,0,1,2.36,2.358h0a2.368,2.368,0,0,1-2.36,2.36h0A2.367,2.367,0,0,1,713.746,2343.89Zm-9.436,0a2.366,2.366,0,0,1,2.359-2.358h0a2.367,2.367,0,0,1,2.36,2.358h0a2.368,2.368,0,0,1-2.36,2.36h0A2.367,2.367,0,0,1,704.31,2343.89Zm-9.436,0a2.366,2.366,0,0,1,2.359-2.358h0a2.366,2.366,0,0,1,2.359,2.358h0a2.367,2.367,0,0,1-2.359,2.36h0A2.367,2.367,0,0,1,694.874,2343.89Z" fill="#06355c"/>
          </g>
          <g id="Grupo_895348" data-name="Grupo 895348">
            <path id="Trazado_624203" data-name="Trazado 624203" d="M723.181,2400.5a2.368,2.368,0,0,1,2.359-2.36h0a2.367,2.367,0,0,1,2.359,2.36h0a2.366,2.366,0,0,1-2.359,2.358h0A2.366,2.366,0,0,1,723.181,2400.5Zm-9.435,0a2.367,2.367,0,0,1,2.358-2.36h0a2.368,2.368,0,0,1,2.36,2.36h0a2.367,2.367,0,0,1-2.36,2.358h0A2.365,2.365,0,0,1,713.746,2400.5Zm-9.436,0a2.351,2.351,0,0,1,2.359-2.36h0a2.368,2.368,0,0,1,2.36,2.36h0a2.367,2.367,0,0,1-2.36,2.358h0A2.35,2.35,0,0,1,704.31,2400.5Zm-9.436,0a2.367,2.367,0,0,1,2.359-2.36h0a2.367,2.367,0,0,1,2.359,2.36h0a2.365,2.365,0,0,1-2.359,2.358h0A2.366,2.366,0,0,1,694.874,2400.5Z" fill="#06355c"/>
          </g>
        </g>
        <text id="HTML" transform="translate(711.387 2384.844)" fill="#06355c" font-size="32.521" font-family="Roboto-Bold, Roboto" font-weight="700"><tspan x="-44.367" y="0">HTML</tspan></text>
      </g>
      <g id="Grupo_895357" data-name="Grupo 895357">
        <g id="Grupo_895356" data-name="Grupo 895356">
          <g id="Grupo_895351" data-name="Grupo 895351">
            <path id="Trazado_624204" data-name="Trazado 624204" d="M913.311,2359.7l49.076,18.4,49.076-18.4,9.2-122.689H904.11Z" fill="#fff"/>
            <path id="Trazado_624205" data-name="Trazado 624205" d="M962.387,2381.17a3.188,3.188,0,0,1-1.075-.185l-49.076-18.434a3.022,3.022,0,0,1-1.992-2.638l-6.749-89.9h0a3.076,3.076,0,1,1,6.134-.462l6.6,87.971,46.161,17.3,46.161-17.3,8.8-117.445H907.423l.368,5a3.076,3.076,0,0,1-6.135.458l-.613-8.312a3.06,3.06,0,0,1,.826-2.3,2.975,2.975,0,0,1,2.241-.98h116.555a3.094,3.094,0,0,1,3.066,3.281l-9.2,122.69a3.07,3.07,0,0,1-2,2.638l-49.076,18.434A3.166,3.166,0,0,1,962.387,2381.17Zm-56.744-120.575a3.07,3.07,0,0,1-3.067-2.821,3.132,3.132,0,0,1,2.852-3.313,3.076,3.076,0,0,1,.461,6.134Z" fill="#06355c"/>
          </g>
          <g id="Grupo_895352" data-name="Grupo 895352">
            <path id="Trazado_624206" data-name="Trazado 624206" d="M999.813,2350.965l7.628-101.686H917.333l7.628,101.686L962.387,2365Z" fill="#b1ede3"/>
            <path id="Trazado_624207" data-name="Trazado 624207" d="M962.387,2368.065a3.1,3.1,0,0,1-1.078-.194l-37.427-14.034a3.068,3.068,0,0,1-1.98-2.641l-7.626-101.686a3.066,3.066,0,0,1,3.058-3.3h90.109a3.067,3.067,0,0,1,3.058,3.3l-7.629,101.686a3.068,3.068,0,0,1-1.98,2.641l-37.427,14.034A3.1,3.1,0,0,1,962.387,2368.065Zm-34.516-19.284,34.516,12.94,34.516-12.94,7.232-96.434H920.64Zm71.942,2.184h0Z" fill="#06355c"/>
          </g>
          <g id="Grupo_895353" data-name="Grupo 895353">
            <path id="Trazado_624208" data-name="Trazado 624208" d="M1008.4,2329.027H916.379a24.538,24.538,0,0,1-24.539-24.537h0a24.538,24.538,0,0,1,24.539-24.538H1008.4a24.537,24.537,0,0,1,24.538,24.538h0A24.538,24.538,0,0,1,1008.4,2329.027Z" fill="#fff"/>
            <path id="Trazado_624209" data-name="Trazado 624209" d="M1023.731,2332.094H901.043a12.264,12.264,0,0,1-12.269-12.268v-30.673a12.265,12.265,0,0,1,12.269-12.269h50.821a3.068,3.068,0,0,1,0,6.135H901.043a6.149,6.149,0,0,0-6.135,6.134v30.673a6.152,6.152,0,0,0,6.135,6.134h122.688a6.153,6.153,0,0,0,6.134-6.134v-30.673a6.15,6.15,0,0,0-6.134-6.134H976.4a3.068,3.068,0,1,1,0-6.135h47.329A12.265,12.265,0,0,1,1036,2289.153v30.673A12.265,12.265,0,0,1,1023.731,2332.094Zm-59.6-49.075a3.068,3.068,0,1,1,3.067-3.067A3.078,3.078,0,0,1,964.133,2283.019Z" fill="#ef3c79"/>
          </g>
          <g id="Grupo_895354" data-name="Grupo 895354">
            <path id="Trazado_624210" data-name="Trazado 624210" d="M977.723,2267.682a3.078,3.078,0,0,1,3.066-3.067h0a3.078,3.078,0,0,1,3.069,3.067h0a3.079,3.079,0,0,1-3.069,3.068h0A3.078,3.078,0,0,1,977.723,2267.682Zm-12.269,0a3.077,3.077,0,0,1,3.067-3.067h0a3.078,3.078,0,0,1,3.068,3.067h0a3.079,3.079,0,0,1-3.068,3.068h0A3.077,3.077,0,0,1,965.454,2267.682Zm-12.269,0a3.077,3.077,0,0,1,3.067-3.067h0a3.077,3.077,0,0,1,3.068,3.067h0a3.078,3.078,0,0,1-3.068,3.068h0A3.078,3.078,0,0,1,953.185,2267.682Zm-12.269,0a3.077,3.077,0,0,1,3.067-3.067h0a3.077,3.077,0,0,1,3.067,3.067h0a3.077,3.077,0,0,1-3.067,3.068h0A3.078,3.078,0,0,1,940.916,2267.682Z" fill="#06355c"/>
          </g>
          <g id="Grupo_895355" data-name="Grupo 895355">
            <path id="Trazado_624211" data-name="Trazado 624211" d="M977.723,2341.3a3.079,3.079,0,0,1,3.066-3.069h0a3.079,3.079,0,0,1,3.069,3.069h0a3.077,3.077,0,0,1-3.069,3.066h0A3.077,3.077,0,0,1,977.723,2341.3Zm-12.269,0a3.078,3.078,0,0,1,3.067-3.069h0a3.079,3.079,0,0,1,3.068,3.069h0a3.077,3.077,0,0,1-3.068,3.066h0A3.076,3.076,0,0,1,965.454,2341.3Zm-12.269,0a3.057,3.057,0,0,1,3.067-3.069h0a3.078,3.078,0,0,1,3.068,3.069h0a3.077,3.077,0,0,1-3.068,3.066h0A3.055,3.055,0,0,1,953.185,2341.3Zm-12.269,0a3.078,3.078,0,0,1,3.067-3.069h0a3.078,3.078,0,0,1,3.067,3.069h0a3.076,3.076,0,0,1-3.067,3.066h0A3.076,3.076,0,0,1,940.916,2341.3Z" fill="#06355c"/>
          </g>
        </g>
        <text id="CSS" transform="translate(962.387 2320.934)" fill="#06355c" font-size="42.286" font-family="Roboto-Bold, Roboto" font-weight="700"><tspan x="-39.829" y="0">CSS</tspan></text>
      </g>
      <g id="Grupo_895364" data-name="Grupo 895364">
        <g id="Grupo_895363" data-name="Grupo 895363">
          <g id="Grupo_895358" data-name="Grupo 895358">
            <path id="Trazado_624212" data-name="Trazado 624212" d="M1194.989,2420.643l49.2,18.452,49.2-18.452,9.226-123.011H1185.764Z" fill="#fff"/>
            <path id="Trazado_624213" data-name="Trazado 624213" d="M1244.194,2442.171a3.2,3.2,0,0,1-1.078-.186l-49.2-18.482a3.031,3.031,0,0,1-2-2.646l-6.766-90.136h0a3.084,3.084,0,1,1,6.15-.463l6.613,88.2,46.283,17.343,46.282-17.343,8.826-117.754H1189.085l.369,5.013a3.084,3.084,0,0,1-6.151.459l-.615-8.333a3.072,3.072,0,0,1,.829-2.307,2.983,2.983,0,0,1,2.247-.983h116.861a3.1,3.1,0,0,1,3.074,3.29l-9.225,123.011a3.08,3.08,0,0,1-2,2.646l-49.2,18.482A3.185,3.185,0,0,1,1244.194,2442.171ZM1187.3,2321.279a3.078,3.078,0,0,1-3.075-2.829,3.14,3.14,0,0,1,2.86-3.321,3.084,3.084,0,0,1,.461,6.15Z" fill="#06355c"/>
          </g>
          <g id="Grupo_895359" data-name="Grupo 895359">
            <path id="Trazado_624214" data-name="Trazado 624214" d="M1281.718,2411.886l7.648-101.953h-90.345l7.648,101.953,37.525,14.07Z" fill="#b1ede3"/>
            <path id="Trazado_624215" data-name="Trazado 624215" d="M1244.194,2429.031a3.107,3.107,0,0,1-1.081-.2l-37.525-14.07a3.08,3.08,0,0,1-1.986-2.648l-7.646-101.953a3.076,3.076,0,0,1,3.067-3.307h90.345a3.076,3.076,0,0,1,3.066,3.307l-7.649,101.953a3.079,3.079,0,0,1-1.985,2.648l-37.526,14.07A3.106,3.106,0,0,1,1244.194,2429.031Zm-34.606-19.335,34.606,12.975L1278.8,2409.7l7.252-96.687h-83.714Zm72.13,2.19h0Z" fill="#06355c"/>
          </g>
          <g id="Grupo_895360" data-name="Grupo 895360">
            <path id="Trazado_624216" data-name="Trazado 624216" d="M1290.324,2389.891h-92.259a24.6,24.6,0,0,1-24.6-24.6h0a24.6,24.6,0,0,1,24.6-24.6h92.259a24.6,24.6,0,0,1,24.6,24.6h0A24.6,24.6,0,0,1,1290.324,2389.891Z" fill="#fff"/>
            <path id="Trazado_624217" data-name="Trazado 624217" d="M1305.7,2392.966H1182.688a12.3,12.3,0,0,1-12.3-12.3v-30.753a12.3,12.3,0,0,1,12.3-12.3h50.956a3.075,3.075,0,0,1,0,6.151h-50.956a6.166,6.166,0,0,0-6.151,6.15v30.753a6.168,6.168,0,0,0,6.151,6.15H1305.7a6.169,6.169,0,0,0,6.15-6.15v-30.753a6.167,6.167,0,0,0-6.15-6.15h-47.454a3.075,3.075,0,0,1,0-6.151H1305.7a12.3,12.3,0,0,1,12.3,12.3v30.753A12.3,12.3,0,0,1,1305.7,2392.966Zm-59.754-49.2a3.075,3.075,0,1,1,3.074-3.075A3.086,3.086,0,0,1,1245.945,2343.762Z" fill="#ef3c79"/>
          </g>
          <g id="Grupo_895361" data-name="Grupo 895361">
            <path id="Trazado_624218" data-name="Trazado 624218" d="M1259.57,2328.384a3.085,3.085,0,0,1,3.075-3.074h0a3.085,3.085,0,0,1,3.076,3.074h0a3.087,3.087,0,0,1-3.076,3.077h0A3.087,3.087,0,0,1,1259.57,2328.384Zm-12.3,0a3.084,3.084,0,0,1,3.075-3.074h0a3.085,3.085,0,0,1,3.076,3.074h0a3.087,3.087,0,0,1-3.076,3.077h0A3.086,3.086,0,0,1,1247.269,2328.384Zm-12.3,0a3.085,3.085,0,0,1,3.076-3.074h0a3.085,3.085,0,0,1,3.076,3.074h0a3.087,3.087,0,0,1-3.076,3.077h0A3.087,3.087,0,0,1,1234.967,2328.384Zm-12.3,0a3.085,3.085,0,0,1,3.076-3.074h0a3.083,3.083,0,0,1,3.074,3.074h0a3.085,3.085,0,0,1-3.074,3.077h0A3.087,3.087,0,0,1,1222.666,2328.384Z" fill="#06355c"/>
          </g>
          <g id="Grupo_895362" data-name="Grupo 895362">
            <path id="Trazado_624219" data-name="Trazado 624219" d="M1259.57,2402.192a3.086,3.086,0,0,1,3.075-3.076h0a3.086,3.086,0,0,1,3.076,3.076h0a3.085,3.085,0,0,1-3.076,3.075h0A3.084,3.084,0,0,1,1259.57,2402.192Zm-12.3,0a3.085,3.085,0,0,1,3.075-3.076h0a3.086,3.086,0,0,1,3.076,3.076h0a3.085,3.085,0,0,1-3.076,3.075h0A3.084,3.084,0,0,1,1247.269,2402.192Zm-12.3,0a3.065,3.065,0,0,1,3.076-3.076h0a3.086,3.086,0,0,1,3.076,3.076h0a3.085,3.085,0,0,1-3.076,3.075h0A3.063,3.063,0,0,1,1234.967,2402.192Zm-12.3,0a3.086,3.086,0,0,1,3.076-3.076h0a3.084,3.084,0,0,1,3.074,3.076h0a3.083,3.083,0,0,1-3.074,3.075h0A3.085,3.085,0,0,1,1222.666,2402.192Z" fill="#06355c"/>
          </g>
        </g>
        <text id="JS" transform="translate(1244.193 2381.777)" fill="#06355c" font-size="42.397" font-family="Roboto-Bold, Roboto" font-weight="700"><tspan x="-24.873" y="0">JS</tspan></text>
      </g>
    </g>
    <g id="Grupo_895816" data-name="Grupo 895816" transform="translate(-5544 -13516)">
      <circle id="Elipse_6277" data-name="Elipse 6277" cx="25" cy="25" r="25" transform="translate(510 1470)" fill="#21cbae"/>
    </g>
    <g id="Grupo_895817" data-name="Grupo 895817" transform="translate(-5011 -13503)">
      <circle id="Elipse_6277-2" data-name="Elipse 6277" cx="25" cy="25" r="25" transform="translate(510 1470)" fill="#21cbae"/>
    </g>
    <g id="Grupo_895818" data-name="Grupo 895818" transform="translate(-5291 -13553)">
      <circle id="Elipse_6277-3" data-name="Elipse 6277" cx="25" cy="25" r="25" transform="translate(510 1470)" fill="#21cbae"/>
    </g>
  </g>
</svg>
