<svg xmlns="http://www.w3.org/2000/svg" xmlns:xlink="http://www.w3.org/1999/xlink" width="543.966" height="630.539" viewBox="0 0 543.966 630.539">
  <defs>
    <radialGradient id="radial-gradient" cx="0.456" cy="0.636" r="0.695" gradientTransform="translate(-0.062) scale(1.125 1)" gradientUnits="objectBoundingBox">
      <stop offset="0" stop-color="#ffc8af"/>
      <stop offset="1" stop-color="#ffbb9c"/>
    </radialGradient>
    <radialGradient id="radial-gradient-2" cx="0.5" cy="0.5" r="0.873" gradientTransform="translate(0.278) scale(0.443 1)" xlink:href="#radial-gradient"/>
    <radialGradient id="radial-gradient-3" cx="1.093" cy="-0.026" r="1.496" gradientTransform="translate(0.069) scale(0.861 1)" xlink:href="#radial-gradient"/>
  </defs>
  <g id="Grupo_895815" data-name="Grupo 895815" transform="translate(-138.346 -1523.461)">
    <g id="Grupo_895373" data-name="Grupo 895373" transform="translate(-756.654 133.7)">
      <g id="Grupo_879317" data-name="Grupo 879317" transform="translate(895 1908.776) rotate(-90)">
        <path id="Trazado_601212" data-name="Trazado 601212" d="M261.467,33.937,33.937,261.467a19.878,19.878,0,0,1-28.114,0h0a19.88,19.88,0,0,1,0-28.114L233.352,5.823a19.88,19.88,0,0,1,28.114,0h0A19.88,19.88,0,0,1,261.467,33.937Z" transform="translate(0)" fill="#edfbf9"/>
        <path id="Trazado_601213" data-name="Trazado 601213" d="M199.575,25.9,25.9,199.575a15.174,15.174,0,0,1-21.459,0h0a15.173,15.173,0,0,1,0-21.46L178.114,4.444a15.175,15.175,0,0,1,21.46,0h0A15.175,15.175,0,0,1,199.575,25.9Z" transform="translate(48.04 105.489)" fill="#edfbf9"/>
      </g>
      <g id="Grupo_873686" data-name="Grupo 873686" transform="translate(1003.192 1390.3)" opacity="0.502">
        <path id="Trazado_1" data-name="Trazado 1" d="M81.906-75.2-45.679,52.386q.886,5.472,2.293,10.756L92.662-72.906Q87.382-74.31,81.906-75.2Z" transform="translate(47.132 76.652)" fill="none" stroke="#275894" stroke-miterlimit="10" stroke-width="1.078"/>
        <path id="Trazado_2" data-name="Trazado 2" d="M92.853-72.715-43.195,63.333q1.344,5.054,3.134,9.915L102.768-69.581Q97.915-71.375,92.853-72.715Z" transform="translate(46.94 76.46)" fill="none" stroke="#275894" stroke-miterlimit="10" stroke-width="1.078"/>
        <path id="Trazado_3" data-name="Trazado 3" d="M137.61-48.491-18.971,108.09c1.984,2.357,4.054,4.639,6.226,6.823L144.433-42.265C142.249-44.436,139.967-46.507,137.61-48.491Z" transform="translate(45.073 74.593)" fill="none" stroke="#275894" stroke-miterlimit="10" stroke-width="1.078"/>
        <path id="Trazado_4" data-name="Trazado 4" d="M129.767-54.647l-154.9,154.9q2.694,3.8,5.682,7.367L137.135-48.966Q133.578-51.96,129.767-54.647Z" transform="translate(45.547 75.067)" fill="none" stroke="#275894" stroke-miterlimit="10" stroke-width="1.078"/>
        <path id="Trazado_5" data-name="Trazado 5" d="M112.528-65.12-35.6,83.008c1.387,2.913,2.911,5.746,4.537,8.512l152.1-152.1C118.274-62.209,115.44-63.733,112.528-65.12Z" transform="translate(46.355 75.875)" fill="none" stroke="#275894" stroke-miterlimit="10" stroke-width="1.078"/>
        <path id="Trazado_6" data-name="Trazado 6" d="M121.419-60.2-30.684,91.9q2.4,4.077,5.128,7.921l154.9-154.9Q125.495-57.8,121.419-60.2Z" transform="translate(45.976 75.496)" fill="none" stroke="#275894" stroke-miterlimit="10" stroke-width="1.078"/>
        <path id="Trazado_7" data-name="Trazado 7" d="M103.03-69.319-39.8,73.51q1.735,4.692,3.875,9.174L112.2-65.444Q107.723-67.577,103.03-69.319Z" transform="translate(46.678 76.198)" fill="none" stroke="#275894" stroke-miterlimit="10" stroke-width="1.078"/>
        <path id="Trazado_8" data-name="Trazado 8" d="M-38.97-5.484l63-63A111.455,111.455,0,0,0-38.97-5.484Z" transform="translate(46.614 76.134)" fill="none" stroke="#275894" stroke-miterlimit="10" stroke-width="1.078"/>
        <path id="Trazado_9" data-name="Trazado 9" d="M23.579-68.945l-63,63a110.174,110.174,0,0,0-5.459,18.508L42.088-74.4A110.213,110.213,0,0,0,23.579-68.945Z" transform="translate(47.07 76.59)" fill="none" stroke="#275894" stroke-miterlimit="10" stroke-width="1.078"/>
        <path id="Trazado_10" data-name="Trazado 10" d="M70.028-76.583-47.064,40.508A111.431,111.431,0,0,0-45.786,52.28L81.8-75.306A111.459,111.459,0,0,0,70.028-76.583Z" transform="translate(47.238 76.758)" fill="none" stroke="#275894" stroke-miterlimit="10" stroke-width="1.078"/>
        <path id="Trazado_11" data-name="Trazado 11" d="M63.9-76.773c-2.353,0-4.682.1-7,.242L-47.011,27.378c-.144,2.317-.242,4.646-.242,7,0,2.053.065,4.09.174,6.116L70.013-76.6C67.987-76.707,65.95-76.773,63.9-76.773Z" transform="translate(47.253 76.773)" fill="none" stroke="#275894" stroke-miterlimit="10" stroke-width="1.078"/>
        <path id="Trazado_12" data-name="Trazado 12" d="M41.925-74.567-45.047,12.405A111.2,111.2,0,0,0-46.991,27.4L56.917-76.511A111.347,111.347,0,0,0,41.925-74.567Z" transform="translate(47.233 76.753)" fill="none" stroke="#275894" stroke-miterlimit="10" stroke-width="1.078"/>
        <path id="Trazado_13" data-name="Trazado 13" d="M181.176,23.422,52.941,151.656a111.246,111.246,0,0,0,11.7,1.353L182.529,35.118A111.193,111.193,0,0,0,181.176,23.422Z" transform="translate(39.529 69.049)" fill="none" stroke="#275894" stroke-miterlimit="10" stroke-width="1.078"/>
        <path id="Trazado_14" data-name="Trazado 14" d="M183.747,43.078c0-2.348-.1-4.672-.241-6.983L65.614,153.986c2.312.144,4.636.241,6.983.241,2.011,0,4.006-.06,5.991-.165L183.582,49.068C183.687,47.084,183.747,45.088,183.747,43.078Z" transform="translate(38.552 68.072)" fill="none" stroke="#275894" stroke-miterlimit="10" stroke-width="1.078"/>
        <path id="Trazado_15" data-name="Trazado 15" d="M184.665,50.152,79.671,155.145a111.2,111.2,0,0,0,14.866-1.817l88.311-88.31A111.374,111.374,0,0,0,184.665,50.152Z" transform="translate(37.469 66.989)" fill="none" stroke="#275894" stroke-miterlimit="10" stroke-width="1.078"/>
        <path id="Trazado_16" data-name="Trazado 16" d="M184.09,66.26,95.779,154.57a110.257,110.257,0,0,0,18.1-5.056l65.15-65.149A110.459,110.459,0,0,0,184.09,66.26Z" transform="translate(36.227 65.747)" fill="none" stroke="#275894" stroke-miterlimit="10" stroke-width="1.078"/>
        <path id="Trazado_17" data-name="Trazado 17" d="M180.546,85.877,115.4,151.026A111.463,111.463,0,0,0,180.546,85.877Z" transform="translate(34.715 64.235)" fill="none" stroke="#275894" stroke-miterlimit="10" stroke-width="1.078"/>
        <path id="Trazado_18" data-name="Trazado 18" d="M177.925,11.837,41.357,148.406q5.248,1.434,10.691,2.357L180.283,22.529Q179.363,17.088,177.925,11.837Z" transform="translate(40.422 69.942)" fill="none" stroke="#275894" stroke-miterlimit="10" stroke-width="1.078"/>
        <path id="Trazado_19" data-name="Trazado 19" d="M158.118-26.455,3.065,128.6c2.549,1.829,5.17,3.562,7.874,5.175L163.293-18.581C161.681-21.285,159.947-23.906,158.118-26.455Z" transform="translate(43.374 72.894)" fill="none" stroke="#275894" stroke-miterlimit="10" stroke-width="1.078"/>
        <path id="Trazado_20" data-name="Trazado 20" d="M151.779-34.388-4.869,122.26q3.537,3.012,7.322,5.727L157.507-27.067Q154.792-30.849,151.779-34.388Z" transform="translate(43.986 73.506)" fill="none" stroke="#275894" stroke-miterlimit="10" stroke-width="1.078"/>
        <path id="Trazado_21" data-name="Trazado 21" d="M173.91,1.157,30.676,144.39q4.826,1.822,9.858,3.192L177.1,11.014Q175.728,5.987,173.91,1.157Z" transform="translate(41.246 70.766)" fill="none" stroke="#275894" stroke-miterlimit="10" stroke-width="1.078"/>
        <path id="Trazado_22" data-name="Trazado 22" d="M144.953-41.745-12.225,115.433c2.17,2.184,4.445,4.262,6.789,6.26L151.212-34.955C149.214-37.3,147.136-39.574,144.953-41.745Z" transform="translate(44.553 74.073)" fill="none" stroke="#275894" stroke-miterlimit="10" stroke-width="1.078"/>
        <path id="Trazado_23" data-name="Trazado 23" d="M169.237-8.746,20.773,139.717c2.973,1.44,6.027,2.735,9.14,3.909L173.147.394C171.972-2.72,170.676-5.774,169.237-8.746Z" transform="translate(42.009 71.529)" fill="none" stroke="#275894" stroke-miterlimit="10" stroke-width="1.078"/>
        <path id="Trazado_24" data-name="Trazado 24" d="M163.951-17.923,11.6,134.431c2.75,1.641,5.571,3.177,8.469,4.58L168.53-9.453C167.127-12.352,165.591-15.172,163.951-17.923Z" transform="translate(42.716 72.236)" fill="none" stroke="#275894" stroke-miterlimit="10" stroke-width="1.078"/>
      </g>
      <g id="Grupo_873687" data-name="Grupo 873687" transform="translate(1215.92 1797.253)">
        <g id="Grupo_68" data-name="Grupo 68" transform="translate(98.044 0)">
          <g id="Grupo_67" data-name="Grupo 67" transform="translate(0)">
            <rect id="Rectángulo_193" data-name="Rectángulo 193" width="3.921" height="3.921" transform="translate(119.458 122.23) rotate(-44.999)" fill="#8f9294"/>
            <rect id="Rectángulo_194" data-name="Rectángulo 194" width="3.721" height="3.721" transform="translate(108.598 111.229) rotate(-45)" fill="#8f9294"/>
            <rect id="Rectángulo_195" data-name="Rectángulo 195" width="3.521" height="3.521" transform="translate(97.738 100.228) rotate(-45)" fill="#8f9294"/>
            <rect id="Rectángulo_196" data-name="Rectángulo 196" width="3.322" height="3.322" transform="matrix(0.707, -0.707, 0.707, 0.707, 86.878, 89.227)" fill="#8f9294"/>
            <rect id="Rectángulo_197" data-name="Rectángulo 197" width="3.122" height="3.122" transform="translate(76.019 78.226) rotate(-45)" fill="#8f9294"/>
            <rect id="Rectángulo_198" data-name="Rectángulo 198" width="2.922" height="2.922" transform="matrix(0.707, -0.707, 0.707, 0.707, 65.159, 67.225)" fill="#8f9294"/>
            <rect id="Rectángulo_199" data-name="Rectángulo 199" width="2.723" height="2.723" transform="translate(54.299 56.224) rotate(-45)" fill="#8f9294"/>
            <rect id="Rectángulo_200" data-name="Rectángulo 200" width="2.523" height="2.523" transform="translate(43.439 45.223) rotate(-45.001)" fill="#8f9294"/>
            <rect id="Rectángulo_201" data-name="Rectángulo 201" width="2.324" height="2.324" transform="translate(32.579 34.222) rotate(-45)" fill="#8f9294"/>
            <rect id="Rectángulo_202" data-name="Rectángulo 202" width="2.124" height="2.124" transform="matrix(0.707, -0.707, 0.707, 0.707, 21.72, 23.222)" fill="#8f9294"/>
            <rect id="Rectángulo_203" data-name="Rectángulo 203" width="1.924" height="1.924" transform="translate(10.86 12.221) rotate(-45)" fill="#8f9294"/>
            <rect id="Rectángulo_204" data-name="Rectángulo 204" width="1.725" height="1.725" transform="matrix(0.707, -0.707, 0.707, 0.707, 0, 1.22)" fill="#8f9294"/>
          </g>
        </g>
        <g id="Grupo_70" data-name="Grupo 70" transform="translate(89.131 8.913)">
          <g id="Grupo_69" data-name="Grupo 69" transform="translate(0 0)">
            <rect id="Rectángulo_205" data-name="Rectángulo 205" width="3.921" height="3.921" transform="translate(119.458 122.23) rotate(-44.999)" fill="#8f9294"/>
            <rect id="Rectángulo_206" data-name="Rectángulo 206" width="3.721" height="3.721" transform="translate(108.598 111.229) rotate(-45)" fill="#8f9294"/>
            <rect id="Rectángulo_207" data-name="Rectángulo 207" width="3.521" height="3.521" transform="translate(97.738 100.228) rotate(-44.999)" fill="#8f9294"/>
            <rect id="Rectángulo_208" data-name="Rectángulo 208" width="3.322" height="3.322" transform="translate(86.878 89.227) rotate(-45)" fill="#8f9294"/>
            <rect id="Rectángulo_209" data-name="Rectángulo 209" width="3.122" height="3.122" transform="translate(76.019 78.226) rotate(-45)" fill="#8f9294"/>
            <rect id="Rectángulo_210" data-name="Rectángulo 210" width="2.922" height="2.922" transform="translate(65.159 67.225) rotate(-45)" fill="#8f9294"/>
            <rect id="Rectángulo_211" data-name="Rectángulo 211" width="2.723" height="2.723" transform="translate(54.299 56.224) rotate(-45)" fill="#8f9294"/>
            <rect id="Rectángulo_212" data-name="Rectángulo 212" width="2.523" height="2.523" transform="translate(43.439 45.223) rotate(-45)" fill="#8f9294"/>
            <rect id="Rectángulo_213" data-name="Rectángulo 213" width="2.324" height="2.324" transform="translate(32.579 34.222) rotate(-45)" fill="#8f9294"/>
            <rect id="Rectángulo_214" data-name="Rectángulo 214" width="2.124" height="2.124" transform="translate(21.72 23.221) rotate(-45)" fill="#8f9294"/>
            <rect id="Rectángulo_215" data-name="Rectángulo 215" width="1.924" height="1.924" transform="translate(10.86 12.221) rotate(-45)" fill="#8f9294"/>
            <rect id="Rectángulo_216" data-name="Rectángulo 216" width="1.725" height="1.725" transform="matrix(0.707, -0.707, 0.707, 0.707, 0, 1.22)" fill="#8f9294"/>
          </g>
        </g>
        <g id="Grupo_72" data-name="Grupo 72" transform="translate(80.218 17.826)">
          <g id="Grupo_71" data-name="Grupo 71" transform="translate(0 0)">
            <rect id="Rectángulo_217" data-name="Rectángulo 217" width="3.921" height="3.921" transform="translate(119.458 122.23) rotate(-44.999)" fill="#8f9294"/>
            <rect id="Rectángulo_218" data-name="Rectángulo 218" width="3.721" height="3.721" transform="translate(108.598 111.229) rotate(-44.999)" fill="#8f9294"/>
            <rect id="Rectángulo_219" data-name="Rectángulo 219" width="3.521" height="3.521" transform="translate(97.738 100.228) rotate(-44.999)" fill="#8f9294"/>
            <rect id="Rectángulo_220" data-name="Rectángulo 220" width="3.322" height="3.322" transform="matrix(0.707, -0.707, 0.707, 0.707, 86.878, 89.227)" fill="#8f9294"/>
            <rect id="Rectángulo_221" data-name="Rectángulo 221" width="3.122" height="3.122" transform="translate(76.019 78.226) rotate(-44.999)" fill="#8f9294"/>
            <rect id="Rectángulo_222" data-name="Rectángulo 222" width="2.923" height="2.923" transform="matrix(0.707, -0.707, 0.707, 0.707, 65.159, 67.225)" fill="#8f9294"/>
            <rect id="Rectángulo_223" data-name="Rectángulo 223" width="2.723" height="2.723" transform="matrix(0.707, -0.707, 0.707, 0.707, 54.299, 56.224)" fill="#8f9294"/>
            <rect id="Rectángulo_224" data-name="Rectángulo 224" width="2.523" height="2.523" transform="translate(43.439 45.223) rotate(-44.999)" fill="#8f9294"/>
            <rect id="Rectángulo_225" data-name="Rectángulo 225" width="2.324" height="2.324" transform="translate(32.579 34.222) rotate(-45)" fill="#8f9294"/>
            <rect id="Rectángulo_226" data-name="Rectángulo 226" width="2.124" height="2.124" transform="translate(21.72 23.221) rotate(-44.998)" fill="#8f9294"/>
            <rect id="Rectángulo_227" data-name="Rectángulo 227" width="1.924" height="1.924" transform="translate(10.86 12.221) rotate(-45)" fill="#8f9294"/>
            <rect id="Rectángulo_228" data-name="Rectángulo 228" width="1.725" height="1.725" transform="matrix(0.707, -0.707, 0.707, 0.707, 0, 1.22)" fill="#8f9294"/>
          </g>
        </g>
        <g id="Grupo_74" data-name="Grupo 74" transform="translate(71.305 26.739)">
          <g id="Grupo_73" data-name="Grupo 73" transform="translate(0 0)">
            <rect id="Rectángulo_229" data-name="Rectángulo 229" width="3.921" height="3.921" transform="translate(119.458 122.23) rotate(-45.001)" fill="#8f9294"/>
            <rect id="Rectángulo_230" data-name="Rectángulo 230" width="3.721" height="3.721" transform="translate(108.598 111.229) rotate(-45.001)" fill="#8f9294"/>
            <rect id="Rectángulo_231" data-name="Rectángulo 231" width="3.521" height="3.521" transform="translate(97.738 100.228) rotate(-45)" fill="#8f9294"/>
            <rect id="Rectángulo_232" data-name="Rectángulo 232" width="3.322" height="3.322" transform="matrix(0.707, -0.707, 0.707, 0.707, 86.878, 89.227)" fill="#8f9294"/>
            <rect id="Rectángulo_233" data-name="Rectángulo 233" width="3.122" height="3.122" transform="translate(76.019 78.226) rotate(-45)" fill="#8f9294"/>
            <rect id="Rectángulo_234" data-name="Rectángulo 234" width="2.923" height="2.923" transform="matrix(0.707, -0.707, 0.707, 0.707, 65.159, 67.225)" fill="#8f9294"/>
            <rect id="Rectángulo_235" data-name="Rectángulo 235" width="2.723" height="2.723" transform="translate(54.299 56.224) rotate(-45)" fill="#8f9294"/>
            <rect id="Rectángulo_236" data-name="Rectángulo 236" width="2.523" height="2.523" transform="translate(43.439 45.223) rotate(-45.001)" fill="#8f9294"/>
            <rect id="Rectángulo_237" data-name="Rectángulo 237" width="2.324" height="2.324" transform="translate(32.579 34.222) rotate(-45)" fill="#8f9294"/>
            <rect id="Rectángulo_238" data-name="Rectángulo 238" width="2.124" height="2.124" transform="translate(21.72 23.221) rotate(-45)" fill="#8f9294"/>
            <rect id="Rectángulo_239" data-name="Rectángulo 239" width="1.924" height="1.924" transform="translate(10.86 12.221) rotate(-45)" fill="#8f9294"/>
            <rect id="Rectángulo_240" data-name="Rectángulo 240" width="1.725" height="1.725" transform="translate(0 1.22) rotate(-44.998)" fill="#8f9294"/>
          </g>
        </g>
        <g id="Grupo_76" data-name="Grupo 76" transform="translate(62.392 35.653)">
          <g id="Grupo_75" data-name="Grupo 75" transform="translate(0 0)">
            <rect id="Rectángulo_241" data-name="Rectángulo 241" width="3.921" height="3.921" transform="translate(119.458 122.23) rotate(-45.001)" fill="#8f9294"/>
            <rect id="Rectángulo_242" data-name="Rectángulo 242" width="3.721" height="3.721" transform="translate(108.598 111.229) rotate(-45.001)" fill="#8f9294"/>
            <rect id="Rectángulo_243" data-name="Rectángulo 243" width="3.521" height="3.521" transform="translate(97.738 100.228) rotate(-45)" fill="#8f9294"/>
            <rect id="Rectángulo_244" data-name="Rectángulo 244" width="3.322" height="3.322" transform="matrix(0.707, -0.707, 0.707, 0.707, 86.878, 89.227)" fill="#8f9294"/>
            <rect id="Rectángulo_245" data-name="Rectángulo 245" width="3.122" height="3.122" transform="translate(76.019 78.226) rotate(-45)" fill="#8f9294"/>
            <rect id="Rectángulo_246" data-name="Rectángulo 246" width="2.923" height="2.923" transform="translate(65.159 67.225) rotate(-45.001)" fill="#8f9294"/>
            <rect id="Rectángulo_247" data-name="Rectángulo 247" width="2.723" height="2.723" transform="translate(54.299 56.224) rotate(-45)" fill="#8f9294"/>
            <rect id="Rectángulo_248" data-name="Rectángulo 248" width="2.523" height="2.523" transform="translate(43.439 45.223) rotate(-45.001)" fill="#8f9294"/>
            <rect id="Rectángulo_249" data-name="Rectángulo 249" width="2.324" height="2.324" transform="translate(32.579 34.222) rotate(-45)" fill="#8f9294"/>
            <rect id="Rectángulo_250" data-name="Rectángulo 250" width="2.124" height="2.124" transform="matrix(0.707, -0.707, 0.707, 0.707, 21.72, 23.222)" fill="#8f9294"/>
            <rect id="Rectángulo_251" data-name="Rectángulo 251" width="1.924" height="1.924" transform="translate(10.86 12.22) rotate(-45)" fill="#8f9294"/>
            <rect id="Rectángulo_252" data-name="Rectángulo 252" width="1.725" height="1.725" transform="matrix(0.707, -0.707, 0.707, 0.707, 0, 1.22)" fill="#8f9294"/>
          </g>
        </g>
        <g id="Grupo_78" data-name="Grupo 78" transform="translate(53.479 44.566)">
          <g id="Grupo_77" data-name="Grupo 77" transform="translate(0 0)">
            <rect id="Rectángulo_253" data-name="Rectángulo 253" width="3.921" height="3.921" transform="translate(119.458 122.23) rotate(-45)" fill="#8f9294"/>
            <rect id="Rectángulo_254" data-name="Rectángulo 254" width="3.721" height="3.721" transform="translate(108.598 111.229) rotate(-45)" fill="#8f9294"/>
            <rect id="Rectángulo_255" data-name="Rectángulo 255" width="3.521" height="3.521" transform="translate(97.738 100.228) rotate(-45.001)" fill="#8f9294"/>
            <rect id="Rectángulo_256" data-name="Rectángulo 256" width="3.322" height="3.322" transform="matrix(0.707, -0.707, 0.707, 0.707, 86.878, 89.227)" fill="#8f9294"/>
            <rect id="Rectángulo_257" data-name="Rectángulo 257" width="3.122" height="3.122" transform="matrix(0.707, -0.707, 0.707, 0.707, 76.019, 78.226)" fill="#8f9294"/>
            <rect id="Rectángulo_258" data-name="Rectángulo 258" width="2.922" height="2.922" transform="matrix(0.707, -0.707, 0.707, 0.707, 65.159, 67.225)" fill="#8f9294"/>
            <rect id="Rectángulo_259" data-name="Rectángulo 259" width="2.723" height="2.723" transform="translate(54.299 56.224) rotate(-45)" fill="#8f9294"/>
            <rect id="Rectángulo_260" data-name="Rectángulo 260" width="2.523" height="2.523" transform="translate(43.439 45.223) rotate(-45.001)" fill="#8f9294"/>
            <rect id="Rectángulo_261" data-name="Rectángulo 261" width="2.324" height="2.324" transform="translate(32.579 34.222) rotate(-45)" fill="#8f9294"/>
            <rect id="Rectángulo_262" data-name="Rectángulo 262" width="2.124" height="2.124" transform="matrix(0.707, -0.707, 0.707, 0.707, 21.72, 23.221)" fill="#8f9294"/>
            <rect id="Rectángulo_263" data-name="Rectángulo 263" width="1.924" height="1.924" transform="translate(10.86 12.221) rotate(-45)" fill="#8f9294"/>
            <rect id="Rectángulo_264" data-name="Rectángulo 264" width="1.725" height="1.725" transform="matrix(0.707, -0.707, 0.707, 0.707, 0, 1.22)" fill="#8f9294"/>
          </g>
        </g>
        <g id="Grupo_80" data-name="Grupo 80" transform="translate(44.566 53.479)">
          <g id="Grupo_79" data-name="Grupo 79" transform="translate(0 0)">
            <rect id="Rectángulo_265" data-name="Rectángulo 265" width="3.921" height="3.921" transform="translate(119.458 122.23) rotate(-44.999)" fill="#8f9294"/>
            <rect id="Rectángulo_266" data-name="Rectángulo 266" width="3.721" height="3.721" transform="translate(108.598 111.229) rotate(-45)" fill="#8f9294"/>
            <rect id="Rectángulo_267" data-name="Rectángulo 267" width="3.521" height="3.521" transform="translate(97.738 100.228) rotate(-44.999)" fill="#8f9294"/>
            <rect id="Rectángulo_268" data-name="Rectángulo 268" width="3.322" height="3.322" transform="translate(86.878 89.227) rotate(-45)" fill="#8f9294"/>
            <rect id="Rectángulo_269" data-name="Rectángulo 269" width="3.122" height="3.122" transform="translate(76.018 78.226) rotate(-44.999)" fill="#8f9294"/>
            <rect id="Rectángulo_270" data-name="Rectángulo 270" width="2.922" height="2.922" transform="matrix(0.707, -0.707, 0.707, 0.707, 65.159, 67.225)" fill="#8f9294"/>
            <rect id="Rectángulo_271" data-name="Rectángulo 271" width="2.723" height="2.723" transform="matrix(0.707, -0.707, 0.707, 0.707, 54.299, 56.224)" fill="#8f9294"/>
            <rect id="Rectángulo_272" data-name="Rectángulo 272" width="2.523" height="2.523" transform="translate(43.439 45.223) rotate(-45.001)" fill="#8f9294"/>
            <rect id="Rectángulo_273" data-name="Rectángulo 273" width="2.324" height="2.324" transform="translate(32.579 34.222) rotate(-45)" fill="#8f9294"/>
            <rect id="Rectángulo_274" data-name="Rectángulo 274" width="2.124" height="2.124" transform="translate(21.72 23.221) rotate(-45.002)" fill="#8f9294"/>
            <rect id="Rectángulo_275" data-name="Rectángulo 275" width="1.924" height="1.924" transform="translate(10.86 12.221) rotate(-45)" fill="#8f9294"/>
            <rect id="Rectángulo_276" data-name="Rectángulo 276" width="1.725" height="1.725" transform="matrix(0.707, -0.707, 0.707, 0.707, 0, 1.22)" fill="#8f9294"/>
          </g>
        </g>
        <g id="Grupo_82" data-name="Grupo 82" transform="translate(35.652 62.392)">
          <g id="Grupo_81" data-name="Grupo 81" transform="translate(0 0)">
            <rect id="Rectángulo_277" data-name="Rectángulo 277" width="3.921" height="3.921" transform="translate(119.458 122.23) rotate(-44.999)" fill="#8f9294"/>
            <rect id="Rectángulo_278" data-name="Rectángulo 278" width="3.721" height="3.721" transform="translate(108.598 111.229) rotate(-45)" fill="#8f9294"/>
            <rect id="Rectángulo_279" data-name="Rectángulo 279" width="3.521" height="3.521" transform="translate(97.738 100.228) rotate(-44.999)" fill="#8f9294"/>
            <rect id="Rectángulo_280" data-name="Rectángulo 280" width="3.322" height="3.322" transform="translate(86.878 89.227) rotate(-45)" fill="#8f9294"/>
            <rect id="Rectángulo_281" data-name="Rectángulo 281" width="3.122" height="3.122" transform="translate(76.019 78.226) rotate(-44.999)" fill="#8f9294"/>
            <rect id="Rectángulo_282" data-name="Rectángulo 282" width="2.922" height="2.922" transform="translate(65.159 67.225) rotate(-45)" fill="#8f9294"/>
            <rect id="Rectángulo_283" data-name="Rectángulo 283" width="2.723" height="2.723" transform="matrix(0.707, -0.707, 0.707, 0.707, 54.299, 56.224)" fill="#8f9294"/>
            <rect id="Rectángulo_284" data-name="Rectángulo 284" width="2.523" height="2.523" transform="translate(43.439 45.223) rotate(-45)" fill="#8f9294"/>
            <rect id="Rectángulo_285" data-name="Rectángulo 285" width="2.324" height="2.324" transform="translate(32.579 34.222) rotate(-45)" fill="#8f9294"/>
            <rect id="Rectángulo_286" data-name="Rectángulo 286" width="2.124" height="2.124" transform="translate(21.72 23.221) rotate(-45)" fill="#8f9294"/>
            <rect id="Rectángulo_287" data-name="Rectángulo 287" width="1.924" height="1.924" transform="translate(10.86 12.221) rotate(-45)" fill="#8f9294"/>
            <rect id="Rectángulo_288" data-name="Rectángulo 288" width="1.725" height="1.725" transform="matrix(0.707, -0.707, 0.707, 0.707, 0, 1.22)" fill="#8f9294"/>
          </g>
        </g>
        <g id="Grupo_84" data-name="Grupo 84" transform="translate(26.739 71.305)">
          <g id="Grupo_83" data-name="Grupo 83" transform="translate(0 0)">
            <rect id="Rectángulo_289" data-name="Rectángulo 289" width="3.921" height="3.921" transform="translate(119.458 122.23) rotate(-44.999)" fill="#8f9294"/>
            <rect id="Rectángulo_290" data-name="Rectángulo 290" width="3.721" height="3.721" transform="translate(108.598 111.229) rotate(-44.999)" fill="#8f9294"/>
            <rect id="Rectángulo_291" data-name="Rectángulo 291" width="3.521" height="3.521" transform="translate(97.738 100.228) rotate(-44.999)" fill="#8f9294"/>
            <rect id="Rectángulo_292" data-name="Rectángulo 292" width="3.322" height="3.322" transform="matrix(0.707, -0.707, 0.707, 0.707, 86.878, 89.227)" fill="#8f9294"/>
            <rect id="Rectángulo_293" data-name="Rectángulo 293" width="3.122" height="3.122" transform="translate(76.019 78.226) rotate(-44.999)" fill="#8f9294"/>
            <rect id="Rectángulo_294" data-name="Rectángulo 294" width="2.923" height="2.923" transform="matrix(0.707, -0.707, 0.707, 0.707, 65.159, 67.225)" fill="#8f9294"/>
            <rect id="Rectángulo_295" data-name="Rectángulo 295" width="2.723" height="2.723" transform="matrix(0.707, -0.707, 0.707, 0.707, 54.299, 56.224)" fill="#8f9294"/>
            <rect id="Rectángulo_296" data-name="Rectángulo 296" width="2.523" height="2.523" transform="translate(43.439 45.223) rotate(-44.999)" fill="#8f9294"/>
            <rect id="Rectángulo_297" data-name="Rectángulo 297" width="2.324" height="2.324" transform="matrix(0.707, -0.707, 0.707, 0.707, 32.579, 34.222)" fill="#8f9294"/>
            <rect id="Rectángulo_298" data-name="Rectángulo 298" width="2.124" height="2.124" transform="translate(21.72 23.221) rotate(-44.998)" fill="#8f9294"/>
            <rect id="Rectángulo_299" data-name="Rectángulo 299" width="1.924" height="1.924" transform="translate(10.86 12.22) rotate(-44.998)" fill="#8f9294"/>
            <rect id="Rectángulo_300" data-name="Rectángulo 300" width="1.725" height="1.725" transform="translate(0 1.22) rotate(-44.998)" fill="#8f9294"/>
          </g>
        </g>
        <g id="Grupo_86" data-name="Grupo 86" transform="translate(17.826 80.218)">
          <g id="Grupo_85" data-name="Grupo 85" transform="translate(0 0)">
            <rect id="Rectángulo_301" data-name="Rectángulo 301" width="3.921" height="3.921" transform="matrix(0.707, -0.707, 0.707, 0.707, 119.458, 122.23)" fill="#8f9294"/>
            <rect id="Rectángulo_302" data-name="Rectángulo 302" width="3.721" height="3.721" transform="translate(108.598 111.229) rotate(-45.001)" fill="#8f9294"/>
            <rect id="Rectángulo_303" data-name="Rectángulo 303" width="3.521" height="3.521" transform="translate(97.738 100.228) rotate(-45.001)" fill="#8f9294"/>
            <rect id="Rectángulo_304" data-name="Rectángulo 304" width="3.322" height="3.322" transform="matrix(0.707, -0.707, 0.707, 0.707, 86.878, 89.227)" fill="#8f9294"/>
            <rect id="Rectángulo_305" data-name="Rectángulo 305" width="3.122" height="3.122" transform="translate(76.019 78.226) rotate(-45)" fill="#8f9294"/>
            <rect id="Rectángulo_306" data-name="Rectángulo 306" width="2.923" height="2.923" transform="translate(65.159 67.225) rotate(-45.001)" fill="#8f9294"/>
            <rect id="Rectángulo_307" data-name="Rectángulo 307" width="2.723" height="2.723" transform="translate(54.299 56.224) rotate(-45)" fill="#8f9294"/>
            <rect id="Rectángulo_308" data-name="Rectángulo 308" width="2.523" height="2.523" transform="translate(43.439 45.223) rotate(-45.001)" fill="#8f9294"/>
            <rect id="Rectángulo_309" data-name="Rectángulo 309" width="2.324" height="2.324" transform="translate(32.579 34.222) rotate(-45)" fill="#8f9294"/>
            <rect id="Rectángulo_310" data-name="Rectángulo 310" width="2.124" height="2.124" transform="translate(21.72 23.222) rotate(-45)" fill="#8f9294"/>
            <rect id="Rectángulo_311" data-name="Rectángulo 311" width="1.924" height="1.924" transform="translate(10.86 12.221) rotate(-45)" fill="#8f9294"/>
            <rect id="Rectángulo_312" data-name="Rectángulo 312" width="1.725" height="1.725" transform="translate(0 1.22) rotate(-45)" fill="#8f9294"/>
          </g>
        </g>
        <g id="Grupo_88" data-name="Grupo 88" transform="translate(8.913 89.131)">
          <g id="Grupo_87" data-name="Grupo 87" transform="translate(0 0)">
            <rect id="Rectángulo_313" data-name="Rectángulo 313" width="3.921" height="3.921" transform="translate(119.458 122.23) rotate(-45)" fill="#8f9294"/>
            <rect id="Rectángulo_314" data-name="Rectángulo 314" width="3.721" height="3.721" transform="translate(108.598 111.229) rotate(-45)" fill="#8f9294"/>
            <rect id="Rectángulo_315" data-name="Rectángulo 315" width="3.521" height="3.521" transform="translate(97.738 100.228) rotate(-45)" fill="#8f9294"/>
            <rect id="Rectángulo_316" data-name="Rectángulo 316" width="3.322" height="3.322" transform="matrix(0.707, -0.707, 0.707, 0.707, 86.878, 89.227)" fill="#8f9294"/>
            <rect id="Rectángulo_317" data-name="Rectángulo 317" width="3.122" height="3.122" transform="translate(76.018 78.226) rotate(-45.001)" fill="#8f9294"/>
            <rect id="Rectángulo_318" data-name="Rectángulo 318" width="2.923" height="2.923" transform="matrix(0.707, -0.707, 0.707, 0.707, 65.159, 67.225)" fill="#8f9294"/>
            <rect id="Rectángulo_319" data-name="Rectángulo 319" width="2.723" height="2.723" transform="translate(54.299 56.224) rotate(-45)" fill="#8f9294"/>
            <rect id="Rectángulo_320" data-name="Rectángulo 320" width="2.523" height="2.523" transform="translate(43.439 45.223) rotate(-45.001)" fill="#8f9294"/>
            <rect id="Rectángulo_321" data-name="Rectángulo 321" width="2.324" height="2.324" transform="translate(32.579 34.222) rotate(-45)" fill="#8f9294"/>
            <rect id="Rectángulo_322" data-name="Rectángulo 322" width="2.124" height="2.124" transform="matrix(0.707, -0.707, 0.707, 0.707, 21.72, 23.221)" fill="#8f9294"/>
            <rect id="Rectángulo_323" data-name="Rectángulo 323" width="1.924" height="1.924" transform="translate(10.86 12.221) rotate(-45)" fill="#8f9294"/>
            <rect id="Rectángulo_324" data-name="Rectángulo 324" width="1.725" height="1.725" transform="matrix(0.707, -0.707, 0.707, 0.707, 0, 1.22)" fill="#8f9294"/>
          </g>
        </g>
        <g id="Grupo_90" data-name="Grupo 90" transform="translate(0 98.044)">
          <g id="Grupo_89" data-name="Grupo 89" transform="translate(0 0)">
            <rect id="Rectángulo_325" data-name="Rectángulo 325" width="3.921" height="3.921" transform="translate(119.458 122.23) rotate(-45)" fill="#8f9294"/>
            <rect id="Rectángulo_326" data-name="Rectángulo 326" width="3.721" height="3.721" transform="translate(108.598 111.229) rotate(-45)" fill="#8f9294"/>
            <rect id="Rectángulo_327" data-name="Rectángulo 327" width="3.521" height="3.521" transform="translate(97.738 100.228) rotate(-45)" fill="#8f9294"/>
            <rect id="Rectángulo_328" data-name="Rectángulo 328" width="3.322" height="3.322" transform="translate(86.878 89.227) rotate(-45)" fill="#8f9294"/>
            <rect id="Rectángulo_329" data-name="Rectángulo 329" width="3.122" height="3.122" transform="translate(76.019 78.226) rotate(-45)" fill="#8f9294"/>
            <rect id="Rectángulo_330" data-name="Rectángulo 330" width="2.922" height="2.922" transform="translate(65.159 67.225) rotate(-45)" fill="#8f9294"/>
            <rect id="Rectángulo_331" data-name="Rectángulo 331" width="2.723" height="2.723" transform="matrix(0.707, -0.707, 0.707, 0.707, 54.299, 56.224)" fill="#8f9294"/>
            <rect id="Rectángulo_332" data-name="Rectángulo 332" width="2.523" height="2.523" transform="translate(43.439 45.223) rotate(-45.001)" fill="#8f9294"/>
            <rect id="Rectángulo_333" data-name="Rectángulo 333" width="2.324" height="2.324" transform="translate(32.579 34.222) rotate(-45.002)" fill="#8f9294"/>
            <rect id="Rectángulo_334" data-name="Rectángulo 334" width="2.124" height="2.124" transform="translate(21.72 23.221) rotate(-45.002)" fill="#8f9294"/>
            <rect id="Rectángulo_335" data-name="Rectángulo 335" width="1.924" height="1.924" transform="matrix(0.707, -0.707, 0.707, 0.707, 10.86, 12.221)" fill="#8f9294"/>
            <rect id="Rectángulo_336" data-name="Rectángulo 336" width="1.725" height="1.725" transform="matrix(0.707, -0.707, 0.707, 0.707, 0, 1.22)" fill="#8f9294"/>
          </g>
        </g>
      </g>
      <g id="Grupo_879320" data-name="Grupo 879320" transform="translate(1348.782 1657.926)">
        <path id="Trazado_34" data-name="Trazado 34" d="M696.457,390.082l-9.14,15.83H705.6Z" transform="translate(-687.318 -257.043)" fill="#fdfdfd"/>
        <path id="Trazado_35" data-name="Trazado 35" d="M696.457,361.354l-9.14,15.83H705.6Z" transform="translate(-687.318 -254.828)" fill="#fdfdfd"/>
        <path id="Trazado_36" data-name="Trazado 36" d="M696.457,332.626l-9.14,15.83H705.6Z" transform="translate(-687.318 -252.614)" fill="#fdfdfd"/>
        <path id="Trazado_37" data-name="Trazado 37" d="M696.778,245.931l-5.3,9.184h10.6Z" transform="translate(-687.638 -245.931)" fill="#f13b76"/>
      </g>
    </g>
    <g id="Grupo_895411" data-name="Grupo 895411" transform="translate(-1106.956 607.148)">
      <path id="Trazado_624223" data-name="Trazado 624223" d="M1400.639,990.066c-16.566,24.151,2.858,63.305-21.724,81.468-23.929,17.68-53.327-11.3-75.879,3.919-33.454,22.576-27.345,125.885,21.567,190.071,14.709,19.3,27,26.814,32.445,48.645,11.689,46.878-29.392,74.763-21.575,97.948,17.6,52.2,288.315,96.007,396.937-60.88,50.731-73.274,58.321-179.08,12.994-259.441C1663.5,946.584,1437.814,935.876,1400.639,990.066Z" transform="translate(0 28.286)" fill="#bef0e7"/>
      <g id="Grupo_895410" data-name="Grupo 895410" transform="translate(1343.004 928.852)">
        <g id="Grupo_895409" data-name="Grupo 895409">
          <g id="Grupo_895382" data-name="Grupo 895382" transform="translate(178.319 59.047)">
            <rect id="Rectángulo_302506" data-name="Rectángulo 302506" width="214.341" height="116.697" fill="#0a2033"/>
            <g id="Grupo_895374" data-name="Grupo 895374" transform="translate(4.961 4.049)">
              <path id="Trazado_624224" data-name="Trazado 624224" d="M1414.579,964.182a2.263,2.263,0,1,1-2.263-2.263A2.263,2.263,0,0,1,1414.579,964.182Z" transform="translate(-1410.053 -961.919)" fill="#f9fbfc"/>
              <path id="Trazado_624225" data-name="Trazado 624225" d="M1419.53,964.182a2.263,2.263,0,1,1-2.263-2.263A2.263,2.263,0,0,1,1419.53,964.182Z" transform="translate(-1405.557 -961.919)" fill="#cba225"/>
              <path id="Trazado_624226" data-name="Trazado 624226" d="M1424.126,964.307a2.262,2.262,0,1,1-2.263-2.263A2.263,2.263,0,0,1,1424.126,964.307Z" transform="translate(-1401.382 -961.805)" fill="#ef3c79"/>
            </g>
            <g id="Grupo_895377" data-name="Grupo 895377" transform="translate(22.228 23.816)">
              <g id="Grupo_895375" data-name="Grupo 895375">
                <rect id="Rectángulo_302507" data-name="Rectángulo 302507" width="117.927" height="1.489" fill="#cba225"/>
                <rect id="Rectángulo_302508" data-name="Rectángulo 302508" width="167.424" height="1.488" transform="translate(5.478 8.018)" fill="#cba225"/>
                <rect id="Rectángulo_302509" data-name="Rectángulo 302509" width="129.319" height="1.489" transform="translate(15.004 16.036)" fill="#cba225"/>
                <rect id="Rectángulo_302510" data-name="Rectángulo 302510" width="135.035" height="1.489" transform="translate(24.371 24.054)" fill="#cba225"/>
                <rect id="Rectángulo_302511" data-name="Rectángulo 302511" width="91.214" height="1.488" transform="translate(37.073 32.072)" fill="#cba225"/>
              </g>
              <g id="Grupo_895376" data-name="Grupo 895376" transform="translate(0 41.598)">
                <rect id="Rectángulo_302512" data-name="Rectángulo 302512" width="53.109" height="1.489" transform="translate(0 32.072)" fill="#ef3c79"/>
                <rect id="Rectángulo_302513" data-name="Rectángulo 302513" width="129.319" height="1.488" transform="translate(5.478 24.054)" fill="#ef3c79"/>
                <rect id="Rectángulo_302514" data-name="Rectángulo 302514" width="167.424" height="1.489" transform="translate(15.004 16.036)" fill="#ef3c79"/>
                <rect id="Rectángulo_302515" data-name="Rectángulo 302515" width="91.214" height="1.489" transform="translate(24.371 8.018)" fill="#ef3c79"/>
                <rect id="Rectángulo_302516" data-name="Rectángulo 302516" width="110.267" height="1.488" transform="translate(37.073)" fill="#ef3c79"/>
              </g>
            </g>
            <g id="Grupo_895381" data-name="Grupo 895381" transform="translate(10.638 22.387)">
              <g id="Grupo_895378" data-name="Grupo 895378" transform="translate(0)">
                <rect id="Rectángulo_302517" data-name="Rectángulo 302517" width="1.905" height="1.905" fill="#f9fbfc"/>
              </g>
              <g id="Grupo_895379" data-name="Grupo 895379" transform="translate(0 7.734)">
                <path id="Trazado_624227" data-name="Trazado 624227" d="M1414.934,1037.754h-1.906v-3.885h1.906Zm0-9.714h-1.906v-3.885h1.906Zm0-9.716h-1.906v-3.885h1.906Zm0-9.714h-1.906v-3.885h1.906Zm0-9.714h-1.906v-3.885h1.906Zm0-9.714h-1.906V985.3h1.906Zm0-9.714h-1.906v-3.885h1.906Z" transform="translate(-1413.028 -975.583)" fill="#f9fbfc"/>
              </g>
              <g id="Grupo_895380" data-name="Grupo 895380" transform="translate(0 75.734)">
                <rect id="Rectángulo_302518" data-name="Rectángulo 302518" width="1.905" height="1.905" fill="#f9fbfc"/>
              </g>
            </g>
          </g>
          <g id="Grupo_895402" data-name="Grupo 895402" transform="translate(0 82.016)">
            <g id="Grupo_895384" data-name="Grupo 895384" transform="translate(225.998 132.35)">
              <g id="Grupo_895383" data-name="Grupo 895383">
                <path id="Trazado_624228" data-name="Trazado 624228" d="M1535.056,1134.248H1432.441v-5.827H1531.6l47.734-87.224,5.112,2.8Z" transform="translate(-1432.441 -1041.197)" fill="#1d262d"/>
              </g>
            </g>
            <g id="Grupo_895395" data-name="Grupo 895395" transform="translate(45.251)">
              <path id="Trazado_624229" data-name="Trazado 624229" d="M1430.876,1008.884a49.617,49.617,0,0,1-6.829,17.5c-5.471,8.443-17.8,20.846-21.2,21.907-1.376.42-6.263-1.792-11.6-4.587-1.748-.912-3.541-1.9-5.289-2.854-6.142-3.406-11.552-6.694-11.552-6.694l-8.144-11.492c3.3-16.661,9.19-29.154,18.245-40.974,9.04-11.836,29.245-4.722,36.6.956C1428.469,988.322,1432.475,997.229,1430.876,1008.884Z" transform="translate(-1311.792 -968.71)" fill="url(#radial-gradient)"/>
              <path id="Trazado_624230" data-name="Trazado 624230" d="M1378.164,993.616c-.24,7.438,4.669,10.242,5.652,11.506s-5.612,8.134-8.556,5.049S1378.164,993.616,1378.164,993.616Z" transform="translate(-1304.373 -952.055)" fill="#efa78b"/>
              <path id="Trazado_624231" data-name="Trazado 624231" d="M1485.333,1189.918l3.642,17.511-24.038,4.138-5.536-20.046Z" transform="translate(-1227.212 -773.795)" fill="#ffc8af"/>
              <g id="Grupo_895388" data-name="Grupo 895388" transform="translate(231.617 425.934)">
                <g id="Grupo_895387" data-name="Grupo 895387">
                  <g id="Grupo_895386" data-name="Grupo 895386">
                    <g id="Grupo_895385" data-name="Grupo 895385">
                      <path id="Trazado_624232" data-name="Trazado 624232" d="M1535.329,1203.336l1.563,8.764-76.244,13.6-1.547-8.68s67.585-12.836,74.942-13.5Z" transform="translate(-1459.101 -1187.545)" fill="#f9fbfc"/>
                      <path id="Trazado_624233" data-name="Trazado 624233" d="M1502.934,1200.527a1.174,1.174,0,0,0,.216-.6c1.53.588,3.118,1.191,4.736,1.817l-5.392,7.47a1.324,1.324,0,0,0,1.313,2.08,1.3,1.3,0,0,0,.82-.523l5.589-7.72a.7.7,0,0,0,.149-.378c10.239,3.877,20.975,7.825,23.679,8.363-7.358.668-74.942,13.5-74.942,13.5l2.408-20.17a1.49,1.49,0,0,1,1.78-1.261c17.9,3.5,24.107-4.286,25.8-7.3a1.456,1.456,0,0,1,1.807-.639l3.3,1.276-5.328,7.379a1.3,1.3,0,0,0,.3,1.83,1.369,1.369,0,0,0,1.011.248,1.327,1.327,0,0,0,.844-.553l5.562-7.716a.481.481,0,0,0,.1-.2c1.24.477,2.627,1.01,4.1,1.58l-5.562,7.716a1.337,1.337,0,0,0,1.311,2.08,1.226,1.226,0,0,0,.817-.55Z" transform="translate(-1459.101 -1195.06)" fill="#06355c"/>
                      <path id="Trazado_624234" data-name="Trazado 624234" d="M1484.094,1207.588a1.3,1.3,0,0,1-.821.523,1.324,1.324,0,0,1-1.312-2.08l5.392-7.47c.834.309,1.643.622,2.479.929a.7.7,0,0,1-.149.378Z" transform="translate(-1438.569 -1191.881)" fill="#f9fbfc"/>
                      <path id="Trazado_624235" data-name="Trazado 624235" d="M1483.714,1197.125c.752.3,1.561.61,2.37.924a1.178,1.178,0,0,1-.216.6l-5.589,7.72a1.226,1.226,0,0,1-.817.55,1.337,1.337,0,0,1-1.311-2.08Z" transform="translate(-1442.036 -1193.185)" fill="#f9fbfc"/>
                      <path id="Trazado_624236" data-name="Trazado 624236" d="M1476.973,1204.685a1.328,1.328,0,0,1-.844.553,1.37,1.37,0,0,1-1.011-.248,1.3,1.3,0,0,1-.3-1.83l5.328-7.379c.752.3,1.591.63,2.488.983a.484.484,0,0,1-.1.2Z" transform="translate(-1445.056 -1194.404)" fill="#f9fbfc"/>
                    </g>
                  </g>
                </g>
              </g>
              <path id="Trazado_624237" data-name="Trazado 624237" d="M1464.412,1163.689c-15.618.786-36.481,1.893-63.724,2.942-76.223,2.914-60.693-70.892-60.693-70.892l72.844-.961s108.3-1.6,131.118,12.965,56.088,168.3,56.088,168.3l-36.277,10.132s-29.4-63.19-46.559-96.845c-7.052-13.84-12.151-24.008-12.588-25.117C1503.688,1161.735,1492.53,1162.231,1464.412,1163.689Z" transform="translate(-1336.826 -860.238)" fill="#243c55"/>
              <path id="Trazado_624238" data-name="Trazado 624238" d="M1415.16,1094.74c-1.5.013-2.322.025-2.322.025l-72.844.962s-8.708,41.4,18.94,60.96c27.517-6.657,43.915-34.58,58.357-59.632Z" transform="translate(-1336.825 -860.225)" fill="#0a2033"/>
              <path id="Trazado_624239" data-name="Trazado 624239" d="M1457.377,1157.085l-6.031,91.2-6.556.145v-3.788H1418.8v4.429l-7.169.176-7.05-117.8c28.118-1.458,39.276-1.954,40.209.523C1445.226,1133.077,1450.325,1143.245,1457.377,1157.085Z" transform="translate(-1276.994 -827.996)" fill="#0a2033"/>
              <path id="Trazado_624240" data-name="Trazado 624240" d="M1438.022,1192.178v16.608h-25.991v-15.967Z" transform="translate(-1270.227 -771.743)" fill="#ffc8af"/>
              <path id="Trazado_624241" data-name="Trazado 624241" d="M1438.022,1190.193v3.788l-25.991.641v-4.429Z" transform="translate(-1270.227 -773.545)" fill="#0a2033"/>
              <g id="Grupo_895392" data-name="Grupo 895392" transform="translate(134.419 429.907)">
                <g id="Grupo_895391" data-name="Grupo 895391">
                  <g id="Grupo_895390" data-name="Grupo 895390">
                    <g id="Grupo_895389" data-name="Grupo 895389">
                      <path id="Trazado_624242" data-name="Trazado 624242" d="M1485.607,1209.584v8.9h-77.446v-8.817s68.789-.767,76.148-.132Z" transform="translate(-1408.161 -1186.116)" fill="#f9fbfc"/>
                      <path id="Trazado_624243" data-name="Trazado 624243" d="M1455.529,1204.755a1.183,1.183,0,0,0,.317-.557c1.4.849,2.86,1.721,4.343,2.622l-6.619,6.408a1.335,1.335,0,0,0-.027,1.881,1.349,1.349,0,0,0,.952.4,1.309,1.309,0,0,0,.9-.372l6.858-6.619a.674.674,0,0,0,.212-.344c9.4,5.614,19.276,11.386,21.844,12.391-7.359-.635-76.148.132-76.148.132l5.913-19.434a1.488,1.488,0,0,1,1.973-.927c17,6.589,24.485.015,26.681-2.66a1.455,1.455,0,0,1,1.891-.313l3.019,1.836-6.539,6.327a1.3,1.3,0,0,0-.027,1.854,1.38,1.38,0,0,0,.954.424,1.334,1.334,0,0,0,.925-.4l6.831-6.621a.458.458,0,0,0,.134-.185c1.138.689,2.41,1.458,3.759,2.278l-6.831,6.619a1.336,1.336,0,0,0,.927,2.276,1.228,1.228,0,0,0,.9-.4Z" transform="translate(-1408.161 -1197.142)" fill="#06355c"/>
                      <path id="Trazado_624244" data-name="Trazado 624244" d="M1433.976,1210.528a1.308,1.308,0,0,1-.9.372,1.349,1.349,0,0,1-.952-.4,1.335,1.335,0,0,1,.027-1.881l6.619-6.408c.767.45,1.51.9,2.276,1.351a.673.673,0,0,1-.212.344Z" transform="translate(-1386.741 -1192.536)" fill="#f9fbfc"/>
                      <path id="Trazado_624245" data-name="Trazado 624245" d="M1435.46,1200.147c.689.424,1.431.874,2.171,1.322a1.182,1.182,0,0,1-.317.557l-6.858,6.619a1.227,1.227,0,0,1-.9.4,1.337,1.337,0,0,1-.928-2.276Z" transform="translate(-1389.946 -1194.413)" fill="#f9fbfc"/>
                      <path id="Trazado_624246" data-name="Trazado 624246" d="M1427.467,1206.427a1.334,1.334,0,0,1-.925.4,1.38,1.38,0,0,1-.954-.424,1.3,1.3,0,0,1,.027-1.854l6.539-6.327c.689.424,1.458.9,2.278,1.4a.459.459,0,0,1-.134.185Z" transform="translate(-1392.677 -1196.165)" fill="#f9fbfc"/>
                    </g>
                  </g>
                </g>
              </g>
              <g id="Grupo_895394" data-name="Grupo 895394" transform="translate(39.591 110.181)">
                <g id="Grupo_895393" data-name="Grupo 895393">
                  <path id="Trazado_624247" data-name="Trazado 624247" d="M1515.12,1114.655h-42.978s-64.831-10.46-77.447-18.211c-4.69-2.885-12.733-11.714-21.037-21.678l29.284-24.389c5.127,8.13,9.79,14.744,11.655,15.473,5.1,1.924,53.409,28.875,59,28.875S1505.882,1094.259,1515.12,1114.655Z" transform="translate(-1344.666 -1010.693)" fill="#efa78b"/>
                  <path id="Trazado_624248" data-name="Trazado 624248" d="M1418.721,1068.653l-31.266,25c-14.16-16.988-28.991-37.326-28.991-37.326l44.338-26.748S1414.181,1056.632,1418.721,1068.653Z" transform="translate(-1358.463 -1029.579)" fill="#0b5999"/>
                </g>
              </g>
              <path id="Trazado_624249" data-name="Trazado 624249" d="M1410.813,1023.886l-32.05-12.616s-38.221,4.442-40.86,96.534c-.51,17.776-.336,116.033,5.083,118.555,21.6,10.054,77.209-55.844,77.209-55.844,1.1-2.047-.466-23.29,0-25.389a22.934,22.934,0,0,1-3.322-1.515c-5.68-3.351-16.287-17.425-26.719-32.634l32.983-25.7c1.313,2.068,2.624,4.077,3.876,6.031C1427.887,1042.185,1410.813,1023.886,1410.813,1023.886Z" transform="translate(-1337.714 -936.024)" fill="#0b5999"/>
              <path id="Trazado_624250" data-name="Trazado 624250" d="M1409.122,1124.178a22.882,22.882,0,0,1-3.322-1.515c-5.68-3.351-16.287-17.425-26.719-32.634l16.19-12.612-16.19-24-29.173-19.073v13.141s12.492,33.983,27.358,60.63c8.073,14.469,21.432,21.571,31.962,25.046A81.327,81.327,0,0,1,1409.122,1124.178Z" transform="translate(-1326.641 -915.075)" fill="#3030ef"/>
              <path id="Trazado_624251" data-name="Trazado 624251" d="M1489.292,1104.751s-67.745-27.677-72.353-28.681c-1.456-.315-6.436-7.192-12.572-16.474-1.288-2-4.886-7.489-6.186-9.538l-32.983,25.7c10.431,15.209,21.039,29.283,26.719,32.634a22.9,22.9,0,0,0,3.322,1.515l.044-.2c-.013.065-.025.128-.038.193,19.689,7.375,90.573,10.773,91.949,11.237,2.543,1.969,8.525,2.1,13.912.615a20.134,20.134,0,0,0,6.688-3.084c4.736-3.549,11.811,1.46,15.009,3.872,2.08,1.568,6.909,1.515,8.508-.082C1527.667,1102.058,1489.292,1104.751,1489.292,1104.751Z" transform="translate(-1312.757 -900.802)" fill="url(#radial-gradient-2)"/>
              <path id="Trazado_624252" data-name="Trazado 624252" d="M1398.588,1019.208l-.956,1.943-2.062,4.169-.374.762-3.915,7.935-32.054-12.612,13.419-21.294,21.25,15.646Z" transform="translate(-1318.179 -946.158)" fill="url(#radial-gradient-3)"/>
              <path id="Trazado_624253" data-name="Trazado 624253" d="M1351.607,1063.878l33.415,51.339,38.2-21.935s-10.4-40.009-20.5-62.021c-6.274-13.681-24.322-20.462-41.791-9.584C1345.547,1031.261,1346.009,1053.639,1351.607,1063.878Z" transform="translate(-1328.341 -931.473)" fill="#0b5999"/>
              <path id="Trazado_624254" data-name="Trazado 624254" d="M1398.413,1011.858c-1.225-5.572-6.323-10.7-10.918-3.246a14.639,14.639,0,0,0-1.751,6.213c-.817,7.766-9.855,11.181-16.608,11.7a13.067,13.067,0,0,1-3.251-.116s1.71-12.782,5.5-28.181,12.376-31.1,24.771-24.8c0,0,11.414-5.327,18.356,3.509,0,0,11.781-4.22,17.883,5.253,0,0,16.543,3.125,19.634,13.4,3.929,13.059-14.358,16.236-20.458,12.54s-10.714-10.712-14.921-10.584-3.259,6.587-3.89,10.584-6.825-.114-9.455,5.249-3.938,8.367-5.516,7.421S1398.413,1011.858,1398.413,1011.858Z" transform="translate(-1312.133 -971.835)" fill="#06355c"/>
              <path id="Trazado_624255" data-name="Trazado 624255" d="M1384.622,995.889c.469-2.007-.779-4.848-2.53-4.97-2.238-.154-3.274,2.587-3.434,4.99-.147,2.208.512,6.033,2.954,5.2,1.87-.637-.214-2.889.456-4.114C1382.806,995.649,1384.618,998.048,1384.622,995.889Z" transform="translate(-1300.552 -954.51)" fill="#efa78b"/>
              <path id="Trazado_624256" data-name="Trazado 624256" d="M1383.415,1014.914l-2.061,4.169a15.223,15.223,0,0,1-6.47-12.1S1376.83,1011.132,1383.415,1014.914Z" transform="translate(-1303.962 -939.921)" fill="#efa78b"/>
            </g>
            <g id="Grupo_895399" data-name="Grupo 895399" transform="translate(0 145.342)">
              <g id="Grupo_895396" data-name="Grupo 895396" transform="translate(3.583 3.467)">
                <path id="Trazado_624257" data-name="Trazado 624257" d="M1315.877,1050.363c0,.262.01.357.015.45.025.305.04.383.059.555.077.58.226,1.6.458,3.167,1.74,11.624,7.962,51.461,13.757,88.436s11.155,71.04,11.155,71.04l11.513-1.811c0-.008-.4-2.521-1.091-6.932-2.427-15.446-8.5-54.079-13.961-89.007-2.732-17.465-5.312-34-7.209-46.252-.947-6.123-1.725-11.176-2.263-14.727-.271-1.776-.481-3.179-.62-4.143-.07-.479-.124-.853-.157-1.089l-.029-.227v0l-3.446.378,3.454-.29-.008-.088-3.446.378,3.454-.29-5.39.452h5.409c0-.318-.015-.381-.019-.452l-5.39.452h-6.245Z" transform="translate(-1315.877 -1049.823)" fill="#112b46"/>
              </g>
              <g id="Grupo_895397" data-name="Grupo 895397" transform="translate(27.617 158.193)">
                <path id="Rectángulo_302519" data-name="Rectángulo 302519" d="M1.626,0H12.488a1.626,1.626,0,0,1,1.626,1.626V137.9a0,0,0,0,1,0,0H0a0,0,0,0,1,0,0V1.626A1.626,1.626,0,0,1,1.626,0Z" transform="translate(93.052 163.101) rotate(180)" fill="#0a2033"/>
                <path id="Rectángulo_302520" data-name="Rectángulo 302520" d="M1.626,0H12.488a1.626,1.626,0,0,1,1.626,1.626V33.867a0,0,0,0,1,0,0H0a0,0,0,0,1,0,0V1.626A1.626,1.626,0,0,1,1.626,0Z" transform="translate(93.052 163.101) rotate(180)" fill="#0a2033"/>
                <path id="Rectángulo_302521" data-name="Rectángulo 302521" d="M6.173,0H71.447A6.173,6.173,0,0,1,77.62,6.173v5.605a0,0,0,0,1,0,0H0a0,0,0,0,1,0,0V6.173A6.173,6.173,0,0,1,6.173,0Z" transform="translate(124.805 38.911) rotate(180)" fill="#112b46"/>
                <rect id="Rectángulo_302522" data-name="Rectángulo 302522" width="171.99" height="27.494" rx="7.205" transform="translate(171.99 27.494) rotate(-180)" fill="#ef3c79"/>
                <path id="Trazado_624258" data-name="Trazado 624258" d="M1335.156,1215.992a8.261,8.261,0,1,0,8.26-8.26A8.261,8.261,0,0,0,1335.156,1215.992Z" transform="translate(-1322.403 -1061.152)" fill="#0a2033"/>
                <circle id="Elipse_6307" data-name="Elipse 6307" cx="8.26" cy="8.26" r="8.26" transform="translate(142.716 146.58)" fill="#0a2033"/>
                <rect id="Rectángulo_302523" data-name="Rectángulo 302523" width="28.394" height="24.812" transform="translate(100.192 143.529) rotate(180)" fill="#112b46"/>
                <path id="Rectángulo_302524" data-name="Rectángulo 302524" d="M0,0H146.483a0,0,0,0,1,0,0V5.925a5.751,5.751,0,0,1-5.751,5.751H5.751A5.751,5.751,0,0,1,0,5.925V0A0,0,0,0,1,0,0Z" transform="translate(159.236 149.367) rotate(180)" fill="#ef3c79"/>
              </g>
              <g id="Grupo_895398" data-name="Grupo 895398">
                <path id="Trazado_624259" data-name="Trazado 624259" d="M1314.108,1061.618l6.219,46.1a12.007,12.007,0,0,0,23.8-3.209l-6.219-46.1a12.006,12.006,0,0,0-23.8,3.209" transform="translate(-1313.999 -1048.006)" fill="#ef3c79"/>
              </g>
            </g>
            <g id="Grupo_895401" data-name="Grupo 895401" transform="translate(210.216 225.046)">
              <rect id="Rectángulo_302525" data-name="Rectángulo 302525" width="12.626" height="225.936" transform="translate(199.682 14.083)" fill="#bc8867"/>
              <rect id="Rectángulo_302526" data-name="Rectángulo 302526" width="12.626" height="225.936" transform="translate(9.468 14.083)" fill="#bc8867"/>
              <g id="Grupo_895400" data-name="Grupo 895400">
                <rect id="Rectángulo_302527" data-name="Rectángulo 302527" width="224.963" height="15.779" fill="#a9c5db"/>
              </g>
            </g>
          </g>
          <g id="Grupo_895404" data-name="Grupo 895404" transform="translate(139.968)">
            <rect id="Rectángulo_302528" data-name="Rectángulo 302528" width="65.044" height="40.093" fill="#ef3c79"/>
            <g id="Grupo_895403" data-name="Grupo 895403" transform="translate(15.547 10.944)">
              <path id="Trazado_624260" data-name="Trazado 624260" d="M1395.5,942.281l11.185-5.76v1.664l-9.426,4.724v.05l9.426,4.723v1.664l-11.185-5.761Z" transform="translate(-1395.502 -932.832)" fill="#f9fbfc"/>
              <path id="Trazado_624261" data-name="Trazado 624261" d="M1402.187,952.063l6.726-17.476h1.637l-6.749,17.476Z" transform="translate(-1389.431 -934.587)" fill="#f9fbfc"/>
              <path id="Trazado_624262" data-name="Trazado 624262" d="M1418.552,943.607l-11.185,5.738V947.68l9.5-4.723v-.05l-9.5-4.724V936.52l11.185,5.736Z" transform="translate(-1384.728 -932.832)" fill="#f9fbfc"/>
            </g>
          </g>
          <g id="Grupo_895406" data-name="Grupo 895406" transform="translate(22.062 47.57)">
            <rect id="Rectángulo_302529" data-name="Rectángulo 302529" width="73.388" height="49.086" fill="#fecb2f"/>
            <g id="Grupo_895405" data-name="Grupo 895405" transform="translate(21.695 9.539)">
              <path id="Trazado_624263" data-name="Trazado 624263" d="M1339.524,963.331a12.046,12.046,0,0,0,16.118,17.511l7.7,7.7a.834.834,0,0,0,1.177,0l2.164-2.164a.834.834,0,0,0,0-1.177l-7.7-7.7a12.046,12.046,0,0,0-19.459-14.169Zm15.461,13.513a8.518,8.518,0,1,1,0-12.046A8.528,8.528,0,0,1,1354.986,976.845Z" transform="translate(-1336.931 -958.781)" fill="#f9fbfc"/>
            </g>
          </g>
          <g id="Grupo_895408" data-name="Grupo 895408" transform="translate(376.543 36.018)">
            <rect id="Rectángulo_302530" data-name="Rectángulo 302530" width="56.329" height="40.13" fill="#21cbae"/>
            <g id="Grupo_895407" data-name="Grupo 895407" transform="translate(16.084 10.414)">
              <path id="Trazado_624264" data-name="Trazado 624264" d="M1519.768,963.887c2.042,0,2.33-1.122,2.33-2.128a16.95,16.95,0,0,0-.231-2.417,16.837,16.837,0,0,1-.229-2.387c0-2.648,1.725-3.768,4.171-3.768h.6v1.582h-.517c-1.7,0-2.272.92-2.272,2.475a12.454,12.454,0,0,0,.2,2.042,13.464,13.464,0,0,1,.2,2.185c.029,1.841-.776,2.763-2.07,3.108v.057c1.294.317,2.1,1.294,2.07,3.135a13.174,13.174,0,0,1-.2,2.187,12.8,12.8,0,0,0-.2,2.072c0,1.609.662,2.5,2.272,2.5h.517v1.582h-.6c-2.387,0-4.171-1.036-4.171-3.94a16.5,16.5,0,0,1,.229-2.36,15.759,15.759,0,0,0,.231-2.328c0-.893-.288-2.13-2.33-2.13Z" transform="translate(-1519.768 -953.186)" fill="#f1f2f2"/>
              <path id="Trazado_624265" data-name="Trazado 624265" d="M1533.845,965.354c-2.044,0-2.33,1.236-2.33,2.13a15.99,15.99,0,0,0,.229,2.328,16.258,16.258,0,0,1,.231,2.36c0,2.9-1.813,3.94-4.171,3.94h-.6V974.53h.489c1.612-.029,2.3-.893,2.3-2.5a17.029,17.029,0,0,0-.2-2.072,13.118,13.118,0,0,1-.229-2.187c0-1.841.8-2.818,2.07-3.135v-.057c-1.267-.345-2.07-1.267-2.07-3.108a13.449,13.449,0,0,1,.229-2.185,16.579,16.579,0,0,0,.2-2.042c0-1.555-.6-2.446-2.271-2.475h-.519v-1.582h.576c2.444,0,4.2,1.12,4.2,3.768a16.594,16.594,0,0,1-.231,2.387,17.2,17.2,0,0,0-.229,2.417c0,1.006.286,2.128,2.33,2.128Z" transform="translate(-1513.02 -953.186)" fill="#f1f2f2"/>
            </g>
          </g>
        </g>
      </g>
    </g>
  </g>
</svg>
