<svg xmlns="http://www.w3.org/2000/svg" width="138.998" height="139" viewBox="0 0 138.998 139">
  <g id="Grupo_895639" data-name="Grupo 895639" transform="translate(-208.281 -881)">
    <g id="Grupo_895467" data-name="Grupo 895467" transform="translate(208.281 881)">
      <g id="Grupo_895462" data-name="Grupo 895462" transform="translate(11.576)">
        <path id="Trazado_624387" data-name="Trazado 624387" d="M1194.451,2413.464l46.333,17.375,46.333-17.375,8.688-115.832H1185.764Z" transform="translate(-1182.86 -2294.735)" fill="#fff"/>
        <path id="Trazado_624388" data-name="Trazado 624388" d="M1240.6,2433.556a3.012,3.012,0,0,1-1.015-.175l-46.333-17.4a2.853,2.853,0,0,1-1.881-2.491L1185,2328.61h0a2.9,2.9,0,1,1,5.791-.436l6.227,83.055,43.582,16.331,43.581-16.331,8.311-110.882H1188.711l.347,4.72a2.9,2.9,0,0,1-5.792.432l-.579-7.847a2.891,2.891,0,0,1,.781-2.172,2.808,2.808,0,0,1,2.116-.926h110.041a2.921,2.921,0,0,1,2.895,3.1l-8.687,115.832a2.9,2.9,0,0,1-1.884,2.491l-46.332,17.4A3,3,0,0,1,1240.6,2433.556Zm-53.573-113.837a2.9,2.9,0,0,1-2.9-2.664,2.957,2.957,0,0,1,2.693-3.127,2.9,2.9,0,0,1,.434,5.791Z" transform="translate(-1182.68 -2294.556)" fill="#06355c"/>
      </g>
      <g id="Grupo_895463" data-name="Grupo 895463" transform="translate(24.069 11.584)">
        <path id="Trazado_624389" data-name="Trazado 624389" d="M1276.892,2405.936l7.2-96h-85.073l7.2,96,35.335,13.249Z" transform="translate(-1196.127 -2307.038)" fill="#b1ede3"/>
        <path id="Trazado_624390" data-name="Trazado 624390" d="M1241.378,2421.9a2.927,2.927,0,0,1-1.018-.184l-35.335-13.249a2.9,2.9,0,0,1-1.87-2.494l-7.2-96a2.9,2.9,0,0,1,2.888-3.114h85.072a2.9,2.9,0,0,1,2.887,3.114l-7.2,96a2.9,2.9,0,0,1-1.869,2.494l-35.336,13.249A2.926,2.926,0,0,1,1241.378,2421.9Zm-32.586-18.207,32.586,12.218,32.587-12.218,6.829-91.044h-78.828Zm67.92,2.062h0Z" transform="translate(-1195.948 -2306.858)" fill="#06355c"/>
      </g>
      <g id="Grupo_895464" data-name="Grupo 895464" transform="translate(0 40.542)">
        <path id="Trazado_624391" data-name="Trazado 624391" d="M1283.5,2387.019h-86.875a23.167,23.167,0,0,1-23.167-23.166h0a23.166,23.166,0,0,1,23.167-23.166H1283.5a23.166,23.166,0,0,1,23.166,23.166h0A23.167,23.167,0,0,1,1283.5,2387.019Z" transform="translate(-1170.566 -2337.791)" fill="#fff"/>
        <path id="Trazado_624392" data-name="Trazado 624392" d="M1297.8,2389.736H1181.97a11.58,11.58,0,0,1-11.583-11.583v-28.958a11.58,11.58,0,0,1,11.583-11.583h47.982a2.9,2.9,0,0,1,0,5.792H1181.97a5.806,5.806,0,0,0-5.792,5.791v28.958a5.808,5.808,0,0,0,5.792,5.791H1297.8a5.809,5.809,0,0,0,5.791-5.791v-28.958a5.807,5.807,0,0,0-5.791-5.791h-44.684a2.9,2.9,0,0,1,0-5.792H1297.8a11.58,11.58,0,0,1,11.583,11.583v28.958A11.58,11.58,0,0,1,1297.8,2389.736Zm-56.267-46.333a2.9,2.9,0,1,1,2.895-2.9A2.906,2.906,0,0,1,1241.535,2343.4Z" transform="translate(-1170.387 -2337.611)" fill="#ef3c79"/>
      </g>
      <g id="Grupo_895465" data-name="Grupo 895465" transform="translate(49.228 28.959)">
        <path id="Trazado_624393" data-name="Trazado 624393" d="M1257.416,2328.2a2.9,2.9,0,0,1,2.9-2.895h0a2.9,2.9,0,0,1,2.9,2.895h0a2.907,2.907,0,0,1-2.9,2.9h0A2.906,2.906,0,0,1,1257.416,2328.2Zm-11.583,0a2.9,2.9,0,0,1,2.9-2.895h0a2.9,2.9,0,0,1,2.9,2.895h0a2.907,2.907,0,0,1-2.9,2.9h0A2.906,2.906,0,0,1,1245.833,2328.2Zm-11.584,0a2.9,2.9,0,0,1,2.9-2.895h0a2.9,2.9,0,0,1,2.9,2.895h0a2.907,2.907,0,0,1-2.9,2.9h0A2.907,2.907,0,0,1,1234.249,2328.2Zm-11.583,0a2.9,2.9,0,0,1,2.9-2.895h0a2.9,2.9,0,0,1,2.895,2.895h0a2.905,2.905,0,0,1-2.895,2.9h0A2.907,2.907,0,0,1,1222.666,2328.2Z" transform="translate(-1222.666 -2325.31)" fill="#06355c"/>
      </g>
      <g id="Grupo_895466" data-name="Grupo 895466" transform="translate(49.228 98.458)">
        <path id="Trazado_624394" data-name="Trazado 624394" d="M1257.416,2402.013a2.906,2.906,0,0,1,2.9-2.9h0a2.906,2.906,0,0,1,2.9,2.9h0a2.9,2.9,0,0,1-2.9,2.9h0A2.9,2.9,0,0,1,1257.416,2402.013Zm-11.583,0a2.905,2.905,0,0,1,2.9-2.9h0a2.906,2.906,0,0,1,2.9,2.9h0a2.9,2.9,0,0,1-2.9,2.9h0A2.9,2.9,0,0,1,1245.833,2402.013Zm-11.584,0a2.886,2.886,0,0,1,2.9-2.9h0a2.906,2.906,0,0,1,2.9,2.9h0a2.9,2.9,0,0,1-2.9,2.9h0A2.885,2.885,0,0,1,1234.249,2402.013Zm-11.583,0a2.906,2.906,0,0,1,2.9-2.9h0a2.9,2.9,0,0,1,2.895,2.9h0a2.9,2.9,0,0,1-2.895,2.9h0A2.9,2.9,0,0,1,1222.666,2402.013Z" transform="translate(-1222.666 -2399.116)" fill="#06355c"/>
      </g>
    </g>
    <path id="Trazado_624565" data-name="Trazado 624565" d="M-9.463-28.437H-3.6V-8.75A9.415,9.415,0,0,1-4.8-3.955,8.152,8.152,0,0,1-8.193-.742,10.586,10.586,0,0,1-13.135.391,10.061,10.061,0,0,1-20.166-1.9,8.338,8.338,0,0,1-22.686-8.4h5.9a4.572,4.572,0,0,0,.879,3.086,3.516,3.516,0,0,0,2.773,1,3.357,3.357,0,0,0,2.676-1.152,4.869,4.869,0,0,0,1-3.281ZM16.162-7.461A3.007,3.007,0,0,0,14.99-10.01a15.371,15.371,0,0,0-4.219-1.875,29.906,29.906,0,0,1-4.824-1.943Q1.1-16.445,1.1-20.879A6.867,6.867,0,0,1,2.4-24.99a8.472,8.472,0,0,1,3.73-2.822,14.041,14.041,0,0,1,5.459-1.016,12.78,12.78,0,0,1,5.43,1.1,8.646,8.646,0,0,1,3.7,3.115,8.152,8.152,0,0,1,1.318,4.57H16.182a3.835,3.835,0,0,0-1.23-3.037,5.058,5.058,0,0,0-3.457-1.084,5.4,5.4,0,0,0-3.34.908,2.865,2.865,0,0,0-1.191,2.393,2.744,2.744,0,0,0,1.4,2.324,15.777,15.777,0,0,0,4.111,1.758,17.764,17.764,0,0,1,7.285,3.73A7.429,7.429,0,0,1,22.041-7.5a6.844,6.844,0,0,1-2.793,5.791,12.227,12.227,0,0,1-7.52,2.1,14.52,14.52,0,0,1-5.977-1.2A9.457,9.457,0,0,1,1.641-4.1,8.428,8.428,0,0,1,.225-8.945H6.1q0,4.707,5.625,4.707a5.472,5.472,0,0,0,3.262-.85A2.764,2.764,0,0,0,16.162-7.461Z" transform="translate(277.239 963.466)" fill="#06355c"/>
  </g>
</svg>
