<svg id="Grupo_895776" data-name="Grupo 895776" xmlns="http://www.w3.org/2000/svg" width="125.295" height="125.295" viewBox="0 0 125.295 125.295">
  <circle id="Elipse_6344" data-name="Elipse 6344" cx="62.648" cy="62.648" r="62.648" transform="translate(0)" fill="#0b5999"/>
  <circle id="Elipse_6345" data-name="Elipse 6345" cx="53.519" cy="53.519" r="53.519" transform="translate(9.032 9.254)" fill="#fff"/>
  <g id="Grupo_895614" data-name="Grupo 895614" transform="translate(25.994 26.237)">
    <g id="Grupo_895356" data-name="Grupo 895356" transform="translate(0 0)">
      <g id="Grupo_895351" data-name="Grupo 895351" transform="translate(6.061)">
        <path id="Trazado_624204" data-name="Trazado 624204" d="M908.659,2297.662l24.261,9.1,24.261-9.1,4.549-60.652H904.11Z" transform="translate(-902.59 -2235.494)" fill="#fff"/>
        <path id="Trazado_624205" data-name="Trazado 624205" d="M931.365,2306.725a1.575,1.575,0,0,1-.531-.092l-24.261-9.113a1.494,1.494,0,0,1-.985-1.3l-3.337-44.443h0a1.521,1.521,0,1,1,3.032-.228l3.261,43.489,22.82,8.551,22.82-8.551,4.352-58.06H904.193l.182,2.472a1.521,1.521,0,0,1-3.033.226l-.3-4.109a1.513,1.513,0,0,1,.408-1.137,1.472,1.472,0,0,1,1.108-.485h57.62a1.53,1.53,0,0,1,1.516,1.622l-4.549,60.652a1.518,1.518,0,0,1-.986,1.3l-24.261,9.113A1.564,1.564,0,0,1,931.365,2306.725Zm-28.052-59.607a1.518,1.518,0,0,1-1.516-1.395,1.549,1.549,0,0,1,1.41-1.638,1.521,1.521,0,0,1,.228,3.032Z" transform="translate(-901.035 -2233.942)" fill="#06355c"/>
      </g>
      <g id="Grupo_895352" data-name="Grupo 895352" transform="translate(12.603 6.066)">
        <path id="Trazado_624206" data-name="Trazado 624206" d="M958.107,2299.548l3.771-50.269H917.333l3.771,50.269,18.5,6.938Z" transform="translate(-915.817 -2247.763)" fill="#b1ede3"/>
        <path id="Trazado_624207" data-name="Trazado 624207" d="M938.056,2306.45a1.532,1.532,0,0,1-.533-.1l-18.5-6.938a1.518,1.518,0,0,1-.979-1.305l-3.77-50.269a1.516,1.516,0,0,1,1.512-1.63h44.546a1.516,1.516,0,0,1,1.512,1.63l-3.771,50.269a1.518,1.518,0,0,1-.979,1.305l-18.5,6.938A1.532,1.532,0,0,1,938.056,2306.45Zm-17.063-9.533,17.063,6.4,17.063-6.4,3.575-47.673H917.418Zm35.565,1.08h0Z" transform="translate(-914.267 -2246.212)" fill="#06355c"/>
      </g>
      <g id="Grupo_895353" data-name="Grupo 895353" transform="translate(0 21.229)">
        <path id="Trazado_624208" data-name="Trazado 624208" d="M949.46,2304.213H903.971a12.131,12.131,0,0,1-12.131-12.13h0a12.13,12.13,0,0,1,12.131-12.13H949.46a12.13,12.13,0,0,1,12.13,12.13h0A12.131,12.131,0,0,1,949.46,2304.213Z" transform="translate(-890.324 -2278.436)" fill="#fff"/>
        <path id="Trazado_624209" data-name="Trazado 624209" d="M955.491,2304.177H894.839a6.063,6.063,0,0,1-6.065-6.065v-15.163a6.063,6.063,0,0,1,6.065-6.065h25.124a1.516,1.516,0,0,1,0,3.033H894.839a3.04,3.04,0,0,0-3.033,3.032v15.163a3.041,3.041,0,0,0,3.033,3.032h60.651a3.042,3.042,0,0,0,3.032-3.032v-15.163a3.04,3.04,0,0,0-3.032-3.032h-23.4a1.516,1.516,0,1,1,0-3.033h23.4a6.063,6.063,0,0,1,6.065,6.065v15.163A6.063,6.063,0,0,1,955.491,2304.177Zm-29.463-24.26a1.516,1.516,0,1,1,1.516-1.516A1.521,1.521,0,0,1,926.028,2279.917Z" transform="translate(-888.774 -2276.884)" fill="#ef3c79"/>
      </g>
      <g id="Grupo_895354" data-name="Grupo 895354" transform="translate(25.777 15.163)">
        <path id="Trazado_624210" data-name="Trazado 624210" d="M959.112,2266.131a1.522,1.522,0,0,1,1.516-1.516h0a1.522,1.522,0,0,1,1.517,1.516h0a1.522,1.522,0,0,1-1.517,1.517h0A1.522,1.522,0,0,1,959.112,2266.131Zm-6.065,0a1.521,1.521,0,0,1,1.516-1.516h0a1.522,1.522,0,0,1,1.517,1.516h0a1.522,1.522,0,0,1-1.517,1.517h0A1.521,1.521,0,0,1,953.047,2266.131Zm-6.065,0a1.521,1.521,0,0,1,1.516-1.516h0a1.521,1.521,0,0,1,1.517,1.516h0a1.522,1.522,0,0,1-1.517,1.517h0A1.522,1.522,0,0,1,946.981,2266.131Zm-6.065,0a1.521,1.521,0,0,1,1.516-1.516h0a1.521,1.521,0,0,1,1.516,1.516h0a1.521,1.521,0,0,1-1.516,1.517h0A1.522,1.522,0,0,1,940.916,2266.131Z" transform="translate(-940.916 -2264.615)" fill="#06355c"/>
      </g>
      <g id="Grupo_895355" data-name="Grupo 895355" transform="translate(25.777 51.554)">
        <path id="Trazado_624211" data-name="Trazado 624211" d="M959.112,2339.745a1.522,1.522,0,0,1,1.516-1.517h0a1.522,1.522,0,0,1,1.517,1.517h0a1.521,1.521,0,0,1-1.517,1.516h0A1.521,1.521,0,0,1,959.112,2339.745Zm-6.065,0a1.521,1.521,0,0,1,1.516-1.517h0a1.522,1.522,0,0,1,1.517,1.517h0a1.521,1.521,0,0,1-1.517,1.516h0A1.521,1.521,0,0,1,953.047,2339.745Zm-6.065,0a1.511,1.511,0,0,1,1.516-1.517h0a1.522,1.522,0,0,1,1.517,1.517h0a1.521,1.521,0,0,1-1.517,1.516h0A1.51,1.51,0,0,1,946.981,2339.745Zm-6.065,0a1.522,1.522,0,0,1,1.516-1.517h0a1.521,1.521,0,0,1,1.516,1.517h0a1.521,1.521,0,0,1-1.516,1.516h0A1.521,1.521,0,0,1,940.916,2339.745Z" transform="translate(-940.916 -2338.228)" fill="#06355c"/>
      </g>
    </g>
    <text id="CSS" transform="translate(34.617 41.231)" fill="#06355c" font-size="19" font-family="Roboto-Bold, Roboto" font-weight="700"><tspan x="-17.896" y="0">CSS</tspan></text>
  </g>
</svg>
