<svg id="Grupo_895775" data-name="Grupo 895775" xmlns="http://www.w3.org/2000/svg" width="122.947" height="122.947" viewBox="0 0 122.947 122.947">
  <circle id="Elipse_6342" data-name="Elipse 6342" cx="61.474" cy="61.474" r="61.474" transform="translate(0)" fill="#0b5999"/>
  <circle id="Elipse_6343" data-name="Elipse 6343" cx="52.516" cy="52.516" r="52.516" transform="translate(8.958 8.958)" fill="#fff"/>
  <g id="Grupo_895611" data-name="Grupo 895611" transform="translate(24.461 25.328)">
    <g id="Grupo_895349" data-name="Grupo 895349" transform="translate(0 0)">
      <g id="Grupo_895344" data-name="Grupo 895344" transform="translate(6.061)">
        <path id="Trazado_624196" data-name="Trazado 624196" d="M671.117,2380.953l24.261,9.1,24.261-9.1,4.549-60.651H666.568Z" transform="translate(-665.048 -2318.785)" fill="#fff"/>
        <path id="Trazado_624197" data-name="Trazado 624197" d="M694.533,2390.724a1.578,1.578,0,0,1-.532-.092l-24.26-9.112a1.5,1.5,0,0,1-.985-1.3l-3.336-44.442h0a1.52,1.52,0,1,1,3.032-.228l3.261,43.488,22.82,8.551,22.82-8.551,4.352-58.059H667.361l.182,2.472a1.521,1.521,0,0,1-3.033.226l-.3-4.109a1.514,1.514,0,0,1,.409-1.138,1.467,1.467,0,0,1,1.108-.485h57.619a1.531,1.531,0,0,1,1.516,1.623l-4.549,60.651a1.519,1.519,0,0,1-.986,1.3l-24.261,9.112A1.561,1.561,0,0,1,694.533,2390.724Zm-28.052-59.606a1.517,1.517,0,0,1-1.516-1.395,1.547,1.547,0,0,1,1.41-1.637,1.52,1.52,0,0,1,.228,3.032Z" transform="translate(-664.203 -2317.942)" fill="#06355c"/>
      </g>
      <g id="Grupo_895345" data-name="Grupo 895345" transform="translate(12.602 6.065)">
        <path id="Trazado_624198" data-name="Trazado 624198" d="M717.512,2380.006l3.771-50.268H676.737l3.771,50.268,18.5,6.938Z" transform="translate(-675.222 -2328.221)" fill="#b1ede3"/>
        <path id="Trazado_624199" data-name="Trazado 624199" d="M698.168,2387.616a1.532,1.532,0,0,1-.533-.1l-18.5-6.937a1.519,1.519,0,0,1-.979-1.306l-3.77-50.268a1.517,1.517,0,0,1,1.513-1.631h44.545a1.517,1.517,0,0,1,1.512,1.631l-3.772,50.268a1.516,1.516,0,0,1-.978,1.306l-18.5,6.938A1.532,1.532,0,0,1,698.168,2387.616Zm-17.063-9.533,17.063,6.4,17.063-6.4,3.575-47.672H677.53Zm35.565,1.08h0Z" transform="translate(-674.38 -2327.378)" fill="#06355c"/>
      </g>
      <g id="Grupo_895346" data-name="Grupo 895346" transform="translate(0 21.228)">
        <path id="Trazado_624200" data-name="Trazado 624200" d="M714.751,2377.587H669.263a12.131,12.131,0,0,1-12.131-12.13h0a12.13,12.13,0,0,1,12.131-12.13h45.489a12.13,12.13,0,0,1,12.13,12.13h0A12.131,12.131,0,0,1,714.751,2377.587Z" transform="translate(-655.616 -2351.81)" fill="#fff"/>
        <path id="Trazado_624201" data-name="Trazado 624201" d="M721.49,2378.261H660.839a6.064,6.064,0,0,1-6.065-6.065v-15.163a6.063,6.063,0,0,1,6.065-6.065h25.124a1.516,1.516,0,1,1,0,3.033H660.839a3.04,3.04,0,0,0-3.033,3.033V2372.2a3.042,3.042,0,0,0,3.033,3.033H721.49a3.042,3.042,0,0,0,3.032-3.033v-15.163A3.04,3.04,0,0,0,721.49,2354h-23.4a1.516,1.516,0,0,1,0-3.033h23.4a6.063,6.063,0,0,1,6.065,6.065V2372.2A6.064,6.064,0,0,1,721.49,2378.261ZM692.028,2354a1.516,1.516,0,1,1,1.516-1.516A1.521,1.521,0,0,1,692.028,2354Z" transform="translate(-654.774 -2350.967)" fill="#ef3c79"/>
      </g>
      <g id="Grupo_895347" data-name="Grupo 895347" transform="translate(25.776 15.164)">
        <path id="Trazado_624202" data-name="Trazado 624202" d="M713.07,2343.048a1.521,1.521,0,0,1,1.516-1.516h0a1.521,1.521,0,0,1,1.516,1.516h0a1.522,1.522,0,0,1-1.516,1.517h0A1.522,1.522,0,0,1,713.07,2343.048Zm-6.065,0a1.52,1.52,0,0,1,1.516-1.516h0a1.522,1.522,0,0,1,1.517,1.516h0a1.522,1.522,0,0,1-1.517,1.517h0A1.521,1.521,0,0,1,707,2343.048Zm-6.065,0a1.521,1.521,0,0,1,1.516-1.516h0a1.522,1.522,0,0,1,1.517,1.516h0a1.522,1.522,0,0,1-1.517,1.517h0A1.522,1.522,0,0,1,700.939,2343.048Zm-6.065,0a1.521,1.521,0,0,1,1.516-1.516h0a1.521,1.521,0,0,1,1.516,1.516h0a1.521,1.521,0,0,1-1.516,1.517h0A1.522,1.522,0,0,1,694.874,2343.048Z" transform="translate(-694.874 -2341.532)" fill="#06355c"/>
      </g>
      <g id="Grupo_895348" data-name="Grupo 895348" transform="translate(25.776 51.554)">
        <path id="Trazado_624203" data-name="Trazado 624203" d="M713.07,2399.662a1.522,1.522,0,0,1,1.516-1.517h0a1.522,1.522,0,0,1,1.516,1.517h0a1.521,1.521,0,0,1-1.516,1.516h0A1.521,1.521,0,0,1,713.07,2399.662Zm-6.065,0a1.521,1.521,0,0,1,1.516-1.517h0a1.522,1.522,0,0,1,1.517,1.517h0a1.521,1.521,0,0,1-1.517,1.516h0A1.52,1.52,0,0,1,707,2399.662Zm-6.065,0a1.511,1.511,0,0,1,1.516-1.517h0a1.522,1.522,0,0,1,1.517,1.517h0a1.521,1.521,0,0,1-1.517,1.516h0A1.51,1.51,0,0,1,700.939,2399.662Zm-6.065,0a1.522,1.522,0,0,1,1.516-1.517h0a1.521,1.521,0,0,1,1.516,1.517h0a1.52,1.52,0,0,1-1.516,1.516h0A1.521,1.521,0,0,1,694.874,2399.662Z" transform="translate(-694.874 -2398.145)" fill="#06355c"/>
      </g>
    </g>
    <text id="HTML" transform="translate(36.107 43.078)" fill="#06355c" font-size="21" font-family="Roboto-Bold, Roboto" font-weight="700"><tspan x="-28.649" y="0">HTML</tspan></text>
  </g>
</svg>
