<svg xmlns="http://www.w3.org/2000/svg" width="1240.873" height="745.953" viewBox="0 0 1240.873 745.953">
  <g id="Grupo_895640" data-name="Grupo 895640" transform="translate(-179.127 -388.321)">
    <path id="Trazado_624557" data-name="Trazado 624557" d="M1394.2,463v35.454H1264.286v46.382h27.173" transform="translate(-150.918 56.082)" fill="none" stroke="#12263f" stroke-miterlimit="10" stroke-width="2"/>
    <path id="Trazado_624558" data-name="Trazado 624558" d="M1264.286,555V808.515h27.173" transform="translate(-150.918 45.918)" fill="none" stroke="#12263f" stroke-miterlimit="10" stroke-width="2"/>
    <path id="Trazado_624575" data-name="Trazado 624575" d="M7.714,0H196.877a7.714,7.714,0,0,1,7.714,7.714v44.34a7.714,7.714,0,0,1-7.714,7.714H7.714A7.714,7.714,0,0,1,0,52.054V7.714A7.714,7.714,0,0,1,7.714,0Z" transform="translate(1215.409 742.713)" fill="#fde2eb"/>
    <path id="Trazado_624576" data-name="Trazado 624576" d="M-17.288-4.685h-2.1V0h-2.637V-12.8h4.755a5.375,5.375,0,0,1,3.5,1.011,3.488,3.488,0,0,1,1.23,2.856,3.937,3.937,0,0,1-.567,2.184,3.866,3.866,0,0,1-1.718,1.393l2.769,5.229V0h-2.83Zm-2.1-2.136h2.127a2.178,2.178,0,0,0,1.538-.505,1.806,1.806,0,0,0,.545-1.393,1.933,1.933,0,0,0-.514-1.424,2.137,2.137,0,0,0-1.578-.519h-2.118Zm13.061,7A4.668,4.668,0,0,1-9.734-1.107a4.561,4.561,0,0,1-1.314-3.419v-.246a5.745,5.745,0,0,1,.554-2.562,4.064,4.064,0,0,1,1.569-1.74,4.4,4.4,0,0,1,2.316-.611,3.947,3.947,0,0,1,3.072,1.23A5,5,0,0,1-2.417-4.966v1.037H-8.473A2.36,2.36,0,0,0-7.73-2.435a2.245,2.245,0,0,0,1.569.563A2.742,2.742,0,0,0-3.867-2.936l1.248,1.4A3.813,3.813,0,0,1-4.166-.277,5.075,5.075,0,0,1-6.328.176Zm-.29-7.813a1.587,1.587,0,0,0-1.226.512,2.651,2.651,0,0,0-.6,1.466h3.533v-.2A1.891,1.891,0,0,0-5.37-7.174,1.638,1.638,0,0,0-6.618-7.638ZM4.535,0A2.821,2.821,0,0,1,4.28-.853,3.073,3.073,0,0,1,1.881.176,3.376,3.376,0,0,1-.435-.633a2.6,2.6,0,0,1-.918-2.039A2.687,2.687,0,0,1-.233-4.992,5.529,5.529,0,0,1,3.006-5.81H4.175v-.545a1.567,1.567,0,0,0-.338-1.055,1.331,1.331,0,0,0-1.068-.4A1.513,1.513,0,0,0,1.762-7.5a1.045,1.045,0,0,0-.365.844h-2.54a2.551,2.551,0,0,1,.51-1.529,3.37,3.37,0,0,1,1.441-1.1,5.253,5.253,0,0,1,2.092-.4A4.15,4.15,0,0,1,5.691-8.8,3.09,3.09,0,0,1,6.724-6.319V-2.2A4.546,4.546,0,0,0,7.1-.149V0Zm-2.1-1.767a2.188,2.188,0,0,0,1.037-.25,1.645,1.645,0,0,0,.7-.672V-4.324H3.226q-1.907,0-2.03,1.318l-.009.149a1.017,1.017,0,0,0,.334.782A1.3,1.3,0,0,0,2.435-1.767Zm10.2-.105a1.666,1.666,0,0,0,1.143-.387,1.355,1.355,0,0,0,.457-1.028h2.382a3.258,3.258,0,0,1-.527,1.771A3.48,3.48,0,0,1,14.665-.268a4.442,4.442,0,0,1-1.991.444,4.129,4.129,0,0,1-3.217-1.3A5.13,5.13,0,0,1,8.279-4.7v-.167A5.071,5.071,0,0,1,9.448-8.376a4.08,4.08,0,0,1,3.208-1.31A4,4,0,0,1,15.517-8.67a3.594,3.594,0,0,1,1.094,2.7H14.229a1.745,1.745,0,0,0-.457-1.206,1.524,1.524,0,0,0-1.16-.464,1.53,1.53,0,0,0-1.34.647,3.749,3.749,0,0,0-.453,2.1v.264a3.8,3.8,0,0,0,.448,2.113A1.549,1.549,0,0,0,12.63-1.872ZM21.1-11.848V-9.51h1.626v1.863H21.1V-2.9a1.133,1.133,0,0,0,.2.756,1.015,1.015,0,0,0,.773.229,4.051,4.051,0,0,0,.747-.062V-.053a5.229,5.229,0,0,1-1.538.229,2.425,2.425,0,0,1-2.725-2.7V-7.646H17.174V-9.51h1.389v-2.338Z" transform="translate(1316.947 775.413)" fill="#12263f"/>
    <path id="Trazado_624578" data-name="Trazado 624578" d="M7.714,0H196.877a7.714,7.714,0,0,1,7.714,7.714v44.34a7.714,7.714,0,0,1-7.714,7.714H7.714A7.714,7.714,0,0,1,0,52.054V7.714A7.714,7.714,0,0,1,7.714,0Z" transform="translate(1215.409 660.698)" fill="#fde2eb"/>
    <path id="Trazado_624580" data-name="Trazado 624580" d="M-23.186-2.637h-4.623L-28.687,0h-2.8l4.764-12.8h2.443L-19.494,0h-2.8ZM-27.1-4.772h3.2l-1.608-4.79ZM-16.55-9.51l.079,1.1a3.32,3.32,0,0,1,2.733-1.274,2.759,2.759,0,0,1,2.25.888,4.142,4.142,0,0,1,.756,2.654V0h-2.54V-6.082a1.648,1.648,0,0,0-.352-1.173,1.574,1.574,0,0,0-1.169-.365,1.747,1.747,0,0,0-1.608.914V0h-2.54V-9.51Zm7.374,4.685A5.573,5.573,0,0,1-8.134-8.35,3.375,3.375,0,0,1-5.326-9.686,2.96,2.96,0,0,1-2.892-8.613l.105-.9h2.3V-.316A4.064,4.064,0,0,1-1.05,1.854a3.641,3.641,0,0,1-1.6,1.406,5.608,5.608,0,0,1-2.408.483,5.215,5.215,0,0,1-2.039-.417A3.619,3.619,0,0,1-8.6,2.25L-7.471.7a2.975,2.975,0,0,0,2.3,1.063,2.178,2.178,0,0,0,1.573-.541A2.027,2.027,0,0,0-3.032-.308v-.51A2.938,2.938,0,0,1-5.344.176a3.366,3.366,0,0,1-2.773-1.34A5.572,5.572,0,0,1-9.176-4.72Zm2.54.189a3.47,3.47,0,0,0,.519,2.029,1.65,1.65,0,0,0,1.424.735,1.764,1.764,0,0,0,1.661-.871V-6.749A1.76,1.76,0,0,0-4.676-7.62a1.66,1.66,0,0,0-1.437.748A3.911,3.911,0,0,0-6.636-4.636ZM7.163-.967A3.185,3.185,0,0,1,4.562.176,3,3,0,0,1,2.228-.7a3.752,3.752,0,0,1-.822-2.575V-9.51h2.54v6.151q0,1.487,1.354,1.487a1.834,1.834,0,0,0,1.775-.9V-9.51H9.624V0H7.233ZM14.221,0H11.672V-13.5h2.549Zm7.6,0a2.821,2.821,0,0,1-.255-.853,3.073,3.073,0,0,1-2.4,1.028,3.376,3.376,0,0,1-2.316-.809,2.6,2.6,0,0,1-.918-2.039,2.687,2.687,0,0,1,1.121-2.32,5.529,5.529,0,0,1,3.239-.817h1.169v-.545a1.567,1.567,0,0,0-.338-1.055,1.331,1.331,0,0,0-1.068-.4A1.513,1.513,0,0,0,19.05-7.5a1.045,1.045,0,0,0-.365.844h-2.54a2.551,2.551,0,0,1,.51-1.529,3.37,3.37,0,0,1,1.441-1.1,5.253,5.253,0,0,1,2.092-.4,4.15,4.15,0,0,1,2.791.883,3.09,3.09,0,0,1,1.033,2.483V-2.2A4.546,4.546,0,0,0,24.39-.149V0Zm-2.1-1.767a2.188,2.188,0,0,0,1.037-.25,1.645,1.645,0,0,0,.7-.672V-4.324h-.949q-1.907,0-2.03,1.318l-.009.149a1.017,1.017,0,0,0,.334.782A1.3,1.3,0,0,0,19.723-1.767ZM31.307-7.128a6.9,6.9,0,0,0-.914-.07,1.86,1.86,0,0,0-1.89.976V0h-2.54V-9.51h2.4l.07,1.134a2.354,2.354,0,0,1,2.118-1.31,2.662,2.662,0,0,1,.791.114Z" transform="translate(1315.831 692.865)" fill="#12263f"/>
    <path id="Trazado_624583" data-name="Trazado 624583" d="M7.714,0H196.877a7.714,7.714,0,0,1,7.714,7.714v44.34a7.714,7.714,0,0,1-7.714,7.714H7.714A7.714,7.714,0,0,1,0,52.054V7.714A7.714,7.714,0,0,1,7.714,0Z" transform="translate(1140.985 574.592)" fill="#fabbd0"/>
    <path id="Trazado_624587" data-name="Trazado 624587" d="M-41.027-5.229H-46.09V0h-2.637V-12.8h8.332v2.136h-5.7v3.3h5.063Zm7.11-1.9a6.9,6.9,0,0,0-.914-.07,1.86,1.86,0,0,0-1.89.976V0h-2.54V-9.51h2.4l.07,1.134a2.354,2.354,0,0,1,2.118-1.31,2.662,2.662,0,0,1,.791.114ZM-27.448,0A2.821,2.821,0,0,1-27.7-.853,3.073,3.073,0,0,1-30.1.176a3.376,3.376,0,0,1-2.316-.809,2.6,2.6,0,0,1-.918-2.039,2.687,2.687,0,0,1,1.121-2.32,5.529,5.529,0,0,1,3.239-.817h1.169v-.545a1.567,1.567,0,0,0-.338-1.055,1.331,1.331,0,0,0-1.068-.4,1.513,1.513,0,0,0-1.006.308,1.045,1.045,0,0,0-.365.844h-2.54a2.551,2.551,0,0,1,.51-1.529,3.37,3.37,0,0,1,1.441-1.1,5.253,5.253,0,0,1,2.092-.4,4.15,4.15,0,0,1,2.791.883A3.09,3.09,0,0,1-25.26-6.319V-2.2a4.546,4.546,0,0,0,.378,2.048V0Zm-2.1-1.767a2.188,2.188,0,0,0,1.037-.25,1.645,1.645,0,0,0,.7-.672V-4.324h-.949q-1.907,0-2.03,1.318l-.009.149a1.017,1.017,0,0,0,.334.782A1.3,1.3,0,0,0-29.549-1.767Zm8.622-7.743.079,1.063a3.342,3.342,0,0,1,2.733-1.239,2.536,2.536,0,0,1,2.522,1.45,3.265,3.265,0,0,1,2.856-1.45,2.836,2.836,0,0,1,2.3.9,4.141,4.141,0,0,1,.756,2.711V0h-2.549V-6.064a1.811,1.811,0,0,0-.316-1.182,1.4,1.4,0,0,0-1.116-.374A1.585,1.585,0,0,0-15.24-6.53L-15.231,0h-2.54V-6.056a1.789,1.789,0,0,0-.325-1.2A1.416,1.416,0,0,0-19.2-7.62a1.646,1.646,0,0,0-1.564.9V0h-2.54V-9.51ZM-3.349.176A4.668,4.668,0,0,1-6.754-1.107,4.561,4.561,0,0,1-8.068-4.526v-.246a5.745,5.745,0,0,1,.554-2.562,4.064,4.064,0,0,1,1.569-1.74A4.4,4.4,0,0,1-3.63-9.686,3.947,3.947,0,0,1-.558-8.455,5,5,0,0,1,.563-4.966v1.037H-5.493A2.36,2.36,0,0,0-4.75-2.435a2.245,2.245,0,0,0,1.569.563A2.742,2.742,0,0,0-.888-2.936L.36-1.538A3.813,3.813,0,0,1-1.187-.277,5.075,5.075,0,0,1-3.349.176Zm-.29-7.813a1.587,1.587,0,0,0-1.226.512,2.651,2.651,0,0,0-.6,1.466h3.533v-.2a1.891,1.891,0,0,0-.457-1.311A1.638,1.638,0,0,0-3.639-7.638ZM10.274-3.454,11.522-9.51h2.452L11.549,0H9.422L7.62-5.985,5.818,0H3.7L1.274-9.51H3.727L4.966-3.463,6.706-9.51H8.543Zm4.562-1.389a5.64,5.64,0,0,1,.545-2.522A3.989,3.989,0,0,1,16.95-9.079a4.577,4.577,0,0,1,2.377-.606,4.33,4.33,0,0,1,3.142,1.178,4.727,4.727,0,0,1,1.358,3.2l.018.65a4.97,4.97,0,0,1-1.222,3.511A4.247,4.247,0,0,1,19.345.176a4.268,4.268,0,0,1-3.283-1.318,5.058,5.058,0,0,1-1.226-3.586Zm2.54.18a3.555,3.555,0,0,0,.51,2.073,1.682,1.682,0,0,0,1.459.717,1.686,1.686,0,0,0,1.441-.709A3.89,3.89,0,0,0,21.3-4.847a3.519,3.519,0,0,0-.519-2.06,1.686,1.686,0,0,0-1.459-.731,1.658,1.658,0,0,0-1.441.726A3.955,3.955,0,0,0,17.376-4.662ZM30.753-7.128a6.9,6.9,0,0,0-.914-.07,1.86,1.86,0,0,0-1.89.976V0h-2.54V-9.51h2.4l.07,1.134A2.354,2.354,0,0,1,30-9.686a2.662,2.662,0,0,1,.791.114Zm4.676,3.313-.914.914V0h-2.54V-13.5h2.54v7.479l.492-.633L37.441-9.51h3.05L37.055-5.546,40.79,0H37.872ZM46.74-2.628a.818.818,0,0,0-.461-.734A5.241,5.241,0,0,0,44.8-3.841q-3.393-.712-3.393-2.883a2.613,2.613,0,0,1,1.05-2.114A4.237,4.237,0,0,1,45.2-9.686a4.56,4.56,0,0,1,2.9.853,2.687,2.687,0,0,1,1.085,2.215h-2.54a1.229,1.229,0,0,0-.352-.9,1.488,1.488,0,0,0-1.1-.356,1.52,1.52,0,0,0-.993.29.916.916,0,0,0-.352.738.783.783,0,0,0,.4.681,4.114,4.114,0,0,0,1.349.448,11.019,11.019,0,0,1,1.6.426A2.628,2.628,0,0,1,49.21-2.733a2.481,2.481,0,0,1-1.116,2.1,4.815,4.815,0,0,1-2.883.8A5.029,5.029,0,0,1,43.088-.25a3.561,3.561,0,0,1-1.455-1.169,2.716,2.716,0,0,1-.527-1.6h2.408a1.326,1.326,0,0,0,.5,1.037,1.987,1.987,0,0,0,1.248.36,1.839,1.839,0,0,0,1.1-.277A.861.861,0,0,0,46.74-2.628Z" transform="translate(1240.142 606.954)" fill="#12263f"/>
    <path id="Trazado_624559" data-name="Trazado 624559" d="M1343.143,591.6V730.721h31.9" transform="translate(-159.63 41.875)" fill="none" stroke="#12263f" stroke-miterlimit="10" stroke-width="2"/>
    <path id="Trazado_624581" data-name="Trazado 624581" d="M0,0H31.9" transform="translate(1183.513 689.871)" fill="none" stroke="#12263f" stroke-width="2"/>
    <path id="Trazado_624567" data-name="Trazado 624567" d="M7.714,0H196.877a7.714,7.714,0,0,1,7.714,7.714v44.34a7.714,7.714,0,0,1-7.714,7.714H7.714A7.714,7.714,0,0,1,0,52.054V7.714A7.714,7.714,0,0,1,7.714,0Z" transform="translate(1215.409 992.67)" fill="#fde2eb"/>
    <path id="Trazado_624568" data-name="Trazado 624568" d="M-5.766-4.263A4.528,4.528,0,0,1-7.291-1.011,5.355,5.355,0,0,1-10.916.176a4.816,4.816,0,0,1-3.872-1.657A6.793,6.793,0,0,1-16.2-6.029v-.782a7.671,7.671,0,0,1,.65-3.252,4.874,4.874,0,0,1,1.859-2.158,5.207,5.207,0,0,1,2.808-.751,5.217,5.217,0,0,1,3.568,1.187A4.866,4.866,0,0,1-5.748-8.455H-8.385a2.673,2.673,0,0,0-.69-1.8,2.555,2.555,0,0,0-1.806-.558,2.24,2.24,0,0,0-1.973.945,5.3,5.3,0,0,0-.672,2.931v.967A5.667,5.667,0,0,0-12.9-2.936a2.2,2.2,0,0,0,1.982.958,2.6,2.6,0,0,0,1.824-.558A2.521,2.521,0,0,0-8.4-4.263ZM2.6-3.357A1.353,1.353,0,0,0,2.074-4.5a6.917,6.917,0,0,0-1.9-.844A13.458,13.458,0,0,1-2-6.223,3.547,3.547,0,0,1-4.175-9.4a3.09,3.09,0,0,1,.584-1.85,3.812,3.812,0,0,1,1.679-1.27,6.318,6.318,0,0,1,2.457-.457,5.751,5.751,0,0,1,2.443.5,3.891,3.891,0,0,1,1.666,1.4,3.668,3.668,0,0,1,.593,2.057H2.61a1.726,1.726,0,0,0-.554-1.367A2.276,2.276,0,0,0,.5-10.872a2.432,2.432,0,0,0-1.5.409,1.289,1.289,0,0,0-.536,1.077A1.235,1.235,0,0,0-.91-8.341,7.1,7.1,0,0,0,.94-7.55,7.994,7.994,0,0,1,4.219-5.871a3.343,3.343,0,0,1,1.028,2.5A3.08,3.08,0,0,1,3.99-.769,5.5,5.5,0,0,1,.606.176,6.534,6.534,0,0,1-2.083-.365a4.256,4.256,0,0,1-1.85-1.481,3.793,3.793,0,0,1-.637-2.18h2.646q0,2.118,2.531,2.118A2.462,2.462,0,0,0,2.074-2.29,1.244,1.244,0,0,0,2.6-3.357Zm11.065,0A1.353,1.353,0,0,0,13.14-4.5a6.917,6.917,0,0,0-1.9-.844A13.458,13.458,0,0,1,9.07-6.223,3.547,3.547,0,0,1,6.891-9.4a3.09,3.09,0,0,1,.584-1.85,3.812,3.812,0,0,1,1.679-1.27,6.318,6.318,0,0,1,2.457-.457,5.751,5.751,0,0,1,2.443.5,3.891,3.891,0,0,1,1.666,1.4,3.668,3.668,0,0,1,.593,2.057H13.676a1.726,1.726,0,0,0-.554-1.367,2.276,2.276,0,0,0-1.556-.488,2.432,2.432,0,0,0-1.5.409,1.289,1.289,0,0,0-.536,1.077,1.235,1.235,0,0,0,.628,1.046,7.1,7.1,0,0,0,1.85.791,7.994,7.994,0,0,1,3.278,1.679,3.343,3.343,0,0,1,1.028,2.5A3.08,3.08,0,0,1,15.056-.769a5.5,5.5,0,0,1-3.384.945A6.534,6.534,0,0,1,8.982-.365a4.256,4.256,0,0,1-1.85-1.481A3.793,3.793,0,0,1,6.5-4.025H9.141q0,2.118,2.531,2.118A2.462,2.462,0,0,0,13.14-2.29,1.244,1.244,0,0,0,13.667-3.357Z" transform="translate(1316.395 1025.37)" fill="#12263f"/>
    <path id="Trazado_624565" data-name="Trazado 624565" d="M7.714,0H196.877a7.714,7.714,0,0,1,7.714,7.714v44.34a7.714,7.714,0,0,1-7.714,7.714H7.714A7.714,7.714,0,0,1,0,52.054V7.714A7.714,7.714,0,0,1,7.714,0Z" transform="translate(1215.409 1074.506)" fill="#fde2eb"/>
    <path id="Trazado_624566" data-name="Trazado 624566" d="M-4.258-12.8h2.637v8.859A4.237,4.237,0,0,1-2.162-1.78,3.668,3.668,0,0,1-3.687-.334a4.764,4.764,0,0,1-2.224.51A4.528,4.528,0,0,1-9.075-.857a3.752,3.752,0,0,1-1.134-2.922h2.654a2.057,2.057,0,0,0,.4,1.389,1.582,1.582,0,0,0,1.248.448,1.511,1.511,0,0,0,1.2-.519,2.191,2.191,0,0,0,.448-1.477ZM7.273-3.357A1.353,1.353,0,0,0,6.746-4.5a6.917,6.917,0,0,0-1.9-.844,13.458,13.458,0,0,1-2.171-.875A3.547,3.547,0,0,1,.5-9.4a3.09,3.09,0,0,1,.584-1.85,3.812,3.812,0,0,1,1.679-1.27,6.318,6.318,0,0,1,2.457-.457,5.751,5.751,0,0,1,2.443.5,3.891,3.891,0,0,1,1.666,1.4,3.668,3.668,0,0,1,.593,2.057H7.282a1.726,1.726,0,0,0-.554-1.367,2.276,2.276,0,0,0-1.556-.488,2.432,2.432,0,0,0-1.5.409,1.289,1.289,0,0,0-.536,1.077,1.235,1.235,0,0,0,.628,1.046,7.1,7.1,0,0,0,1.85.791A7.994,7.994,0,0,1,8.89-5.871a3.343,3.343,0,0,1,1.028,2.5A3.08,3.08,0,0,1,8.662-.769,5.5,5.5,0,0,1,5.278.176,6.534,6.534,0,0,1,2.588-.365,4.256,4.256,0,0,1,.738-1.846,3.793,3.793,0,0,1,.1-4.025H2.747q0,2.118,2.531,2.118A2.462,2.462,0,0,0,6.746-2.29,1.244,1.244,0,0,0,7.273-3.357Z" transform="translate(1317.731 1107.206)" fill="#12263f"/>
    <path id="Trazado_624570" data-name="Trazado 624570" d="M7.714,0H196.877a7.714,7.714,0,0,1,7.714,7.714v44.34a7.714,7.714,0,0,1-7.714,7.714H7.714A7.714,7.714,0,0,1,0,52.054V7.714A7.714,7.714,0,0,1,7.714,0Z" transform="translate(1215.409 910.655)" fill="#fde2eb"/>
    <path id="Trazado_624571" data-name="Trazado 624571" d="M-13,0h-2.637V-5.484h-5.142V0h-2.637V-12.8h2.637v5.186h5.142V-12.8H-13ZM-1.318-10.661h-3.92V0H-7.875V-10.661h-3.867V-12.8H-1.318ZM3.63-12.8,6.917-3.516l3.27-9.281h3.463V0H11V-3.5l.264-6.038L7.813,0H6L2.558-9.527,2.821-3.5V0H.185V-12.8ZM18.589-2.118h5.6V0H15.952V-12.8h2.637Z" transform="translate(1315.168 942.822)" fill="#12263f"/>
    <path id="Trazado_624573" data-name="Trazado 624573" d="M7.714,0H196.877a7.714,7.714,0,0,1,7.714,7.714v44.34a7.714,7.714,0,0,1-7.714,7.714H7.714A7.714,7.714,0,0,1,0,52.054V7.714A7.714,7.714,0,0,1,7.714,0Z" transform="translate(1140.985 824.549)" fill="#fabbd0"/>
    <path id="Trazado_624574" data-name="Trazado 624574" d="M-37.828-2.118h5.6V0h-8.235V-12.8h2.637ZM-26.508.176a4.668,4.668,0,0,1-3.406-1.283,4.561,4.561,0,0,1-1.314-3.419v-.246a5.745,5.745,0,0,1,.554-2.562A4.064,4.064,0,0,1-29.1-9.075a4.4,4.4,0,0,1,2.316-.611,3.947,3.947,0,0,1,3.072,1.23A5,5,0,0,1-22.6-4.966v1.037h-6.056a2.36,2.36,0,0,0,.743,1.494,2.245,2.245,0,0,0,1.569.563,2.742,2.742,0,0,0,2.294-1.063l1.248,1.4A3.813,3.813,0,0,1-24.346-.277,5.075,5.075,0,0,1-26.508.176Zm-.29-7.813a1.587,1.587,0,0,0-1.226.512,2.651,2.651,0,0,0-.6,1.466h3.533v-.2a1.891,1.891,0,0,0-.457-1.311A1.638,1.638,0,0,0-26.8-7.638Zm7.98-1.872.079,1.1A3.32,3.32,0,0,1-16-9.686a2.759,2.759,0,0,1,2.25.888A4.142,4.142,0,0,1-13-6.144V0h-2.54V-6.082a1.648,1.648,0,0,0-.352-1.173A1.574,1.574,0,0,0-17.06-7.62a1.747,1.747,0,0,0-1.608.914V0h-2.54V-9.51Zm7.374,4.685A5.573,5.573,0,0,1-10.4-8.35,3.375,3.375,0,0,1-7.594-9.686,2.96,2.96,0,0,1-5.159-8.613l.105-.9h2.3V-.316a4.064,4.064,0,0,1-.567,2.171,3.641,3.641,0,0,1-1.6,1.406,5.608,5.608,0,0,1-2.408.483A5.215,5.215,0,0,1-9.36,3.327a3.619,3.619,0,0,1-1.5-1.077L-9.738.7a2.975,2.975,0,0,0,2.3,1.063,2.178,2.178,0,0,0,1.573-.541A2.027,2.027,0,0,0-5.3-.308v-.51A2.938,2.938,0,0,1-7.611.176a3.366,3.366,0,0,1-2.773-1.34A5.572,5.572,0,0,1-11.443-4.72Zm2.54.189a3.47,3.47,0,0,0,.519,2.029,1.65,1.65,0,0,0,1.424.735A1.764,1.764,0,0,0-5.3-2.744V-6.749A1.76,1.76,0,0,0-6.943-7.62a1.66,1.66,0,0,0-1.437.748A3.911,3.911,0,0,0-8.9-4.636ZM4.9-.967A3.185,3.185,0,0,1,2.294.176,3,3,0,0,1-.04-.7,3.752,3.752,0,0,1-.861-3.278V-9.51h2.54v6.151q0,1.487,1.354,1.487a1.834,1.834,0,0,0,1.775-.9V-9.51H7.356V0H4.966ZM14.783,0a2.821,2.821,0,0,1-.255-.853,3.073,3.073,0,0,1-2.4,1.028A3.376,3.376,0,0,1,9.813-.633a2.6,2.6,0,0,1-.918-2.039,2.687,2.687,0,0,1,1.121-2.32,5.529,5.529,0,0,1,3.239-.817h1.169v-.545a1.567,1.567,0,0,0-.338-1.055,1.331,1.331,0,0,0-1.068-.4A1.513,1.513,0,0,0,12.01-7.5a1.045,1.045,0,0,0-.365.844H9.105a2.551,2.551,0,0,1,.51-1.529,3.37,3.37,0,0,1,1.441-1.1,5.253,5.253,0,0,1,2.092-.4,4.15,4.15,0,0,1,2.791.883,3.09,3.09,0,0,1,1.033,2.483V-2.2A4.546,4.546,0,0,0,17.35-.149V0Zm-2.1-1.767a2.188,2.188,0,0,0,1.037-.25,1.645,1.645,0,0,0,.7-.672V-4.324h-.949q-1.907,0-2.03,1.318l-.009.149a1.017,1.017,0,0,0,.334.782A1.3,1.3,0,0,0,12.683-1.767Zm8.93-7.743V.519a3.4,3.4,0,0,1-.835,2.448,3.174,3.174,0,0,1-2.408.875,5.165,5.165,0,0,1-1.257-.149V1.679a4.768,4.768,0,0,0,.8.079q1.151,0,1.151-1.222V-9.51Zm-2.751-2.461a1.251,1.251,0,0,1,.382-.94,1.436,1.436,0,0,1,1.042-.369,1.436,1.436,0,0,1,1.042.369,1.251,1.251,0,0,1,.382.94,1.247,1.247,0,0,1-.391.949,1.443,1.443,0,0,1-1.033.369,1.443,1.443,0,0,1-1.033-.369A1.247,1.247,0,0,1,18.861-11.971ZM27.976.176A4.668,4.668,0,0,1,24.57-1.107a4.561,4.561,0,0,1-1.314-3.419v-.246a5.745,5.745,0,0,1,.554-2.562,4.064,4.064,0,0,1,1.569-1.74,4.4,4.4,0,0,1,2.316-.611,3.947,3.947,0,0,1,3.072,1.23,5,5,0,0,1,1.121,3.489v1.037H25.831a2.36,2.36,0,0,0,.743,1.494,2.245,2.245,0,0,0,1.569.563,2.742,2.742,0,0,0,2.294-1.063l1.248,1.4A3.813,3.813,0,0,1,30.138-.277,5.075,5.075,0,0,1,27.976.176Zm-.29-7.813a1.587,1.587,0,0,0-1.226.512,2.651,2.651,0,0,0-.6,1.466h3.533v-.2a1.891,1.891,0,0,0-.457-1.311A1.638,1.638,0,0,0,27.686-7.638Zm10.793,5.01a.818.818,0,0,0-.461-.734,5.241,5.241,0,0,0-1.481-.479q-3.393-.712-3.393-2.883a2.613,2.613,0,0,1,1.05-2.114,4.237,4.237,0,0,1,2.747-.848,4.56,4.56,0,0,1,2.9.853,2.687,2.687,0,0,1,1.085,2.215h-2.54a1.229,1.229,0,0,0-.352-.9,1.488,1.488,0,0,0-1.1-.356,1.52,1.52,0,0,0-.993.29.916.916,0,0,0-.352.738.783.783,0,0,0,.4.681,4.114,4.114,0,0,0,1.349.448,11.019,11.019,0,0,1,1.6.426,2.628,2.628,0,0,1,2.013,2.558,2.481,2.481,0,0,1-1.116,2.1,4.815,4.815,0,0,1-2.883.8A5.029,5.029,0,0,1,34.827-.25a3.561,3.561,0,0,1-1.455-1.169,2.716,2.716,0,0,1-.527-1.6h2.408a1.326,1.326,0,0,0,.5,1.037A1.987,1.987,0,0,0,37-1.626,1.839,1.839,0,0,0,38.1-1.9.861.861,0,0,0,38.479-2.628Z" transform="translate(1240.369 856.911)" fill="#12263f"/>
    <path id="Trazado_624560" data-name="Trazado 624560" d="M1343.143,872.6v220.962h31.9" transform="translate(-159.63 10.832)" fill="none" stroke="#12263f" stroke-miterlimit="10" stroke-width="2"/>
    <path id="Trazado_624572" data-name="Trazado 624572" d="M0,0H31.9" transform="translate(1183.513 939.828)" fill="none" stroke="#12263f" stroke-width="2"/>
    <path id="Trazado_624569" data-name="Trazado 624569" d="M0,0H31.9" transform="translate(1183.513 1022.554)" fill="none" stroke="#12263f" stroke-width="2"/>
    <path id="Trazado_624577" data-name="Trazado 624577" d="M7.714,0H196.877a7.714,7.714,0,0,1,7.714,7.714v44.34a7.714,7.714,0,0,1-7.714,7.714H7.714A7.714,7.714,0,0,1,0,52.054V7.714A7.714,7.714,0,0,1,7.714,0Z" transform="translate(820.459 670.661)" fill="#fabbd0"/>
    <path id="Trazado_624582" data-name="Trazado 624582" d="M7.714,0H196.877a7.714,7.714,0,0,1,7.714,7.714v44.34a7.714,7.714,0,0,1-7.714,7.714H7.714A7.714,7.714,0,0,1,0,52.054V7.714A7.714,7.714,0,0,1,7.714,0Z" transform="translate(820.459 588.646)" fill="#fabbd0"/>
    <path id="Trazado_624561" data-name="Trazado 624561" d="M1069.131,461.684H909.143V644.318h23" transform="translate(-111.685 56.228)" fill="none" stroke="#12263f" stroke-miterlimit="10" stroke-width="2"/>
    <path id="Trazado_624588" data-name="Trazado 624588" d="M0,0H23.128" transform="translate(797.331 620.487)" fill="none" stroke="#12263f" stroke-width="2"/>
    <path id="Trazado_624596" data-name="Trazado 624596" d="M0,0V57" transform="translate(956.333 467)" fill="none" stroke="#12263f" stroke-width="2"/>
    <path id="Trazado_624562" data-name="Trazado 624562" d="M878.5,405h473.442v51.593" transform="translate(-108.299 62.489)" fill="none" stroke="#12263f" stroke-miterlimit="10" stroke-width="2"/>
    <path id="Trazado_624563" data-name="Trazado 624563" d="M805.217,387v16.011H375.131v50.422H215.143V636.067h23" transform="translate(-35.016 64.478)" fill="none" stroke="#12263f" stroke-miterlimit="10" stroke-width="2"/>
    <path id="Trazado_624603" data-name="Trazado 624603" d="M20.5,0H598.341a20.5,20.5,0,0,1,20.5,20.5V42.656a20.5,20.5,0,0,1-20.5,20.5H20.5A20.5,20.5,0,0,1,0,42.656V20.5A20.5,20.5,0,0,1,20.5,0Z" transform="translate(460.78 388.321)" fill="#06355c"/>
    <path id="Trazado_624604" data-name="Trazado 624604" d="M-274.585-4.736a5.031,5.031,0,0,1-1.694,3.613A5.951,5.951,0,0,1-280.308.2a5.351,5.351,0,0,1-4.3-1.841A7.548,7.548,0,0,1-286.177-6.7v-.869a8.523,8.523,0,0,1,.723-3.613,5.416,5.416,0,0,1,2.065-2.4,5.786,5.786,0,0,1,3.12-.835A5.8,5.8,0,0,1-276.3-13.1a5.407,5.407,0,0,1,1.738,3.7h-2.93a2.97,2.97,0,0,0-.767-2,2.839,2.839,0,0,0-2.007-.62,2.489,2.489,0,0,0-2.192,1.05,5.884,5.884,0,0,0-.747,3.257v1.074a6.3,6.3,0,0,0,.7,3.369,2.443,2.443,0,0,0,2.2,1.064,2.892,2.892,0,0,0,2.026-.62,2.8,2.8,0,0,0,.767-1.919Zm13.6-2.051a8.584,8.584,0,0,1-.742,3.682,5.589,5.589,0,0,1-2.124,2.441A5.875,5.875,0,0,1-267.017.2a5.915,5.915,0,0,1-3.154-.85,5.644,5.644,0,0,1-2.148-2.427,8.338,8.338,0,0,1-.771-3.628v-.7a8.539,8.539,0,0,1,.757-3.7A5.635,5.635,0,0,1-270.2-13.56a5.883,5.883,0,0,1,3.159-.854,5.883,5.883,0,0,1,3.159.854,5.635,5.635,0,0,1,2.139,2.451,8.514,8.514,0,0,1,.757,3.687Zm-2.969-.645a5.984,5.984,0,0,0-.8-3.4,2.61,2.61,0,0,0-2.285-1.162,2.611,2.611,0,0,0-2.275,1.147,5.915,5.915,0,0,0-.811,3.364v.693a6.058,6.058,0,0,0,.8,3.379,2.6,2.6,0,0,0,2.3,1.2,2.579,2.579,0,0,0,2.266-1.157,6.023,6.023,0,0,0,.8-3.374ZM-247.29,0h-2.93l-5.7-9.355V0h-2.93V-14.219h2.93l5.713,9.375v-9.375h2.92Zm9.932-3.73A1.5,1.5,0,0,0-237.944-5a7.685,7.685,0,0,0-2.109-.937,14.953,14.953,0,0,1-2.412-.972,3.941,3.941,0,0,1-2.422-3.525,3.434,3.434,0,0,1,.649-2.056,4.236,4.236,0,0,1,1.865-1.411,7.021,7.021,0,0,1,2.729-.508,6.39,6.39,0,0,1,2.715.552,4.323,4.323,0,0,1,1.851,1.558,4.076,4.076,0,0,1,.659,2.285h-2.93a1.917,1.917,0,0,0-.615-1.519,2.529,2.529,0,0,0-1.729-.542,2.7,2.7,0,0,0-1.67.454,1.432,1.432,0,0,0-.6,1.2,1.372,1.372,0,0,0,.7,1.162,7.889,7.889,0,0,0,2.056.879,8.882,8.882,0,0,1,3.643,1.865,3.715,3.715,0,0,1,1.143,2.773,3.422,3.422,0,0,1-1.4,2.9A6.113,6.113,0,0,1-239.575.2a7.26,7.26,0,0,1-2.988-.6,4.729,4.729,0,0,1-2.056-1.646,4.214,4.214,0,0,1-.708-2.422h2.939q0,2.354,2.813,2.354a2.736,2.736,0,0,0,1.631-.425A1.382,1.382,0,0,0-237.358-3.73Zm15.625-8.115h-4.355V0h-2.93V-11.846h-4.3v-2.373h11.582Zm6.934,6.641h-2.334V0h-2.93V-14.219h5.283a5.972,5.972,0,0,1,3.887,1.123,3.876,3.876,0,0,1,1.367,3.174,4.374,4.374,0,0,1-.63,2.427,4.3,4.3,0,0,1-1.909,1.548l3.076,5.811V0h-3.145Zm-2.334-2.373h2.363a2.42,2.42,0,0,0,1.709-.562,2.007,2.007,0,0,0,.605-1.548,2.148,2.148,0,0,0-.571-1.582,2.374,2.374,0,0,0-1.753-.576h-2.354Zm20.6-6.641v9.365A4.8,4.8,0,0,1-198-1.162,5.629,5.629,0,0,1-201.987.2a5.692,5.692,0,0,1-3.955-1.318,4.713,4.713,0,0,1-1.494-3.623v-9.473h2.93v9.385a2.709,2.709,0,0,0,.669,2.036,2.568,2.568,0,0,0,1.851.64q2.471,0,2.51-2.6v-9.463Zm13.564,9.482a5.031,5.031,0,0,1-1.694,3.613A5.951,5.951,0,0,1-188.7.2,5.351,5.351,0,0,1-193-1.646,7.548,7.548,0,0,1-194.565-6.7v-.869a8.523,8.523,0,0,1,.723-3.613,5.415,5.415,0,0,1,2.065-2.4,5.786,5.786,0,0,1,3.12-.835,5.8,5.8,0,0,1,3.965,1.318,5.407,5.407,0,0,1,1.738,3.7h-2.93a2.97,2.97,0,0,0-.767-2,2.839,2.839,0,0,0-2.007-.62,2.489,2.489,0,0,0-2.192,1.05,5.883,5.883,0,0,0-.747,3.257v1.074a6.3,6.3,0,0,0,.7,3.369A2.443,2.443,0,0,0-188.7-2.2a2.892,2.892,0,0,0,2.026-.62,2.8,2.8,0,0,0,.767-1.919Zm13.086,0a5.031,5.031,0,0,1-1.694,3.613A5.951,5.951,0,0,1-175.61.2a5.351,5.351,0,0,1-4.3-1.841A7.548,7.548,0,0,1-181.479-6.7v-.869a8.523,8.523,0,0,1,.723-3.613,5.415,5.415,0,0,1,2.065-2.4,5.786,5.786,0,0,1,3.12-.835,5.8,5.8,0,0,1,3.965,1.318,5.407,5.407,0,0,1,1.738,3.7h-2.93a2.97,2.97,0,0,0-.767-2,2.839,2.839,0,0,0-2.007-.62,2.489,2.489,0,0,0-2.192,1.05,5.883,5.883,0,0,0-.747,3.257v1.074a6.3,6.3,0,0,0,.7,3.369,2.443,2.443,0,0,0,2.2,1.064,2.892,2.892,0,0,0,2.026-.62,2.8,2.8,0,0,0,.767-1.919ZM-164.849,0h-2.93V-14.219h2.93Zm14.395-6.787a8.583,8.583,0,0,1-.742,3.682A5.589,5.589,0,0,1-153.32-.664,5.875,5.875,0,0,1-156.489.2a5.915,5.915,0,0,1-3.154-.85,5.644,5.644,0,0,1-2.148-2.427,8.338,8.338,0,0,1-.771-3.628v-.7a8.538,8.538,0,0,1,.757-3.7,5.635,5.635,0,0,1,2.139-2.451,5.883,5.883,0,0,1,3.159-.854,5.883,5.883,0,0,1,3.159.854,5.635,5.635,0,0,1,2.139,2.451,8.514,8.514,0,0,1,.757,3.687Zm-2.969-.645a5.984,5.984,0,0,0-.8-3.4,2.61,2.61,0,0,0-2.285-1.162,2.611,2.611,0,0,0-2.275,1.147,5.915,5.915,0,0,0-.811,3.364v.693a6.058,6.058,0,0,0,.8,3.379,2.6,2.6,0,0,0,2.3,1.2,2.579,2.579,0,0,0,2.266-1.157,6.023,6.023,0,0,0,.8-3.374Zm-2.52-10.6h3.076L-155.571-15h-2.295ZM-136.763,0h-2.93l-5.7-9.355V0h-2.93V-14.219h2.93l5.713,9.375v-9.375h2.92Zm7.539,0V-14.219h4.375a6.644,6.644,0,0,1,3.354.845,5.89,5.89,0,0,1,2.31,2.4,7.41,7.41,0,0,1,.83,3.54v.654a7.431,7.431,0,0,1-.815,3.525,5.84,5.84,0,0,1-2.3,2.393,6.694,6.694,0,0,1-3.35.859Zm2.93-11.846v9.492h1.416a3.181,3.181,0,0,0,2.627-1.123,5.075,5.075,0,0,0,.928-3.213v-.752a5.156,5.156,0,0,0-.9-3.286,3.171,3.171,0,0,0-2.627-1.118Zm18.623,5.684H-113.3v3.809h6.6V0h-9.531V-14.219h9.512v2.373H-113.3v3.389h5.625Zm10.605,3.809h6.221V0H-100V-14.219h2.93Zm16.113-.576h-5.137L-87.065,0h-3.115l5.293-14.219h2.715L-76.851,0h-3.115ZM-85.3-5.3h3.555l-1.787-5.322ZM-67.427,0h-2.93V-14.219h2.93Zm14.277,0h-2.93l-5.7-9.355V0h-2.93V-14.219h2.93l5.713,9.375v-9.375h2.92Zm13.262-11.846h-4.355V0h-2.93V-11.846h-4.3v-2.373h11.582Zm10.225,5.684h-5.625v3.809h6.6V0h-9.531V-14.219h9.512v2.373h-6.582v3.389h5.625Zm7.959.957h-2.334V0h-2.93V-14.219h5.283A5.972,5.972,0,0,1-17.8-13.1a3.876,3.876,0,0,1,1.367,3.174,4.374,4.374,0,0,1-.63,2.427A4.3,4.3,0,0,1-18.97-5.947l3.076,5.811V0h-3.145Zm-2.334-2.373h2.363a2.42,2.42,0,0,0,1.709-.562,2.007,2.007,0,0,0,.605-1.548,2.148,2.148,0,0,0-.571-1.582,2.374,2.374,0,0,0-1.753-.576h-2.354ZM-5.649-5.811h-5.625V0H-14.2V-14.219h9.258v2.373h-6.328v3.672h5.625ZM2.905-2.93H-2.231L-3.208,0H-6.323L-1.03-14.219H1.685L7.007,0H3.892ZM-1.44-5.3H2.114L.327-10.625ZM11.44-2.354h7.168V0H7.778V-1.719L14.81-11.846H7.788v-2.373H18.452v1.68ZM25.435,0V-14.219H29.81a6.644,6.644,0,0,1,3.354.845,5.89,5.89,0,0,1,2.31,2.4,7.41,7.41,0,0,1,.83,3.54v.654a7.431,7.431,0,0,1-.815,3.525,5.84,5.84,0,0,1-2.3,2.393A6.694,6.694,0,0,1,29.839,0Zm2.93-11.846v9.492H29.78a3.181,3.181,0,0,0,2.627-1.123,5.075,5.075,0,0,0,.928-3.213v-.752a5.156,5.156,0,0,0-.9-3.286,3.171,3.171,0,0,0-2.627-1.118ZM46.987-6.162H41.362v3.809h6.6V0H38.433V-14.219h9.512v2.373H41.362v3.389h5.625Zm18.438-8.057v9.365a4.8,4.8,0,0,1-1.46,3.691A5.629,5.629,0,0,1,59.976.2a5.692,5.692,0,0,1-3.955-1.318,4.713,4.713,0,0,1-1.494-3.623v-9.473h2.93v9.385A2.709,2.709,0,0,0,58.125-2.8a2.568,2.568,0,0,0,1.851.64q2.471,0,2.51-2.6v-9.463ZM75.2-3.73A1.5,1.5,0,0,0,74.614-5,7.685,7.685,0,0,0,72.5-5.942a14.953,14.953,0,0,1-2.412-.972,3.941,3.941,0,0,1-2.422-3.525A3.434,3.434,0,0,1,68.32-12.5a4.236,4.236,0,0,1,1.865-1.411,7.02,7.02,0,0,1,2.729-.508,6.39,6.39,0,0,1,2.715.552A4.323,4.323,0,0,1,77.48-12.3a4.076,4.076,0,0,1,.659,2.285H75.21a1.917,1.917,0,0,0-.615-1.519,2.529,2.529,0,0,0-1.729-.542,2.7,2.7,0,0,0-1.67.454,1.432,1.432,0,0,0-.6,1.2,1.372,1.372,0,0,0,.7,1.162,7.889,7.889,0,0,0,2.056.879A8.882,8.882,0,0,1,77-6.523,3.715,3.715,0,0,1,78.14-3.75a3.422,3.422,0,0,1-1.4,2.9A6.113,6.113,0,0,1,72.983.2,7.26,7.26,0,0,1,70-.405a4.729,4.729,0,0,1-2.056-1.646,4.214,4.214,0,0,1-.708-2.422h2.939q0,2.354,2.813,2.354a2.736,2.736,0,0,0,1.631-.425A1.382,1.382,0,0,0,75.2-3.73ZM90.884-14.219v9.365a4.8,4.8,0,0,1-1.46,3.691A5.629,5.629,0,0,1,85.435.2a5.692,5.692,0,0,1-3.955-1.318,4.713,4.713,0,0,1-1.494-3.623v-9.473h2.93v9.385A2.709,2.709,0,0,0,83.584-2.8a2.568,2.568,0,0,0,1.851.64q2.471,0,2.51-2.6v-9.463ZM101.1-2.93H95.962L94.985,0H91.87l5.293-14.219h2.715L105.2,0h-3.115ZM96.753-5.3h3.555l-1.787-5.322Zm15.039.1h-2.334V0h-2.93V-14.219h5.283A5.972,5.972,0,0,1,115.7-13.1a3.876,3.876,0,0,1,1.367,3.174,4.374,4.374,0,0,1-.63,2.427,4.3,4.3,0,0,1-1.909,1.548L117.6-.137V0h-3.145Zm-2.334-2.373h2.363a2.42,2.42,0,0,0,1.709-.562,2.007,2.007,0,0,0,.605-1.548,2.148,2.148,0,0,0-.571-1.582,2.374,2.374,0,0,0-1.753-.576h-2.354ZM122.407,0h-2.93V-14.219h2.93ZM136.8-6.787a8.583,8.583,0,0,1-.742,3.682,5.589,5.589,0,0,1-2.124,2.441A5.875,5.875,0,0,1,130.767.2a5.915,5.915,0,0,1-3.154-.85,5.644,5.644,0,0,1-2.148-2.427,8.338,8.338,0,0,1-.771-3.628v-.7a8.538,8.538,0,0,1,.757-3.7,5.635,5.635,0,0,1,2.139-2.451,5.883,5.883,0,0,1,3.159-.854,5.883,5.883,0,0,1,3.159.854,5.635,5.635,0,0,1,2.139,2.451,8.514,8.514,0,0,1,.757,3.687Zm-2.969-.645a5.984,5.984,0,0,0-.8-3.4,2.61,2.61,0,0,0-2.285-1.162,2.611,2.611,0,0,0-2.275,1.147,5.915,5.915,0,0,0-.811,3.364v.693a6.058,6.058,0,0,0,.8,3.379,2.6,2.6,0,0,0,2.3,1.2,2.579,2.579,0,0,0,2.266-1.157,6.023,6.023,0,0,0,.8-3.374ZM143.911,0V-14.219h4.375a6.644,6.644,0,0,1,3.354.845,5.89,5.89,0,0,1,2.31,2.4,7.41,7.41,0,0,1,.83,3.54v.654a7.431,7.431,0,0,1-.815,3.525,5.84,5.84,0,0,1-2.3,2.393,6.694,6.694,0,0,1-3.35.859Zm2.93-11.846v9.492h1.416a3.181,3.181,0,0,0,2.627-1.123,5.075,5.075,0,0,0,.928-3.213v-.752a5.156,5.156,0,0,0-.9-3.286,3.171,3.171,0,0,0-2.627-1.118Zm18.623,5.684h-5.625v3.809h6.6V0h-9.531V-14.219h9.512v2.373h-6.582v3.389h5.625Zm5.625,3.809h6.221V0h-9.15V-14.219h2.93ZM191.343-3.73A1.5,1.5,0,0,0,190.757-5a7.685,7.685,0,0,0-2.109-.937,14.953,14.953,0,0,1-2.412-.972,3.941,3.941,0,0,1-2.422-3.525,3.434,3.434,0,0,1,.649-2.056,4.236,4.236,0,0,1,1.865-1.411,7.021,7.021,0,0,1,2.729-.508,6.39,6.39,0,0,1,2.715.552,4.323,4.323,0,0,1,1.851,1.558,4.076,4.076,0,0,1,.659,2.285h-2.93a1.917,1.917,0,0,0-.615-1.519,2.529,2.529,0,0,0-1.729-.542,2.7,2.7,0,0,0-1.67.454,1.432,1.432,0,0,0-.6,1.2,1.372,1.372,0,0,0,.7,1.162,7.889,7.889,0,0,0,2.056.879,8.882,8.882,0,0,1,3.643,1.865,3.715,3.715,0,0,1,1.143,2.773,3.422,3.422,0,0,1-1.4,2.9A6.113,6.113,0,0,1,189.126.2a7.26,7.26,0,0,1-2.988-.6,4.729,4.729,0,0,1-2.056-1.646,4.214,4.214,0,0,1-.708-2.422h2.939q0,2.354,2.813,2.354a2.736,2.736,0,0,0,1.631-.425A1.382,1.382,0,0,0,191.343-3.73Zm16.6-3.057a8.583,8.583,0,0,1-.742,3.682,5.589,5.589,0,0,1-2.124,2.441A5.875,5.875,0,0,1,201.909.2a5.915,5.915,0,0,1-3.154-.85,5.644,5.644,0,0,1-2.148-2.427,8.338,8.338,0,0,1-.771-3.628v-.7a8.538,8.538,0,0,1,.757-3.7,5.635,5.635,0,0,1,2.139-2.451,5.883,5.883,0,0,1,3.159-.854,5.883,5.883,0,0,1,3.159.854,5.635,5.635,0,0,1,2.139,2.451,8.514,8.514,0,0,1,.757,3.687Zm-2.969-.645a5.984,5.984,0,0,0-.8-3.4,2.61,2.61,0,0,0-2.285-1.162,2.611,2.611,0,0,0-2.275,1.147A5.915,5.915,0,0,0,198.8-7.48v.693a6.058,6.058,0,0,0,.8,3.379,2.6,2.6,0,0,0,2.3,1.2,2.579,2.579,0,0,0,2.266-1.157,6.023,6.023,0,0,0,.8-3.374Zm13.652,1.621H213V0h-2.93V-14.219h9.258v2.373H213v3.672h5.625Zm13.3-6.035h-4.355V0h-2.93V-11.846h-4.3v-2.373h11.582ZM244.819-4.1l1.914-10.117h2.92L246.5,0H243.55l-2.314-9.512L238.921,0h-2.949l-3.154-14.219h2.92l1.924,10.1L240-14.219h2.48ZM258.843-2.93h-5.137L252.729,0h-3.115l5.293-14.219h2.715L262.944,0h-3.115ZM254.5-5.3h3.555l-1.787-5.322Zm15.039.1H267.2V0h-2.93V-14.219h5.283a5.972,5.972,0,0,1,3.887,1.123,3.876,3.876,0,0,1,1.367,3.174,4.374,4.374,0,0,1-.63,2.427,4.3,4.3,0,0,1-1.909,1.548l3.076,5.811V0H272.2ZM267.2-7.578h2.363a2.42,2.42,0,0,0,1.709-.562,2.007,2.007,0,0,0,.605-1.548,2.148,2.148,0,0,0-.571-1.582,2.374,2.374,0,0,0-1.753-.576H267.2Zm18.389,1.416h-5.625v3.809h6.6V0h-9.531V-14.219h9.512v2.373h-6.582v3.389h5.625Z" transform="translate(769.899 426.283)" fill="#fff"/>
    <path id="Trazado_624594" data-name="Trazado 624594" d="M7.714,0H196.877a7.714,7.714,0,0,1,7.714,7.714v44.34a7.714,7.714,0,0,1-7.714,7.714H7.714A7.714,7.714,0,0,1,0,52.054V7.714A7.714,7.714,0,0,1,7.714,0Z" transform="translate(237.819 489.197)" fill="#b1ede3"/>
    <path id="Trazado_624589" data-name="Trazado 624589" d="M7.714,0H196.877a7.714,7.714,0,0,1,7.714,7.714v55.34a7.714,7.714,0,0,1-7.714,7.714H7.714A7.714,7.714,0,0,1,0,63.054V7.714A7.714,7.714,0,0,1,7.714,0Z" transform="translate(1146.768 478.197)" fill="#b1ede3"/>
    <path id="Trazado_624600" data-name="Trazado 624600" d="M-.813-12.8v8.429A4.315,4.315,0,0,1-2.127-1.046,5.066,5.066,0,0,1-5.717.176a5.123,5.123,0,0,1-3.56-1.187,4.242,4.242,0,0,1-1.345-3.261V-12.8h2.637v8.446a2.438,2.438,0,0,0,.6,1.833,2.311,2.311,0,0,0,1.666.576q2.224,0,2.259-2.338V-12.8ZM5.928-8.385l2.4-4.412H11.36L7.633-6.451,11.457,0H8.389L5.928-4.482,3.467,0H.4L4.223-6.451.5-12.8H3.529Z" transform="translate(339.363 521.898)" fill="#12263f"/>
    <path id="Trazado_624597" data-name="Trazado 624597" d="M7.714,0H196.877a7.714,7.714,0,0,1,7.714,7.714v44.34a7.714,7.714,0,0,1-7.714,7.714H7.714A7.714,7.714,0,0,1,0,52.054V7.714A7.714,7.714,0,0,1,7.714,0Z" transform="translate(203.128 670.661)" fill="#fabbd0"/>
    <path id="Trazado_624601" data-name="Trazado 624601" d="M-46.147-2.637H-50.77L-51.649,0h-2.8l4.764-12.8h2.443L-42.456,0h-2.8Zm-3.911-2.136h3.2l-1.608-4.79Zm12.586,2.9a1.666,1.666,0,0,0,1.143-.387,1.355,1.355,0,0,0,.457-1.028h2.382a3.258,3.258,0,0,1-.527,1.771A3.48,3.48,0,0,1-35.437-.268a4.442,4.442,0,0,1-1.991.444,4.129,4.129,0,0,1-3.217-1.3A5.13,5.13,0,0,1-41.823-4.7v-.167a5.071,5.071,0,0,1,1.169-3.507,4.08,4.08,0,0,1,3.208-1.31A4,4,0,0,1-34.585-8.67a3.594,3.594,0,0,1,1.094,2.7h-2.382a1.745,1.745,0,0,0-.457-1.206,1.524,1.524,0,0,0-1.16-.464,1.53,1.53,0,0,0-1.34.647,3.749,3.749,0,0,0-.453,2.1v.264a3.8,3.8,0,0,0,.448,2.113A1.549,1.549,0,0,0-37.472-1.872Zm9.387,0a1.666,1.666,0,0,0,1.143-.387,1.355,1.355,0,0,0,.457-1.028H-24.1a3.258,3.258,0,0,1-.527,1.771A3.48,3.48,0,0,1-26.051-.268a4.442,4.442,0,0,1-1.991.444,4.129,4.129,0,0,1-3.217-1.3A5.13,5.13,0,0,1-32.436-4.7v-.167a5.071,5.071,0,0,1,1.169-3.507,4.08,4.08,0,0,1,3.208-1.31A4,4,0,0,1-25.2-8.67a3.594,3.594,0,0,1,1.094,2.7h-2.382a1.745,1.745,0,0,0-.457-1.206,1.524,1.524,0,0,0-1.16-.464,1.53,1.53,0,0,0-1.34.647,3.749,3.749,0,0,0-.453,2.1v.264a3.8,3.8,0,0,0,.448,2.113A1.549,1.549,0,0,0-28.085-1.872ZM-18.277.176a4.668,4.668,0,0,1-3.406-1.283A4.561,4.561,0,0,1-23-4.526v-.246a5.745,5.745,0,0,1,.554-2.562,4.064,4.064,0,0,1,1.569-1.74,4.4,4.4,0,0,1,2.316-.611,3.947,3.947,0,0,1,3.072,1.23,5,5,0,0,1,1.121,3.489v1.037h-6.056a2.36,2.36,0,0,0,.743,1.494,2.245,2.245,0,0,0,1.569.563,2.742,2.742,0,0,0,2.294-1.063l1.248,1.4A3.813,3.813,0,0,1-16.115-.277,5.075,5.075,0,0,1-18.277.176Zm-.29-7.813a1.587,1.587,0,0,0-1.226.512,2.651,2.651,0,0,0-.6,1.466h3.533v-.2a1.891,1.891,0,0,0-.457-1.311A1.638,1.638,0,0,0-18.567-7.638Zm10.793,5.01a.818.818,0,0,0-.461-.734,5.241,5.241,0,0,0-1.481-.479q-3.393-.712-3.393-2.883a2.613,2.613,0,0,1,1.05-2.114,4.237,4.237,0,0,1,2.747-.848,4.56,4.56,0,0,1,2.9.853A2.687,2.687,0,0,1-5.331-6.618h-2.54a1.229,1.229,0,0,0-.352-.9,1.488,1.488,0,0,0-1.1-.356,1.52,1.52,0,0,0-.993.29.916.916,0,0,0-.352.738.783.783,0,0,0,.4.681,4.114,4.114,0,0,0,1.349.448,11.019,11.019,0,0,1,1.6.426A2.628,2.628,0,0,1-5.3-2.733,2.481,2.481,0,0,1-6.42-.628,4.815,4.815,0,0,1-9.3.176,5.029,5.029,0,0,1-11.426-.25,3.561,3.561,0,0,1-12.88-1.419a2.716,2.716,0,0,1-.527-1.6H-11a1.326,1.326,0,0,0,.5,1.037,1.987,1.987,0,0,0,1.248.36,1.839,1.839,0,0,0,1.1-.277A.861.861,0,0,0-7.774-2.628ZM-.989,0H-3.538V-9.51H-.989Zm-2.7-11.971a1.251,1.251,0,0,1,.382-.94,1.436,1.436,0,0,1,1.042-.369,1.44,1.44,0,0,1,1.037.369,1.244,1.244,0,0,1,.387.94,1.247,1.247,0,0,1-.391.949,1.443,1.443,0,0,1-1.033.369A1.443,1.443,0,0,1-3.3-11.021,1.247,1.247,0,0,1-3.687-11.971Zm13.359,7.3A5.758,5.758,0,0,1,8.7-1.1,3.231,3.231,0,0,1,5.972.176,2.969,2.969,0,0,1,3.5-1.011L3.388,0H1.1V-13.5h2.54v4.843A2.893,2.893,0,0,1,5.955-9.686,3.258,3.258,0,0,1,8.684-8.407a5.767,5.767,0,0,1,.989,3.6Zm-2.54-.185a3.783,3.783,0,0,0-.457-2.1A1.545,1.545,0,0,0,5.313-7.62a1.676,1.676,0,0,0-1.67.993v3.753a1.7,1.7,0,0,0,1.688,1A1.568,1.568,0,0,0,6.948-3.085,6.257,6.257,0,0,0,7.132-4.852ZM13.917,0H11.369V-9.51h2.549Zm-2.7-11.971a1.251,1.251,0,0,1,.382-.94,1.436,1.436,0,0,1,1.042-.369,1.44,1.44,0,0,1,1.037.369,1.244,1.244,0,0,1,.387.94,1.247,1.247,0,0,1-.391.949,1.443,1.443,0,0,1-1.033.369,1.443,1.443,0,0,1-1.033-.369A1.247,1.247,0,0,1,11.219-11.971ZM18.69,0H16.141V-13.5H18.69Zm4.772,0H20.914V-9.51h2.549Zm-2.7-11.971a1.251,1.251,0,0,1,.382-.94,1.436,1.436,0,0,1,1.042-.369,1.44,1.44,0,0,1,1.037.369,1.244,1.244,0,0,1,.387.94,1.247,1.247,0,0,1-.391.949,1.443,1.443,0,0,1-1.033.369,1.443,1.443,0,0,1-1.033-.369A1.247,1.247,0,0,1,20.764-11.971Zm4.395,7.146a5.731,5.731,0,0,1,1-3.542,3.237,3.237,0,0,1,2.729-1.318,2.913,2.913,0,0,1,2.294,1.037V-13.5h2.549V0H31.434l-.123-1.011A2.989,2.989,0,0,1,28.868.176a3.228,3.228,0,0,1-2.694-1.323A5.916,5.916,0,0,1,25.159-4.825Zm2.54.189a3.754,3.754,0,0,0,.466,2.051,1.517,1.517,0,0,0,1.354.713,1.7,1.7,0,0,0,1.661-.995V-6.625a1.675,1.675,0,0,0-1.644-.995Q27.7-7.62,27.7-4.636ZM41.208,0a2.821,2.821,0,0,1-.255-.853,3.073,3.073,0,0,1-2.4,1.028,3.376,3.376,0,0,1-2.316-.809,2.6,2.6,0,0,1-.918-2.039,2.687,2.687,0,0,1,1.121-2.32,5.529,5.529,0,0,1,3.239-.817h1.169v-.545a1.567,1.567,0,0,0-.338-1.055,1.331,1.331,0,0,0-1.068-.4,1.513,1.513,0,0,0-1.006.308,1.045,1.045,0,0,0-.365.844H35.53a2.551,2.551,0,0,1,.51-1.529,3.37,3.37,0,0,1,1.441-1.1,5.253,5.253,0,0,1,2.092-.4,4.15,4.15,0,0,1,2.791.883A3.09,3.09,0,0,1,43.4-6.319V-2.2a4.546,4.546,0,0,0,.378,2.048V0Zm-2.1-1.767a2.188,2.188,0,0,0,1.037-.25,1.645,1.645,0,0,0,.7-.672V-4.324H39.9q-1.907,0-2.03,1.318l-.009.149a1.017,1.017,0,0,0,.334.782A1.3,1.3,0,0,0,39.107-1.767Zm5.845-3.059a5.731,5.731,0,0,1,1-3.542,3.237,3.237,0,0,1,2.729-1.318,2.913,2.913,0,0,1,2.294,1.037V-13.5h2.549V0H51.227L51.1-1.011A2.989,2.989,0,0,1,48.661.176a3.228,3.228,0,0,1-2.694-1.323A5.916,5.916,0,0,1,44.952-4.825Zm2.54.189a3.754,3.754,0,0,0,.466,2.051,1.517,1.517,0,0,0,1.354.713,1.7,1.7,0,0,0,1.661-.995V-6.625a1.675,1.675,0,0,0-1.644-.995Q47.492-7.62,47.492-4.636Z" transform="translate(301.759 703.361)" fill="#12263f"/>
    <path id="Trazado_624598" data-name="Trazado 624598" d="M7.714,0H196.877a7.714,7.714,0,0,1,7.714,7.714v44.34a7.714,7.714,0,0,1-7.714,7.714H7.714A7.714,7.714,0,0,1,0,52.054V7.714A7.714,7.714,0,0,1,7.714,0Z" transform="translate(203.128 588.646)" fill="#fabbd0"/>
    <path id="Trazado_624602" data-name="Trazado 624602" d="M-31.742-12.8v8.429a4.315,4.315,0,0,1-1.314,3.322A5.066,5.066,0,0,1-36.646.176a5.123,5.123,0,0,1-3.56-1.187A4.242,4.242,0,0,1-41.55-4.271V-12.8h2.637v8.446a2.438,2.438,0,0,0,.6,1.833,2.311,2.311,0,0,0,1.666.576q2.224,0,2.259-2.338V-12.8ZM-24.6-2.628a.818.818,0,0,0-.461-.734,5.241,5.241,0,0,0-1.481-.479q-3.393-.712-3.393-2.883a2.613,2.613,0,0,1,1.05-2.114,4.237,4.237,0,0,1,2.747-.848,4.56,4.56,0,0,1,2.9.853,2.687,2.687,0,0,1,1.085,2.215h-2.54a1.229,1.229,0,0,0-.352-.9,1.488,1.488,0,0,0-1.1-.356,1.52,1.52,0,0,0-.993.29.916.916,0,0,0-.352.738.783.783,0,0,0,.4.681,4.114,4.114,0,0,0,1.349.448,11.019,11.019,0,0,1,1.6.426,2.628,2.628,0,0,1,2.013,2.558,2.481,2.481,0,0,1-1.116,2.1,4.815,4.815,0,0,1-2.883.8A5.029,5.029,0,0,1-28.248-.25,3.561,3.561,0,0,1-29.7-1.419a2.716,2.716,0,0,1-.527-1.6h2.408a1.326,1.326,0,0,0,.5,1.037,1.987,1.987,0,0,0,1.248.36,1.839,1.839,0,0,0,1.1-.277A.861.861,0,0,0-24.6-2.628ZM-14.981,0a2.821,2.821,0,0,1-.255-.853,3.073,3.073,0,0,1-2.4,1.028,3.376,3.376,0,0,1-2.316-.809,2.6,2.6,0,0,1-.918-2.039,2.687,2.687,0,0,1,1.121-2.32A5.529,5.529,0,0,1-16.51-5.81h1.169v-.545a1.567,1.567,0,0,0-.338-1.055,1.331,1.331,0,0,0-1.068-.4,1.513,1.513,0,0,0-1.006.308,1.045,1.045,0,0,0-.365.844h-2.54a2.551,2.551,0,0,1,.51-1.529,3.37,3.37,0,0,1,1.441-1.1,5.253,5.253,0,0,1,2.092-.4,4.15,4.15,0,0,1,2.791.883,3.09,3.09,0,0,1,1.033,2.483V-2.2a4.546,4.546,0,0,0,.378,2.048V0Zm-2.1-1.767a2.188,2.188,0,0,0,1.037-.25,1.645,1.645,0,0,0,.7-.672V-4.324h-.949q-1.907,0-2.03,1.318l-.009.149A1.017,1.017,0,0,0-18-2.074,1.3,1.3,0,0,0-17.082-1.767Zm14.81-2.9A5.758,5.758,0,0,1-3.248-1.1,3.231,3.231,0,0,1-5.972.176a2.969,2.969,0,0,1-2.47-1.187L-8.556,0h-2.285V-13.5H-8.3v4.843A2.893,2.893,0,0,1-5.99-9.686,3.258,3.258,0,0,1-3.261-8.407a5.767,5.767,0,0,1,.989,3.6Zm-2.54-.185a3.783,3.783,0,0,0-.457-2.1A1.545,1.545,0,0,0-6.631-7.62a1.676,1.676,0,0,0-1.67.993v3.753a1.7,1.7,0,0,0,1.688,1A1.568,1.568,0,0,0-5-3.085,6.257,6.257,0,0,0-4.812-4.852ZM1.973,0H-.576V-9.51H1.973Zm-2.7-11.971a1.251,1.251,0,0,1,.382-.94A1.436,1.436,0,0,1,.7-13.28a1.44,1.44,0,0,1,1.037.369,1.244,1.244,0,0,1,.387.94,1.247,1.247,0,0,1-.391.949A1.443,1.443,0,0,1,.7-10.652a1.443,1.443,0,0,1-1.033-.369A1.247,1.247,0,0,1-.725-11.971ZM6.746,0H4.2V-13.5H6.746Zm4.772,0H8.969V-9.51h2.549ZM8.82-11.971a1.251,1.251,0,0,1,.382-.94,1.436,1.436,0,0,1,1.042-.369,1.44,1.44,0,0,1,1.037.369,1.244,1.244,0,0,1,.387.94,1.247,1.247,0,0,1-.391.949,1.443,1.443,0,0,1-1.033.369,1.443,1.443,0,0,1-1.033-.369A1.247,1.247,0,0,1,8.82-11.971Zm4.395,7.146a5.731,5.731,0,0,1,1-3.542,3.237,3.237,0,0,1,2.729-1.318,2.913,2.913,0,0,1,2.294,1.037V-13.5h2.549V0H19.49l-.123-1.011A2.989,2.989,0,0,1,16.923.176a3.228,3.228,0,0,1-2.694-1.323A5.916,5.916,0,0,1,13.214-4.825Zm2.54.189a3.754,3.754,0,0,0,.466,2.051,1.517,1.517,0,0,0,1.354.713,1.7,1.7,0,0,0,1.661-.995V-6.625a1.675,1.675,0,0,0-1.644-.995Q15.754-7.62,15.754-4.636ZM29.263,0a2.821,2.821,0,0,1-.255-.853,3.073,3.073,0,0,1-2.4,1.028,3.376,3.376,0,0,1-2.316-.809,2.6,2.6,0,0,1-.918-2.039A2.687,2.687,0,0,1,24.5-4.992a5.529,5.529,0,0,1,3.239-.817H28.9v-.545a1.567,1.567,0,0,0-.338-1.055A1.331,1.331,0,0,0,27.5-7.8,1.513,1.513,0,0,0,26.49-7.5a1.045,1.045,0,0,0-.365.844h-2.54a2.551,2.551,0,0,1,.51-1.529,3.37,3.37,0,0,1,1.441-1.1,5.253,5.253,0,0,1,2.092-.4,4.15,4.15,0,0,1,2.791.883,3.09,3.09,0,0,1,1.033,2.483V-2.2A4.546,4.546,0,0,0,31.83-.149V0Zm-2.1-1.767a2.188,2.188,0,0,0,1.037-.25,1.645,1.645,0,0,0,.7-.672V-4.324h-.949q-1.907,0-2.03,1.318l-.009.149a1.017,1.017,0,0,0,.334.782A1.3,1.3,0,0,0,27.163-1.767Zm5.845-3.059a5.731,5.731,0,0,1,1-3.542,3.237,3.237,0,0,1,2.729-1.318,2.913,2.913,0,0,1,2.294,1.037V-13.5h2.549V0H39.283L39.16-1.011A2.989,2.989,0,0,1,36.716.176a3.228,3.228,0,0,1-2.694-1.323A5.916,5.916,0,0,1,33.007-4.825Zm2.54.189a3.754,3.754,0,0,0,.466,2.051,1.517,1.517,0,0,0,1.354.713,1.7,1.7,0,0,0,1.661-.995V-6.625a1.675,1.675,0,0,0-1.644-.995Q35.547-7.62,35.547-4.636Z" transform="translate(302.654 626.593)" fill="#12263f"/>
    <path id="Trazado_624590" data-name="Trazado 624590" d="M7.714,0H196.877a7.714,7.714,0,0,1,7.714,7.714v44.34a7.714,7.714,0,0,1-7.714,7.714H7.714A7.714,7.714,0,0,1,0,52.054V7.714A7.714,7.714,0,0,1,7.714,0Z" transform="translate(522.765 489.197)" fill="#b1ede3"/>
    <path id="Trazado_624591" data-name="Trazado 624591" d="M-39.45-4.263a4.528,4.528,0,0,1-1.525,3.252A5.355,5.355,0,0,1-44.6.176a4.816,4.816,0,0,1-3.872-1.657,6.793,6.793,0,0,1-1.411-4.548v-.782a7.671,7.671,0,0,1,.65-3.252,4.874,4.874,0,0,1,1.859-2.158,5.207,5.207,0,0,1,2.808-.751A5.217,5.217,0,0,1-41-11.786a4.866,4.866,0,0,1,1.564,3.331h-2.637a2.673,2.673,0,0,0-.69-1.8,2.555,2.555,0,0,0-1.806-.558,2.24,2.24,0,0,0-1.973.945,5.3,5.3,0,0,0-.672,2.931v.967a5.667,5.667,0,0,0,.628,3.032,2.2,2.2,0,0,0,1.982.958,2.6,2.6,0,0,0,1.824-.558,2.521,2.521,0,0,0,.69-1.727Zm1.169-.58a5.64,5.64,0,0,1,.545-2.522,3.989,3.989,0,0,1,1.569-1.714,4.577,4.577,0,0,1,2.377-.606,4.33,4.33,0,0,1,3.142,1.178,4.727,4.727,0,0,1,1.358,3.2l.018.65a4.97,4.97,0,0,1-1.222,3.511A4.247,4.247,0,0,1-33.772.176a4.268,4.268,0,0,1-3.283-1.318,5.058,5.058,0,0,1-1.226-3.586Zm2.54.18a3.555,3.555,0,0,0,.51,2.073,1.682,1.682,0,0,0,1.459.717,1.686,1.686,0,0,0,1.441-.709,3.89,3.89,0,0,0,.519-2.267,3.519,3.519,0,0,0-.519-2.06,1.686,1.686,0,0,0-1.459-.731,1.658,1.658,0,0,0-1.441.726A3.955,3.955,0,0,0-35.741-4.662Zm7.638-.163a5.731,5.731,0,0,1,1-3.542,3.237,3.237,0,0,1,2.729-1.318,2.913,2.913,0,0,1,2.294,1.037V-13.5h2.549V0h-2.294l-.123-1.011A2.989,2.989,0,0,1-24.394.176a3.228,3.228,0,0,1-2.694-1.323A5.916,5.916,0,0,1-28.1-4.825Zm2.54.189A3.754,3.754,0,0,0-25.1-2.585a1.517,1.517,0,0,0,1.354.713,1.7,1.7,0,0,0,1.661-.995V-6.625a1.675,1.675,0,0,0-1.644-.995Q-25.563-7.62-25.563-4.636ZM-14.884,0h-2.549V-9.51h2.549Zm-2.7-11.971a1.251,1.251,0,0,1,.382-.94,1.436,1.436,0,0,1,1.042-.369,1.44,1.44,0,0,1,1.037.369,1.244,1.244,0,0,1,.387.94,1.247,1.247,0,0,1-.391.949,1.443,1.443,0,0,1-1.033.369,1.443,1.443,0,0,1-1.033-.369A1.247,1.247,0,0,1-17.583-11.971ZM-12.177,0V-7.646h-1.415V-9.51h1.415v-.439a3.566,3.566,0,0,1,1.1-2.764,4.438,4.438,0,0,1,3.063-.971,10.16,10.16,0,0,1,2.883.519l-.369,2.1a11.248,11.248,0,0,0-1.336-.33,6.564,6.564,0,0,0-1.02-.075q-1.775,0-1.775,1.573v.387h1.872v1.863H-9.628V0Zm8.235,0H-6.491V-9.51h2.549ZM2.114-1.872a1.666,1.666,0,0,0,1.143-.387,1.355,1.355,0,0,0,.457-1.028H6.1a3.258,3.258,0,0,1-.527,1.771A3.48,3.48,0,0,1,4.148-.268,4.442,4.442,0,0,1,2.158.176a4.129,4.129,0,0,1-3.217-1.3A5.13,5.13,0,0,1-2.237-4.7v-.167A5.071,5.071,0,0,1-1.068-8.376,4.08,4.08,0,0,1,2.14-9.686,4,4,0,0,1,5-8.67,3.594,3.594,0,0,1,6.1-5.968H3.713a1.745,1.745,0,0,0-.457-1.206A1.524,1.524,0,0,0,2.1-7.638a1.53,1.53,0,0,0-1.34.647A3.749,3.749,0,0,0,.3-4.891v.264A3.8,3.8,0,0,0,.751-2.515,1.549,1.549,0,0,0,2.114-1.872ZM13.056,0A2.821,2.821,0,0,1,12.8-.853,3.073,3.073,0,0,1,10.4.176,3.376,3.376,0,0,1,8.086-.633a2.6,2.6,0,0,1-.918-2.039,2.687,2.687,0,0,1,1.121-2.32,5.529,5.529,0,0,1,3.239-.817H12.7v-.545a1.567,1.567,0,0,0-.338-1.055,1.331,1.331,0,0,0-1.068-.4,1.513,1.513,0,0,0-1.006.308,1.045,1.045,0,0,0-.365.844H7.378a2.551,2.551,0,0,1,.51-1.529,3.37,3.37,0,0,1,1.441-1.1,5.253,5.253,0,0,1,2.092-.4,4.15,4.15,0,0,1,2.791.883,3.09,3.09,0,0,1,1.033,2.483V-2.2a4.546,4.546,0,0,0,.378,2.048V0Zm-2.1-1.767a2.188,2.188,0,0,0,1.037-.25,1.645,1.645,0,0,0,.7-.672V-4.324h-.949q-1.907,0-2.03,1.318l-.009.149a1.017,1.017,0,0,0,.334.782A1.3,1.3,0,0,0,10.956-1.767Zm10.2-.105a1.666,1.666,0,0,0,1.143-.387,1.355,1.355,0,0,0,.457-1.028h2.382A3.258,3.258,0,0,1,24.6-1.516,3.48,3.48,0,0,1,23.186-.268a4.442,4.442,0,0,1-1.991.444,4.129,4.129,0,0,1-3.217-1.3A5.13,5.13,0,0,1,16.8-4.7v-.167a5.071,5.071,0,0,1,1.169-3.507,4.08,4.08,0,0,1,3.208-1.31A4,4,0,0,1,24.038-8.67a3.594,3.594,0,0,1,1.094,2.7H22.75a1.745,1.745,0,0,0-.457-1.206,1.524,1.524,0,0,0-1.16-.464,1.53,1.53,0,0,0-1.34.647,3.749,3.749,0,0,0-.453,2.1v.264a3.8,3.8,0,0,0,.448,2.113A1.549,1.549,0,0,0,21.151-1.872ZM29.263,0H26.714V-9.51h2.549Zm-2.7-11.971a1.251,1.251,0,0,1,.382-.94,1.436,1.436,0,0,1,1.042-.369,1.44,1.44,0,0,1,1.037.369,1.244,1.244,0,0,1,.387.94,1.247,1.247,0,0,1-.391.949,1.443,1.443,0,0,1-1.033.369,1.443,1.443,0,0,1-1.033-.369A1.247,1.247,0,0,1,26.565-11.971Zm4.395,7.128A5.64,5.64,0,0,1,31.5-7.365a3.989,3.989,0,0,1,1.569-1.714,4.577,4.577,0,0,1,2.377-.606,4.33,4.33,0,0,1,3.142,1.178,4.727,4.727,0,0,1,1.358,3.2l.018.65a4.97,4.97,0,0,1-1.222,3.511A4.247,4.247,0,0,1,35.468.176a4.268,4.268,0,0,1-3.283-1.318,5.058,5.058,0,0,1-1.226-3.586Zm2.54.18a3.555,3.555,0,0,0,.51,2.073,1.682,1.682,0,0,0,1.459.717,1.686,1.686,0,0,0,1.441-.709,3.89,3.89,0,0,0,.519-2.267,3.519,3.519,0,0,0-.519-2.06,1.686,1.686,0,0,0-1.459-.731,1.658,1.658,0,0,0-1.441.726A3.955,3.955,0,0,0,33.5-4.662ZM35.952-13.5H38.72l-2.435,2.725H34.22Zm7.919,3.99.079,1.1a3.32,3.32,0,0,1,2.733-1.274,2.759,2.759,0,0,1,2.25.888,4.142,4.142,0,0,1,.756,2.654V0h-2.54V-6.082A1.648,1.648,0,0,0,46.8-7.255a1.574,1.574,0,0,0-1.169-.365,1.747,1.747,0,0,0-1.608.914V0H41.48V-9.51Z" transform="translate(621.032 521.897)" fill="#12263f"/>
    <path id="Trazado_624592" data-name="Trazado 624592" d="M7.714,0H196.877a7.714,7.714,0,0,1,7.714,7.714v44.34a7.714,7.714,0,0,1-7.714,7.714H7.714A7.714,7.714,0,0,1,0,52.054V7.714A7.714,7.714,0,0,1,7.714,0Z" transform="translate(853.224 489.197)" fill="#b1ede3"/>
    <path id="Trazado_624593" data-name="Trazado 624593" d="M-31.9-2.118h5.6V0h-8.235V-12.8H-31.9ZM-22.271,0H-24.82V-9.51h2.549Zm-2.7-11.971a1.251,1.251,0,0,1,.382-.94,1.436,1.436,0,0,1,1.042-.369,1.44,1.44,0,0,1,1.037.369,1.244,1.244,0,0,1,.387.94,1.247,1.247,0,0,1-.391.949,1.443,1.443,0,0,1-1.033.369,1.443,1.443,0,0,1-1.033-.369A1.247,1.247,0,0,1-24.97-11.971Zm13.359,7.3A5.758,5.758,0,0,1-12.586-1.1,3.231,3.231,0,0,1-15.311.176a2.969,2.969,0,0,1-2.47-1.187L-17.895,0H-20.18V-13.5h2.54v4.843a2.893,2.893,0,0,1,2.312-1.028A3.258,3.258,0,0,1-12.6-8.407a5.767,5.767,0,0,1,.989,3.6Zm-2.54-.185a3.783,3.783,0,0,0-.457-2.1A1.545,1.545,0,0,0-15.97-7.62a1.676,1.676,0,0,0-1.67.993v3.753a1.7,1.7,0,0,0,1.688,1,1.568,1.568,0,0,0,1.617-1.213A6.257,6.257,0,0,0-14.15-4.852ZM-4.7-7.128a6.9,6.9,0,0,0-.914-.07,1.86,1.86,0,0,0-1.89.976V0h-2.54V-9.51h2.4l.07,1.134a2.354,2.354,0,0,1,2.118-1.31,2.662,2.662,0,0,1,.791.114ZM.9.176A4.668,4.668,0,0,1-2.509-1.107,4.561,4.561,0,0,1-3.823-4.526v-.246A5.745,5.745,0,0,1-3.27-7.334,4.064,4.064,0,0,1-1.7-9.075,4.4,4.4,0,0,1,.615-9.686a3.947,3.947,0,0,1,3.072,1.23A5,5,0,0,1,4.808-4.966v1.037H-1.248A2.36,2.36,0,0,0-.505-2.435a2.245,2.245,0,0,0,1.569.563A2.742,2.742,0,0,0,3.357-2.936l1.248,1.4A3.813,3.813,0,0,1,3.059-.277,5.075,5.075,0,0,1,.9.176ZM.606-7.638A1.587,1.587,0,0,0-.62-7.126a2.651,2.651,0,0,0-.6,1.466H2.312v-.2a1.891,1.891,0,0,0-.457-1.311A1.638,1.638,0,0,0,.606-7.638Zm10.986.51a6.9,6.9,0,0,0-.914-.07,1.86,1.86,0,0,0-1.89.976V0H6.249V-9.51h2.4l.07,1.134a2.354,2.354,0,0,1,2.118-1.31,2.662,2.662,0,0,1,.791.114ZM15.557,0h-2.54V-9.51h2.54ZM14.81-13.368h2.769l-2.435,2.725H13.078ZM23.256,0A2.821,2.821,0,0,1,23-.853,3.073,3.073,0,0,1,20.6.176a3.376,3.376,0,0,1-2.316-.809,2.6,2.6,0,0,1-.918-2.039,2.687,2.687,0,0,1,1.121-2.32,5.529,5.529,0,0,1,3.239-.817H22.9v-.545a1.567,1.567,0,0,0-.338-1.055,1.331,1.331,0,0,0-1.068-.4,1.513,1.513,0,0,0-1.006.308,1.045,1.045,0,0,0-.365.844h-2.54a2.551,2.551,0,0,1,.51-1.529,3.37,3.37,0,0,1,1.441-1.1,5.253,5.253,0,0,1,2.092-.4,4.15,4.15,0,0,1,2.791.883,3.09,3.09,0,0,1,1.033,2.483V-2.2a4.546,4.546,0,0,0,.378,2.048V0Zm-2.1-1.767a2.188,2.188,0,0,0,1.037-.25,1.645,1.645,0,0,0,.7-.672V-4.324h-.949q-1.907,0-2.03,1.318l-.009.149a1.017,1.017,0,0,0,.334.782A1.3,1.3,0,0,0,21.155-1.767Zm11.391-.861a.818.818,0,0,0-.461-.734A5.241,5.241,0,0,0,30.6-3.841q-3.393-.712-3.393-2.883a2.613,2.613,0,0,1,1.05-2.114,4.237,4.237,0,0,1,2.747-.848,4.56,4.56,0,0,1,2.9.853,2.687,2.687,0,0,1,1.085,2.215h-2.54a1.229,1.229,0,0,0-.352-.9A1.488,1.488,0,0,0,31-7.875a1.52,1.52,0,0,0-.993.29.916.916,0,0,0-.352.738.783.783,0,0,0,.4.681,4.114,4.114,0,0,0,1.349.448,11.019,11.019,0,0,1,1.6.426,2.628,2.628,0,0,1,2.013,2.558A2.481,2.481,0,0,1,33.9-.628a4.815,4.815,0,0,1-2.883.8A5.029,5.029,0,0,1,28.894-.25a3.561,3.561,0,0,1-1.455-1.169,2.716,2.716,0,0,1-.527-1.6H29.32a1.326,1.326,0,0,0,.5,1.037,1.987,1.987,0,0,0,1.248.36,1.839,1.839,0,0,0,1.1-.277A.861.861,0,0,0,32.546-2.628Z" transform="translate(953.944 521.897)" fill="#12263f"/>
    <path id="Trazado_624595" data-name="Trazado 624595" d="M-52.247-2.118h5.6V0h-8.235V-12.8h2.637ZM-40.926.176a4.668,4.668,0,0,1-3.406-1.283,4.561,4.561,0,0,1-1.314-3.419v-.246a5.745,5.745,0,0,1,.554-2.562,4.064,4.064,0,0,1,1.569-1.74,4.4,4.4,0,0,1,2.316-.611,3.947,3.947,0,0,1,3.072,1.23,5,5,0,0,1,1.121,3.489v1.037h-6.056a2.36,2.36,0,0,0,.743,1.494,2.245,2.245,0,0,0,1.569.563,2.742,2.742,0,0,0,2.294-1.063l1.248,1.4A3.813,3.813,0,0,1-38.764-.277,5.075,5.075,0,0,1-40.926.176Zm-.29-7.813a1.587,1.587,0,0,0-1.226.512,2.651,2.651,0,0,0-.6,1.466h3.533v-.2a1.891,1.891,0,0,0-.457-1.311A1.638,1.638,0,0,0-41.216-7.638Zm7.98-1.872.079,1.1a3.32,3.32,0,0,1,2.733-1.274,2.759,2.759,0,0,1,2.25.888,4.142,4.142,0,0,1,.756,2.654V0h-2.54V-6.082a1.648,1.648,0,0,0-.352-1.173,1.574,1.574,0,0,0-1.169-.365,1.747,1.747,0,0,0-1.608.914V0h-2.54V-9.51Zm7.374,4.685A5.573,5.573,0,0,1-24.82-8.35a3.375,3.375,0,0,1,2.808-1.336,2.96,2.96,0,0,1,2.435,1.072l.105-.9h2.3V-.316a4.064,4.064,0,0,1-.567,2.171,3.641,3.641,0,0,1-1.6,1.406,5.608,5.608,0,0,1-2.408.483,5.215,5.215,0,0,1-2.039-.417,3.619,3.619,0,0,1-1.5-1.077L-24.157.7a2.975,2.975,0,0,0,2.3,1.063,2.178,2.178,0,0,0,1.573-.541,2.027,2.027,0,0,0,.563-1.534v-.51A2.938,2.938,0,0,1-22.03.176,3.366,3.366,0,0,1-24.8-1.165,5.572,5.572,0,0,1-25.862-4.72Zm2.54.189A3.47,3.47,0,0,0-22.8-2.607a1.65,1.65,0,0,0,1.424.735,1.764,1.764,0,0,0,1.661-.871V-6.749a1.76,1.76,0,0,0-1.644-.871,1.66,1.66,0,0,0-1.437.748A3.911,3.911,0,0,0-23.322-4.636Zm13.8,3.669a3.185,3.185,0,0,1-2.6,1.143A3,3,0,0,1-14.458-.7a3.752,3.752,0,0,1-.822-2.575V-9.51h2.54v6.151q0,1.487,1.354,1.487a1.834,1.834,0,0,0,1.775-.9V-9.51h2.549V0H-9.453ZM.365,0A2.821,2.821,0,0,1,.11-.853,3.073,3.073,0,0,1-2.29.176,3.376,3.376,0,0,1-4.605-.633a2.6,2.6,0,0,1-.918-2.039A2.687,2.687,0,0,1-4.4-4.992,5.529,5.529,0,0,1-1.165-5.81H0v-.545A1.567,1.567,0,0,0-.334-7.409,1.331,1.331,0,0,0-1.4-7.8,1.513,1.513,0,0,0-2.408-7.5a1.045,1.045,0,0,0-.365.844h-2.54A2.551,2.551,0,0,1-4.8-8.183a3.37,3.37,0,0,1,1.441-1.1,5.253,5.253,0,0,1,2.092-.4A4.15,4.15,0,0,1,1.521-8.8,3.09,3.09,0,0,1,2.553-6.319V-2.2A4.546,4.546,0,0,0,2.931-.149V0Zm-2.1-1.767A2.188,2.188,0,0,0-.7-2.017,1.645,1.645,0,0,0,0-2.689V-4.324H-.945q-1.907,0-2.03,1.318l-.009.149a1.017,1.017,0,0,0,.334.782A1.3,1.3,0,0,0-1.736-1.767ZM7.194-9.51V.519a3.4,3.4,0,0,1-.835,2.448,3.174,3.174,0,0,1-2.408.875,5.165,5.165,0,0,1-1.257-.149V1.679a4.768,4.768,0,0,0,.8.079q1.151,0,1.151-1.222V-9.51ZM4.443-11.971a1.251,1.251,0,0,1,.382-.94,1.436,1.436,0,0,1,1.042-.369,1.436,1.436,0,0,1,1.042.369,1.251,1.251,0,0,1,.382.94,1.247,1.247,0,0,1-.391.949,1.443,1.443,0,0,1-1.033.369,1.443,1.443,0,0,1-1.033-.369A1.247,1.247,0,0,1,4.443-11.971ZM13.557.176a4.668,4.668,0,0,1-3.406-1.283A4.561,4.561,0,0,1,8.837-4.526v-.246a5.745,5.745,0,0,1,.554-2.562,4.064,4.064,0,0,1,1.569-1.74,4.4,4.4,0,0,1,2.316-.611,3.947,3.947,0,0,1,3.072,1.23,5,5,0,0,1,1.121,3.489v1.037H11.413a2.36,2.36,0,0,0,.743,1.494,2.245,2.245,0,0,0,1.569.563,2.742,2.742,0,0,0,2.294-1.063l1.248,1.4A3.813,3.813,0,0,1,15.719-.277,5.075,5.075,0,0,1,13.557.176Zm-.29-7.813a1.587,1.587,0,0,0-1.226.512,2.651,2.651,0,0,0-.6,1.466h3.533v-.2a1.891,1.891,0,0,0-.457-1.311A1.638,1.638,0,0,0,13.267-7.638ZM24.06-2.628a.818.818,0,0,0-.461-.734,5.241,5.241,0,0,0-1.481-.479q-3.393-.712-3.393-2.883a2.613,2.613,0,0,1,1.05-2.114,4.237,4.237,0,0,1,2.747-.848,4.56,4.56,0,0,1,2.9.853A2.687,2.687,0,0,1,26.5-6.618h-2.54a1.229,1.229,0,0,0-.352-.9,1.488,1.488,0,0,0-1.1-.356,1.52,1.52,0,0,0-.993.29.916.916,0,0,0-.352.738.783.783,0,0,0,.4.681,4.114,4.114,0,0,0,1.349.448,11.019,11.019,0,0,1,1.6.426A2.628,2.628,0,0,1,26.53-2.733a2.481,2.481,0,0,1-1.116,2.1,4.815,4.815,0,0,1-2.883.8A5.029,5.029,0,0,1,20.408-.25a3.561,3.561,0,0,1-1.455-1.169,2.716,2.716,0,0,1-.527-1.6h2.408a1.326,1.326,0,0,0,.5,1.037,1.987,1.987,0,0,0,1.248.36,1.839,1.839,0,0,0,1.1-.277A.861.861,0,0,0,24.06-2.628Zm8.191-2.2a5.731,5.731,0,0,1,1-3.542,3.237,3.237,0,0,1,2.729-1.318,2.913,2.913,0,0,1,2.294,1.037V-13.5h2.549V0H38.527L38.4-1.011A2.989,2.989,0,0,1,35.96.176a3.228,3.228,0,0,1-2.694-1.323A5.916,5.916,0,0,1,32.251-4.825Zm2.54.189a3.754,3.754,0,0,0,.466,2.051,1.517,1.517,0,0,0,1.354.713,1.7,1.7,0,0,0,1.661-.995V-6.625a1.675,1.675,0,0,0-1.644-.995Q34.792-7.62,34.792-4.636ZM47.167.176a4.668,4.668,0,0,1-3.406-1.283,4.561,4.561,0,0,1-1.314-3.419v-.246A5.745,5.745,0,0,1,43-7.334a4.064,4.064,0,0,1,1.569-1.74,4.4,4.4,0,0,1,2.316-.611,3.947,3.947,0,0,1,3.072,1.23,5,5,0,0,1,1.121,3.489v1.037H45.022a2.36,2.36,0,0,0,.743,1.494,2.245,2.245,0,0,0,1.569.563,2.742,2.742,0,0,0,2.294-1.063l1.248,1.4A3.813,3.813,0,0,1,49.329-.277,5.075,5.075,0,0,1,47.167.176Zm-.29-7.813a1.587,1.587,0,0,0-1.226.512,2.651,2.651,0,0,0-.6,1.466h3.533v-.2a1.891,1.891,0,0,0-.457-1.311A1.638,1.638,0,0,0,46.876-7.638Zm-93.56,28.971a5.7,5.7,0,0,1-1,3.52,3.2,3.2,0,0,1-2.694,1.323,2.963,2.963,0,0,1-2.329-1v4.482h-2.54V16.49h2.355l.088.932a2.985,2.985,0,0,1,2.408-1.107,3.22,3.22,0,0,1,2.733,1.3,5.858,5.858,0,0,1,.976,3.586Zm-2.54-.185a3.743,3.743,0,0,0-.47-2.048,1.532,1.532,0,0,0-1.367-.721,1.663,1.663,0,0,0-1.644.914v3.894a1.692,1.692,0,0,0,1.661.94Q-49.223,24.128-49.223,21.148Zm9.457-2.276a6.9,6.9,0,0,0-.914-.07,1.86,1.86,0,0,0-1.89.976V26h-2.54V16.49h2.4l.07,1.134a2.354,2.354,0,0,1,2.118-1.31,2.662,2.662,0,0,1,.791.114Zm.51,2.285a5.64,5.64,0,0,1,.545-2.522,3.989,3.989,0,0,1,1.569-1.714,4.577,4.577,0,0,1,2.377-.606,4.33,4.33,0,0,1,3.142,1.178,4.727,4.727,0,0,1,1.358,3.2l.018.65a4.97,4.97,0,0,1-1.222,3.511,4.247,4.247,0,0,1-3.278,1.323,4.268,4.268,0,0,1-3.283-1.318,5.058,5.058,0,0,1-1.226-3.586Zm2.54.18a3.555,3.555,0,0,0,.51,2.073,1.682,1.682,0,0,0,1.459.717,1.686,1.686,0,0,0,1.441-.709,3.89,3.89,0,0,0,.519-2.267,3.519,3.519,0,0,0-.519-2.06,1.686,1.686,0,0,0-1.459-.731,1.658,1.658,0,0,0-1.441.726A3.955,3.955,0,0,0-36.716,21.338Zm7.664-.163a5.573,5.573,0,0,1,1.042-3.524A3.375,3.375,0,0,1-25.2,16.314a2.96,2.96,0,0,1,2.435,1.072l.105-.9h2.3v9.193a4.064,4.064,0,0,1-.567,2.171,3.641,3.641,0,0,1-1.6,1.406,5.608,5.608,0,0,1-2.408.483,5.215,5.215,0,0,1-2.039-.417,3.619,3.619,0,0,1-1.5-1.077l1.125-1.547a2.975,2.975,0,0,0,2.3,1.063,2.178,2.178,0,0,0,1.573-.541,2.027,2.027,0,0,0,.563-1.534v-.51a2.938,2.938,0,0,1-2.312.993,3.366,3.366,0,0,1-2.773-1.34,5.572,5.572,0,0,1-1.059-3.555Zm2.54.189a3.47,3.47,0,0,0,.519,2.029,1.65,1.65,0,0,0,1.424.735,1.764,1.764,0,0,0,1.661-.871V19.251a1.76,1.76,0,0,0-1.644-.871,1.66,1.66,0,0,0-1.437.748A3.911,3.911,0,0,0-26.512,21.364Zm13.447-2.492a6.9,6.9,0,0,0-.914-.07,1.86,1.86,0,0,0-1.89.976V26h-2.54V16.49h2.4l.07,1.134a2.354,2.354,0,0,1,2.118-1.31,2.662,2.662,0,0,1,.791.114ZM-6.6,26a2.821,2.821,0,0,1-.255-.853,3.073,3.073,0,0,1-2.4,1.028,3.376,3.376,0,0,1-2.316-.809,2.6,2.6,0,0,1-.918-2.039,2.687,2.687,0,0,1,1.121-2.32,5.529,5.529,0,0,1,3.239-.817h1.169v-.545a1.567,1.567,0,0,0-.338-1.055,1.331,1.331,0,0,0-1.068-.4,1.513,1.513,0,0,0-1.006.308,1.045,1.045,0,0,0-.365.844h-2.54a2.551,2.551,0,0,1,.51-1.529,3.37,3.37,0,0,1,1.441-1.1,5.253,5.253,0,0,1,2.092-.4A4.15,4.15,0,0,1-5.44,17.2a3.09,3.09,0,0,1,1.033,2.483V23.8a4.546,4.546,0,0,0,.378,2.048V26Zm-2.1-1.767a2.188,2.188,0,0,0,1.037-.25,1.645,1.645,0,0,0,.7-.672V21.676h-.949q-1.907,0-2.03,1.318l-.009.149a1.017,1.017,0,0,0,.334.782A1.3,1.3,0,0,0-8.7,24.233ZM-.075,16.49,0,17.554a3.342,3.342,0,0,1,2.733-1.239,2.536,2.536,0,0,1,2.522,1.45,3.265,3.265,0,0,1,2.856-1.45,2.836,2.836,0,0,1,2.3.9,4.141,4.141,0,0,1,.756,2.711V26H8.626V19.936a1.811,1.811,0,0,0-.316-1.182,1.4,1.4,0,0,0-1.116-.374,1.585,1.585,0,0,0-1.582,1.09L5.621,26H3.081V19.944a1.789,1.789,0,0,0-.325-1.2,1.416,1.416,0,0,0-1.107-.369,1.646,1.646,0,0,0-1.564.9V26h-2.54V16.49ZM18.637,26a2.821,2.821,0,0,1-.255-.853,3.073,3.073,0,0,1-2.4,1.028,3.376,3.376,0,0,1-2.316-.809,2.6,2.6,0,0,1-.918-2.039,2.687,2.687,0,0,1,1.121-2.32,5.529,5.529,0,0,1,3.239-.817h1.169v-.545a1.567,1.567,0,0,0-.338-1.055,1.331,1.331,0,0,0-1.068-.4,1.513,1.513,0,0,0-1.006.308,1.045,1.045,0,0,0-.365.844h-2.54a2.551,2.551,0,0,1,.51-1.529,3.37,3.37,0,0,1,1.441-1.1,5.253,5.253,0,0,1,2.092-.4,4.15,4.15,0,0,1,2.791.883,3.09,3.09,0,0,1,1.033,2.483V23.8a4.546,4.546,0,0,0,.378,2.048V26Zm-2.1-1.767a2.188,2.188,0,0,0,1.037-.25,1.645,1.645,0,0,0,.7-.672V21.676h-.949q-1.907,0-2.03,1.318l-.009.149a1.017,1.017,0,0,0,.334.782A1.3,1.3,0,0,0,16.537,24.233Zm10.2-.105a1.666,1.666,0,0,0,1.143-.387,1.355,1.355,0,0,0,.457-1.028h2.382a3.258,3.258,0,0,1-.527,1.771,3.48,3.48,0,0,1-1.419,1.248,4.442,4.442,0,0,1-1.991.444,4.129,4.129,0,0,1-3.217-1.3A5.13,5.13,0,0,1,22.381,21.3v-.167a5.071,5.071,0,0,1,1.169-3.507,4.08,4.08,0,0,1,3.208-1.31,4,4,0,0,1,2.861,1.015,3.594,3.594,0,0,1,1.094,2.7H28.332a1.745,1.745,0,0,0-.457-1.206,1.7,1.7,0,0,0-2.5.183,3.749,3.749,0,0,0-.453,2.1v.264a3.8,3.8,0,0,0,.448,2.113A1.549,1.549,0,0,0,26.732,24.128ZM34.844,26H32.3V16.49h2.549Zm-2.7-11.971a1.251,1.251,0,0,1,.382-.94,1.648,1.648,0,0,1,2.079,0,1.342,1.342,0,0,1,0,1.89,1.629,1.629,0,0,1-2.065,0A1.247,1.247,0,0,1,32.146,14.029Zm4.395,7.128a5.64,5.64,0,0,1,.545-2.522,3.989,3.989,0,0,1,1.569-1.714,4.577,4.577,0,0,1,2.377-.606,4.33,4.33,0,0,1,3.142,1.178,4.727,4.727,0,0,1,1.358,3.2l.018.65a4.97,4.97,0,0,1-1.222,3.511,4.735,4.735,0,0,1-6.561,0,5.058,5.058,0,0,1-1.226-3.586Zm2.54.18a3.555,3.555,0,0,0,.51,2.073,1.831,1.831,0,0,0,2.9.009,3.89,3.89,0,0,0,.519-2.267,3.519,3.519,0,0,0-.519-2.06,1.686,1.686,0,0,0-1.459-.731,1.658,1.658,0,0,0-1.441.726A3.955,3.955,0,0,0,39.081,21.338ZM41.533,12.5H44.3l-2.435,2.725H39.8Zm7.919,3.99.079,1.1a3.32,3.32,0,0,1,2.733-1.274,2.759,2.759,0,0,1,2.25.888,4.142,4.142,0,0,1,.756,2.654V26H52.73V19.918a1.648,1.648,0,0,0-.352-1.173,1.574,1.574,0,0,0-1.169-.365,1.747,1.747,0,0,0-1.608.914V26h-2.54V16.49Z" transform="translate(1244 506.197)" fill="#12263f"/>
    <path id="Trazado_624605" data-name="Trazado 624605" d="M0,0H23.128" transform="translate(180 620.487)" fill="none" stroke="#12263f" stroke-width="2"/>
    <path id="Trazado_624564" data-name="Trazado 624564" d="M594.125,463h-47.3v94.29h47.6" transform="translate(-71.657 56.082)" fill="none" stroke="#12263f" stroke-miterlimit="10" stroke-width="2"/>
    <path id="Trazado_624599" data-name="Trazado 624599" d="M0,21.708V0" transform="translate(625.703 467.489)" fill="none" stroke="#12263f" stroke-width="2"/>
    <path id="Trazado_624606" data-name="Trazado 624606" d="M0,0H23.128" transform="translate(180 620.487)" fill="none" stroke="#12263f" stroke-width="2"/>
    <path id="Trazado_624579" data-name="Trazado 624579" d="M-26.481-5.546h-5.062v3.428H-25.6V0h-8.578V-12.8h8.561v2.136h-5.924v3.05h5.063Zm5.88-1.125L-19-9.51h2.716l-2.707,4.658L-16.172,0H-18.9l-1.7-2.988L-22.28,0h-2.733l2.821-4.852-2.7-4.658h2.725Zm8.578-5.177V-9.51H-10.4v1.863h-1.626V-2.9a1.133,1.133,0,0,0,.2.756,1.015,1.015,0,0,0,.773.229,4.051,4.051,0,0,0,.747-.062V-.053a5.229,5.229,0,0,1-1.538.229,2.425,2.425,0,0,1-2.725-2.7V-7.646h-1.389V-9.51h1.389v-2.338ZM-4.605.176A4.668,4.668,0,0,1-8.011-1.107,4.561,4.561,0,0,1-9.325-4.526v-.246a5.745,5.745,0,0,1,.554-2.562A4.064,4.064,0,0,1-7.2-9.075a4.4,4.4,0,0,1,2.316-.611,3.947,3.947,0,0,1,3.072,1.23A5,5,0,0,1-.694-4.966v1.037H-6.75a2.36,2.36,0,0,0,.743,1.494,2.245,2.245,0,0,0,1.569.563A2.742,2.742,0,0,0-2.145-2.936L-.9-1.538A3.813,3.813,0,0,1-2.443-.277,5.075,5.075,0,0,1-4.605.176ZM-4.9-7.638a1.587,1.587,0,0,0-1.226.512,2.651,2.651,0,0,0-.6,1.466H-3.19v-.2a1.891,1.891,0,0,0-.457-1.311A1.638,1.638,0,0,0-4.9-7.638Zm10.986.51a6.9,6.9,0,0,0-.914-.07,1.86,1.86,0,0,0-1.89.976V0H.747V-9.51h2.4l.07,1.134a2.354,2.354,0,0,1,2.118-1.31,2.662,2.662,0,0,1,.791.114ZM9.65-9.51l.079,1.1a3.32,3.32,0,0,1,2.733-1.274,2.759,2.759,0,0,1,2.25.888,4.142,4.142,0,0,1,.756,2.654V0h-2.54V-6.082a1.648,1.648,0,0,0-.352-1.173,1.574,1.574,0,0,0-1.169-.365A1.747,1.747,0,0,0,9.8-6.706V0H7.26V-9.51ZM22.9,0a2.821,2.821,0,0,1-.255-.853A3.073,3.073,0,0,1,20.25.176a3.376,3.376,0,0,1-2.316-.809,2.6,2.6,0,0,1-.918-2.039,2.687,2.687,0,0,1,1.121-2.32,5.529,5.529,0,0,1,3.239-.817h1.169v-.545a1.567,1.567,0,0,0-.338-1.055,1.331,1.331,0,0,0-1.068-.4,1.513,1.513,0,0,0-1.006.308,1.045,1.045,0,0,0-.365.844h-2.54a2.551,2.551,0,0,1,.51-1.529,3.37,3.37,0,0,1,1.441-1.1,5.253,5.253,0,0,1,2.092-.4A4.15,4.15,0,0,1,24.06-8.8a3.09,3.09,0,0,1,1.033,2.483V-2.2a4.546,4.546,0,0,0,.378,2.048V0ZM20.8-1.767a2.188,2.188,0,0,0,1.037-.25,1.645,1.645,0,0,0,.7-.672V-4.324h-.949q-1.907,0-2.03,1.318l-.009.149a1.017,1.017,0,0,0,.334.782A1.3,1.3,0,0,0,20.8-1.767Zm11.391-.861a.818.818,0,0,0-.461-.734,5.241,5.241,0,0,0-1.481-.479q-3.393-.712-3.393-2.883a2.613,2.613,0,0,1,1.05-2.114,4.237,4.237,0,0,1,2.747-.848,4.56,4.56,0,0,1,2.9.853,2.687,2.687,0,0,1,1.085,2.215H32.1a1.229,1.229,0,0,0-.352-.9,1.488,1.488,0,0,0-1.1-.356,1.52,1.52,0,0,0-.993.29.916.916,0,0,0-.352.738.783.783,0,0,0,.4.681,4.114,4.114,0,0,0,1.349.448,11.019,11.019,0,0,1,1.6.426,2.628,2.628,0,0,1,2.013,2.558,2.481,2.481,0,0,1-1.116,2.1,4.815,4.815,0,0,1-2.883.8A5.029,5.029,0,0,1,28.542-.25a3.561,3.561,0,0,1-1.455-1.169,2.716,2.716,0,0,1-.527-1.6h2.408a1.326,1.326,0,0,0,.5,1.037,1.987,1.987,0,0,0,1.248.36,1.839,1.839,0,0,0,1.1-.277A.861.861,0,0,0,32.194-2.628Z" transform="translate(920.213 703.361)" fill="#12263f"/>
    <path id="Trazado_624585" data-name="Trazado 624585" d="M-27.145-4.509V0h-2.637V-12.8h4.992a5.776,5.776,0,0,1,2.536.527,3.886,3.886,0,0,1,1.683,1.5,4.178,4.178,0,0,1,.589,2.21A3.674,3.674,0,0,1-21.27-5.594a5.363,5.363,0,0,1-3.564,1.085Zm0-2.136h2.355a2.316,2.316,0,0,0,1.6-.492,1.79,1.79,0,0,0,.549-1.406,2.111,2.111,0,0,0-.554-1.521,2.068,2.068,0,0,0-1.529-.6h-2.417Zm14.15-.483a6.9,6.9,0,0,0-.914-.07,1.86,1.86,0,0,0-1.89.976V0h-2.54V-9.51h2.4l.07,1.134a2.354,2.354,0,0,1,2.118-1.31,2.662,2.662,0,0,1,.791.114Zm.51,2.285a5.64,5.64,0,0,1,.545-2.522,3.989,3.989,0,0,1,1.569-1.714,4.577,4.577,0,0,1,2.377-.606A4.33,4.33,0,0,1-4.852-8.508a4.727,4.727,0,0,1,1.358,3.2l.018.65A4.97,4.97,0,0,1-4.7-1.147,4.247,4.247,0,0,1-7.976.176a4.268,4.268,0,0,1-3.283-1.318,5.058,5.058,0,0,1-1.226-3.586Zm2.54.18a3.555,3.555,0,0,0,.51,2.073,1.682,1.682,0,0,0,1.459.717,1.686,1.686,0,0,0,1.441-.709,3.89,3.89,0,0,0,.519-2.267,3.519,3.519,0,0,0-.519-2.06,1.686,1.686,0,0,0-1.459-.731,1.658,1.658,0,0,0-1.441.726A3.955,3.955,0,0,0-9.945-4.662Zm16.594,0a5.7,5.7,0,0,1-1,3.52A3.2,3.2,0,0,1,2.958.176a2.963,2.963,0,0,1-2.329-1V3.656h-2.54V-9.51H.444l.088.932A2.985,2.985,0,0,1,2.94-9.686a3.22,3.22,0,0,1,2.733,1.3A5.858,5.858,0,0,1,6.649-4.8Zm-2.54-.185A3.743,3.743,0,0,0,3.639-6.9,1.532,1.532,0,0,0,2.272-7.62a1.663,1.663,0,0,0-1.644.914v3.894a1.692,1.692,0,0,0,1.661.94Q4.109-1.872,4.109-4.852ZM10.9,0H8.354V-9.51H10.9ZM8.2-11.971a1.251,1.251,0,0,1,.382-.94,1.436,1.436,0,0,1,1.042-.369,1.44,1.44,0,0,1,1.037.369,1.244,1.244,0,0,1,.387.94,1.247,1.247,0,0,1-.391.949,1.443,1.443,0,0,1-1.033.369A1.443,1.443,0,0,1,8.6-11.021,1.247,1.247,0,0,1,8.2-11.971ZM18.505,0a2.821,2.821,0,0,1-.255-.853,3.073,3.073,0,0,1-2.4,1.028,3.376,3.376,0,0,1-2.316-.809,2.6,2.6,0,0,1-.918-2.039,2.687,2.687,0,0,1,1.121-2.32,5.529,5.529,0,0,1,3.239-.817h1.169v-.545a1.567,1.567,0,0,0-.338-1.055,1.331,1.331,0,0,0-1.068-.4,1.513,1.513,0,0,0-1.006.308,1.045,1.045,0,0,0-.365.844h-2.54a2.551,2.551,0,0,1,.51-1.529,3.37,3.37,0,0,1,1.441-1.1,5.253,5.253,0,0,1,2.092-.4,4.15,4.15,0,0,1,2.791.883,3.09,3.09,0,0,1,1.033,2.483V-2.2a4.546,4.546,0,0,0,.378,2.048V0ZM16.4-1.767a2.188,2.188,0,0,0,1.037-.25,1.645,1.645,0,0,0,.7-.672V-4.324H17.2q-1.907,0-2.03,1.318l-.009.149a1.017,1.017,0,0,0,.334.782A1.3,1.3,0,0,0,16.4-1.767ZM27.8-2.628a.818.818,0,0,0-.461-.734,5.241,5.241,0,0,0-1.481-.479Q22.46-4.553,22.46-6.724a2.613,2.613,0,0,1,1.05-2.114,4.237,4.237,0,0,1,2.747-.848,4.56,4.56,0,0,1,2.9.853,2.687,2.687,0,0,1,1.085,2.215H27.7a1.229,1.229,0,0,0-.352-.9,1.488,1.488,0,0,0-1.1-.356,1.52,1.52,0,0,0-.993.29.916.916,0,0,0-.352.738.783.783,0,0,0,.4.681,4.114,4.114,0,0,0,1.349.448,11.019,11.019,0,0,1,1.6.426,2.628,2.628,0,0,1,2.013,2.558,2.481,2.481,0,0,1-1.116,2.1,4.815,4.815,0,0,1-2.883.8A5.029,5.029,0,0,1,24.144-.25a3.561,3.561,0,0,1-1.455-1.169,2.716,2.716,0,0,1-.527-1.6H24.57a1.326,1.326,0,0,0,.5,1.037,1.987,1.987,0,0,0,1.248.36,1.839,1.839,0,0,0,1.1-.277A.861.861,0,0,0,27.8-2.628Z" transform="translate(920.771 622.593)" fill="#12263f"/>
    <path id="Trazado_624584" data-name="Trazado 624584" d="M7.714,0H276.607a7.714,7.714,0,0,1,7.714,7.714v44.34a7.714,7.714,0,0,1-7.714,7.714H7.714A7.714,7.714,0,0,1,0,52.054V7.714A7.714,7.714,0,0,1,7.714,0Z" transform="translate(483.542 581.744)" fill="#fabbd0"/>
    <path id="Trazado_624586" data-name="Trazado 624586" d="M-102.419-3.173l2.9-9.624h2.936L-101.039,0h-2.751l-4.438-12.8h2.927ZM-90.439,0a2.821,2.821,0,0,1-.255-.853,3.073,3.073,0,0,1-2.4,1.028A3.376,3.376,0,0,1-95.41-.633a2.6,2.6,0,0,1-.918-2.039,2.687,2.687,0,0,1,1.121-2.32,5.529,5.529,0,0,1,3.239-.817H-90.8v-.545a1.567,1.567,0,0,0-.338-1.055,1.331,1.331,0,0,0-1.068-.4,1.513,1.513,0,0,0-1.006.308,1.045,1.045,0,0,0-.365.844h-2.54a2.551,2.551,0,0,1,.51-1.529,3.37,3.37,0,0,1,1.441-1.1,5.253,5.253,0,0,1,2.092-.4,4.15,4.15,0,0,1,2.791.883,3.09,3.09,0,0,1,1.033,2.483V-2.2a4.546,4.546,0,0,0,.378,2.048V0Zm-2.1-1.767a2.188,2.188,0,0,0,1.037-.25,1.645,1.645,0,0,0,.7-.672V-4.324h-.949q-1.907,0-2.03,1.318l-.009.149a1.017,1.017,0,0,0,.334.782A1.3,1.3,0,0,0-92.54-1.767Zm11.584-5.361a6.9,6.9,0,0,0-.914-.07,1.86,1.86,0,0,0-1.89.976V0H-86.3V-9.51h2.4l.07,1.134a2.354,2.354,0,0,1,2.118-1.31,2.662,2.662,0,0,1,.791.114ZM-77.054,0H-79.6V-9.51h2.549Zm-2.7-11.971a1.251,1.251,0,0,1,.382-.94,1.436,1.436,0,0,1,1.042-.369,1.44,1.44,0,0,1,1.037.369,1.244,1.244,0,0,1,.387.94,1.247,1.247,0,0,1-.391.949,1.443,1.443,0,0,1-1.033.369,1.443,1.443,0,0,1-1.033-.369A1.247,1.247,0,0,1-79.752-11.971ZM-69.451,0a2.821,2.821,0,0,1-.255-.853,3.073,3.073,0,0,1-2.4,1.028,3.376,3.376,0,0,1-2.316-.809,2.6,2.6,0,0,1-.918-2.039,2.687,2.687,0,0,1,1.121-2.32A5.529,5.529,0,0,1-70.98-5.81h1.169v-.545a1.567,1.567,0,0,0-.338-1.055,1.331,1.331,0,0,0-1.068-.4,1.513,1.513,0,0,0-1.006.308,1.045,1.045,0,0,0-.365.844h-2.54a2.551,2.551,0,0,1,.51-1.529,3.37,3.37,0,0,1,1.441-1.1,5.253,5.253,0,0,1,2.092-.4A4.15,4.15,0,0,1-68.3-8.8a3.09,3.09,0,0,1,1.033,2.483V-2.2a4.546,4.546,0,0,0,.378,2.048V0Zm-2.1-1.767a2.188,2.188,0,0,0,1.037-.25,1.645,1.645,0,0,0,.7-.672V-4.324h-.949q-1.907,0-2.03,1.318l-.009.149a1.017,1.017,0,0,0,.334.782A1.3,1.3,0,0,0-71.552-1.767Zm14.81-2.9A5.758,5.758,0,0,1-57.718-1.1,3.231,3.231,0,0,1-60.442.176a2.969,2.969,0,0,1-2.47-1.187L-63.026,0h-2.285V-13.5h2.54v4.843A2.893,2.893,0,0,1-60.46-9.686a3.258,3.258,0,0,1,2.729,1.279,5.767,5.767,0,0,1,.989,3.6Zm-2.54-.185a3.783,3.783,0,0,0-.457-2.1A1.545,1.545,0,0,0-61.1-7.62a1.676,1.676,0,0,0-1.67.993v3.753a1.7,1.7,0,0,0,1.688,1,1.568,1.568,0,0,0,1.617-1.213A6.257,6.257,0,0,0-59.282-4.852ZM-52.5,0h-2.549V-13.5H-52.5Zm6.469.176a4.668,4.668,0,0,1-3.406-1.283,4.561,4.561,0,0,1-1.314-3.419v-.246a5.745,5.745,0,0,1,.554-2.562,4.064,4.064,0,0,1,1.569-1.74,4.4,4.4,0,0,1,2.316-.611,3.947,3.947,0,0,1,3.072,1.23,5,5,0,0,1,1.121,3.489v1.037h-6.056a2.36,2.36,0,0,0,.743,1.494,2.245,2.245,0,0,0,1.569.563,2.742,2.742,0,0,0,2.294-1.063l1.248,1.4A3.813,3.813,0,0,1-43.866-.277,5.075,5.075,0,0,1-46.028.176Zm-.29-7.813a1.587,1.587,0,0,0-1.226.512,2.651,2.651,0,0,0-.6,1.466h3.533v-.2a1.891,1.891,0,0,0-.457-1.311A1.638,1.638,0,0,0-46.318-7.638Zm10.793,5.01a.818.818,0,0,0-.461-.734,5.241,5.241,0,0,0-1.481-.479q-3.393-.712-3.393-2.883a2.613,2.613,0,0,1,1.05-2.114,4.237,4.237,0,0,1,2.747-.848,4.56,4.56,0,0,1,2.9.853,2.687,2.687,0,0,1,1.085,2.215h-2.54a1.229,1.229,0,0,0-.352-.9,1.488,1.488,0,0,0-1.1-.356,1.52,1.52,0,0,0-.993.29.916.916,0,0,0-.352.738.783.783,0,0,0,.4.681,4.114,4.114,0,0,0,1.349.448,11.019,11.019,0,0,1,1.6.426,2.628,2.628,0,0,1,2.013,2.558,2.481,2.481,0,0,1-1.116,2.1,4.815,4.815,0,0,1-2.883.8A5.029,5.029,0,0,1-39.177-.25a3.561,3.561,0,0,1-1.455-1.169,2.716,2.716,0,0,1-.527-1.6h2.408a1.326,1.326,0,0,0,.5,1.037A1.987,1.987,0,0,0-37-1.626,1.839,1.839,0,0,0-35.9-1.9.861.861,0,0,0-35.525-2.628Zm4.764,5.836-1.327-.694.316-.571a4.567,4.567,0,0,0,.606-2.136V-2.162h2.145L-29.03-.4a4.566,4.566,0,0,1-.492,1.969A5.047,5.047,0,0,1-30.762,3.208Zm10.6-12.718.079,1.063A3.342,3.342,0,0,1-17.35-9.686a2.536,2.536,0,0,1,2.522,1.45,3.265,3.265,0,0,1,2.856-1.45,2.836,2.836,0,0,1,2.3.9,4.141,4.141,0,0,1,.756,2.711V0h-2.549V-6.064a1.811,1.811,0,0,0-.316-1.182,1.4,1.4,0,0,0-1.116-.374,1.585,1.585,0,0,0-1.582,1.09L-14.467,0h-2.54V-6.056a1.789,1.789,0,0,0-.325-1.2,1.416,1.416,0,0,0-1.107-.369,1.646,1.646,0,0,0-1.564.9V0h-2.54V-9.51ZM-2.584.176A4.668,4.668,0,0,1-5.99-1.107,4.561,4.561,0,0,1-7.3-4.526v-.246A5.745,5.745,0,0,1-6.75-7.334a4.064,4.064,0,0,1,1.569-1.74,4.4,4.4,0,0,1,2.316-.611A3.947,3.947,0,0,1,.207-8.455,5,5,0,0,1,1.327-4.966v1.037H-4.729a2.36,2.36,0,0,0,.743,1.494,2.245,2.245,0,0,0,1.569.563A2.742,2.742,0,0,0-.123-2.936l1.248,1.4A3.813,3.813,0,0,1-.422-.277,5.075,5.075,0,0,1-2.584.176Zm-.29-7.813A1.587,1.587,0,0,0-4.1-7.126,2.651,2.651,0,0,0-4.7-5.66h3.533v-.2a1.891,1.891,0,0,0-.457-1.311A1.638,1.638,0,0,0-2.874-7.638Zm.229-5.862H.123l-2.435,2.725H-4.377ZM5.81-11.848V-9.51H7.436v1.863H5.81V-2.9a1.133,1.133,0,0,0,.2.756,1.015,1.015,0,0,0,.773.229,4.051,4.051,0,0,0,.747-.062V-.053A5.229,5.229,0,0,1,5.994.176a2.425,2.425,0,0,1-2.725-2.7V-7.646H1.881V-9.51H3.27v-2.338Zm2.382,7a5.64,5.64,0,0,1,.545-2.522,3.989,3.989,0,0,1,1.569-1.714,4.577,4.577,0,0,1,2.377-.606,4.33,4.33,0,0,1,3.142,1.178,4.727,4.727,0,0,1,1.358,3.2l.018.65a4.97,4.97,0,0,1-1.222,3.511A4.247,4.247,0,0,1,12.7.176,4.268,4.268,0,0,1,9.417-1.143,5.058,5.058,0,0,1,8.191-4.729Zm2.54.18a3.555,3.555,0,0,0,.51,2.073,1.682,1.682,0,0,0,1.459.717,1.686,1.686,0,0,0,1.441-.709,3.89,3.89,0,0,0,.519-2.267,3.519,3.519,0,0,0-.519-2.06,1.686,1.686,0,0,0-1.459-.731,1.658,1.658,0,0,0-1.441.726A3.955,3.955,0,0,0,10.731-4.662Zm7.638-.163a5.731,5.731,0,0,1,1-3.542A3.237,3.237,0,0,1,22.1-9.686,2.913,2.913,0,0,1,24.39-8.648V-13.5h2.549V0H24.645l-.123-1.011A2.989,2.989,0,0,1,22.078.176a3.228,3.228,0,0,1-2.694-1.323A5.916,5.916,0,0,1,18.369-4.825Zm2.54.189a3.754,3.754,0,0,0,.466,2.051,1.517,1.517,0,0,0,1.354.713,1.7,1.7,0,0,0,1.661-.995V-6.625a1.675,1.675,0,0,0-1.644-.995Q20.909-7.62,20.909-4.636Zm7.6-.207a5.64,5.64,0,0,1,.545-2.522,3.989,3.989,0,0,1,1.569-1.714A4.577,4.577,0,0,1,33-9.686a4.33,4.33,0,0,1,3.142,1.178,4.727,4.727,0,0,1,1.358,3.2l.018.65A4.97,4.97,0,0,1,36.3-1.147,4.247,4.247,0,0,1,33.021.176a4.268,4.268,0,0,1-3.283-1.318,5.058,5.058,0,0,1-1.226-3.586Zm2.54.18a3.555,3.555,0,0,0,.51,2.073,1.682,1.682,0,0,0,1.459.717,1.686,1.686,0,0,0,1.441-.709,3.89,3.89,0,0,0,.519-2.267,3.519,3.519,0,0,0-.519-2.06A1.686,1.686,0,0,0,33-7.638a1.658,1.658,0,0,0-1.441.726A3.955,3.955,0,0,0,31.052-4.662ZM44.235-2.628a.818.818,0,0,0-.461-.734,5.241,5.241,0,0,0-1.481-.479Q38.9-4.553,38.9-6.724a2.613,2.613,0,0,1,1.05-2.114A4.237,4.237,0,0,1,42.7-9.686a4.56,4.56,0,0,1,2.9.853,2.687,2.687,0,0,1,1.085,2.215h-2.54a1.229,1.229,0,0,0-.352-.9,1.488,1.488,0,0,0-1.1-.356,1.52,1.52,0,0,0-.993.29.916.916,0,0,0-.352.738.783.783,0,0,0,.4.681,4.114,4.114,0,0,0,1.349.448,11.019,11.019,0,0,1,1.6.426,2.628,2.628,0,0,1,2.013,2.558,2.481,2.481,0,0,1-1.116,2.1,4.815,4.815,0,0,1-2.883.8A5.029,5.029,0,0,1,40.583-.25a3.561,3.561,0,0,1-1.455-1.169,2.716,2.716,0,0,1-.527-1.6H41.01a1.326,1.326,0,0,0,.5,1.037,1.987,1.987,0,0,0,1.248.36,1.839,1.839,0,0,0,1.1-.277A.861.861,0,0,0,44.235-2.628ZM49,3.208l-1.327-.694.316-.571a4.567,4.567,0,0,0,.606-2.136V-2.162h2.145L50.73-.4a4.566,4.566,0,0,1-.492,1.969A5.047,5.047,0,0,1,49,3.208Zm12.173-5.08a1.666,1.666,0,0,0,1.143-.387,1.355,1.355,0,0,0,.457-1.028h2.382a3.258,3.258,0,0,1-.527,1.771A3.48,3.48,0,0,1,63.207-.268a4.442,4.442,0,0,1-1.991.444A4.129,4.129,0,0,1,58-1.121,5.13,5.13,0,0,1,56.821-4.7v-.167A5.071,5.071,0,0,1,57.99-8.376,4.08,4.08,0,0,1,61.2-9.686,4,4,0,0,1,64.059-8.67a3.594,3.594,0,0,1,1.094,2.7H62.771a1.745,1.745,0,0,0-.457-1.206,1.524,1.524,0,0,0-1.16-.464,1.53,1.53,0,0,0-1.34.647,3.749,3.749,0,0,0-.453,2.1v.264a3.8,3.8,0,0,0,.448,2.113A1.549,1.549,0,0,0,61.172-1.872ZM69.284,0H66.735V-13.5h2.549Zm7.6,0a2.821,2.821,0,0,1-.255-.853,3.073,3.073,0,0,1-2.4,1.028,3.376,3.376,0,0,1-2.316-.809A2.6,2.6,0,0,1,71-2.672a2.687,2.687,0,0,1,1.121-2.32,5.529,5.529,0,0,1,3.239-.817h1.169v-.545a1.567,1.567,0,0,0-.338-1.055,1.331,1.331,0,0,0-1.068-.4,1.513,1.513,0,0,0-1.006.308,1.045,1.045,0,0,0-.365.844h-2.54a2.551,2.551,0,0,1,.51-1.529,3.37,3.37,0,0,1,1.441-1.1,5.253,5.253,0,0,1,2.092-.4,4.15,4.15,0,0,1,2.791.883,3.09,3.09,0,0,1,1.033,2.483V-2.2a4.546,4.546,0,0,0,.378,2.048V0Zm-2.1-1.767a2.188,2.188,0,0,0,1.037-.25,1.645,1.645,0,0,0,.7-.672V-4.324h-.949q-1.907,0-2.03,1.318l-.009.149a1.017,1.017,0,0,0,.334.782A1.3,1.3,0,0,0,74.786-1.767Zm11.391-.861a.818.818,0,0,0-.461-.734,5.241,5.241,0,0,0-1.481-.479q-3.393-.712-3.393-2.883a2.613,2.613,0,0,1,1.05-2.114,4.237,4.237,0,0,1,2.747-.848,4.56,4.56,0,0,1,2.9.853A2.687,2.687,0,0,1,88.62-6.618H86.08a1.229,1.229,0,0,0-.352-.9,1.488,1.488,0,0,0-1.1-.356,1.52,1.52,0,0,0-.993.29.916.916,0,0,0-.352.738.783.783,0,0,0,.4.681,4.114,4.114,0,0,0,1.349.448,11.019,11.019,0,0,1,1.6.426,2.628,2.628,0,0,1,2.013,2.558,2.481,2.481,0,0,1-1.116,2.1,4.815,4.815,0,0,1-2.883.8A5.029,5.029,0,0,1,82.525-.25,3.561,3.561,0,0,1,81.07-1.419a2.716,2.716,0,0,1-.527-1.6h2.408a1.326,1.326,0,0,0,.5,1.037,1.987,1.987,0,0,0,1.248.36A1.839,1.839,0,0,0,85.8-1.9.861.861,0,0,0,86.177-2.628Zm8.481,2.8a4.668,4.668,0,0,1-3.406-1.283,4.561,4.561,0,0,1-1.314-3.419v-.246a5.745,5.745,0,0,1,.554-2.562,4.064,4.064,0,0,1,1.569-1.74,4.4,4.4,0,0,1,2.316-.611,3.947,3.947,0,0,1,3.072,1.23,5,5,0,0,1,1.121,3.489v1.037H92.514a2.36,2.36,0,0,0,.743,1.494,2.245,2.245,0,0,0,1.569.563,2.742,2.742,0,0,0,2.294-1.063l1.248,1.4A3.813,3.813,0,0,1,96.82-.277,5.075,5.075,0,0,1,94.658.176Zm-.29-7.813a1.587,1.587,0,0,0-1.226.512,2.651,2.651,0,0,0-.6,1.466h3.533v-.2a1.891,1.891,0,0,0-.457-1.311A1.638,1.638,0,0,0,94.368-7.638Zm10.793,5.01a.818.818,0,0,0-.461-.734,5.241,5.241,0,0,0-1.481-.479q-3.393-.712-3.393-2.883a2.613,2.613,0,0,1,1.05-2.114,4.237,4.237,0,0,1,2.747-.848,4.56,4.56,0,0,1,2.9.853A2.687,2.687,0,0,1,107.6-6.618h-2.54a1.229,1.229,0,0,0-.352-.9,1.488,1.488,0,0,0-1.1-.356,1.52,1.52,0,0,0-.993.29.916.916,0,0,0-.352.738.783.783,0,0,0,.4.681,4.114,4.114,0,0,0,1.349.448,11.019,11.019,0,0,1,1.6.426,2.628,2.628,0,0,1,2.013,2.558,2.481,2.481,0,0,1-1.116,2.1,4.815,4.815,0,0,1-2.883.8,5.029,5.029,0,0,1-2.123-.426,3.561,3.561,0,0,1-1.455-1.169,2.716,2.716,0,0,1-.527-1.6h2.408a1.326,1.326,0,0,0,.5,1.037,1.987,1.987,0,0,0,1.248.36,1.839,1.839,0,0,0,1.1-.277A.861.861,0,0,0,105.161-2.628Z" transform="translate(620.015 617.628)" fill="#12263f"/>
  </g>
</svg>
