<svg xmlns="http://www.w3.org/2000/svg" width="398.412" height="559.313" viewBox="0 0 398.412 559.313">
  <g id="Grupo_895296" data-name="Grupo 895296" transform="translate(-913.801 -658.461)">
    <g id="Grupo_874939" data-name="Grupo 874939" transform="translate(914.34 659)">
      <path id="Trazado_600000" data-name="Trazado 600000" d="M25.709,0h215.1c14.2,0,25.709,16.045,25.709,35.838V421.695c0,19.793-11.51,35.838-25.709,35.838H25.709C11.511,457.533,0,441.487,0,421.695V35.838C0,16.045,11.511,0,25.709,0Z" transform="translate(72.065 47.787)" fill="#0d4aad"/>
      <g id="Grupo_873686" data-name="Grupo 873686">
        <path id="Trazado_1" data-name="Trazado 1" d="M100.712-75.2-45.679,71.192q1.017,6.279,2.63,12.341l156.1-156.1Q106.994-74.179,100.712-75.2Z" transform="translate(47.346 76.866)" fill="none" stroke="#21cbae" stroke-miterlimit="10" stroke-width="1.078"/>
        <path id="Trazado_2" data-name="Trazado 2" d="M112.906-72.715l-156.1,156.1q1.542,5.8,3.6,11.376L124.282-69.119Q118.713-71.177,112.906-72.715Z" transform="translate(47.492 77.012)" fill="none" stroke="#21cbae" stroke-miterlimit="10" stroke-width="1.078"/>
        <path id="Trazado_3" data-name="Trazado 3" d="M160.689-48.491l-179.66,179.66c2.277,2.7,4.652,5.323,7.144,7.829L168.517-41.347C166.012-43.838,163.393-46.214,160.689-48.491Z" transform="translate(48.92 78.44)" fill="none" stroke="#21cbae" stroke-miterlimit="10" stroke-width="1.078"/>
        <path id="Trazado_4" data-name="Trazado 4" d="M152.6-54.647-25.128,123.079q3.091,4.362,6.52,8.452l179.66-179.66Q156.971-51.564,152.6-54.647Z" transform="translate(48.557 78.077)" fill="none" stroke="#21cbae" stroke-miterlimit="10" stroke-width="1.078"/>
        <path id="Trazado_5" data-name="Trazado 5" d="M134.361-65.12-35.6,104.841c1.592,3.342,3.34,6.593,5.206,9.767L144.127-59.913C140.954-61.78,137.7-63.528,134.361-65.12Z" transform="translate(47.94 77.46)" fill="none" stroke="#21cbae" stroke-miterlimit="10" stroke-width="1.078"/>
        <path id="Trazado_6" data-name="Trazado 6" d="M143.838-60.2-30.684,114.318q2.751,4.678,5.883,9.089L152.925-54.319Q148.514-57.447,143.838-60.2Z" transform="translate(48.23 77.75)" fill="none" stroke="#21cbae" stroke-miterlimit="10" stroke-width="1.078"/>
        <path id="Trazado_7" data-name="Trazado 7" d="M124.082-69.319-39.8,94.562q1.99,5.383,4.447,10.526L134.608-64.873Q129.467-67.32,124.082-69.319Z" transform="translate(47.692 77.212)" fill="none" stroke="#21cbae" stroke-miterlimit="10" stroke-width="1.078"/>
        <path id="Trazado_8" data-name="Trazado 8" d="M-38.97,3.8,33.321-68.489A127.883,127.883,0,0,0-38.97,3.8Z" transform="translate(47.741 77.261)" fill="none" stroke="#21cbae" stroke-miterlimit="10" stroke-width="1.078"/>
        <path id="Trazado_9" data-name="Trazado 9" d="M33.67-68.14-38.621,4.151a126.414,126.414,0,0,0-6.264,21.236L54.907-74.4A126.458,126.458,0,0,0,33.67-68.14Z" transform="translate(47.393 76.913)" fill="none" stroke="#21cbae" stroke-miterlimit="10" stroke-width="1.078"/>
        <path id="Trazado_10" data-name="Trazado 10" d="M87.286-76.583-47.064,57.766A127.855,127.855,0,0,0-45.6,71.273L100.793-75.117A127.881,127.881,0,0,0,87.286-76.583Z" transform="translate(47.264 76.784)" fill="none" stroke="#21cbae" stroke-miterlimit="10" stroke-width="1.078"/>
        <path id="Trazado_11" data-name="Trazado 11" d="M80.279-76.773c-2.7,0-5.372.112-8.031.277L-46.976,42.729c-.165,2.658-.277,5.331-.277,8.031,0,2.355.074,4.693.2,7.018L87.3-76.572C84.973-76.7,82.635-76.773,80.279-76.773Z" transform="translate(47.253 76.773)" fill="none" stroke="#21cbae" stroke-miterlimit="10" stroke-width="1.078"/>
        <path id="Trazado_12" data-name="Trazado 12" d="M55.031-74.281-44.761,25.511a127.586,127.586,0,0,0-2.23,17.2L72.232-76.511A127.761,127.761,0,0,0,55.031-74.281Z" transform="translate(47.268 76.788)" fill="none" stroke="#21cbae" stroke-miterlimit="10" stroke-width="1.078"/>
        <path id="Trazado_13" data-name="Trazado 13" d="M200.077,23.422,52.941,170.557a127.65,127.65,0,0,0,13.42,1.552L201.63,36.842A127.585,127.585,0,0,0,200.077,23.422Z" transform="translate(53.159 82.679)" fill="none" stroke="#21cbae" stroke-miterlimit="10" stroke-width="1.078"/>
        <path id="Trazado_14" data-name="Trazado 14" d="M201.159,44.107c0-2.694-.112-5.36-.276-8.012L65.614,171.363c2.653.165,5.319.276,8.012.276,2.307,0,4.6-.069,6.874-.19L200.969,50.981C201.09,48.7,201.159,46.413,201.159,44.107Z" transform="translate(53.906 83.426)" fill="none" stroke="#21cbae" stroke-miterlimit="10" stroke-width="1.078"/>
        <path id="Trazado_15" data-name="Trazado 15" d="M200.141,50.152,79.671,170.621a127.6,127.6,0,0,0,17.058-2.085L198.056,67.209A127.787,127.787,0,0,0,200.141,50.152Z" transform="translate(54.735 84.255)" fill="none" stroke="#21cbae" stroke-miterlimit="10" stroke-width="1.078"/>
        <path id="Trazado_16" data-name="Trazado 16" d="M197.106,66.26,95.779,167.586a126.513,126.513,0,0,0,20.773-5.8l74.753-74.752A126.74,126.74,0,0,0,197.106,66.26Z" transform="translate(55.684 85.204)" fill="none" stroke="#21cbae" stroke-miterlimit="10" stroke-width="1.078"/>
        <path id="Trazado_17" data-name="Trazado 17" d="M190.149,85.877,115.4,160.629A127.893,127.893,0,0,0,190.149,85.877Z" transform="translate(56.84 86.36)" fill="none" stroke="#21cbae" stroke-miterlimit="10" stroke-width="1.078"/>
        <path id="Trazado_18" data-name="Trazado 18" d="M198.054,11.837l-156.7,156.7q6.022,1.646,12.267,2.7L200.76,24.1Q199.7,17.862,198.054,11.837Z" transform="translate(52.476 81.996)" fill="none" stroke="#21cbae" stroke-miterlimit="10" stroke-width="1.078"/>
        <path id="Trazado_19" data-name="Trazado 19" d="M180.972-26.455,3.065,151.452C5.99,153.551,9,155.54,12.1,157.39L186.91-17.42C185.06-20.523,183.071-23.53,180.972-26.455Z" transform="translate(50.219 79.739)" fill="none" stroke="#21cbae" stroke-miterlimit="10" stroke-width="1.078"/>
        <path id="Trazado_20" data-name="Trazado 20" d="M174.868-34.388-4.869,145.349q4.058,3.456,8.4,6.571L181.44-25.987Q178.325-30.327,174.868-34.388Z" transform="translate(49.751 79.271)" fill="none" stroke="#21cbae" stroke-miterlimit="10" stroke-width="1.078"/>
        <path id="Trazado_21" data-name="Trazado 21" d="M195.022,1.157,30.676,165.5q5.537,2.09,11.311,3.663l156.7-156.7Q197.108,6.7,195.022,1.157Z" transform="translate(51.847 81.367)" fill="none" stroke="#21cbae" stroke-miterlimit="10" stroke-width="1.078"/>
        <path id="Trazado_22" data-name="Trazado 22" d="M168.12-41.745-12.225,138.6c2.49,2.505,5.1,4.89,7.79,7.183L175.3-33.954C173.009-36.645,170.625-39.254,168.12-41.745Z" transform="translate(49.318 78.838)" fill="none" stroke="#21cbae" stroke-miterlimit="10" stroke-width="1.078"/>
        <path id="Trazado_23" data-name="Trazado 23" d="M191.12-8.746,20.773,161.6c3.411,1.652,6.915,3.138,10.487,4.486L195.606,1.741C194.258-1.832,192.771-5.336,191.12-8.746Z" transform="translate(51.263 80.783)" fill="none" stroke="#21cbae" stroke-miterlimit="10" stroke-width="1.078"/>
        <path id="Trazado_24" data-name="Trazado 24" d="M186.407-17.923,11.6,156.887c3.156,1.883,6.392,3.645,9.717,5.255L191.661-8.205C190.051-11.531,188.288-14.766,186.407-17.923Z" transform="translate(50.722 80.242)" fill="none" stroke="#21cbae" stroke-miterlimit="10" stroke-width="1.078"/>
      </g>
      <g id="Grupo_873687" data-name="Grupo 873687" transform="translate(141.95 302.564)">
        <g id="Grupo_68" data-name="Grupo 68" transform="translate(112.496 0)">
          <g id="Grupo_67" data-name="Grupo 67" transform="translate(0)">
            <rect id="Rectángulo_193" data-name="Rectángulo 193" width="4.499" height="4.499" transform="translate(137.065 140.246) rotate(-44.999)" fill="#8f9294"/>
            <rect id="Rectángulo_194" data-name="Rectángulo 194" width="4.269" height="4.269" transform="translate(124.605 127.623) rotate(-45)" fill="#8f9294"/>
            <rect id="Rectángulo_195" data-name="Rectángulo 195" width="4.04" height="4.04" transform="translate(112.144 115.001) rotate(-45)" fill="#8f9294"/>
            <rect id="Rectángulo_196" data-name="Rectángulo 196" width="3.811" height="3.811" transform="matrix(0.707, -0.707, 0.707, 0.707, 99.684, 102.379)" fill="#8f9294"/>
            <rect id="Rectángulo_197" data-name="Rectángulo 197" width="3.582" height="3.582" transform="translate(87.223 89.756) rotate(-45)" fill="#8f9294"/>
            <rect id="Rectángulo_198" data-name="Rectángulo 198" width="3.353" height="3.353" transform="matrix(0.707, -0.707, 0.707, 0.707, 74.763, 77.134)" fill="#8f9294"/>
            <rect id="Rectángulo_199" data-name="Rectángulo 199" width="3.124" height="3.124" transform="translate(62.302 64.511) rotate(-45)" fill="#8f9294"/>
            <rect id="Rectángulo_200" data-name="Rectángulo 200" width="2.895" height="2.895" transform="translate(49.842 51.889) rotate(-45.001)" fill="#8f9294"/>
            <rect id="Rectángulo_201" data-name="Rectángulo 201" width="2.666" height="2.666" transform="translate(37.381 39.267) rotate(-45)" fill="#8f9294"/>
            <rect id="Rectángulo_202" data-name="Rectángulo 202" width="2.437" height="2.437" transform="matrix(0.707, -0.707, 0.707, 0.707, 24.921, 26.644)" fill="#8f9294"/>
            <rect id="Rectángulo_203" data-name="Rectángulo 203" width="2.208" height="2.208" transform="translate(12.46 14.022) rotate(-45)" fill="#8f9294"/>
            <rect id="Rectángulo_204" data-name="Rectángulo 204" width="1.979" height="1.979" transform="matrix(0.707, -0.707, 0.707, 0.707, 0, 1.399)" fill="#8f9294"/>
          </g>
        </g>
        <g id="Grupo_70" data-name="Grupo 70" transform="translate(102.269 10.227)">
          <g id="Grupo_69" data-name="Grupo 69" transform="translate(0 0)">
            <rect id="Rectángulo_205" data-name="Rectángulo 205" width="4.499" height="4.499" transform="translate(137.065 140.246) rotate(-44.999)" fill="#8f9294"/>
            <rect id="Rectángulo_206" data-name="Rectángulo 206" width="4.269" height="4.269" transform="translate(124.605 127.624) rotate(-45)" fill="#8f9294"/>
            <rect id="Rectángulo_207" data-name="Rectángulo 207" width="4.04" height="4.04" transform="translate(112.144 115.001) rotate(-44.999)" fill="#8f9294"/>
            <rect id="Rectángulo_208" data-name="Rectángulo 208" width="3.811" height="3.811" transform="translate(99.684 102.379) rotate(-45)" fill="#8f9294"/>
            <rect id="Rectángulo_209" data-name="Rectángulo 209" width="3.582" height="3.582" transform="translate(87.223 89.756) rotate(-45)" fill="#8f9294"/>
            <rect id="Rectángulo_210" data-name="Rectángulo 210" width="3.353" height="3.353" transform="translate(74.763 77.134) rotate(-45)" fill="#8f9294"/>
            <rect id="Rectángulo_211" data-name="Rectángulo 211" width="3.124" height="3.124" transform="translate(62.302 64.511) rotate(-45)" fill="#8f9294"/>
            <rect id="Rectángulo_212" data-name="Rectángulo 212" width="2.895" height="2.895" transform="translate(49.842 51.889) rotate(-45)" fill="#8f9294"/>
            <rect id="Rectángulo_213" data-name="Rectángulo 213" width="2.666" height="2.666" transform="translate(37.381 39.267) rotate(-45)" fill="#8f9294"/>
            <rect id="Rectángulo_214" data-name="Rectángulo 214" width="2.437" height="2.437" transform="translate(24.921 26.644) rotate(-45)" fill="#8f9294"/>
            <rect id="Rectángulo_215" data-name="Rectángulo 215" width="2.208" height="2.208" transform="translate(12.461 14.022) rotate(-45)" fill="#8f9294"/>
            <rect id="Rectángulo_216" data-name="Rectángulo 216" width="1.979" height="1.979" transform="matrix(0.707, -0.707, 0.707, 0.707, 0, 1.399)" fill="#8f9294"/>
          </g>
        </g>
        <g id="Grupo_72" data-name="Grupo 72" transform="translate(92.042 20.454)">
          <g id="Grupo_71" data-name="Grupo 71" transform="translate(0 0)">
            <rect id="Rectángulo_217" data-name="Rectángulo 217" width="4.499" height="4.499" transform="translate(137.065 140.246) rotate(-44.999)" fill="#8f9294"/>
            <rect id="Rectángulo_218" data-name="Rectángulo 218" width="4.27" height="4.27" transform="translate(124.605 127.623) rotate(-44.999)" fill="#8f9294"/>
            <rect id="Rectángulo_219" data-name="Rectángulo 219" width="4.04" height="4.04" transform="translate(112.144 115.001) rotate(-44.999)" fill="#8f9294"/>
            <rect id="Rectángulo_220" data-name="Rectángulo 220" width="3.811" height="3.811" transform="matrix(0.707, -0.707, 0.707, 0.707, 99.684, 102.379)" fill="#8f9294"/>
            <rect id="Rectángulo_221" data-name="Rectángulo 221" width="3.582" height="3.582" transform="translate(87.223 89.756) rotate(-44.999)" fill="#8f9294"/>
            <rect id="Rectángulo_222" data-name="Rectángulo 222" width="3.353" height="3.353" transform="matrix(0.707, -0.707, 0.707, 0.707, 74.763, 77.134)" fill="#8f9294"/>
            <rect id="Rectángulo_223" data-name="Rectángulo 223" width="3.124" height="3.124" transform="matrix(0.707, -0.707, 0.707, 0.707, 62.302, 64.511)" fill="#8f9294"/>
            <rect id="Rectángulo_224" data-name="Rectángulo 224" width="2.895" height="2.895" transform="translate(49.842 51.889) rotate(-44.999)" fill="#8f9294"/>
            <rect id="Rectángulo_225" data-name="Rectángulo 225" width="2.666" height="2.666" transform="translate(37.381 39.267) rotate(-45)" fill="#8f9294"/>
            <rect id="Rectángulo_226" data-name="Rectángulo 226" width="2.437" height="2.437" transform="translate(24.921 26.644) rotate(-44.998)" fill="#8f9294"/>
            <rect id="Rectángulo_227" data-name="Rectángulo 227" width="2.208" height="2.208" transform="translate(12.46 14.022) rotate(-45)" fill="#8f9294"/>
            <rect id="Rectángulo_228" data-name="Rectángulo 228" width="1.979" height="1.979" transform="matrix(0.707, -0.707, 0.707, 0.707, 0, 1.399)" fill="#8f9294"/>
          </g>
        </g>
        <g id="Grupo_74" data-name="Grupo 74" transform="translate(81.815 30.681)">
          <g id="Grupo_73" data-name="Grupo 73" transform="translate(0 0)">
            <rect id="Rectángulo_229" data-name="Rectángulo 229" width="4.498" height="4.498" transform="translate(137.065 140.246) rotate(-45.001)" fill="#8f9294"/>
            <rect id="Rectángulo_230" data-name="Rectángulo 230" width="4.27" height="4.27" transform="translate(124.605 127.624) rotate(-45.001)" fill="#8f9294"/>
            <rect id="Rectángulo_231" data-name="Rectángulo 231" width="4.04" height="4.04" transform="translate(112.144 115.001) rotate(-45)" fill="#8f9294"/>
            <rect id="Rectángulo_232" data-name="Rectángulo 232" width="3.811" height="3.811" transform="matrix(0.707, -0.707, 0.707, 0.707, 99.684, 102.379)" fill="#8f9294"/>
            <rect id="Rectángulo_233" data-name="Rectángulo 233" width="3.582" height="3.582" transform="translate(87.223 89.756) rotate(-45)" fill="#8f9294"/>
            <rect id="Rectángulo_234" data-name="Rectángulo 234" width="3.353" height="3.353" transform="matrix(0.707, -0.707, 0.707, 0.707, 74.763, 77.134)" fill="#8f9294"/>
            <rect id="Rectángulo_235" data-name="Rectángulo 235" width="3.124" height="3.124" transform="translate(62.302 64.511) rotate(-45)" fill="#8f9294"/>
            <rect id="Rectángulo_236" data-name="Rectángulo 236" width="2.895" height="2.895" transform="translate(49.842 51.889) rotate(-45.001)" fill="#8f9294"/>
            <rect id="Rectángulo_237" data-name="Rectángulo 237" width="2.666" height="2.666" transform="translate(37.381 39.267) rotate(-45)" fill="#8f9294"/>
            <rect id="Rectángulo_238" data-name="Rectángulo 238" width="2.437" height="2.437" transform="translate(24.921 26.644) rotate(-45)" fill="#8f9294"/>
            <rect id="Rectángulo_239" data-name="Rectángulo 239" width="2.208" height="2.208" transform="translate(12.46 14.022) rotate(-45)" fill="#8f9294"/>
            <rect id="Rectángulo_240" data-name="Rectángulo 240" width="1.979" height="1.979" transform="translate(0 1.399) rotate(-44.998)" fill="#8f9294"/>
          </g>
        </g>
        <g id="Grupo_76" data-name="Grupo 76" transform="translate(71.588 40.907)">
          <g id="Grupo_75" data-name="Grupo 75" transform="translate(0 0)">
            <rect id="Rectángulo_241" data-name="Rectángulo 241" width="4.499" height="4.499" transform="translate(137.065 140.246) rotate(-45.001)" fill="#8f9294"/>
            <rect id="Rectángulo_242" data-name="Rectángulo 242" width="4.269" height="4.269" transform="translate(124.605 127.624) rotate(-45.001)" fill="#8f9294"/>
            <rect id="Rectángulo_243" data-name="Rectángulo 243" width="4.04" height="4.04" transform="translate(112.144 115.001) rotate(-45)" fill="#8f9294"/>
            <rect id="Rectángulo_244" data-name="Rectángulo 244" width="3.811" height="3.811" transform="matrix(0.707, -0.707, 0.707, 0.707, 99.684, 102.379)" fill="#8f9294"/>
            <rect id="Rectángulo_245" data-name="Rectángulo 245" width="3.582" height="3.582" transform="translate(87.223 89.756) rotate(-45)" fill="#8f9294"/>
            <rect id="Rectángulo_246" data-name="Rectángulo 246" width="3.353" height="3.353" transform="translate(74.763 77.134) rotate(-45.001)" fill="#8f9294"/>
            <rect id="Rectángulo_247" data-name="Rectángulo 247" width="3.124" height="3.124" transform="translate(62.302 64.511) rotate(-45)" fill="#8f9294"/>
            <rect id="Rectángulo_248" data-name="Rectángulo 248" width="2.895" height="2.895" transform="translate(49.842 51.889) rotate(-45.001)" fill="#8f9294"/>
            <rect id="Rectángulo_249" data-name="Rectángulo 249" width="2.666" height="2.666" transform="translate(37.381 39.267) rotate(-45)" fill="#8f9294"/>
            <rect id="Rectángulo_250" data-name="Rectángulo 250" width="2.437" height="2.437" transform="matrix(0.707, -0.707, 0.707, 0.707, 24.921, 26.644)" fill="#8f9294"/>
            <rect id="Rectángulo_251" data-name="Rectángulo 251" width="2.208" height="2.208" transform="translate(12.46 14.022) rotate(-45)" fill="#8f9294"/>
            <rect id="Rectángulo_252" data-name="Rectángulo 252" width="1.979" height="1.979" transform="matrix(0.707, -0.707, 0.707, 0.707, 0, 1.399)" fill="#8f9294"/>
          </g>
        </g>
        <g id="Grupo_78" data-name="Grupo 78" transform="translate(61.361 51.134)">
          <g id="Grupo_77" data-name="Grupo 77" transform="translate(0 0)">
            <rect id="Rectángulo_253" data-name="Rectángulo 253" width="4.499" height="4.499" transform="translate(137.065 140.246) rotate(-45)" fill="#8f9294"/>
            <rect id="Rectángulo_254" data-name="Rectángulo 254" width="4.269" height="4.269" transform="translate(124.605 127.623) rotate(-45)" fill="#8f9294"/>
            <rect id="Rectángulo_255" data-name="Rectángulo 255" width="4.04" height="4.04" transform="translate(112.144 115.001) rotate(-45.001)" fill="#8f9294"/>
            <rect id="Rectángulo_256" data-name="Rectángulo 256" width="3.811" height="3.811" transform="matrix(0.707, -0.707, 0.707, 0.707, 99.684, 102.379)" fill="#8f9294"/>
            <rect id="Rectángulo_257" data-name="Rectángulo 257" width="3.582" height="3.582" transform="matrix(0.707, -0.707, 0.707, 0.707, 87.223, 89.756)" fill="#8f9294"/>
            <rect id="Rectángulo_258" data-name="Rectángulo 258" width="3.353" height="3.353" transform="matrix(0.707, -0.707, 0.707, 0.707, 74.763, 77.134)" fill="#8f9294"/>
            <rect id="Rectángulo_259" data-name="Rectángulo 259" width="3.124" height="3.124" transform="translate(62.302 64.511) rotate(-45)" fill="#8f9294"/>
            <rect id="Rectángulo_260" data-name="Rectángulo 260" width="2.895" height="2.895" transform="translate(49.842 51.889) rotate(-45.001)" fill="#8f9294"/>
            <rect id="Rectángulo_261" data-name="Rectángulo 261" width="2.666" height="2.666" transform="translate(37.381 39.267) rotate(-45)" fill="#8f9294"/>
            <rect id="Rectángulo_262" data-name="Rectángulo 262" width="2.437" height="2.437" transform="matrix(0.707, -0.707, 0.707, 0.707, 24.921, 26.644)" fill="#8f9294"/>
            <rect id="Rectángulo_263" data-name="Rectángulo 263" width="2.208" height="2.208" transform="translate(12.46 14.022) rotate(-45)" fill="#8f9294"/>
            <rect id="Rectángulo_264" data-name="Rectángulo 264" width="1.979" height="1.979" transform="matrix(0.707, -0.707, 0.707, 0.707, 0, 1.399)" fill="#8f9294"/>
          </g>
        </g>
        <g id="Grupo_80" data-name="Grupo 80" transform="translate(51.134 61.361)">
          <g id="Grupo_79" data-name="Grupo 79" transform="translate(0 0)">
            <rect id="Rectángulo_265" data-name="Rectángulo 265" width="4.499" height="4.499" transform="translate(137.065 140.246) rotate(-44.999)" fill="#8f9294"/>
            <rect id="Rectángulo_266" data-name="Rectángulo 266" width="4.269" height="4.269" transform="translate(124.604 127.623) rotate(-45)" fill="#8f9294"/>
            <rect id="Rectángulo_267" data-name="Rectángulo 267" width="4.04" height="4.04" transform="translate(112.144 115.001) rotate(-44.999)" fill="#8f9294"/>
            <rect id="Rectángulo_268" data-name="Rectángulo 268" width="3.811" height="3.811" transform="translate(99.684 102.379) rotate(-45)" fill="#8f9294"/>
            <rect id="Rectángulo_269" data-name="Rectángulo 269" width="3.582" height="3.582" transform="translate(87.223 89.756) rotate(-44.999)" fill="#8f9294"/>
            <rect id="Rectángulo_270" data-name="Rectángulo 270" width="3.353" height="3.353" transform="matrix(0.707, -0.707, 0.707, 0.707, 74.763, 77.134)" fill="#8f9294"/>
            <rect id="Rectángulo_271" data-name="Rectángulo 271" width="3.124" height="3.124" transform="matrix(0.707, -0.707, 0.707, 0.707, 62.302, 64.511)" fill="#8f9294"/>
            <rect id="Rectángulo_272" data-name="Rectángulo 272" width="2.895" height="2.895" transform="translate(49.842 51.889) rotate(-45.001)" fill="#8f9294"/>
            <rect id="Rectángulo_273" data-name="Rectángulo 273" width="2.666" height="2.666" transform="translate(37.381 39.267) rotate(-45)" fill="#8f9294"/>
            <rect id="Rectángulo_274" data-name="Rectángulo 274" width="2.437" height="2.437" transform="translate(24.921 26.644) rotate(-45.002)" fill="#8f9294"/>
            <rect id="Rectángulo_275" data-name="Rectángulo 275" width="2.208" height="2.208" transform="translate(12.46 14.022) rotate(-45)" fill="#8f9294"/>
            <rect id="Rectángulo_276" data-name="Rectángulo 276" width="1.979" height="1.979" transform="matrix(0.707, -0.707, 0.707, 0.707, 0, 1.399)" fill="#8f9294"/>
          </g>
        </g>
        <g id="Grupo_82" data-name="Grupo 82" transform="translate(40.907 71.588)">
          <g id="Grupo_81" data-name="Grupo 81" transform="translate(0 0)">
            <rect id="Rectángulo_277" data-name="Rectángulo 277" width="4.499" height="4.499" transform="translate(137.065 140.246) rotate(-44.999)" fill="#8f9294"/>
            <rect id="Rectángulo_278" data-name="Rectángulo 278" width="4.269" height="4.269" transform="translate(124.605 127.623) rotate(-45)" fill="#8f9294"/>
            <rect id="Rectángulo_279" data-name="Rectángulo 279" width="4.04" height="4.04" transform="translate(112.144 115.001) rotate(-44.999)" fill="#8f9294"/>
            <rect id="Rectángulo_280" data-name="Rectángulo 280" width="3.811" height="3.811" transform="translate(99.684 102.379) rotate(-45)" fill="#8f9294"/>
            <rect id="Rectángulo_281" data-name="Rectángulo 281" width="3.582" height="3.582" transform="translate(87.223 89.756) rotate(-44.999)" fill="#8f9294"/>
            <rect id="Rectángulo_282" data-name="Rectángulo 282" width="3.353" height="3.353" transform="translate(74.763 77.134) rotate(-45)" fill="#8f9294"/>
            <rect id="Rectángulo_283" data-name="Rectángulo 283" width="3.124" height="3.124" transform="matrix(0.707, -0.707, 0.707, 0.707, 62.302, 64.511)" fill="#8f9294"/>
            <rect id="Rectángulo_284" data-name="Rectángulo 284" width="2.895" height="2.895" transform="translate(49.842 51.889) rotate(-45)" fill="#8f9294"/>
            <rect id="Rectángulo_285" data-name="Rectángulo 285" width="2.666" height="2.666" transform="translate(37.381 39.267) rotate(-45)" fill="#8f9294"/>
            <rect id="Rectángulo_286" data-name="Rectángulo 286" width="2.437" height="2.437" transform="translate(24.921 26.644) rotate(-45)" fill="#8f9294"/>
            <rect id="Rectángulo_287" data-name="Rectángulo 287" width="2.208" height="2.208" transform="translate(12.46 14.022) rotate(-45)" fill="#8f9294"/>
            <rect id="Rectángulo_288" data-name="Rectángulo 288" width="1.979" height="1.979" transform="matrix(0.707, -0.707, 0.707, 0.707, 0, 1.399)" fill="#8f9294"/>
          </g>
        </g>
        <g id="Grupo_84" data-name="Grupo 84" transform="translate(30.681 81.815)">
          <g id="Grupo_83" data-name="Grupo 83" transform="translate(0 0)">
            <rect id="Rectángulo_289" data-name="Rectángulo 289" width="4.499" height="4.499" transform="translate(137.065 140.246) rotate(-44.999)" fill="#8f9294"/>
            <rect id="Rectángulo_290" data-name="Rectángulo 290" width="4.27" height="4.27" transform="translate(124.605 127.623) rotate(-44.999)" fill="#8f9294"/>
            <rect id="Rectángulo_291" data-name="Rectángulo 291" width="4.04" height="4.04" transform="translate(112.144 115.001) rotate(-44.999)" fill="#8f9294"/>
            <rect id="Rectángulo_292" data-name="Rectángulo 292" width="3.811" height="3.811" transform="matrix(0.707, -0.707, 0.707, 0.707, 99.684, 102.379)" fill="#8f9294"/>
            <rect id="Rectángulo_293" data-name="Rectángulo 293" width="3.582" height="3.582" transform="translate(87.223 89.756) rotate(-44.999)" fill="#8f9294"/>
            <rect id="Rectángulo_294" data-name="Rectángulo 294" width="3.353" height="3.353" transform="matrix(0.707, -0.707, 0.707, 0.707, 74.763, 77.134)" fill="#8f9294"/>
            <rect id="Rectángulo_295" data-name="Rectángulo 295" width="3.124" height="3.124" transform="matrix(0.707, -0.707, 0.707, 0.707, 62.302, 64.511)" fill="#8f9294"/>
            <rect id="Rectángulo_296" data-name="Rectángulo 296" width="2.895" height="2.895" transform="translate(49.842 51.889) rotate(-44.999)" fill="#8f9294"/>
            <rect id="Rectángulo_297" data-name="Rectángulo 297" width="2.666" height="2.666" transform="matrix(0.707, -0.707, 0.707, 0.707, 37.381, 39.267)" fill="#8f9294"/>
            <rect id="Rectángulo_298" data-name="Rectángulo 298" width="2.437" height="2.437" transform="translate(24.921 26.644) rotate(-44.998)" fill="#8f9294"/>
            <rect id="Rectángulo_299" data-name="Rectángulo 299" width="2.208" height="2.208" transform="translate(12.461 14.022) rotate(-44.998)" fill="#8f9294"/>
            <rect id="Rectángulo_300" data-name="Rectángulo 300" width="1.979" height="1.979" transform="translate(0 1.399) rotate(-44.998)" fill="#8f9294"/>
          </g>
        </g>
        <g id="Grupo_86" data-name="Grupo 86" transform="translate(20.454 92.042)">
          <g id="Grupo_85" data-name="Grupo 85" transform="translate(0 0)">
            <rect id="Rectángulo_301" data-name="Rectángulo 301" width="4.499" height="4.499" transform="matrix(0.707, -0.707, 0.707, 0.707, 137.065, 140.246)" fill="#8f9294"/>
            <rect id="Rectángulo_302" data-name="Rectángulo 302" width="4.27" height="4.27" transform="translate(124.605 127.624) rotate(-45.001)" fill="#8f9294"/>
            <rect id="Rectángulo_303" data-name="Rectángulo 303" width="4.04" height="4.04" transform="translate(112.144 115.001) rotate(-45.001)" fill="#8f9294"/>
            <rect id="Rectángulo_304" data-name="Rectángulo 304" width="3.811" height="3.811" transform="matrix(0.707, -0.707, 0.707, 0.707, 99.684, 102.379)" fill="#8f9294"/>
            <rect id="Rectángulo_305" data-name="Rectángulo 305" width="3.582" height="3.582" transform="translate(87.223 89.756) rotate(-45)" fill="#8f9294"/>
            <rect id="Rectángulo_306" data-name="Rectángulo 306" width="3.353" height="3.353" transform="translate(74.763 77.134) rotate(-45.001)" fill="#8f9294"/>
            <rect id="Rectángulo_307" data-name="Rectángulo 307" width="3.124" height="3.124" transform="translate(62.302 64.512) rotate(-45)" fill="#8f9294"/>
            <rect id="Rectángulo_308" data-name="Rectángulo 308" width="2.895" height="2.895" transform="translate(49.842 51.889) rotate(-45.001)" fill="#8f9294"/>
            <rect id="Rectángulo_309" data-name="Rectángulo 309" width="2.666" height="2.666" transform="translate(37.381 39.267) rotate(-45)" fill="#8f9294"/>
            <rect id="Rectángulo_310" data-name="Rectángulo 310" width="2.437" height="2.437" transform="translate(24.921 26.644) rotate(-45)" fill="#8f9294"/>
            <rect id="Rectángulo_311" data-name="Rectángulo 311" width="2.208" height="2.208" transform="translate(12.461 14.022) rotate(-45)" fill="#8f9294"/>
            <rect id="Rectángulo_312" data-name="Rectángulo 312" width="1.979" height="1.979" transform="translate(0 1.399) rotate(-45)" fill="#8f9294"/>
          </g>
        </g>
        <g id="Grupo_88" data-name="Grupo 88" transform="translate(10.227 102.269)">
          <g id="Grupo_87" data-name="Grupo 87" transform="translate(0 0)">
            <rect id="Rectángulo_313" data-name="Rectángulo 313" width="4.499" height="4.499" transform="translate(137.065 140.246) rotate(-45)" fill="#8f9294"/>
            <rect id="Rectángulo_314" data-name="Rectángulo 314" width="4.269" height="4.269" transform="translate(124.605 127.624) rotate(-45)" fill="#8f9294"/>
            <rect id="Rectángulo_315" data-name="Rectángulo 315" width="4.04" height="4.04" transform="translate(112.144 115.001) rotate(-45)" fill="#8f9294"/>
            <rect id="Rectángulo_316" data-name="Rectángulo 316" width="3.811" height="3.811" transform="matrix(0.707, -0.707, 0.707, 0.707, 99.684, 102.379)" fill="#8f9294"/>
            <rect id="Rectángulo_317" data-name="Rectángulo 317" width="3.582" height="3.582" transform="translate(87.223 89.756) rotate(-45.001)" fill="#8f9294"/>
            <rect id="Rectángulo_318" data-name="Rectángulo 318" width="3.353" height="3.353" transform="matrix(0.707, -0.707, 0.707, 0.707, 74.763, 77.134)" fill="#8f9294"/>
            <rect id="Rectángulo_319" data-name="Rectángulo 319" width="3.124" height="3.124" transform="translate(62.302 64.511) rotate(-45)" fill="#8f9294"/>
            <rect id="Rectángulo_320" data-name="Rectángulo 320" width="2.895" height="2.895" transform="translate(49.842 51.889) rotate(-45.001)" fill="#8f9294"/>
            <rect id="Rectángulo_321" data-name="Rectángulo 321" width="2.666" height="2.666" transform="translate(37.381 39.267) rotate(-45)" fill="#8f9294"/>
            <rect id="Rectángulo_322" data-name="Rectángulo 322" width="2.437" height="2.437" transform="matrix(0.707, -0.707, 0.707, 0.707, 24.921, 26.644)" fill="#8f9294"/>
            <rect id="Rectángulo_323" data-name="Rectángulo 323" width="2.208" height="2.208" transform="translate(12.46 14.022) rotate(-45)" fill="#8f9294"/>
            <rect id="Rectángulo_324" data-name="Rectángulo 324" width="1.979" height="1.979" transform="matrix(0.707, -0.707, 0.707, 0.707, 0, 1.399)" fill="#8f9294"/>
          </g>
        </g>
        <g id="Grupo_90" data-name="Grupo 90" transform="translate(0 112.496)">
          <g id="Grupo_89" data-name="Grupo 89" transform="translate(0 0)">
            <rect id="Rectángulo_325" data-name="Rectángulo 325" width="4.499" height="4.499" transform="translate(137.065 140.246) rotate(-45)" fill="#8f9294"/>
            <rect id="Rectángulo_326" data-name="Rectángulo 326" width="4.269" height="4.269" transform="translate(124.605 127.623) rotate(-45)" fill="#8f9294"/>
            <rect id="Rectángulo_327" data-name="Rectángulo 327" width="4.04" height="4.04" transform="translate(112.144 115.001) rotate(-45)" fill="#8f9294"/>
            <rect id="Rectángulo_328" data-name="Rectángulo 328" width="3.811" height="3.811" transform="translate(99.684 102.379) rotate(-45)" fill="#8f9294"/>
            <rect id="Rectángulo_329" data-name="Rectángulo 329" width="3.582" height="3.582" transform="translate(87.223 89.756) rotate(-45)" fill="#8f9294"/>
            <rect id="Rectángulo_330" data-name="Rectángulo 330" width="3.353" height="3.353" transform="translate(74.763 77.134) rotate(-45)" fill="#8f9294"/>
            <rect id="Rectángulo_331" data-name="Rectángulo 331" width="3.124" height="3.124" transform="matrix(0.707, -0.707, 0.707, 0.707, 62.302, 64.511)" fill="#8f9294"/>
            <rect id="Rectángulo_332" data-name="Rectángulo 332" width="2.895" height="2.895" transform="translate(49.842 51.889) rotate(-45.001)" fill="#8f9294"/>
            <rect id="Rectángulo_333" data-name="Rectángulo 333" width="2.666" height="2.666" transform="translate(37.381 39.267) rotate(-45.002)" fill="#8f9294"/>
            <rect id="Rectángulo_334" data-name="Rectángulo 334" width="2.437" height="2.437" transform="translate(24.921 26.644) rotate(-45.002)" fill="#8f9294"/>
            <rect id="Rectángulo_335" data-name="Rectángulo 335" width="2.208" height="2.208" transform="matrix(0.707, -0.707, 0.707, 0.707, 12.46, 14.022)" fill="#8f9294"/>
            <rect id="Rectángulo_336" data-name="Rectángulo 336" width="1.979" height="1.979" transform="matrix(0.707, -0.707, 0.707, 0.707, 0, 1.399)" fill="#8f9294"/>
          </g>
        </g>
      </g>
      <g id="Grupo_873688" data-name="Grupo 873688" transform="translate(312.474 4.216)">
        <path id="Trazado_34" data-name="Trazado 34" d="M697.8,390.082l-10.487,18.163h20.973Z" transform="translate(-687.318 -237.434)" fill="#fdfdfd"/>
        <path id="Trazado_35" data-name="Trazado 35" d="M697.8,361.354l-10.487,18.163h20.973Z" transform="translate(-687.318 -239.127)" fill="#fdfdfd"/>
        <path id="Trazado_36" data-name="Trazado 36" d="M697.8,332.626,687.318,350.79h20.973Z" transform="translate(-687.318 -240.82)" fill="#fdfdfd"/>
        <path id="Trazado_37" data-name="Trazado 37" d="M697.559,245.931l-6.084,10.537h12.167Z" transform="translate(-687.072 -245.931)" fill="#f13b76"/>
      </g>
      <g id="Grupo_875933" data-name="Grupo 875933" transform="translate(0 395.467)">
        <g id="Grupo_4" data-name="Grupo 4" transform="translate(0)">
          <rect id="Rectángulo_4" data-name="Rectángulo 4" width="4.728" height="4.728" fill="none" stroke="#fecb27" stroke-miterlimit="10" stroke-width="1.078"/>
          <rect id="Rectángulo_5" data-name="Rectángulo 5" width="4.728" height="4.728" transform="translate(36.133)" fill="none" stroke="#fecb27" stroke-miterlimit="10" stroke-width="1.078"/>
          <rect id="Rectángulo_6" data-name="Rectángulo 6" width="4.728" height="4.728" transform="translate(72.267)" fill="none" stroke="#fecb27" stroke-miterlimit="10" stroke-width="1.078"/>
          <rect id="Rectángulo_7" data-name="Rectángulo 7" width="4.728" height="4.728" transform="translate(108.4)" fill="none" stroke="#fecb27" stroke-miterlimit="10" stroke-width="1.078"/>
          <rect id="Rectángulo_8" data-name="Rectángulo 8" width="4.728" height="4.728" transform="translate(144.533)" fill="none" stroke="#fecb27" stroke-miterlimit="10" stroke-width="1.078"/>
          <rect id="Rectángulo_9" data-name="Rectángulo 9" width="4.728" height="4.728" transform="translate(180.666)" fill="none" stroke="#fecb27" stroke-miterlimit="10" stroke-width="1.078"/>
        </g>
        <g id="Grupo_5" data-name="Grupo 5" transform="translate(0 26.34)">
          <rect id="Rectángulo_10" data-name="Rectángulo 10" width="4.728" height="4.728" fill="none" stroke="#fecb27" stroke-miterlimit="10" stroke-width="1.078"/>
          <rect id="Rectángulo_11" data-name="Rectángulo 11" width="4.728" height="4.728" transform="translate(36.133)" fill="none" stroke="#fecb27" stroke-miterlimit="10" stroke-width="1.078"/>
          <rect id="Rectángulo_12" data-name="Rectángulo 12" width="4.728" height="4.728" transform="translate(72.267)" fill="none" stroke="#fecb27" stroke-miterlimit="10" stroke-width="1.078"/>
          <rect id="Rectángulo_13" data-name="Rectángulo 13" width="4.728" height="4.728" transform="translate(108.4)" fill="none" stroke="#fecb27" stroke-miterlimit="10" stroke-width="1.078"/>
          <rect id="Rectángulo_14" data-name="Rectángulo 14" width="4.728" height="4.728" transform="translate(144.533)" fill="none" stroke="#fecb27" stroke-miterlimit="10" stroke-width="1.078"/>
          <rect id="Rectángulo_15" data-name="Rectángulo 15" width="4.728" height="4.728" transform="translate(180.666)" fill="none" stroke="#fecb27" stroke-miterlimit="10" stroke-width="1.078"/>
        </g>
        <g id="Grupo_6" data-name="Grupo 6" transform="translate(0 52.68)">
          <rect id="Rectángulo_16" data-name="Rectángulo 16" width="4.728" height="4.728" fill="none" stroke="#fecb27" stroke-miterlimit="10" stroke-width="1.078"/>
          <rect id="Rectángulo_17" data-name="Rectángulo 17" width="4.728" height="4.728" transform="translate(36.133)" fill="none" stroke="#fecb27" stroke-miterlimit="10" stroke-width="1.078"/>
          <rect id="Rectángulo_18" data-name="Rectángulo 18" width="4.728" height="4.728" transform="translate(72.267)" fill="none" stroke="#fecb27" stroke-miterlimit="10" stroke-width="1.078"/>
          <rect id="Rectángulo_19" data-name="Rectángulo 19" width="4.728" height="4.728" transform="translate(108.4)" fill="none" stroke="#fecb27" stroke-miterlimit="10" stroke-width="1.078"/>
          <rect id="Rectángulo_20" data-name="Rectángulo 20" width="4.728" height="4.728" transform="translate(144.533)" fill="none" stroke="#fecb27" stroke-miterlimit="10" stroke-width="1.078"/>
          <rect id="Rectángulo_21" data-name="Rectángulo 21" width="4.728" height="4.728" transform="translate(180.666)" fill="none" stroke="#fecb27" stroke-miterlimit="10" stroke-width="1.078"/>
        </g>
        <g id="Grupo_7" data-name="Grupo 7" transform="translate(0 79.02)">
          <rect id="Rectángulo_22" data-name="Rectángulo 22" width="4.728" height="4.728" fill="none" stroke="#fecb27" stroke-miterlimit="10" stroke-width="1.078"/>
          <rect id="Rectángulo_23" data-name="Rectángulo 23" width="4.728" height="4.728" transform="translate(36.133)" fill="none" stroke="#fecb27" stroke-miterlimit="10" stroke-width="1.078"/>
          <rect id="Rectángulo_24" data-name="Rectángulo 24" width="4.728" height="4.728" transform="translate(72.267)" fill="none" stroke="#fecb27" stroke-miterlimit="10" stroke-width="1.078"/>
          <rect id="Rectángulo_25" data-name="Rectángulo 25" width="4.728" height="4.728" transform="translate(108.4)" fill="none" stroke="#fecb27" stroke-miterlimit="10" stroke-width="1.078"/>
          <rect id="Rectángulo_26" data-name="Rectángulo 26" width="4.728" height="4.728" transform="translate(144.533)" fill="none" stroke="#fecb27" stroke-miterlimit="10" stroke-width="1.078"/>
          <rect id="Rectángulo_27" data-name="Rectángulo 27" width="4.728" height="4.728" transform="translate(180.666)" fill="none" stroke="#fecb27" stroke-miterlimit="10" stroke-width="1.078"/>
        </g>
        <g id="Grupo_8" data-name="Grupo 8" transform="translate(0 105.36)">
          <rect id="Rectángulo_28" data-name="Rectángulo 28" width="4.728" height="4.728" fill="none" stroke="#fecb27" stroke-miterlimit="10" stroke-width="1.078"/>
          <rect id="Rectángulo_29" data-name="Rectángulo 29" width="4.728" height="4.728" transform="translate(36.133)" fill="none" stroke="#fecb27" stroke-width="1"/>
          <rect id="Rectángulo_30" data-name="Rectángulo 30" width="4.728" height="4.728" transform="translate(72.267)" fill="none" stroke="#fecb27" stroke-width="1"/>
          <rect id="Rectángulo_31" data-name="Rectángulo 31" width="4.728" height="4.728" transform="translate(108.4)" fill="none" stroke="#fecb27" stroke-miterlimit="10" stroke-width="1.078"/>
          <rect id="Rectángulo_32" data-name="Rectángulo 32" width="4.728" height="4.728" transform="translate(144.533)" fill="none" stroke="#fecb27" stroke-miterlimit="10" stroke-width="1.078"/>
          <rect id="Rectángulo_33" data-name="Rectángulo 33" width="4.728" height="4.728" transform="translate(180.666)" fill="none" stroke="#fecb27" stroke-miterlimit="10" stroke-width="1.078"/>
        </g>
        <g id="Grupo_9" data-name="Grupo 9" transform="translate(0 131.701)">
          <rect id="Rectángulo_34" data-name="Rectángulo 34" width="4.728" height="4.728" fill="none" stroke="#fecb27" stroke-miterlimit="10" stroke-width="1.078"/>
          <rect id="Rectángulo_35" data-name="Rectángulo 35" width="4.728" height="4.728" transform="translate(36.133)" fill="none" stroke="#fecb27" stroke-miterlimit="10" stroke-width="1.078"/>
          <rect id="Rectángulo_36" data-name="Rectángulo 36" width="4.728" height="4.728" transform="translate(72.267)" fill="none" stroke="#fecb27" stroke-miterlimit="10" stroke-width="1.078"/>
          <rect id="Rectángulo_37" data-name="Rectángulo 37" width="4.728" height="4.728" transform="translate(108.4)" fill="none" stroke="#fecb27" stroke-width="1"/>
          <rect id="Rectángulo_38" data-name="Rectángulo 38" width="4.728" height="4.728" transform="translate(144.533)" fill="none" stroke="#fecb27" stroke-miterlimit="10" stroke-width="1.078"/>
          <rect id="Rectángulo_39" data-name="Rectángulo 39" width="4.728" height="4.728" transform="translate(180.666)" fill="none" stroke="#fecb27" stroke-miterlimit="10" stroke-width="1.078"/>
        </g>
        <g id="Grupo_10" data-name="Grupo 10" transform="translate(0 158.041)">
          <rect id="Rectángulo_40" data-name="Rectángulo 40" width="4.728" height="4.728" fill="none" stroke="#fecb27" stroke-miterlimit="10" stroke-width="1.078"/>
          <rect id="Rectángulo_41" data-name="Rectángulo 41" width="4.728" height="4.728" transform="translate(36.133)" fill="none" stroke="#fecb27" stroke-miterlimit="10" stroke-width="1.078"/>
          <rect id="Rectángulo_42" data-name="Rectángulo 42" width="4.728" height="4.728" transform="translate(72.267)" fill="none" stroke="#fecb27" stroke-miterlimit="10" stroke-width="1.078"/>
          <rect id="Rectángulo_43" data-name="Rectángulo 43" width="4.728" height="4.728" transform="translate(108.4)" fill="none" stroke="#fecb27" stroke-miterlimit="10" stroke-width="1.078"/>
          <rect id="Rectángulo_44" data-name="Rectángulo 44" width="4.728" height="4.728" transform="translate(144.533)" fill="none" stroke="#fecb27" stroke-width="1"/>
          <rect id="Rectángulo_45" data-name="Rectángulo 45" width="4.728" height="4.728" transform="translate(180.666)" fill="none" stroke="#fecb27" stroke-miterlimit="10" stroke-width="1.078"/>
        </g>
      </g>
      <g id="Grupo_895333" data-name="Grupo 895333" transform="translate(-2074.16 4.053)">
        <path id="Trazado_624117" data-name="Trazado 624117" d="M2228.439,114.452c-21.727,19.216-39.689,46.6-52.7,79.055-14.087,35.147-35.145,65.205-44.407,104.035-6.58,27.58-6.594,58.808.756,85.944s22.177,49.757,40.435,60.048c19.916,11.225,41.934,7.648,63.2,7.554,35.6-.157,71.119,9.9,106.647,6.44s73.1-23.754,91.893-69.184c19.955-48.228,13.074-108.707,3.82-160.607-5.561-31.185-14.63-61.506-29.05-85.442-17.156-28.478-38.447-37.98-62.281-46.6C2318.7,85.538,2288.527,83,2260.348,93.479,2249.845,97.384,2238.761,105.322,2228.439,114.452Z" transform="translate(-6.265)" fill="#dce4ff"/>
        <g id="Grupo_895308" data-name="Grupo 895308" transform="translate(2166.614 159.2)">
          <g id="Grupo_895304" data-name="Grupo 895304">
            <rect id="Rectángulo_302480" data-name="Rectángulo 302480" width="78.17" height="28.902" transform="translate(105.814 198.702)" fill="#06355c"/>
            <rect id="Rectángulo_302481" data-name="Rectángulo 302481" width="78.17" height="3.106" transform="translate(105.814 201.735)" fill="#1d2540"/>
            <path id="Trazado_624118" data-name="Trazado 624118" d="M2395.692,445.009h-99.707l-10.716,16.9h121.14Z" transform="translate(-2200.939 -222.513)" fill="#1d2540"/>
            <rect id="Rectángulo_302482" data-name="Rectángulo 302482" width="289.798" height="201.735" rx="8.182" fill="#343e6e"/>
            <path id="Trazado_624119" data-name="Trazado 624119" d="M2472.635,350.772h-289.8v-169.3a6.72,6.72,0,0,1,6.72-6.72H2465.87a6.765,6.765,0,0,1,6.766,6.766Z" transform="translate(-2182.838 -174.753)" fill="#06355c"/>
            <rect id="Rectángulo_302483" data-name="Rectángulo 302483" width="261.073" height="150.775" rx="3.208" transform="translate(14.362 12.003)" fill="#c4d2ff"/>
            <g id="Grupo_895303" data-name="Grupo 895303" transform="translate(98.122 183.58)">
              <g id="Grupo_895298" data-name="Grupo 895298" transform="translate(43.413 1.438)">
                <path id="Trazado_624120" data-name="Trazado 624120" d="M2361.482,402.85a3.364,3.364,0,1,1-3.364-3.364A3.364,3.364,0,0,1,2361.482,402.85Z" transform="translate(-2354.754 -399.486)" fill="#1d2540"/>
              </g>
              <g id="Grupo_895299" data-name="Grupo 895299" transform="translate(62.964)">
                <path id="Trazado_624121" data-name="Trazado 624121" d="M2388.1,402.541a4.8,4.8,0,1,1-4.8-4.8A4.8,4.8,0,0,1,2388.1,402.541Z" transform="translate(-2378.501 -397.739)" fill="#1d2540"/>
              </g>
              <g id="Grupo_895300" data-name="Grupo 895300" transform="translate(83.951)">
                <path id="Trazado_624122" data-name="Trazado 624122" d="M2413.6,402.541a4.8,4.8,0,1,1-4.8-4.8A4.8,4.8,0,0,1,2413.6,402.541Z" transform="translate(-2403.994 -397.739)" fill="#1d2540"/>
              </g>
              <g id="Grupo_895301" data-name="Grupo 895301">
                <path id="Trazado_624123" data-name="Trazado 624123" d="M2311.625,402.541a4.8,4.8,0,1,1-4.8-4.8A4.8,4.8,0,0,1,2311.625,402.541Z" transform="translate(-2302.022 -397.739)" fill="#1d2540"/>
              </g>
              <g id="Grupo_895302" data-name="Grupo 895302" transform="translate(20.988)">
                <path id="Trazado_624124" data-name="Trazado 624124" d="M2337.118,402.541a4.8,4.8,0,1,1-4.8-4.8A4.8,4.8,0,0,1,2337.118,402.541Z" transform="translate(-2327.515 -397.739)" fill="#1d2540"/>
              </g>
            </g>
            <path id="Trazado_624125" data-name="Trazado 624125" d="M2306.2,189.332l-105.92,110.453V235.91l44.592-46.578Z" transform="translate(-2185.921 -177.329)" fill="#dce7f4" opacity="0.05"/>
            <path id="Trazado_624126" data-name="Trazado 624126" d="M2336.255,189.287,2200.283,331.1V308.682l114.473-119.358Z" transform="translate(-2185.921 -177.321)" fill="#dce7f4" opacity="0.05"/>
          </g>
          <rect id="Rectángulo_302484" data-name="Rectángulo 302484" width="77.947" height="77.947" rx="23.521" transform="translate(186.874 20.966)" fill="#7186e2"/>
          <path id="Trazado_624127" data-name="Trazado 624127" d="M2476.138,242.373a24.159,24.159,0,1,1-24.159-24.159A24.066,24.066,0,0,1,2476.138,242.373Z" transform="translate(-2226.131 -182.433)" fill="#0b5999"/>
          <circle id="Elipse_6292" data-name="Elipse 6292" cx="8.206" cy="8.206" r="8.206" transform="translate(215.976 58.68) rotate(-76.717)" fill="#fff"/>
          <path id="Trazado_624128" data-name="Trazado 624128" d="M2471.043,264.771a24.156,24.156,0,0,1-35.342,0,18.5,18.5,0,0,1,35.342,0Z" transform="translate(-2227.524 -188.358)" fill="#fff"/>
          <rect id="Rectángulo_302485" data-name="Rectángulo 302485" width="51.311" height="5.011" transform="translate(126.023 22.287)" fill="#5564a2"/>
          <rect id="Rectángulo_302486" data-name="Rectángulo 302486" width="80.279" height="5.011" transform="translate(97.055 36.45)" fill="#5564a2"/>
          <rect id="Rectángulo_302487" data-name="Rectángulo 302487" width="16.725" height="5.011" transform="translate(160.609 50.612)" fill="#5564a2"/>
          <rect id="Rectángulo_302488" data-name="Rectángulo 302488" width="46.132" height="5.011" transform="translate(131.202 66.299)" fill="#5564a2"/>
          <rect id="Rectángulo_302489" data-name="Rectángulo 302489" width="43.036" height="5.011" transform="translate(110.878 50.612)" fill="#5564a2"/>
          <rect id="Rectángulo_302490" data-name="Rectángulo 302490" width="37.824" height="5.011" transform="translate(78.143 22.287)" fill="#5564a2"/>
          <rect id="Rectángulo_302491" data-name="Rectángulo 302491" width="146.579" height="49.681" rx="15.226" transform="translate(117.649 105.929)" fill="#4d64c2"/>
          <path id="Trazado_624129" data-name="Trazado 624129" d="M2411.8,337.891l-.486,4.812a14.814,14.814,0,0,1-6.776-2.414l2.659-4.038A9.971,9.971,0,0,0,2411.8,337.891Z" transform="translate(-2222.016 -203.293)" fill="#6a7bcb"/>
          <path id="Trazado_624130" data-name="Trazado 624130" d="M2429.076,325.218a14.859,14.859,0,0,1-14.858,14.86q-.735,0-1.452-.069l.486-4.812c.319.03.641.046.967.046a10.031,10.031,0,0,0,9.616-12.867l4.637-1.369A14.812,14.812,0,0,1,2429.076,325.218Z" transform="translate(-2223.471 -200.599)" fill="#ef3c79"/>
          <path id="Trazado_624131" data-name="Trazado 624131" d="M2416.187,308.884l-1.577,4.567a10.029,10.029,0,0,0-8.839,17.821l-2.659,4.038a14.862,14.862,0,0,1,13.075-26.426Z" transform="translate(-2220.593 -198.313)" fill="#c4d2ff"/>
          <path id="Trazado_624132" data-name="Trazado 624132" d="M2429.484,318.9l-4.637,1.369a10.047,10.047,0,0,0-6.346-6.64l1.577-4.567A14.883,14.883,0,0,1,2429.484,318.9Z" transform="translate(-2224.484 -198.487)" fill="#6a7bcb"/>
          <path id="Trazado_624133" data-name="Trazado 624133" d="M2375.971,342.491h-34.525a2.927,2.927,0,0,1-2.918-2.919h0a2.927,2.927,0,0,1,2.918-2.918h34.525a2.926,2.926,0,0,1,2.917,2.918h0A2.927,2.927,0,0,1,2375.971,342.491Z" transform="translate(-2210.351 -203.364)" fill="#a9c5db"/>
          <path id="Trazado_624134" data-name="Trazado 624134" d="M2480.393,342.491h-34.525a2.927,2.927,0,0,1-2.918-2.919h0a2.927,2.927,0,0,1,2.918-2.918h34.525a2.927,2.927,0,0,1,2.919,2.918h0A2.927,2.927,0,0,1,2480.393,342.491Z" transform="translate(-2228.805 -203.364)" fill="#a9c5db"/>
          <g id="Grupo_895305" data-name="Grupo 895305" transform="translate(122.797 144.047)">
            <path id="Trazado_624135" data-name="Trazado 624135" d="M2372.182,351.028h-39.534a.656.656,0,0,1-.654-.654h0a.656.656,0,0,1,.654-.655h39.534a.656.656,0,0,1,.654.655h0A.656.656,0,0,1,2372.182,351.028Z" transform="translate(-2331.994 -349.72)" fill="#a9c5db"/>
            <path id="Trazado_624136" data-name="Trazado 624136" d="M2372.182,355.062h-39.534a.656.656,0,0,1-.654-.654h0a.656.656,0,0,1,.654-.655h39.534a.656.656,0,0,1,.654.655h0A.656.656,0,0,1,2372.182,355.062Z" transform="translate(-2331.994 -350.433)" fill="#a9c5db"/>
            <path id="Trazado_624137" data-name="Trazado 624137" d="M2372.182,359.1h-39.534a.656.656,0,0,1-.654-.654h0a.656.656,0,0,1,.654-.655h39.534a.656.656,0,0,1,.654.655h0A.656.656,0,0,1,2372.182,359.1Z" transform="translate(-2331.994 -351.146)" fill="#a9c5db"/>
          </g>
          <g id="Grupo_895306" data-name="Grupo 895306" transform="translate(169.937 144.047)">
            <path id="Trazado_624138" data-name="Trazado 624138" d="M2429.439,351.028h-39.533a.657.657,0,0,1-.655-.654h0a.657.657,0,0,1,.655-.655h39.533a.657.657,0,0,1,.655.655h0A.657.657,0,0,1,2429.439,351.028Z" transform="translate(-2389.252 -349.72)" fill="#a9c5db"/>
            <path id="Trazado_624139" data-name="Trazado 624139" d="M2429.439,355.062h-39.533a.657.657,0,0,1-.655-.654h0a.657.657,0,0,1,.655-.655h39.533a.657.657,0,0,1,.655.655h0A.657.657,0,0,1,2429.439,355.062Z" transform="translate(-2389.252 -350.433)" fill="#a9c5db"/>
            <path id="Trazado_624140" data-name="Trazado 624140" d="M2429.439,359.1h-39.533a.657.657,0,0,1-.655-.654h0a.657.657,0,0,1,.655-.655h39.533a.657.657,0,0,1,.655.655h0A.657.657,0,0,1,2429.439,359.1Z" transform="translate(-2389.252 -351.146)" fill="#a9c5db"/>
          </g>
          <g id="Grupo_895307" data-name="Grupo 895307" transform="translate(217.077 144.047)">
            <path id="Trazado_624141" data-name="Trazado 624141" d="M2486.7,351.028h-39.534a.656.656,0,0,1-.654-.654h0a.656.656,0,0,1,.654-.655H2486.7a.656.656,0,0,1,.654.655h0A.656.656,0,0,1,2486.7,351.028Z" transform="translate(-2446.511 -349.72)" fill="#a9c5db"/>
            <path id="Trazado_624142" data-name="Trazado 624142" d="M2486.7,355.062h-39.534a.656.656,0,0,1-.654-.654h0a.656.656,0,0,1,.654-.655H2486.7a.656.656,0,0,1,.654.655h0A.656.656,0,0,1,2486.7,355.062Z" transform="translate(-2446.511 -350.433)" fill="#a9c5db"/>
            <path id="Trazado_624143" data-name="Trazado 624143" d="M2486.7,359.1h-39.534a.656.656,0,0,1-.654-.654h0a.656.656,0,0,1,.654-.655H2486.7a.656.656,0,0,1,.654.655h0A.656.656,0,0,1,2486.7,359.1Z" transform="translate(-2446.511 -351.146)" fill="#a9c5db"/>
          </g>
        </g>
        <g id="Grupo_895332" data-name="Grupo 895332" transform="translate(2091.033 183.31)">
          <g id="Grupo_895314" data-name="Grupo 895314" transform="translate(0 173.865)">
            <g id="Grupo_895309" data-name="Grupo 895309" transform="translate(11.75 27.121)">
              <path id="Trazado_624144" data-name="Trazado 624144" d="M2351.929,473.712c-25.564,19.047-57.552,27.925-89.331,30.454s-69.53,6.208-95.421-7.463c-2.167-1.144-6.183.739-8.428-.2-11.983-4.987-23.333-11.4-32.976-20.236a103.445,103.445,0,0,1-20.138-24.842c71-3.3,142.7-6.668,212.478,6.851C2330.4,460.659,2344.482,463.657,2351.929,473.712Z" transform="translate(-2105.363 -448.222)" fill="#465ab3"/>
              <path id="Trazado_624145" data-name="Trazado 624145" d="M2218.819,506.826c-18.93,0-37.2-2.211-51.827-9.937-1.046-.553-2.647-.334-4.194-.124a8.7,8.7,0,0,1-4.211-.062c-13.453-5.6-24.265-12.234-33.055-20.287a103.834,103.834,0,0,1-20.19-24.907.273.273,0,0,1,.224-.409l.565-.026c69.983-3.249,142.348-6.608,211.977,6.882,11.074,2.145,26.241,5.084,33.983,15.538a.273.273,0,0,1-.057.381,146.075,146.075,0,0,1-42.414,21.462,205.955,205.955,0,0,1-47.059,9.045l-3.766.3C2245.838,505.727,2232.163,506.826,2218.819,506.826Zm-53.608-10.832a4.334,4.334,0,0,1,2.035.412c24.8,13.1,60.24,10.247,91.5,7.734l3.767-.3c35.834-2.852,65.767-13.026,88.97-30.237-7.666-10.107-22.576-13-33.485-15.109-69.564-13.477-141.9-10.12-211.848-6.873l-.116,0a103.4,103.4,0,0,0,19.861,24.39c8.742,8.009,19.5,14.612,32.9,20.185a8.363,8.363,0,0,0,3.929.024A19.067,19.067,0,0,1,2165.211,495.994Z" transform="translate(-2105.305 -448.167)" fill="#465ab3"/>
            </g>
            <g id="Grupo_895310" data-name="Grupo 895310" transform="translate(2.092)">
              <path id="Trazado_624146" data-name="Trazado 624146" d="M2163.1,494.133c.761-10.6-3.388-20.742-10.478-28.653s-16.85-13.175-27.141-15.807-21.037-2.376-31.576-1.038a36.591,36.591,0,0,1,3.635-3.344q2.232-1.712,4.554-3.3a86.547,86.547,0,0,1,9.229-5.677c7.6-3.914,29.67-10.992,37.441-13.077,26.606-7.136,71.046-9.064,98.265-6.729,20.495,1.759,50.4,11.373,68.426,21.282A119.173,119.173,0,0,1,2335,451.72a153.205,153.205,0,0,1,17.868,18.782c-8.2-.455-33.959-1.58-41.429-1.742a396.86,396.86,0,0,0-134.59,20.471Q2169.926,491.553,2163.1,494.133Z" transform="translate(-2093.633 -415.284)" fill="#7186e2"/>
              <path id="Trazado_624147" data-name="Trazado 624147" d="M2163.041,494.346a.275.275,0,0,1-.163-.054.271.271,0,0,1-.109-.239c.721-10.053-2.975-20.157-10.409-28.451-6.709-7.484-16.047-12.921-27.006-15.725-8.961-2.292-18.962-2.62-31.473-1.032a.273.273,0,0,1-.244-.445,36.34,36.34,0,0,1,3.678-3.386c1.476-1.131,3.013-2.245,4.566-3.31a87.71,87.71,0,0,1,9.258-5.694c7.668-3.949,29.807-11.036,37.5-13.1,26.832-7.2,71.08-9.078,98.359-6.738,19.775,1.7,49.879,11.059,68.534,21.315a118.426,118.426,0,0,1,19.589,13.964,154.324,154.324,0,0,1,17.9,18.821.272.272,0,0,1-.23.44c-8.227-.457-33.982-1.58-41.42-1.741a396.567,396.567,0,0,0-134.5,20.456c-4.587,1.54-9.208,3.188-13.736,4.9A.276.276,0,0,1,2163.041,494.346Zm-54.859-47.03a69.161,69.161,0,0,1,17.309,2.032c11.064,2.831,20.5,8.325,27.276,15.89,7.429,8.288,11.175,18.368,10.575,28.43,4.407-1.66,8.9-3.259,13.358-4.756a397.178,397.178,0,0,1,134.683-20.485c7.27.158,32.021,1.234,40.837,1.71a155.085,155.085,0,0,0-17.461-18.271,117.934,117.934,0,0,0-19.493-13.9c-18.6-10.224-48.607-19.558-68.318-21.25-27.23-2.336-71.4-.46-98.171,6.722-7.67,2.057-29.751,9.123-37.386,13.056a87.2,87.2,0,0,0-9.2,5.659c-1.546,1.06-3.074,2.167-4.543,3.292-.657.5-2.2,1.87-3.088,2.764A112.766,112.766,0,0,1,2108.181,447.316Z" transform="translate(-2093.574 -415.224)" fill="#7186e2"/>
            </g>
            <g id="Grupo_895311" data-name="Grupo 895311" transform="translate(249.419 49.618)">
              <path id="Trazado_624148" data-name="Trazado 624148" d="M2412.719,487.572a35.986,35.986,0,0,1-9.736-.725,12.8,12.8,0,0,1-7.894-5.375,3.749,3.749,0,0,1-.51-3.5c1.848-3.7,8.192-1.805,10.749-.338A15.306,15.306,0,0,1,2412.719,487.572Z" transform="translate(-2394.051 -475.551)" fill="#7186e2"/>
              <path id="Trazado_624149" data-name="Trazado 624149" d="M2410.321,487.814a29.514,29.514,0,0,1-7.464-.762,12.946,12.946,0,0,1-8.06-5.5c-.491-.813-1.211-2.383-.521-3.763a3.925,3.925,0,0,1,2.495-2.033c2.808-.849,6.787.519,8.635,1.581a15.606,15.606,0,0,1,7.523,10.119.273.273,0,0,1-.262.328C2411.868,487.8,2411.087,487.814,2410.321,487.814Zm-11.556-11.779a6.4,6.4,0,0,0-1.837.245,3.4,3.4,0,0,0-2.164,1.755,3.562,3.562,0,0,0,.5,3.237,12.413,12.413,0,0,0,7.728,5.252,34.515,34.515,0,0,0,9.33.723,15.1,15.1,0,0,0-7.19-9.435A14.315,14.315,0,0,0,2398.765,476.035Z" transform="translate(-2393.991 -475.493)" fill="#7186e2"/>
            </g>
            <g id="Grupo_895312" data-name="Grupo 895312" transform="translate(62.299 69.231)">
              <path id="Trazado_624150" data-name="Trazado 624150" d="M2172.906,519.315c-1.284.908-3.026,1.669-4.36.836a4.011,4.011,0,0,1-1.459-3.221,16.593,16.593,0,0,1,10.961-16.951c3.652-1.311,3.554,1.488,3.278,4.459A20.743,20.743,0,0,1,2172.906,519.315Z" transform="translate(-2166.763 -499.374)" fill="#7186e2"/>
              <path id="Trazado_624151" data-name="Trazado 624151" d="M2169.785,520.725a2.67,2.67,0,0,1-1.442-.4c-.931-.58-1.45-1.7-1.587-3.431a16.869,16.869,0,0,1,11.141-17.23c1.315-.472,2.263-.464,2.894.026,1.024.794.945,2.606.75,4.717a20.989,20.989,0,0,1-8.535,15.073A6.052,6.052,0,0,1,2169.785,520.725Zm9.785-20.861a4.538,4.538,0,0,0-1.489.314,16.321,16.321,0,0,0-10.782,16.671c.123,1.544.558,2.528,1.332,3.012,1.335.833,3.115-.161,4.057-.828l.158.223-.158-.223A20.43,20.43,0,0,0,2181,504.354c.174-1.875.263-3.611-.54-4.234A1.409,1.409,0,0,0,2179.57,499.863Z" transform="translate(-2166.705 -499.316)" fill="#7186e2"/>
            </g>
            <g id="Grupo_895313" data-name="Grupo 895313" transform="translate(0 31.09)">
              <path id="Trazado_624152" data-name="Trazado 624152" d="M2100.172,457.4a10.212,10.212,0,0,1-4.37.577,36.49,36.49,0,0,0-4.437-.119,8.609,8.609,0,0,1,5.192-4.194c1.651-.468,4.189-.581,5.711.389C2103.862,455.072,2101.132,457,2100.172,457.4Z" transform="translate(-2091.092 -453.046)" fill="#7186e2"/>
              <path id="Trazado_624153" data-name="Trazado 624153" d="M2096.58,458.213c-.3,0-.58-.008-.847-.019-.421-.017-.843-.044-1.264-.071a22.086,22.086,0,0,0-3.141-.049.277.277,0,0,1-.25-.122.274.274,0,0,1-.012-.278,8.941,8.941,0,0,1,5.358-4.328c1.758-.5,4.363-.579,5.932.422a1.146,1.146,0,0,1,.612,1.1c-.1,1.167-1.981,2.411-2.748,2.732h0A9.455,9.455,0,0,1,2096.58,458.213Zm-4.205-.724c.716,0,1.43.045,2.128.09.417.026.835.053,1.252.069a10.087,10.087,0,0,0,4.252-.556c.791-.332,2.347-1.475,2.415-2.275.013-.147-.011-.366-.36-.589-1.427-.909-3.845-.822-5.49-.356a8.4,8.4,0,0,0-4.778,3.628C2091.987,457.492,2092.182,457.489,2092.375,457.489Zm7.739-.145h0Z" transform="translate(-2091.033 -452.988)" fill="#7186e2"/>
            </g>
          </g>
          <g id="Grupo_895331" data-name="Grupo 895331" transform="translate(49.018)">
            <g id="Grupo_895315" data-name="Grupo 895315" transform="translate(52.353 146.03)">
              <path id="Trazado_624154" data-name="Trazado 624154" d="M2336.539,381.748a20.345,20.345,0,0,1,7.91,1.035,10.928,10.928,0,0,1,6.417,11.647c-.583,3.3-2.676,6.113-4.791,8.713a150.134,150.134,0,0,1-36.182,32.1,112.251,112.251,0,0,1-17.709-9.245,35.134,35.134,0,0,1,7.087-8.564q.349-.269.7-.538c-4.586,3.524-9.308,6.891-13.988,10.29-4.637,3.369-9.319,7.5-14.365,10.222-8.835,4.765-17.169,9.413-27.273,11.1a60.645,60.645,0,0,1-14.129.7,26.159,26.159,0,0,1-8.12-1.62,12.285,12.285,0,0,1-6.249-5.238,14.161,14.161,0,0,1-1.059-9.129,26.2,26.2,0,0,1,5.6-12.252c3.375-4.09,7.889-7.044,11.972-10.427,3.133-2.6,6.038-5.471,9.313-7.885a28.242,28.242,0,0,1,6.467-3.675c2.3-.892,4.669-.94,6.936-1.811q7.878-3.023,15.96-5.467a232.85,232.85,0,0,1,65.507-9.959Z" transform="translate(-2214.223 -381.472)" fill="#0b5999"/>
              <path id="Trazado_624155" data-name="Trazado 624155" d="M2234.207,449.563q-2.041,0-4.069-.138a26.716,26.716,0,0,1-8.2-1.64,12.548,12.548,0,0,1-6.385-5.36c-1.348-2.461-1.714-5.592-1.089-9.3a26.361,26.361,0,0,1,5.656-12.38,52.829,52.829,0,0,1,8.587-7.748c1.133-.88,2.3-1.79,3.421-2.715,1.183-.981,2.354-2.02,3.488-3.024,1.865-1.654,3.793-3.364,5.838-4.871a28.323,28.323,0,0,1,6.53-3.71,21.129,21.129,0,0,1,3.558-.934,20.628,20.628,0,0,0,3.379-.878c5.228-2.007,10.6-3.848,15.98-5.473a233.114,233.114,0,0,1,65.583-9.972h0a20.562,20.562,0,0,1,8.016,1.055,11.216,11.216,0,0,1,6.582,11.947c-.6,3.393-2.723,6.226-4.848,8.837a149.785,149.785,0,0,1-36.248,32.156.275.275,0,0,1-.25.021,112.394,112.394,0,0,1-17.751-9.268.273.273,0,0,1-.086-.374,42.668,42.668,0,0,1,4.172-5.715c-2.4,1.778-4.814,3.528-7.181,5.24q-1.4,1.014-2.8,2.029c-1.393,1.012-2.822,2.117-4.2,3.185a77.2,77.2,0,0,1-10.194,7.056l-.994.537c-8.534,4.609-16.595,8.961-26.365,10.6A61.442,61.442,0,0,1,2234.207,449.563Zm102.276-67.6a232.624,232.624,0,0,0-65.43,9.948c-5.363,1.622-10.726,3.459-15.941,5.461a21.117,21.117,0,0,1-3.468.9,20.648,20.648,0,0,0-3.467.906,27.767,27.767,0,0,0-6.4,3.641c-2.024,1.493-3.944,3.194-5.8,4.84-1.136,1.008-2.311,2.049-3.5,3.035-1.124.931-2.3,1.844-3.434,2.727a52.345,52.345,0,0,0-8.5,7.665A25.811,25.811,0,0,0,2215,433.211c-.6,3.59-.258,6.6,1.029,8.952a12.01,12.01,0,0,0,6.113,5.116,26.236,26.236,0,0,0,8.036,1.6,60.5,60.5,0,0,0,14.065-.7c9.68-1.619,17.7-5.952,26.195-10.538l.994-.536a76.867,76.867,0,0,0,10.119-7.007c1.385-1.071,2.816-2.179,4.215-3.2q1.4-1.016,2.8-2.029c3.693-2.672,7.512-5.437,11.181-8.257h0a.273.273,0,1,1,.333.432l-.048.036-.652.5a34.257,34.257,0,0,0-6.879,8.263,111.849,111.849,0,0,0,17.308,9.024,149.256,149.256,0,0,0,36-31.963c2.08-2.555,4.158-5.323,4.734-8.588a10.652,10.652,0,0,0-6.251-11.346,20.105,20.105,0,0,0-7.8-1.015Zm0-.272h0Z" transform="translate(-2214.164 -381.413)" fill="#0b5999"/>
            </g>
            <path id="Trazado_624156" data-name="Trazado 624156" d="M2259.722,405.048c.576.7,1.15,1.392,1.73,2.074q8.229,9.674,16.564,19.261c2.249,2.249,4.219,4.878,6.3,7.284l2.812,3.252c.491-.37.98-.739,1.474-1.092,2.052-1.468.186-.07,3.944-2.888-.922-1.239-13.992-26.609-20.9-31.97C2269.129,401.81,2262.212,404.12,2259.722,405.048Z" transform="translate(-2169.862 -238.84)" fill="#1d263f"/>
            <g id="Grupo_895316" data-name="Grupo 895316" transform="translate(47.47 74.097)">
              <path id="Trazado_624157" data-name="Trazado 624157" d="M2229,314.251c-.146.254-.29.509-.436.762-2.662,4.658-4.893,1.157-8.569,4.644-6.168-3.775-8.137-1.763-10.4-8.375l-.526-7.68-.492-7.166-.008-.094c.17.04.185-.04.227-.2a.968.968,0,0,0-.041-.5,189.88,189.88,0,0,1,19.4-1.27l1.317,12.879a7.14,7.14,0,0,0,.561,2.215C2230.7,311.024,2229.839,312.779,2229,314.251Z" transform="translate(-2208.292 -294.099)" fill="#ffa188"/>
              <path id="Trazado_624158" data-name="Trazado 624158" d="M2219.935,319.871a.268.268,0,0,1-.142-.04,28.111,28.111,0,0,0-4.822-2.33c-2.664-1.046-4.132-1.622-5.7-6.189a.258.258,0,0,1-.014-.07l-1.026-14.933a.279.279,0,0,1,.093-.231.273.273,0,0,1,.141-.064.784.784,0,0,0-.04-.36.274.274,0,0,1,.232-.342,191.118,191.118,0,0,1,19.43-1.271h0a.274.274,0,0,1,.272.245l1.317,12.88a6.846,6.846,0,0,0,.539,2.135c.691,1.6-.095,3.362-1.046,5.027h0l-.435.762c-1.513,2.648-2.946,2.786-4.461,2.931a5.993,5.993,0,0,0-4.157,1.775A.275.275,0,0,1,2219.935,319.871Zm-10.134-8.7c1.479,4.3,2.782,4.808,5.369,5.824a28.693,28.693,0,0,1,4.73,2.265,6.513,6.513,0,0,1,4.328-1.78c1.488-.142,2.665-.255,4.038-2.658l.436-.763c.882-1.542,1.614-3.16,1.02-4.54a7.4,7.4,0,0,1-.583-2.3l-1.291-12.622c-6.187.091-12.518.5-18.83,1.23a.887.887,0,0,1-.022.33.6.6,0,0,1-.2.354Zm19.138,3.023h0Z" transform="translate(-2208.233 -294.04)" fill="#ffa188"/>
            </g>
            <path id="Trazado_624159" data-name="Trazado 624159" d="M2229.713,308.569c-11.54-2.313-16.418-3.792-20.648-4.967l-.492-7.166-.008-.094c.17.04.185-.04.227-.2a.968.968,0,0,0-.041-.5,189.88,189.88,0,0,1,19.4-1.27l.8,7.3C2229,302.4,2229.858,308.315,2229.713,308.569Z" transform="translate(-2160.822 -220.002)" fill="#ed836e"/>
            <g id="Grupo_895317" data-name="Grupo 895317" transform="translate(29.664 33.821)">
              <path id="Trazado_624160" data-name="Trazado 624160" d="M2197.341,285.513a30.652,30.652,0,0,0,3.122,3.234c1.314,1.174,2.809,2.061,4.171,3.154a17.079,17.079,0,0,0,9.549,4.032,10.163,10.163,0,0,0,5.577-1.074c2.291-1.264,4.2-3.761,5.534-6.054q.546-.936,1.047-1.9.94-1.8,1.715-3.686c.833-2.023,1.476-4.1,2.144-6.185.421-1.316.718-2.612,1.068-3.943a24.119,24.119,0,0,0,.753-3.634c.043-.421.695-.784.724-1.2.04-.6.021-1.5.09-2.092.169-1.457-.38-2.672-.376-4.139a19.157,19.157,0,0,0-.573-5.163,9.554,9.554,0,0,0-2.562-4.463c-1.817-1.7-4.277-2.4-6.35-3.706-.919-.579-1.763-1.318-2.619-1.972s-.883-1.311-2.071-1.269a36.753,36.753,0,0,0-10.274,1.869,38.086,38.086,0,0,0-9.657,4.825,36.912,36.912,0,0,0-4.25,3.433c-1.166,1.095-2.158,2.606-3.555,3.36-2.04,1.1-2.923,3.562-3.339,5.705a14.285,14.285,0,0,0,4.935,13.824,6.89,6.89,0,0,1,1.013,1.2,9.25,9.25,0,0,1,1.052,1.263,23.135,23.135,0,0,0,2.647,3.98Q2197.094,285.216,2197.341,285.513Z" transform="translate(-2186.664 -245.177)" fill="#ffa188"/>
              <path id="Trazado_624161" data-name="Trazado 624161" d="M2214.981,296.175q-.432,0-.875-.029a17.307,17.307,0,0,1-9.7-4.091c-.564-.452-1.164-.878-1.744-1.29a27.431,27.431,0,0,1-2.438-1.874,30.844,30.844,0,0,1-3.15-3.262h0q-.251-.3-.493-.608a23.52,23.52,0,0,1-2.677-4.027,3.991,3.991,0,0,0-.63-.779c-.145-.153-.282-.3-.391-.436s-.2-.261-.29-.382a3.906,3.906,0,0,0-.684-.776,14.562,14.562,0,0,1-5.029-14.087c.58-2.977,1.749-4.959,3.478-5.893a9.47,9.47,0,0,0,2.344-2.1c.37-.412.753-.84,1.153-1.215a37.287,37.287,0,0,1,4.282-3.459,38.263,38.263,0,0,1,9.726-4.859,36.966,36.966,0,0,1,10.35-1.884,1.837,1.837,0,0,1,1.661.764,4.231,4.231,0,0,0,.584.561c.261.2.52.406.781.614a20.592,20.592,0,0,0,1.818,1.344,25.163,25.163,0,0,0,2.423,1.288,15.549,15.549,0,0,1,3.968,2.451,9.816,9.816,0,0,1,2.639,4.589,19.847,19.847,0,0,1,.583,5.237,10.013,10.013,0,0,0,.2,1.782,8,8,0,0,1,.171,2.387c-.04.339-.049.787-.059,1.22-.007.312-.013.607-.03.859a1.391,1.391,0,0,1-.429.769,1.12,1.12,0,0,0-.3.444,24.405,24.405,0,0,1-.761,3.676c-.094.357-.184.711-.273,1.065-.24.945-.488,1.922-.8,2.892l-.2.617c-.589,1.847-1.2,3.755-1.954,5.589-.517,1.255-1.1,2.5-1.726,3.707-.333.639-.687,1.28-1.052,1.908-1.192,2.047-3.138,4.777-5.639,6.156A10.022,10.022,0,0,1,2214.981,296.175Zm3.348-50.51-.1,0a36.394,36.394,0,0,0-10.2,1.856,37.74,37.74,0,0,0-9.588,4.79,36.643,36.643,0,0,0-4.219,3.408c-.383.359-.742.758-1.121,1.181a9.875,9.875,0,0,1-2.491,2.22c-1.578.852-2.655,2.708-3.2,5.517a14.17,14.17,0,0,0,.388,6.982,14.314,14.314,0,0,0,4.453,6.581,4.4,4.4,0,0,1,.777.873c.086.115.174.237.276.365s.225.257.362.4a4.236,4.236,0,0,1,.721.911,23.02,23.02,0,0,0,2.616,3.932q.239.3.484.6h0a30.5,30.5,0,0,0,3.094,3.205,27.371,27.371,0,0,0,2.39,1.835c.587.417,1.194.847,1.77,1.309a16.765,16.765,0,0,0,9.4,3.972,9.889,9.889,0,0,0,5.426-1.041c2.392-1.318,4.274-3.964,5.431-5.952.361-.621.711-1.255,1.04-1.885.621-1.191,1.195-2.424,1.705-3.664.747-1.813,1.353-3.711,1.938-5.546l.2-.618c.306-.954.54-1.88.789-2.86.091-.355.181-.711.275-1.069a23.917,23.917,0,0,0,.746-3.592,1.443,1.443,0,0,1,.428-.749,1.083,1.083,0,0,0,.295-.445c.016-.24.022-.529.03-.834.009-.446.02-.906.062-1.271a7.456,7.456,0,0,0-.167-2.229,10.484,10.484,0,0,1-.211-1.88,18.509,18.509,0,0,0-.564-5.089,9.261,9.261,0,0,0-2.486-4.336,15.142,15.142,0,0,0-3.833-2.358,25.989,25.989,0,0,1-2.475-1.316,21.175,21.175,0,0,1-1.868-1.379c-.258-.206-.514-.411-.771-.608a4.685,4.685,0,0,1-.658-.628A1.3,1.3,0,0,0,2218.329,245.665Z" transform="translate(-2186.605 -245.119)" fill="#ffa188"/>
            </g>
            <g id="Grupo_895318" data-name="Grupo 895318" transform="translate(24.841)">
              <path id="Trazado_624162" data-name="Trazado 624162" d="M2228.832,270.578s6.934-5.886,7.086-23.806c0,0,.888-20.612-13.129-20.113,0,0-4.67-5.364-13.121-3.4a18.309,18.309,0,0,0,2.622-7.6,10.422,10.422,0,0,0-3.184-8.183,11.533,11.533,0,0,0-8.078-3.1,14.185,14.185,0,0,0-8.22,2.919,10.357,10.357,0,0,0-4.153,5.891c-.658,3.058.609,6.187,2.026,8.956a8.8,8.8,0,0,0,1.522,2.3,3.062,3.062,0,0,0,2.441.981s-14.578,7.49-13.511,26.741,12.078,21.6,12.078,21.6h0a28.1,28.1,0,0,0-1.748-2.429s-4.122-2.7-4.417-10.459,3.013-6.055,3.013-6.055,2.416,1.9,4.621,1.19a22.452,22.452,0,0,0,9.048-9.859s-1.86,4.968-.415,6.92c0,0,13.276,4.2,25.244,1.735a26.65,26.65,0,0,0,1.219-6.623S2233.927,254.235,2228.832,270.578Z" transform="translate(-2180.805 -204.097)" fill="#643a24"/>
              <path id="Trazado_624163" data-name="Trazado 624163" d="M2193.153,273.968a.266.266,0,0,1-.057-.006,12.5,12.5,0,0,1-5.779-3.657c-2.666-2.764-5.96-8.164-6.515-18.191a29.394,29.394,0,0,1,6.417-20.777,27.151,27.151,0,0,1,6.455-5.765,3.7,3.7,0,0,1-1.722-1,8.972,8.972,0,0,1-1.573-2.369c-1.4-2.732-2.735-5.954-2.05-9.138a10.674,10.674,0,0,1,4.256-6.052,14.5,14.5,0,0,1,8.38-2.974,11.806,11.806,0,0,1,8.271,3.181,10.765,10.765,0,0,1,3.267,8.4,18.136,18.136,0,0,1-2.365,7.185,13.945,13.945,0,0,1,12.706,3.518,10.579,10.579,0,0,1,8.126,3.1c5.6,5.637,5.181,16.829,5.16,17.3-.152,17.83-6.9,23.759-7.182,24a.273.273,0,0,1-.438-.289c3.974-12.744,2.261-19.22,1.383-21.353a24.929,24.929,0,0,1-1.14,5.751.273.273,0,0,1-.2.169c-11.9,2.457-25.249-1.7-25.383-1.741a.271.271,0,0,1-.136-.1c-.86-1.16-.648-3.244-.29-4.869a22.268,22.268,0,0,1-8,7.89l-.036.015c-2.22.712-4.567-1-4.848-1.217a1.379,1.379,0,0,0-1.284.085c-.681.438-1.463,1.788-1.313,5.726.287,7.534,4.254,10.215,4.294,10.241a.276.276,0,0,1,.06.053,28.032,28.032,0,0,1,1.768,2.458.273.273,0,0,1-.23.42Zm1.434-48.882a.273.273,0,0,1,.124.515,25.509,25.509,0,0,0-7.085,6.1,28.86,28.86,0,0,0-6.279,20.381c.544,9.834,3.745,15.115,6.334,17.813a13.358,13.358,0,0,0,4.817,3.3c-.335-.494-.821-1.181-1.278-1.731-.438-.3-4.219-3.133-4.506-10.653-.128-3.376.4-5.467,1.572-6.212a1.934,1.934,0,0,1,1.839-.1.3.3,0,0,1,.044.027c.023.018,2.317,1.788,4.348,1.152a22.484,22.484,0,0,0,8.907-9.727.273.273,0,0,1,.5.217c-.017.048-1.745,4.729-.5,6.592,1.163.352,13.652,3.991,24.87,1.731a28.617,28.617,0,0,0,1.153-6.412.273.273,0,0,1,.5-.129c.168.246,3.98,6.076-.569,21.511,1.8-2.177,6.092-8.821,6.21-22.759.006-.123.424-11.439-5-16.905a10.083,10.083,0,0,0-7.844-2.933.263.263,0,0,1-.216-.094,13.388,13.388,0,0,0-12.853-3.315.275.275,0,0,1-.28-.1.27.27,0,0,1-.019-.3,18.324,18.324,0,0,0,2.587-7.487,10.2,10.2,0,0,0-3.1-7.964,11.231,11.231,0,0,0-7.886-3.029,13.947,13.947,0,0,0-8.06,2.865,10.142,10.142,0,0,0-4.05,5.729c-.649,3.017.648,6.128,2,8.775a8.526,8.526,0,0,0,1.471,2.229,2.8,2.8,0,0,0,2.216.9Z" transform="translate(-2180.747 -204.038)" fill="#643a24"/>
            </g>
            <path id="Trazado_624164" data-name="Trazado 624164" d="M2191.336,263.777s2.418,1.9,4.621,1.191a19.078,19.078,0,0,0,4.878-3.861c.055-.058.109-.116.165-.175l.086-.094c.067-.074.137-.15.205-.226l.063-.071c.065-.073.13-.148.2-.225l.085-.1c.058-.068.117-.138.175-.208l.067-.08q.114-.137.227-.279l.079-.1c.057-.07.113-.142.168-.214l.08-.1c.075-.1.151-.2.226-.3l.069-.094.17-.234.086-.121c.063-.09.127-.18.19-.272.026-.037.052-.074.077-.112.063-.092.125-.184.187-.278l.091-.138.152-.236c.027-.043.055-.085.082-.128.069-.11.138-.222.207-.335l.094-.156.131-.222.1-.17q.091-.161.183-.324c.037-.067.073-.134.11-.2s.075-.137.112-.207l.111-.211.1-.194c.031-.063.063-.124.094-.187a18.11,18.11,0,0,0-.888,3.607v.014c-.016.128-.029.258-.041.386v.021c-.011.128-.019.255-.024.382v.018c0,.058,0,.115,0,.173a6.371,6.371,0,0,0,.028.77l0,0a2.462,2.462,0,0,0,.494,1.287s13.221,3.608,25.2,1.285a21.78,21.78,0,0,0,1.287-5.909s1.669,2.19,1.5,7.587a.019.019,0,0,1,0,.009,30.121,30.121,0,0,1-.388,3.858q.032-.5.043-.974c.138-5.3-1.5-7.449-1.5-7.449a21.825,21.825,0,0,1-1.287,5.909c-11.216,2.173-23.517-.849-25.043-1.244-1.926-.45-3.075-.814-3.075-.814a2.282,2.282,0,0,1-.141-.22,19.745,19.745,0,0,1-5.518,4.566c-2.2.707-4.621-1.19-4.621-1.19s-1.938-1-2.715,2.01C2188.215,262.166,2191.336,263.777,2191.336,263.777Z" transform="translate(-2157.241 -213.063)" fill="#ed836e"/>
            <path id="Trazado_624165" data-name="Trazado 624165" d="M2230.811,246.8a15.739,15.739,0,0,0-9.672-8.284,26.882,26.882,0,0,0-12.981-.525,25.45,25.45,0,0,0-6.495,1.949,17.655,17.655,0,0,0-8.64,8.253c-1.785,3.744-4.023,10.025-3.735,14.07-.641-.063-1.416-1.666-2.057-1.73.42-1.907,2.051-11.3,3.948-16.554,1.456-4.027,5.04-7.012,9-8.632a33.642,33.642,0,0,1,11.791-2.5c3.481-.166,7.937.095,11,1.754a13.547,13.547,0,0,1,5.075,5.2A36.263,36.263,0,0,1,2230.811,246.8Z" transform="translate(-2157.052 -209.121)" fill="#6071dc"/>
            <g id="Grupo_895319" data-name="Grupo 895319" transform="translate(0 84.83)">
              <path id="Trazado_624166" data-name="Trazado 624166" d="M2152.039,377.956c3.364-16.075,8.4-31.745,13.424-47.38,1.013-3.153,2.077-6.4,4.23-8.915,3.4-3.974,8.821-5.406,13.868-6.775s10.455-3.155,13.4-7.478c-.028,1.651,1.064,2.541,2.317,3.617a11.573,11.573,0,0,0,4.409,2.169,24.45,24.45,0,0,0,20.571-3.5c1.623,2.35,4.64,3.605,7.406,4.315s5.68,1.186,8.063,2.76c3.948,2.607,5.514,7.542,6.81,12.093q5.846,20.54,11.692,41.082l.3.173-2.728,2.718a22.514,22.514,0,0,0-4.442,10.466l-.075,4.868a37.505,37.505,0,0,1-8.6-13.881c-.371,10.6-.5,20.8-.875,31.4a244.389,244.389,0,0,1-37.611,2.692,72.116,72.116,0,0,1-22.349-3.219c-2.547-7.534-5.469-32.809-1.1-42.769-3.2,6.117-5.97,12.178-9.172,18.3,11.972,5.96,2.145,22.606,2.145,22.606s-7.454-.24-11.037-1.2a16.234,16.234,0,0,1-9.182-5.883C2149.865,391.071,2150.751,384.109,2152.039,377.956Z" transform="translate(-2150.634 -307.136)" fill="#ead6c5"/>
              <path id="Trazado_624167" data-name="Trazado 624167" d="M2205.7,408.6q-.788,0-1.572-.006a72.174,72.174,0,0,1-22.433-3.233.274.274,0,0,1-.174-.172c-2.34-6.92-4.924-28.276-2.161-39.7-1.037,2.053-2.042,4.1-3.024,6.106-1.429,2.916-2.906,5.928-4.461,8.91a10.232,10.232,0,0,1,5.34,6.289c2.132,7.2-3.106,16.194-3.33,16.573a.26.26,0,0,1-.244.134c-.306-.01-7.527-.253-11.1-1.213-2.87-.771-6.818-2.435-9.334-5.989-3.64-5.141-2.872-11.912-1.5-18.46h0c3.371-16.107,8.485-32.019,13.431-47.407.966-3.006,2.061-6.412,4.283-9.01,3.413-3.99,8.707-5.425,13.826-6.812l.177-.049c4.881-1.324,10.333-3.093,13.243-7.367a.273.273,0,0,1,.5.158c-.025,1.478.923,2.29,2.122,3.319l.1.086a11.133,11.133,0,0,0,4.306,2.113,24.335,24.335,0,0,0,20.337-3.459.273.273,0,0,1,.382.068c1.308,1.892,3.748,3.307,7.25,4.205.495.127.995.246,1.5.366a20.425,20.425,0,0,1,6.65,2.431c3.909,2.582,5.5,7.266,6.922,12.246L2258.4,369.7l.205.119a.271.271,0,0,1,.135.2.275.275,0,0,1-.078.229l-2.715,2.7a22.354,22.354,0,0,0-4.375,10.309l-.074,4.85a.273.273,0,0,1-.469.186,38.125,38.125,0,0,1-8.18-12.664c-.16,4.828-.277,9.635-.389,14.3-.124,5.113-.251,10.4-.437,15.7a.272.272,0,0,1-.232.26A245.643,245.643,0,0,1,2205.7,408.6Zm-23.7-3.715a71.827,71.827,0,0,0,22.136,3.163,244.845,244.845,0,0,0,37.345-2.655c.181-5.223.307-10.431.429-15.469.124-5.113.252-10.4.438-15.7a.272.272,0,0,1,.53-.079,37.327,37.327,0,0,0,8.081,13.3l.064-4.2a.219.219,0,0,1,0-.036,22.889,22.889,0,0,1,4.495-10.591.28.28,0,0,1,.025-.027l2.475-2.466a.276.276,0,0,1-.118-.157l-11.692-41.081c-1.389-4.878-2.946-9.461-6.7-11.941a20,20,0,0,0-6.477-2.355c-.5-.12-1.006-.24-1.5-.368-3.5-.9-5.987-2.309-7.4-4.2a24.564,24.564,0,0,1-20.582,3.384,11.64,11.64,0,0,1-4.511-2.224l-.1-.086a5.608,5.608,0,0,1-2.246-2.989c-3.094,4-8.373,5.705-13.119,6.992l-.178.049c-5.039,1.365-10.25,2.778-13.554,6.641-2.151,2.514-3.228,5.865-4.177,8.821-4.942,15.376-10.052,31.273-13.417,47.353h0c-1.346,6.428-2.106,13.062,1.413,18.033,2.422,3.422,6.248,5.03,9.031,5.778,3.219.865,9.7,1.145,10.81,1.188.659-1.177,5.121-9.507,3.2-16a9.768,9.768,0,0,0-5.308-6.08.275.275,0,0,1-.12-.371c1.6-3.055,3.116-6.149,4.583-9.141s2.987-6.093,4.59-9.155a.273.273,0,0,1,.491.236C2176.625,372.266,2179.445,397.134,2182,404.882ZM2151.979,377.9h0Z" transform="translate(-2150.573 -307.078)" fill="#ead6c5"/>
            </g>
            <path id="Trazado_624168" data-name="Trazado 624168" d="M2328.429,397.514a24.174,24.174,0,0,0,8.537,3.9c-.219-.052-2.84,3.774-3.171,4.171q-1.7,2.043-3.582,3.927a59.619,59.619,0,0,1-8.138,6.823c-1.456,1.014-3.3,2.583-4.995,3.064-.033-1.079,1.655-2.856,2.226-3.78q1.285-2.078,2.482-4.21,2.414-4.3,4.461-8.788Q2327.4,400.093,2328.429,397.514Z" transform="translate(-2179.998 -238.229)" fill="#1d263f"/>
            <g id="Grupo_895323" data-name="Grupo 895323" transform="translate(51.249 113.136)">
              <g id="Grupo_895320" data-name="Grupo 895320" transform="translate(0 50.608)">
                <path id="Trazado_624169" data-name="Trazado 624169" d="M2218.491,403.262h36.493v6.558h-41.829V408.6A5.336,5.336,0,0,1,2218.491,403.262Z" transform="translate(-2212.882 -402.989)" fill="#5564a2"/>
                <path id="Trazado_624170" data-name="Trazado 624170" d="M2254.926,410.035H2213.1a.274.274,0,0,1-.273-.273v-1.223a5.615,5.615,0,0,1,5.608-5.609h36.494a.273.273,0,0,1,.273.273v6.558A.273.273,0,0,1,2254.926,410.035Zm-41.556-.546h41.283v-6.013h-36.222a5.068,5.068,0,0,0-5.061,5.063Z" transform="translate(-2212.823 -402.93)" fill="#5564a2"/>
              </g>
              <g id="Grupo_895321" data-name="Grupo 895321" transform="translate(37.094)">
                <path id="Trazado_624171" data-name="Trazado 624171" d="M2258.212,398.957h81.645l20.76-57.167h-81.644Z" transform="translate(-2257.938 -341.518)" fill="#5564a2"/>
                <path id="Trazado_624172" data-name="Trazado 624172" d="M2339.8,399.172h-81.645a.273.273,0,0,1-.257-.366l20.76-57.167a.273.273,0,0,1,.256-.179h81.645a.273.273,0,0,1,.257.366l-20.76,57.166A.273.273,0,0,1,2339.8,399.172Zm-81.255-.546h81.063L2360.167,342H2279.1Z" transform="translate(-2257.88 -341.459)" fill="#5564a2"/>
              </g>
              <g id="Grupo_895322" data-name="Grupo 895322" transform="translate(39.919)">
                <path id="Trazado_624173" data-name="Trazado 624173" d="M2261.642,398.957h81.644l20.76-57.167H2282.4Z" transform="translate(-2261.369 -341.518)" fill="#a9c5db"/>
                <path id="Trazado_624174" data-name="Trazado 624174" d="M2343.228,399.172h-81.645a.273.273,0,0,1-.257-.366l20.761-57.167a.272.272,0,0,1,.256-.179h81.645a.276.276,0,0,1,.224.116.271.271,0,0,1,.032.25l-20.759,57.166A.274.274,0,0,1,2343.228,399.172Zm-81.255-.546h81.064L2363.6,342h-81.064Z" transform="translate(-2261.311 -341.459)" fill="#a9c5db"/>
              </g>
            </g>
            <path id="Trazado_624175" data-name="Trazado 624175" d="M2188.03,415.154a76.354,76.354,0,0,0,16.509,3.235c6.132.591,6.263-8.918,12.046-11.039-8.648-3.133-10.46-6.133-16.68-13.9-6.417-8.011-11.537-15.781-8.937-28.224a46.1,46.1,0,0,0-4.038,7.379C2182.75,384.408,2185.277,403.545,2188.03,415.154Z" transform="translate(-2156.607 -232.523)" fill="#c6aa95"/>
            <path id="Trazado_624176" data-name="Trazado 624176" d="M2187.829,426.078a30.939,30.939,0,0,0-.968,24.059,100.914,100.914,0,0,1,12.014-20.388Z" transform="translate(-2156.636 -243.277)" fill="#1d263f"/>
            <g id="Grupo_895324" data-name="Grupo 895324" transform="translate(124.828 201.782)">
              <path id="Trazado_624177" data-name="Trazado 624177" d="M2308.928,450.17a2.167,2.167,0,0,1,.49-.7c.267.3,4.12,3.6,4.58,3.919,1.988,1.381,3.521,2.4,5.1,3.328l4.559,1.9s6.111,1.776,12.013,2.818l11.244,1.819s6.646,1.4,6.753,5.863a12,12,0,0,1-.4,4.819,14.637,14.637,0,0,1-2.939,5.28c-2.891,3.585-8.72.929-8.72.929l-7.59-3.653q-.668-.09-1.328-.219a89.184,89.184,0,0,1-11.783-3.557c-6.553-2.234-12.408-4.651-18.379-9Z" transform="translate(-2302.255 -449.192)" fill="#ffa188"/>
              <path id="Trazado_624178" data-name="Trazado 624178" d="M2345.928,481.313a12.061,12.061,0,0,1-4.492-.986l-7.556-3.636c-.44-.061-.877-.133-1.3-.217a72.246,72.246,0,0,1-9.921-2.914c-.617-.213-1.248-.431-1.9-.653-6.816-2.322-12.563-4.748-18.452-9.032a.274.274,0,0,1-.086-.338l6.4-13.543v0l.027-.056a2.38,2.38,0,0,1,.5-.71.271.271,0,0,1,.205-.093h0a.273.273,0,0,1,.205.093c.248.281,4.1,3.577,4.531,3.875,1.879,1.3,3.461,2.366,5.065,3.307l4.528,1.884c.337.1,6.289,1.8,11.97,2.807l11.24,1.819c.292.061,6.855,1.493,6.981,6.108a12.223,12.223,0,0,1-.408,4.92,14.764,14.764,0,0,1-3,5.388A5.574,5.574,0,0,1,2345.928,481.313Zm-43.115-17.747c5.77,4.163,11.425,6.542,18.124,8.825q.976.332,1.9.653a71.814,71.814,0,0,0,9.847,2.9c.426.083.867.156,1.312.216a.29.29,0,0,1,.082.025l7.59,3.653c.051.024,5.667,2.523,8.389-.854a14.481,14.481,0,0,0,2.889-5.184,11.859,11.859,0,0,0,.391-4.7.284.284,0,0,1,0-.038c-.1-4.2-6.472-5.589-6.536-5.6l-11.232-1.817c-5.852-1.033-11.984-2.807-12.045-2.826l-.029-.01-4.56-1.9a.328.328,0,0,1-.033-.016c-1.625-.952-3.22-2.023-5.117-3.338-.436-.3-3.515-2.931-4.4-3.748a1.358,1.358,0,0,0-.236.371l-.026.055Z" transform="translate(-2302.196 -449.133)" fill="#ffa188"/>
            </g>
            <g id="Grupo_895325" data-name="Grupo 895325" transform="translate(136.728 209.048)">
              <path id="Trazado_624179" data-name="Trazado 624179" d="M2337.369,481.388l-10.122-5.305-10.265-4.228,4.76.863a52.964,52.964,0,0,1,11.56,3.58l10.553,5.087s5.583,2.963,8.475-.622a14.637,14.637,0,0,0,2.939-5.281,12,12,0,0,0,.4-4.818c-.106-4.466-6.751-5.863-6.751-5.863l-11.241-1.818c-5.9-1.042-12.006-2.816-12.006-2.816l-4.013-1.875,10.633,1.751,11.337,1.438c4.959.082,15.035,3.723,15.035,3.723,8.5,2.972,8.123,8.943,8.123,8.943a16.611,16.611,0,0,1-.8,4.74c-1.136,3.626-1.462,4.5-2.442,5.637,0,0-3.814,4.582-11.713,2.411C2351.831,486.935,2341.484,484.158,2337.369,481.388Z" transform="translate(-2316.709 -458.018)" fill="#0b5999"/>
              <path id="Trazado_624180" data-name="Trazado 624180" d="M2355.828,487.726a15.53,15.53,0,0,1-4.127-.587c-.423-.114-10.416-2.815-14.53-5.575l-10.107-5.3-10.243-4.216a.273.273,0,0,1,.153-.521l4.759.863a53.667,53.667,0,0,1,11.626,3.6l10.557,5.089c.063.033,5.429,2.82,8.143-.548a14.478,14.478,0,0,0,2.89-5.183,11.836,11.836,0,0,0,.392-4.7.33.33,0,0,1,0-.038c-.1-4.2-6.47-5.588-6.535-5.6l-11.228-1.816c-5.852-1.033-11.978-2.806-12.039-2.824a.252.252,0,0,1-.04-.014l-4.012-1.876a.273.273,0,0,1,.159-.517l10.632,1.752,11.313,1.435c4.953.089,14.7,3.59,15.108,3.739,8.59,3,8.307,9.155,8.3,9.217a17.089,17.089,0,0,1-.811,4.81c-1.147,3.663-1.489,4.561-2.494,5.727A10.59,10.59,0,0,1,2355.828,487.726Zm-36.419-15.2,7.885,3.247,10.144,5.317a.16.16,0,0,1,.026.015c4.03,2.713,14.277,5.482,14.38,5.509,7.625,2.094,11.4-2.279,11.432-2.322.947-1.1,1.251-1.908,2.391-5.544a16.556,16.556,0,0,0,.786-4.664c.014-.246.244-5.816-7.941-8.679-.1-.037-10.093-3.627-14.95-3.708l-.03,0-11.337-1.438-8.689-1.432,2.2,1.029c.392.112,6.306,1.805,11.958,2.8l11.236,1.817c.292.061,6.854,1.493,6.981,6.107a12.238,12.238,0,0,1-.409,4.92,14.748,14.748,0,0,1-3,5.388c-2.985,3.7-8.745.709-8.8.678l-10.544-5.083a53.113,53.113,0,0,0-11.487-3.556Z" transform="translate(-2316.651 -457.959)" fill="#0b5999"/>
            </g>
            <g id="Grupo_895326" data-name="Grupo 895326" transform="translate(28.013 149.302)">
              <path id="Trazado_624181" data-name="Trazado 624181" d="M2184.971,433.566l25.293-31.555c3.46-4.316,6.98-8.69,11.481-11.91s10.186-5.188,15.605-4.078c7.437,1.523,11.673,7.767,16.257,13.156q8.231,9.676,16.565,19.261c2.249,2.248,4.219,4.878,6.3,7.284l3.325,3.844c.7.809,2.782,2.466,2.832,3.565.042.954-1.865,2.845-2.4,3.641q-1.352,2.008-2.618,4.072-2.532,4.117-4.754,8.415c-12-10.04-24.155-20.224-36.157-30.264-1.042,7.682-2.03,14.959-5.6,21.837s-9.436,12.868-16.851,15.128a23.178,23.178,0,0,1-20.748-3.908A21.639,21.639,0,0,1,2184.971,433.566Z" transform="translate(-2184.657 -385.445)" fill="#0b5999"/>
              <path id="Trazado_624182" data-name="Trazado 624182" d="M2207.657,457.139a23.359,23.359,0,0,1-14.393-4.926,21.964,21.964,0,0,1-8.625-18.721.273.273,0,0,1,.059-.154l25.293-31.555c3.427-4.276,6.971-8.7,11.535-11.961,5.087-3.638,10.852-5.141,15.819-4.124,6.569,1.346,10.675,6.319,14.645,11.129.577.7,1.174,1.423,1.765,2.117,5.5,6.466,11.125,12.97,16.564,19.26,1.5,1.5,2.9,3.2,4.251,4.838.668.81,1.358,1.648,2.047,2.446l3.325,3.844c.174.2.44.459.747.759.94.913,2.109,2.05,2.15,2.972.033.734-.742,1.723-1.76,2.942-.292.35-.544.652-.687.864-.878,1.3-1.757,2.67-2.613,4.062-1.617,2.632-3.213,5.457-4.744,8.4a.272.272,0,0,1-.417.083q-9.071-7.587-18.218-15.248-8.8-7.366-17.561-14.7c-1.022,7.534-2.043,14.659-5.567,21.437-3.957,7.611-10.158,13.174-17.013,15.263A22.67,22.67,0,0,1,2207.657,457.139Zm-22.478-23.528a21.428,21.428,0,0,0,8.424,18.172,22.812,22.812,0,0,0,20.5,3.86c6.715-2.046,12.8-7.51,16.687-14.991,3.556-6.841,4.538-14.082,5.578-21.749a.272.272,0,0,1,.445-.172q8.932,7.471,17.94,15.015t17.957,15.031c1.489-2.844,3.038-5.578,4.607-8.131.859-1.4,1.742-2.772,2.624-4.081.159-.236.42-.548.721-.91.661-.791,1.661-1.987,1.634-2.567-.032-.706-1.208-1.849-1.986-2.606-.317-.308-.59-.574-.78-.793l-3.325-3.845c-.693-.8-1.386-1.642-2.056-2.456-1.345-1.633-2.737-3.322-4.229-4.814-5.454-6.3-11.079-12.809-16.581-19.277-.594-.7-1.191-1.423-1.77-2.124-3.91-4.736-7.953-9.635-14.333-10.942-4.82-.986-10.428.483-15.392,4.033-4.5,3.22-8.023,7.611-11.427,11.858Z" transform="translate(-2184.599 -385.388)" fill="#0b5999"/>
            </g>
            <path id="Trazado_624183" data-name="Trazado 624183" d="M2232.853,457.012c.2.016.542-.036.744-.029,1.262.045,1.5.027,3.023.007a73.71,73.71,0,0,0,10.853-18.148c10.365,2.443,14.351,6.256,19.417,10.5,1.512-.644,2.108-1.013,3.79-1.838-8.509-7.123-17.05-14.276-25.516-21.357-1.041,7.682-2.029,14.959-5.6,21.837A34.5,34.5,0,0,1,2232.853,457.012Z" transform="translate(-2165.114 -243.289)" fill="#1d263f"/>
            <path id="Trazado_624184" data-name="Trazado 624184" d="M2298.787,437.723a34.957,34.957,0,0,0-12.8,18.309,8.827,8.827,0,0,0,3.193,3.7l6.229,4.775a14.352,14.352,0,0,1,4.313-9.244,29.453,29.453,0,0,1,8.67-5.841A21.965,21.965,0,0,0,2298.787,437.723Z" transform="translate(-2174.503 -245.335)" fill="#1d263f"/>
            <g id="Grupo_895327" data-name="Grupo 895327" transform="translate(95.144 189.211)">
              <path id="Trazado_624185" data-name="Trazado 624185" d="M2271.276,458.854l10.137-5.193c5.295-2.809,10.562-6.38,10.562-6.38l3.753-3.209c1.216-1.365,2.36-2.811,3.827-4.736.339-.445,2.99-4.768,3.15-5.139a2.165,2.165,0,0,1,.683.52l10.26,10.913c-4.344,5.973-9.17,10.075-14.717,14.217a89.155,89.155,0,0,1-10.115,7.014q-.587.325-1.2.617l-6.1,5.812s-4.729,4.322-8.583,1.8a14.649,14.649,0,0,1-4.423-4.119,12,12,0,0,1-1.861-4.461C2265.382,462.229,2271.276,458.854,2271.276,458.854Z" transform="translate(-2266.2 -433.923)" fill="#ffa188"/>
              <path id="Trazado_624186" data-name="Trazado 624186" d="M2275.577,476.1a5.1,5.1,0,0,1-2.846-.844,14.747,14.747,0,0,1-4.5-4.195,12.2,12.2,0,0,1-1.9-4.554c-1.3-4.43,4.5-7.813,4.75-7.955l.011-.006,10.137-5.193c5.093-2.7,10.23-6.159,10.52-6.355l3.728-3.188c1.236-1.387,2.414-2.885,3.8-4.706.318-.417,2.969-4.739,3.117-5.082a.277.277,0,0,1,.167-.151.273.273,0,0,1,.223.026,2.406,2.406,0,0,1,.7.519l.044.046,10.261,10.916a.273.273,0,0,1,.022.347c-4.283,5.891-9,9.967-14.774,14.276-.551.411-1.084.813-1.607,1.206a72.311,72.311,0,0,1-8.541,5.827c-.377.209-.771.412-1.17.606l-6.065,5.783C2281.5,473.572,2278.679,476.1,2275.577,476.1Zm-4.23-17.07c-.2.114-5.671,3.367-4.49,7.34a.183.183,0,0,1,.008.037,11.884,11.884,0,0,0,1.819,4.349,14.464,14.464,0,0,0,4.33,4.033c3.646,2.385,8.219-1.722,8.265-1.764l6.092-5.808a.274.274,0,0,1,.07-.049c.4-.194.8-.4,1.181-.61a71.893,71.893,0,0,0,8.478-5.786q.783-.59,1.608-1.207c5.671-4.234,10.317-8.24,14.526-13.977L2303.087,434.8a1.366,1.366,0,0,0-.337-.28c-.6,1.051-2.715,4.5-3.037,4.922-1.4,1.837-2.588,3.347-3.841,4.752a.286.286,0,0,1-.026.026l-3.753,3.209-.024.019c-.053.035-5.341,3.612-10.587,6.4Z" transform="translate(-2266.141 -433.864)" fill="#ffa188"/>
            </g>
            <g id="Grupo_895328" data-name="Grupo 895328" transform="translate(86.046 199.107)">
              <path id="Trazado_624187" data-name="Trazado 624187" d="M2285.934,473.029l8-8.164,8.465-7.183-4.263,2.286a52.965,52.965,0,0,0-9.9,6.965l-8.474,8.09s-4.4,4.538-8.254,2.017a14.626,14.626,0,0,1-4.422-4.119,12,12,0,0,1-1.863-4.461c-1.275-4.283,4.618-7.656,4.618-7.656l10.135-5.191c5.294-2.809,10.555-6.377,10.555-6.377l3.241-3.02-9.576,4.941-10.344,4.858c-4.693,1.605-13.158,8.172-13.158,8.172-7.169,5.444-4.975,11.009-4.975,11.009a16.6,16.6,0,0,0,2.218,4.265c2.2,3.1,2.777,3.83,4.059,4.61,0,0,5.04,3.184,11.887-1.311C2273.882,482.759,2282.872,476.931,2285.934,473.029Z" transform="translate(-2255.145 -445.943)" fill="#0b5999"/>
              <path id="Trazado_624188" data-name="Trazado 624188" d="M2266.5,485.364a9.58,9.58,0,0,1-4.7-1.121c-1.31-.8-1.911-1.547-4.135-4.685a16.8,16.8,0,0,1-2.253-4.332c-.019-.047-2.183-5.811,5.067-11.316.345-.267,8.537-6.6,13.222-8.207l10.33-4.852,9.567-4.936a.273.273,0,0,1,.311.442l-3.241,3.021a.243.243,0,0,1-.032.026c-.053.035-5.336,3.608-10.582,6.392l-10.138,5.192c-.046.026-5.679,3.311-4.481,7.335a.251.251,0,0,1,.008.037,11.854,11.854,0,0,0,1.818,4.349,14.5,14.5,0,0,0,4.331,4.034c3.635,2.377,7.883-1.926,7.925-1.969l8.482-8.1a53.672,53.672,0,0,1,9.957-7.009l4.261-2.285a.273.273,0,0,1,.306.448l-8.465,7.183-7.968,8.136c-3.063,3.892-11.74,9.54-12.109,9.779A13.515,13.515,0,0,1,2266.5,485.364Zm25.583-38.056-7.816,4.032-10.353,4.864-.027.011c-4.6,1.573-13,8.064-13.08,8.129-6.926,5.26-4.909,10.64-4.888,10.694a16.561,16.561,0,0,0,2.183,4.2c2.208,3.114,2.747,3.789,3.982,4.541.052.032,4.987,3.031,11.594-1.307.09-.059,8.988-5.849,11.987-9.67a.286.286,0,0,1,.02-.023l8-8.164,6.522-5.535-2,1.07a53.115,53.115,0,0,0-9.839,6.925l-8.471,8.087c-.038.039-4.595,4.661-8.593,2.047a14.766,14.766,0,0,1-4.5-4.194,12.227,12.227,0,0,1-1.9-4.554c-1.3-4.43,4.5-7.811,4.75-7.954l10.146-5.2c5.066-2.688,10.172-6.12,10.51-6.348Z" transform="translate(-2255.09 -445.884)" fill="#0b5999"/>
            </g>
            <path id="Trazado_624189" data-name="Trazado 624189" d="M2314.881,424.734a27.97,27.97,0,0,1,15.836,16.093l-11.733,10.045a12.524,12.524,0,0,0-1.635-8.056,20.153,20.153,0,0,0-5.1-5.7,13.06,13.06,0,0,0-5.675-2.765Z" transform="translate(-2178.142 -243.039)" fill="#1d263f"/>
            <path id="Trazado_624190" data-name="Trazado 624190" d="M2269.533,449.34c1.512-.644,1.94-1.036,3.622-1.861-8.509-7.123-16.883-14.254-25.349-21.335" transform="translate(-2167.756 -243.289)" fill="#1d263f"/>
            <g id="Grupo_895329" data-name="Grupo 895329" transform="translate(57.289 162.449)">
              <path id="Trazado_624191" data-name="Trazado 624191" d="M2254.027,423.207a1.58,1.58,0,0,0-.636-1.187l-2.742-2.711,2.6,1.009a1.5,1.5,0,0,0,1.1.127,1.008,1.008,0,0,0,.444-1.239,2.621,2.621,0,0,0-.893-1.113,3.842,3.842,0,0,1-1-1.036,20.443,20.443,0,0,0-3.439-4.294c-1.566-1.614-3.844-2.274-6.012-2.871a15.437,15.437,0,0,1,7.032,1.694,3.981,3.981,0,0,0,1.275.529,1.162,1.162,0,0,0,1.2-.5,1.191,1.191,0,0,0-.373-1.371,5.205,5.205,0,0,0-1.341-.726c-1.536-.714-2.761-1.96-4.232-2.8a9.093,9.093,0,0,0-2.145-.884,18.187,18.187,0,0,0-6.762-.083c-.076.2-.477.059-.612-.108a.827.827,0,0,1-.106-.619,16.02,16.02,0,0,0,.239-1.693,1.662,1.662,0,0,0-.693-1.478,1.582,1.582,0,0,0-1.447.031,6.674,6.674,0,0,0-1.225.871,10.292,10.292,0,0,1-4.394,2.019,15.308,15.308,0,0,0-4.781,4.409c-.083.006-.245.026-.439.053v-.01c-1.378.1-2.769.178-4.164.249l.559,2.208a23.5,23.5,0,0,1-.295,8.754c1.271-.272,2.538-.536,3.8-.78l.009.04.548-.147.023,0v0c.17-.046.34-.09.509-.137a15.793,15.793,0,0,0,5.408,2.006c2.731.582,5.545.124,8.336.036s5.808.3,7.85,2.2a5.87,5.87,0,0,0,.915.8,1.246,1.246,0,0,0,1.159.134.7.7,0,0,0,.439-.991,4.025,4.025,0,0,0,3.147.578C2253.41,424.047,2253.967,423.731,2254.027,423.207Z" transform="translate(-2220.218 -401.415)" fill="#ffa188"/>
              <path id="Trazado_624192" data-name="Trazado 624192" d="M2248.834,424.886a1.723,1.723,0,0,1-.884-.263,4.188,4.188,0,0,1-.747-.624c-.07-.069-.141-.138-.213-.206-1.656-1.544-4.157-2.242-7.656-2.132-.729.023-1.475.072-2.2.12a22.567,22.567,0,0,1-6.205-.162,16.117,16.117,0,0,1-5.4-1.977l-.226.06-.137.037a.358.358,0,0,1-.051.014l-.549.147a.267.267,0,0,1-.166-.009c-1.1.215-2.3.461-3.653.752a.273.273,0,0,1-.324-.324,23.275,23.275,0,0,0,.292-8.653l-.554-2.184a.274.274,0,0,1,.25-.34c1.613-.082,2.934-.161,4.159-.249a.259.259,0,0,1,.056,0c.1-.013.188-.025.26-.032a15.283,15.283,0,0,1,4.792-4.389.271.271,0,0,1,.078-.029,10.018,10.018,0,0,0,4.277-1.964c.077-.06.152-.122.227-.183a5.333,5.333,0,0,1,1.05-.72,1.841,1.841,0,0,1,1.7-.021,1.9,1.9,0,0,1,.829,1.717,6.092,6.092,0,0,1-.137,1.088c-.041.219-.08.425-.1.634a.635.635,0,0,0,.049.417.411.411,0,0,0,.19.1.274.274,0,0,1,.177-.094,18.593,18.593,0,0,1,6.865.091,9.326,9.326,0,0,1,2.209.911,18.5,18.5,0,0,1,1.854,1.269,13.756,13.756,0,0,0,2.358,1.521c.1.044.192.087.29.13a4.019,4.019,0,0,1,1.118.641,1.464,1.464,0,0,1,.432,1.7,1.421,1.421,0,0,1-1.482.643,3.77,3.77,0,0,1-1.249-.495l-.115-.063a13.756,13.756,0,0,0-4.317-1.428,9.491,9.491,0,0,1,3.622,2.174,20.7,20.7,0,0,1,3.483,4.354,3.231,3.231,0,0,0,.831.874l.1.082a2.851,2.851,0,0,1,.977,1.237,1.277,1.277,0,0,1-.6,1.576,1.717,1.717,0,0,1-1.309-.124l-1.378-.534,1.808,1.788a1.844,1.844,0,0,1,.715,1.411h0a1.593,1.593,0,0,1-1.34,1.2,4.319,4.319,0,0,1-2.879-.335,1.031,1.031,0,0,1-.652.729A1.221,1.221,0,0,1,2248.834,424.886Zm-8.8-3.782c3.28,0,5.683.752,7.332,2.29.076.07.15.143.224.216a3.722,3.722,0,0,0,.646.547,1,1,0,0,0,.9.121c.356-.171.423-.318.3-.652a.272.272,0,0,1,.41-.319,3.758,3.758,0,0,0,2.931.538c.4-.095.879-.342.923-.727.039-.342-.268-.676-.557-.962l-2.742-2.711a.273.273,0,0,1,.291-.449l2.6,1.009a1.3,1.3,0,0,0,.9.129.746.746,0,0,0,.291-.9,2.409,2.409,0,0,0-.808-.989l-.1-.081a3.662,3.662,0,0,1-.963-1.034,20.273,20.273,0,0,0-3.4-4.235c-1.558-1.605-3.859-2.238-5.889-2.8a.273.273,0,0,1,.073-.536h.006a15.668,15.668,0,0,1,7.156,1.726l.118.063a3.308,3.308,0,0,0,1.067.436.908.908,0,0,0,.921-.358.934.934,0,0,0-.314-1.04,3.519,3.519,0,0,0-.971-.548c-.1-.044-.2-.088-.3-.134a14.182,14.182,0,0,1-2.454-1.58,18.186,18.186,0,0,0-1.8-1.232,8.8,8.8,0,0,0-2.081-.858,17.85,17.85,0,0,0-6.545-.089.451.451,0,0,1-.231.107.883.883,0,0,1-.739-.3,1.079,1.079,0,0,1-.165-.822c.026-.228.069-.453.109-.671a5.646,5.646,0,0,0,.128-.992,1.412,1.412,0,0,0-.557-1.24,1.3,1.3,0,0,0-1.193.042,4.786,4.786,0,0,0-.939.65l-.234.188a10.556,10.556,0,0,1-4.469,2.064,15.1,15.1,0,0,0-4.662,4.32.27.27,0,0,1-.193.1c-.08.006-.237.026-.424.051a.274.274,0,0,1-.09,0c-1.123.08-2.328.152-3.763.227l.478,1.885a23.662,23.662,0,0,1-.208,8.466c1.248-.265,2.362-.493,3.395-.692a.27.27,0,0,1,.131.006l.406-.109.011,0,.011,0,.168-.044.339-.091a.271.271,0,0,1,.223.035,15.335,15.335,0,0,0,5.314,1.967,22.119,22.119,0,0,0,6.055.151c.726-.048,1.477-.1,2.216-.121C2239.56,421.107,2239.8,421.1,2240.031,421.1Zm13.938,2.044h0Z" transform="translate(-2220.159 -401.357)" fill="#ffa188"/>
            </g>
            <g id="Grupo_895330" data-name="Grupo 895330" transform="translate(6.829 157.845)">
              <path id="Trazado_624193" data-name="Trazado 624193" d="M2159.2,415.706c6.14,4,16.531,3.746,25.184,4.083l28.185,1.1c-.046-2.034-.529-3.9-.622-5.886-.125-2.665-.161-5.338-.242-8,.012.41-9.453-.217-10.3-.324a56.419,56.419,0,0,1-20.379-6.649c-2.89-1.609-5.215-1.919-8.12-3.927" transform="translate(-2158.927 -395.824)" fill="#ead6c5"/>
              <path id="Trazado_624194" data-name="Trazado 624194" d="M2212.511,421.1h-.011l-28.186-1.1c-1.106-.043-2.241-.077-3.391-.11-7.74-.228-16.513-.486-21.931-4.017a.273.273,0,0,1,.3-.458c5.29,3.447,13.981,3.7,21.65,3.929,1.152.034,2.288.068,3.4.11l27.892,1.087c-.041-.963-.176-1.9-.306-2.817s-.262-1.827-.306-2.772c-.084-1.778-.128-3.59-.172-5.34-.019-.778-.038-1.555-.061-2.332-2.016.244-9.989-.388-10.074-.4a56.848,56.848,0,0,1-10.559-2.36,56.268,56.268,0,0,1-9.918-4.321,28.166,28.166,0,0,0-3.417-1.555,22.12,22.12,0,0,1-4.726-2.386.273.273,0,1,1,.31-.449,21.4,21.4,0,0,0,4.619,2.327,28.645,28.645,0,0,1,3.479,1.585,55.726,55.726,0,0,0,9.822,4.28,56.394,56.394,0,0,0,10.457,2.336c1.04.13,9.191.631,10.076.4a.271.271,0,0,1,.185-.081h.009a.272.272,0,0,1,.272.264h0c.027.89.048,1.781.071,2.672.043,1.747.088,3.555.171,5.327.043.92.173,1.835.3,2.72a26.484,26.484,0,0,1,.322,3.172.272.272,0,0,1-.272.279Z" transform="translate(-2158.868 -395.765)" fill="#ead6c5"/>
            </g>
          </g>
        </g>
      </g>
    </g>
  </g>
</svg>
