<svg xmlns="http://www.w3.org/2000/svg" width="398.412" height="559.313" viewBox="0 0 398.412 559.313">
  <g id="Grupo_895275" data-name="Grupo 895275" transform="translate(-913.801 -658.461)">
    <g id="Grupo_874939" data-name="Grupo 874939" transform="translate(914.34 659)">
      <path id="Trazado_600000" data-name="Trazado 600000" d="M25.709,0h215.1c14.2,0,25.709,16.045,25.709,35.838V421.695c0,19.793-11.51,35.838-25.709,35.838H25.709C11.511,457.533,0,441.487,0,421.695V35.838C0,16.045,11.511,0,25.709,0Z" transform="translate(72.065 47.787)" fill="#0d4aad"/>
      <g id="Grupo_873686" data-name="Grupo 873686">
        <path id="Trazado_1" data-name="Trazado 1" d="M100.712-75.2-45.679,71.192q1.017,6.279,2.63,12.341l156.1-156.1Q106.994-74.179,100.712-75.2Z" transform="translate(47.346 76.866)" fill="none" stroke="#21cbae" stroke-miterlimit="10" stroke-width="1.078"/>
        <path id="Trazado_2" data-name="Trazado 2" d="M112.906-72.715l-156.1,156.1q1.542,5.8,3.6,11.376L124.282-69.119Q118.713-71.177,112.906-72.715Z" transform="translate(47.492 77.012)" fill="none" stroke="#21cbae" stroke-miterlimit="10" stroke-width="1.078"/>
        <path id="Trazado_3" data-name="Trazado 3" d="M160.689-48.491l-179.66,179.66c2.277,2.7,4.652,5.323,7.144,7.829L168.517-41.347C166.012-43.838,163.393-46.214,160.689-48.491Z" transform="translate(48.92 78.44)" fill="none" stroke="#21cbae" stroke-miterlimit="10" stroke-width="1.078"/>
        <path id="Trazado_4" data-name="Trazado 4" d="M152.6-54.647-25.128,123.079q3.091,4.362,6.52,8.452l179.66-179.66Q156.971-51.564,152.6-54.647Z" transform="translate(48.557 78.077)" fill="none" stroke="#21cbae" stroke-miterlimit="10" stroke-width="1.078"/>
        <path id="Trazado_5" data-name="Trazado 5" d="M134.361-65.12-35.6,104.841c1.592,3.342,3.34,6.593,5.206,9.767L144.127-59.913C140.954-61.78,137.7-63.528,134.361-65.12Z" transform="translate(47.94 77.46)" fill="none" stroke="#21cbae" stroke-miterlimit="10" stroke-width="1.078"/>
        <path id="Trazado_6" data-name="Trazado 6" d="M143.838-60.2-30.684,114.318q2.751,4.678,5.883,9.089L152.925-54.319Q148.514-57.447,143.838-60.2Z" transform="translate(48.23 77.75)" fill="none" stroke="#21cbae" stroke-miterlimit="10" stroke-width="1.078"/>
        <path id="Trazado_7" data-name="Trazado 7" d="M124.082-69.319-39.8,94.562q1.99,5.383,4.447,10.526L134.608-64.873Q129.467-67.32,124.082-69.319Z" transform="translate(47.692 77.212)" fill="none" stroke="#21cbae" stroke-miterlimit="10" stroke-width="1.078"/>
        <path id="Trazado_8" data-name="Trazado 8" d="M-38.97,3.8,33.321-68.489A127.883,127.883,0,0,0-38.97,3.8Z" transform="translate(47.741 77.261)" fill="none" stroke="#21cbae" stroke-miterlimit="10" stroke-width="1.078"/>
        <path id="Trazado_9" data-name="Trazado 9" d="M33.67-68.14-38.621,4.151a126.414,126.414,0,0,0-6.264,21.236L54.907-74.4A126.458,126.458,0,0,0,33.67-68.14Z" transform="translate(47.393 76.913)" fill="none" stroke="#21cbae" stroke-miterlimit="10" stroke-width="1.078"/>
        <path id="Trazado_10" data-name="Trazado 10" d="M87.286-76.583-47.064,57.766A127.855,127.855,0,0,0-45.6,71.273L100.793-75.117A127.881,127.881,0,0,0,87.286-76.583Z" transform="translate(47.264 76.784)" fill="none" stroke="#21cbae" stroke-miterlimit="10" stroke-width="1.078"/>
        <path id="Trazado_11" data-name="Trazado 11" d="M80.279-76.773c-2.7,0-5.372.112-8.031.277L-46.976,42.729c-.165,2.658-.277,5.331-.277,8.031,0,2.355.074,4.693.2,7.018L87.3-76.572C84.973-76.7,82.635-76.773,80.279-76.773Z" transform="translate(47.253 76.773)" fill="none" stroke="#21cbae" stroke-miterlimit="10" stroke-width="1.078"/>
        <path id="Trazado_12" data-name="Trazado 12" d="M55.031-74.281-44.761,25.511a127.586,127.586,0,0,0-2.23,17.2L72.232-76.511A127.761,127.761,0,0,0,55.031-74.281Z" transform="translate(47.268 76.788)" fill="none" stroke="#21cbae" stroke-miterlimit="10" stroke-width="1.078"/>
        <path id="Trazado_13" data-name="Trazado 13" d="M200.077,23.422,52.941,170.557a127.65,127.65,0,0,0,13.42,1.552L201.63,36.842A127.585,127.585,0,0,0,200.077,23.422Z" transform="translate(53.159 82.679)" fill="none" stroke="#21cbae" stroke-miterlimit="10" stroke-width="1.078"/>
        <path id="Trazado_14" data-name="Trazado 14" d="M201.159,44.107c0-2.694-.112-5.36-.276-8.012L65.614,171.363c2.653.165,5.319.276,8.012.276,2.307,0,4.6-.069,6.874-.19L200.969,50.981C201.09,48.7,201.159,46.413,201.159,44.107Z" transform="translate(53.906 83.426)" fill="none" stroke="#21cbae" stroke-miterlimit="10" stroke-width="1.078"/>
        <path id="Trazado_15" data-name="Trazado 15" d="M200.141,50.152,79.671,170.621a127.6,127.6,0,0,0,17.058-2.085L198.056,67.209A127.787,127.787,0,0,0,200.141,50.152Z" transform="translate(54.735 84.255)" fill="none" stroke="#21cbae" stroke-miterlimit="10" stroke-width="1.078"/>
        <path id="Trazado_16" data-name="Trazado 16" d="M197.106,66.26,95.779,167.586a126.513,126.513,0,0,0,20.773-5.8l74.753-74.752A126.74,126.74,0,0,0,197.106,66.26Z" transform="translate(55.684 85.204)" fill="none" stroke="#21cbae" stroke-miterlimit="10" stroke-width="1.078"/>
        <path id="Trazado_17" data-name="Trazado 17" d="M190.149,85.877,115.4,160.629A127.893,127.893,0,0,0,190.149,85.877Z" transform="translate(56.84 86.36)" fill="none" stroke="#21cbae" stroke-miterlimit="10" stroke-width="1.078"/>
        <path id="Trazado_18" data-name="Trazado 18" d="M198.054,11.837l-156.7,156.7q6.022,1.646,12.267,2.7L200.76,24.1Q199.7,17.862,198.054,11.837Z" transform="translate(52.476 81.996)" fill="none" stroke="#21cbae" stroke-miterlimit="10" stroke-width="1.078"/>
        <path id="Trazado_19" data-name="Trazado 19" d="M180.972-26.455,3.065,151.452C5.99,153.551,9,155.54,12.1,157.39L186.91-17.42C185.06-20.523,183.071-23.53,180.972-26.455Z" transform="translate(50.219 79.739)" fill="none" stroke="#21cbae" stroke-miterlimit="10" stroke-width="1.078"/>
        <path id="Trazado_20" data-name="Trazado 20" d="M174.868-34.388-4.869,145.349q4.058,3.456,8.4,6.571L181.44-25.987Q178.325-30.327,174.868-34.388Z" transform="translate(49.751 79.271)" fill="none" stroke="#21cbae" stroke-miterlimit="10" stroke-width="1.078"/>
        <path id="Trazado_21" data-name="Trazado 21" d="M195.022,1.157,30.676,165.5q5.537,2.09,11.311,3.663l156.7-156.7Q197.108,6.7,195.022,1.157Z" transform="translate(51.847 81.367)" fill="none" stroke="#21cbae" stroke-miterlimit="10" stroke-width="1.078"/>
        <path id="Trazado_22" data-name="Trazado 22" d="M168.12-41.745-12.225,138.6c2.49,2.505,5.1,4.89,7.79,7.183L175.3-33.954C173.009-36.645,170.625-39.254,168.12-41.745Z" transform="translate(49.318 78.838)" fill="none" stroke="#21cbae" stroke-miterlimit="10" stroke-width="1.078"/>
        <path id="Trazado_23" data-name="Trazado 23" d="M191.12-8.746,20.773,161.6c3.411,1.652,6.915,3.138,10.487,4.486L195.606,1.741C194.258-1.832,192.771-5.336,191.12-8.746Z" transform="translate(51.263 80.783)" fill="none" stroke="#21cbae" stroke-miterlimit="10" stroke-width="1.078"/>
        <path id="Trazado_24" data-name="Trazado 24" d="M186.407-17.923,11.6,156.887c3.156,1.883,6.392,3.645,9.717,5.255L191.661-8.205C190.051-11.531,188.288-14.766,186.407-17.923Z" transform="translate(50.722 80.242)" fill="none" stroke="#21cbae" stroke-miterlimit="10" stroke-width="1.078"/>
      </g>
      <g id="Grupo_873687" data-name="Grupo 873687" transform="translate(141.95 302.564)">
        <g id="Grupo_68" data-name="Grupo 68" transform="translate(112.496 0)">
          <g id="Grupo_67" data-name="Grupo 67" transform="translate(0)">
            <rect id="Rectángulo_193" data-name="Rectángulo 193" width="4.499" height="4.499" transform="translate(137.065 140.246) rotate(-44.999)" fill="#8f9294"/>
            <rect id="Rectángulo_194" data-name="Rectángulo 194" width="4.269" height="4.269" transform="translate(124.605 127.623) rotate(-45)" fill="#8f9294"/>
            <rect id="Rectángulo_195" data-name="Rectángulo 195" width="4.04" height="4.04" transform="translate(112.144 115.001) rotate(-45)" fill="#8f9294"/>
            <rect id="Rectángulo_196" data-name="Rectángulo 196" width="3.811" height="3.811" transform="matrix(0.707, -0.707, 0.707, 0.707, 99.684, 102.379)" fill="#8f9294"/>
            <rect id="Rectángulo_197" data-name="Rectángulo 197" width="3.582" height="3.582" transform="translate(87.223 89.756) rotate(-45)" fill="#8f9294"/>
            <rect id="Rectángulo_198" data-name="Rectángulo 198" width="3.353" height="3.353" transform="matrix(0.707, -0.707, 0.707, 0.707, 74.763, 77.134)" fill="#8f9294"/>
            <rect id="Rectángulo_199" data-name="Rectángulo 199" width="3.124" height="3.124" transform="translate(62.302 64.511) rotate(-45)" fill="#8f9294"/>
            <rect id="Rectángulo_200" data-name="Rectángulo 200" width="2.895" height="2.895" transform="translate(49.842 51.889) rotate(-45.001)" fill="#8f9294"/>
            <rect id="Rectángulo_201" data-name="Rectángulo 201" width="2.666" height="2.666" transform="translate(37.381 39.267) rotate(-45)" fill="#8f9294"/>
            <rect id="Rectángulo_202" data-name="Rectángulo 202" width="2.437" height="2.437" transform="matrix(0.707, -0.707, 0.707, 0.707, 24.921, 26.644)" fill="#8f9294"/>
            <rect id="Rectángulo_203" data-name="Rectángulo 203" width="2.208" height="2.208" transform="translate(12.46 14.022) rotate(-45)" fill="#8f9294"/>
            <rect id="Rectángulo_204" data-name="Rectángulo 204" width="1.979" height="1.979" transform="matrix(0.707, -0.707, 0.707, 0.707, 0, 1.399)" fill="#8f9294"/>
          </g>
        </g>
        <g id="Grupo_70" data-name="Grupo 70" transform="translate(102.269 10.227)">
          <g id="Grupo_69" data-name="Grupo 69" transform="translate(0 0)">
            <rect id="Rectángulo_205" data-name="Rectángulo 205" width="4.499" height="4.499" transform="translate(137.065 140.246) rotate(-44.999)" fill="#8f9294"/>
            <rect id="Rectángulo_206" data-name="Rectángulo 206" width="4.269" height="4.269" transform="translate(124.605 127.624) rotate(-45)" fill="#8f9294"/>
            <rect id="Rectángulo_207" data-name="Rectángulo 207" width="4.04" height="4.04" transform="translate(112.144 115.001) rotate(-44.999)" fill="#8f9294"/>
            <rect id="Rectángulo_208" data-name="Rectángulo 208" width="3.811" height="3.811" transform="translate(99.684 102.379) rotate(-45)" fill="#8f9294"/>
            <rect id="Rectángulo_209" data-name="Rectángulo 209" width="3.582" height="3.582" transform="translate(87.223 89.756) rotate(-45)" fill="#8f9294"/>
            <rect id="Rectángulo_210" data-name="Rectángulo 210" width="3.353" height="3.353" transform="translate(74.763 77.134) rotate(-45)" fill="#8f9294"/>
            <rect id="Rectángulo_211" data-name="Rectángulo 211" width="3.124" height="3.124" transform="translate(62.302 64.511) rotate(-45)" fill="#8f9294"/>
            <rect id="Rectángulo_212" data-name="Rectángulo 212" width="2.895" height="2.895" transform="translate(49.842 51.889) rotate(-45)" fill="#8f9294"/>
            <rect id="Rectángulo_213" data-name="Rectángulo 213" width="2.666" height="2.666" transform="translate(37.381 39.267) rotate(-45)" fill="#8f9294"/>
            <rect id="Rectángulo_214" data-name="Rectángulo 214" width="2.437" height="2.437" transform="translate(24.921 26.644) rotate(-45)" fill="#8f9294"/>
            <rect id="Rectángulo_215" data-name="Rectángulo 215" width="2.208" height="2.208" transform="translate(12.461 14.022) rotate(-45)" fill="#8f9294"/>
            <rect id="Rectángulo_216" data-name="Rectángulo 216" width="1.979" height="1.979" transform="matrix(0.707, -0.707, 0.707, 0.707, 0, 1.399)" fill="#8f9294"/>
          </g>
        </g>
        <g id="Grupo_72" data-name="Grupo 72" transform="translate(92.042 20.454)">
          <g id="Grupo_71" data-name="Grupo 71" transform="translate(0 0)">
            <rect id="Rectángulo_217" data-name="Rectángulo 217" width="4.499" height="4.499" transform="translate(137.065 140.246) rotate(-44.999)" fill="#8f9294"/>
            <rect id="Rectángulo_218" data-name="Rectángulo 218" width="4.27" height="4.27" transform="translate(124.605 127.623) rotate(-44.999)" fill="#8f9294"/>
            <rect id="Rectángulo_219" data-name="Rectángulo 219" width="4.04" height="4.04" transform="translate(112.144 115.001) rotate(-44.999)" fill="#8f9294"/>
            <rect id="Rectángulo_220" data-name="Rectángulo 220" width="3.811" height="3.811" transform="matrix(0.707, -0.707, 0.707, 0.707, 99.684, 102.379)" fill="#8f9294"/>
            <rect id="Rectángulo_221" data-name="Rectángulo 221" width="3.582" height="3.582" transform="translate(87.223 89.756) rotate(-44.999)" fill="#8f9294"/>
            <rect id="Rectángulo_222" data-name="Rectángulo 222" width="3.353" height="3.353" transform="matrix(0.707, -0.707, 0.707, 0.707, 74.763, 77.134)" fill="#8f9294"/>
            <rect id="Rectángulo_223" data-name="Rectángulo 223" width="3.124" height="3.124" transform="matrix(0.707, -0.707, 0.707, 0.707, 62.302, 64.511)" fill="#8f9294"/>
            <rect id="Rectángulo_224" data-name="Rectángulo 224" width="2.895" height="2.895" transform="translate(49.842 51.889) rotate(-44.999)" fill="#8f9294"/>
            <rect id="Rectángulo_225" data-name="Rectángulo 225" width="2.666" height="2.666" transform="translate(37.381 39.267) rotate(-45)" fill="#8f9294"/>
            <rect id="Rectángulo_226" data-name="Rectángulo 226" width="2.437" height="2.437" transform="translate(24.921 26.644) rotate(-44.998)" fill="#8f9294"/>
            <rect id="Rectángulo_227" data-name="Rectángulo 227" width="2.208" height="2.208" transform="translate(12.46 14.022) rotate(-45)" fill="#8f9294"/>
            <rect id="Rectángulo_228" data-name="Rectángulo 228" width="1.979" height="1.979" transform="matrix(0.707, -0.707, 0.707, 0.707, 0, 1.399)" fill="#8f9294"/>
          </g>
        </g>
        <g id="Grupo_74" data-name="Grupo 74" transform="translate(81.815 30.681)">
          <g id="Grupo_73" data-name="Grupo 73" transform="translate(0 0)">
            <rect id="Rectángulo_229" data-name="Rectángulo 229" width="4.498" height="4.498" transform="translate(137.065 140.246) rotate(-45.001)" fill="#8f9294"/>
            <rect id="Rectángulo_230" data-name="Rectángulo 230" width="4.27" height="4.27" transform="translate(124.605 127.624) rotate(-45.001)" fill="#8f9294"/>
            <rect id="Rectángulo_231" data-name="Rectángulo 231" width="4.04" height="4.04" transform="translate(112.144 115.001) rotate(-45)" fill="#8f9294"/>
            <rect id="Rectángulo_232" data-name="Rectángulo 232" width="3.811" height="3.811" transform="matrix(0.707, -0.707, 0.707, 0.707, 99.684, 102.379)" fill="#8f9294"/>
            <rect id="Rectángulo_233" data-name="Rectángulo 233" width="3.582" height="3.582" transform="translate(87.223 89.756) rotate(-45)" fill="#8f9294"/>
            <rect id="Rectángulo_234" data-name="Rectángulo 234" width="3.353" height="3.353" transform="matrix(0.707, -0.707, 0.707, 0.707, 74.763, 77.134)" fill="#8f9294"/>
            <rect id="Rectángulo_235" data-name="Rectángulo 235" width="3.124" height="3.124" transform="translate(62.302 64.511) rotate(-45)" fill="#8f9294"/>
            <rect id="Rectángulo_236" data-name="Rectángulo 236" width="2.895" height="2.895" transform="translate(49.842 51.889) rotate(-45.001)" fill="#8f9294"/>
            <rect id="Rectángulo_237" data-name="Rectángulo 237" width="2.666" height="2.666" transform="translate(37.381 39.267) rotate(-45)" fill="#8f9294"/>
            <rect id="Rectángulo_238" data-name="Rectángulo 238" width="2.437" height="2.437" transform="translate(24.921 26.644) rotate(-45)" fill="#8f9294"/>
            <rect id="Rectángulo_239" data-name="Rectángulo 239" width="2.208" height="2.208" transform="translate(12.46 14.022) rotate(-45)" fill="#8f9294"/>
            <rect id="Rectángulo_240" data-name="Rectángulo 240" width="1.979" height="1.979" transform="translate(0 1.399) rotate(-44.998)" fill="#8f9294"/>
          </g>
        </g>
        <g id="Grupo_76" data-name="Grupo 76" transform="translate(71.588 40.907)">
          <g id="Grupo_75" data-name="Grupo 75" transform="translate(0 0)">
            <rect id="Rectángulo_241" data-name="Rectángulo 241" width="4.499" height="4.499" transform="translate(137.065 140.246) rotate(-45.001)" fill="#8f9294"/>
            <rect id="Rectángulo_242" data-name="Rectángulo 242" width="4.269" height="4.269" transform="translate(124.605 127.624) rotate(-45.001)" fill="#8f9294"/>
            <rect id="Rectángulo_243" data-name="Rectángulo 243" width="4.04" height="4.04" transform="translate(112.144 115.001) rotate(-45)" fill="#8f9294"/>
            <rect id="Rectángulo_244" data-name="Rectángulo 244" width="3.811" height="3.811" transform="matrix(0.707, -0.707, 0.707, 0.707, 99.684, 102.379)" fill="#8f9294"/>
            <rect id="Rectángulo_245" data-name="Rectángulo 245" width="3.582" height="3.582" transform="translate(87.223 89.756) rotate(-45)" fill="#8f9294"/>
            <rect id="Rectángulo_246" data-name="Rectángulo 246" width="3.353" height="3.353" transform="translate(74.763 77.134) rotate(-45.001)" fill="#8f9294"/>
            <rect id="Rectángulo_247" data-name="Rectángulo 247" width="3.124" height="3.124" transform="translate(62.302 64.511) rotate(-45)" fill="#8f9294"/>
            <rect id="Rectángulo_248" data-name="Rectángulo 248" width="2.895" height="2.895" transform="translate(49.842 51.889) rotate(-45.001)" fill="#8f9294"/>
            <rect id="Rectángulo_249" data-name="Rectángulo 249" width="2.666" height="2.666" transform="translate(37.381 39.267) rotate(-45)" fill="#8f9294"/>
            <rect id="Rectángulo_250" data-name="Rectángulo 250" width="2.437" height="2.437" transform="matrix(0.707, -0.707, 0.707, 0.707, 24.921, 26.644)" fill="#8f9294"/>
            <rect id="Rectángulo_251" data-name="Rectángulo 251" width="2.208" height="2.208" transform="translate(12.46 14.022) rotate(-45)" fill="#8f9294"/>
            <rect id="Rectángulo_252" data-name="Rectángulo 252" width="1.979" height="1.979" transform="matrix(0.707, -0.707, 0.707, 0.707, 0, 1.399)" fill="#8f9294"/>
          </g>
        </g>
        <g id="Grupo_78" data-name="Grupo 78" transform="translate(61.361 51.134)">
          <g id="Grupo_77" data-name="Grupo 77" transform="translate(0 0)">
            <rect id="Rectángulo_253" data-name="Rectángulo 253" width="4.499" height="4.499" transform="translate(137.065 140.246) rotate(-45)" fill="#8f9294"/>
            <rect id="Rectángulo_254" data-name="Rectángulo 254" width="4.269" height="4.269" transform="translate(124.605 127.623) rotate(-45)" fill="#8f9294"/>
            <rect id="Rectángulo_255" data-name="Rectángulo 255" width="4.04" height="4.04" transform="translate(112.144 115.001) rotate(-45.001)" fill="#8f9294"/>
            <rect id="Rectángulo_256" data-name="Rectángulo 256" width="3.811" height="3.811" transform="matrix(0.707, -0.707, 0.707, 0.707, 99.684, 102.379)" fill="#8f9294"/>
            <rect id="Rectángulo_257" data-name="Rectángulo 257" width="3.582" height="3.582" transform="matrix(0.707, -0.707, 0.707, 0.707, 87.223, 89.756)" fill="#8f9294"/>
            <rect id="Rectángulo_258" data-name="Rectángulo 258" width="3.353" height="3.353" transform="matrix(0.707, -0.707, 0.707, 0.707, 74.763, 77.134)" fill="#8f9294"/>
            <rect id="Rectángulo_259" data-name="Rectángulo 259" width="3.124" height="3.124" transform="translate(62.302 64.511) rotate(-45)" fill="#8f9294"/>
            <rect id="Rectángulo_260" data-name="Rectángulo 260" width="2.895" height="2.895" transform="translate(49.842 51.889) rotate(-45.001)" fill="#8f9294"/>
            <rect id="Rectángulo_261" data-name="Rectángulo 261" width="2.666" height="2.666" transform="translate(37.381 39.267) rotate(-45)" fill="#8f9294"/>
            <rect id="Rectángulo_262" data-name="Rectángulo 262" width="2.437" height="2.437" transform="matrix(0.707, -0.707, 0.707, 0.707, 24.921, 26.644)" fill="#8f9294"/>
            <rect id="Rectángulo_263" data-name="Rectángulo 263" width="2.208" height="2.208" transform="translate(12.46 14.022) rotate(-45)" fill="#8f9294"/>
            <rect id="Rectángulo_264" data-name="Rectángulo 264" width="1.979" height="1.979" transform="matrix(0.707, -0.707, 0.707, 0.707, 0, 1.399)" fill="#8f9294"/>
          </g>
        </g>
        <g id="Grupo_80" data-name="Grupo 80" transform="translate(51.134 61.361)">
          <g id="Grupo_79" data-name="Grupo 79" transform="translate(0 0)">
            <rect id="Rectángulo_265" data-name="Rectángulo 265" width="4.499" height="4.499" transform="translate(137.065 140.246) rotate(-44.999)" fill="#8f9294"/>
            <rect id="Rectángulo_266" data-name="Rectángulo 266" width="4.269" height="4.269" transform="translate(124.604 127.623) rotate(-45)" fill="#8f9294"/>
            <rect id="Rectángulo_267" data-name="Rectángulo 267" width="4.04" height="4.04" transform="translate(112.144 115.001) rotate(-44.999)" fill="#8f9294"/>
            <rect id="Rectángulo_268" data-name="Rectángulo 268" width="3.811" height="3.811" transform="translate(99.684 102.379) rotate(-45)" fill="#8f9294"/>
            <rect id="Rectángulo_269" data-name="Rectángulo 269" width="3.582" height="3.582" transform="translate(87.223 89.756) rotate(-44.999)" fill="#8f9294"/>
            <rect id="Rectángulo_270" data-name="Rectángulo 270" width="3.353" height="3.353" transform="matrix(0.707, -0.707, 0.707, 0.707, 74.763, 77.134)" fill="#8f9294"/>
            <rect id="Rectángulo_271" data-name="Rectángulo 271" width="3.124" height="3.124" transform="matrix(0.707, -0.707, 0.707, 0.707, 62.302, 64.511)" fill="#8f9294"/>
            <rect id="Rectángulo_272" data-name="Rectángulo 272" width="2.895" height="2.895" transform="translate(49.842 51.889) rotate(-45.001)" fill="#8f9294"/>
            <rect id="Rectángulo_273" data-name="Rectángulo 273" width="2.666" height="2.666" transform="translate(37.381 39.267) rotate(-45)" fill="#8f9294"/>
            <rect id="Rectángulo_274" data-name="Rectángulo 274" width="2.437" height="2.437" transform="translate(24.921 26.644) rotate(-45.002)" fill="#8f9294"/>
            <rect id="Rectángulo_275" data-name="Rectángulo 275" width="2.208" height="2.208" transform="translate(12.46 14.022) rotate(-45)" fill="#8f9294"/>
            <rect id="Rectángulo_276" data-name="Rectángulo 276" width="1.979" height="1.979" transform="matrix(0.707, -0.707, 0.707, 0.707, 0, 1.399)" fill="#8f9294"/>
          </g>
        </g>
        <g id="Grupo_82" data-name="Grupo 82" transform="translate(40.907 71.588)">
          <g id="Grupo_81" data-name="Grupo 81" transform="translate(0 0)">
            <rect id="Rectángulo_277" data-name="Rectángulo 277" width="4.499" height="4.499" transform="translate(137.065 140.246) rotate(-44.999)" fill="#8f9294"/>
            <rect id="Rectángulo_278" data-name="Rectángulo 278" width="4.269" height="4.269" transform="translate(124.605 127.623) rotate(-45)" fill="#8f9294"/>
            <rect id="Rectángulo_279" data-name="Rectángulo 279" width="4.04" height="4.04" transform="translate(112.144 115.001) rotate(-44.999)" fill="#8f9294"/>
            <rect id="Rectángulo_280" data-name="Rectángulo 280" width="3.811" height="3.811" transform="translate(99.684 102.379) rotate(-45)" fill="#8f9294"/>
            <rect id="Rectángulo_281" data-name="Rectángulo 281" width="3.582" height="3.582" transform="translate(87.223 89.756) rotate(-44.999)" fill="#8f9294"/>
            <rect id="Rectángulo_282" data-name="Rectángulo 282" width="3.353" height="3.353" transform="translate(74.763 77.134) rotate(-45)" fill="#8f9294"/>
            <rect id="Rectángulo_283" data-name="Rectángulo 283" width="3.124" height="3.124" transform="matrix(0.707, -0.707, 0.707, 0.707, 62.302, 64.511)" fill="#8f9294"/>
            <rect id="Rectángulo_284" data-name="Rectángulo 284" width="2.895" height="2.895" transform="translate(49.842 51.889) rotate(-45)" fill="#8f9294"/>
            <rect id="Rectángulo_285" data-name="Rectángulo 285" width="2.666" height="2.666" transform="translate(37.381 39.267) rotate(-45)" fill="#8f9294"/>
            <rect id="Rectángulo_286" data-name="Rectángulo 286" width="2.437" height="2.437" transform="translate(24.921 26.644) rotate(-45)" fill="#8f9294"/>
            <rect id="Rectángulo_287" data-name="Rectángulo 287" width="2.208" height="2.208" transform="translate(12.46 14.022) rotate(-45)" fill="#8f9294"/>
            <rect id="Rectángulo_288" data-name="Rectángulo 288" width="1.979" height="1.979" transform="matrix(0.707, -0.707, 0.707, 0.707, 0, 1.399)" fill="#8f9294"/>
          </g>
        </g>
        <g id="Grupo_84" data-name="Grupo 84" transform="translate(30.681 81.815)">
          <g id="Grupo_83" data-name="Grupo 83" transform="translate(0 0)">
            <rect id="Rectángulo_289" data-name="Rectángulo 289" width="4.499" height="4.499" transform="translate(137.065 140.246) rotate(-44.999)" fill="#8f9294"/>
            <rect id="Rectángulo_290" data-name="Rectángulo 290" width="4.27" height="4.27" transform="translate(124.605 127.623) rotate(-44.999)" fill="#8f9294"/>
            <rect id="Rectángulo_291" data-name="Rectángulo 291" width="4.04" height="4.04" transform="translate(112.144 115.001) rotate(-44.999)" fill="#8f9294"/>
            <rect id="Rectángulo_292" data-name="Rectángulo 292" width="3.811" height="3.811" transform="matrix(0.707, -0.707, 0.707, 0.707, 99.684, 102.379)" fill="#8f9294"/>
            <rect id="Rectángulo_293" data-name="Rectángulo 293" width="3.582" height="3.582" transform="translate(87.223 89.756) rotate(-44.999)" fill="#8f9294"/>
            <rect id="Rectángulo_294" data-name="Rectángulo 294" width="3.353" height="3.353" transform="matrix(0.707, -0.707, 0.707, 0.707, 74.763, 77.134)" fill="#8f9294"/>
            <rect id="Rectángulo_295" data-name="Rectángulo 295" width="3.124" height="3.124" transform="matrix(0.707, -0.707, 0.707, 0.707, 62.302, 64.511)" fill="#8f9294"/>
            <rect id="Rectángulo_296" data-name="Rectángulo 296" width="2.895" height="2.895" transform="translate(49.842 51.889) rotate(-44.999)" fill="#8f9294"/>
            <rect id="Rectángulo_297" data-name="Rectángulo 297" width="2.666" height="2.666" transform="matrix(0.707, -0.707, 0.707, 0.707, 37.381, 39.267)" fill="#8f9294"/>
            <rect id="Rectángulo_298" data-name="Rectángulo 298" width="2.437" height="2.437" transform="translate(24.921 26.644) rotate(-44.998)" fill="#8f9294"/>
            <rect id="Rectángulo_299" data-name="Rectángulo 299" width="2.208" height="2.208" transform="translate(12.461 14.022) rotate(-44.998)" fill="#8f9294"/>
            <rect id="Rectángulo_300" data-name="Rectángulo 300" width="1.979" height="1.979" transform="translate(0 1.399) rotate(-44.998)" fill="#8f9294"/>
          </g>
        </g>
        <g id="Grupo_86" data-name="Grupo 86" transform="translate(20.454 92.042)">
          <g id="Grupo_85" data-name="Grupo 85" transform="translate(0 0)">
            <rect id="Rectángulo_301" data-name="Rectángulo 301" width="4.499" height="4.499" transform="matrix(0.707, -0.707, 0.707, 0.707, 137.065, 140.246)" fill="#8f9294"/>
            <rect id="Rectángulo_302" data-name="Rectángulo 302" width="4.27" height="4.27" transform="translate(124.605 127.624) rotate(-45.001)" fill="#8f9294"/>
            <rect id="Rectángulo_303" data-name="Rectángulo 303" width="4.04" height="4.04" transform="translate(112.144 115.001) rotate(-45.001)" fill="#8f9294"/>
            <rect id="Rectángulo_304" data-name="Rectángulo 304" width="3.811" height="3.811" transform="matrix(0.707, -0.707, 0.707, 0.707, 99.684, 102.379)" fill="#8f9294"/>
            <rect id="Rectángulo_305" data-name="Rectángulo 305" width="3.582" height="3.582" transform="translate(87.223 89.756) rotate(-45)" fill="#8f9294"/>
            <rect id="Rectángulo_306" data-name="Rectángulo 306" width="3.353" height="3.353" transform="translate(74.763 77.134) rotate(-45.001)" fill="#8f9294"/>
            <rect id="Rectángulo_307" data-name="Rectángulo 307" width="3.124" height="3.124" transform="translate(62.302 64.512) rotate(-45)" fill="#8f9294"/>
            <rect id="Rectángulo_308" data-name="Rectángulo 308" width="2.895" height="2.895" transform="translate(49.842 51.889) rotate(-45.001)" fill="#8f9294"/>
            <rect id="Rectángulo_309" data-name="Rectángulo 309" width="2.666" height="2.666" transform="translate(37.381 39.267) rotate(-45)" fill="#8f9294"/>
            <rect id="Rectángulo_310" data-name="Rectángulo 310" width="2.437" height="2.437" transform="translate(24.921 26.644) rotate(-45)" fill="#8f9294"/>
            <rect id="Rectángulo_311" data-name="Rectángulo 311" width="2.208" height="2.208" transform="translate(12.461 14.022) rotate(-45)" fill="#8f9294"/>
            <rect id="Rectángulo_312" data-name="Rectángulo 312" width="1.979" height="1.979" transform="translate(0 1.399) rotate(-45)" fill="#8f9294"/>
          </g>
        </g>
        <g id="Grupo_88" data-name="Grupo 88" transform="translate(10.227 102.269)">
          <g id="Grupo_87" data-name="Grupo 87" transform="translate(0 0)">
            <rect id="Rectángulo_313" data-name="Rectángulo 313" width="4.499" height="4.499" transform="translate(137.065 140.246) rotate(-45)" fill="#8f9294"/>
            <rect id="Rectángulo_314" data-name="Rectángulo 314" width="4.269" height="4.269" transform="translate(124.605 127.624) rotate(-45)" fill="#8f9294"/>
            <rect id="Rectángulo_315" data-name="Rectángulo 315" width="4.04" height="4.04" transform="translate(112.144 115.001) rotate(-45)" fill="#8f9294"/>
            <rect id="Rectángulo_316" data-name="Rectángulo 316" width="3.811" height="3.811" transform="matrix(0.707, -0.707, 0.707, 0.707, 99.684, 102.379)" fill="#8f9294"/>
            <rect id="Rectángulo_317" data-name="Rectángulo 317" width="3.582" height="3.582" transform="translate(87.223 89.756) rotate(-45.001)" fill="#8f9294"/>
            <rect id="Rectángulo_318" data-name="Rectángulo 318" width="3.353" height="3.353" transform="matrix(0.707, -0.707, 0.707, 0.707, 74.763, 77.134)" fill="#8f9294"/>
            <rect id="Rectángulo_319" data-name="Rectángulo 319" width="3.124" height="3.124" transform="translate(62.302 64.511) rotate(-45)" fill="#8f9294"/>
            <rect id="Rectángulo_320" data-name="Rectángulo 320" width="2.895" height="2.895" transform="translate(49.842 51.889) rotate(-45.001)" fill="#8f9294"/>
            <rect id="Rectángulo_321" data-name="Rectángulo 321" width="2.666" height="2.666" transform="translate(37.381 39.267) rotate(-45)" fill="#8f9294"/>
            <rect id="Rectángulo_322" data-name="Rectángulo 322" width="2.437" height="2.437" transform="matrix(0.707, -0.707, 0.707, 0.707, 24.921, 26.644)" fill="#8f9294"/>
            <rect id="Rectángulo_323" data-name="Rectángulo 323" width="2.208" height="2.208" transform="translate(12.46 14.022) rotate(-45)" fill="#8f9294"/>
            <rect id="Rectángulo_324" data-name="Rectángulo 324" width="1.979" height="1.979" transform="matrix(0.707, -0.707, 0.707, 0.707, 0, 1.399)" fill="#8f9294"/>
          </g>
        </g>
        <g id="Grupo_90" data-name="Grupo 90" transform="translate(0 112.496)">
          <g id="Grupo_89" data-name="Grupo 89" transform="translate(0 0)">
            <rect id="Rectángulo_325" data-name="Rectángulo 325" width="4.499" height="4.499" transform="translate(137.065 140.246) rotate(-45)" fill="#8f9294"/>
            <rect id="Rectángulo_326" data-name="Rectángulo 326" width="4.269" height="4.269" transform="translate(124.605 127.623) rotate(-45)" fill="#8f9294"/>
            <rect id="Rectángulo_327" data-name="Rectángulo 327" width="4.04" height="4.04" transform="translate(112.144 115.001) rotate(-45)" fill="#8f9294"/>
            <rect id="Rectángulo_328" data-name="Rectángulo 328" width="3.811" height="3.811" transform="translate(99.684 102.379) rotate(-45)" fill="#8f9294"/>
            <rect id="Rectángulo_329" data-name="Rectángulo 329" width="3.582" height="3.582" transform="translate(87.223 89.756) rotate(-45)" fill="#8f9294"/>
            <rect id="Rectángulo_330" data-name="Rectángulo 330" width="3.353" height="3.353" transform="translate(74.763 77.134) rotate(-45)" fill="#8f9294"/>
            <rect id="Rectángulo_331" data-name="Rectángulo 331" width="3.124" height="3.124" transform="matrix(0.707, -0.707, 0.707, 0.707, 62.302, 64.511)" fill="#8f9294"/>
            <rect id="Rectángulo_332" data-name="Rectángulo 332" width="2.895" height="2.895" transform="translate(49.842 51.889) rotate(-45.001)" fill="#8f9294"/>
            <rect id="Rectángulo_333" data-name="Rectángulo 333" width="2.666" height="2.666" transform="translate(37.381 39.267) rotate(-45.002)" fill="#8f9294"/>
            <rect id="Rectángulo_334" data-name="Rectángulo 334" width="2.437" height="2.437" transform="translate(24.921 26.644) rotate(-45.002)" fill="#8f9294"/>
            <rect id="Rectángulo_335" data-name="Rectángulo 335" width="2.208" height="2.208" transform="matrix(0.707, -0.707, 0.707, 0.707, 12.46, 14.022)" fill="#8f9294"/>
            <rect id="Rectángulo_336" data-name="Rectángulo 336" width="1.979" height="1.979" transform="matrix(0.707, -0.707, 0.707, 0.707, 0, 1.399)" fill="#8f9294"/>
          </g>
        </g>
      </g>
      <g id="Grupo_873688" data-name="Grupo 873688" transform="translate(312.474 4.216)">
        <path id="Trazado_34" data-name="Trazado 34" d="M697.8,390.082l-10.487,18.163h20.973Z" transform="translate(-687.318 -237.434)" fill="#fdfdfd"/>
        <path id="Trazado_35" data-name="Trazado 35" d="M697.8,361.354l-10.487,18.163h20.973Z" transform="translate(-687.318 -239.127)" fill="#fdfdfd"/>
        <path id="Trazado_36" data-name="Trazado 36" d="M697.8,332.626,687.318,350.79h20.973Z" transform="translate(-687.318 -240.82)" fill="#fdfdfd"/>
        <path id="Trazado_37" data-name="Trazado 37" d="M697.559,245.931l-6.084,10.537h12.167Z" transform="translate(-687.072 -245.931)" fill="#f13b76"/>
      </g>
      <g id="Grupo_875933" data-name="Grupo 875933" transform="translate(0 395.467)">
        <g id="Grupo_4" data-name="Grupo 4" transform="translate(0)">
          <rect id="Rectángulo_4" data-name="Rectángulo 4" width="4.728" height="4.728" fill="none" stroke="#fecb27" stroke-miterlimit="10" stroke-width="1.078"/>
          <rect id="Rectángulo_5" data-name="Rectángulo 5" width="4.728" height="4.728" transform="translate(36.133)" fill="none" stroke="#fecb27" stroke-miterlimit="10" stroke-width="1.078"/>
          <rect id="Rectángulo_6" data-name="Rectángulo 6" width="4.728" height="4.728" transform="translate(72.267)" fill="none" stroke="#fecb27" stroke-miterlimit="10" stroke-width="1.078"/>
          <rect id="Rectángulo_7" data-name="Rectángulo 7" width="4.728" height="4.728" transform="translate(108.4)" fill="none" stroke="#fecb27" stroke-miterlimit="10" stroke-width="1.078"/>
          <rect id="Rectángulo_8" data-name="Rectángulo 8" width="4.728" height="4.728" transform="translate(144.533)" fill="none" stroke="#fecb27" stroke-miterlimit="10" stroke-width="1.078"/>
          <rect id="Rectángulo_9" data-name="Rectángulo 9" width="4.728" height="4.728" transform="translate(180.666)" fill="none" stroke="#fecb27" stroke-miterlimit="10" stroke-width="1.078"/>
        </g>
        <g id="Grupo_5" data-name="Grupo 5" transform="translate(0 26.34)">
          <rect id="Rectángulo_10" data-name="Rectángulo 10" width="4.728" height="4.728" fill="none" stroke="#fecb27" stroke-miterlimit="10" stroke-width="1.078"/>
          <rect id="Rectángulo_11" data-name="Rectángulo 11" width="4.728" height="4.728" transform="translate(36.133)" fill="none" stroke="#fecb27" stroke-miterlimit="10" stroke-width="1.078"/>
          <rect id="Rectángulo_12" data-name="Rectángulo 12" width="4.728" height="4.728" transform="translate(72.267)" fill="none" stroke="#fecb27" stroke-miterlimit="10" stroke-width="1.078"/>
          <rect id="Rectángulo_13" data-name="Rectángulo 13" width="4.728" height="4.728" transform="translate(108.4)" fill="none" stroke="#fecb27" stroke-miterlimit="10" stroke-width="1.078"/>
          <rect id="Rectángulo_14" data-name="Rectángulo 14" width="4.728" height="4.728" transform="translate(144.533)" fill="none" stroke="#fecb27" stroke-miterlimit="10" stroke-width="1.078"/>
          <rect id="Rectángulo_15" data-name="Rectángulo 15" width="4.728" height="4.728" transform="translate(180.666)" fill="none" stroke="#fecb27" stroke-miterlimit="10" stroke-width="1.078"/>
        </g>
        <g id="Grupo_6" data-name="Grupo 6" transform="translate(0 52.68)">
          <rect id="Rectángulo_16" data-name="Rectángulo 16" width="4.728" height="4.728" fill="none" stroke="#fecb27" stroke-miterlimit="10" stroke-width="1.078"/>
          <rect id="Rectángulo_17" data-name="Rectángulo 17" width="4.728" height="4.728" transform="translate(36.133)" fill="none" stroke="#fecb27" stroke-miterlimit="10" stroke-width="1.078"/>
          <rect id="Rectángulo_18" data-name="Rectángulo 18" width="4.728" height="4.728" transform="translate(72.267)" fill="none" stroke="#fecb27" stroke-miterlimit="10" stroke-width="1.078"/>
          <rect id="Rectángulo_19" data-name="Rectángulo 19" width="4.728" height="4.728" transform="translate(108.4)" fill="none" stroke="#fecb27" stroke-miterlimit="10" stroke-width="1.078"/>
          <rect id="Rectángulo_20" data-name="Rectángulo 20" width="4.728" height="4.728" transform="translate(144.533)" fill="none" stroke="#fecb27" stroke-miterlimit="10" stroke-width="1.078"/>
          <rect id="Rectángulo_21" data-name="Rectángulo 21" width="4.728" height="4.728" transform="translate(180.666)" fill="none" stroke="#fecb27" stroke-miterlimit="10" stroke-width="1.078"/>
        </g>
        <g id="Grupo_7" data-name="Grupo 7" transform="translate(0 79.02)">
          <rect id="Rectángulo_22" data-name="Rectángulo 22" width="4.728" height="4.728" fill="none" stroke="#fecb27" stroke-miterlimit="10" stroke-width="1.078"/>
          <rect id="Rectángulo_23" data-name="Rectángulo 23" width="4.728" height="4.728" transform="translate(36.133)" fill="none" stroke="#fecb27" stroke-miterlimit="10" stroke-width="1.078"/>
          <rect id="Rectángulo_24" data-name="Rectángulo 24" width="4.728" height="4.728" transform="translate(72.267)" fill="none" stroke="#fecb27" stroke-miterlimit="10" stroke-width="1.078"/>
          <rect id="Rectángulo_25" data-name="Rectángulo 25" width="4.728" height="4.728" transform="translate(108.4)" fill="none" stroke="#fecb27" stroke-miterlimit="10" stroke-width="1.078"/>
          <rect id="Rectángulo_26" data-name="Rectángulo 26" width="4.728" height="4.728" transform="translate(144.533)" fill="none" stroke="#fecb27" stroke-miterlimit="10" stroke-width="1.078"/>
          <rect id="Rectángulo_27" data-name="Rectángulo 27" width="4.728" height="4.728" transform="translate(180.666)" fill="none" stroke="#fecb27" stroke-miterlimit="10" stroke-width="1.078"/>
        </g>
        <g id="Grupo_8" data-name="Grupo 8" transform="translate(0 105.36)">
          <rect id="Rectángulo_28" data-name="Rectángulo 28" width="4.728" height="4.728" fill="none" stroke="#fecb27" stroke-miterlimit="10" stroke-width="1.078"/>
          <rect id="Rectángulo_29" data-name="Rectángulo 29" width="4.728" height="4.728" transform="translate(36.133)" fill="none" stroke="#fecb27" stroke-width="1"/>
          <rect id="Rectángulo_30" data-name="Rectángulo 30" width="4.728" height="4.728" transform="translate(72.267)" fill="none" stroke="#fecb27" stroke-width="1"/>
          <rect id="Rectángulo_31" data-name="Rectángulo 31" width="4.728" height="4.728" transform="translate(108.4)" fill="none" stroke="#fecb27" stroke-miterlimit="10" stroke-width="1.078"/>
          <rect id="Rectángulo_32" data-name="Rectángulo 32" width="4.728" height="4.728" transform="translate(144.533)" fill="none" stroke="#fecb27" stroke-miterlimit="10" stroke-width="1.078"/>
          <rect id="Rectángulo_33" data-name="Rectángulo 33" width="4.728" height="4.728" transform="translate(180.666)" fill="none" stroke="#fecb27" stroke-miterlimit="10" stroke-width="1.078"/>
        </g>
        <g id="Grupo_9" data-name="Grupo 9" transform="translate(0 131.701)">
          <rect id="Rectángulo_34" data-name="Rectángulo 34" width="4.728" height="4.728" fill="none" stroke="#fecb27" stroke-miterlimit="10" stroke-width="1.078"/>
          <rect id="Rectángulo_35" data-name="Rectángulo 35" width="4.728" height="4.728" transform="translate(36.133)" fill="none" stroke="#fecb27" stroke-miterlimit="10" stroke-width="1.078"/>
          <rect id="Rectángulo_36" data-name="Rectángulo 36" width="4.728" height="4.728" transform="translate(72.267)" fill="none" stroke="#fecb27" stroke-miterlimit="10" stroke-width="1.078"/>
          <rect id="Rectángulo_37" data-name="Rectángulo 37" width="4.728" height="4.728" transform="translate(108.4)" fill="none" stroke="#fecb27" stroke-width="1"/>
          <rect id="Rectángulo_38" data-name="Rectángulo 38" width="4.728" height="4.728" transform="translate(144.533)" fill="none" stroke="#fecb27" stroke-miterlimit="10" stroke-width="1.078"/>
          <rect id="Rectángulo_39" data-name="Rectángulo 39" width="4.728" height="4.728" transform="translate(180.666)" fill="none" stroke="#fecb27" stroke-miterlimit="10" stroke-width="1.078"/>
        </g>
        <g id="Grupo_10" data-name="Grupo 10" transform="translate(0 158.041)">
          <rect id="Rectángulo_40" data-name="Rectángulo 40" width="4.728" height="4.728" fill="none" stroke="#fecb27" stroke-miterlimit="10" stroke-width="1.078"/>
          <rect id="Rectángulo_41" data-name="Rectángulo 41" width="4.728" height="4.728" transform="translate(36.133)" fill="none" stroke="#fecb27" stroke-miterlimit="10" stroke-width="1.078"/>
          <rect id="Rectángulo_42" data-name="Rectángulo 42" width="4.728" height="4.728" transform="translate(72.267)" fill="none" stroke="#fecb27" stroke-miterlimit="10" stroke-width="1.078"/>
          <rect id="Rectángulo_43" data-name="Rectángulo 43" width="4.728" height="4.728" transform="translate(108.4)" fill="none" stroke="#fecb27" stroke-miterlimit="10" stroke-width="1.078"/>
          <rect id="Rectángulo_44" data-name="Rectángulo 44" width="4.728" height="4.728" transform="translate(144.533)" fill="none" stroke="#fecb27" stroke-width="1"/>
          <rect id="Rectángulo_45" data-name="Rectángulo 45" width="4.728" height="4.728" transform="translate(180.666)" fill="none" stroke="#fecb27" stroke-miterlimit="10" stroke-width="1.078"/>
        </g>
      </g>
      <g id="Grupo_895295" data-name="Grupo 895295" transform="translate(-1686.007 -395.525)">
        <path id="Trazado_624052" data-name="Trazado 624052" d="M1817.522,520.648c-23.45,20.74-42.836,50.3-56.873,85.323-15.2,37.933-37.931,70.375-47.928,112.283-7.1,29.766-7.117,63.47.816,92.757s23.935,53.7,43.64,64.809c21.495,12.115,45.258,8.255,68.216,8.152,38.425-.17,76.757,10.687,115.1,6.951s78.891-25.637,99.178-74.669c21.537-52.051,14.111-117.325,4.123-173.34-6-33.657-15.79-66.382-31.353-92.215-18.516-30.736-41.494-40.99-67.219-50.3-30.288-10.958-62.849-13.7-93.263-2.388C1840.625,502.228,1828.662,510.8,1817.522,520.648Z" fill="#dce4ff"/>
        <rect id="Rectángulo_302479" data-name="Rectángulo 302479" width="115.526" height="52.744" rx="12" transform="translate(1916.899 490.746)" fill="#a9c5db"/>
        <g id="Grupo_895276" data-name="Grupo 895276" transform="translate(1932.108 505.839)">
          <path id="Trazado_624053" data-name="Trazado 624053" d="M2018.193,635.388V610.979h4.929v9.607h9.658v-9.607h4.929v24.409h-4.929V624.716h-9.658v10.672Z" transform="translate(-2018.193 -610.979)" fill="#fff"/>
          <path id="Trazado_624054" data-name="Trazado 624054" d="M2051.165,635.388v-20.28h-7.243v-4.129h19.4v4.129h-7.226v20.28Z" transform="translate(-2021.061 -610.979)" fill="#fff"/>
          <path id="Trazado_624055" data-name="Trazado 624055" d="M2069.258,635.388V610.979h7.376l4.428,16.651,4.379-16.651h7.393v24.409h-4.579V616.173l-4.846,19.215h-4.745l-4.828-19.215v19.215Z" transform="translate(-2023.884 -610.979)" fill="#fff"/>
          <path id="Trazado_624056" data-name="Trazado 624056" d="M2101.451,635.413V611.2h4.929v20.1h12.255v4.112Z" transform="translate(-2027.472 -611.004)" fill="#fff"/>
        </g>
        <g id="Grupo_895282" data-name="Grupo 895282" transform="translate(1728.789 643.629)">
          <g id="Grupo_895281" data-name="Grupo 895281">
            <g id="Grupo_895279" data-name="Grupo 895279">
              <path id="Trazado_624060" data-name="Trazado 624060" d="M2038.721,841.489c.536,5.574-4.323,10.095-10.856,10.095H1760.507c-6.533,0-12.263-4.521-12.8-10.095L1731.5,672.9c-.537-5.577,4.324-10.1,10.857-10.1h267.358c6.533,0,12.261,4.521,12.8,10.1Z" transform="translate(-1731.461 -662.805)" fill="#1d2540"/>
              <path id="Trazado_624061" data-name="Trazado 624061" d="M1928.383,932.643l-4.108-5.659H1824.4l1.31,13.622,6.14,7.007,1.765-6.677,91.966-.33-.5-5.19,3.691,1.322Z" transform="translate(-1741.82 -692.248)" fill="#1d2540"/>
              <path id="Trazado_624062" data-name="Trazado 624062" d="M1928.211,925.936h-66.572a5.1,5.1,0,0,1-5.027-5.313l3.34-129.979a5.268,5.268,0,0,1,5.164-5.326h35.01a6.748,6.748,0,0,1,6.22,5.324L1932.3,920.611C1932.886,923.54,1931.045,925.936,1928.211,925.936Z" transform="translate(-1745.41 -676.459)" fill="#1d2540"/>
              <path id="Trazado_624063" data-name="Trazado 624063" d="M1938.775,925.936H1872.2a5.1,5.1,0,0,1-5.027-5.313l3.34-129.979a5.267,5.267,0,0,1,5.164-5.326h35.009a6.748,6.748,0,0,1,6.221,5.324l25.959,129.969C1943.45,923.54,1941.609,925.936,1938.775,925.936Z" transform="translate(-1746.587 -676.459)" fill="#56618c"/>
              <path id="Trazado_624064" data-name="Trazado 624064" d="M2049.228,841.489c.536,5.574-4.323,10.095-10.856,10.095H1771.014c-6.533,0-12.263-4.521-12.8-10.095L1742.009,672.9c-.537-5.577,4.324-10.1,10.857-10.1h267.358c6.533,0,12.261,4.521,12.8,10.1Z" transform="translate(-1732.632 -662.805)" fill="#7186e2"/>
              <path id="Trazado_624065" data-name="Trazado 624065" d="M1970.236,934.612H1831.29l1.331,13.85h138.946Z" transform="translate(-1742.588 -693.099)" fill="#333d6a"/>
              <g id="Grupo_895278" data-name="Grupo 895278" transform="translate(20 7.997)">
                <path id="Trazado_624066" data-name="Trazado 624066" d="M2039.731,835.2c.49,5.09-4.037,9.219-10.115,9.219h-248.7c-6.077,0-11.4-4.128-11.889-9.219l-14.8-153.947c-.49-5.093,4.038-9.221,10.115-9.221h248.7c6.077,0,11.4,4.128,11.888,9.221Z" transform="translate(-1753.995 -671.83)" fill="#97aaef"/>
                <path id="Trazado_624067" data-name="Trazado 624067" d="M2029.61,844.59h-248.7c-6.177,0-11.608-4.225-12.107-9.418l-14.8-153.947c-.5-5.194,4.119-9.42,10.3-9.42H2013c6.176,0,11.606,4.226,12.105,9.42l14.8,153.947C2040.4,840.365,2035.785,844.59,2029.61,844.59ZM1764.341,672.2c-5.957,0-10.415,4.047-9.937,9.022l14.8,153.947c.478,4.973,5.713,9.02,11.671,9.02h248.7c5.957,0,10.413-4.047,9.935-9.02l-14.8-153.947c-.478-4.975-5.713-9.022-11.67-9.022Z" transform="translate(-1753.97 -671.805)" fill="#97aaef"/>
              </g>
            </g>
            <g id="Grupo_895280" data-name="Grupo 895280" transform="translate(63.205 20.185)">
              <path id="Trazado_624068" data-name="Trazado 624068" d="M1994.02,691.627h34.249l-.509-6.106h-34.249Z" transform="translate(-1823.873 -685.521)" fill="#fabbd0"/>
              <path id="Trazado_624069" data-name="Trazado 624069" d="M1981.062,707.638h34.248l-.509-6.106h-34.249Z" transform="translate(-1822.429 -687.306)" fill="#fabbd0"/>
              <path id="Trazado_624070" data-name="Trazado 624070" d="M2003.283,802.856h34.249l-.509-6.106h-34.248Z" transform="translate(-1824.905 -697.918)" fill="#fabbd0"/>
              <path id="Trazado_624071" data-name="Trazado 624071" d="M1990.325,818.867h34.248l-.508-6.106h-34.249Z" transform="translate(-1823.461 -699.702)" fill="#fabbd0"/>
              <path id="Trazado_624072" data-name="Trazado 624072" d="M1877.131,722.856h112.437l-.509-6.106H1876.622Z" transform="translate(-1810.845 -689.002)" fill="#fff"/>
              <path id="Trazado_624073" data-name="Trazado 624073" d="M1861.615,739.132h127.428l-.508-6.106H1861.106Z" transform="translate(-1809.116 -690.816)" fill="#fff"/>
              <path id="Trazado_624074" data-name="Trazado 624074" d="M1887.042,756.069h87.125l-.508-6.106h-87.125Z" transform="translate(-1811.95 -692.704)" fill="#fff"/>
              <path id="Trazado_624075" data-name="Trazado 624075" d="M1803.1,773.007h162.962l-.508-6.106H1802.595Z" transform="translate(-1802.595 -694.591)" fill="#fff"/>
              <path id="Trazado_624076" data-name="Trazado 624076" d="M1945.89,788.763h37.255l-.508-6.106h-37.255Z" transform="translate(-1818.509 -696.347)" fill="#fff"/>
              <path id="Trazado_624077" data-name="Trazado 624077" d="M1820.7,850.9h172.486l-.509-6.106H1820.2Z" transform="translate(-1804.556 -703.272)" fill="#fff"/>
              <path id="Trazado_624078" data-name="Trazado 624078" d="M1886.395,834.095h112.874l-1.2-14.462H1885.19Z" transform="translate(-1811.8 -700.468)" fill="#fff"/>
            </g>
          </g>
        </g>
        <g id="Grupo_895292" data-name="Grupo 895292" transform="translate(1833.972 527.572)">
          <g id="Grupo_895284" data-name="Grupo 895284" transform="translate(20.416 101.508)">
            <path id="Trazado_624079" data-name="Trazado 624079" d="M1950.35,714.139a30.116,30.116,0,0,0,8.318-.048,12.3,12.3,0,0,0,.482,8.681l-3.354-.4c-.9-.108-1.8-.214-2.711-.283-.458-.036-.917-.06-1.376-.071a3.768,3.768,0,0,1-1.192-.045c-.358-.141-.258-.419-.2-.738q.122-.661.2-1.329a20,20,0,0,0,.13-2.718A19.737,19.737,0,0,0,1950.35,714.139Z" transform="translate(-1881.446 -653.972)" fill="#ffa188"/>
            <path id="Trazado_624080" data-name="Trazado 624080" d="M1873.3,666.958a7.755,7.755,0,0,0,2.29,3.519c.159.135.326.264.5.384a12.592,12.592,0,0,0,4.486,1.649,51.51,51.51,0,0,0,6.682,1.18c2.075.191,4.122-.07,6.175-.041,6.085.083,14.248-1.059,30.21,2.391a16.922,16.922,0,0,1,7.181,3.135c.124.093.244.188.364.284a16.456,16.456,0,0,1,1.359,1.219c.108.108.213.218.318.327q.315.327.609.671t.577.7q.28.356.544.726v0q.264.369.513.751c.083.13.164.257.245.386.161.258.316.52.468.784v0c.077.132.151.267.224.4,4.109,7.522,4.572,17.477,5.437,22.615,3.089-.373,3.64-.052,8.443.06.492-9.231,4.037-20.939-3.019-36.33a22.838,22.838,0,0,0-12.736-12.017c-6.863-2.518-13.081-5.23-20.228-6.747-3.936-.836-22.565-7.077-25.111-6.552-3.607.745-8.286,7.018-11.446,8.911-1.029.618-1.611-2.092-2.369-1.16-.679.833-1.551,5.213-1.814,6.261a12.565,12.565,0,0,0,.1,6.484Z" transform="translate(-1872.815 -646.431)" fill="#0b5999"/>
            <path id="Trazado_624081" data-name="Trazado 624081" d="M1897.686,674.417a7.131,7.131,0,0,0-2.3-.653,23.125,23.125,0,0,0-3.875-.453c-1.376-.116-2.746-.3-4.109-.523-2.267-.362-4.522-.777-6.746-1.339a36.545,36.545,0,0,1-4.41-1.668,7.98,7.98,0,0,0-2.374-.661,8.452,8.452,0,0,1-.564-1.335,12.565,12.565,0,0,1-.1-6.484c3.8,2.533,3.9-8.734,13.22-7.335a116.56,116.56,0,0,1,38.016,13.69c14.175,8.215,17.058,37,17.045,41.218-.865-5.138-1.328-15.093-5.437-22.615-.073-.135-.148-.269-.224-.4v0c-.152-.264-.307-.524-.468-.784-.081-.13-.162-.257-.245-.386-.167-.252-.336-.5-.513-.751v0c-.178-.245-.358-.487-.544-.726s-.38-.473-.577-.7-.4-.452-.609-.671c-.1-.109-.211-.219-.318-.327a17.21,17.21,0,0,0-1.359-1.219c-.12-.1-.241-.191-.364-.284a16.922,16.922,0,0,0-7.181-3.135A99.519,99.519,0,0,0,1897.686,674.417Z" transform="translate(-1872.815 -647.257)" fill="#1d263f"/>
            <g id="Grupo_895283" data-name="Grupo 895283" transform="translate(67.792 65.329)">
              <path id="Trazado_624082" data-name="Trazado 624082" d="M1949.586,721.8a12.884,12.884,0,0,0-.2,5.186,22.89,22.89,0,0,0,10.013,5.9,20.747,20.747,0,0,0,11.056-.077c.639-.182,1.353-.476,1.557-1.11a1.486,1.486,0,0,0-.538-1.5,4.981,4.981,0,0,0-1.5-.765,23.851,23.851,0,0,1-11.468-9.474C1955.293,721.4,1949.586,721.8,1949.586,721.8Z" transform="translate(-1949.122 -719.954)" fill="#0b5999"/>
              <path id="Trazado_624083" data-name="Trazado 624083" d="M1949.278,727.034a4.005,4.005,0,0,0,1.711,2.134,25.541,25.541,0,0,0,8.66,4.4,18.65,18.65,0,0,0,10.183-.144,3.855,3.855,0,0,0,1.153-.579,1.339,1.339,0,0,0,.683-1.359c-.068-.185-.263-.5-.254-.544.276-.011.565.384.649.548a5.846,5.846,0,0,1,.393,1.924,2.542,2.542,0,0,1-1.707,2.6,20.46,20.46,0,0,1-2.1.623,22.182,22.182,0,0,1-4.35.617,25.364,25.364,0,0,1-4.62-.405,11.894,11.894,0,0,1-4.381-1.8L1949.5,731.4A9.417,9.417,0,0,1,1949.278,727.034Z" transform="translate(-1949.111 -720.743)" fill="#1d263f"/>
            </g>
          </g>
          <g id="Grupo_895286" data-name="Grupo 895286" transform="translate(5.811 102.063)">
            <path id="Trazado_624084" data-name="Trazado 624084" d="M1924.769,723.742a30.136,30.136,0,0,0,8.208,1.344,12.3,12.3,0,0,0-.977,8.639l-3.24-.953c-.872-.257-1.743-.514-2.626-.733-.445-.111-.894-.213-1.345-.3a3.735,3.735,0,0,1-1.168-.244c-.329-.2-.184-.457-.072-.761.155-.42.295-.847.42-1.277a19.925,19.925,0,0,0,.8-5.714Z" transform="translate(-1863.85 -655.603)" fill="#ffa188"/>
            <path id="Trazado_624085" data-name="Trazado 624085" d="M1856.478,664.666a7.748,7.748,0,0,0,1.669,3.853c.134.159.277.315.427.461a12.593,12.593,0,0,0,4.147,2.377,51.678,51.678,0,0,0,6.39,2.282c2.013.534,4.076.62,6.094.992,5.985,1.1,14.224,1.339,29.383,7.412a16.921,16.921,0,0,1,6.557,4.292c.1.113.209.227.311.342a16.348,16.348,0,0,1,1.135,1.429c.088.125.173.251.26.375q.255.376.488.764t.45.79c.145.265.283.535.415.807v0q.2.408.379.826c.06.141.12.281.177.422.116.281.226.565.331.851v0c.053.143.1.288.154.433,2.791,8.1,1.583,18,1.575,23.207,3.108.148,3.6.558,8.314,1.471,2.029-9.018,7.483-19.968,3.1-36.322a22.839,22.839,0,0,0-10.545-13.979c-6.345-3.63-12.021-7.345-18.813-10.036-3.741-1.482-21.062-10.753-23.661-10.662-3.68.132-9.344,5.533-12.776,6.871-1.118.436-1.239-2.332-2.142-1.54-.808.708-2.4,4.88-2.836,5.869a12.584,12.584,0,0,0-.985,6.409Z" transform="translate(-1856.378 -647.056)" fill="#0b5999"/>
            <path id="Trazado_624086" data-name="Trazado 624086" d="M1856.478,666.071a7.748,7.748,0,0,0,1.669,3.853c.134.159.277.315.427.461a12.593,12.593,0,0,0,4.147,2.377,51.678,51.678,0,0,0,6.39,2.282c2.013.534,4.076.62,6.094.992,5.985,1.1,14.224,1.339,29.383,7.412a16.921,16.921,0,0,1,6.557,4.292c.1.113.209.227.311.342a17.218,17.218,0,0,1,1.135,1.429c.088.125.173.251.26.375.168.251.331.506.488.764s.306.524.45.79.281.535.415.807v0c.132.274.258.549.379.826.06.141.12.281.177.422.116.283.226.565.331.851v0c.052.143.1.288.154.433,2.791,8.1,1.583,18,1.575,23.207.719-4.153,4.188-33.794-11.166-39.508-15.161-6.073-23.6-5.515-29.383-7.414a51.479,51.479,0,0,1-18.808-11.406,12.584,12.584,0,0,0-.985,6.409Z" transform="translate(-1856.378 -648.461)" fill="#1d263f"/>
            <g id="Grupo_895285" data-name="Grupo 895285" transform="translate(57.505 74.613)">
              <path id="Trazado_624087" data-name="Trazado 624087" d="M1922.766,731.353a12.9,12.9,0,0,0-1.062,5.079,22.889,22.889,0,0,0,8.886,7.49A20.742,20.742,0,0,0,1941.5,745.7a2.077,2.077,0,0,0,1.721-.833,1.484,1.484,0,0,0-.28-1.57,4.964,4.964,0,0,0-1.348-1,23.852,23.852,0,0,1-9.723-11.26C1928.459,731.913,1922.766,731.353,1922.766,731.353Z" transform="translate(-1921.163 -731.028)" fill="#0b5999"/>
              <path id="Trazado_624088" data-name="Trazado 624088" d="M1921.663,736.271a4,4,0,0,0,1.33,2.391,25.527,25.527,0,0,0,7.8,5.784,18.65,18.65,0,0,0,10.064,1.562,3.858,3.858,0,0,0,1.234-.379,1.339,1.339,0,0,0,.9-1.225c-.035-.193-.176-.537-.159-.578.274.035.493.473.548.649a5.833,5.833,0,0,1,.065,1.962,2.54,2.54,0,0,1-2.118,2.278,20.051,20.051,0,0,1-2.18.262,22.178,22.178,0,0,1-4.392-.12,25.237,25.237,0,0,1-4.487-1.173,11.888,11.888,0,0,1-4.018-2.5l-5.1-4.563A9.4,9.4,0,0,1,1921.663,736.271Z" transform="translate(-1921.096 -731.612)" fill="#1d263f"/>
            </g>
          </g>
          <path id="Trazado_624089" data-name="Trazado 624089" d="M1912.019,608.339a112.162,112.162,0,0,1,.328,15.168,37.486,37.486,0,0,1-3.72,14.613c-3.461.4-6.956.893-10.44.978.031-.108.061-.369.092-.477l3.8-21.364c.276-2.517.643-5.168.92-7.685a6.257,6.257,0,0,0,3.349-.49,25.074,25.074,0,0,1,5.678-1.1C1912.031,608.156,1912.007,608.169,1912.019,608.339Z" transform="translate(-1855.227 -540.638)" fill="#ffa188"/>
          <path id="Trazado_624090" data-name="Trazado 624090" d="M1882.772,586.788a5.822,5.822,0,0,0,4.307,3.115,9.52,9.52,0,0,0,5.859-.6,16.457,16.457,0,0,0,4.914-3.59,11.614,11.614,0,0,1-1.456-1.909,14.718,14.718,0,0,1-1.654-3.945,21.792,21.792,0,0,1-.639-3.445,16.381,16.381,0,0,1-.015-3.1c-3.482,1.878-6.305,1.844-10.032.516a64.582,64.582,0,0,0-.8,6.759c-.135,1.779-.241,3.535-.4,5.264C1882.833,586.166,1882.8,586.478,1882.772,586.788Z" transform="translate(-1853.508 -536.774)" fill="#ffa188"/>
          <path id="Trazado_624091" data-name="Trazado 624091" d="M1883.447,577.9a6.83,6.83,0,0,0,2.309,2.522,7.142,7.142,0,0,0,2.443.745,25.037,25.037,0,0,0,6.74.155q-.163-.488-.293-.985c-.156-.593-.292-1.184-.4-1.776a25.057,25.057,0,0,1-7.961.012,7.136,7.136,0,0,1-2.442-.745c-.125-.071-.362-.231-.362-.231s0,.036-.02.185c0,.023-.007.065-.011.1C1883.448,577.886,1883.443,577.891,1883.447,577.9Z" transform="translate(-1853.584 -537.251)" fill="#ed836e"/>
          <path id="Trazado_624092" data-name="Trazado 624092" d="M1899.183,549.885a8.106,8.106,0,0,1,1.443,6.521c-.067.265-.744,2.368-.744,2.368a8.044,8.044,0,0,0-.6-1.9,10.536,10.536,0,0,1-3.53-3.339,22.432,22.432,0,0,1-2.216-4.364,5.566,5.566,0,0,1-.395-1.291c-.057-.405-.113-1.228.449-1.216a5.87,5.87,0,0,1,1.566.325,7.989,7.989,0,0,1,2.8,1.564A7.658,7.658,0,0,1,1899.183,549.885Z" transform="translate(-1854.661 -533.804)" fill="#4b2c1b"/>
          <path id="Trazado_624093" data-name="Trazado 624093" d="M1876.271,563.175c2.423,8.386,8.687,14.725,14.861,12.941s8.417-10.459,6.495-18.974c-2.122-9.395-9.638-14.017-15.813-12.234S1873.848,554.789,1876.271,563.175Z" transform="translate(-1852.668 -533.566)" fill="#ffa188"/>
          <path id="Trazado_624094" data-name="Trazado 624094" d="M1896.64,557.338s3.291-10.634-6.373-11.5a23.777,23.777,0,0,1-5.379,6.112,15.811,15.811,0,0,0-3.624,2.962,8.5,8.5,0,0,0-1.369,4.343,22.12,22.12,0,0,0,.722,7.875,1.961,1.961,0,0,0-1.677-.812,5.751,5.751,0,0,0-1.953.5c.486.724,1.174,1.272,1.715,1.956a8.538,8.538,0,0,1,1.319,3.1,8.2,8.2,0,0,1-3.555-1.263,22.968,22.968,0,0,1-2.872-2.3c-1.934-1.724-2.67-4.335-4.7-5.908-1.949-1.513-4.41-3.129-4.791-5.573a9.8,9.8,0,0,1,1.685-6.9,12.965,12.965,0,0,1,1.658-1.79,19.477,19.477,0,0,0,1.692-1.41c1.413-1.654,1.212-4.214,2.476-5.984,1.167-1.634,3.307-2.228,5.3-2.464s4.082-.248,5.879-1.144c1.313-.655,2.366-1.736,3.649-2.446a7.478,7.478,0,0,1,5.633-.634,7.361,7.361,0,0,1,3.7,2.469,8.1,8.1,0,0,1,1.152,3.884c.148,1.613-.241,3.273.157,4.843a27.7,27.7,0,0,0,1.686,3.65A7.224,7.224,0,0,1,1896.64,557.338Z" transform="translate(-1851.418 -532.368)" fill="#643a24"/>
          <path id="Trazado_624095" data-name="Trazado 624095" d="M1881.906,560.812a22.3,22.3,0,0,0,.083,4.542,23.2,23.2,0,0,1,.263-3.185,8.583,8.583,0,0,1,1.714-4.218,16.018,16.018,0,0,1,3.895-2.655c2.345-1.356,6.254-5.933,6.254-5.933a11.256,11.256,0,0,0-2.03-1.913h0a23.364,23.364,0,0,1-5.282,6.084,15.468,15.468,0,0,0-3.562,2.946A8.506,8.506,0,0,0,1881.906,560.812Z" transform="translate(-1853.403 -533.891)" fill="#ed836e"/>
          <path id="Trazado_624096" data-name="Trazado 624096" d="M1899.184,542.27a7.867,7.867,0,0,0-.093-6.468,7.1,7.1,0,0,0-5.576-3.6,6.654,6.654,0,0,0-4.556,1.692,12.374,12.374,0,0,0-2.909,3.9l.392.2a11.965,11.965,0,0,1,2.8-3.766,6.234,6.234,0,0,1,4.246-1.587A6.632,6.632,0,0,1,1898.7,536a7.42,7.42,0,0,1,.075,6.1Z" transform="translate(-1853.874 -532.191)" fill="#643a24"/>
          <path id="Trazado_624097" data-name="Trazado 624097" d="M1870.158,562.268l.417-.143c-.487-1.414-2.141-1.894-3.083-2.055-.284-.048-.576-.086-.858-.123a6.369,6.369,0,0,1-2.589-.71,3.979,3.979,0,0,1-1.688-2.65,8.54,8.54,0,0,1,.111-3.305,6.055,6.055,0,0,1,1.828-3.7,7.065,7.065,0,0,1,2.417-1.038c.233-.068.465-.135.695-.208a4.1,4.1,0,0,0,2.816-2.119,4.793,4.793,0,0,0,.136-2.424,6.286,6.286,0,0,1-.04-1.739,4.019,4.019,0,0,1,2.689-2.857,12.261,12.261,0,0,1,4.21-.508l5.068-.024,0-.441-5.069.025a12.748,12.748,0,0,0-4.36.536,4.455,4.455,0,0,0-2.97,3.2,6.672,6.672,0,0,0,.036,1.862,4.419,4.419,0,0,1-.1,2.206,3.712,3.712,0,0,1-2.543,1.868c-.226.072-.455.139-.684.2a7.384,7.384,0,0,0-2.565,1.114,6.445,6.445,0,0,0-1.99,3.963,9.181,9.181,0,0,0-.109,3.473,4.415,4.415,0,0,0,1.887,2.938,6.8,6.8,0,0,0,2.764.772c.278.036.565.075.841.122C1868.264,560.648,1869.745,561.07,1870.158,562.268Z" transform="translate(-1851.171 -532.863)" fill="#643a24"/>
          <path id="Trazado_624098" data-name="Trazado 624098" d="M1900.921,601.815c.456,12.517,2.767,25.983,1.36,38.429-16.1.827-32.442,1.667-47.9-2.922,4.24-10.946,15.656-22.8,19.408-35.808Z" transform="translate(-1850.344 -539.917)" fill="#c6aa95"/>
          <path id="Trazado_624099" data-name="Trazado 624099" d="M1880.9,600.086c-3.1,5.611-6.171,8.375-9.69,11.924a21.08,21.08,0,0,1-8.911-3.761,15.971,15.971,0,0,1-2.849-2.757c-1.143-1.339-1.734-2.6-1.309-4.226a4.627,4.627,0,0,1,.755-1.433,53.228,53.228,0,0,1,18.4-16.412,9.964,9.964,0,0,1,2.807-1.406c.729-.072.82.943,1.193,1.478a5.821,5.821,0,0,0,4.621,2.258c5.839.217,6.673-2.9,6.673-2.9s2.215,1.078,3,1.483c8.6,4.462,11.538,11.429,12.27,21.094-1.229.457-2.906,1.025-4.106,1.553l-.907-6.261c1.371,8.064.916,16.665.8,24.8-.063,4.575-.184,9.151-.426,13.72-.083,1.577-.292,3.249-.292,3.249s-6.143,3.037-9.865,3.722c-11.608,2.137-23.256,2.459-35.059,2.3-.471-4.617,1.6-8.609,3.973-12.6" transform="translate(-1850.741 -537.743)" fill="#ead6c5"/>
          <path id="Trazado_624100" data-name="Trazado 624100" d="M1855.678,609.744q-.468.885-.9,1.795a55.021,55.021,0,0,0-2.229,5.44c-.653,1.863-1.219,3.768-1.709,5.7a28.47,28.47,0,0,0-.993,6.039,12.571,12.571,0,0,0,1.12,5.941c.865,1.744,2.436,3.365,4.213,3.434,1.1.042,2.2.319,3.3.4,1.184.091,2.371.116,3.557.138l29.548.561a26,26,0,0,1,1.616-7.793c-7,.386-12.668.107-19.289-.013a29.724,29.724,0,0,1-8.34-1c-1.581-.511-3.332-1.312-3.677-2.829-.427-1.88,5.3-9.3,7.37-12.987a15.689,15.689,0,0,1-2.741-.81c-4.2-1.9-6.1-2.988-9.053-6.96l0,0s-1.082,1.648-1.363,2.155Q1855.889,609.348,1855.678,609.744Z" transform="translate(-1849.838 -540.506)" fill="#ffa188"/>
          <g id="Grupo_895291" data-name="Grupo 895291" transform="translate(11.325 76.104)">
            <g id="Grupo_895287" data-name="Grupo 895287" transform="translate(21.447)">
              <path id="Trazado_624101" data-name="Trazado 624101" d="M1886.944,648.662l5.09-27.6a3.642,3.642,0,0,1,3.261-3.052H1932.8a2.1,2.1,0,0,1,1.742.878h0v.014c.03.043.058.094.086.139l1.375,2.132-1.132.252-5.025,27.238a3.632,3.632,0,0,1-3.261,3.042h-37.509C1887.59,651.7,1886.634,650.346,1886.944,648.662Z" transform="translate(-1886.738 -617.86)" fill="#5564a2"/>
              <path id="Trazado_624102" data-name="Trazado 624102" d="M1926.571,651.831h-37.509a2.23,2.23,0,0,1-1.75-.8,2.915,2.915,0,0,1-.532-2.413l.145.027-.145-.027,5.09-27.6a3.8,3.8,0,0,1,3.406-3.174h37.509a2.237,2.237,0,0,1,1.862.939l.026.036v.018c.016.024.031.05.045.075l.021.036,1.487,2.306-1.243.277-5.008,27.142A3.791,3.791,0,0,1,1926.571,651.831Zm-31.295-33.695a3.492,3.492,0,0,0-3.115,2.931l-5.09,27.6a2.631,2.631,0,0,0,.468,2.172,1.943,1.943,0,0,0,1.523.694h37.509a3.485,3.485,0,0,0,3.115-2.92l5.043-27.334,1.02-.227-1.285-1.995c-.019-.032-.038-.064-.058-.092l-.026-.049a1.947,1.947,0,0,0-1.6-.781Z" transform="translate(-1886.72 -617.841)" fill="#06355c"/>
            </g>
            <g id="Grupo_895288" data-name="Grupo 895288" transform="translate(0 31.341)">
              <path id="Trazado_624103" data-name="Trazado 624103" d="M1865.187,653.28h23.189v4.62h-25.627v-2.182A2.438,2.438,0,0,1,1865.187,653.28Z" transform="translate(-1862.602 -653.132)" fill="#5564a2"/>
              <path id="Trazado_624104" data-name="Trazado 624104" d="M1888.505,658.029h-25.922V655.7a2.589,2.589,0,0,1,2.586-2.587h23.337Zm-25.627-.3h25.333v-4.325h-23.042a2.293,2.293,0,0,0-2.291,2.291Z" transform="translate(-1862.583 -653.113)" fill="#06355c"/>
            </g>
            <g id="Grupo_895289" data-name="Grupo 895289" transform="translate(22.899 2.264)">
              <path id="Trazado_624105" data-name="Trazado 624105" d="M1890.715,654.253h37.509a3.64,3.64,0,0,0,3.262-3.05l5.09-27.6c.311-1.685-.645-3.049-2.136-3.049H1896.93a3.64,3.64,0,0,0-3.261,3.049l-5.09,27.6C1888.269,652.887,1889.225,654.253,1890.715,654.253Z" transform="translate(-1888.373 -620.408)" fill="#c4d2ff"/>
              <path id="Trazado_624106" data-name="Trazado 624106" d="M1928.205,654.382H1890.7a2.23,2.23,0,0,1-1.746-.8,2.929,2.929,0,0,1-.535-2.423l5.09-27.6a3.8,3.8,0,0,1,3.407-3.17h37.509a2.23,2.23,0,0,1,1.747.8,2.93,2.93,0,0,1,.535,2.422l-5.091,27.6A3.8,3.8,0,0,1,1928.205,654.382Zm-31.294-33.7a3.493,3.493,0,0,0-3.116,2.929l-5.09,27.6a2.638,2.638,0,0,0,.471,2.18,1.94,1.94,0,0,0,1.519.695h37.509a3.491,3.491,0,0,0,3.116-2.929l5.09-27.6a2.639,2.639,0,0,0-.472-2.18,1.939,1.939,0,0,0-1.52-.695Z" transform="translate(-1888.355 -620.389)" fill="#06355c"/>
            </g>
            <g id="Grupo_895290" data-name="Grupo 895290" transform="translate(43.382 14.276)">
              <path id="Trazado_624107" data-name="Trazado 624107" d="M1911.993,636.811c-.964,2.188-.222,4.633,1.656,5.46s4.182-.276,5.146-2.464.222-4.633-1.656-5.46S1912.957,634.624,1911.993,636.811Z" transform="translate(-1911.425 -633.926)" fill="#5564a2"/>
              <path id="Trazado_624108" data-name="Trazado 624108" d="M1914.942,642.674a3.377,3.377,0,0,1-1.37-.286c-1.949-.859-2.727-3.4-1.732-5.655h0c1-2.259,3.391-3.4,5.341-2.539s2.727,3.4,1.732,5.655A4.513,4.513,0,0,1,1914.942,642.674Zm-2.832-5.822h0c-.929,2.11-.219,4.472,1.581,5.266s4.022-.278,4.952-2.388.22-4.472-1.581-5.266S1913.039,634.743,1912.11,636.853Z" transform="translate(-1911.406 -633.908)" fill="#06355c"/>
            </g>
          </g>
        </g>
        <g id="Grupo_895293" data-name="Grupo 895293" transform="translate(1758.03 669.957)">
          <path id="Trazado_624109" data-name="Trazado 624109" d="M1794.516,730.354l-29.46-12.271-.686-6.8,26.987-12.215.809,8-18.924,7.526,20.472,7.807Z" transform="translate(-1764.37 -693.176)" fill="#fff"/>
          <path id="Trazado_624110" data-name="Trazado 624110" d="M1801.848,735.005l5.9-42.569h5.925l-6.007,42.569Z" transform="translate(-1768.547 -692.436)" fill="#fff"/>
          <path id="Trazado_624111" data-name="Trazado 624111" d="M1821.922,730.39l-.8-7.947,18.93-7.75-20.486-7.666-.8-7.89,29.482,12.215.682,6.74Z" transform="translate(-1770.433 -693.183)" fill="#fff"/>
        </g>
        <g id="Grupo_895294" data-name="Grupo 895294" transform="translate(1730.008 555.392)">
          <path id="Trazado_624112" data-name="Trazado 624112" d="M1789.133,665.032a4.342,4.342,0,0,0-4.279-3.9c1.616-1.609,1.287-4.456-.118-6.253s-3.582-2.784-5.69-3.655c-2.134-.881-4.928-.1-7.124.618h-.666c-2.2-.714-4.99-1.5-7.123-.618-2.109.871-4.286,1.858-5.69,3.655s-1.734,4.644-.118,6.253a4.185,4.185,0,0,0-.57,8.342c-1.409.865-1.727,2.856-1.233,4.434.832,2.653,3.428,4.447,6.131,5.1,2.62.634,15.255.634,17.875,0,2.7-.653,5.3-2.447,6.131-5.1.494-1.578.176-3.569-1.233-4.434A4.343,4.343,0,0,0,1789.133,665.032Z" transform="translate(-1735.196 -573.235)" fill="#1d263f"/>
          <path id="Trazado_624113" data-name="Trazado 624113" d="M1798.848,576.234a29.513,29.513,0,0,1,5.665,20.064c-.693,7.714-4.406,14.817-8.525,21.375s-8.753,12.877-11.649,20.06c-1.218,3.022-2.254,6.367-4.856,8.328a13.388,13.388,0,0,1-6.319,2.146c-3.769.524-7.88.585-11.062-1.5-4.171-2.734-5.413-8.141-7.54-12.651-4.984-10.564-15.991-17.563-20.094-28.5-2.956-7.881-1.772-17.044,2.5-24.295a36.147,36.147,0,0,1,19.393-15.348C1770.8,560.93,1789.242,563.339,1798.848,576.234Z" transform="translate(-1732.833 -563.501)" fill="#fabbd0"/>
          <path id="Trazado_624114" data-name="Trazado 624114" d="M1762.189,663.039c1.708.2,3.377.5,5.075.7a49.47,49.47,0,0,0,11.679.028c1.073-.092,2.14-.255,3.226-.327-.351.275-.719.523-1.093.765a17.027,17.027,0,0,1-18.888-1.167Z" transform="translate(-1736.105 -574.595)" fill="#0b5999"/>
          <path id="Trazado_624115" data-name="Trazado 624115" d="M1761,672.81c1.908.29,3.783.632,5.693.845a48.817,48.817,0,0,0,13.893-.46c.958-.163,1.9-.349,2.881-.49-.389.31-.8.6-1.211.874-6.337,3.931-15.267,3.767-21.257-.77Z" transform="translate(-1735.973 -575.672)" fill="#0b5999"/>
          <path id="Trazado_624116" data-name="Trazado 624116" d="M1784.865,608.985h-1.359c-1.133,0-2.235.695-2.235,1.58v.929h.184l0,.446c-.013.02-1.871.081-1.871.058l.052-1.521c-.03-.937-.938-1.491-2.052-1.491h-1.359c-1.134,0-2.481.695-2.481,1.58v1.144s.339.2.2.2h-1.359c-.139,0-.1.026-.1.035v-1.521c0-.886-1.052-1.44-2.185-1.44h-1.36c-1.116,0-2.025.582-2.052,1.518l-.1,1.375c0,.023,0,.035-.124.035h-1.359a1.974,1.974,0,0,0-.341.022v-1.382a1.733,1.733,0,0,0-1.94-1.567h-1.359a1.862,1.862,0,0,0-2.055,1.587l0,.029,3.639,32.429,1.823-.153-3.625-32.444c.031-.024.1-.2.214-.2h1.359c.139,0,.267.323.267.314v1.382a1.864,1.864,0,0,0,2.014,1.65h1.359c1.114,0,2.022-.626,2.053-1.562l-.057-1.685a.449.449,0,0,1,.284-.1h1.36a3.785,3.785,0,0,1,.513.2v1.511a1.624,1.624,0,0,0,1.767,1.638h1.359a1.734,1.734,0,0,0,1.89-1.638v-1.174l.156-.353c.013-.02.1-.181.235-.181h1.359c.128,0,.128.215.128.238l.1,1.49a1.872,1.872,0,0,0,2.052,1.617h1.359c1.133,0,2.106-.624,2.106-1.51l-.055-.989,0-.573c.013-.02.094-.274.232-.274h1.359c.124,0,.2.184.221.187l-3.632,32.118,1.822.185,3.64-32.106,0-.053A1.859,1.859,0,0,0,1784.865,608.985Z" transform="translate(-1735.817 -568.57)" fill="#1d263f"/>
        </g>
      </g>
    </g>
  </g>
</svg>
