<svg xmlns="http://www.w3.org/2000/svg" width="126.195" height="102.469" viewBox="0 0 126.195 102.469">
  <g id="Grupo_153651" data-name="Grupo 153651" transform="translate(-71.515 -42.009)">
    <g id="Grupo_153628" data-name="Grupo 153628" transform="translate(82.711 72.054)">
      <g id="Grupo_153627" data-name="Grupo 153627" transform="translate(0)">
        <path id="Trazado_204883" data-name="Trazado 204883" d="M86.551,123.652l19.023,28.292L124.6,123.652H113.888l-.458-42.757H96.8l.458,42.757Z" transform="translate(-85.863 -80.207)" fill="#feca2e"/>
        <path id="Trazado_204884" data-name="Trazado 204884" d="M105.392,152.45a.689.689,0,0,1-.571-.3L85.8,123.853a.687.687,0,0,1,.571-1.071H96.383L95.931,80.72a.688.688,0,0,1,.688-.695h16.628a.689.689,0,0,1,.688.68l.45,42.077h10.029a.687.687,0,0,1,.571,1.071l-19.023,28.293A.69.69,0,0,1,105.392,152.45ZM87.659,124.157l17.732,26.372,17.732-26.372h-9.417a.688.688,0,0,1-.688-.68L112.567,81.4H97.315l.45,42.062a.687.687,0,0,1-.688.695Z" transform="translate(-85.681 -80.025)"/>
      </g>
    </g>
    <g id="Grupo_153631" data-name="Grupo 153631" transform="translate(71.515 42.009)">
      <g id="Grupo_153629" data-name="Grupo 153629">
        <path id="Trazado_204885" data-name="Trazado 204885" d="M89.727,87.314l56.081.623c5.13.057,10.322.107,15.31-1.09s9.832-3.794,12.708-8.041,3.353-10.307.3-14.427a12.661,12.661,0,0,0-10.941-4.635c-4.122.269-5.707,1.279-8.936,3.854a14.394,14.394,0,0,0,1.04-6.435,13.272,13.272,0,0,0-3.447-7.571A19.521,19.521,0,0,0,117.8,59.35c-1.88-7.246-10.992-11.324-17.923-8.5s-10.65,11.4-8.663,18.616c-1.631-3.125-5.592-4.6-9.051-3.917a12.954,12.954,0,0,0-8.2,6.191,8.817,8.817,0,0,0-1.536,5.482c.367,3.169,3.209,5.452,6.054,6.9A31.157,31.157,0,0,0,89.727,87.314Z" transform="translate(-71.698 -42.195)" fill="#fff"/>
        <path id="Trazado_204886" data-name="Trazado 204886" d="M148.872,88.462c-1.091,0-2.176-.011-3.254-.024l-56.082-.624a31.622,31.622,0,0,1-11.552-3.264c-2.7-1.37-6-3.773-6.426-7.431a9.378,9.378,0,0,1,1.633-5.92,13.572,13.572,0,0,1,8.653-6.507,9.541,9.541,0,0,1,8.02,2.047c-.668-7.009,3.244-14.129,9.567-16.709a14.531,14.531,0,0,1,11.814.682,13.7,13.7,0,0,1,6.2,6.043,20.2,20.2,0,0,1,34.733-7.8,14.057,14.057,0,0,1,3.614,7.973,12.461,12.461,0,0,1-.433,4.619,12.442,12.442,0,0,1,7.6-2.675,13.283,13.283,0,0,1,11.538,4.912c3.087,4.159,2.972,10.42-.279,15.222-2.7,3.985-7.355,6.941-13.117,8.324A52.23,52.23,0,0,1,148.872,88.462ZM83.677,65.891a8.082,8.082,0,0,0-1.567.152,12.211,12.211,0,0,0-7.747,5.875,8.069,8.069,0,0,0-1.438,5.044c.354,3.052,3.285,5.146,5.682,6.364A30.556,30.556,0,0,0,89.552,86.44h0l56.081.624c5.019.056,10.207.113,15.141-1.072,5.427-1.3,9.8-4.058,12.3-7.757,2.883-4.259,3.015-9.992.314-13.632a11.9,11.9,0,0,0-10.344-4.359c-3.907.254-5.369,1.165-8.552,3.705a.688.688,0,0,1-1.085-.744l.179-.568a11.943,11.943,0,0,0-2.451-12.781,18.834,18.834,0,0,0-32.843,9.414.686.686,0,0,1-.645.58.7.7,0,0,1-.7-.514,11.8,11.8,0,0,0-6.319-7.394A13.139,13.139,0,0,0,99.951,51.3c-6.413,2.617-10.2,10.767-8.26,17.8a.688.688,0,0,1-1.272.5A7.618,7.618,0,0,0,83.677,65.891Z" transform="translate(-71.515 -42.009)"/>
      </g>
      <g id="Grupo_153630" data-name="Grupo 153630" transform="translate(4.911 38.685)" opacity="0.129">
        <path id="Trazado_204887" data-name="Trazado 204887" d="M169.233,91.919l-.071.034a30.834,30.834,0,0,1-3.928.967c-3.268.7-8.972.562-13.52.671-2.108.008-4.214.239-6.321.092-3.065-.266-6.14-.168-9.213-.209-5.781-.107-11.564-.2-17.347-.146-3.655.033-7.306.3-10.959.059-3.722-.138-7.444-.1-11.166-.142-2.409-.2-4.824-.191-7.235-.311A59.147,59.147,0,0,1,83.613,91.8c-1.066-.238-2.147-.405-3.211-.653a2.318,2.318,0,0,0-1.879.025,1.66,1.66,0,0,0,.393,3.006c3.16.646,6.251,1.539,9.315,2.142a35,35,0,0,0,4.967.285c1.625.087,3.243.285,4.872.281,4.377-.012,8.753.123,13.126.275,2.818-.019,5.633-.179,8.451-.223a1.229,1.229,0,0,0,1.189,1.5c6.281-.133,12.562-.281,18.844-.394a134.4,134.4,0,0,0,13.544.006,56.61,56.61,0,0,0,7.881-.633,13.305,13.305,0,0,0,2.15-.632A1.6,1.6,0,0,0,164.331,96c2.942-.421,6.378-1.242,7.124-2.828C171.726,91.782,170.321,91.158,169.233,91.919Z" transform="translate(-77.73 -90.958)"/>
      </g>
    </g>
    <g id="Grupo_153649" data-name="Grupo 153649" transform="translate(116.732 65.444)">
      <g id="Grupo_153632" data-name="Grupo 153632" transform="translate(48.674 45.38)">
        <path id="Trazado_204888" data-name="Trazado 204888" d="M191.186,136.8l14.4,14.168a94.485,94.485,0,0,0,7.841,7.159c1.49,1.167,3.148,2.271,4.961,2.271a3.755,3.755,0,0,0,3.726-3.577c-.011-1.6-1.114-2.882-2.148-3.973q-11.466-12.093-23.93-22.9C194.516,132.18,193,134.409,191.186,136.8Z" transform="translate(-190.498 -129.264)" fill="#fff"/>
        <path id="Trazado_204889" data-name="Trazado 204889" d="M218.209,160.9h0c-2.022,0-3.783-1.163-5.385-2.418a95.653,95.653,0,0,1-7.9-7.209l-14.4-14.169a.689.689,0,0,1-.066-.906c1.807-2.388,3.345-4.641,4.831-6.82a.689.689,0,0,1,1.019-.133c8.281,7.177,16.349,14.9,23.978,22.943,1.125,1.185,2.324,2.6,2.337,4.442a4.071,4.071,0,0,1-1.225,2.9A4.608,4.608,0,0,1,218.209,160.9Zm-26.294-24.354L205.888,150.3a94.715,94.715,0,0,0,7.782,7.107c1.408,1.1,2.933,2.124,4.538,2.125h0a3.205,3.205,0,0,0,2.211-.963,2.706,2.706,0,0,0,.825-1.922c-.009-1.336-.973-2.464-1.96-3.505-7.42-7.826-15.255-15.34-23.3-22.343C194.725,132.642,193.412,134.545,191.915,136.549Z" transform="translate(-190.316 -129.082)"/>
      </g>
      <g id="Grupo_153634" data-name="Grupo 153634" transform="translate(0)">
        <g id="Grupo_153633" data-name="Grupo 153633">
          <path id="Trazado_204890" data-name="Trazado 204890" d="M159.538,72.531a29.94,29.94,0,1,0,29.94,29.94A29.94,29.94,0,0,0,159.538,72.531Zm0,52.679a22.739,22.739,0,1,1,22.739-22.739A22.738,22.738,0,0,1,159.538,125.21Zm0,0a22.739,22.739,0,1,1,22.739-22.739A22.738,22.738,0,0,1,159.538,125.21Z" transform="translate(-128.91 -71.844)" fill="#fff"/>
          <path id="Trazado_204891" data-name="Trazado 204891" d="M159.355,132.916a30.627,30.627,0,1,1,30.626-30.627A30.662,30.662,0,0,1,159.355,132.916Zm0-59.879a29.252,29.252,0,1,0,29.251,29.251A29.285,29.285,0,0,0,159.355,73.037Zm0,52.678a23.427,23.427,0,1,1,23.427-23.427A23.453,23.453,0,0,1,159.355,125.715ZM137.3,102.288a22.051,22.051,0,1,0,22.051-22.051A22.076,22.076,0,0,0,137.3,102.288Z" transform="translate(-128.728 -71.662)"/>
        </g>
      </g>
      <g id="Grupo_153635" data-name="Grupo 153635" transform="translate(15.909 27.28)">
        <circle id="Elipse_5103" data-name="Elipse 5103" cx="2.349" cy="2.349" r="2.349" transform="translate(0.688 0.687)" fill="#fff"/>
        <path id="Trazado_204892" data-name="Trazado 204892" d="M151.9,112.253a3.036,3.036,0,1,1,3.036-3.036A3.04,3.04,0,0,1,151.9,112.253Zm0-4.7a1.662,1.662,0,1,0,1.661,1.662A1.664,1.664,0,0,0,151.9,107.554Z" transform="translate(-148.858 -106.18)"/>
      </g>
      <g id="Grupo_153636" data-name="Grupo 153636" transform="translate(27.285 27.28)">
        <circle id="Elipse_5104" data-name="Elipse 5104" cx="2.349" cy="2.349" r="2.349" transform="translate(0.688 0.687)" fill="#fff"/>
        <path id="Trazado_204893" data-name="Trazado 204893" d="M166.289,112.253a3.036,3.036,0,1,1,3.036-3.036A3.04,3.04,0,0,1,166.289,112.253Zm0-4.7a1.662,1.662,0,1,0,1.661,1.662A1.664,1.664,0,0,0,166.289,107.554Z" transform="translate(-163.252 -106.18)"/>
      </g>
      <g id="Grupo_153637" data-name="Grupo 153637" transform="translate(38.661 27.28)">
        <circle id="Elipse_5105" data-name="Elipse 5105" cx="2.349" cy="2.349" r="2.349" transform="translate(0.688 0.687)" fill="#fff"/>
        <path id="Trazado_204894" data-name="Trazado 204894" d="M180.682,112.253a3.036,3.036,0,1,1,3.037-3.036A3.039,3.039,0,0,1,180.682,112.253Zm0-4.7a1.662,1.662,0,1,0,1.662,1.662A1.664,1.664,0,0,0,180.682,107.554Z" transform="translate(-177.646 -106.18)"/>
      </g>
      <g id="Grupo_153638" data-name="Grupo 153638" transform="translate(52.993 51.471)">
        <path id="Trazado_204895" data-name="Trazado 204895" d="M196.009,139.091a.212.212,0,0,1-.062-.009.23.23,0,0,1-.157-.284l.527-1.843a.229.229,0,1,1,.44.126l-.527,1.843A.229.229,0,0,1,196.009,139.091Z" transform="translate(-195.781 -136.789)"/>
      </g>
      <g id="Grupo_153639" data-name="Grupo 153639" transform="translate(55.512 50.086)">
        <path id="Trazado_204896" data-name="Trazado 204896" d="M199.2,141.952a.2.2,0,0,1-.03,0,.229.229,0,0,1-.2-.257c.282-2.16.622-4.336,1.009-6.469a.229.229,0,1,1,.451.082c-.387,2.125-.725,4.294-1.006,6.446A.229.229,0,0,1,199.2,141.952Z" transform="translate(-198.967 -135.037)"/>
      </g>
      <g id="Grupo_153640" data-name="Grupo 153640" transform="translate(58.782 52.862)">
        <path id="Trazado_204897" data-name="Trazado 204897" d="M203.335,145.822a.229.229,0,0,1-.229-.229c0-1.078.166-2.887.312-4.483.089-.972.166-1.811.193-2.34a.213.213,0,0,1,.24-.217.23.23,0,0,1,.217.241c-.027.537-.1,1.381-.194,2.359-.145,1.585-.311,3.384-.311,4.441A.228.228,0,0,1,203.335,145.822Z" transform="translate(-203.106 -138.549)"/>
      </g>
      <g id="Grupo_153641" data-name="Grupo 153641" transform="translate(61.958 55.117)">
        <path id="Trazado_204898" data-name="Trazado 204898" d="M207.525,149.507a.229.229,0,0,1-.229-.224l-.172-7.646a.23.23,0,0,1,.224-.235.237.237,0,0,1,.234.224l.172,7.647a.228.228,0,0,1-.224.234Z" transform="translate(-207.124 -141.402)"/>
      </g>
      <g id="Grupo_153642" data-name="Grupo 153642" transform="translate(65.017 58.138)">
        <path id="Trazado_204899" data-name="Trazado 204899" d="M211.524,153.691a.23.23,0,0,1-.229-.22l-.3-8.008a.229.229,0,0,1,.458-.017l.3,8.008a.23.23,0,0,1-.221.238Z" transform="translate(-210.995 -145.225)"/>
      </g>
      <g id="Grupo_153643" data-name="Grupo 153643" transform="translate(68.155 61.515)">
        <path id="Trazado_204900" data-name="Trazado 204900" d="M215.6,157.438a.229.229,0,0,1-.229-.217l-.4-7.48a.229.229,0,0,1,.217-.241.213.213,0,0,1,.241.217l.4,7.48a.228.228,0,0,1-.216.241Z" transform="translate(-214.966 -149.498)"/>
      </g>
      <g id="Grupo_153644" data-name="Grupo 153644" transform="translate(71.209 64.348)">
        <path id="Trazado_204901" data-name="Trazado 204901" d="M219.621,160.824a.229.229,0,0,1-.228-.212l-.562-7.282a.229.229,0,1,1,.457-.035l.562,7.282a.228.228,0,0,1-.211.246Z" transform="translate(-218.83 -153.082)"/>
      </g>
      <g id="Grupo_153645" data-name="Grupo 153645" transform="translate(74.154 67.611)">
        <path id="Trazado_204902" data-name="Trazado 204902" d="M223.442,164.058a.229.229,0,0,1-.228-.206l-.658-6.387a.229.229,0,0,1,.456-.047l.657,6.387a.229.229,0,0,1-.2.251Z" transform="translate(-222.556 -157.211)"/>
      </g>
      <g id="Grupo_153646" data-name="Grupo 153646" transform="translate(77.326 70.805)">
        <path id="Trazado_204903" data-name="Trazado 204903" d="M227.26,164.565a.229.229,0,0,1-.226-.192l-.462-2.854a.229.229,0,1,1,.452-.074l.462,2.854a.228.228,0,0,1-.189.262A.2.2,0,0,1,227.26,164.565Z" transform="translate(-226.569 -161.253)"/>
      </g>
      <g id="Grupo_153647" data-name="Grupo 153647" transform="translate(7.797 27.364)" opacity="0.129">
        <path id="Trazado_204904" data-name="Trazado 204904" d="M182.6,116.791a18.425,18.425,0,0,0-1.738,2.411,30.982,30.982,0,0,1-2.522,2.771c-.752.671-1.472,1.261-2.206,1.821a1.15,1.15,0,0,0-.385.152c-3.742,2.708-6.556,3.7-11.289,4.569a18.248,18.248,0,0,1-8.373-.1,16.119,16.119,0,0,1-6.265-3,33.034,33.034,0,0,1-5.214-4.943l0,0a19.905,19.905,0,0,1-2.773-5.567c-.372-1-.653-2.031-.947-3.058a8.545,8.545,0,0,1-.566-3.1c-.273-.764-.525-1.537-.75-2.316a1.466,1.466,0,0,0-.707-.132,36.375,36.375,0,0,0,.047,9.278,18.342,18.342,0,0,0,4.054,8.418,26.7,26.7,0,0,0,4.354,3.779,24.629,24.629,0,0,0,6.688,3.639,25.078,25.078,0,0,0,4.081.708l.023,0a15.517,15.517,0,0,0,4.514.109,19.642,19.642,0,0,0,3.451-.748,29.859,29.859,0,0,0,6.873-2.441,17.914,17.914,0,0,0,1.589-1.059,33.859,33.859,0,0,0,6.783-5.543c.364-.753.716-1.51,1.046-2.276.413-1.144.827-2.289,1.233-3.436A1.139,1.139,0,0,0,182.6,116.791Z" transform="translate(-138.594 -106.285)"/>
      </g>
      <g id="Grupo_153648" data-name="Grupo 153648" transform="translate(49.853 47.564)" opacity="0.129">
        <path id="Trazado_204905" data-name="Trazado 204905" d="M198.645,131.921c-1.14-.328-1.9.465-2.463,1.334l-.077.091c-.995,1.161-1.276,1.063-2.917,2.547l-.021.017a2.653,2.653,0,0,0-.915.741,2.012,2.012,0,0,0,2.6,2.964,10.634,10.634,0,0,0,3.325-2.923,13.227,13.227,0,0,0,1.583-2.026A1.883,1.883,0,0,0,198.645,131.921Z" transform="translate(-191.807 -131.845)"/>
      </g>
    </g>
    <g id="Grupo_153650" data-name="Grupo 153650" transform="translate(92.841 86.811)" opacity="0.129">
      <path id="Trazado_204906" data-name="Trazado 204906" d="M114.75,99.11c-3.228-.14-6.462-.1-9.691-.22-1.108-.069-2.22-.016-3.329-.082-.7.012-1.47-.283-2.128.046a1.819,1.819,0,0,0,.7,3.488c3.551.379,7.119-.029,10.676.228a26.041,26.041,0,0,0,3.276.081,2.121,2.121,0,0,0,1.746-.519A1.785,1.785,0,0,0,114.75,99.11Z" transform="translate(-98.499 -98.698)"/>
    </g>
  </g>
</svg>
