<svg xmlns="http://www.w3.org/2000/svg" xmlns:xlink="http://www.w3.org/1999/xlink" width="153" height="153" viewBox="0 0 153 153">
  <defs>
    <filter id="Elipse_6282" x="0" y="0" width="153" height="153" filterUnits="userSpaceOnUse">
      <feOffset dy="3" input="SourceAlpha"/>
      <feGaussianBlur stdDeviation="3" result="blur"/>
      <feFlood flood-opacity="0.161"/>
      <feComposite operator="in" in2="blur"/>
      <feComposite in="SourceGraphic"/>
    </filter>
  </defs>
  <g id="Grupo_895788" data-name="Grupo 895788" transform="translate(-726 -2149)">
    <g transform="matrix(1, 0, 0, 1, 726, 2149)" filter="url(#Elipse_6282)">
      <g id="Elipse_6282-2" data-name="Elipse 6282" transform="translate(9 6)" fill="#fff" stroke="#ef3c79" stroke-width="3">
        <circle cx="67.5" cy="67.5" r="67.5" stroke="none"/>
        <circle cx="67.5" cy="67.5" r="66" fill="none"/>
      </g>
    </g>
    <g id="Grupo_895144" data-name="Grupo 895144" transform="translate(762 2174)">
      <g id="Grupo_895133" data-name="Grupo 895133" transform="translate(0 0)">
        <path id="Trazado_623876" data-name="Trazado 623876" d="M407.01,1763.584v35.788c0,39.829,38.386,49.065,38.386,49.065V1755.5Z" transform="translate(-404.99 -1753.483)" fill="#dae6f0"/>
        <path id="Trazado_623877" data-name="Trazado 623877" d="M445.915,1850.977a2.031,2.031,0,0,1-.474-.057c-.4-.1-39.932-10.082-39.932-51.029V1764.1a2.021,2.021,0,0,1,1.6-1.977l38.386-8.08a2.02,2.02,0,0,1,2.436,1.977v92.933a2.021,2.021,0,0,1-2.019,2.021Zm-36.365-85.234v34.148c0,32.358,26,43.592,34.345,46.364v-87.743Z" transform="translate(-405.509 -1754.003)" fill="#ef3c79"/>
      </g>
      <g id="Grupo_895134" data-name="Grupo 895134" transform="translate(38.386)">
        <path id="Trazado_623878" data-name="Trazado 623878" d="M435.527,1755.5v92.933s38.386-9.237,38.386-49.065v-35.788Z" transform="translate(-433.507 -1753.483)" fill="#b1ede3"/>
        <path id="Trazado_623879" data-name="Trazado 623879" d="M436.046,1850.977a2.043,2.043,0,0,1-2.02-2.021v-92.933a2.011,2.011,0,0,1,2.426-1.981l38.4,8.081a2.034,2.034,0,0,1,1.6,1.981v35.78c0,.848-.02,1.7-.061,2.586a2.014,2.014,0,0,1-2.1,1.939,2.043,2.043,0,0,1-1.94-2.1c.042-.769.062-1.556.062-2.424V1765.74l-34.346-7.233v87.72c.506-.16.991-.342,1.5-.524a58.861,58.861,0,0,0,9.616-4.688c9.778-5.9,16.587-13.819,20.223-23.555a2.091,2.091,0,0,1,2.607-1.194,2.042,2.042,0,0,1,1.171,2.606c-3.9,10.344-11.011,18.811-21.093,25.113a59.847,59.847,0,0,1-15.454,6.909.243.243,0,0,0-.1.02A1.934,1.934,0,0,1,436.046,1850.977Zm37.414-38.549a2.389,2.389,0,0,1-.382-.042,1.99,1.99,0,1,1,.382.042Z" transform="translate(-434.026 -1754.002)" fill="#06355c"/>
      </g>
      <g id="Grupo_895135" data-name="Grupo 895135" transform="translate(8.082 10.141)">
        <path id="Trazado_623880" data-name="Trazado 623880" d="M473.622,1769.069v29.152c0,31.174-30.3,37.518-30.3,37.518s-30.3-6.344-30.3-37.518v-29.152l30.3-6.061Z" transform="translate(-410.993 -1761.027)" fill="#fff"/>
        <path id="Trazado_623881" data-name="Trazado 623881" d="M444.22,1838.226h-.806l-.042-.019a46.148,46.148,0,0,1-15.878-7.4c-7.294-5.232-16-15.072-15.98-32.082v-7.839a2.02,2.02,0,0,1,4.04,0v7.839c0,21.5,15.213,30.628,24.264,34.144a33.852,33.852,0,0,0,4,1.292,31.625,31.625,0,0,0,4.041-1.292,44.382,44.382,0,0,0,9.939-5.336c9.474-6.909,14.3-16.606,14.323-28.808v-27.5l-28.283-5.656-28.285,5.656v3.5a2.02,2.02,0,1,1-4.04,0v-5.15a2.014,2.014,0,0,1,1.615-1.981l30.3-6.061h.767l30.347,6.061a2.015,2.015,0,0,1,1.615,1.981v29.152c.02,17.01-8.686,26.83-15.98,32.082a46.4,46.4,0,0,1-15.881,7.4l-.039.019Zm-30.686-53.4a2.021,2.021,0,1,1,2.019-2.021A2.027,2.027,0,0,1,413.533,1784.831Z" transform="translate(-411.513 -1761.536)" fill="#06355c"/>
      </g>
      <g id="Grupo_895139" data-name="Grupo 895139" transform="translate(22.222 20.202)">
        <g id="Grupo_895136" data-name="Grupo 895136" transform="translate(0 4.041)">
          <path id="Trazado_623882" data-name="Trazado 623882" d="M430.1,1784.134a2.014,2.014,0,0,1-1.119-.338l-6.061-4.041a2.02,2.02,0,0,1,0-3.362l6.061-4.041a2.02,2.02,0,0,1,2.241,3.362l-3.54,2.358,3.54,2.361a2.02,2.02,0,0,1-1.123,3.7Z" transform="translate(-422.018 -1772.012)" fill="#ef3c79"/>
        </g>
        <g id="Grupo_895137" data-name="Grupo 895137" transform="translate(26.264 4.041)">
          <path id="Trazado_623883" data-name="Trazado 623883" d="M443.553,1784.134a2.019,2.019,0,0,1-1.123-3.7l3.539-2.361-3.539-2.358a2.02,2.02,0,1,1,2.241-3.362l6.06,4.041a2.019,2.019,0,0,1,0,3.362l-6.06,4.041A2.017,2.017,0,0,1,443.553,1784.134Z" transform="translate(-441.53 -1772.012)" fill="#ef3c79"/>
        </g>
        <g id="Grupo_895138" data-name="Grupo 895138" transform="translate(13.97)">
          <path id="Trazado_623884" data-name="Trazado 623884" d="M434.418,1789.214a2.068,2.068,0,0,1-.491-.061,2.017,2.017,0,0,1-1.469-2.448l4.04-16.162a2.019,2.019,0,0,1,3.918.978l-4.041,16.162A2.017,2.017,0,0,1,434.418,1789.214Z" transform="translate(-432.396 -1769.011)" fill="#ef3c79"/>
        </g>
      </g>
      <g id="Grupo_895140" data-name="Grupo 895140" transform="translate(16.162 46.467)">
        <path id="Trazado_623885" data-name="Trazado 623885" d="M463.983,1792.564H451.861a2.021,2.021,0,0,1,0-4.041h12.123a2.021,2.021,0,0,1,0,4.041Zm-20.2,0a2.021,2.021,0,1,1,2.02-2.02A2.027,2.027,0,0,1,443.779,1792.564Zm-8.08,0H419.536a2.021,2.021,0,0,1,0-4.041H435.7a2.021,2.021,0,0,1,0,4.041Z" transform="translate(-417.516 -1788.523)" fill="#06355c"/>
      </g>
      <g id="Grupo_895141" data-name="Grupo 895141" transform="translate(18.183 54.548)">
        <path id="Trazado_623886" data-name="Trazado 623886" d="M461.442,1798.566a2.02,2.02,0,1,1,2.022-2.019A2.026,2.026,0,0,1,461.442,1798.566Zm-8.08,0H445.28a2.02,2.02,0,1,1,0-4.04h8.082a2.02,2.02,0,1,1,0,4.04Zm-16.162,0a2.02,2.02,0,1,1,2.02-2.019A2.026,2.026,0,0,1,437.2,1798.566Zm-8.082,0h-8.082a2.02,2.02,0,0,1,0-4.04h8.082a2.02,2.02,0,1,1,0,4.04Z" transform="translate(-419.017 -1794.527)" fill="#06355c"/>
      </g>
      <g id="Grupo_895142" data-name="Grupo 895142" transform="translate(22.222 62.629)">
        <path id="Trazado_623887" data-name="Trazado 623887" d="M456.364,1804.571H424.038a2.02,2.02,0,1,1,0-4.041h32.326a2.02,2.02,0,1,1,0,4.041Z" transform="translate(-422.018 -1800.53)" fill="#06355c"/>
      </g>
      <g id="Grupo_895143" data-name="Grupo 895143" transform="translate(30.304 70.711)">
        <path id="Trazado_623888" data-name="Trazado 623888" d="M446.2,1810.575H430.042a2.02,2.02,0,1,1,0-4.041H446.2a2.02,2.02,0,1,1,0,4.041Z" transform="translate(-428.022 -1806.534)" fill="#06355c"/>
      </g>
    </g>
  </g>
</svg>
