<svg xmlns="http://www.w3.org/2000/svg" xmlns:xlink="http://www.w3.org/1999/xlink" width="153" height="153" viewBox="0 0 153 153">
  <defs>
    <filter id="Trazado_623927" x="0" y="0" width="153" height="153" filterUnits="userSpaceOnUse">
      <feOffset dy="3" input="SourceAlpha"/>
      <feGaussianBlur stdDeviation="3" result="blur"/>
      <feFlood flood-opacity="0.161"/>
      <feComposite operator="in" in2="blur"/>
      <feComposite in="SourceGraphic"/>
    </filter>
  </defs>
  <g id="Grupo_895789" data-name="Grupo 895789" transform="translate(-1077 -2149)">
    <g transform="matrix(1, 0, 0, 1, 1077, 2149)" filter="url(#Trazado_623927)">
      <g id="Trazado_623927-2" data-name="Trazado 623927" transform="translate(9 6)" fill="#fff">
        <path d="M 67.5 133.5 C 58.58940124511719 133.5 49.94612884521484 131.7551879882812 41.8102912902832 128.3139953613281 C 37.89983749389648 126.6600341796875 34.12808990478516 124.6127853393555 30.59981727600098 122.2291259765625 C 27.10469055175781 119.8678512573242 23.81796455383301 117.1560516357422 20.83094596862793 114.1690521240234 C 17.84394454956055 111.1820373535156 15.13214588165283 107.8953094482422 12.77087306976318 104.4001846313477 C 10.3872184753418 100.8719100952148 8.339963912963867 97.10016632080078 6.685999870300293 93.18971252441406 C 3.244818210601807 85.05387115478516 1.5 76.41059875488281 1.5 67.5 C 1.5 58.58940124511719 3.244818210601807 49.94612884521484 6.685999870300293 41.8102912902832 C 8.339963912963867 37.89983749389648 10.3872184753418 34.12808990478516 12.77087306976318 30.59981727600098 C 15.13214588165283 27.10469055175781 17.84394454956055 23.81796455383301 20.83094596862793 20.83094596862793 C 23.81796455383301 17.84394454956055 27.10469055175781 15.13214588165283 30.59981727600098 12.77087306976318 C 34.12808990478516 10.3872184753418 37.89983749389648 8.339963912963867 41.8102912902832 6.685999870300293 C 49.94612884521484 3.244818210601807 58.58940124511719 1.5 67.5 1.5 C 76.41059875488281 1.5 85.05387115478516 3.244818210601807 93.18971252441406 6.685999870300293 C 97.10016632080078 8.339963912963867 100.8719100952148 10.3872184753418 104.4001846313477 12.77087306976318 C 107.8953094482422 15.13214588165283 111.1820373535156 17.84394454956055 114.1690521240234 20.83094596862793 C 117.1560516357422 23.81796455383301 119.8678512573242 27.10469055175781 122.2291259765625 30.59981727600098 C 124.6127853393555 34.12808990478516 126.6600341796875 37.89983749389648 128.3139953613281 41.8102912902832 C 131.7551879882812 49.94612884521484 133.5 58.58940124511719 133.5 67.5 C 133.5 76.41059875488281 131.7551879882812 85.05387115478516 128.3139953613281 93.18971252441406 C 126.6600341796875 97.10016632080078 124.6127853393555 100.8719100952148 122.2291259765625 104.4001846313477 C 119.8678512573242 107.8953094482422 117.1560516357422 111.1820373535156 114.1690521240234 114.1690521240234 C 111.1820373535156 117.1560516357422 107.8953094482422 119.8678512573242 104.4001846313477 122.2291259765625 C 100.8719100952148 124.6127853393555 97.10016632080078 126.6600341796875 93.18971252441406 128.3139953613281 C 85.05387115478516 131.7551879882812 76.41059875488281 133.5 67.5 133.5 Z" stroke="none"/>
        <path d="M 67.5 3 C 58.79123687744141 3 50.34455871582031 4.7049560546875 42.39462280273438 8.067497253417969 C 38.57335662841797 9.683738708496094 34.88754272460938 11.68437957763672 31.43952178955078 14.01380157470703 C 28.02349853515625 16.32164001464844 24.81111907958984 18.97212219238281 21.89161682128906 21.89161682128906 C 18.97212219238281 24.81111907958984 16.32164001464844 28.02349853515625 14.01380157470703 31.43952178955078 C 11.68437957763672 34.88754272460938 9.683738708496094 38.57335662841797 8.067497253417969 42.39462280273438 C 4.7049560546875 50.34455871582031 3 58.79123687744141 3 67.5 C 3 76.20875549316406 4.7049560546875 84.65544128417969 8.067497253417969 92.60537719726562 C 9.683738708496094 96.4266357421875 11.68437957763672 100.1124572753906 14.01380157470703 103.5604782104492 C 16.32164001464844 106.9765014648438 18.97212219238281 110.1888809204102 21.89161682128906 113.1083831787109 C 24.81111907958984 116.0278778076172 28.02349853515625 118.6783599853516 31.43952178955078 120.986198425293 C 34.88754272460938 123.3156204223633 38.57335662841797 125.3162612915039 42.39462280273438 126.932502746582 C 50.34455871582031 130.2950439453125 58.79123687744141 132 67.5 132 C 76.20875549316406 132 84.65544128417969 130.2950439453125 92.60537719726562 126.932502746582 C 96.4266357421875 125.3162612915039 100.1124572753906 123.3156204223633 103.5604782104492 120.986198425293 C 106.9765014648438 118.6783599853516 110.1888809204102 116.0278778076172 113.1083831787109 113.1083831787109 C 116.0278778076172 110.1888809204102 118.6783599853516 106.9765014648438 120.986198425293 103.5604782104492 C 123.3156204223633 100.1124572753906 125.3162612915039 96.4266357421875 126.932502746582 92.60537719726562 C 130.2950439453125 84.65544128417969 132 76.20875549316406 132 67.5 C 132 58.79123687744141 130.2950439453125 50.34455871582031 126.932502746582 42.39462280273438 C 125.3162612915039 38.57335662841797 123.3156204223633 34.88754272460938 120.986198425293 31.43952178955078 C 118.6783599853516 28.02349853515625 116.0278778076172 24.81111907958984 113.1083831787109 21.89161682128906 C 110.1888809204102 18.97212219238281 106.9765014648438 16.32164001464844 103.5604782104492 14.01380157470703 C 100.1124572753906 11.68437957763672 96.4266357421875 9.683738708496094 92.60537719726562 8.067497253417969 C 84.65544128417969 4.7049560546875 76.20875549316406 3 67.5 3 M 67.5 0 C 104.7792205810547 0 135 30.22077941894531 135 67.5 C 135 104.7792205810547 104.7792205810547 135 67.5 135 C 30.22077941894531 135 0 104.7792205810547 0 67.5 C 0 30.22077941894531 30.22077941894531 0 67.5 0 Z" stroke="none" fill="#ef3c79"/>
      </g>
    </g>
    <g id="Grupo_895178" data-name="Grupo 895178" transform="translate(1111 2180)">
      <g id="Grupo_895173" data-name="Grupo 895173">
        <g id="Grupo_895157" data-name="Grupo 895157">
          <path id="Trazado_623903" data-name="Trazado 623903" d="M729.741,1752.707H655.988a3.51,3.51,0,0,0-3.511,3.511v10.537h80.776v-10.537A3.511,3.511,0,0,0,729.741,1752.707Z" transform="translate(-650.721 -1750.95)" fill="#b1ede3"/>
          <path id="Trazado_623904" data-name="Trazado 623904" d="M733.508,1768.766H652.732a1.755,1.755,0,0,1-1.756-1.756v-10.537a5.274,5.274,0,0,1,5.267-5.269H730a5.274,5.274,0,0,1,5.268,5.269v10.537A1.755,1.755,0,0,1,733.508,1768.766Zm-79.02-3.512h77.264v-8.781a1.758,1.758,0,0,0-1.756-1.756H656.243a1.757,1.757,0,0,0-1.755,1.756Z" transform="translate(-650.976 -1751.205)" fill="#06355c"/>
        </g>
        <g id="Grupo_895158" data-name="Grupo 895158" transform="translate(0 7.025)">
          <path id="Trazado_623905" data-name="Trazado 623905" d="M673.548,1765.735l-5.267-7.025H657.745l-5.268,7.025v63.216a3.511,3.511,0,0,0,3.511,3.512h73.753a3.512,3.512,0,0,0,3.512-3.512v-63.216Z" transform="translate(-650.721 -1756.954)" fill="#fff"/>
          <path id="Trazado_623906" data-name="Trazado 623906" d="M730,1834.474H656.243a5.283,5.283,0,0,1-5.267-5.268V1765.99a1.722,1.722,0,0,1,.351-1.055l5.268-7.023a1.776,1.776,0,0,1,1.405-.7h10.536a1.783,1.783,0,0,1,1.4.7l4.742,6.323h58.826a1.74,1.74,0,0,1,1.756,1.756v32.1a1.756,1.756,0,1,1-3.512,0v-30.342H673.8a1.774,1.774,0,0,1-1.4-.7l-4.742-6.32h-8.78l-4.39,5.847v62.637a1.761,1.761,0,0,0,1.755,1.756H730a1.762,1.762,0,0,0,1.756-1.756v-17.07a1.756,1.756,0,0,1,3.512,0v17.07A5.285,5.285,0,0,1,730,1834.474Zm3.512-27.607a1.746,1.746,0,1,1,1.756-1.755A1.749,1.749,0,0,1,733.508,1806.867Z" transform="translate(-650.976 -1757.209)" fill="#ef3c79"/>
        </g>
        <g id="Grupo_895159" data-name="Grupo 895159" transform="translate(59.704 7.025)">
          <path id="Trazado_623907" data-name="Trazado 623907" d="M716.054,1758.965a1.762,1.762,0,0,1,1.756-1.756h0a1.762,1.762,0,0,1,1.756,1.756h0a1.761,1.761,0,0,1-1.756,1.756h0A1.762,1.762,0,0,1,716.054,1758.965Zm-7.023,0a1.761,1.761,0,0,1,1.756-1.756h0a1.762,1.762,0,0,1,1.756,1.756h0a1.762,1.762,0,0,1-1.756,1.756h0A1.761,1.761,0,0,1,709.031,1758.965Zm-7.025,0a1.762,1.762,0,0,1,1.756-1.756h0a1.762,1.762,0,0,1,1.756,1.756h0a1.762,1.762,0,0,1-1.756,1.756h0A1.762,1.762,0,0,1,702.006,1758.965Z" transform="translate(-702.006 -1757.209)" fill="#06355c"/>
        </g>
        <g id="Grupo_895160" data-name="Grupo 895160" transform="translate(0 14.049)">
          <path id="Trazado_623908" data-name="Trazado 623908" d="M665.024,1766.725H652.732a1.756,1.756,0,1,1,0-3.512h12.292a1.756,1.756,0,0,1,0,3.512Z" transform="translate(-650.976 -1763.213)" fill="#ef3c79"/>
        </g>
        <g id="Grupo_895161" data-name="Grupo 895161" transform="translate(42.144 42.145)">
          <path id="Trazado_623909" data-name="Trazado 623909" d="M720.106,1808.044v-7.025h-3.085l-1.242-3,2.183-2.182-4.968-4.966-2.182,2.182-3-1.241v-3.086H700.79v3.086l-3,1.241-2.182-2.182-4.967,4.966,2.182,2.182c-.6,1.445-.642,1.552-1.241,3H688.5v7.025h3.086c.6,1.445.642,1.552,1.241,3l-2.182,2.182,4.967,4.968,2.182-2.183,3,1.241v3.086h7.024v-3.086l3-1.241,2.182,2.183,4.968-4.968-2.183-2.182,1.242-3Zm-15.8,1.756a5.268,5.268,0,1,1,5.268-5.269A5.268,5.268,0,0,1,704.3,1809.8Z" transform="translate(-686.742 -1786.972)" fill="#b1ede3"/>
          <path id="Trazado_623910" data-name="Trazado 623910" d="M708.069,1822.347h-7.024a1.754,1.754,0,0,1-1.755-1.756v-1.914l-.831-.343-1.352,1.354a1.759,1.759,0,0,1-1.241.515h0a1.755,1.755,0,0,1-1.241-.515l-4.966-4.968a1.755,1.755,0,0,1,0-2.484l1.352-1.351-.344-.829h-1.913A1.756,1.756,0,0,1,687,1808.3v-7.025a1.756,1.756,0,0,1,1.756-1.756h1.914l.343-.828-1.352-1.352a1.755,1.755,0,0,1,0-2.484l4.966-4.966a1.755,1.755,0,0,1,2.483,0l1.352,1.354.831-.345v-1.912a1.754,1.754,0,0,1,1.755-1.756h7.024a1.755,1.755,0,0,1,1.756,1.756v1.912l.83.345,1.354-1.354a1.755,1.755,0,0,1,2.483,0l4.967,4.966a1.757,1.757,0,0,1,0,2.484l-1.352,1.352.342.83h1.914a1.755,1.755,0,0,1,1.756,1.756v7.025a1.756,1.756,0,0,1-1.756,1.756h-1.912l-.344.829,1.352,1.351a1.755,1.755,0,0,1,0,2.484l-4.967,4.968a1.809,1.809,0,0,1-2.483,0l-1.354-1.354-.83.343v1.914A1.755,1.755,0,0,1,708.069,1822.347Zm-5.268-3.511h3.512V1817.5a1.757,1.757,0,0,1,1.083-1.623l3-1.241a1.753,1.753,0,0,1,1.913.38l.942.942,2.483-2.485-.941-.94a1.755,1.755,0,0,1-.382-1.915l1.244-3a1.757,1.757,0,0,1,1.622-1.082H718.6v-3.512h-1.33a1.754,1.754,0,0,1-1.622-1.083l-1.243-3a1.756,1.756,0,0,1,.382-1.916l.941-.942-2.483-2.483-.942.942a1.765,1.765,0,0,1-1.915.38l-3-1.244a1.756,1.756,0,0,1-1.082-1.621v-1.329H702.8v1.329a1.755,1.755,0,0,1-1.082,1.621l-3,1.244a1.763,1.763,0,0,1-1.915-.38l-.941-.942-2.484,2.483.942.942a1.758,1.758,0,0,1,.38,1.916l-1.241,3a1.757,1.757,0,0,1-1.622,1.083h-1.331v3.512h1.329a1.756,1.756,0,0,1,1.622,1.082l1.244,3a1.757,1.757,0,0,1-.38,1.915l-.942.94,2.484,2.485.941-.942a1.751,1.751,0,0,1,1.914-.38l3,1.241a1.757,1.757,0,0,1,1.083,1.623Zm1.756-7.026a7.024,7.024,0,1,1,7.024-7.023A7.031,7.031,0,0,1,704.557,1811.81Zm0-10.536a3.512,3.512,0,1,0,3.512,3.512A3.517,3.517,0,0,0,704.557,1801.275Z" transform="translate(-686.997 -1787.227)" fill="#06355c"/>
        </g>
        <g id="Grupo_895162" data-name="Grupo 895162" transform="translate(7.024 28.097)">
          <path id="Trazado_623911" data-name="Trazado 623911" d="M690.088,1796.037v-7.024H687c-.6-1.446-.643-1.552-1.241-3l2.182-2.182-4.967-4.967-2.183,2.182-3-1.243v-3.085h-7.023v3.085l-3,1.243-2.182-2.182-4.966,4.967,2.182,2.182c-.6,1.445-.642,1.551-1.241,3H658.48v7.024h3.086c.6,1.445.642,1.552,1.241,3l-2.182,2.182,4.966,4.967,2.182-2.182,3,1.241v3.086H677.8v-3.086l3-1.241,2.183,2.182,4.967-4.967-2.182-2.182c.6-1.446.642-1.552,1.241-3Zm-15.8,1.755a5.268,5.268,0,1,1,5.269-5.267A5.267,5.267,0,0,1,674.284,1797.792Z" transform="translate(-656.725 -1774.965)" fill="#dae6f0"/>
          <path id="Trazado_623912" data-name="Trazado 623912" d="M678.051,1810.34h-7.023a1.755,1.755,0,0,1-1.756-1.756v-1.914l-.831-.343-1.352,1.354a1.758,1.758,0,0,1-1.241.514h0a1.758,1.758,0,0,1-1.242-.514l-4.965-4.968a1.756,1.756,0,0,1,0-2.484l1.353-1.351-.345-.831h-1.912a1.754,1.754,0,0,1-1.755-1.755v-7.024a1.755,1.755,0,0,1,1.755-1.756l1.914,0,.343-.827-1.353-1.354a1.753,1.753,0,0,1,0-2.483l4.965-4.967a1.757,1.757,0,0,1,2.484,0l1.352,1.354.831-.345v-1.912a1.755,1.755,0,0,1,1.756-1.756h7.023a1.755,1.755,0,0,1,1.756,1.756v1.912l.829.345,1.354-1.354a1.755,1.755,0,0,1,2.483,0l4.966,4.967a1.755,1.755,0,0,1,0,2.483l-1.352,1.354.342.83h1.914a1.755,1.755,0,0,1,1.756,1.756v7.024a1.754,1.754,0,0,1-1.756,1.755h-1.912l-.344.831,1.352,1.351a1.755,1.755,0,0,1,0,2.484l-4.966,4.968a1.809,1.809,0,0,1-2.483,0l-1.354-1.354-.829.343v1.914A1.755,1.755,0,0,1,678.051,1810.34Zm-5.268-3.512h3.512v-1.33a1.758,1.758,0,0,1,1.083-1.623l3-1.241a1.754,1.754,0,0,1,1.915.38l.941.942,2.484-2.485-.942-.939a1.758,1.758,0,0,1-.381-1.915l1.244-3a1.756,1.756,0,0,1,1.623-1.081h1.328v-3.512h-1.33a1.758,1.758,0,0,1-1.623-1.085l-1.241-2.995a1.757,1.757,0,0,1,.381-1.915l.942-.942-2.484-2.483-.941.941a1.765,1.765,0,0,1-1.916.381l-3-1.244a1.757,1.757,0,0,1-1.082-1.622v-1.33h-3.512v1.33a1.757,1.757,0,0,1-1.082,1.622l-3,1.244a1.759,1.759,0,0,1-1.915-.381l-.941-.941-2.484,2.483.942.942a1.757,1.757,0,0,1,.38,1.915l-1.241,2.995a1.758,1.758,0,0,1-1.623,1.085h-1.33v3.512h1.329a1.756,1.756,0,0,1,1.623,1.081l1.242,3a1.757,1.757,0,0,1-.38,1.915l-.942.939,2.484,2.485.941-.942a1.754,1.754,0,0,1,1.914-.38l3,1.241a1.756,1.756,0,0,1,1.083,1.623Zm1.756-7.024a7.024,7.024,0,1,1,7.024-7.023A7.031,7.031,0,0,1,674.539,1799.8Zm0-10.536a3.512,3.512,0,1,0,3.512,3.512A3.516,3.516,0,0,0,674.539,1789.268Z" transform="translate(-656.98 -1775.22)" fill="#ef3c79"/>
        </g>
        <g id="Grupo_895172" data-name="Grupo 895172" transform="translate(42.144 22.829)">
          <g id="Grupo_895163" data-name="Grupo 895163" transform="translate(1.756 1.756)">
            <path id="Trazado_623913" data-name="Trazado 623913" d="M690,1778.986a5.268,5.268,0,1,1,5.268,5.268A5.268,5.268,0,0,1,690,1778.986Z" transform="translate(-688.243 -1771.963)" fill="#fff"/>
            <path id="Trazado_623914" data-name="Trazado 623914" d="M695.522,1786.266a7.024,7.024,0,1,1,7.023-7.025A7.031,7.031,0,0,1,695.522,1786.266Zm0-10.536a3.512,3.512,0,1,0,3.512,3.511A3.516,3.516,0,0,0,695.522,1775.73Z" transform="translate(-688.498 -1772.218)" fill="#06355c"/>
          </g>
          <g id="Grupo_895164" data-name="Grupo 895164" transform="translate(7.024)">
            <path id="Trazado_623915" data-name="Trazado 623915" d="M694.757,1775.985a1.755,1.755,0,0,1-1.756-1.756v-1.756a1.756,1.756,0,1,1,3.511,0v1.756A1.755,1.755,0,0,1,694.757,1775.985Z" transform="translate(-693.001 -1770.717)" fill="#06355c"/>
          </g>
          <g id="Grupo_895165" data-name="Grupo 895165" transform="translate(7.024 12.292)">
            <path id="Trazado_623916" data-name="Trazado 623916" d="M694.757,1786.491a1.755,1.755,0,0,1-1.756-1.756v-1.756a1.756,1.756,0,1,1,3.511,0v1.756A1.755,1.755,0,0,1,694.757,1786.491Z" transform="translate(-693.001 -1781.223)" fill="#06355c"/>
          </g>
          <g id="Grupo_895166" data-name="Grupo 895166" transform="translate(10.749 2.058)">
            <path id="Trazado_623917" data-name="Trazado 623917" d="M697.94,1777.23a1.756,1.756,0,0,1-1.241-3l1.241-1.241a1.756,1.756,0,0,1,2.484,2.483l-1.243,1.241A1.75,1.75,0,0,1,697.94,1777.23Z" transform="translate(-696.184 -1772.476)" fill="#06355c"/>
          </g>
          <g id="Grupo_895167" data-name="Grupo 895167" transform="translate(2.058 10.749)">
            <path id="Trazado_623918" data-name="Trazado 623918" d="M690.512,1784.658a1.756,1.756,0,0,1-1.241-3l1.241-1.241a1.756,1.756,0,1,1,2.483,2.484l-1.241,1.241A1.749,1.749,0,0,1,690.512,1784.658Z" transform="translate(-688.756 -1779.905)" fill="#06355c"/>
          </g>
          <g id="Grupo_895168" data-name="Grupo 895168" transform="translate(12.293 7.024)">
            <path id="Trazado_623919" data-name="Trazado 623919" d="M701.015,1780.232h-1.756a1.756,1.756,0,0,1,0-3.511h1.756a1.756,1.756,0,1,1,0,3.511Z" transform="translate(-697.504 -1776.721)" fill="#06355c"/>
          </g>
          <g id="Grupo_895169" data-name="Grupo 895169" transform="translate(0 7.024)">
            <path id="Trazado_623920" data-name="Trazado 623920" d="M690.509,1780.232h-1.756a1.756,1.756,0,1,1,0-3.511h1.756a1.756,1.756,0,1,1,0,3.511Z" transform="translate(-686.997 -1776.721)" fill="#06355c"/>
          </g>
          <g id="Grupo_895170" data-name="Grupo 895170" transform="translate(2.058 2.058)">
            <path id="Trazado_623921" data-name="Trazado 623921" d="M691.753,1777.23a1.751,1.751,0,0,1-1.241-.515l-1.241-1.241a1.755,1.755,0,0,1,2.483-2.483l1.241,1.241a1.756,1.756,0,0,1-1.241,3Z" transform="translate(-688.756 -1772.476)" fill="#06355c"/>
          </g>
          <g id="Grupo_895171" data-name="Grupo 895171" transform="translate(10.749 10.749)">
            <path id="Trazado_623922" data-name="Trazado 623922" d="M699.181,1784.658a1.751,1.751,0,0,1-1.241-.514L696.7,1782.9a1.756,1.756,0,0,1,2.483-2.484l1.243,1.241a1.756,1.756,0,0,1-1.243,3Z" transform="translate(-696.184 -1779.905)" fill="#06355c"/>
          </g>
        </g>
      </g>
      <g id="Grupo_895174" data-name="Grupo 895174" transform="translate(0 66.728)">
        <path id="Trazado_623923" data-name="Trazado 623923" d="M665.024,1811.751H652.732a1.756,1.756,0,1,1,0-3.512h12.292a1.756,1.756,0,1,1,0,3.512Z" transform="translate(-650.976 -1808.239)" fill="#ef3c79"/>
      </g>
      <g id="Grupo_895175" data-name="Grupo 895175" transform="translate(0 73.754)">
        <path id="Trazado_623924" data-name="Trazado 623924" d="M675.559,1817.755H652.732a1.756,1.756,0,1,1,0-3.511h22.827a1.756,1.756,0,1,1,0,3.511Z" transform="translate(-650.976 -1814.244)" fill="#ef3c79"/>
      </g>
      <g id="Grupo_895176" data-name="Grupo 895176" transform="translate(70.24 21.511)">
        <path id="Trazado_623925" data-name="Trazado 623925" d="M723.3,1773.1H712.767a1.756,1.756,0,0,1,0-3.512H723.3a1.756,1.756,0,0,1,0,3.512Z" transform="translate(-711.012 -1769.591)" fill="#ef3c79"/>
      </g>
      <g id="Grupo_895177" data-name="Grupo 895177" transform="translate(75.508 28.536)">
        <path id="Trazado_623926" data-name="Trazado 623926" d="M722.538,1779.107H717.27a1.756,1.756,0,1,1,0-3.512h5.268a1.756,1.756,0,1,1,0,3.512Z" transform="translate(-715.514 -1775.595)" fill="#ef3c79"/>
      </g>
    </g>
  </g>
</svg>
