<svg xmlns="http://www.w3.org/2000/svg" xmlns:xlink="http://www.w3.org/1999/xlink" width="844.572" height="493.212" viewBox="0 0 844.572 493.212">
  <defs>
    <radialGradient id="radial-gradient" cx="0.5" cy="0.5" r="0.5" gradientUnits="objectBoundingBox">
      <stop offset="0"/>
      <stop offset="1" stop-color="#fff"/>
    </radialGradient>
    <radialGradient id="radial-gradient-2" cx="0.5" r="0.5" gradientTransform="translate(0)" xlink:href="#radial-gradient"/>
    <radialGradient id="radial-gradient-3" cx="0.5" r="0.5" gradientTransform="matrix(0.922, 0.387, -0.387, 0.922, 0.233, -0.155)" xlink:href="#radial-gradient"/>
  </defs>
  <g id="Grupo_895645" data-name="Grupo 895645" transform="translate(-378 -493.1)">
    <path id="Trazado_624785" data-name="Trazado 624785" d="M170.016,0A170.016,170.016,0,1,1,0,170.016,170.016,170.016,0,0,1,170.016,0Z" transform="translate(515.807 733.538) rotate(-45)" fill="#ef3c79"/>
    <path id="Trazado_624786" data-name="Trazado 624786" d="M184.69,0c102,0,184.69,82.689,184.69,184.69S286.692,369.38,184.69,369.38,0,286.692,0,184.69,82.689,0,184.69,0Z" transform="translate(853.191 616.932)" fill="#21cbae"/>
    <path id="Trazado_624787" data-name="Trazado 624787" d="M144.7,0A144.7,144.7,0,1,1,0,144.7,144.7,144.7,0,0,1,144.7,0Z" transform="translate(912.422 682.875)" fill="url(#radial-gradient)" style="mix-blend-mode: multiply;isolation: isolate"/>
    <path id="Trazado_624788" data-name="Trazado 624788" d="M126.026,0A126.026,126.026,0,1,1,0,126.026,126.026,126.026,0,0,1,126.026,0Z" transform="translate(653.67 613.398)" fill="url(#radial-gradient-2)" style="mix-blend-mode: multiply;isolation: isolate"/>
    <path id="Trazado_624789" data-name="Trazado 624789" d="M128.355,0A128.355,128.355,0,1,1,0,128.355,128.355,128.355,0,0,1,128.355,0Z" transform="translate(378 678.879)" fill="#0b5999"/>
    <path id="Trazado_624790" data-name="Trazado 624790" d="M131.616,0A131.616,131.616,0,1,1,0,131.616,131.616,131.616,0,0,1,131.616,0Z" transform="translate(887.02 910.645) rotate(-80.855)" fill="#fff"/>
    <path id="Trazado_624791" data-name="Trazado 624791" d="M114.8,0A114.8,114.8,0,1,1,0,114.8,114.8,114.8,0,0,1,114.8,0Z" transform="translate(623.478 828.684) rotate(-80.845)" fill="#fff"/>
    <path id="Trazado_624792" data-name="Trazado 624792" d="M98.311,0A98.311,98.311,0,1,1,0,98.311,98.311,98.311,0,0,1,98.311,0Z" transform="translate(387.887 770.061) rotate(-22.773)" fill="url(#radial-gradient-3)" style="mix-blend-mode: multiply;isolation: isolate"/>
    <path id="Trazado_624793" data-name="Trazado 624793" d="M90.857,0A90.857,90.857,0,1,1,0,90.857,90.857,90.857,0,0,1,90.857,0Z" transform="translate(415.498 716.376)" fill="#fff"/>
    <path id="Trazado_624196" data-name="Trazado 624196" d="M673.645,2414.657l37.742,14.153,37.742-14.153,7.077-94.355H666.568Z" transform="translate(-206 -1566.94)" fill="#fff"/>
    <path id="Trazado_624197" data-name="Trazado 624197" d="M711.387,2431.17a2.45,2.45,0,0,1-.827-.143l-37.742-14.176a2.326,2.326,0,0,1-1.532-2.029l-5.19-69.139h0a2.365,2.365,0,1,1,4.717-.355l5.073,67.655,35.5,13.3,35.5-13.3,6.77-90.323H669.116l.283,3.846a2.366,2.366,0,0,1-4.718.352l-.472-6.392a2.356,2.356,0,0,1,.636-1.77,2.284,2.284,0,0,1,1.723-.754h89.638a2.381,2.381,0,0,1,2.359,2.524l-7.077,94.356a2.363,2.363,0,0,1-1.534,2.029l-37.743,14.176A2.424,2.424,0,0,1,711.387,2431.17Zm-43.64-92.73a2.36,2.36,0,0,1-2.358-2.17,2.407,2.407,0,0,1,2.193-2.547,2.365,2.365,0,0,1,.354,4.717Z" transform="translate(-206 -1566.94)" fill="#06355c"/>
    <path id="Trazado_624198" data-name="Trazado 624198" d="M740.17,2407.94l5.867-78.2h-69.3l5.867,78.2,28.783,10.792Z" transform="translate(-206 -1566.94)" fill="#b1ede3"/>
    <path id="Trazado_624199" data-name="Trazado 624199" d="M711.387,2421.091a2.383,2.383,0,0,1-.829-.149l-28.784-10.793a2.363,2.363,0,0,1-1.523-2.031l-5.865-78.2a2.36,2.36,0,0,1,2.353-2.537h69.3a2.36,2.36,0,0,1,2.352,2.537l-5.868,78.2a2.358,2.358,0,0,1-1.522,2.031l-28.784,10.793A2.383,2.383,0,0,1,711.387,2421.091Zm-26.545-14.831,26.545,9.953,26.545-9.953,5.562-74.164H679.281Zm55.328,1.68h0Z" transform="translate(-206 -1566.94)" fill="#06355c"/>
    <path id="Trazado_624200" data-name="Trazado 624200" d="M746.771,2391.069H676a18.871,18.871,0,0,1-18.872-18.871h0A18.871,18.871,0,0,1,676,2353.327h70.767a18.871,18.871,0,0,1,18.871,18.871h0A18.871,18.871,0,0,1,746.771,2391.069Z" transform="translate(-206 -1566.94)" fill="#fff"/>
    <path id="Trazado_624201" data-name="Trazado 624201" d="M758.565,2393.428H664.209a9.433,9.433,0,0,1-9.435-9.436V2360.4a9.433,9.433,0,0,1,9.435-9.436h39.085a2.359,2.359,0,1,1,0,4.718H664.209a4.73,4.73,0,0,0-4.718,4.718v23.589a4.732,4.732,0,0,0,4.718,4.718h94.356a4.732,4.732,0,0,0,4.717-4.718V2360.4a4.73,4.73,0,0,0-4.717-4.718h-36.4a2.359,2.359,0,0,1,0-4.718h36.4A9.433,9.433,0,0,1,768,2360.4v23.589A9.433,9.433,0,0,1,758.565,2393.428Zm-45.835-37.743a2.359,2.359,0,1,1,2.358-2.358A2.366,2.366,0,0,1,712.73,2355.685Z" transform="translate(-206 -1566.94)" fill="#ef3c79"/>
    <path id="Trazado_624202" data-name="Trazado 624202" d="M723.181,2343.89a2.367,2.367,0,0,1,2.359-2.358h0a2.366,2.366,0,0,1,2.359,2.358h0a2.367,2.367,0,0,1-2.359,2.36h0A2.368,2.368,0,0,1,723.181,2343.89Zm-9.435,0a2.365,2.365,0,0,1,2.358-2.358h0a2.367,2.367,0,0,1,2.36,2.358h0a2.368,2.368,0,0,1-2.36,2.36h0A2.367,2.367,0,0,1,713.746,2343.89Zm-9.436,0a2.366,2.366,0,0,1,2.359-2.358h0a2.367,2.367,0,0,1,2.36,2.358h0a2.368,2.368,0,0,1-2.36,2.36h0A2.367,2.367,0,0,1,704.31,2343.89Zm-9.436,0a2.366,2.366,0,0,1,2.359-2.358h0a2.366,2.366,0,0,1,2.359,2.358h0a2.367,2.367,0,0,1-2.359,2.36h0A2.367,2.367,0,0,1,694.874,2343.89Z" transform="translate(-206 -1566.94)" fill="#06355c"/>
    <path id="Trazado_624203" data-name="Trazado 624203" d="M723.181,2400.5a2.368,2.368,0,0,1,2.359-2.36h0a2.367,2.367,0,0,1,2.359,2.36h0a2.366,2.366,0,0,1-2.359,2.358h0A2.366,2.366,0,0,1,723.181,2400.5Zm-9.435,0a2.367,2.367,0,0,1,2.358-2.36h0a2.368,2.368,0,0,1,2.36,2.36h0a2.367,2.367,0,0,1-2.36,2.358h0A2.365,2.365,0,0,1,713.746,2400.5Zm-9.436,0a2.351,2.351,0,0,1,2.359-2.36h0a2.368,2.368,0,0,1,2.36,2.36h0a2.367,2.367,0,0,1-2.36,2.358h0A2.35,2.35,0,0,1,704.31,2400.5Zm-9.436,0a2.367,2.367,0,0,1,2.359-2.36h0a2.367,2.367,0,0,1,2.359,2.36h0a2.365,2.365,0,0,1-2.359,2.358h0A2.366,2.366,0,0,1,694.874,2400.5Z" transform="translate(-206 -1566.94)" fill="#06355c"/>
    <path id="Trazado_624794" data-name="Trazado 624794" d="M-23.485,0h-4.764V-9.909h-9.289V0H-42.3V-23.12h4.764v9.369h9.289V-23.12h4.764Zm21.1-19.262H-9.464V0h-4.764V-19.262h-6.987V-23.12H-2.382Zm8.94-3.859L12.5-6.352,18.4-23.12h6.256V0h-4.78V-6.32l.476-10.909L14.117,0H10.846L4.621-17.213,5.1-6.32V0H.333V-23.12ZM33.585-3.827H43.7V0H28.821V-23.12h4.764Z" transform="translate(505.387 817.903)" fill="#06355c"/>
    <path id="Trazado_624204" data-name="Trazado 624204" d="M913.311,2359.7l49.076,18.4,49.076-18.4,9.2-122.689H904.11Z" transform="translate(-206 -1566.94)" fill="#fff"/>
    <path id="Trazado_624205" data-name="Trazado 624205" d="M962.387,2381.17a3.188,3.188,0,0,1-1.075-.185l-49.076-18.434a3.022,3.022,0,0,1-1.992-2.638l-6.749-89.9h0a3.076,3.076,0,1,1,6.134-.462l6.6,87.971,46.161,17.3,46.161-17.3,8.8-117.445H907.423l.368,5a3.076,3.076,0,0,1-6.135.458l-.613-8.312a3.06,3.06,0,0,1,.826-2.3,2.975,2.975,0,0,1,2.241-.98h116.555a3.094,3.094,0,0,1,3.066,3.281l-9.2,122.69a3.07,3.07,0,0,1-2,2.638l-49.076,18.434A3.166,3.166,0,0,1,962.387,2381.17Zm-56.744-120.575a3.07,3.07,0,0,1-3.067-2.821,3.132,3.132,0,0,1,2.852-3.313,3.076,3.076,0,0,1,.461,6.134Z" transform="translate(-206 -1566.94)" fill="#06355c"/>
    <path id="Trazado_624206" data-name="Trazado 624206" d="M999.813,2350.965l7.628-101.686H917.333l7.628,101.686L962.387,2365Z" transform="translate(-206 -1566.94)" fill="#b1ede3"/>
    <path id="Trazado_624207" data-name="Trazado 624207" d="M962.387,2368.065a3.1,3.1,0,0,1-1.078-.194l-37.427-14.034a3.068,3.068,0,0,1-1.98-2.641l-7.626-101.686a3.066,3.066,0,0,1,3.058-3.3h90.109a3.067,3.067,0,0,1,3.058,3.3l-7.629,101.686a3.068,3.068,0,0,1-1.98,2.641l-37.427,14.034A3.1,3.1,0,0,1,962.387,2368.065Zm-34.516-19.284,34.516,12.94,34.516-12.94,7.232-96.434H920.64Zm71.942,2.184h0Z" transform="translate(-206 -1566.94)" fill="#06355c"/>
    <path id="Trazado_624208" data-name="Trazado 624208" d="M1008.4,2329.027H916.379a24.538,24.538,0,0,1-24.539-24.537h0a24.538,24.538,0,0,1,24.539-24.538H1008.4a24.537,24.537,0,0,1,24.538,24.538h0A24.538,24.538,0,0,1,1008.4,2329.027Z" transform="translate(-206 -1566.94)" fill="#fff"/>
    <path id="Trazado_624209" data-name="Trazado 624209" d="M1023.731,2332.094H901.043a12.264,12.264,0,0,1-12.269-12.268v-30.673a12.265,12.265,0,0,1,12.269-12.269h50.821a3.068,3.068,0,0,1,0,6.135H901.043a6.149,6.149,0,0,0-6.135,6.134v30.673a6.152,6.152,0,0,0,6.135,6.134h122.688a6.153,6.153,0,0,0,6.134-6.134v-30.673a6.15,6.15,0,0,0-6.134-6.134H976.4a3.068,3.068,0,1,1,0-6.135h47.329A12.265,12.265,0,0,1,1036,2289.153v30.673A12.265,12.265,0,0,1,1023.731,2332.094Zm-59.6-49.075a3.068,3.068,0,1,1,3.067-3.067A3.078,3.078,0,0,1,964.133,2283.019Z" transform="translate(-206 -1566.94)" fill="#ef3c79"/>
    <path id="Trazado_624210" data-name="Trazado 624210" d="M977.723,2267.682a3.078,3.078,0,0,1,3.066-3.067h0a3.078,3.078,0,0,1,3.069,3.067h0a3.079,3.079,0,0,1-3.069,3.068h0A3.078,3.078,0,0,1,977.723,2267.682Zm-12.269,0a3.077,3.077,0,0,1,3.067-3.067h0a3.078,3.078,0,0,1,3.068,3.067h0a3.079,3.079,0,0,1-3.068,3.068h0A3.077,3.077,0,0,1,965.454,2267.682Zm-12.269,0a3.077,3.077,0,0,1,3.067-3.067h0a3.077,3.077,0,0,1,3.068,3.067h0a3.078,3.078,0,0,1-3.068,3.068h0A3.078,3.078,0,0,1,953.185,2267.682Zm-12.269,0a3.077,3.077,0,0,1,3.067-3.067h0a3.077,3.077,0,0,1,3.067,3.067h0a3.077,3.077,0,0,1-3.067,3.068h0A3.078,3.078,0,0,1,940.916,2267.682Z" transform="translate(-206 -1566.94)" fill="#06355c"/>
    <path id="Trazado_624211" data-name="Trazado 624211" d="M977.723,2341.3a3.079,3.079,0,0,1,3.066-3.069h0a3.079,3.079,0,0,1,3.069,3.069h0a3.077,3.077,0,0,1-3.069,3.066h0A3.077,3.077,0,0,1,977.723,2341.3Zm-12.269,0a3.078,3.078,0,0,1,3.067-3.069h0a3.079,3.079,0,0,1,3.068,3.069h0a3.077,3.077,0,0,1-3.068,3.066h0A3.076,3.076,0,0,1,965.454,2341.3Zm-12.269,0a3.057,3.057,0,0,1,3.067-3.069h0a3.078,3.078,0,0,1,3.068,3.069h0a3.077,3.077,0,0,1-3.068,3.066h0A3.055,3.055,0,0,1,953.185,2341.3Zm-12.269,0a3.078,3.078,0,0,1,3.067-3.069h0a3.078,3.078,0,0,1,3.067,3.069h0a3.076,3.076,0,0,1-3.067,3.066h0A3.076,3.076,0,0,1,940.916,2341.3Z" transform="translate(-206 -1566.94)" fill="#06355c"/>
    <path id="Trazado_624795" data-name="Trazado 624795" d="M-13.545-10.014a10.638,10.638,0,0,1-3.582,7.64A12.581,12.581,0,0,1-25.644.413a11.313,11.313,0,0,1-9.1-3.892q-3.314-3.892-3.314-10.685V-16a18.021,18.021,0,0,1,1.528-7.64,11.45,11.45,0,0,1,4.367-5.069,12.233,12.233,0,0,1,6.6-1.765,12.256,12.256,0,0,1,8.383,2.787A11.432,11.432,0,0,1-13.5-19.863H-19.7a6.279,6.279,0,0,0-1.621-4.222A6,6,0,0,0-25.562-25.4a5.263,5.263,0,0,0-4.635,2.22q-1.538,2.22-1.58,6.886v2.271q0,4.873,1.476,7.123a5.166,5.166,0,0,0,4.656,2.251A6.115,6.115,0,0,0-21.36-5.957a5.922,5.922,0,0,0,1.621-4.057ZM6.112-7.887a3.179,3.179,0,0,0-1.239-2.695,16.249,16.249,0,0,0-4.46-1.982,31.616,31.616,0,0,1-5.1-2.054q-5.121-2.767-5.121-7.454a7.26,7.26,0,0,1,1.373-4.346A8.956,8.956,0,0,1-4.491-29.4,14.844,14.844,0,0,1,1.28-30.476a13.511,13.511,0,0,1,5.74,1.167,9.14,9.14,0,0,1,3.913,3.293,8.618,8.618,0,0,1,1.394,4.832H6.132a4.054,4.054,0,0,0-1.3-3.211,5.347,5.347,0,0,0-3.655-1.146,5.713,5.713,0,0,0-3.531.96,3.028,3.028,0,0,0-1.26,2.529,2.9,2.9,0,0,0,1.476,2.457,16.679,16.679,0,0,0,4.346,1.858q5.286,1.59,7.7,3.944a7.854,7.854,0,0,1,2.416,5.864A7.235,7.235,0,0,1,9.374-1.807,12.926,12.926,0,0,1,1.425.413,15.35,15.35,0,0,1-4.893-.857,10,10,0,0,1-9.24-4.336a8.91,8.91,0,0,1-1.5-5.121h6.215q0,4.976,5.947,4.976a5.785,5.785,0,0,0,3.448-.9A2.922,2.922,0,0,0,6.112-7.887Zm26,0a3.179,3.179,0,0,0-1.239-2.695,16.249,16.249,0,0,0-4.46-1.982,31.616,31.616,0,0,1-5.1-2.054q-5.121-2.767-5.121-7.454a7.26,7.26,0,0,1,1.373-4.346A8.956,8.956,0,0,1,21.5-29.4a14.844,14.844,0,0,1,5.771-1.074,13.511,13.511,0,0,1,5.74,1.167,9.14,9.14,0,0,1,3.913,3.293,8.618,8.618,0,0,1,1.394,4.832H32.128a4.054,4.054,0,0,0-1.3-3.211,5.347,5.347,0,0,0-3.655-1.146,5.713,5.713,0,0,0-3.531.96,3.028,3.028,0,0,0-1.26,2.529,2.9,2.9,0,0,0,1.476,2.457A16.679,16.679,0,0,0,28.2-17.736q5.286,1.59,7.7,3.944a7.854,7.854,0,0,1,2.416,5.864,7.235,7.235,0,0,1-2.953,6.122A12.926,12.926,0,0,1,27.42.413,15.35,15.35,0,0,1,21.1-.857a10,10,0,0,1-4.346-3.479,8.91,8.91,0,0,1-1.5-5.121h6.215q0,4.976,5.947,4.976a5.785,5.785,0,0,0,3.448-.9A2.922,2.922,0,0,0,32.107-7.887Z" transform="translate(756.387 753.993)" fill="#06355c"/>
    <path id="Trazado_624212" data-name="Trazado 624212" d="M1194.989,2420.643l49.2,18.452,49.2-18.452,9.226-123.011H1185.764Z" transform="translate(-206 -1566.94)" fill="#fff"/>
    <path id="Trazado_624213" data-name="Trazado 624213" d="M1244.194,2442.171a3.2,3.2,0,0,1-1.078-.186l-49.2-18.482a3.031,3.031,0,0,1-2-2.646l-6.766-90.136h0a3.084,3.084,0,1,1,6.15-.463l6.613,88.2,46.283,17.343,46.282-17.343,8.826-117.754H1189.085l.369,5.013a3.084,3.084,0,0,1-6.151.459l-.615-8.333a3.072,3.072,0,0,1,.829-2.307,2.983,2.983,0,0,1,2.247-.983h116.861a3.1,3.1,0,0,1,3.074,3.29l-9.225,123.011a3.08,3.08,0,0,1-2,2.646l-49.2,18.482A3.185,3.185,0,0,1,1244.194,2442.171ZM1187.3,2321.279a3.078,3.078,0,0,1-3.075-2.829,3.14,3.14,0,0,1,2.86-3.321,3.084,3.084,0,0,1,.461,6.15Z" transform="translate(-206 -1566.94)" fill="#06355c"/>
    <path id="Trazado_624214" data-name="Trazado 624214" d="M1281.718,2411.886l7.648-101.953h-90.345l7.648,101.953,37.525,14.07Z" transform="translate(-206 -1566.94)" fill="#b1ede3"/>
    <path id="Trazado_624215" data-name="Trazado 624215" d="M1244.194,2429.031a3.107,3.107,0,0,1-1.081-.2l-37.525-14.07a3.08,3.08,0,0,1-1.986-2.648l-7.646-101.953a3.076,3.076,0,0,1,3.067-3.307h90.345a3.076,3.076,0,0,1,3.066,3.307l-7.649,101.953a3.079,3.079,0,0,1-1.985,2.648l-37.526,14.07A3.106,3.106,0,0,1,1244.194,2429.031Zm-34.606-19.335,34.606,12.975L1278.8,2409.7l7.252-96.687h-83.714Zm72.13,2.19h0Z" transform="translate(-206 -1566.94)" fill="#06355c"/>
    <path id="Trazado_624216" data-name="Trazado 624216" d="M1290.324,2389.891h-92.259a24.6,24.6,0,0,1-24.6-24.6h0a24.6,24.6,0,0,1,24.6-24.6h92.259a24.6,24.6,0,0,1,24.6,24.6h0A24.6,24.6,0,0,1,1290.324,2389.891Z" transform="translate(-206 -1566.94)" fill="#fff"/>
    <path id="Trazado_624217" data-name="Trazado 624217" d="M1305.7,2392.966H1182.688a12.3,12.3,0,0,1-12.3-12.3v-30.753a12.3,12.3,0,0,1,12.3-12.3h50.956a3.075,3.075,0,0,1,0,6.151h-50.956a6.166,6.166,0,0,0-6.151,6.15v30.753a6.168,6.168,0,0,0,6.151,6.15H1305.7a6.169,6.169,0,0,0,6.15-6.15v-30.753a6.167,6.167,0,0,0-6.15-6.15h-47.454a3.075,3.075,0,0,1,0-6.151H1305.7a12.3,12.3,0,0,1,12.3,12.3v30.753A12.3,12.3,0,0,1,1305.7,2392.966Zm-59.754-49.2a3.075,3.075,0,1,1,3.074-3.075A3.086,3.086,0,0,1,1245.945,2343.762Z" transform="translate(-206 -1566.94)" fill="#ef3c79"/>
    <path id="Trazado_624218" data-name="Trazado 624218" d="M1259.57,2328.384a3.085,3.085,0,0,1,3.075-3.074h0a3.085,3.085,0,0,1,3.076,3.074h0a3.087,3.087,0,0,1-3.076,3.077h0A3.087,3.087,0,0,1,1259.57,2328.384Zm-12.3,0a3.084,3.084,0,0,1,3.075-3.074h0a3.085,3.085,0,0,1,3.076,3.074h0a3.087,3.087,0,0,1-3.076,3.077h0A3.086,3.086,0,0,1,1247.269,2328.384Zm-12.3,0a3.085,3.085,0,0,1,3.076-3.074h0a3.085,3.085,0,0,1,3.076,3.074h0a3.087,3.087,0,0,1-3.076,3.077h0A3.087,3.087,0,0,1,1234.967,2328.384Zm-12.3,0a3.085,3.085,0,0,1,3.076-3.074h0a3.083,3.083,0,0,1,3.074,3.074h0a3.085,3.085,0,0,1-3.074,3.077h0A3.087,3.087,0,0,1,1222.666,2328.384Z" transform="translate(-206 -1566.94)" fill="#06355c"/>
    <path id="Trazado_624219" data-name="Trazado 624219" d="M1259.57,2402.192a3.086,3.086,0,0,1,3.075-3.076h0a3.086,3.086,0,0,1,3.076,3.076h0a3.085,3.085,0,0,1-3.076,3.075h0A3.084,3.084,0,0,1,1259.57,2402.192Zm-12.3,0a3.085,3.085,0,0,1,3.075-3.076h0a3.086,3.086,0,0,1,3.076,3.076h0a3.085,3.085,0,0,1-3.076,3.075h0A3.084,3.084,0,0,1,1247.269,2402.192Zm-12.3,0a3.065,3.065,0,0,1,3.076-3.076h0a3.086,3.086,0,0,1,3.076,3.076h0a3.085,3.085,0,0,1-3.076,3.075h0A3.063,3.063,0,0,1,1234.967,2402.192Zm-12.3,0a3.086,3.086,0,0,1,3.076-3.076h0a3.084,3.084,0,0,1,3.074,3.076h0a3.083,3.083,0,0,1-3.074,3.075h0A3.085,3.085,0,0,1,1222.666,2402.192Z" transform="translate(-206 -1566.94)" fill="#06355c"/>
    <path id="Trazado_624796" data-name="Trazado 624796" d="M-10.03-30.142h6.211V-9.274A9.979,9.979,0,0,1-5.093-4.192,8.64,8.64,0,0,1-8.684-.787a11.221,11.221,0,0,1-5.238,1.2q-4.782,0-7.453-2.432A8.838,8.838,0,0,1-24.045-8.9h6.252a4.846,4.846,0,0,0,.932,3.271,3.727,3.727,0,0,0,2.94,1.056A3.559,3.559,0,0,0-11.086-5.8,5.161,5.161,0,0,0-10.03-9.274ZM17.131-7.908a3.187,3.187,0,0,0-1.242-2.7A16.292,16.292,0,0,0,11.417-12.6,31.7,31.7,0,0,1,6.3-14.657Q1.17-17.431,1.17-22.13a7.279,7.279,0,0,1,1.377-4.358A8.98,8.98,0,0,1,6.5-29.479a14.883,14.883,0,0,1,5.786-1.076,13.546,13.546,0,0,1,5.755,1.17,9.164,9.164,0,0,1,3.923,3.3,8.64,8.64,0,0,1,1.4,4.844H17.151a4.064,4.064,0,0,0-1.3-3.219,5.361,5.361,0,0,0-3.664-1.149,5.728,5.728,0,0,0-3.54.963A3.036,3.036,0,0,0,7.38-22.11a2.908,2.908,0,0,0,1.48,2.464,16.723,16.723,0,0,0,4.358,1.863q5.3,1.594,7.722,3.954a7.875,7.875,0,0,1,2.422,5.879A7.254,7.254,0,0,1,20.4-1.811,12.96,12.96,0,0,1,12.431.414,15.391,15.391,0,0,1,6.1-.859,10.024,10.024,0,0,1,1.739-4.347a8.933,8.933,0,0,1-1.5-5.134H6.469q0,4.989,5.962,4.989a5.8,5.8,0,0,0,3.457-.9A2.93,2.93,0,0,0,17.131-7.908Z" transform="translate(1038.193 814.837)" fill="#06355c"/>
    <path id="Trazado_624799" data-name="Trazado 624799" d="M25,0A25,25,0,1,1,0,25,25,25,0,0,1,25,0Z" transform="translate(480 868)" fill="#21cbae"/>
    <path id="Trazado_624797" data-name="Trazado 624797" d="M25,0A25,25,0,1,1,0,25,25,25,0,0,1,25,0Z" transform="translate(1013 881)" fill="#21cbae"/>
    <path id="Trazado_624798" data-name="Trazado 624798" d="M25,0A25,25,0,1,1,0,25,25,25,0,0,1,25,0Z" transform="translate(733 831)" fill="#21cbae"/>
  </g>
</svg>
