<svg xmlns="http://www.w3.org/2000/svg" width="427.658" height="439.539" viewBox="0 0 427.658 439.539">
  <g id="Grupo_895421" data-name="Grupo 895421" transform="translate(-82.182 -3048.461)">
    <g id="Grupo_895418" data-name="Grupo 895418" transform="translate(82.721 3049)">
      <g id="Grupo_879317" data-name="Grupo 879317" transform="translate(48.069 361.288) rotate(-90)">
        <path id="Trazado_601212" data-name="Trazado 601212" d="M182.2,23.648,23.648,182.2a13.851,13.851,0,0,1-19.591,0h0a13.853,13.853,0,0,1,0-19.591L162.606,4.057a13.853,13.853,0,0,1,19.591,0h0A13.853,13.853,0,0,1,182.2,23.648Z" transform="translate(0 0)" fill="#edfbf9"/>
        <path id="Trazado_601213" data-name="Trazado 601213" d="M139.069,18.051,18.051,139.069a10.574,10.574,0,0,1-14.953,0h0a10.573,10.573,0,0,1,0-14.954L124.115,3.1a10.575,10.575,0,0,1,14.954,0h0A10.575,10.575,0,0,1,139.069,18.051Z" transform="translate(33.475 73.507)" fill="#edfbf9"/>
      </g>
      <g id="Grupo_873686" data-name="Grupo 873686" transform="translate(0)" opacity="0.502">
        <path id="Trazado_1" data-name="Trazado 1" d="M43.226-75.2l-88.9,88.9q.617,3.813,1.6,7.495l94.8-94.8Q47.041-74.58,43.226-75.2Z" transform="translate(46.691 76.211)" fill="none" stroke="#275894" stroke-miterlimit="10" stroke-width="1.078"/>
        <path id="Trazado_2" data-name="Trazado 2" d="M51.607-72.715l-94.8,94.8q.937,3.522,2.184,6.909L58.516-70.531Q55.134-71.781,51.607-72.715Z" transform="translate(45.805 75.325)" fill="none" stroke="#275894" stroke-miterlimit="10" stroke-width="1.078"/>
        <path id="Trazado_3" data-name="Trazado 3" d="M90.138-48.491-18.971,60.618c1.383,1.643,2.825,3.233,4.338,4.755L94.893-44.153C93.371-45.665,91.781-47.108,90.138-48.491Z" transform="translate(37.159 66.679)" fill="none" stroke="#275894" stroke-miterlimit="10" stroke-width="1.078"/>
        <path id="Trazado_4" data-name="Trazado 4" d="M82.807-54.647-25.128,53.288q1.877,2.649,3.96,5.133L87.941-50.688Q85.463-52.775,82.807-54.647Z" transform="translate(39.357 68.876)" fill="none" stroke="#275894" stroke-miterlimit="10" stroke-width="1.078"/>
        <path id="Trazado_5" data-name="Trazado 5" d="M67.619-65.12-35.6,38.1c.967,2.03,2.028,4,3.162,5.931L73.55-61.958C71.623-63.092,69.649-64.153,67.619-65.12Z" transform="translate(43.094 72.614)" fill="none" stroke="#275894" stroke-miterlimit="10" stroke-width="1.078"/>
        <path id="Trazado_6" data-name="Trazado 6" d="M75.3-60.2-30.684,45.785q1.671,2.841,3.573,5.52L80.824-56.63Q78.145-58.529,75.3-60.2Z" transform="translate(41.34 70.859)" fill="none" stroke="#275894" stroke-miterlimit="10" stroke-width="1.078"/>
        <path id="Trazado_7" data-name="Trazado 7" d="M59.728-69.319-39.8,30.208q1.209,3.269,2.7,6.392L66.12-66.619Q63-68.105,59.728-69.319Z" transform="translate(44.593 74.113)" fill="none" stroke="#275894" stroke-miterlimit="10" stroke-width="1.078"/>
        <path id="Trazado_8" data-name="Trazado 8" d="M-38.97-24.586l43.9-43.9A77.665,77.665,0,0,0-38.97-24.586Z" transform="translate(44.297 73.817)" fill="none" stroke="#275894" stroke-miterlimit="10" stroke-width="1.078"/>
        <path id="Trazado_9" data-name="Trazado 9" d="M2.822-70.6l-43.9,43.9a76.772,76.772,0,0,0-3.8,12.9l60.6-60.6A76.8,76.8,0,0,0,2.822-70.6Z" transform="translate(46.408 75.928)" fill="none" stroke="#275894" stroke-miterlimit="10" stroke-width="1.078"/>
        <path id="Trazado_10" data-name="Trazado 10" d="M34.529-76.583-47.064,5.009a77.648,77.648,0,0,0,.891,8.2l88.9-88.9A77.671,77.671,0,0,0,34.529-76.583Z" transform="translate(47.186 76.705)" fill="none" stroke="#275894" stroke-miterlimit="10" stroke-width="1.078"/>
        <path id="Trazado_11" data-name="Trazado 11" d="M30.2-76.773c-1.639,0-3.262.068-4.877.169L-47.085-4.2c-.1,1.614-.168,3.237-.168,4.877,0,1.43.045,2.85.122,4.262L34.461-76.651C33.049-76.727,31.63-76.773,30.2-76.773Z" transform="translate(47.253 76.773)" fill="none" stroke="#275894" stroke-miterlimit="10" stroke-width="1.078"/>
        <path id="Trazado_12" data-name="Trazado 12" d="M14.968-75.157l-60.6,60.6A77.484,77.484,0,0,0-46.991-4.1L25.415-76.511A77.591,77.591,0,0,0,14.968-75.157Z" transform="translate(47.159 76.679)" fill="none" stroke="#275894" stroke-miterlimit="10" stroke-width="1.078"/>
        <path id="Trazado_13" data-name="Trazado 13" d="M142.3,23.422,52.941,112.779a77.517,77.517,0,0,0,8.15.943l82.15-82.15A77.485,77.485,0,0,0,142.3,23.422Z" transform="translate(11.495 41.014)" fill="none" stroke="#275894" stroke-miterlimit="10" stroke-width="1.078"/>
        <path id="Trazado_14" data-name="Trazado 14" d="M147.932,40.961c0-1.636-.068-3.255-.168-4.866l-82.15,82.15c1.611.1,3.23.168,4.866.168,1.4,0,2.792-.042,4.174-.115l73.163-73.162C147.89,43.752,147.932,42.361,147.932,40.961Z" transform="translate(6.972 36.491)" fill="none" stroke="#275894" stroke-miterlimit="10" stroke-width="1.078"/>
        <path id="Trazado_15" data-name="Trazado 15" d="M152.834,50.152,79.671,123.314a77.488,77.488,0,0,0,10.359-1.266l61.537-61.537A77.608,77.608,0,0,0,152.834,50.152Z" transform="translate(1.955 31.475)" fill="none" stroke="#275894" stroke-miterlimit="10" stroke-width="1.078"/>
        <path id="Trazado_16" data-name="Trazado 16" d="M157.316,66.26,95.779,127.8a76.83,76.83,0,0,0,12.616-3.523l45.4-45.4A76.97,76.97,0,0,0,157.316,66.26Z" transform="translate(-3.794 25.726)" fill="none" stroke="#275894" stroke-miterlimit="10" stroke-width="1.078"/>
        <path id="Trazado_17" data-name="Trazado 17" d="M160.794,85.877l-45.4,45.4A77.671,77.671,0,0,0,160.794,85.877Z" transform="translate(-10.795 18.725)" fill="none" stroke="#275894" stroke-miterlimit="10" stroke-width="1.078"/>
        <path id="Trazado_18" data-name="Trazado 18" d="M136.521,11.837,41.357,107q3.657,1,7.45,1.643l89.357-89.357Q137.523,15.5,136.521,11.837Z" transform="translate(15.629 45.149)" fill="none" stroke="#275894" stroke-miterlimit="10" stroke-width="1.078"/>
        <path id="Trazado_19" data-name="Trazado 19" d="M111.11-26.455,3.065,81.59c1.776,1.275,3.6,2.482,5.487,3.606L114.716-20.968C113.592-22.852,112.385-24.679,111.11-26.455Z" transform="translate(29.295 58.815)" fill="none" stroke="#275894" stroke-miterlimit="10" stroke-width="1.078"/>
        <path id="Trazado_20" data-name="Trazado 20" d="M104.287-34.388-4.869,74.768q2.465,2.1,5.1,3.991L108.278-29.286Q106.387-31.922,104.287-34.388Z" transform="translate(32.127 61.646)" fill="none" stroke="#275894" stroke-miterlimit="10" stroke-width="1.078"/>
        <path id="Trazado_21" data-name="Trazado 21" d="M130.485,1.157,30.676,100.966q3.363,1.269,6.869,2.225L132.709,8.025Q131.752,4.523,130.485,1.157Z" transform="translate(19.441 48.961)" fill="none" stroke="#275894" stroke-miterlimit="10" stroke-width="1.078"/>
        <path id="Trazado_22" data-name="Trazado 22" d="M97.3-41.745-12.225,67.78c1.512,1.522,3.1,2.97,4.731,4.362L101.662-37.014C100.27-38.648,98.822-40.232,97.3-41.745Z" transform="translate(34.752 64.272)" fill="none" stroke="#275894" stroke-miterlimit="10" stroke-width="1.078"/>
        <path id="Trazado_23" data-name="Trazado 23" d="M124.227-8.746,20.773,94.707c2.071,1,4.2,1.906,6.369,2.724L126.951-2.377C126.132-4.547,125.229-6.675,124.227-8.746Z" transform="translate(22.975 52.495)" fill="none" stroke="#275894" stroke-miterlimit="10" stroke-width="1.078"/>
        <path id="Trazado_24" data-name="Trazado 24" d="M117.761-17.923,11.6,88.241c1.916,1.143,3.882,2.214,5.9,3.191L120.952-12.021C119.974-14.041,118.9-16.006,117.761-17.923Z" transform="translate(26.25 55.77)" fill="none" stroke="#275894" stroke-miterlimit="10" stroke-width="1.078"/>
      </g>
      <g id="Grupo_873687" data-name="Grupo 873687" transform="translate(271.694 283.575)">
        <g id="Grupo_68" data-name="Grupo 68" transform="translate(68.32 0)">
          <g id="Grupo_67" data-name="Grupo 67" transform="translate(0)">
            <rect id="Rectángulo_193" data-name="Rectángulo 193" width="2.732" height="2.732" transform="translate(83.241 85.173) rotate(-44.999)" fill="#8f9294"/>
            <rect id="Rectángulo_194" data-name="Rectángulo 194" width="2.593" height="2.593" transform="translate(75.674 77.507) rotate(-45)" fill="#8f9294"/>
            <rect id="Rectángulo_195" data-name="Rectángulo 195" width="2.454" height="2.454" transform="translate(68.106 69.841) rotate(-45)" fill="#8f9294"/>
            <rect id="Rectángulo_196" data-name="Rectángulo 196" width="2.315" height="2.315" transform="matrix(0.707, -0.707, 0.707, 0.707, 60.539, 62.176)" fill="#8f9294"/>
            <rect id="Rectángulo_197" data-name="Rectángulo 197" width="2.176" height="2.176" transform="translate(52.972 54.51) rotate(-45)" fill="#8f9294"/>
            <rect id="Rectángulo_198" data-name="Rectángulo 198" width="2.036" height="2.036" transform="matrix(0.707, -0.707, 0.707, 0.707, 45.404, 46.844)" fill="#8f9294"/>
            <rect id="Rectángulo_199" data-name="Rectángulo 199" width="1.897" height="1.897" transform="translate(37.837 39.179) rotate(-45)" fill="#8f9294"/>
            <rect id="Rectángulo_200" data-name="Rectángulo 200" width="1.758" height="1.758" transform="translate(30.27 31.513) rotate(-45.001)" fill="#8f9294"/>
            <rect id="Rectángulo_201" data-name="Rectángulo 201" width="1.619" height="1.619" transform="translate(22.702 23.847) rotate(-45)" fill="#8f9294"/>
            <rect id="Rectángulo_202" data-name="Rectángulo 202" width="1.48" height="1.48" transform="matrix(0.707, -0.707, 0.707, 0.707, 15.135, 16.181)" fill="#8f9294"/>
            <rect id="Rectángulo_203" data-name="Rectángulo 203" width="1.341" height="1.341" transform="translate(7.567 8.516) rotate(-45)" fill="#8f9294"/>
            <rect id="Rectángulo_204" data-name="Rectángulo 204" width="1.202" height="1.202" transform="matrix(0.707, -0.707, 0.707, 0.707, 0, 0.85)" fill="#8f9294"/>
          </g>
        </g>
        <g id="Grupo_70" data-name="Grupo 70" transform="translate(62.109 6.211)">
          <g id="Grupo_69" data-name="Grupo 69" transform="translate(0 0)">
            <rect id="Rectángulo_205" data-name="Rectángulo 205" width="2.732" height="2.732" transform="translate(83.241 85.173) rotate(-44.999)" fill="#8f9294"/>
            <rect id="Rectángulo_206" data-name="Rectángulo 206" width="2.593" height="2.593" transform="translate(75.674 77.507) rotate(-45)" fill="#8f9294"/>
            <rect id="Rectángulo_207" data-name="Rectángulo 207" width="2.454" height="2.454" transform="translate(68.106 69.841) rotate(-44.999)" fill="#8f9294"/>
            <rect id="Rectángulo_208" data-name="Rectángulo 208" width="2.315" height="2.315" transform="translate(60.539 62.176) rotate(-45)" fill="#8f9294"/>
            <rect id="Rectángulo_209" data-name="Rectángulo 209" width="2.176" height="2.176" transform="translate(52.972 54.51) rotate(-45)" fill="#8f9294"/>
            <rect id="Rectángulo_210" data-name="Rectángulo 210" width="2.036" height="2.036" transform="translate(45.404 46.844) rotate(-45)" fill="#8f9294"/>
            <rect id="Rectángulo_211" data-name="Rectángulo 211" width="1.897" height="1.897" transform="translate(37.837 39.179) rotate(-45)" fill="#8f9294"/>
            <rect id="Rectángulo_212" data-name="Rectángulo 212" width="1.758" height="1.758" transform="translate(30.27 31.513) rotate(-45)" fill="#8f9294"/>
            <rect id="Rectángulo_213" data-name="Rectángulo 213" width="1.619" height="1.619" transform="translate(22.702 23.847) rotate(-45)" fill="#8f9294"/>
            <rect id="Rectángulo_214" data-name="Rectángulo 214" width="1.48" height="1.48" transform="translate(15.135 16.181) rotate(-45)" fill="#8f9294"/>
            <rect id="Rectángulo_215" data-name="Rectángulo 215" width="1.341" height="1.341" transform="translate(7.567 8.516) rotate(-45)" fill="#8f9294"/>
            <rect id="Rectángulo_216" data-name="Rectángulo 216" width="1.202" height="1.202" transform="matrix(0.707, -0.707, 0.707, 0.707, 0, 0.85)" fill="#8f9294"/>
          </g>
        </g>
        <g id="Grupo_72" data-name="Grupo 72" transform="translate(55.898 12.422)">
          <g id="Grupo_71" data-name="Grupo 71" transform="translate(0 0)">
            <rect id="Rectángulo_217" data-name="Rectángulo 217" width="2.732" height="2.732" transform="translate(83.241 85.173) rotate(-44.999)" fill="#8f9294"/>
            <rect id="Rectángulo_218" data-name="Rectángulo 218" width="2.593" height="2.593" transform="translate(75.674 77.507) rotate(-44.999)" fill="#8f9294"/>
            <rect id="Rectángulo_219" data-name="Rectángulo 219" width="2.454" height="2.454" transform="translate(68.106 69.841) rotate(-44.999)" fill="#8f9294"/>
            <rect id="Rectángulo_220" data-name="Rectángulo 220" width="2.315" height="2.315" transform="matrix(0.707, -0.707, 0.707, 0.707, 60.539, 62.176)" fill="#8f9294"/>
            <rect id="Rectángulo_221" data-name="Rectángulo 221" width="2.176" height="2.176" transform="translate(52.972 54.51) rotate(-44.999)" fill="#8f9294"/>
            <rect id="Rectángulo_222" data-name="Rectángulo 222" width="2.036" height="2.036" transform="matrix(0.707, -0.707, 0.707, 0.707, 45.404, 46.844)" fill="#8f9294"/>
            <rect id="Rectángulo_223" data-name="Rectángulo 223" width="1.897" height="1.897" transform="matrix(0.707, -0.707, 0.707, 0.707, 37.837, 39.179)" fill="#8f9294"/>
            <rect id="Rectángulo_224" data-name="Rectángulo 224" width="1.758" height="1.758" transform="translate(30.269 31.513) rotate(-44.999)" fill="#8f9294"/>
            <rect id="Rectángulo_225" data-name="Rectángulo 225" width="1.619" height="1.619" transform="translate(22.702 23.847) rotate(-45)" fill="#8f9294"/>
            <rect id="Rectángulo_226" data-name="Rectángulo 226" width="1.48" height="1.48" transform="translate(15.135 16.181) rotate(-44.998)" fill="#8f9294"/>
            <rect id="Rectángulo_227" data-name="Rectángulo 227" width="1.341" height="1.341" transform="translate(7.567 8.516) rotate(-45)" fill="#8f9294"/>
            <rect id="Rectángulo_228" data-name="Rectángulo 228" width="1.202" height="1.202" transform="matrix(0.707, -0.707, 0.707, 0.707, 0, 0.85)" fill="#8f9294"/>
          </g>
        </g>
        <g id="Grupo_74" data-name="Grupo 74" transform="translate(49.687 18.633)">
          <g id="Grupo_73" data-name="Grupo 73" transform="translate(0 0)">
            <rect id="Rectángulo_229" data-name="Rectángulo 229" width="2.732" height="2.732" transform="translate(83.241 85.173) rotate(-45.001)" fill="#8f9294"/>
            <rect id="Rectángulo_230" data-name="Rectángulo 230" width="2.593" height="2.593" transform="translate(75.674 77.507) rotate(-45.001)" fill="#8f9294"/>
            <rect id="Rectángulo_231" data-name="Rectángulo 231" width="2.454" height="2.454" transform="translate(68.106 69.841) rotate(-45)" fill="#8f9294"/>
            <rect id="Rectángulo_232" data-name="Rectángulo 232" width="2.315" height="2.315" transform="matrix(0.707, -0.707, 0.707, 0.707, 60.539, 62.176)" fill="#8f9294"/>
            <rect id="Rectángulo_233" data-name="Rectángulo 233" width="2.176" height="2.176" transform="translate(52.972 54.51) rotate(-45)" fill="#8f9294"/>
            <rect id="Rectángulo_234" data-name="Rectángulo 234" width="2.036" height="2.036" transform="matrix(0.707, -0.707, 0.707, 0.707, 45.404, 46.844)" fill="#8f9294"/>
            <rect id="Rectángulo_235" data-name="Rectángulo 235" width="1.897" height="1.897" transform="translate(37.837 39.179) rotate(-45)" fill="#8f9294"/>
            <rect id="Rectángulo_236" data-name="Rectángulo 236" width="1.758" height="1.758" transform="translate(30.269 31.513) rotate(-45.001)" fill="#8f9294"/>
            <rect id="Rectángulo_237" data-name="Rectángulo 237" width="1.619" height="1.619" transform="translate(22.702 23.847) rotate(-45)" fill="#8f9294"/>
            <rect id="Rectángulo_238" data-name="Rectángulo 238" width="1.48" height="1.48" transform="translate(15.135 16.181) rotate(-45)" fill="#8f9294"/>
            <rect id="Rectángulo_239" data-name="Rectángulo 239" width="1.341" height="1.341" transform="translate(7.567 8.516) rotate(-45)" fill="#8f9294"/>
            <rect id="Rectángulo_240" data-name="Rectángulo 240" width="1.202" height="1.202" transform="translate(0 0.85) rotate(-44.998)" fill="#8f9294"/>
          </g>
        </g>
        <g id="Grupo_76" data-name="Grupo 76" transform="translate(43.476 24.844)">
          <g id="Grupo_75" data-name="Grupo 75" transform="translate(0 0)">
            <rect id="Rectángulo_241" data-name="Rectángulo 241" width="2.732" height="2.732" transform="translate(83.241 85.173) rotate(-45.001)" fill="#8f9294"/>
            <rect id="Rectángulo_242" data-name="Rectángulo 242" width="2.593" height="2.593" transform="translate(75.674 77.507) rotate(-45.001)" fill="#8f9294"/>
            <rect id="Rectángulo_243" data-name="Rectángulo 243" width="2.454" height="2.454" transform="translate(68.106 69.841) rotate(-45)" fill="#8f9294"/>
            <rect id="Rectángulo_244" data-name="Rectángulo 244" width="2.315" height="2.315" transform="matrix(0.707, -0.707, 0.707, 0.707, 60.539, 62.176)" fill="#8f9294"/>
            <rect id="Rectángulo_245" data-name="Rectángulo 245" width="2.176" height="2.176" transform="translate(52.972 54.51) rotate(-45)" fill="#8f9294"/>
            <rect id="Rectángulo_246" data-name="Rectángulo 246" width="2.036" height="2.036" transform="translate(45.404 46.844) rotate(-45.001)" fill="#8f9294"/>
            <rect id="Rectángulo_247" data-name="Rectángulo 247" width="1.897" height="1.897" transform="translate(37.837 39.178) rotate(-45)" fill="#8f9294"/>
            <rect id="Rectángulo_248" data-name="Rectángulo 248" width="1.758" height="1.758" transform="translate(30.27 31.513) rotate(-45.001)" fill="#8f9294"/>
            <rect id="Rectángulo_249" data-name="Rectángulo 249" width="1.619" height="1.619" transform="translate(22.702 23.847) rotate(-45)" fill="#8f9294"/>
            <rect id="Rectángulo_250" data-name="Rectángulo 250" width="1.48" height="1.48" transform="matrix(0.707, -0.707, 0.707, 0.707, 15.135, 16.181)" fill="#8f9294"/>
            <rect id="Rectángulo_251" data-name="Rectángulo 251" width="1.341" height="1.341" transform="translate(7.567 8.516) rotate(-45)" fill="#8f9294"/>
            <rect id="Rectángulo_252" data-name="Rectángulo 252" width="1.202" height="1.202" transform="matrix(0.707, -0.707, 0.707, 0.707, 0, 0.85)" fill="#8f9294"/>
          </g>
        </g>
        <g id="Grupo_78" data-name="Grupo 78" transform="translate(37.265 31.054)">
          <g id="Grupo_77" data-name="Grupo 77" transform="translate(0 0)">
            <rect id="Rectángulo_253" data-name="Rectángulo 253" width="2.732" height="2.732" transform="translate(83.241 85.173) rotate(-45)" fill="#8f9294"/>
            <rect id="Rectángulo_254" data-name="Rectángulo 254" width="2.593" height="2.593" transform="translate(75.674 77.507) rotate(-45)" fill="#8f9294"/>
            <rect id="Rectángulo_255" data-name="Rectángulo 255" width="2.454" height="2.454" transform="translate(68.106 69.841) rotate(-45.001)" fill="#8f9294"/>
            <rect id="Rectángulo_256" data-name="Rectángulo 256" width="2.315" height="2.315" transform="matrix(0.707, -0.707, 0.707, 0.707, 60.539, 62.176)" fill="#8f9294"/>
            <rect id="Rectángulo_257" data-name="Rectángulo 257" width="2.176" height="2.176" transform="matrix(0.707, -0.707, 0.707, 0.707, 52.972, 54.51)" fill="#8f9294"/>
            <rect id="Rectángulo_258" data-name="Rectángulo 258" width="2.036" height="2.036" transform="matrix(0.707, -0.707, 0.707, 0.707, 45.404, 46.844)" fill="#8f9294"/>
            <rect id="Rectángulo_259" data-name="Rectángulo 259" width="1.897" height="1.897" transform="translate(37.837 39.179) rotate(-45)" fill="#8f9294"/>
            <rect id="Rectángulo_260" data-name="Rectángulo 260" width="1.758" height="1.758" transform="translate(30.27 31.513) rotate(-45.001)" fill="#8f9294"/>
            <rect id="Rectángulo_261" data-name="Rectángulo 261" width="1.619" height="1.619" transform="translate(22.702 23.847) rotate(-45)" fill="#8f9294"/>
            <rect id="Rectángulo_262" data-name="Rectángulo 262" width="1.48" height="1.48" transform="matrix(0.707, -0.707, 0.707, 0.707, 15.135, 16.181)" fill="#8f9294"/>
            <rect id="Rectángulo_263" data-name="Rectángulo 263" width="1.341" height="1.341" transform="translate(7.567 8.516) rotate(-45)" fill="#8f9294"/>
            <rect id="Rectángulo_264" data-name="Rectángulo 264" width="1.202" height="1.202" transform="matrix(0.707, -0.707, 0.707, 0.707, 0, 0.85)" fill="#8f9294"/>
          </g>
        </g>
        <g id="Grupo_80" data-name="Grupo 80" transform="translate(31.054 37.265)">
          <g id="Grupo_79" data-name="Grupo 79" transform="translate(0 0)">
            <rect id="Rectángulo_265" data-name="Rectángulo 265" width="2.732" height="2.732" transform="translate(83.241 85.173) rotate(-44.999)" fill="#8f9294"/>
            <rect id="Rectángulo_266" data-name="Rectángulo 266" width="2.593" height="2.593" transform="translate(75.674 77.507) rotate(-45)" fill="#8f9294"/>
            <rect id="Rectángulo_267" data-name="Rectángulo 267" width="2.454" height="2.454" transform="translate(68.106 69.841) rotate(-44.999)" fill="#8f9294"/>
            <rect id="Rectángulo_268" data-name="Rectángulo 268" width="2.315" height="2.315" transform="translate(60.539 62.176) rotate(-45)" fill="#8f9294"/>
            <rect id="Rectángulo_269" data-name="Rectángulo 269" width="2.176" height="2.176" transform="translate(52.972 54.51) rotate(-44.999)" fill="#8f9294"/>
            <rect id="Rectángulo_270" data-name="Rectángulo 270" width="2.036" height="2.036" transform="matrix(0.707, -0.707, 0.707, 0.707, 45.404, 46.844)" fill="#8f9294"/>
            <rect id="Rectángulo_271" data-name="Rectángulo 271" width="1.897" height="1.897" transform="matrix(0.707, -0.707, 0.707, 0.707, 37.837, 39.179)" fill="#8f9294"/>
            <rect id="Rectángulo_272" data-name="Rectángulo 272" width="1.758" height="1.758" transform="translate(30.269 31.513) rotate(-45.001)" fill="#8f9294"/>
            <rect id="Rectángulo_273" data-name="Rectángulo 273" width="1.619" height="1.619" transform="translate(22.702 23.847) rotate(-45)" fill="#8f9294"/>
            <rect id="Rectángulo_274" data-name="Rectángulo 274" width="1.48" height="1.48" transform="translate(15.135 16.181) rotate(-45.002)" fill="#8f9294"/>
            <rect id="Rectángulo_275" data-name="Rectángulo 275" width="1.341" height="1.341" transform="translate(7.567 8.516) rotate(-45)" fill="#8f9294"/>
            <rect id="Rectángulo_276" data-name="Rectángulo 276" width="1.202" height="1.202" transform="matrix(0.707, -0.707, 0.707, 0.707, 0, 0.85)" fill="#8f9294"/>
          </g>
        </g>
        <g id="Grupo_82" data-name="Grupo 82" transform="translate(24.844 43.476)">
          <g id="Grupo_81" data-name="Grupo 81" transform="translate(0 0)">
            <rect id="Rectángulo_277" data-name="Rectángulo 277" width="2.732" height="2.732" transform="translate(83.241 85.173) rotate(-44.999)" fill="#8f9294"/>
            <rect id="Rectángulo_278" data-name="Rectángulo 278" width="2.593" height="2.593" transform="translate(75.674 77.507) rotate(-45)" fill="#8f9294"/>
            <rect id="Rectángulo_279" data-name="Rectángulo 279" width="2.454" height="2.454" transform="translate(68.106 69.841) rotate(-44.999)" fill="#8f9294"/>
            <rect id="Rectángulo_280" data-name="Rectángulo 280" width="2.315" height="2.315" transform="translate(60.539 62.176) rotate(-45)" fill="#8f9294"/>
            <rect id="Rectángulo_281" data-name="Rectángulo 281" width="2.176" height="2.176" transform="translate(52.972 54.51) rotate(-44.999)" fill="#8f9294"/>
            <rect id="Rectángulo_282" data-name="Rectángulo 282" width="2.036" height="2.036" transform="translate(45.404 46.844) rotate(-45)" fill="#8f9294"/>
            <rect id="Rectángulo_283" data-name="Rectángulo 283" width="1.897" height="1.897" transform="matrix(0.707, -0.707, 0.707, 0.707, 37.837, 39.178)" fill="#8f9294"/>
            <rect id="Rectángulo_284" data-name="Rectángulo 284" width="1.758" height="1.758" transform="translate(30.27 31.513) rotate(-45)" fill="#8f9294"/>
            <rect id="Rectángulo_285" data-name="Rectángulo 285" width="1.619" height="1.619" transform="translate(22.702 23.847) rotate(-45)" fill="#8f9294"/>
            <rect id="Rectángulo_286" data-name="Rectángulo 286" width="1.48" height="1.48" transform="translate(15.135 16.181) rotate(-45)" fill="#8f9294"/>
            <rect id="Rectángulo_287" data-name="Rectángulo 287" width="1.341" height="1.341" transform="translate(7.567 8.516) rotate(-45)" fill="#8f9294"/>
            <rect id="Rectángulo_288" data-name="Rectángulo 288" width="1.202" height="1.202" transform="matrix(0.707, -0.707, 0.707, 0.707, 0, 0.85)" fill="#8f9294"/>
          </g>
        </g>
        <g id="Grupo_84" data-name="Grupo 84" transform="translate(18.633 49.687)">
          <g id="Grupo_83" data-name="Grupo 83" transform="translate(0 0)">
            <rect id="Rectángulo_289" data-name="Rectángulo 289" width="2.732" height="2.732" transform="translate(83.241 85.173) rotate(-44.999)" fill="#8f9294"/>
            <rect id="Rectángulo_290" data-name="Rectángulo 290" width="2.593" height="2.593" transform="translate(75.674 77.507) rotate(-44.999)" fill="#8f9294"/>
            <rect id="Rectángulo_291" data-name="Rectángulo 291" width="2.454" height="2.454" transform="translate(68.106 69.841) rotate(-44.999)" fill="#8f9294"/>
            <rect id="Rectángulo_292" data-name="Rectángulo 292" width="2.315" height="2.315" transform="matrix(0.707, -0.707, 0.707, 0.707, 60.539, 62.176)" fill="#8f9294"/>
            <rect id="Rectángulo_293" data-name="Rectángulo 293" width="2.176" height="2.176" transform="translate(52.972 54.51) rotate(-44.999)" fill="#8f9294"/>
            <rect id="Rectángulo_294" data-name="Rectángulo 294" width="2.036" height="2.036" transform="matrix(0.707, -0.707, 0.707, 0.707, 45.404, 46.844)" fill="#8f9294"/>
            <rect id="Rectángulo_295" data-name="Rectángulo 295" width="1.897" height="1.897" transform="matrix(0.707, -0.707, 0.707, 0.707, 37.837, 39.178)" fill="#8f9294"/>
            <rect id="Rectángulo_296" data-name="Rectángulo 296" width="1.758" height="1.758" transform="translate(30.27 31.513) rotate(-44.999)" fill="#8f9294"/>
            <rect id="Rectángulo_297" data-name="Rectángulo 297" width="1.619" height="1.619" transform="matrix(0.707, -0.707, 0.707, 0.707, 22.702, 23.847)" fill="#8f9294"/>
            <rect id="Rectángulo_298" data-name="Rectángulo 298" width="1.48" height="1.48" transform="translate(15.135 16.181) rotate(-44.998)" fill="#8f9294"/>
            <rect id="Rectángulo_299" data-name="Rectángulo 299" width="1.341" height="1.341" transform="translate(7.567 8.516) rotate(-44.998)" fill="#8f9294"/>
            <rect id="Rectángulo_300" data-name="Rectángulo 300" width="1.202" height="1.202" transform="translate(0 0.85) rotate(-44.998)" fill="#8f9294"/>
          </g>
        </g>
        <g id="Grupo_86" data-name="Grupo 86" transform="translate(12.422 55.898)">
          <g id="Grupo_85" data-name="Grupo 85" transform="translate(0 0)">
            <rect id="Rectángulo_301" data-name="Rectángulo 301" width="2.732" height="2.732" transform="matrix(0.707, -0.707, 0.707, 0.707, 83.241, 85.173)" fill="#8f9294"/>
            <rect id="Rectángulo_302" data-name="Rectángulo 302" width="2.593" height="2.593" transform="translate(75.674 77.507) rotate(-45.001)" fill="#8f9294"/>
            <rect id="Rectángulo_303" data-name="Rectángulo 303" width="2.454" height="2.454" transform="translate(68.106 69.842) rotate(-45.001)" fill="#8f9294"/>
            <rect id="Rectángulo_304" data-name="Rectángulo 304" width="2.315" height="2.315" transform="matrix(0.707, -0.707, 0.707, 0.707, 60.539, 62.176)" fill="#8f9294"/>
            <rect id="Rectángulo_305" data-name="Rectángulo 305" width="2.176" height="2.176" transform="translate(52.972 54.51) rotate(-45)" fill="#8f9294"/>
            <rect id="Rectángulo_306" data-name="Rectángulo 306" width="2.036" height="2.036" transform="translate(45.404 46.844) rotate(-45.001)" fill="#8f9294"/>
            <rect id="Rectángulo_307" data-name="Rectángulo 307" width="1.897" height="1.897" transform="translate(37.837 39.179) rotate(-45)" fill="#8f9294"/>
            <rect id="Rectángulo_308" data-name="Rectángulo 308" width="1.758" height="1.758" transform="translate(30.269 31.513) rotate(-45.001)" fill="#8f9294"/>
            <rect id="Rectángulo_309" data-name="Rectángulo 309" width="1.619" height="1.619" transform="translate(22.702 23.847) rotate(-45)" fill="#8f9294"/>
            <rect id="Rectángulo_310" data-name="Rectángulo 310" width="1.48" height="1.48" transform="translate(15.135 16.181) rotate(-45)" fill="#8f9294"/>
            <rect id="Rectángulo_311" data-name="Rectángulo 311" width="1.341" height="1.341" transform="translate(7.567 8.516) rotate(-45)" fill="#8f9294"/>
            <rect id="Rectángulo_312" data-name="Rectángulo 312" width="1.202" height="1.202" transform="translate(0 0.85) rotate(-45)" fill="#8f9294"/>
          </g>
        </g>
        <g id="Grupo_88" data-name="Grupo 88" transform="translate(6.211 62.109)">
          <g id="Grupo_87" data-name="Grupo 87" transform="translate(0 0)">
            <rect id="Rectángulo_313" data-name="Rectángulo 313" width="2.732" height="2.732" transform="translate(83.241 85.173) rotate(-45)" fill="#8f9294"/>
            <rect id="Rectángulo_314" data-name="Rectángulo 314" width="2.593" height="2.593" transform="translate(75.674 77.507) rotate(-45)" fill="#8f9294"/>
            <rect id="Rectángulo_315" data-name="Rectángulo 315" width="2.454" height="2.454" transform="translate(68.106 69.841) rotate(-45)" fill="#8f9294"/>
            <rect id="Rectángulo_316" data-name="Rectángulo 316" width="2.315" height="2.315" transform="matrix(0.707, -0.707, 0.707, 0.707, 60.539, 62.176)" fill="#8f9294"/>
            <rect id="Rectángulo_317" data-name="Rectángulo 317" width="2.176" height="2.176" transform="translate(52.972 54.51) rotate(-45.001)" fill="#8f9294"/>
            <rect id="Rectángulo_318" data-name="Rectángulo 318" width="2.036" height="2.036" transform="matrix(0.707, -0.707, 0.707, 0.707, 45.404, 46.844)" fill="#8f9294"/>
            <rect id="Rectángulo_319" data-name="Rectángulo 319" width="1.897" height="1.897" transform="translate(37.837 39.179) rotate(-45)" fill="#8f9294"/>
            <rect id="Rectángulo_320" data-name="Rectángulo 320" width="1.758" height="1.758" transform="translate(30.269 31.513) rotate(-45.001)" fill="#8f9294"/>
            <rect id="Rectángulo_321" data-name="Rectángulo 321" width="1.619" height="1.619" transform="translate(22.702 23.847) rotate(-45)" fill="#8f9294"/>
            <rect id="Rectángulo_322" data-name="Rectángulo 322" width="1.48" height="1.48" transform="matrix(0.707, -0.707, 0.707, 0.707, 15.135, 16.181)" fill="#8f9294"/>
            <rect id="Rectángulo_323" data-name="Rectángulo 323" width="1.341" height="1.341" transform="translate(7.567 8.516) rotate(-45)" fill="#8f9294"/>
            <rect id="Rectángulo_324" data-name="Rectángulo 324" width="1.202" height="1.202" transform="matrix(0.707, -0.707, 0.707, 0.707, 0, 0.85)" fill="#8f9294"/>
          </g>
        </g>
        <g id="Grupo_90" data-name="Grupo 90" transform="translate(0 68.32)">
          <g id="Grupo_89" data-name="Grupo 89" transform="translate(0 0)">
            <rect id="Rectángulo_325" data-name="Rectángulo 325" width="2.732" height="2.732" transform="translate(83.241 85.173) rotate(-45)" fill="#8f9294"/>
            <rect id="Rectángulo_326" data-name="Rectángulo 326" width="2.593" height="2.593" transform="translate(75.674 77.507) rotate(-45)" fill="#8f9294"/>
            <rect id="Rectángulo_327" data-name="Rectángulo 327" width="2.454" height="2.454" transform="translate(68.106 69.841) rotate(-45)" fill="#8f9294"/>
            <rect id="Rectángulo_328" data-name="Rectángulo 328" width="2.315" height="2.315" transform="translate(60.539 62.176) rotate(-45)" fill="#8f9294"/>
            <rect id="Rectángulo_329" data-name="Rectángulo 329" width="2.176" height="2.176" transform="translate(52.972 54.51) rotate(-45)" fill="#8f9294"/>
            <rect id="Rectángulo_330" data-name="Rectángulo 330" width="2.036" height="2.036" transform="translate(45.404 46.844) rotate(-45)" fill="#8f9294"/>
            <rect id="Rectángulo_331" data-name="Rectángulo 331" width="1.897" height="1.897" transform="matrix(0.707, -0.707, 0.707, 0.707, 37.837, 39.179)" fill="#8f9294"/>
            <rect id="Rectángulo_332" data-name="Rectángulo 332" width="1.758" height="1.758" transform="translate(30.269 31.513) rotate(-45.001)" fill="#8f9294"/>
            <rect id="Rectángulo_333" data-name="Rectángulo 333" width="1.619" height="1.619" transform="translate(22.702 23.847) rotate(-45.002)" fill="#8f9294"/>
            <rect id="Rectángulo_334" data-name="Rectángulo 334" width="1.48" height="1.48" transform="translate(15.135 16.181) rotate(-45.002)" fill="#8f9294"/>
            <rect id="Rectángulo_335" data-name="Rectángulo 335" width="1.341" height="1.341" transform="matrix(0.707, -0.707, 0.707, 0.707, 7.567, 8.516)" fill="#8f9294"/>
            <rect id="Rectángulo_336" data-name="Rectángulo 336" width="1.202" height="1.202" transform="matrix(0.707, -0.707, 0.707, 0.707, 0, 0.85)" fill="#8f9294"/>
          </g>
        </g>
      </g>
      <g id="Grupo_879320" data-name="Grupo 879320" transform="translate(364.276 186.489)">
        <path id="Trazado_34" data-name="Trazado 34" d="M693.686,390.082l-6.369,11.031h12.737Z" transform="translate(-687.318 -297.377)" fill="#fdfdfd"/>
        <path id="Trazado_35" data-name="Trazado 35" d="M693.686,361.354l-6.369,11.031h12.737Z" transform="translate(-687.318 -287.124)" fill="#fdfdfd"/>
        <path id="Trazado_36" data-name="Trazado 36" d="M693.686,332.626l-6.369,11.031h12.737Z" transform="translate(-687.318 -276.872)" fill="#fdfdfd"/>
        <path id="Trazado_37" data-name="Trazado 37" d="M695.17,245.931l-3.695,6.4h7.389Z" transform="translate(-688.802 -245.931)" fill="#f13b76"/>
      </g>
    </g>
    <g id="Grupo_895419" data-name="Grupo 895419" transform="translate(111.612 3088.407)">
      <path id="Trazado_624223" data-name="Trazado 624223" d="M1370.843,982.511c-12.4,18.083,2.14,47.4-16.265,61-17.917,13.238-39.928-8.462-56.814,2.934-25.048,16.9-20.474,94.254,16.148,142.313,11.014,14.454,20.217,20.077,24.293,36.422,8.752,35.1-22.007,55.978-16.154,73.337,13.179,39.087,215.872,71.884,297.2-45.583,37.984-54.863,43.667-134.084,9.729-194.253C1567.658,949.955,1398.678,941.938,1370.843,982.511Z" transform="translate(-1282.058 -960)" fill="#f8a7c2"/>
    </g>
    <g id="Grupo_895422" data-name="Grupo 895422" transform="translate(90.835 3092.899)">
      <g id="Grupo_895424" data-name="Grupo 895424" transform="translate(23.081 13.423)">
        <g id="Grupo_895422-2" data-name="Grupo 895422" transform="translate(0)">
          <path id="Trazado_624266" data-name="Trazado 624266" d="M4311.354,1580.141c0,.287-.014.569-.036.847a10.933,10.933,0,0,1-3.858,7.248,14.743,14.743,0,0,1-9.067,3.477v.083H4210.61v-.074a22.547,22.547,0,0,1-13.1-4.269,19.084,19.084,0,0,1-3.929-3.9,13.952,13.952,0,0,1-1.071-1.655c-.124-.212-.24-.432-.351-.652a19,19,0,0,1-1.849-7.17c-1-13.8,9.84-18.348,18.223-20.61-2.854-17.394,14.032-30.879,32.78-30.879a31.926,31.926,0,0,1,21.428,7.917,27.062,27.062,0,0,1,9.174,18.514c.062-.02.417-.112.955-.228a39.571,39.571,0,0,1,6.151-.979c.169,0,.337-.009.511-.009a22.769,22.769,0,0,1,15.6,5.9v0a16.515,16.515,0,0,1,5.454,12.057,15.924,15.924,0,0,1-.293,3,14.037,14.037,0,0,1,8.445,4.556l.009.016A10.418,10.418,0,0,1,4311.354,1580.141Z" transform="translate(-4190.112 -1522.447)" fill="#465ab3"/>
          <path id="Trazado_624267" data-name="Trazado 624267" d="M4298.49,1591.893h-88.053v-.077a22.629,22.629,0,0,1-13.044-4.294,19.241,19.241,0,0,1-3.957-3.932,14.1,14.1,0,0,1-1.081-1.671c-.106-.181-.217-.385-.354-.656a19.182,19.182,0,0,1-1.863-7.222c-1-13.831,9.872-18.454,18.2-20.718a23.173,23.173,0,0,1,5.557-19.1,32.689,32.689,0,0,1,11.9-8.626,39.119,39.119,0,0,1,15.475-3.187,32.112,32.112,0,0,1,21.517,7.951A27.165,27.165,0,0,1,4272,1548.8c.166-.043.442-.109.8-.187a40.557,40.557,0,0,1,6.177-.982c.169,0,.34-.009.514-.009a23.03,23.03,0,0,1,15.693,5.933l.043.045a16.651,16.651,0,0,1,5.453,12.116,16.138,16.138,0,0,1-.27,2.889,14.093,14.093,0,0,1,8.389,4.579l.018.028a10.513,10.513,0,0,1,2.628,6.89c0,.274-.012.555-.036.857a11.1,11.1,0,0,1-3.9,7.34,14.836,14.836,0,0,1-9.021,3.5Zm-87.782-.27h87.512v-.077l.13-.005a14.585,14.585,0,0,0,8.983-3.444,10.824,10.824,0,0,0,3.813-7.158c.024-.294.035-.568.035-.835a10.243,10.243,0,0,0-2.572-6.725l-.018-.027a13.847,13.847,0,0,0-8.355-4.5l-.137-.022.025-.137a15.809,15.809,0,0,0,.291-2.975,16.39,16.39,0,0,0-5.411-11.959l-.042-.044a22.774,22.774,0,0,0-15.465-5.819c-.172,0-.34,0-.507.009a38.66,38.66,0,0,0-6.126.976c-.544.118-.89.207-.943.224l-.166.056-.011-.176a26.879,26.879,0,0,0-9.129-18.422,31.842,31.842,0,0,0-21.336-7.883c-10.783,0-20.94,4.38-27.172,11.717a22.912,22.912,0,0,0-5.475,19.005l.02.12-.118.032c-8.255,2.227-19.116,6.772-18.124,20.469a18.941,18.941,0,0,0,1.835,7.119c.134.265.242.463.346.644a13.984,13.984,0,0,0,1.063,1.642,18.926,18.926,0,0,0,3.9,3.877,22.387,22.387,0,0,0,13.02,4.244l.133,0Z" transform="translate(-4190.075 -1522.409)" fill="#06355c"/>
        </g>
        <g id="Grupo_895423" data-name="Grupo 895423" transform="translate(11.964 2.397)">
          <path id="Trazado_624268" data-name="Trazado 624268" d="M4314.7,1581.216c0,.277-.013.549-.032.817a10.8,10.8,0,0,1-3.477,7,12.8,12.8,0,0,1-8.171,3.357v.08h-79.11v-.072a19.437,19.437,0,0,1-11.8-4.122,17.823,17.823,0,0,1-3.541-3.769,13.624,13.624,0,0,1-.965-1.6c-.112-.2-.216-.417-.316-.629a19.392,19.392,0,0,1-1.666-6.922c-.9-13.323,8.867-17.713,16.422-19.9-2.571-16.791,12.646-29.809,29.542-29.809a27.687,27.687,0,0,1,19.311,7.643,26.835,26.835,0,0,1,8.268,17.873c.056-.02.376-.108.861-.22a33.508,33.508,0,0,1,5.544-.945c.152,0,.3-.008.461-.008a19.772,19.772,0,0,1,14.059,5.691v0a16.189,16.189,0,0,1,4.65,14.536,12.439,12.439,0,0,1,7.611,4.4l.008.016A10.471,10.471,0,0,1,4314.7,1581.216Z" transform="translate(-4205.427 -1525.515)" fill="#5971d4"/>
          <path id="Trazado_624269" data-name="Trazado 624269" d="M4303.121,1592.564h-79.38v-.075a19.529,19.529,0,0,1-11.754-4.148,18,18,0,0,1-3.568-3.8,13.855,13.855,0,0,1-.974-1.613c-.1-.176-.2-.373-.319-.634a19.57,19.57,0,0,1-1.679-6.97c-.9-13.349,8.894-17.814,16.406-20a23.814,23.814,0,0,1,5.67-19.242,31.868,31.868,0,0,1,24.023-10.606,27.859,27.859,0,0,1,19.4,7.68,26.932,26.932,0,0,1,8.3,17.794c.151-.041.394-.1.706-.176a34.434,34.434,0,0,1,5.571-.948c.153,0,.307-.008.464-.008a20.009,20.009,0,0,1,14.155,5.732l.04.043a16.313,16.313,0,0,1,4.671,14.483,12.511,12.511,0,0,1,7.561,4.423l.017.027a10.575,10.575,0,0,1,2.368,6.651c0,.264-.011.535-.033.827a10.962,10.962,0,0,1-3.519,7.086,12.9,12.9,0,0,1-8.129,3.387Zm-79.11-.27h78.84v-.074l.129-.005a12.645,12.645,0,0,0,8.085-3.32,10.694,10.694,0,0,0,3.434-6.91c.022-.284.032-.549.032-.806a10.313,10.313,0,0,0-2.317-6.493l-.018-.027a12.251,12.251,0,0,0-7.519-4.338l-.134-.023.024-.134a16.059,16.059,0,0,0-4.613-14.418l-.04-.043a19.742,19.742,0,0,0-13.924-5.612c-.156,0-.306,0-.457.008a32.694,32.694,0,0,0-5.516.941c-.491.114-.8.2-.847.216l-.171.061-.01-.18a26.665,26.665,0,0,0-8.226-17.783,27.592,27.592,0,0,0-19.217-7.605,31.6,31.6,0,0,0-23.818,10.512,23.544,23.544,0,0,0-5.59,19.142l.018.117-.114.034c-7.437,2.148-17.22,6.535-16.326,19.756a19.321,19.321,0,0,0,1.654,6.873c.121.255.217.448.313.621a13.646,13.646,0,0,0,.958,1.586,17.722,17.722,0,0,0,3.515,3.741,19.287,19.287,0,0,0,11.724,4.092l.132,0Z" transform="translate(-4205.389 -1525.477)" fill="#06355c"/>
        </g>
        <path id="Trazado_624270" data-name="Trazado 624270" d="M4264.672,1553l-23.562,31h47.123Z" transform="translate(-4201.24 -1529.102)" fill="#1d263f"/>
        <path id="Trazado_624271" data-name="Trazado 624271" d="M4269.085,1557.821l-20.7,27.232h41.4Z" transform="translate(-4202.831 -1530.156)" fill="#0b5999"/>
        <path id="Trazado_624272" data-name="Trazado 624272" d="M4256.254,1592.081v13.308h-8.019v3.223h20.172v-16.531Z" transform="translate(-4202.798 -1537.651)" fill="#1d263f"/>
        <rect id="Rectángulo_302535" data-name="Rectángulo 302535" width="12.152" height="16.531" transform="translate(58.77 54.43)" fill="#0b5999"/>
      </g>
      <path id="Rectángulo_302536" data-name="Rectángulo 302536" d="M16.681,0h253.38a16.684,16.684,0,0,1,16.684,16.684V170.677a16.684,16.684,0,0,1-16.684,16.684H16.684A16.684,16.684,0,0,1,0,170.677v-154A16.681,16.681,0,0,1,16.681,0Z" transform="translate(47.303 106.213)" fill="#0b5999"/>
      <rect id="Rectángulo_302537" data-name="Rectángulo 302537" width="262.23" height="161.919" transform="translate(59.56 118.572)" fill="#97aaef"/>
      <rect id="Rectángulo_302538" data-name="Rectángulo 302538" width="65.992" height="12.845" transform="translate(157.679 292.229)" fill="#fff"/>
      <path id="Trazado_624273" data-name="Trazado 624273" d="M4517.68,1881.978c0,10.3-4.9,18.678-10.941,18.678H4214.5c-6.043,0-10.942-8.38-10.942-18.678a30.49,30.49,0,0,1,.205-3.594h128.859a7.538,7.538,0,0,0,7.146,5.3h41.7a7.54,7.54,0,0,0,7.147-5.3h128.857A30.486,30.486,0,0,1,4517.68,1881.978Z" transform="translate(-4169.944 -1586.862)" fill="#1d263f" fill-rule="evenodd"/>
      <g id="Grupo_895425" data-name="Grupo 895425" transform="translate(98.364 132.33)">
        <path id="Trazado_624274" data-name="Trazado 624274" d="M4316.809,1679.982H4286.7l.013-5.368h30.112Z" transform="translate(-4286.496 -1674.614)" fill="#fabbd0"/>
        <path id="Trazado_624275" data-name="Trazado 624275" d="M4331.063,1695.993h-30.112l.012-5.368h30.112Z" transform="translate(-4289.614 -1678.116)" fill="#fabbd0"/>
        <path id="Trazado_624276" data-name="Trazado 624276" d="M4316.552,1791.211h-30.112l.013-5.368h30.112Z" transform="translate(-4286.439 -1698.947)" fill="#fabbd0"/>
        <path id="Trazado_624277" data-name="Trazado 624277" d="M4330.806,1807.222h-30.112l.012-5.368h30.112Z" transform="translate(-4289.558 -1702.45)" fill="#fabbd0"/>
        <path id="Trazado_624278" data-name="Trazado 624278" d="M4416.975,1711.211h-98.857l.012-5.368h98.857Z" transform="translate(-4293.37 -1681.446)" fill="#fff"/>
        <path id="Trazado_624279" data-name="Trazado 624279" d="M4430.118,1727.487H4318.08l.013-5.368H4430.13Z" transform="translate(-4293.361 -1685.006)" fill="#fff"/>
        <path id="Trazado_624280" data-name="Trazado 624280" d="M4415.985,1744.424h-76.6l.012-5.368H4416Z" transform="translate(-4298.022 -1688.712)" fill="#fff"/>
        <path id="Trazado_624281" data-name="Trazado 624281" d="M4482.624,1761.362h-143.28l.012-5.368h143.28Z" transform="translate(-4298.013 -1692.417)" fill="#fff"/>
        <path id="Trazado_624282" data-name="Trazado 624282" d="M4372.063,1777.118h-32.755l.012-5.368h32.755Z" transform="translate(-4298.005 -1695.864)" fill="#fff"/>
        <path id="Trazado_624283" data-name="Trazado 624283" d="M4468.984,1839.25H4317.331l.012-5.368H4469Z" transform="translate(-4293.197 -1709.457)" fill="#fff"/>
        <path id="Trazado_624284" data-name="Trazado 624284" d="M4416.608,1821.441h-99.241l.029-12.715h99.242Z" transform="translate(-4293.205 -1703.953)" fill="#fff"/>
      </g>
      <g id="Grupo_895426" data-name="Grupo 895426" transform="translate(165.896)">
        <path id="Trazado_624285" data-name="Trazado 624285" d="M4399.449,1555.714a9.027,9.027,0,0,1-2.775-9.92c.656-1.773,1.906-3.517,1.509-5.365-.389-1.8-2.244-3-2.682-4.789a3.7,3.7,0,0,1,.395-2.726c.311-.5.772-.809.97-1.383a8.659,8.659,0,0,0-.322-5.471,6.9,6.9,0,0,1-.759-2.774c.09-1.344,1.19-2.356,2.009-3.427a10.322,10.322,0,0,0,.607-.892c1.361-2.23,1.929-4.819,3.035-7.166a10.605,10.605,0,0,1,16.27-4.515,9.055,9.055,0,0,1,12.525,7.231c.2,1.6-.015,3.322.746,4.745,1.233,2.3,4.579,2.984,5.509,5.426.57,1.5.021,3.177-.676,4.618a12.343,12.343,0,0,0-1.663,4.469c-.151,2.555,1.67,4.734,2.866,7a15.584,15.584,0,0,1,.162,13.993c-4.814-.108-9.664-.325-14.478-.433a6.786,6.786,0,0,1-3.358-.659c-1.512-.9-2.085-2.84-2.045-4.6a9.094,9.094,0,0,1,.307-2.213,2.791,2.791,0,0,0,.153-1.32,7.529,7.529,0,0,1,.207-4.059,13.845,13.845,0,0,1,2.714-4.219,44.485,44.485,0,0,0,3.239-3.864,14.417,14.417,0,0,0,2.386-6.358,11.064,11.064,0,0,0-.868-6.6,9.138,9.138,0,0,0-5.769-4.062,12.736,12.736,0,0,0-12.406,3.824,12.569,12.569,0,0,0-2.981,6.687,15.031,15.031,0,0,0,.148,2.894,6.2,6.2,0,0,0,1.147,3.64c1.261,1.648,3.39,2.544,4.4,4.358a5.513,5.513,0,0,1,.56,3.391,10.123,10.123,0,0,1-1.126,3.292,41.842,41.842,0,0,1-2.337,3.545c-.483.741-.783,1.572-1.24,2.325C4404.443,1552.616,4401.672,1554.348,4399.449,1555.714Z" transform="translate(-4377.808 -1505.227)" fill="#643a24"/>
        <path id="Trazado_624286" data-name="Trazado 624286" d="M4447.829,1629.247a47.438,47.438,0,0,0,10.695-12.062,21.5,21.5,0,0,0,3.056-7.317c.512-2.566.275-6.438-1.233-8.577-2.969-.147-5.722.684-8.691.537a49.038,49.038,0,0,1-3.953,14.454c-1.07,2.35-2.463,4.755-4.779,5.9A38.476,38.476,0,0,0,4447.829,1629.247Z" transform="translate(-4388.206 -1526.239)" fill="#f6b58d"/>
        <path id="Trazado_624287" data-name="Trazado 624287" d="M4440.778,1558.664c3.709.766,5.74,3.628,7.578,7.279l8.311,15.494a83.591,83.591,0,0,1,3.742,7.951c.558,1.37,1.129,2.739,1.661,4.108a1.291,1.291,0,0,1-1.023,1.749,62.287,62.287,0,0,0-12.175,2.9,24.119,24.119,0,0,0-7.492-15.361,94.533,94.533,0,0,0-1.107-17.315A13.706,13.706,0,0,1,4440.778,1558.664Z" transform="translate(-4387.579 -1516.917)" fill="#c6aa95"/>
        <path id="Trazado_624288" data-name="Trazado 624288" d="M4388.107,1629.247a47.44,47.44,0,0,1-10.7-12.062,21.485,21.485,0,0,1-3.055-7.317c-.512-2.566-.275-6.438,1.232-8.577,2.969-.147,5.723.684,8.691.537a49.023,49.023,0,0,0,3.953,14.454c1.07,2.35,2.462,4.755,4.779,5.9A38.476,38.476,0,0,1,4388.107,1629.247Z" transform="translate(-4373.152 -1526.239)" fill="#f6b58d"/>
        <path id="Trazado_624289" data-name="Trazado 624289" d="M4394.263,1558.664c-3.708.766-5.739,3.628-7.578,7.279l-8.31,15.494a83.115,83.115,0,0,0-3.742,7.951c-.558,1.37-1.128,2.739-1.661,4.108a1.29,1.29,0,0,0,1.022,1.749,62.3,62.3,0,0,1,12.176,2.9,24.119,24.119,0,0,1,7.492-15.361,94.533,94.533,0,0,1,1.107-17.315A13.717,13.717,0,0,0,4394.263,1558.664Z" transform="translate(-4372.883 -1516.917)" fill="#c6aa95"/>
        <path id="Trazado_624290" data-name="Trazado 624290" d="M4408.636,1556.858a9.675,9.675,0,0,0,3.771-9.427c.845-.061,1.559-.167,2.405-.228l2.494-.035h.1l2.471.035c.847.062,1.579.167,2.425.228a9.661,9.661,0,0,0,3.765,9.427,8.264,8.264,0,0,0,3.015,2.235c-1.737,1.513-3.474,3.244-5.24,4.723-2.159,1.81-4.32,3.608-6.48,5.448h-.02c-2.161-1.841-4.321-3.638-6.48-5.448-1.766-1.48-3.5-3.2-5.24-4.713A8.291,8.291,0,0,0,4408.636,1556.858Z" transform="translate(-4380.045 -1514.402)" fill="#ffa188"/>
        <path id="Trazado_624291" data-name="Trazado 624291" d="M4414.2,1551.716a8.808,8.808,0,0,0,5.084,1.653,8.077,8.077,0,0,0,5.011-2.053,13.476,13.476,0,0,1-.111-2.483,8,8,0,0,1-4.9,1.963,8.759,8.759,0,0,1-4.89-1.522A11.3,11.3,0,0,1,4414.2,1551.716Z" transform="translate(-4381.92 -1514.766)" fill="#ed836e"/>
        <path id="Trazado_624292" data-name="Trazado 624292" d="M4407.38,1530.7c0,7.105,4.636,12.865,10.355,12.865s11.409-8.526,11.409-15.631-4.3-12.169-10.024-12.169a12.192,12.192,0,0,0-9.542,4.825C4407.672,1523.317,4407.38,1527.456,4407.38,1530.7Z" transform="translate(-4380.43 -1507.531)" fill="#ffa188"/>
        <path id="Trazado_624293" data-name="Trazado 624293" d="M4395.854,1572a35.385,35.385,0,0,1,3.355-13.947,31.491,31.491,0,0,1,9.843-2.2,6.567,6.567,0,0,0-1.386,3.637,6.123,6.123,0,0,0,.958,3.628,7.865,7.865,0,0,0,6.664,3.13,7.387,7.387,0,0,0,6.4-3.13,6.109,6.109,0,0,0,.958-3.628,6.558,6.558,0,0,0-1.385-3.637,31.488,31.488,0,0,1,9.843,2.2,35.4,35.4,0,0,1,3.356,13.947c.267,7.5-1.907,14.937-1.56,22.435.189,4.1-.254,8.469-.4,12.569-9.406.251-7.8-.178-17.208.073-9.407-.251-8.065.178-17.473-.073-.148-4.1-.593-8.471-.4-12.569C4397.759,1586.933,4395.586,1579.5,4395.854,1572Z" transform="translate(-4377.903 -1516.302)" fill="#ead6c5"/>
        <path id="Trazado_624294" data-name="Trazado 624294" d="M4403.533,1534.117c.08-1.1.125-2.2.174-3.3.085-1.958.181-3.919.461-5.859a26.4,26.4,0,0,1,1.694-5.191c.245-.516.5-1.03.734-1.55.387-.847.756-1.7,1.132-2.553a12.227,12.227,0,0,1,.729-1.352c.221-.346.465-.677.72-1,.435-.52.879-1.044,1.287-1.59,2.216-.115,4.422-.389,6.631-.6.646-.054,1.293-.1,1.939-.1a12.639,12.639,0,0,1,1.784.124c1.713.346,3.383.875,5.064,1.345a4.983,4.983,0,0,0,2.42.078q.451.46.861.959a15.285,15.285,0,0,1,1.11,2.123,26.33,26.33,0,0,1,1.012,5.192c.1,1.257.158,2.516.23,3.773a5.8,5.8,0,0,0,.529,2.671,4.925,4.925,0,0,0-.187,1.413,5.8,5.8,0,0,0-3.644.289c.064-.385.115-.771.165-1.145a13.666,13.666,0,0,0-.066-3.173c-.021-.087-.042-.171-.066-.255a4.85,4.85,0,0,0-.113-1.206q-.225-.607-.451-1.214a3.807,3.807,0,0,0-.324-.55,9.008,9.008,0,0,0-2.214-3.064c-1.231-1.112-3.077-1.469-3.629-3.19.143,2.228-1.561,4.2-3.523,5.269s-4.2,1.469-6.3,2.235-4.651,1.922-5.018,4.124a13.964,13.964,0,0,0-.135,1.808,19.954,19.954,0,0,0,.428,4.809,17.078,17.078,0,0,0,.932,2.657s-3.3.321-4.206,1.363a3.711,3.711,0,0,0-.156-.353c-.043-.178-.081-.359-.112-.54C4403.409,1535.744,4403.475,1534.93,4403.533,1534.117Z" transform="translate(-4379.563 -1506.493)" fill="#643a24"/>
        <path id="Trazado_624295" data-name="Trazado 624295" d="M4407.737,1527.5a6.353,6.353,0,0,1,3.948-2.263c2.546-.531,4.225-.045,6.92-1.177,2.4-1.008,4.763-3.146,4.6-5.742.645,2.005,2.795,2.42,4.23,3.717a10.642,10.642,0,0,1,1.105,1.161c-.042-.121-.088-.242-.136-.362l-.061-.147-.031-.073c-.022-.048-.043-.1-.065-.144l-.033-.073q-.051-.108-.1-.215a9.093,9.093,0,0,0-2.016-2.648c-.673-.609-1.53-.913-2.259-1.5h0c-.042,0-.083-.049-.124-.08v0c-.1-.073-.2-.148-.3-.23v0c-.057-.048-.113-.1-.166-.149h0a2.878,2.878,0,0,1-.784-1.226v0a5.158,5.158,0,0,1-1.72,3.939,8.058,8.058,0,0,1-1.8,1.33c-.123.067-.246.126-.371.188-.062.031-.125.086-.187.086h0c-.063,0-.127.066-.189.066h0c-.063,0-.127.131-.19.131h0c-.064.066-.128.047-.192.073-.161.066-.322.127-.485.188l-.294.105c-1.44.517-2.95.873-4.393,1.4C4410.539,1524.625,4408.465,1525.49,4407.737,1527.5Z" transform="translate(-4380.508 -1507.661)" fill="#ed836e"/>
        <path id="Trazado_624296" data-name="Trazado 624296" d="M4412.748,1637.277h25.192v2.184a2.369,2.369,0,0,1-2.346,2.418h-42.03a2.394,2.394,0,0,1-2.377-2.418v-2.184Z" transform="translate(-4376.887 -1534.115)" fill="#0b5999"/>
        <path id="Trazado_624297" data-name="Trazado 624297" d="M4384.459,1583.091c.035-.059.071-.12.11-.175v-.041a2.68,2.68,0,0,1,2.211-1.131H4438.6a2.68,2.68,0,0,1,2.211,1.131v.026c.04.056.076.124.11.182l1.747,2.708,0,0-1.436.321-6.383,34.607a4.62,4.62,0,0,1-4.142,3.872h-36.026a4.619,4.619,0,0,1-4.142-3.872l-6.384-34.594-1.435-.326,0,0Z" transform="translate(-4375.033 -1521.966)" fill="#465ab3"/>
        <path id="Trazado_624298" data-name="Trazado 624298" d="M4382.558,1586.649a2.614,2.614,0,0,1,2.221-1.119h55.5a2.616,2.616,0,0,1,2.221,1.119,3.568,3.568,0,0,1,.493,2.713l-6.465,35.059a4.627,4.627,0,0,1-4.143,3.876h-39.716a4.629,4.629,0,0,1-4.142-3.881l-6.466-35.06A3.555,3.555,0,0,1,4382.558,1586.649Z" transform="translate(-4374.875 -1522.795)" fill="#5971d4"/>
        <path id="Trazado_624299" data-name="Trazado 624299" d="M4414.544,1611.8c0,2.166,2.287,3.921,5.108,3.921s5.108-1.755,5.108-3.921-2.287-3.921-5.108-3.921S4414.544,1609.632,4414.544,1611.8Z" transform="translate(-4381.997 -1527.683)" fill="#fff"/>
      </g>
      <g id="Grupo_895434" data-name="Grupo 895434" transform="translate(0 102.693)">
        <path id="Trazado_624300" data-name="Trazado 624300" d="M4201.369,1657a10.509,10.509,0,0,0,2.3,7.943,15.348,15.348,0,0,0,6.932,4.739,26.775,26.775,0,0,0,5.489,1.27,3.913,3.913,0,0,0,4.153-2.45c1.273-3.248,2.667-6.582,3.073-10.072a14.388,14.388,0,0,0-1.064-7.608,10.78,10.78,0,0,0-4.026-4.673c-.29-.181-.971-.707-1.32-.6s-.821.9-1.072,1.169q-1.168,1.264-2.439,2.427A44.056,44.056,0,0,1,4201.369,1657Z" transform="translate(-4169.443 -1638.613)" fill="#ffa188"/>
        <path id="Trazado_624301" data-name="Trazado 624301" d="M4203.4,1668.186c.417,3.565-.208,5.488-1.086,8.968a88.69,88.69,0,0,1-3.466,10.186c4.1,5.529,7.982,11.189,12.081,16.718l.223-.375c2.793-4.694,2.512-10.894,3.708-16.224-.509-.276-.4-.266-.534-.827a6.3,6.3,0,0,1-.1-1.726q.248-7.153.5-14.308A104.029,104.029,0,0,1,4203.4,1668.186Z" transform="translate(-4168.914 -1643.57)" fill="#ffa188"/>
        <path id="Trazado_624302" data-name="Trazado 624302" d="M4204.678,1670.776a11.354,11.354,0,0,0,1.9,3.529,15.345,15.345,0,0,0,6.93,4.739,22.323,22.323,0,0,0,2.2.657q.059-1.691.117-3.38a25.6,25.6,0,0,1-4.474-1.121A15.519,15.519,0,0,1,4204.678,1670.776Z" transform="translate(-4170.188 -1644.136)" fill="#ed836e"/>
        <path id="Trazado_624303" data-name="Trazado 624303" d="M4225.2,1666.514l-.042-.177c-.6-2.435-2.224-4.42-3.729-6.371-1.693-2.193-3.391-4.52-3.923-7.239-.536-2.738.166-5.639-.586-8.326a10.306,10.306,0,0,0-6.21-6.387,19.952,19.952,0,0,0-15.483.477c-3.322,1.539-6.108,4.651-6.382,8.3a9.232,9.232,0,0,1-5.48,7.457c-2.069,1.009-4.6,1.352-6.088,3.105-1.921,2.255-1.311,5.923-3.24,8.17-1.3,1.519-3.5,2.044-4.778,3.586a6.375,6.375,0,0,0-1.1,4.871c.214,1.7.812,3.324,1.191,4.994a8.346,8.346,0,0,1-.134,5.052c-.884,2.109-2.081,4.148-1.58,6.38.449,2.007,2.008,3.272,3.333,4.705a11.972,11.972,0,0,0,2.588,1.782c1.086.675,3.18,2.116,4.267,2.791,1.013-4.412,1.019-9.591,2.033-14a10.5,10.5,0,0,1,1.86-4.587c1.581-1.859,4.187-2.366,6.424-3.341a46.835,46.835,0,0,0,6.256-3.833s1.531-4.961,1.965-7.351c.112-.61.218-1.3.285-2.033a2.015,2.015,0,0,0-.092-1.219,8.148,8.148,0,0,1-1.282-1.941,7.409,7.409,0,0,1,.24-5.173,12.229,12.229,0,0,0,8.524-3.2,13.126,13.126,0,0,0,4.359-8.38,12.575,12.575,0,0,1,6.762,8.5c.72,3.452.16,5.631-.926,9.626a14.282,14.282,0,0,1-2.142,5.051c-.981,1.208-2.865,1.369-4.391,1.063,0,.105-.08,2.474-.094,2.74-.015.292-.059,1.677-.059,1.677s.521.559.811.609a16.263,16.263,0,0,1,5.046,2.131,14.757,14.757,0,0,1,2.723,1.865,18.24,18.24,0,0,1,1.942,1.432c.433.491.881.956,1.317,1.434a20.305,20.305,0,0,0,1.867-1.554,13.105,13.105,0,0,0,1.49-1.6,13.922,13.922,0,0,0,2.07-3.749A13.188,13.188,0,0,0,4225.2,1666.514Z" transform="translate(-4162.058 -1636.677)" fill="#643a24"/>
        <path id="Trazado_624304" data-name="Trazado 624304" d="M4177.288,1890.477a27.913,27.913,0,0,1-.955-4.338c-.428-2.258,0-5.521-.093-7.818h0c-.009-.338-.034-.682-.04-1.019,0-.113-.01-.227-.012-.34s-.005-.226-.006-.338q-.006-.5,0-1v0c.014-.992.064-1.973.17-2.945a20.223,20.223,0,0,1,1.158-5.016q1.181-3.119,2.36-6.24-3.817-1.217-7.632-2.448c-.015.1-.027.192-.042.288-.9,5.868-2.778,11.947-7.229,15.875a11.194,11.194,0,0,1,2.648,4.923v0l.011.036c.034.117.067.233.1.349.09.319.171.634.248.946q.078.32.15.633a26.41,26.41,0,0,0,1.772,5.982c.03.059.06.12.091.178.141.27.3.534.463.791a9.152,9.152,0,0,0,6.5,4.008l-.008-.005c-.115-.11,1.226-.264,1.382-.545A7.573,7.573,0,0,1,4177.288,1890.477Z" transform="translate(-4161.5 -1685.307)" fill="#ffa188"/>
        <path id="Trazado_624305" data-name="Trazado 624305" d="M4177.683,1897.642a9.152,9.152,0,0,1-6.5-4.008c-.168-.256-.322-.521-.463-.791-.031-.058-.062-.119-.091-.178a26.179,26.179,0,0,1-1.782-5.986c-.048-.207-.093-.416-.14-.629-.069-.309-.152-.626-.255-.948a1.442,1.442,0,0,0-.128-.359l.021-.07.016.005c1.1.583,2,1.4,3.054,2a3.076,3.076,0,0,0,3.416.082,3.894,3.894,0,0,0,1.032-2.08c.391-1.494.806-2.935,1.044-4.4l-.007-.007v0c.009.339,0,.673,0,1.01,0,.112.006.226.007.338s.016.229.02.342c.007.337.033.681.042,1.02h0c.089,2.3-.335,5.56.093,7.818a28,28,0,0,0,.961,4.34c-.585.67-.885,1.315-.428,1.927-.157.281-.09.461.076.571Z" transform="translate(-4162.236 -1689.967)" fill="#ed836e"/>
        <path id="Trazado_624306" data-name="Trazado 624306" d="M4166.163,1885s-1.321-1.286-1.7-.529l-3.083,8.916-.847-.155s2.888-8.336,2.78-10.721-.7-3.336.2-4.046S4166.163,1885,4166.163,1885Z" transform="translate(-4160.531 -1689.561)" fill="#1d263f"/>
        <path id="Trazado_624307" data-name="Trazado 624307" d="M4168.313,1874.316s-.436-.274-1.245.162-2.861,2.1-3.277,3.583,2.681,4.9,3.525,8.128c.975,3.725.545,7.681,1.247,8.635.519.708,3.375,1.791,4.767,2.376.931.39,5.271,2.194,6.629,1.5.934-.478,1.395-1.252.877-1.881s-4.092-3.954-4.092-3.954a3.2,3.2,0,0,1-3.913-.13c-2.043-1.588-3.187-7.625-3.494-10.163C4169.06,1880.289,4168.313,1874.316,4168.313,1874.316Z" transform="translate(-4161.236 -1688.646)" fill="#0b5999"/>
        <path id="Trazado_624308" data-name="Trazado 624308" d="M4220.245,1890.938a27.964,27.964,0,0,1-2.234-3.85c-1.088-2.025-1.679-5.265-2.459-7.429h0c-.112-.32-.217-.64-.325-.959-.037-.107-.069-.214-.1-.321s-.068-.213-.1-.32c-.105-.318-.2-.637-.3-.955v0c-.284-.949-.532-1.9-.722-2.861a20.188,20.188,0,0,1-.4-5.131q.188-3.331.375-6.661-4.008-.013-8.015-.041c.015.1.031.192.046.288.9,5.868.941,12.23-2.123,17.314a11.19,11.19,0,0,1,4,3.9l0,0,.021.032c.067.1.135.2.2.3.182.277.355.553.521.828.114.187.225.374.333.558a26.436,26.436,0,0,0,3.489,5.172c.047.048.093.1.14.143.216.214.443.42.68.615a9.157,9.157,0,0,0,7.4,1.869l-.01,0c-.143-.07,1.089-.62,1.155-.934A7.563,7.563,0,0,1,4220.245,1890.938Z" transform="translate(-4170.014 -1686.059)" fill="#ffa188"/>
        <path id="Trazado_624309" data-name="Trazado 624309" d="M4221.792,1897.544a9.156,9.156,0,0,1-7.4-1.869c-.236-.195-.463-.4-.68-.615-.047-.047-.093-.094-.141-.143a26.2,26.2,0,0,1-3.5-5.173c-.107-.183-.213-.369-.322-.558-.159-.274-.333-.552-.528-.828a1.564,1.564,0,0,0-.231-.321v-.091H4209c1.221.223,2.328.75,3.512,1s2.634.088,3.283-.939a3.874,3.874,0,0,0,.359-2.289c-.076-1.542-.138-3.04-.351-4.508h-.033v0c.112.321.229.641.333.962.034.107.085.214.12.32s.072.214.107.321c.107.32.222.64.333.959h0c.781,2.164,1.372,5.4,2.459,7.429a27.847,27.847,0,0,0,2.23,3.85c-.356.815-.443,1.52.176,1.966-.066.316.056.467.248.522Z" transform="translate(-4171.131 -1690.173)" fill="#ed836e"/>
        <path id="Trazado_624310" data-name="Trazado 624310" d="M4207.585,1889.632s-1.647-.829-1.783.007l-.259,9.43-.854.107s.247-8.818-.572-11.06-1.674-2.97-1.023-3.92S4207.585,1889.632,4207.585,1889.632Z" transform="translate(-4169.792 -1690.805)" fill="#1d263f"/>
        <path id="Trazado_624311" data-name="Trazado 624311" d="M4205.8,1878.471s-.5-.13-1.139.529-2.1,2.866-2.049,4.4,4.031,3.866,5.806,6.691c2.049,3.261,2.829,7.162,3.784,7.862.708.519,3.757.694,5.261.832,1,.093,5.687.509,6.772-.562.747-.737.954-1.614.272-2.059s-5.09-2.54-5.09-2.54a3.206,3.206,0,0,1-3.772,1.052c-2.426-.9-5.332-6.315-6.388-8.642C4208.307,1883.944,4205.8,1878.471,4205.8,1878.471Z" transform="translate(-4169.736 -1689.571)" fill="#0b5999"/>
        <path id="Trazado_624312" data-name="Trazado 624312" d="M4218.359,1742.245c4,6.821,5.159,15.2,5.2,23.1a90.461,90.461,0,0,1-1.071,12.387q-1.209,9.1-2.418,18.194c-1.931,14.524-4.681,29.656-5.121,44.3-3.489-.049-7.2-.133-10.687-.181q-2.865-21.581-3.838-43.356c-.467-10.454,4.995-21.387,7.134-31.63a145.536,145.536,0,0,1,4.771-18.671,7.619,7.619,0,0,1,1.7-3.088C4214.887,1742.486,4217.759,1741.221,4218.359,1742.245Z" transform="translate(-4169.252 -1659.688)" fill="#1d263f"/>
        <path id="Trazado_624313" data-name="Trazado 624313" d="M4188.2,1742.057a49.767,49.767,0,0,0-7.016,17.352c-2.442,12.4-.091,25.31-2.038,37.8-2.4,15.4-8.826,29.7-7.968,45.253,2.442.051,5.27-.148,7.712-.1,9.821-15.38,16.417-33.153,19.916-51.064,1.742-8.915,3.45-18.818,7.094-27.138,1.181-2.7,2.531-5.363,3.052-8.26a15.251,15.251,0,0,0-2.754-11.667A47.233,47.233,0,0,1,4188.2,1742.057Z" transform="translate(-4162.844 -1659.73)" fill="#0b5999"/>
        <path id="Trazado_624314" data-name="Trazado 624314" d="M4190.51,1743.74c7.382,2.6,14.041,1.514,21.84.842a13.72,13.72,0,0,0,5.039-.944c-.034-1.273-.2-3.7-.229-4.975a49.655,49.655,0,0,1-26.626.26C4190.405,1739.638,4190.636,1743.026,4190.51,1743.74Z" transform="translate(-4167.085 -1658.988)" fill="#643a24"/>
        <path id="Trazado_624315" data-name="Trazado 624315" d="M4198.254,1746.131l-1.943-.45,1.2-5.163,2,.215Z" transform="translate(-4168.358 -1659.394)" fill="#e2eff8"/>
        <path id="Trazado_624316" data-name="Trazado 624316" d="M4209.525,1743.412c.126,1.678,2.325,2.88,4.909,2.684s4.577-1.714,4.45-3.391-2.325-2.88-4.909-2.685S4209.4,1741.734,4209.525,1743.412Z" transform="translate(-4171.248 -1659.28)" fill="#e2eff8"/>
        <path id="Trazado_624317" data-name="Trazado 624317" d="M4244.727,1719.8a13.648,13.648,0,0,1,1.4-2.585,13.244,13.244,0,0,1,3.739-4.823q-2.124-1.226-4.219-2.5a17.092,17.092,0,0,1-3.639-2.612,28.219,28.219,0,0,1-2.645-3.35c-1.069-1.5-2.178-2.956-3.189-4.494-1.307-1.985-2.684-3.946-3.9-5.98a11.838,11.838,0,0,0-4.163-4.175,7.879,7.879,0,0,0-1.036-.48,7.01,7.01,0,0,1-1.173.576,11.374,11.374,0,0,1-1.418.37,13.493,13.493,0,0,1-2,.263l-.174.011c1.056,2.891,2,5.823,2.964,8.745q.489,1.479.993,2.954a2.863,2.863,0,0,1,.2.224,12.834,12.834,0,0,1,2.144,2.972c.484.886.235,1.094.64,2.013.815.656,7.168,5.846,7.955,6.6a47.754,47.754,0,0,0,6.7,5.755C4244.177,1719.461,4244.452,1719.632,4244.727,1719.8Z" transform="translate(-4174.046 -1648.081)" fill="#ead6c5"/>
        <path id="Trazado_624318" data-name="Trazado 624318" d="M4236.851,1726.059l.029.6-.086-.012Q4236.822,1726.354,4236.851,1726.059Z" transform="translate(-4177.215 -1656.23)" fill="#ead6c5"/>
        <path id="Trazado_624319" data-name="Trazado 624319" d="M4181.524,1708.938c.119-2.4.181-4.818.253-7.206a38.645,38.645,0,0,1,1.395-7.212,15.867,15.867,0,0,1,1.667-4.69,9.235,9.235,0,0,1,3.939-3.449,33.6,33.6,0,0,1,5.671-2.16,3.126,3.126,0,0,1,1.6-.145,2.284,2.284,0,0,1,1.157.821c.206.25.3.5.576.665a5.687,5.687,0,0,1,.792.457,5.509,5.509,0,0,1,1.206,1.438c.491.806.848,1.685,1.311,2.507a11.158,11.158,0,0,0,5.687,4.9,1.294,1.294,0,0,0,.741.116,1.332,1.332,0,0,0,.728-.655c.944-1.456.932-2.325,1.424-3.99a19.249,19.249,0,0,0,.48-2.6c.12-.808.283-1.875.328-2.709.035-.652.09-2.534.09-2.534s3.04,1.829,3.607,2.166c.735.438,1.472.878,2.189,1.336.57.363,1.208.627,1.782.993a8.945,8.945,0,0,1,2.895,2.839,15.789,15.789,0,0,1,1.667,4.681,42.578,42.578,0,0,1,1.379,6.878,2.223,2.223,0,0,0-.444.052,2.524,2.524,0,0,0-1.507,1.073,29.486,29.486,0,0,0-3.163,5.926,35.7,35.7,0,0,0-2.368,11.092,49.709,49.709,0,0,0,.138,7.573c-4.087,1.29-7.162,1.448-11.689,1.534h-4.229c-4.911-.093-8.777,1.19-13.415-.426l-.011.1a2.62,2.62,0,0,0-.516-.268,2.1,2.1,0,0,0-.05-.665c-.248-1-.457-2.01-.65-3.023-.338-1.777-.585-3.589-1.057-5.337a34.4,34.4,0,0,1-1.148-4.8c-.012-.2-.019-.4-.021-.607a2.577,2.577,0,0,0-.649-1.733,2.4,2.4,0,0,0-1.635-.742,1.6,1.6,0,0,0-.261,0Q4181.47,1710.039,4181.524,1708.938Z" transform="translate(-4165.1 -1646.7)" fill="#ead6c5"/>
        <g id="Grupo_895427" data-name="Grupo 895427" transform="translate(28.869 35.358)">
          <path id="Trazado_624320" data-name="Trazado 624320" d="M4218.527,1682.256l2.759,1.67a1.13,1.13,0,0,1,.545.983l-.062,4.889-1.9-.959,1.878,2.079a12.657,12.657,0,0,1-6.553,4.126l2.722-12.522A.412.412,0,0,1,4218.527,1682.256Z" transform="translate(-4201.357 -1681.992)" fill="#c6aa95"/>
          <path id="Trazado_624321" data-name="Trazado 624321" d="M4210.822,1694.571c.1-.019-5.885-5.246-8.924-12.636a6.28,6.28,0,0,0-4.415,2.5s1.184,6.366,4.638,7.581l2.56-.512-1.823,1.759S4205.8,1695.53,4210.822,1694.571Z" transform="translate(-4197.484 -1681.935)" fill="#c6aa95"/>
          <circle id="Elipse_6312" data-name="Elipse 6312" cx="0.944" cy="0.944" r="0.944" transform="translate(12.715 12.108)" fill="#c6aa95"/>
        </g>
        <path id="Trazado_624322" data-name="Trazado 624322" d="M4219.764,1710.01a.867.867,0,1,1-.867-.866A.867.867,0,0,1,4219.764,1710.01Z" transform="translate(-4173.11 -1652.53)" fill="#c6aa95"/>
        <path id="Trazado_624323" data-name="Trazado 624323" d="M4220.872,1723.949a.866.866,0,1,1-.866-.866A.867.867,0,0,1,4220.872,1723.949Z" transform="translate(-4173.353 -1655.579)" fill="#c6aa95"/>
        <path id="Trazado_624324" data-name="Trazado 624324" d="M4188.83,1733.92c1.346.523.986-.2,2.332.324-.243-.162.106-2.851.12-3.236q.063-1.695.125-3.39.127-3.39.253-6.779c.083-2.26.177-4.52.251-6.78a14.692,14.692,0,0,0-.288-4.934c-.069-.252-.3-1.892-.3-1.892s-.269,2.088-.256,2.366C4191.28,1714.113,4189.521,1730.829,4188.83,1733.92Z" transform="translate(-4166.722 -1652.112)" fill="#c6aa95"/>
        <path id="Trazado_624325" data-name="Trazado 624325" d="M4192.33,1726.85a33.313,33.313,0,0,0,1.625-6.666,66.659,66.659,0,0,0,.366-9.886,39.992,39.992,0,0,0-.985-8.2,5.542,5.542,0,0,0-1.432-2.175c-1.912,5.409-2.713,11.214-3.716,16.864-.685,3.863-1.136,7.948.237,11.624C4189.76,1727.984,4191,1727.273,4192.33,1726.85Z" transform="translate(-4166.438 -1650.512)" fill="#c6aa95"/>
        <path id="Trazado_624326" data-name="Trazado 624326" d="M4192.684,1736.718a74.294,74.294,0,0,1,13.978-4.772,12.79,12.79,0,0,0,4.98-1.933c-2.768-.283-5.531-.454-8.277-.623-3.422-.212-6.663-.573-10.084-1.038A12.678,12.678,0,0,0,4192.684,1736.718Z" transform="translate(-4167.468 -1656.732)" fill="#c6aa95"/>
        <path id="Trazado_624327" data-name="Trazado 624327" d="M4180.843,1706.692a48.869,48.869,0,0,1,.465-7.257,17.369,17.369,0,0,1,2.467-6.79,14.417,14.417,0,0,1,2.4-2.768,2,2,0,0,0,.086.182,2.522,2.522,0,0,0,1.406,1.159q.216.084.429.176a14.335,14.335,0,0,1,2.559,1.569,10.09,10.09,0,0,1,1.375,1.423,6.738,6.738,0,0,1,.527.968,5.184,5.184,0,0,1,.156.684c0,.075,0,.15,0,.225a2.455,2.455,0,0,0,.271,1.172q-.725,1.1-1.46,2.182a84.462,84.462,0,0,1-1.952,23.227c6.392-.373,12.9-.876,19.293-1.248-.116,2.587-.348,4.956-.462,7.543-3.457.7-6.917,1.4-10.412,1.877a83.119,83.119,0,0,1-15.022.68,3.447,3.447,0,0,1-2.479-.8,3.509,3.509,0,0,1-.639-2.238c-.113-2.24-.19-4.48-.3-6.72Z" transform="translate(-4164.691 -1648.315)" fill="#ead6c5"/>
        <path id="Trazado_624328" data-name="Trazado 624328" d="M4215.25,1729.735c.084.1.27.2.354.3a7.582,7.582,0,0,0,5.336-2.319c.622-.652,1.056-1.4,1.65-2.058a8.3,8.3,0,0,0,1.534-2.455,3.687,3.687,0,0,1,.4-.826.962.962,0,0,1,.769-.433.883.883,0,0,1,.766.694,1.709,1.709,0,0,1-.151,1.079c-.147.339-.351.651-.5.987a1.343,1.343,0,0,0-.028,1.309,1.011,1.011,0,0,0,.937.374c.4-.046.763-.278,1.163-.357.6-.118,1.183-.321,1.768-.489l3.708-1.065a2.239,2.239,0,0,1,.874-.129.761.761,0,0,1,.666.508c.112.436-.335.832-.777.92l-5.506,2.238a1.125,1.125,0,0,0,.92.135,18.12,18.12,0,0,1,3.017-.715l3.129-.611c.247-.073.682.281.61.528a.962.962,0,0,1-.538.523,9.94,9.94,0,0,1-1.193.488l-4.146,1.491,4.464-.3a.568.568,0,0,1,.415.08.383.383,0,0,1,.013.5,1.037,1.037,0,0,1-.458.3,9.544,9.544,0,0,1-3.744.713l.02.212c.188.127.439.029.653-.049s.5-.11.623.083a.371.371,0,0,1-.075.429,1.061,1.061,0,0,1-.4.231,21.725,21.725,0,0,1-7.14,1.448c-.909.028-1.652.112-2.562.125a11.88,11.88,0,0,0-2.528.257,15.327,15.327,0,0,0-3.707,1.592A29.034,29.034,0,0,1,4215.25,1729.735Z" transform="translate(-4172.496 -1655.329)" fill="#ffa188"/>
        <g id="Grupo_895428" data-name="Grupo 895428" transform="translate(21.255 55.771)">
          <path id="Trazado_624329" data-name="Trazado 624329" d="M4187.738,1741.5l19.389-.986-2.4,6.549h-3.137Z" transform="translate(-4187.738 -1715.162)" fill="#06355c"/>
          <path id="Trazado_624330" data-name="Trazado 624330" d="M4255.2,1708.064l-4.845,29.181-44.467,1.691,3.918-28.388Z" transform="translate(-4191.708 -1708.064)" fill="#0b5999"/>
          <path id="Trazado_624331" data-name="Trazado 624331" d="M4250.261,1745.417l-.373,2.041-44.421,1.76.327-2.109Z" transform="translate(-4191.617 -1716.236)" fill="#1d263f"/>
          <path id="Trazado_624332" data-name="Trazado 624332" d="M4201.589,1748.42l-13.851-4.523v-2.125l14.177,4.54Z" transform="translate(-4187.738 -1715.438)" fill="#0b5999"/>
        </g>
        <g id="Grupo_895433" data-name="Grupo 895433" transform="translate(67.987 84)">
          <path id="Trazado_624333" data-name="Trazado 624333" d="M4251.327,1748.784c1.747.33,3.311-.187,3.494-1.155s-1.085-2.02-2.832-2.35-3.311.188-3.494,1.155S4249.581,1748.454,4251.327,1748.784Z" transform="translate(-4247.757 -1744.414)" fill="#ffa188"/>
          <g id="Grupo_895429" data-name="Grupo 895429" transform="translate(0 0.401)">
            <path id="Trazado_624334" data-name="Trazado 624334" d="M4249.409,1748.417l.521-2.487a.826.826,0,0,0-.637-.974h0a.825.825,0,0,0-.974.637l-.521,2.487a.825.825,0,0,0,.637.974h0A.826.826,0,0,0,4249.409,1748.417Z" transform="translate(-4247.605 -1744.762)" fill="#ffa188"/>
            <path id="Trazado_624335" data-name="Trazado 624335" d="M4249.28,1744.734a1,1,0,0,1,.772,1.182l-.521,2.488a1,1,0,0,1-1.954-.41l.521-2.487a1,1,0,0,1,1.162-.776Zm-.373,4.005a.64.64,0,0,0,.281-.409l.521-2.487a.647.647,0,0,0-1.267-.266l-.521,2.487a.648.648,0,0,0,.5.766l.012,0A.638.638,0,0,0,4248.907,1748.739Z" transform="translate(-4247.556 -1744.712)" fill="#ffa188"/>
          </g>
          <g id="Grupo_895430" data-name="Grupo 895430" transform="translate(1.63)">
            <path id="Trazado_624336" data-name="Trazado 624336" d="M4251.612,1748.747l.618-3.273a.875.875,0,0,0-.695-1.019h0a.875.875,0,0,0-1.018.7l-.618,3.273a.874.874,0,0,0,.694,1.018h0A.875.875,0,0,0,4251.612,1748.747Z" transform="translate(-4249.696 -1744.252)" fill="#ffa188"/>
            <path id="Trazado_624337" data-name="Trazado 624337" d="M4252.363,1745.379l-.646,3.423a.972.972,0,0,1-1.135.774l-.149-.028a.972.972,0,0,1-.774-1.134l.646-3.423a.971.971,0,0,1,1.134-.773l.149.028A.972.972,0,0,1,4252.363,1745.379Zm-1.715,3.852a.62.62,0,0,0,.724-.495l.646-3.422a.621.621,0,0,0-.494-.725l-.149-.028a.621.621,0,0,0-.724.495l-.647,3.423a.621.621,0,0,0,.494.724Z" transform="translate(-4249.642 -1744.199)" fill="#ffa188"/>
          </g>
          <g id="Grupo_895431" data-name="Grupo 895431" transform="translate(3.444 0.035)">
            <path id="Trazado_624338" data-name="Trazado 624338" d="M4253.939,1748.692l.6-3.169a.877.877,0,0,0-.7-1.022h0a.878.878,0,0,0-1.022.7l-.6,3.169a.879.879,0,0,0,.7,1.022h0A.877.877,0,0,0,4253.939,1748.692Z" transform="translate(-4252.017 -1744.297)" fill="#ffa188"/>
            <path id="Trazado_624339" data-name="Trazado 624339" d="M4254.672,1745.428l-.626,3.32a.977.977,0,0,1-1.139.776l-.15-.029a.975.975,0,0,1-.776-1.137l.627-3.319a.976.976,0,0,1,1.138-.777l.149.029A.975.975,0,0,1,4254.672,1745.428Zm-1.7,3.751a.624.624,0,0,0,.729-.5l.626-3.319a.624.624,0,0,0-.5-.728l-.15-.028a.623.623,0,0,0-.728.5l-.627,3.319a.624.624,0,0,0,.5.728Z" transform="translate(-4251.964 -1744.244)" fill="#ffa188"/>
          </g>
          <g id="Grupo_895432" data-name="Grupo 895432" transform="translate(5.376 0.314)">
            <path id="Trazado_624340" data-name="Trazado 624340" d="M4256.253,1748.157l.365-2.406a.8.8,0,0,0-.665-.9h0a.8.8,0,0,0-.9.666l-.366,2.405a.8.8,0,0,0,.666.9h0A.8.8,0,0,0,4256.253,1748.157Z" transform="translate(-4254.488 -1744.653)" fill="#ffa188"/>
            <path id="Trazado_624341" data-name="Trazado 624341" d="M4256.751,1745.657l-.388,2.543a.9.9,0,0,1-1.025.754l-.136-.021a.9.9,0,0,1-.754-1.026l.387-2.542a.9.9,0,0,1,1.025-.755l.137.02.032.006A.9.9,0,0,1,4256.751,1745.657Zm-1.5,2.929.137.021a.55.55,0,0,0,.626-.46l.388-2.542a.547.547,0,0,0-.461-.626l-.137-.021a.55.55,0,0,0-.625.46l-.387,2.543a.549.549,0,0,0,.44.622Z" transform="translate(-4254.437 -1744.601)" fill="#ffa188"/>
          </g>
          <path id="Trazado_624342" data-name="Trazado 624342" d="M4249.58,1746.393l-.581-.134a.091.091,0,0,1-.067-.111l.079-.315a.357.357,0,0,1,.4-.214.425.425,0,0,1,.339.3.718.718,0,0,1-.042.3l-.024.1A.09.09,0,0,1,4249.58,1746.393Z" transform="translate(-4247.856 -1744.509)" fill="#ffa188"/>
          <path id="Trazado_624343" data-name="Trazado 624343" d="M4251.916,1745.816l-.647-.135a.1.1,0,0,1-.077-.121l.081-.352a.4.4,0,0,1,.445-.245.469.469,0,0,1,.382.325.778.778,0,0,1-.042.337l-.023.113A.1.1,0,0,1,4251.916,1745.816Z" transform="translate(-4248.351 -1744.366)" fill="#ffa188"/>
          <path id="Trazado_624344" data-name="Trazado 624344" d="M4254.213,1745.968l-.687-.143a.107.107,0,0,1-.082-.129l.086-.374a.419.419,0,0,1,.471-.261.5.5,0,0,1,.405.345.827.827,0,0,1-.044.358l-.024.12A.107.107,0,0,1,4254.213,1745.968Z" transform="translate(-4248.843 -1744.387)" fill="#ffa188"/>
          <path id="Trazado_624345" data-name="Trazado 624345" d="M4256.28,1746.139l-.579-.1a.09.09,0,0,1-.073-.1l.061-.316a.351.351,0,0,1,.387-.233.418.418,0,0,1,.35.277.7.7,0,0,1-.025.3l-.017.1A.09.09,0,0,1,4256.28,1746.139Z" transform="translate(-4249.321 -1744.458)" fill="#ffa188"/>
        </g>
      </g>
      <g id="Grupo_895439" data-name="Grupo 895439" transform="translate(203.545 124.757)">
        <g id="Grupo_895437" data-name="Grupo 895437">
          <g id="Grupo_895435" data-name="Grupo 895435">
            <path id="Trazado_624346" data-name="Trazado 624346" d="M4421.742,1719.734c0,.27.013.535.034.8a10.286,10.286,0,0,0,3.629,6.82,13.871,13.871,0,0,0,8.53,3.271v.078h82.583v-.07a21.212,21.212,0,0,0,12.322-4.017,17.938,17.938,0,0,0,3.7-3.673,13.164,13.164,0,0,0,1.008-1.557c.116-.2.226-.406.33-.613a17.909,17.909,0,0,0,1.74-6.745c.941-12.983-9.258-17.261-17.144-19.389,2.685-16.364-13.2-29.05-30.838-29.05a30.035,30.035,0,0,0-20.158,7.448,25.453,25.453,0,0,0-8.63,17.417c-.059-.019-.394-.105-.9-.215a37.249,37.249,0,0,0-5.787-.921c-.159,0-.317-.008-.48-.008a21.426,21.426,0,0,0-14.678,5.547v0a15.539,15.539,0,0,0-5.13,11.344,15.047,15.047,0,0,0,.275,2.823,13.2,13.2,0,0,0-7.944,4.286l-.009.016A9.8,9.8,0,0,0,4421.742,1719.734Z" transform="translate(-4421.221 -1665.065)" fill="#a9c5db"/>
            <path id="Trazado_624347" data-name="Trazado 624347" d="M4516.892,1731.074h-83.624v-.107a14.293,14.293,0,0,1-8.351-3.37,10.831,10.831,0,0,1-3.807-7.167c-.022-.279-.035-.558-.035-.842a10.272,10.272,0,0,1,2.538-6.7h0l.046-.06a13.577,13.577,0,0,1,7.737-4.369,15.359,15.359,0,0,1-.194-2.4,16.029,16.029,0,0,1,5.131-11.567v0l.165-.159a22.062,22.062,0,0,1,15.033-5.688c.166,0,.329,0,.492.008a38.619,38.619,0,0,1,5.891.934l.311.069a25.976,25.976,0,0,1,8.757-17.152,30.6,30.6,0,0,1,20.5-7.58c10.332,0,20.071,4.206,26.055,11.251a22.187,22.187,0,0,1,5.368,17.94c7.927,2.2,18.028,6.692,17.077,19.806a18.44,18.44,0,0,1-1.792,6.941c-.111.219-.225.435-.348.644a13.5,13.5,0,0,1-1.04,1.607,18.477,18.477,0,0,1-3.8,3.779,21.6,21.6,0,0,1-12.112,4.1Zm-82.582-1.041h81.541v-.06l.51-.01a20.676,20.676,0,0,0,12.022-3.914,17.384,17.384,0,0,0,3.589-3.566,12.689,12.689,0,0,0,.97-1.5c.118-.2.222-.4.321-.6a17.426,17.426,0,0,0,1.685-6.547c.912-12.6-9.128-16.79-16.76-18.849l-.454-.123.075-.465a21.167,21.167,0,0,0-5.062-17.561c-5.789-6.816-15.232-10.884-25.261-10.884a29.561,29.561,0,0,0-19.81,7.316,24.9,24.9,0,0,0-8.458,17.061l-.042.677-.643-.216c-.045-.014-.345-.092-.844-.2a36.107,36.107,0,0,0-5.687-.91c-.158,0-.312-.007-.47-.007a21.051,21.051,0,0,0-14.2,5.291l-.122.118a15.031,15.031,0,0,0-4.966,10.964,14.5,14.5,0,0,0,.266,2.724l.1.527-.529.085a12.653,12.653,0,0,0-7.6,4.068l-.044.059a9.255,9.255,0,0,0-2.324,6.07c0,.255.012.507.032.755a9.791,9.791,0,0,0,3.453,6.469,13.328,13.328,0,0,0,8.209,3.143l.5.02Z" transform="translate(-4421.075 -1664.919)" fill="#06355c"/>
          </g>
          <g id="Grupo_895436" data-name="Grupo 895436" transform="translate(0 2.255)">
            <path id="Trazado_624348" data-name="Trazado 624348" d="M4421.742,1720.746c0,.26.011.516.029.769a10.163,10.163,0,0,0,3.271,6.583,12.042,12.042,0,0,0,7.688,3.158v.076h74.424v-.068a18.285,18.285,0,0,0,11.105-3.878,16.785,16.785,0,0,0,3.332-3.546,12.722,12.722,0,0,0,.908-1.5c.105-.192.2-.392.3-.591a18.259,18.259,0,0,0,1.568-6.512c.848-12.533-8.344-16.663-15.451-18.717,2.419-15.8-11.9-28.044-27.792-28.044a26.051,26.051,0,0,0-18.167,7.189,25.25,25.25,0,0,0-7.778,16.815c-.052-.019-.354-.1-.81-.207a31.519,31.519,0,0,0-5.216-.89c-.143,0-.286-.007-.433-.007a18.6,18.6,0,0,0-13.228,5.354v0a15.223,15.223,0,0,0-4.374,13.675,11.705,11.705,0,0,0-7.16,4.138l-.008.015A9.853,9.853,0,0,0,4421.742,1720.746Z" transform="translate(-4421.221 -1667.951)" fill="#c4d2ff"/>
            <path id="Trazado_624349" data-name="Trazado 624349" d="M4507.529,1731.706h-75.466v-.107a12.5,12.5,0,0,1-7.522-3.266,10.7,10.7,0,0,1-3.435-6.922c-.02-.269-.032-.538-.032-.811a10.331,10.331,0,0,1,2.289-6.47l.041-.058a12.123,12.123,0,0,1,6.972-4.227,15.735,15.735,0,0,1,4.449-13.473h0l.152-.156a19.218,19.218,0,0,1,13.6-5.508c.151,0,.3,0,.448.008a32.682,32.682,0,0,1,5.324.9l.212.051a25.738,25.738,0,0,1,7.894-16.528,26.607,26.607,0,0,1,18.527-7.334,30.382,30.382,0,0,1,22.9,10.115,22.789,22.789,0,0,1,5.471,18.077c7.152,2.13,16.247,6.476,15.391,19.125a18.835,18.835,0,0,1-1.615,6.7c-.1.213-.2.421-.313.623a13.215,13.215,0,0,1-.939,1.553,17.3,17.3,0,0,1-3.433,3.654,18.7,18.7,0,0,1-10.909,3.973Zm-74.424-1.041h73.383v-.057l.509-.011a17.754,17.754,0,0,0,10.792-3.764,16.284,16.284,0,0,0,3.228-3.437,12.191,12.191,0,0,0,.872-1.444c.107-.194.2-.385.29-.575a17.776,17.776,0,0,0,1.519-6.325c.823-12.155-8.209-16.2-15.075-18.182l-.439-.126.069-.452a21.766,21.766,0,0,0-5.168-17.693,29.326,29.326,0,0,0-22.109-9.751,25.563,25.563,0,0,0-17.806,7.045,24.69,24.69,0,0,0-7.619,16.468l-.04.694-.655-.233c-.04-.013-.312-.088-.752-.191a30.432,30.432,0,0,0-5.11-.875c-.14,0-.279-.008-.422-.008a18.191,18.191,0,0,0-12.746,5.09l-.111.115a14.709,14.709,0,0,0-4.231,13.216l.092.516-.516.089a11.142,11.142,0,0,0-6.81,3.91l-.04.055a9.308,9.308,0,0,0-2.094,5.862c0,.247.011.491.028.73a9.668,9.668,0,0,0,3.108,6.241,11.5,11.5,0,0,0,7.354,3.018l.5.023Z" transform="translate(-4421.075 -1667.805)" fill="#06355c"/>
          </g>
        </g>
        <circle id="Elipse_6313" data-name="Elipse 6313" cx="20.201" cy="20.201" r="20.201" transform="translate(33.936 35.697) rotate(-7.018)" fill="#0b5999"/>
        <circle id="Elipse_6314" data-name="Elipse 6314" cx="18.582" cy="18.582" r="18.582" transform="translate(30.175 53.279) rotate(-45)" fill="#0b5999"/>
        <g id="Grupo_895438" data-name="Grupo 895438" transform="translate(51.535 45.495)">
          <path id="Trazado_624350" data-name="Trazado 624350" d="M4499.627,1731.19l-11.919,6.881v-13.763Z" transform="translate(-4487.188 -1723.407)" fill="#dce4ff"/>
          <path id="Trazado_624351" data-name="Trazado 624351" d="M4487.042,1738.721v-15.567l13.481,7.784Zm1.042-13.763v11.959l10.356-5.979Z" transform="translate(-4487.042 -1723.154)" fill="#06355c"/>
        </g>
      </g>
      <g id="Grupo_895445" data-name="Grupo 895445" transform="translate(63.99 213.585)">
        <path id="Trazado_624352" data-name="Trazado 624352" d="M4298.93,1787.38l-4.044,2.335q-5.429,3.136-10.856,6.276a.541.541,0,0,1-.635.013q-7.321-4.247-14.656-8.472c-.074-.042-.144-.089-.248-.154.085-.059.147-.108.216-.148q7.391-4.269,14.78-8.541a.374.374,0,0,1,.437,0q7.375,4.267,14.756,8.526C4298.751,1787.26,4298.818,1787.308,4298.93,1787.38Z" transform="translate(-4248.139 -1778.621)" fill="#5971d4"/>
        <path id="Trazado_624353" data-name="Trazado 624353" d="M4268.444,1789.837l2.7,1.558q6.146,3.547,12.295,7.091a.441.441,0,0,1,.256.445q-.01,8.5-.005,17v.289c-.117-.058-.2-.1-.279-.141q-7.343-4.24-14.688-8.475a.483.483,0,0,1-.282-.487q.012-8.47.005-16.941Z" transform="translate(-4248.128 -1781.075)" fill="#0b5999"/>
        <path id="Trazado_624354" data-name="Trazado 624354" d="M4303.211,1789.849v.326q0,8.47.005,16.941a.484.484,0,0,1-.282.487q-7.335,4.224-14.664,8.46c-.082.047-.165.091-.285.156-.007-.116-.017-.2-.017-.292q0-8.5-.007-17a.44.44,0,0,1,.256-.445q7.373-4.245,14.738-8.5C4303.021,1789.945,4303.088,1789.913,4303.211,1789.849Z" transform="translate(-4252.399 -1781.078)" fill="#465ab3"/>
        <path id="Trazado_624355" data-name="Trazado 624355" d="M4272.93,1830.417l-4.043,2.336q-5.429,3.135-10.856,6.276a.541.541,0,0,1-.635.013q-7.321-4.246-14.656-8.472c-.073-.042-.144-.089-.248-.154.085-.059.147-.108.216-.148q7.391-4.269,14.78-8.541a.375.375,0,0,1,.436,0q7.375,4.268,14.756,8.526C4272.752,1830.3,4272.819,1830.345,4272.93,1830.417Z" transform="translate(-4242.452 -1788.037)" fill="#5971d4"/>
        <path id="Trazado_624356" data-name="Trazado 624356" d="M4242.445,1832.874l2.7,1.558q6.146,3.548,12.295,7.091a.441.441,0,0,1,.256.446q-.01,8.5-.005,17v.289c-.117-.058-.2-.1-.279-.141q-7.343-4.239-14.688-8.474a.485.485,0,0,1-.282-.488q.012-8.47.005-16.94Z" transform="translate(-4242.44 -1790.49)" fill="#0b5999"/>
        <path id="Trazado_624357" data-name="Trazado 624357" d="M4277.212,1832.887v.326q0,8.47.005,16.94a.484.484,0,0,1-.282.488q-7.335,4.223-14.664,8.46c-.082.047-.165.09-.285.156-.007-.115-.017-.2-.017-.291q0-8.5-.007-17a.441.441,0,0,1,.256-.446q7.373-4.244,14.737-8.5C4277.022,1832.983,4277.089,1832.95,4277.212,1832.887Z" transform="translate(-4246.711 -1790.493)" fill="#465ab3"/>
        <g id="Grupo_895440" data-name="Grupo 895440" transform="translate(39.627 33.622)">
          <path id="Trazado_624358" data-name="Trazado 624358" d="M4323.653,1830.417l-4.043,2.336q-5.429,3.135-10.856,6.276a.542.542,0,0,1-.636.013q-7.322-4.246-14.655-8.472c-.074-.042-.144-.089-.248-.154.085-.059.147-.108.217-.148q7.39-4.269,14.78-8.541a.375.375,0,0,1,.436,0q7.375,4.268,14.756,8.526C4323.476,1830.3,4323.542,1830.345,4323.653,1830.417Z" transform="translate(-4293.174 -1821.659)" fill="#5971d4"/>
          <path id="Trazado_624359" data-name="Trazado 624359" d="M4293.168,1832.874l2.7,1.558q6.146,3.548,12.294,7.091a.442.442,0,0,1,.257.446q-.01,8.5-.005,17v.289c-.117-.058-.2-.1-.279-.141q-7.345-4.239-14.689-8.474a.485.485,0,0,1-.281-.488q.011-8.47.005-16.94Z" transform="translate(-4293.163 -1824.112)" fill="#0b5999"/>
          <path id="Trazado_624360" data-name="Trazado 624360" d="M4327.935,1832.887v.326q0,8.47.005,16.94a.484.484,0,0,1-.282.488q-7.336,4.223-14.664,8.46c-.082.047-.165.09-.285.156-.007-.115-.017-.2-.017-.291q0-8.5-.006-17a.44.44,0,0,1,.257-.446q7.372-4.244,14.737-8.5C4327.745,1832.983,4327.812,1832.95,4327.935,1832.887Z" transform="translate(-4297.434 -1824.115)" fill="#465ab3"/>
        </g>
        <g id="Grupo_895441" data-name="Grupo 895441" transform="translate(79.253 33.622)">
          <path id="Trazado_624361" data-name="Trazado 624361" d="M4374.376,1830.417l-4.043,2.336q-5.43,3.135-10.856,6.276a.542.542,0,0,1-.636.013q-7.321-4.246-14.655-8.472c-.073-.042-.144-.089-.248-.154.085-.059.148-.108.216-.148q7.391-4.269,14.78-8.541a.375.375,0,0,1,.436,0q7.375,4.268,14.756,8.526C4374.2,1830.3,4374.265,1830.345,4374.376,1830.417Z" transform="translate(-4343.897 -1821.659)" fill="#5971d4"/>
          <path id="Trazado_624362" data-name="Trazado 624362" d="M4343.892,1832.874l2.7,1.558q6.144,3.548,12.294,7.091a.443.443,0,0,1,.256.446q-.01,8.5-.006,17v.289c-.117-.058-.2-.1-.279-.141q-7.342-4.239-14.688-8.474a.485.485,0,0,1-.281-.488q.012-8.47.005-16.94Z" transform="translate(-4343.886 -1824.112)" fill="#0b5999"/>
          <path id="Trazado_624363" data-name="Trazado 624363" d="M4378.658,1832.887v.326q0,8.47.005,16.94a.485.485,0,0,1-.282.488q-7.336,4.223-14.664,8.46c-.082.047-.166.09-.285.156-.007-.115-.017-.2-.017-.291q0-8.5-.006-17a.441.441,0,0,1,.256-.446q7.373-4.244,14.738-8.5C4378.468,1832.983,4378.535,1832.95,4378.658,1832.887Z" transform="translate(-4348.157 -1824.115)" fill="#465ab3"/>
        </g>
        <g id="Grupo_895442" data-name="Grupo 895442" transform="translate(118.879 33.622)">
          <path id="Trazado_624364" data-name="Trazado 624364" d="M4425.1,1830.417l-4.044,2.336q-5.429,3.135-10.856,6.276a.543.543,0,0,1-.636.013q-7.321-4.246-14.655-8.472c-.074-.042-.144-.089-.248-.154.085-.059.148-.108.216-.148q7.392-4.269,14.78-8.541a.375.375,0,0,1,.437,0q7.375,4.268,14.757,8.526C4424.921,1830.3,4424.988,1830.345,4425.1,1830.417Z" transform="translate(-4394.621 -1821.659)" fill="#5971d4"/>
          <path id="Trazado_624365" data-name="Trazado 624365" d="M4394.615,1832.874l2.7,1.558q6.146,3.548,12.295,7.091a.443.443,0,0,1,.256.446q-.01,8.5-.006,17v.289c-.117-.058-.2-.1-.278-.141q-7.345-4.239-14.688-8.474a.485.485,0,0,1-.282-.488q.012-8.47.006-16.94Z" transform="translate(-4394.609 -1824.112)" fill="#0b5999"/>
          <path id="Trazado_624366" data-name="Trazado 624366" d="M4429.38,1832.887v.326q0,8.47.006,16.94a.484.484,0,0,1-.282.488q-7.335,4.223-14.664,8.46c-.081.047-.165.09-.285.156-.007-.115-.017-.2-.017-.291q0-8.5-.007-17a.443.443,0,0,1,.257-.446q7.374-4.244,14.738-8.5C4429.191,1832.983,4429.258,1832.95,4429.38,1832.887Z" transform="translate(-4398.88 -1824.115)" fill="#465ab3"/>
        </g>
        <g id="Grupo_895443" data-name="Grupo 895443" transform="translate(60.194)">
          <path id="Trazado_624367" data-name="Trazado 624367" d="M4349.979,1787.38l-4.043,2.335q-5.429,3.136-10.855,6.276a.543.543,0,0,1-.636.013q-7.322-4.247-14.656-8.472c-.072-.042-.143-.089-.248-.154.086-.059.148-.108.216-.148q7.391-4.269,14.781-8.541a.373.373,0,0,1,.436,0q7.375,4.267,14.757,8.526C4349.8,1787.26,4349.869,1787.308,4349.979,1787.38Z" transform="translate(-4319.501 -1778.621)" fill="#5971d4"/>
          <path id="Trazado_624368" data-name="Trazado 624368" d="M4319.5,1789.837l2.7,1.558q6.146,3.547,12.294,7.091a.443.443,0,0,1,.257.445q-.012,8.5-.007,17v.289c-.116-.058-.2-.1-.279-.141q-7.343-4.24-14.687-8.475a.48.48,0,0,1-.281-.487q.01-8.47.005-16.941Z" transform="translate(-4319.49 -1781.075)" fill="#0b5999"/>
          <path id="Trazado_624369" data-name="Trazado 624369" d="M4354.261,1789.849v.326q0,8.47.006,16.941a.483.483,0,0,1-.283.487q-7.334,4.224-14.662,8.46c-.082.047-.166.091-.286.156-.007-.116-.018-.2-.018-.292q0-8.5-.006-17a.442.442,0,0,1,.257-.445q7.372-4.245,14.737-8.5C4354.071,1789.945,4354.139,1789.913,4354.261,1789.849Z" transform="translate(-4323.761 -1781.078)" fill="#465ab3"/>
        </g>
        <g id="Grupo_895444" data-name="Grupo 895444" transform="translate(100.076)">
          <path id="Trazado_624370" data-name="Trazado 624370" d="M4401.031,1787.38c-1.38.8-2.712,1.566-4.044,2.335q-5.429,3.136-10.856,6.276a.542.542,0,0,1-.636.013q-7.321-4.247-14.655-8.472c-.074-.042-.144-.089-.248-.154.085-.059.148-.108.217-.148q7.39-4.269,14.78-8.541a.372.372,0,0,1,.436,0q7.375,4.267,14.757,8.526C4400.853,1787.26,4400.919,1787.308,4401.031,1787.38Z" transform="translate(-4370.551 -1778.621)" fill="#5971d4"/>
          <path id="Trazado_624371" data-name="Trazado 624371" d="M4370.545,1789.837l2.7,1.558q6.145,3.547,12.294,7.091a.442.442,0,0,1,.256.445q-.01,8.5-.005,17v.289c-.117-.058-.2-.1-.279-.141q-7.343-4.24-14.688-8.475a.483.483,0,0,1-.282-.487q.011-8.47.005-16.941Z" transform="translate(-4370.54 -1781.075)" fill="#0b5999"/>
          <path id="Trazado_624372" data-name="Trazado 624372" d="M4405.312,1789.849v.326q0,8.47.005,16.941a.484.484,0,0,1-.282.487q-7.336,4.224-14.664,8.46c-.082.047-.165.091-.286.156-.006-.116-.017-.2-.017-.292q0-8.5-.006-17a.44.44,0,0,1,.257-.445q7.372-4.245,14.737-8.5C4405.122,1789.945,4405.189,1789.913,4405.312,1789.849Z" transform="translate(-4374.811 -1781.078)" fill="#465ab3"/>
        </g>
      </g>
      <g id="Grupo_895446" data-name="Grupo 895446" transform="translate(304.067 202.357)">
        <rect id="Rectángulo_302539" data-name="Rectángulo 302539" width="99.835" height="72.012" rx="27.086" transform="translate(0.521 0.521)" fill="#ef3c79"/>
        <path id="Trazado_624373" data-name="Trazado 624373" d="M4635.994,1837.3h-71.621a14.645,14.645,0,0,1-14.628-14.628v-43.8a14.645,14.645,0,0,1,14.628-14.628h71.621a14.644,14.644,0,0,1,14.628,14.628v43.8A14.644,14.644,0,0,1,4635.994,1837.3Zm-71.621-72.012a13.6,13.6,0,0,0-13.586,13.586v43.8a13.6,13.6,0,0,0,13.586,13.586h71.621a13.6,13.6,0,0,0,13.587-13.586v-43.8a13.6,13.6,0,0,0-13.587-13.586Z" transform="translate(-4549.745 -1764.25)" fill="#06355c"/>
      </g>
      <g id="Grupo_895451" data-name="Grupo 895451" transform="translate(328.195 212.573)">
        <g id="Grupo_895447" data-name="Grupo 895447" transform="translate(0)">
          <path id="Trazado_624374" data-name="Trazado 624374" d="M4632.876,1803.783a25.79,25.79,0,1,1-7.994-18.666A25.714,25.714,0,0,1,4632.876,1803.783Z" transform="translate(-4580.776 -1777.472)" fill="#c4d2ff"/>
          <path id="Trazado_624375" data-name="Trazado 624375" d="M4606.94,1829.949a26.313,26.313,0,1,1,18.221-7.333A26.188,26.188,0,0,1,4606.94,1829.949Zm0-51.581a25.267,25.267,0,1,0,17.437,6.979A25.161,25.161,0,0,0,4606.94,1778.368Z" transform="translate(-4580.63 -1777.326)" fill="#1d263f"/>
        </g>
        <g id="Grupo_895448" data-name="Grupo 895448" transform="translate(7.783)">
          <path id="Trazado_624376" data-name="Trazado 624376" d="M4627.121,1785.117a24.262,24.262,0,0,1-35.593,0,25.79,25.79,0,0,1,35.593,0Z" transform="translate(-4590.797 -1777.472)" fill="#4d64c2"/>
          <path id="Trazado_624377" data-name="Trazado 624377" d="M4609.12,1793.264a24.86,24.86,0,0,1-18.179-7.939l-.349-.376.372-.354a26.31,26.31,0,0,1,36.312,0l.371.354-.349.376A24.86,24.86,0,0,1,4609.12,1793.264Zm-17.058-8.27a23.741,23.741,0,0,0,34.117,0,25.272,25.272,0,0,0-34.117,0Z" transform="translate(-4590.592 -1777.326)" fill="#1d263f"/>
        </g>
        <g id="Grupo_895449" data-name="Grupo 895449" transform="translate(7.721 36.554)">
          <path id="Trazado_624378" data-name="Trazado 624378" d="M4627.167,1832.623a25.788,25.788,0,0,1-35.723,0,24.265,24.265,0,0,1,35.723,0Z" transform="translate(-4590.717 -1824.262)" fill="#4d64c2"/>
          <path id="Trazado_624379" data-name="Trazado 624379" d="M4609.1,1840.185a26.186,26.186,0,0,1-18.222-7.333l-.368-.353.344-.375a24.788,24.788,0,0,1,36.49,0l.344.375-.368.353A26.185,26.185,0,0,1,4609.1,1840.185Zm-17.125-7.731a25.267,25.267,0,0,0,34.251,0,23.745,23.745,0,0,0-34.251,0Z" transform="translate(-4590.513 -1824.116)" fill="#1d263f"/>
        </g>
        <g id="Grupo_895450" data-name="Grupo 895450" transform="translate(0.521 25.808)">
          <line id="Línea_898" data-name="Línea 898" y1="0.052" x2="51.579" transform="translate(0 0.495)" fill="#d3e4f4"/>
          <rect id="Rectángulo_302540" data-name="Rectángulo 302540" width="51.58" height="1.042" fill="#1d263f"/>
        </g>
        <path id="Trazado_624380" data-name="Trazado 624380" d="M4610.247,1829.912c-8,0-14.5-11.788-14.5-26.277s6.506-26.276,14.5-26.276,14.5,11.788,14.5,26.276S4618.243,1829.912,4610.247,1829.912Zm0-51.511c-7.423,0-13.462,11.32-13.462,25.234s6.039,25.235,13.462,25.235,13.46-11.32,13.46-25.235S4617.669,1778.4,4610.247,1778.4Z" transform="translate(-4583.937 -1777.333)" fill="#1d263f"/>
      </g>
      <path id="Trazado_624381" data-name="Trazado 624381" d="M4622.543,1661.818h46.092a3.543,3.543,0,0,1,3.542,3.543v40.608a3.543,3.543,0,0,1-3.542,3.543h-24.267a3.541,3.541,0,0,0-2.607,1.144l-10.561,11.483v-9.084a3.542,3.542,0,0,0-3.542-3.542h-5.114a3.543,3.543,0,0,1-3.543-3.543v-40.608A3.543,3.543,0,0,1,4622.543,1661.818Z" transform="translate(-4260.829 -1539.484)" fill="#4d64c2"/>
      <rect id="Rectángulo_302541" data-name="Rectángulo 302541" width="56.08" height="38.895" transform="translate(235.133 217.655)" fill="#5971d4"/>
      <g id="Grupo_895452" data-name="Grupo 895452" transform="translate(244.015 225.481)">
        <path id="Trazado_624382" data-name="Trazado 624382" d="M4487.275,1813.661l-14.4-6.261v-3.468l14.4-6.232v4.083l-10.043,3.84,10.043,3.983Z" transform="translate(-4472.877 -1794.692)" fill="#fff"/>
        <path id="Trazado_624383" data-name="Trazado 624383" d="M4493.012,1815.568l5.2-21.719h3.022l-5.257,21.719Z" transform="translate(-4477.282 -1793.849)" fill="#fff"/>
        <path id="Trazado_624384" data-name="Trazado 624384" d="M4505.245,1813.683v-4.054l10.058-3.954-10.058-3.912v-4.026l14.412,6.232v3.439Z" transform="translate(-4479.958 -1794.7)" fill="#fff"/>
      </g>
      <g id="Grupo_895453" data-name="Grupo 895453" transform="translate(371.862 134.324)">
        <path id="Trazado_624385" data-name="Trazado 624385" d="M4664.271,1690.82a2.557,2.557,0,0,0-.81,1.4,13.222,13.222,0,0,0-.2,2.912,13.765,13.765,0,0,1-.207,2.821,3.082,3.082,0,0,1-.81,1.5,3.428,3.428,0,0,1-1.481.872,9.324,9.324,0,0,1-2.522.262h-.646v-2.925a5.528,5.528,0,0,0,1.712-.164,1.223,1.223,0,0,0,.591-.481,2.306,2.306,0,0,0,.194-1.121q0-.561.086-2.583a9.167,9.167,0,0,1,.316-2.12,3.887,3.887,0,0,1,.7-1.347,4.267,4.267,0,0,1,1.176-.969,5.111,5.111,0,0,1-1.212-1.012,3.986,3.986,0,0,1-.652-1.237,7.323,7.323,0,0,1-.317-1.956q-.11-2.145-.109-2.912a2.255,2.255,0,0,0-.183-1.066,1.1,1.1,0,0,0-.567-.463,5.986,5.986,0,0,0-1.737-.152v-2.912h.646a8.982,8.982,0,0,1,2.34.22,3.959,3.959,0,0,1,1.669.9,3.027,3.027,0,0,1,.792,1.5,16.6,16.6,0,0,1,.22,3.3,14.232,14.232,0,0,0,.1,2.035,3.359,3.359,0,0,0,.451,1.3,1.942,1.942,0,0,0,.779.738,3.64,3.64,0,0,0,1.341.268v2.925A2.974,2.974,0,0,0,4664.271,1690.82Z" transform="translate(-4641.135 -1677.166)" fill="#fff"/>
        <path id="Trazado_624386" data-name="Trazado 624386" d="M4636.525,1687.414a3.009,3.009,0,0,0,1.669-.481,2.539,2.539,0,0,0,.816-1.4,14.214,14.214,0,0,0,.183-2.912,13.456,13.456,0,0,1,.213-2.821,3.187,3.187,0,0,1,.811-1.511,3.3,3.3,0,0,1,1.475-.871,9.491,9.491,0,0,1,2.522-.256h.646v2.912a5.841,5.841,0,0,0-1.774.164,1.017,1.017,0,0,0-.547.47,3.243,3.243,0,0,0-.166,1.219,36.4,36.4,0,0,1-.194,3.753,4.868,4.868,0,0,1-.78,2.047,5,5,0,0,1-1.316,1.145,4.227,4.227,0,0,1,1.139.932,4.122,4.122,0,0,1,.713,1.292,7.377,7.377,0,0,1,.329,2.029q.1,2.1.1,2.839a2.183,2.183,0,0,0,.2,1.055,1.186,1.186,0,0,0,.592.475,5.523,5.523,0,0,0,1.706.164v2.925h-.646a9.031,9.031,0,0,1-2.34-.219,3.962,3.962,0,0,1-1.682-.9,3,3,0,0,1-.786-1.505,17.276,17.276,0,0,1-.213-3.3,14.128,14.128,0,0,0-.1-2.023,3.6,3.6,0,0,0-.456-1.3,1.915,1.915,0,0,0-.774-.737,3.633,3.633,0,0,0-1.34-.268Z" transform="translate(-4636.525 -1677.166)" fill="#fff"/>
      </g>
    </g>
  </g>
</svg>
