<svg xmlns="http://www.w3.org/2000/svg" xmlns:xlink="http://www.w3.org/1999/xlink" width="505" height="484" viewBox="0 0 505 484">
  <defs>
    <clipPath id="clip-path">
      <rect id="Rectángulo_293125" data-name="Rectángulo 293125" width="316" height="190" transform="translate(448.062 1756)" fill="#21cbae"/>
    </clipPath>
  </defs>
  <g id="Grupo_895483" data-name="Grupo 895483" transform="translate(-179.666 -2145)">
    <circle id="Elipse_6315" data-name="Elipse 6315" cx="242" cy="242" r="242" transform="translate(200.666 2145)" fill="#0b5999"/>
    <g id="Grupo_879304" data-name="Grupo 879304" transform="translate(-267.335 663.895)">
      <g id="Grupo_875928" data-name="Grupo 875928" transform="translate(707.001 1515.041)">
        <path id="Trazado_29" data-name="Trazado 29" d="M79.238,317.879-108.751,505.867a16.423,16.423,0,0,1-23.228,0h0a16.425,16.425,0,0,1,0-23.228L56.009,294.651a16.425,16.425,0,0,1,23.228,0h0A16.425,16.425,0,0,1,79.238,317.879Z" transform="translate(136.79 -289.84)" fill="#21cbae"/>
        <path id="Trazado_30" data-name="Trazado 30" d="M72.877,409.564-70.612,553.053a12.537,12.537,0,0,1-17.73,0h0a12.536,12.536,0,0,1,0-17.731L55.147,391.834a12.538,12.538,0,0,1,17.731,0h0A12.538,12.538,0,0,1,72.877,409.564Z" transform="translate(131.705 -301.005)" fill="#21cbae"/>
      </g>
      <g id="Enmascarar_grupo_56" data-name="Enmascarar grupo 56" transform="translate(2393.001 1196.839) rotate(90)" clip-path="url(#clip-path)">
        <path id="Trazado_600121" data-name="Trazado 600121" d="M205.848,383.022c-67.252,0-121.77,56.06-121.77,125.214S138.6,633.451,205.848,633.451s121.77-56.06,121.77-125.214S273.1,383.022,205.848,383.022Zm0,225.4c-53.809,0-97.43-44.855-97.43-100.186s43.621-100.186,97.43-100.186,97.43,44.855,97.43,100.186S259.657,608.422,205.848,608.422Z" transform="translate(377.538 1437.957)" fill="#21cbae"/>
      </g>
    </g>
    <circle id="Elipse_6316" data-name="Elipse 6316" cx="221" cy="221" r="221" transform="translate(221.666 2166)" fill="#fff"/>
    <g id="Grupo_895482" data-name="Grupo 895482" transform="translate(-258.201 430.095)">
      <g id="Grupo_895471" data-name="Grupo 895471" transform="translate(543.201 1982.743)">
        <path id="Trazado_624395" data-name="Trazado 624395" d="M732.738,1796.028H653.155a101.65,101.65,0,0,0-101.093,91.013l-7.36,69.944H841.2l-7.36-69.944A101.655,101.655,0,0,0,732.738,1796.028Z" transform="translate(-536.232 -1787.556)" fill="#dae6f0"/>
        <path id="Trazado_624396" data-name="Trazado 624396" d="M848.166,1972.426H551.672a8.464,8.464,0,0,1-8.421-9.358l7.36-69.937a109.888,109.888,0,0,1,109.514-98.6h79.589a109.878,109.878,0,0,1,109.508,98.6l7.366,69.937a8.472,8.472,0,0,1-8.421,9.358Zm-287.091-16.944H838.757l-6.378-60.584a92.987,92.987,0,0,0-92.666-83.433H660.124a92.993,92.993,0,0,0-92.672,83.433Z" transform="translate(-543.201 -1794.527)" fill="#ef3c79"/>
      </g>
      <g id="Grupo_895476" data-name="Grupo 895476" transform="translate(616.38 1781)">
        <g id="Grupo_895475" data-name="Grupo 895475">
          <g id="Grupo_895472" data-name="Grupo 895472" transform="translate(0 16.956)">
            <path id="Trazado_624397" data-name="Trazado 624397" d="M593.592,1807.837a8.42,8.42,0,0,1-4.69-1.429l-25.416-16.938a8.468,8.468,0,0,1,0-14.1l25.416-16.939a8.47,8.47,0,0,1,9.4,14.094l-14.844,9.895,14.844,9.894a8.474,8.474,0,0,1-4.707,15.522Z" transform="translate(-559.71 -1757.004)" fill="#06355c"/>
          </g>
          <g id="Grupo_895473" data-name="Grupo 895473" transform="translate(110.129 16.956)">
            <path id="Trazado_624398" data-name="Trazado 624398" d="M587.705,1807.837a8.476,8.476,0,0,1-4.713-15.522l14.844-9.894-14.844-9.895a8.471,8.471,0,0,1,9.4-14.094l25.41,16.939a8.469,8.469,0,0,1,0,14.1l-25.41,16.938A8.449,8.449,0,0,1,587.705,1807.837Z" transform="translate(-579.222 -1757.004)" fill="#06355c"/>
          </g>
          <g id="Grupo_895474" data-name="Grupo 895474" transform="translate(58.572)">
            <path id="Trazado_624399" data-name="Trazado 624399" d="M578.568,1838.732a8.353,8.353,0,0,1-2.061-.26,8.464,8.464,0,0,1-6.163-10.266l16.944-67.769a8.467,8.467,0,1,1,16.43,4.1l-16.944,67.77A8.461,8.461,0,0,1,578.568,1838.732Z" transform="translate(-570.088 -1754)" fill="#06355c"/>
          </g>
        </g>
      </g>
      <g id="Grupo_895477" data-name="Grupo 895477" transform="translate(636.38 1872.614)">
        <path id="Trazado_624400" data-name="Trazado 624400" d="M662.868,1835.818c0,32.747-22.757,59.3-50.826,59.3s-50.831-26.55-50.831-59.3,22.757-59.3,50.831-59.3S662.868,1803.07,662.868,1835.818Z" transform="translate(-552.739 -1768.049)" fill="#fff"/>
        <path id="Trazado_624401" data-name="Trazado 624401" d="M619.013,1910.554c-32.7,0-59.3-30.4-59.3-67.77s26.607-67.77,59.3-67.77,59.3,30.405,59.3,67.77S651.71,1910.554,619.013,1910.554Zm0-118.6c-23.356,0-42.36,22.8-42.36,50.827s19,50.831,42.36,50.831,42.354-22.8,42.354-50.831S642.369,1791.958,619.013,1791.958Z" transform="translate(-559.71 -1775.015)" fill="#ef3c79"/>
      </g>
      <g id="Grupo_895478" data-name="Grupo 895478" transform="translate(577.928 1982.743)">
        <path id="Trazado_624402" data-name="Trazado 624402" d="M752.435,1796.028H567.8a16.936,16.936,0,0,0-16.922,17.785l7.58,109.283H761.776l7.58-109.283A16.936,16.936,0,0,0,752.435,1796.028Z" transform="translate(-542.364 -1787.556)" fill="#b1ede3"/>
        <path id="Trazado_624403" data-name="Trazado 624403" d="M768.766,1938.538H565.451a8.557,8.557,0,0,1-8.466-7.885l-7.552-108.769c-.079-1.016-.079-1.7-.079-1.947a25.431,25.431,0,0,1,25.41-25.411H759.442a25.474,25.474,0,0,1,25.41,25.411v.593l-.079.846-1.1,15.928v.164a8.493,8.493,0,0,1-16.944-1.185l1.18-15.923v-.423a8.493,8.493,0,0,0-8.466-8.473H574.764a8.481,8.481,0,0,0-8.466,8.393v.328l7.033,101.409H760.8l1.276-17.7a8.633,8.633,0,0,1,9.065-7.885,8.48,8.48,0,0,1,5.763,2.878,8.318,8.318,0,0,1,2.117,6.186l-1.784,25.579A8.565,8.565,0,0,1,768.766,1938.538Zm4.058-59.382c-.164,0-.339-.091-.5-.091a7.424,7.424,0,1,1,.5.091Z" transform="translate(-549.354 -1794.527)" fill="#06355c"/>
      </g>
      <g id="Grupo_895479" data-name="Grupo 895479" transform="translate(678.739 2050.513)">
        <path id="Trazado_624404" data-name="Trazado 624404" d="M592.631,1823.478H575.687a8.472,8.472,0,0,1,0-16.943h16.944a8.472,8.472,0,0,1,0,16.943Z" transform="translate(-567.215 -1806.535)" fill="#06355c"/>
      </g>
      <g id="Grupo_895480" data-name="Grupo 895480" transform="translate(831.222 2109.811)">
        <path id="Trazado_624405" data-name="Trazado 624405" d="M621.148,1818.541h0a25.415,25.415,0,0,0-25.416,25.416v8.473h50.831v-8.473A25.415,25.415,0,0,0,621.148,1818.541Z" transform="translate(-587.26 -1810.069)" fill="#fff"/>
        <path id="Trazado_624406" data-name="Trazado 624406" d="M653.534,1867.872H602.7a8.472,8.472,0,0,1-8.472-8.472v-8.473a33.885,33.885,0,1,1,67.769,0v8.473A8.467,8.467,0,0,1,653.534,1867.872Zm-42.359-16.944h33.888a16.944,16.944,0,1,0-33.888,0Z" transform="translate(-594.231 -1817.04)" fill="#ef3c79"/>
      </g>
      <g id="Grupo_895481" data-name="Grupo 895481" transform="translate(577.082 2109.811)">
        <path id="Trazado_624407" data-name="Trazado 624407" d="M770.953,1818.541H550.706a33.883,33.883,0,0,0,33.882,33.889H737.071a33.883,33.883,0,0,0,33.882-33.889Z" transform="translate(-542.228 -1810.069)" fill="#b1ede3"/>
        <path id="Trazado_624408" data-name="Trazado 624408" d="M760.99,1867.872H574.62a25.444,25.444,0,0,1-25.416-25.416v-16.944a8.466,8.466,0,0,1,8.478-8.472H777.929a8.469,8.469,0,0,1,8.477,8.472v16.944A25.444,25.444,0,0,1,760.99,1867.872Zm-194.843-33.889v8.473a8.479,8.479,0,0,0,8.472,8.472H760.99a8.479,8.479,0,0,0,8.472-8.472v-8.473Z" transform="translate(-549.204 -1817.04)" fill="#06355c"/>
      </g>
    </g>
  </g>
</svg>
