<svg xmlns="http://www.w3.org/2000/svg" xmlns:xlink="http://www.w3.org/1999/xlink" width="170.578" height="170.578" viewBox="0 0 170.578 170.578">
  <defs>
    <filter id="Trazado_624420" x="0" y="0" width="170.578" height="170.578" filterUnits="userSpaceOnUse">
      <feOffset dy="3" input="SourceAlpha"/>
      <feGaussianBlur stdDeviation="3" result="blur"/>
      <feFlood flood-opacity="0.161"/>
      <feComposite operator="in" in2="blur"/>
      <feComposite in="SourceGraphic"/>
    </filter>
  </defs>
  <g id="Grupo_895821" data-name="Grupo 895821" transform="translate(2199 6376)">
    <g id="Grupo_894676" data-name="Grupo 894676" transform="translate(-2180.079 -6369.346)">
      <path id="Trazado_29" data-name="Trazado 29" d="M.312,307.635-119,426.942a10.423,10.423,0,0,1-14.742,0h0a10.424,10.424,0,0,1,0-14.742L-14.43,292.893a10.424,10.424,0,0,1,14.742,0h0A10.424,10.424,0,0,1,.312,307.635Z" transform="translate(136.79 -289.84)" fill="none" stroke="#8f9294" stroke-miterlimit="10" stroke-width="2"/>
      <path id="Trazado_30" data-name="Trazado 30" d="M12.634,401.745-78.431,492.81a7.957,7.957,0,0,1-11.252,0h0a7.956,7.956,0,0,1,0-11.253L1.382,390.492a7.957,7.957,0,0,1,11.253,0h0A7.957,7.957,0,0,1,12.634,401.745Z" transform="translate(117.204 -332.848)" fill="none" stroke="#8f9294" stroke-miterlimit="10" stroke-width="2"/>
    </g>
    <g transform="matrix(1, 0, 0, 1, -2199, -6376)" filter="url(#Trazado_624420)">
      <g id="Trazado_624420-2" data-name="Trazado 624420" transform="translate(9 6)" fill="#fff">
        <path d="M 76.28910827636719 150.0782165527344 C 66.32654571533203 150.0782165527344 56.66329574584961 148.1275939941406 47.56781768798828 144.280517578125 C 43.196044921875 142.4314270019531 38.97929763793945 140.1426086425781 35.03464889526367 137.4776763916016 C 31.12685775756836 134.8376312255859 27.45206642150879 131.8056030273438 24.11233711242676 128.4658813476562 C 20.77260780334473 125.1261520385742 17.74058723449707 121.4513549804688 15.10054588317871 117.5435638427734 C 12.43560791015625 113.5989227294922 10.14679622650146 109.3821716308594 8.297691345214844 105.0103988647461 C 4.450629234313965 95.9149169921875 2.500004053115845 86.25167083740234 2.500004053115845 76.28910827636719 C 2.500004053115845 66.32654571533203 4.450629234313965 56.66329574584961 8.297691345214844 47.56781768798828 C 10.14679622650146 43.196044921875 12.43560791015625 38.97929763793945 15.10054588317871 35.03464889526367 C 17.74058723449707 31.12685775756836 20.77260780334473 27.45206642150879 24.11233711242676 24.11233711242676 C 27.45206642150879 20.77260780334473 31.12685775756836 17.74058723449707 35.03464889526367 15.10054588317871 C 38.97929763793945 12.43560791015625 43.196044921875 10.14679622650146 47.56781768798828 8.297691345214844 C 56.66329574584961 4.450629234313965 66.32654571533203 2.500004053115845 76.28910827636719 2.500004053115845 C 86.25167083740234 2.500004053115845 95.9149169921875 4.450629234313965 105.0103988647461 8.297691345214844 C 109.3821716308594 10.14679622650146 113.5989227294922 12.43560791015625 117.5435638427734 15.10054588317871 C 121.4513549804688 17.74058723449707 125.1261520385742 20.77260780334473 128.4658813476562 24.11233711242676 C 131.8056030273438 27.45206642150879 134.8376312255859 31.12685775756836 137.4776763916016 35.03464889526367 C 140.1426086425781 38.97929763793945 142.4314270019531 43.196044921875 144.280517578125 47.56781768798828 C 148.1275939941406 56.66329574584961 150.0782165527344 66.32654571533203 150.0782165527344 76.28910827636719 C 150.0782165527344 86.25167083740234 148.1275939941406 95.9149169921875 144.280517578125 105.0103988647461 C 142.4314270019531 109.3821716308594 140.1426086425781 113.5989227294922 137.4776763916016 117.5435638427734 C 134.8376312255859 121.4513549804688 131.8056030273438 125.1261520385742 128.4658813476562 128.4658813476562 C 125.1261520385742 131.8056030273438 121.4513549804688 134.8376312255859 117.5435638427734 137.4776763916016 C 113.5989227294922 140.1426086425781 109.3821716308594 142.4314270019531 105.0103988647461 144.280517578125 C 95.9149169921875 148.1275939941406 86.25167083740234 150.0782165527344 76.28910827636719 150.0782165527344 Z" stroke="none"/>
        <path d="M 76.28910827636719 4.999984741210938 C 66.66294097900391 4.999984741210938 57.32736968994141 6.884185791015625 48.54170227050781 10.60017395019531 C 44.31861114501953 12.38641357421875 40.24503326416016 14.59751892089844 36.43418121337891 17.17208862304688 C 32.65822601318359 19.72308349609375 29.10732269287109 22.65287780761719 25.88008117675781 25.88008117675781 C 22.65287780761719 29.10732269287109 19.72308349609375 32.65822601318359 17.17208862304688 36.43418121337891 C 14.59751892089844 40.24503326416016 12.38641357421875 44.31861114501953 10.60017395019531 48.54170227050781 C 6.884185791015625 57.32736968994141 4.999984741210938 66.66294097900391 4.999984741210938 76.28910827636719 C 4.999984741210938 85.91527557373047 6.884185791015625 95.25084686279297 10.60017395019531 104.0365142822266 C 12.38641357421875 108.2596130371094 14.59751892089844 112.3331604003906 17.17208862304688 116.1440353393555 C 19.72308349609375 119.9199905395508 22.65287780761719 123.4708938598633 25.88008117675781 126.6981048583984 C 29.10732269287109 129.9253234863281 32.65822601318359 132.8551330566406 36.43418121337891 135.4061126708984 C 40.24503326416016 137.9806823730469 44.31861114501953 140.1918029785156 48.54170227050781 141.9780120849609 C 57.32736968994141 145.6940307617188 66.66294097900391 147.5782012939453 76.28910827636719 147.5782012939453 C 85.91527557373047 147.5782012939453 95.25084686279297 145.6940307617188 104.0365142822266 141.9780120849609 C 108.2596130371094 140.1918029785156 112.3331604003906 137.9806823730469 116.1440353393555 135.4061126708984 C 119.9199905395508 132.8551330566406 123.4708938598633 129.9253234863281 126.6981048583984 126.6981048583984 C 129.9253234863281 123.4708938598633 132.8551330566406 119.9199905395508 135.4061126708984 116.1440353393555 C 137.9806823730469 112.3331604003906 140.1918029785156 108.2596130371094 141.9780120849609 104.0365142822266 C 145.6940307617188 95.25084686279297 147.5782012939453 85.91527557373047 147.5782012939453 76.28910827636719 C 147.5782012939453 66.66294097900391 145.6940307617188 57.32736968994141 141.9780120849609 48.54170227050781 C 140.1918029785156 44.31861114501953 137.9806823730469 40.24503326416016 135.4061126708984 36.43418121337891 C 132.8551330566406 32.65822601318359 129.9253234863281 29.10732269287109 126.6981048583984 25.88008117675781 C 123.4708938598633 22.65287780761719 119.9199905395508 19.72308349609375 116.1440353393555 17.17208862304688 C 112.3331604003906 14.59751892089844 108.2596130371094 12.38641357421875 104.0365142822266 10.60017395019531 C 95.25084686279297 6.884185791015625 85.91527557373047 4.999984741210938 76.28910827636719 4.999984741210938 M 76.28910827636719 -1.52587890625e-05 C 118.4224166870117 -1.52587890625e-05 152.5782012939453 34.15579986572266 152.5782012939453 76.28910827636719 C 152.5782012939453 118.4224166870117 118.4224166870117 152.5782012939453 76.28910827636719 152.5782012939453 C 34.15579986572266 152.5782012939453 -1.52587890625e-05 118.4224166870117 -1.52587890625e-05 76.28910827636719 C -1.52587890625e-05 34.15579986572266 34.15579986572266 -1.52587890625e-05 76.28910827636719 -1.52587890625e-05 Z" stroke="none" fill="#ef3c79"/>
      </g>
    </g>
    <g id="Grupo_895513" data-name="Grupo 895513" transform="translate(-2576.731 -8113.252)">
      <g id="Grupo_895516" data-name="Grupo 895516" transform="translate(428.826 1769.011)">
        <g id="Grupo_895513-2" data-name="Grupo 895513" transform="translate(0 7.541)">
          <path id="Trazado_624420-3" data-name="Trazado 624420" d="M437.1,1794.635a3.76,3.76,0,0,1-2.088-.631l-11.312-7.541a3.769,3.769,0,0,1,0-6.275l11.312-7.541a3.771,3.771,0,0,1,4.183,6.275l-6.607,4.4,6.607,4.406a3.769,3.769,0,0,1-2.1,6.906Z" transform="translate(-422.018 -1772.012)" fill="#ef3c79"/>
        </g>
        <g id="Grupo_895514" data-name="Grupo 895514" transform="translate(49.016 7.541)">
          <path id="Trazado_624421" data-name="Trazado 624421" d="M445.306,1794.635a3.768,3.768,0,0,1-2.1-6.906l6.6-4.406-6.6-4.4a3.771,3.771,0,1,1,4.183-6.275l11.31,7.541a3.769,3.769,0,0,1,0,6.275L447.394,1794A3.766,3.766,0,0,1,445.306,1794.635Z" transform="translate(-441.53 -1772.012)" fill="#ef3c79"/>
        </g>
        <g id="Grupo_895515" data-name="Grupo 895515" transform="translate(26.071)">
          <path id="Trazado_624422" data-name="Trazado 624422" d="M436.169,1806.716a3.846,3.846,0,0,1-.917-.113,3.764,3.764,0,0,1-2.741-4.57l7.539-30.163a3.769,3.769,0,0,1,7.313,1.826l-7.541,30.164A3.764,3.764,0,0,1,436.169,1806.716Z" transform="translate(-432.396 -1769.011)" fill="#ef3c79"/>
        </g>
      </g>
      <g id="Grupo_895517" data-name="Grupo 895517" transform="translate(417.516 1818.028)">
        <path id="Trazado_624423" data-name="Trazado 624423" d="M504.237,1796.064H481.613a3.771,3.771,0,0,1,0-7.542h22.624a3.771,3.771,0,0,1,0,7.542Zm-37.707,0a3.771,3.771,0,1,1,3.771-3.771A3.783,3.783,0,0,1,466.53,1796.064Zm-15.08,0H421.287a3.771,3.771,0,0,1,0-7.542H451.45a3.771,3.771,0,0,1,0,7.542Z" transform="translate(-417.516 -1788.523)" fill="#06355c"/>
      </g>
      <g id="Grupo_895518" data-name="Grupo 895518" transform="translate(421.287 1833.111)">
        <path id="Trazado_624424" data-name="Trazado 624424" d="M498.195,1802.066a3.769,3.769,0,1,1,3.773-3.768A3.781,3.781,0,0,1,498.195,1802.066Zm-15.08,0H468.031a3.769,3.769,0,1,1,0-7.539h15.083a3.769,3.769,0,1,1,0,7.539Zm-30.163,0a3.769,3.769,0,1,1,3.771-3.768A3.781,3.781,0,0,1,452.951,1802.066Zm-15.083,0H422.785a3.769,3.769,0,0,1,0-7.539h15.083a3.769,3.769,0,1,1,0,7.539Z" transform="translate(-419.017 -1794.527)" fill="#06355c"/>
      </g>
      <g id="Grupo_895519" data-name="Grupo 895519" transform="translate(428.826 1848.191)">
        <path id="Trazado_624425" data-name="Trazado 624425" d="M486.118,1808.071H425.789a3.771,3.771,0,0,1,0-7.542h60.329a3.771,3.771,0,0,1,0,7.542Z" transform="translate(-422.018 -1800.53)" fill="#06355c"/>
      </g>
      <g id="Grupo_895520" data-name="Grupo 895520" transform="translate(443.909 1863.274)">
        <path id="Trazado_624426" data-name="Trazado 624426" d="M461.956,1814.075H431.793a3.77,3.77,0,1,1,0-7.541h30.163a3.77,3.77,0,1,1,0,7.541Z" transform="translate(-428.022 -1806.534)" fill="#06355c"/>
      </g>
    </g>
  </g>
</svg>
