<svg xmlns="http://www.w3.org/2000/svg" width="153.952" height="153.951" viewBox="0 0 153.952 153.951">
  <g id="Grupo_895842" data-name="Grupo 895842" transform="translate(-7151.167 11828.87)">
    <g id="Grupo_895575" data-name="Grupo 895575" transform="translate(6203.311 -13653.842)">
      <path id="Trazado_624438" data-name="Trazado 624438" d="M1089.453,1894.718a65.781,65.781,0,0,0-130.937,0Z" transform="translate(0.847 0.824)" fill="#b1ede3"/>
      <path id="Trazado_624439" data-name="Trazado 624439" d="M959.067,1906.35a65.777,65.777,0,0,0,129.748,0Z" transform="translate(0.891 6.466)" fill="#b1ede3"/>
      <circle id="Elipse_6335" data-name="Elipse 6335" cx="54.43" cy="54.43" r="54.43" transform="translate(947.856 1901.947) rotate(-45)" fill="#ef3c79"/>
      <circle id="Elipse_6336" data-name="Elipse 6336" cx="47.991" cy="47.991" r="47.991" transform="translate(956.962 1901.947) rotate(-45)" fill="#fefefe"/>
      <g id="Grupo_895572" data-name="Grupo 895572" transform="translate(998.636 1883.405)">
        <path id="Trazado_624440" data-name="Trazado 624440" d="M1000.969,1904.682H994.9v-25.256h6.071Z" transform="translate(-994.898 -1879.078)" fill="#ef3c79"/>
        <path id="Trazado_624441" data-name="Trazado 624441" d="M1017.53,1897.995a2.5,2.5,0,0,0-.946-2.081,11.759,11.759,0,0,0-3.322-1.544,31.755,31.755,0,0,1-3.886-1.545q-4.909-2.411-4.909-6.625a5.945,5.945,0,0,1,1.223-3.7,7.913,7.913,0,0,1,3.461-2.5,13.461,13.461,0,0,1,5.03-.9,11.766,11.766,0,0,1,4.884.973,7.725,7.725,0,0,1,3.356,2.766,7.232,7.232,0,0,1,1.2,4.1h-6.072a3.059,3.059,0,0,0-.945-2.394,3.69,3.69,0,0,0-2.559-.849,4.153,4.153,0,0,0-2.574.72,2.12,2.12,0,0,0,.094,3.59,13.118,13.118,0,0,0,3.66,1.631,22.424,22.424,0,0,1,4.3,1.813q4.095,2.359,4.094,6.5a6.166,6.166,0,0,1-2.5,5.2,11.11,11.11,0,0,1-6.852,1.891,13.586,13.586,0,0,1-5.559-1.1,8.383,8.383,0,0,1-3.747-3.018,7.868,7.868,0,0,1-1.258-4.415h6.105a3.877,3.877,0,0,0,1.05,2.993,4.962,4.962,0,0,0,3.408.962,3.923,3.923,0,0,0,2.386-.65A2.15,2.15,0,0,0,1017.53,1897.995Z" transform="translate(-994.198 -1879.104)" fill="#ef3c79"/>
        <path id="Trazado_624442" data-name="Trazado 624442" d="M1046.485,1892.6a14.884,14.884,0,0,1-1.37,6.541,10.131,10.131,0,0,1-3.895,4.38,10.84,10.84,0,0,1-5.75,1.535,11,11,0,0,1-5.723-1.483,10.114,10.114,0,0,1-3.895-4.241,14.469,14.469,0,0,1-1.466-6.331v-1.424a14.968,14.968,0,0,1,1.361-6.547,10.09,10.09,0,0,1,3.9-4.38,11.546,11.546,0,0,1,11.509-.017,10.289,10.289,0,0,1,3.911,4.345,14.526,14.526,0,0,1,1.413,6.462Zm-6.192-1.058a10.631,10.631,0,0,0-1.257-5.716,4.036,4.036,0,0,0-3.6-1.952q-4.579,0-4.839,6.871l-.017,1.854a10.923,10.923,0,0,0,1.232,5.708,4.025,4.025,0,0,0,3.659,1.994,3.978,3.978,0,0,0,3.557-1.959,10.632,10.632,0,0,0,1.266-5.638Z" transform="translate(-992.555 -1879.104)" fill="#ef3c79"/>
      </g>
      <g id="Grupo_895574" data-name="Grupo 895574" transform="translate(997.014 1913.574)">
        <g id="Grupo_895573" data-name="Grupo 895573">
          <path id="Trazado_624443" data-name="Trazado 624443" d="M993.785,1908.547a2.779,2.779,0,0,1,1.088-1.1,3.158,3.158,0,0,1,1.581-.394,3.033,3.033,0,0,1,1.853.571,2.743,2.743,0,0,1,1.031,1.56h-1.628a1.324,1.324,0,0,0-.516-.581,1.449,1.449,0,0,0-.758-.2,1.413,1.413,0,0,0-1.109.476,2.12,2.12,0,0,0,0,2.548,1.413,1.413,0,0,0,1.109.477,1.452,1.452,0,0,0,.758-.2,1.319,1.319,0,0,0,.516-.581h1.628a2.72,2.72,0,0,1-1.031,1.556,3.043,3.043,0,0,1-1.853.567,3.148,3.148,0,0,1-1.581-.394,2.791,2.791,0,0,1-1.088-1.1,3.508,3.508,0,0,1,0-3.209Z" transform="translate(-993.396 -1907.052)" fill="#06355c"/>
          <path id="Trazado_624444" data-name="Trazado 624444" d="M1002.832,1908.3v1.229h1.984v1.144h-1.984v1.334h2.244v1.188h-3.726v-6.083h3.726v1.187Z" transform="translate(-992.764 -1907.047)" fill="#06355c"/>
          <path id="Trazado_624445" data-name="Trazado 624445" d="M1010.4,1913.2l-1.266-2.3h-.355v2.3H1007.3v-6.083h2.487a2.722,2.722,0,0,1,1.225.251,1.724,1.724,0,0,1,.758.689,1.917,1.917,0,0,1,.253.975,1.817,1.817,0,0,1-.343,1.084,1.848,1.848,0,0,1-1.009.676l1.4,2.408Zm-1.621-3.345h.919a.842.842,0,0,0,.611-.2.751.751,0,0,0,.2-.563.728.728,0,0,0-.2-.546.842.842,0,0,0-.611-.2h-.919Z" transform="translate(-992.292 -1907.047)" fill="#06355c"/>
          <path id="Trazado_624446" data-name="Trazado 624446" d="M1018.536,1907.116v1.187h-1.612v4.9h-1.481v-4.9h-1.612v-1.187Z" transform="translate(-991.772 -1907.047)" fill="#06355c"/>
          <path id="Trazado_624447" data-name="Trazado 624447" d="M1021.968,1907.116v6.083h-1.482v-6.083Z" transform="translate(-991.244 -1907.047)" fill="#06355c"/>
          <path id="Trazado_624448" data-name="Trazado 624448" d="M1028.42,1907.116v1.187h-2.479v1.281h1.855v1.154h-1.855v2.46h-1.481v-6.083Z" transform="translate(-990.928 -1907.047)" fill="#06355c"/>
          <path id="Trazado_624449" data-name="Trazado 624449" d="M1031.937,1907.116v6.083h-1.481v-6.083Z" transform="translate(-990.451 -1907.047)" fill="#06355c"/>
          <path id="Trazado_624450" data-name="Trazado 624450" d="M1035.911,1908.3v1.229h1.985v1.144h-1.985v1.334h2.244v1.188h-3.725v-6.083h3.725v1.187Z" transform="translate(-990.136 -1907.047)" fill="#06355c"/>
          <path id="Trazado_624451" data-name="Trazado 624451" d="M1044.338,1907.5a2.721,2.721,0,0,1,1.113,1.071,3.394,3.394,0,0,1,0,3.175,2.7,2.7,0,0,1-1.117,1.074,3.527,3.527,0,0,1-1.677.382h-2.278v-6.083h2.278A3.529,3.529,0,0,1,1044.338,1907.5Zm-.468,3.96a1.742,1.742,0,0,0,.468-1.3,1.626,1.626,0,0,0-1.777-1.777h-.7v3.535h.7A1.792,1.792,0,0,0,1043.869,1911.458Z" transform="translate(-989.663 -1907.047)" fill="#06355c"/>
        </g>
      </g>
      <path id="Trazado_624452" data-name="Trazado 624452" d="M1018.158,1861.629l1.243,2.071,2.354.542-1.586,1.822.212,2.406-2.223-.945-2.223.945.212-2.406-1.586-1.822,2.354-.542Z" transform="translate(5.3 2.913)" fill="#b1ede3"/>
      <path id="Trazado_624453" data-name="Trazado 624453" d="M1018.158,1861.629l1.243,2.071,2.354.542-1.586,1.822.212,2.406-2.223-.945-2.223.945.212-2.406-1.586-1.822,2.354-.542Z" transform="translate(5.3 2.913)" fill="#b1ede3"/>
      <path id="Trazado_624454" data-name="Trazado 624454" d="M1038.491,1865.381l.289,2.4,1.927,1.455-2.191,1.016-.789,2.283-1.643-1.77-2.415-.045,1.176-2.109-.7-2.31,2.37.467Z" transform="translate(6.818 3.211)" fill="#b1ede3"/>
      <path id="Trazado_624455" data-name="Trazado 624455" d="M1000.57,1865.349l1.9,1.491,2.392-.334-.832,2.268,1.057,2.172-2.414-.09-1.739,1.676-.66-2.323-2.131-1.136,2.006-1.346Z" transform="translate(3.996 3.208)" fill="#b1ede3"/>
      <path id="Trazado_624456" data-name="Trazado 624456" d="M1020.7,1934.275l-1.242-2.071-2.354-.542,1.586-1.822-.212-2.406,2.222.945,2.223-.945-.212,2.406,1.586,1.822-2.354.542Z" transform="translate(5.502 8.141)" fill="#b1ede3"/>
      <path id="Trazado_624457" data-name="Trazado 624457" d="M1020.7,1934.275l-1.242-2.071-2.354-.542,1.586-1.822-.212-2.406,2.222.945,2.223-.945-.212,2.406,1.586,1.822-2.354.542Z" transform="translate(5.502 8.141)" fill="#b1ede3"/>
      <path id="Trazado_624458" data-name="Trazado 624458" d="M1000.359,1930.545l-.289-2.4-1.927-1.456,2.191-1.015.789-2.283,1.643,1.77,2.415.045-1.176,2.11.7,2.31-2.37-.467Z" transform="translate(3.996 7.82)" fill="#b1ede3"/>
      <path id="Trazado_624459" data-name="Trazado 624459" d="M1038.273,1930.58l-1.9-1.492-2.392.334.831-2.268-1.057-2.172,2.414.09,1.739-1.676.66,2.323,2.131,1.136-2.005,1.346Z" transform="translate(6.825 7.821)" fill="#b1ede3"/>
    </g>
  </g>
</svg>
