<svg xmlns="http://www.w3.org/2000/svg" width="505.575" height="547.683" viewBox="0 0 505.575 547.683">
  <g id="Grupo_895601" data-name="Grupo 895601" transform="translate(-1062.312 -1536.577)">
    <path id="Trazado_624460" data-name="Trazado 624460" d="M1453.037,1952.254c24.949-32.16,39.266-71.725,45.165-112,12.826-87.55-15.844-181.991-80.911-241.955s-166.375-80.254-246.6-42.927c-33.324,15.505-63.278,41.364-76.365,75.709-9.654,25.334-9.562,53.181-9.343,80.291q.934,115.9,1.868,231.809c.26,32.292.937,66.208,16.958,94.246,29.543,51.7,99.126,61.68,144.018,24.494,14.762-12.228,24.7-33.033,42.72-40.78,12.609-5.421,26.709-3.221,40-3.673a151.377,151.377,0,0,0,46.039-8.548C1406.867,1998.078,1433.394,1977.576,1453.037,1952.254Z" transform="translate(-2.15)" fill="#dce4ff"/>
    <g id="Grupo_895585" data-name="Grupo 895585" transform="translate(1062.312 1566.801)">
      <path id="Trazado_624461" data-name="Trazado 624461" d="M1354.254,2012.178H1089.849a14.064,14.064,0,0,1-14.064-14.063V1645.081a14.064,14.064,0,0,1,14.064-14.064h264.405a14.064,14.064,0,0,1,14.063,14.064v353.034a14.064,14.064,0,0,1-14.063,14.063Z" transform="translate(-1063.593 -1575.779)" fill="#343e6e"/>
      <path id="Trazado_624462" data-name="Trazado 624462" d="M1210.471,1595.356a12.132,12.132,0,1,1,.634,3.893A12.153,12.153,0,0,1,1210.471,1595.356Z" transform="translate(-1076.397 -1571.23)" fill="#e6e3f2"/>
      <path id="Trazado_624463" data-name="Trazado 624463" d="M1271.9,1644.234l-3.089-17.33-3.089-17.33a9.5,9.5,0,0,0-3.814-5.825,12.031,12.031,0,0,0-7.126-2.382h-18.493a23.817,23.817,0,0,0,.828-3.543,24.381,24.381,0,0,0,.285-3.721,24.126,24.126,0,0,0-48.252,0,24.381,24.381,0,0,0,.284,3.721,23.939,23.939,0,0,0,.828,3.543h-18.493a12.026,12.026,0,0,0-7.124,2.382,9.5,9.5,0,0,0-3.813,5.825l-3.089,17.33-3.089,17.33a9.179,9.179,0,0,0,1.927,7.673,9.494,9.494,0,0,0,7.384,3.224h98.625a9.5,9.5,0,0,0,7.384-3.224A9.182,9.182,0,0,0,1271.9,1644.234Zm-70.816-50.132a12.133,12.133,0,1,1,.634,3.893A12.153,12.153,0,0,1,1201.085,1594.1Z" transform="translate(-1071.075 -1569.976)" fill="#343e6e"/>
      <path id="Trazado_624464" data-name="Trazado 624464" d="M1355.847,2017.695H1073.5a11.393,11.393,0,0,1-7.912-3.146,10.5,10.5,0,0,1-3.277-7.6V1647.274a10.5,10.5,0,0,1,3.277-7.6,11.393,11.393,0,0,1,7.912-3.146h282.346a11.391,11.391,0,0,1,7.912,3.146,10.5,10.5,0,0,1,3.278,7.6v359.679a10.5,10.5,0,0,1-3.278,7.6A11.392,11.392,0,0,1,1355.847,2017.695Z" transform="translate(-1062.312 -1576.303)" fill="#343e6e"/>
      <path id="Trazado_624465" data-name="Trazado 624465" d="M1340.781,2012.178H1076.376a14.064,14.064,0,0,1-14.064-14.063V1645.081a14.064,14.064,0,0,1,14.064-14.064h264.405a14.064,14.064,0,0,1,14.064,14.064v353.034a14.064,14.064,0,0,1-14.064,14.063Z" transform="translate(-1062.312 -1575.779)" fill="#06355c"/>
      <path id="Trazado_624466" data-name="Trazado 624466" d="M1329.792,2000.325H1089.7a15.116,15.116,0,0,1-15.116-15.116V1655a15.118,15.118,0,0,1,15.116-15.116h240.1A15.116,15.116,0,0,1,1344.908,1655v330.206a15.115,15.115,0,0,1-15.116,15.116Z" transform="translate(-1063.478 -1576.622)" fill="#97aaef"/>
      <path id="Trazado_624467" data-name="Trazado 624467" d="M1276.392,1644.234l-3.09-17.33-3.089-17.33a9.5,9.5,0,0,0-3.813-5.825,12.034,12.034,0,0,0-7.126-2.382H1240.78a23.832,23.832,0,0,0,.828-3.543,24.365,24.365,0,0,0,.285-3.721,24.126,24.126,0,0,0-48.252,0,24.4,24.4,0,0,0,.284,3.721,23.924,23.924,0,0,0,.828,3.543H1176.26a12.027,12.027,0,0,0-7.124,2.382,9.5,9.5,0,0,0-3.813,5.825l-3.089,17.33-3.089,17.33a9.181,9.181,0,0,0,1.927,7.673,9.495,9.495,0,0,0,7.384,3.224h98.625a9.494,9.494,0,0,0,7.384-3.224A9.179,9.179,0,0,0,1276.392,1644.234Zm-70.817-50.132a12.126,12.126,0,1,1,.635,3.893A12.153,12.153,0,0,1,1205.576,1594.1Z" transform="translate(-1071.502 -1569.976)" fill="#0b5999"/>
      <g id="Grupo_895577" data-name="Grupo 895577" transform="translate(52.228 353.685)">
        <path id="Trazado_624468" data-name="Trazado 624468" d="M1218.392,1968.028h-9.522v-7.211h9.522v7.211Z" transform="translate(-1128.473 -1960.817)" fill="#c0c9f2"/>
        <path id="Trazado_624469" data-name="Trazado 624469" d="M1129.549,1984.545h-9.522v-7.211h9.522v7.211Z" transform="translate(-1120.027 -1962.387)" fill="#c0c9f2"/>
        <path id="Trazado_624470" data-name="Trazado 624470" d="M1258.425,1968.028h-30.8v-7.211h30.8v7.211Z" transform="translate(-1130.256 -1960.817)" fill="#c0c9f2"/>
        <path id="Trazado_624471" data-name="Trazado 624471" d="M1183.831,1968.028h-53.654v-7.211h53.654v7.211Z" transform="translate(-1120.992 -1960.817)" fill="#c0c9f2"/>
        <path id="Trazado_624472" data-name="Trazado 624472" d="M1246.213,1984.545h-75.386v-7.211h75.386v7.211Z" transform="translate(-1124.856 -1962.387)" fill="#c0c9f2"/>
      </g>
      <g id="Grupo_895578" data-name="Grupo 895578" transform="translate(44.877 304.257)">
        <path id="Trazado_624473" data-name="Trazado 624473" d="M1142.989,1929.924h-29.818v-7.211h29.818v7.211Z" transform="translate(-1112.024 -1907.766)" fill="#c0c9f2"/>
        <path id="Trazado_624474" data-name="Trazado 624474" d="M1233.688,1929.924h-78.566v-7.211h78.566v7.211Z" transform="translate(-1116.012 -1907.766)" fill="#c0c9f2"/>
        <path id="Trazado_624475" data-name="Trazado 624475" d="M1111.9,1906.2h66.07v7.211H1111.9V1906.2Z" transform="translate(-1111.904 -1906.196)" fill="#c0c9f2"/>
        <path id="Trazado_624476" data-name="Trazado 624476" d="M1210.9,1906.2h28.15v7.211H1210.9V1906.2Z" transform="translate(-1121.315 -1906.196)" fill="#c0c9f2"/>
      </g>
      <g id="Grupo_895579" data-name="Grupo 895579" transform="translate(56.376 247.825)">
        <path id="Trazado_624477" data-name="Trazado 624477" d="M1124.611,1862.328H1143.5v7.211h-18.894v-7.211Z" transform="translate(-1124.611 -1845.594)" fill="#c0c9f2"/>
        <path id="Trazado_624478" data-name="Trazado 624478" d="M1155.37,1862.328H1188.7v7.211H1155.37v-7.211Z" transform="translate(-1127.535 -1845.594)" fill="#c0c9f2"/>
        <path id="Trazado_624479" data-name="Trazado 624479" d="M1198.768,1862.328h50.392v7.211h-50.392v-7.211Z" transform="translate(-1131.661 -1845.594)" fill="#c0c9f2"/>
        <path id="Trazado_624480" data-name="Trazado 624480" d="M1221.687,1843.835h29.818v7.211h-29.818v-7.211Z" transform="translate(-1133.839 -1843.835)" fill="#c0c9f2"/>
        <path id="Trazado_624481" data-name="Trazado 624481" d="M1125.868,1843.835h78.566v7.211h-78.566v-7.211Z" transform="translate(-1124.73 -1843.835)" fill="#c0c9f2"/>
      </g>
      <g id="Grupo_895580" data-name="Grupo 895580" transform="translate(119.439 210.126)">
        <path id="Trazado_624482" data-name="Trazado 624482" d="M1194.3,1802.177h53.654v7.211H1194.3v-7.211Z" transform="translate(-1194.298 -1802.177)" fill="#c0c9f2"/>
      </g>
      <g id="Grupo_895581" data-name="Grupo 895581" transform="translate(149.829 143.129)">
        <path id="Trazado_624483" data-name="Trazado 624483" d="M1239.55,1744.658h12.435v7.211H1239.55v-7.211Z" transform="translate(-1228.99 -1729.712)" fill="#c0c9f2"/>
        <path id="Trazado_624484" data-name="Trazado 624484" d="M1227.881,1728.141h28.28v7.211h-28.28v-7.211Z" transform="translate(-1227.881 -1728.141)" fill="#c0c9f2"/>
      </g>
      <g id="Grupo_895582" data-name="Grupo 895582" transform="translate(191.456 131.809)">
        <path id="Trazado_624485" data-name="Trazado 624485" d="M1299.959,1754.153a4.11,4.11,0,0,1-2.908-1.2l-5.085-5.084-5.084-5.085a4.112,4.112,0,1,1,5.815-5.816l3.489,3.489,3.489,3.489,7.066-8.514,7.065-8.514a4.112,4.112,0,1,1,6.329,5.252l-8.506,10.25-8.505,10.25a4.116,4.116,0,0,1-2.974,1.481l-.1,0Z" transform="translate(-1275.002 -1716.563)" fill="#ef3c79"/>
        <path id="Trazado_624486" data-name="Trazado 624486" d="M1320.924,1762.8h-38.8a8.257,8.257,0,0,1-8.247-8.248v-30.671a8.255,8.255,0,0,1,8.247-8.247h38.8a8.255,8.255,0,0,1,8.248,8.247v30.671a8.257,8.257,0,0,1-8.248,8.248Zm-38.8-40.038a1.12,1.12,0,0,0-1.118,1.119v30.671a1.12,1.12,0,0,0,1.118,1.119h38.8a1.122,1.122,0,0,0,1.12-1.119v-30.671a1.122,1.122,0,0,0-1.12-1.119h-38.8Z" transform="translate(-1273.881 -1715.632)" fill="#c0c9f2"/>
      </g>
      <g id="Grupo_895583" data-name="Grupo 895583" transform="translate(191.456 197.963)">
        <path id="Trazado_624487" data-name="Trazado 624487" d="M1299.959,1827.257a4.111,4.111,0,0,1-2.908-1.2l-5.085-5.084-5.084-5.085a4.112,4.112,0,1,1,5.815-5.815l3.489,3.489,3.489,3.489,7.066-8.515,7.065-8.514a4.112,4.112,0,1,1,6.329,5.252l-8.506,10.25-8.505,10.25a4.116,4.116,0,0,1-2.974,1.481l-.1,0Z" transform="translate(-1275.002 -1789.667)" fill="#ef3c79"/>
        <path id="Trazado_624488" data-name="Trazado 624488" d="M1320.924,1835.9h-38.8a8.255,8.255,0,0,1-8.247-8.248v-30.67a8.255,8.255,0,0,1,8.247-8.248h38.8a8.255,8.255,0,0,1,8.248,8.248v30.67a8.255,8.255,0,0,1-8.248,8.248Zm-38.8-40.037a1.118,1.118,0,0,0-1.118,1.119v30.67a1.118,1.118,0,0,0,1.118,1.12h38.8a1.12,1.12,0,0,0,1.12-1.12v-30.67a1.12,1.12,0,0,0-1.12-1.119h-38.8Z" transform="translate(-1273.881 -1788.736)" fill="#c0c9f2"/>
      </g>
      <g id="Grupo_895584" data-name="Grupo 895584" transform="translate(191.456 264.117)">
        <path id="Trazado_624489" data-name="Trazado 624489" d="M1299.959,1900.361a4.11,4.11,0,0,1-2.908-1.2l-5.085-5.084-5.084-5.085a4.112,4.112,0,1,1,5.815-5.815l3.489,3.489,3.489,3.489,7.066-8.514,7.065-8.514a4.112,4.112,0,1,1,6.329,5.252l-8.506,10.25-8.505,10.25a4.116,4.116,0,0,1-2.974,1.481l-.1,0Z" transform="translate(-1275.002 -1862.771)" fill="#ef3c79"/>
        <path id="Trazado_624490" data-name="Trazado 624490" d="M1320.924,1909.005h-38.8a8.255,8.255,0,0,1-8.247-8.247v-30.671a8.255,8.255,0,0,1,8.247-8.248h38.8a8.255,8.255,0,0,1,8.248,8.248v30.671a8.255,8.255,0,0,1-8.248,8.247Zm-38.8-40.037a1.12,1.12,0,0,0-1.118,1.119v30.671a1.12,1.12,0,0,0,1.118,1.119h38.8a1.122,1.122,0,0,0,1.12-1.119v-30.671a1.121,1.121,0,0,0-1.12-1.119h-38.8Z" transform="translate(-1273.881 -1861.84)" fill="#c0c9f2"/>
      </g>
      <path id="Trazado_624491" data-name="Trazado 624491" d="M1320.924,1982.109h-38.8a8.255,8.255,0,0,1-8.247-8.247v-30.671a8.257,8.257,0,0,1,8.247-8.248h38.8a8.257,8.257,0,0,1,8.248,8.248v30.671a8.255,8.255,0,0,1-8.248,8.247Zm-38.8-40.037a1.12,1.12,0,0,0-1.118,1.119v30.671a1.12,1.12,0,0,0,1.118,1.119h38.8a1.122,1.122,0,0,0,1.12-1.119v-30.671a1.121,1.121,0,0,0-1.12-1.119h-38.8Z" transform="translate(-1082.425 -1604.672)" fill="#c0c9f2"/>
    </g>
    <g id="Grupo_895587" data-name="Grupo 895587" transform="translate(1086.623 1657.973)">
      <path id="Trazado_624492" data-name="Trazado 624492" d="M1189.07,1720.671a50.01,50.01,0,0,1-23.006,42.067c-.244.156-.486.308-.731.459-.332.205-.666.406-1,.6s-.674.392-1.014.579a49.709,49.709,0,0,1-24.192,6.24q-1.242,0-2.469-.061a49.9,49.9,0,0,1-9.427-1.365q-1.6-.392-3.168-.887a49.428,49.428,0,0,1-7.4-3.016c-.262-.131-.524-.267-.786-.4q-1.613-.85-3.156-1.813a49.949,49.949,0,1,1,76.357-42.4Z" transform="translate(-1089.177 -1670.726)" fill="#6678c0"/>
      <path id="Trazado_624493" data-name="Trazado 624493" d="M1182.834,1763.009a50.162,50.162,0,0,1-9.422,7.827c-.244.156-.486.308-.731.459-.176-.26-.343-.521-.508-.784a37.3,37.3,0,0,1-2.028-3.734c-1.322-2.773-2.393-5.672-3.673-8.619,5.351-1.467,8.69-1.547,14.193-2.252q.214,1.288.548,2.551A28.777,28.777,0,0,0,1182.834,1763.009Z" transform="translate(-1096.525 -1678.824)" fill="#ffa188"/>
      <path id="Trazado_624494" data-name="Trazado 624494" d="M1141.62,1701.159a12.437,12.437,0,0,0,1.73,9.638,18.181,18.181,0,0,0,7.576,6.438,31.761,31.761,0,0,0,6.307,2.174,4.632,4.632,0,0,0,5.194-2.372c1.9-3.667,3.954-7.421,4.863-11.482a17.033,17.033,0,0,0-.313-9.09,12.763,12.763,0,0,0-4.164-6c-.319-.249-1.055-.953-1.479-.871s-1.077.955-1.407,1.245q-1.533,1.344-3.173,2.556A52.147,52.147,0,0,1,1141.62,1701.159Z" transform="translate(-1094.13 -1672.519)" fill="#ffa188"/>
      <path id="Trazado_624495" data-name="Trazado 624495" d="M1143.328,1710.838c.051,4.249-.922,6.436-2.386,10.426a105.242,105.242,0,0,1-5.34,11.566c4.143,7.017,8.017,14.162,12.16,21.179l.309-.414c3.87-5.183,4.3-12.519,6.372-18.647-.564-.389-.433-.362-.527-1.041a7.417,7.417,0,0,1,.1-2.044q1.175-8.394,2.353-16.787A123.3,123.3,0,0,1,1143.328,1710.838Z" transform="translate(-1093.59 -1674.539)" fill="#ffa188"/>
      <path id="Trazado_624496" data-name="Trazado 624496" d="M1143.863,1713.47a13.428,13.428,0,0,0,1.8,4.391,18.165,18.165,0,0,0,7.575,6.438,26.3,26.3,0,0,0,2.506,1.045q.278-1.984.555-3.966a30.24,30.24,0,0,1-5.13-1.873A18.37,18.37,0,0,1,1143.863,1713.47Z" transform="translate(-1094.376 -1674.79)" fill="#ed836e"/>
      <path id="Trazado_624497" data-name="Trazado 624497" d="M1173.275,1717.558c-.009-.071-.019-.141-.028-.213-.408-2.941-2.073-5.479-3.6-7.963-1.723-2.792-3.436-5.741-3.727-9.009-.292-3.291.894-6.62.339-9.877-.612-3.589-3.315-6.568-6.524-8.289a23.622,23.622,0,0,0-18.292-1.351c-4.1,1.4-7.766,4.723-8.541,8.987a10.931,10.931,0,0,1-7.374,8.1c-2.562.932-5.578,1.024-7.553,2.9-2.54,2.418-2.275,6.813-4.825,9.221-1.723,1.627-4.375,1.974-6.069,3.632a7.548,7.548,0,0,0-1.9,5.6c.042,2.028.545,4.014.785,6.028a9.89,9.89,0,0,1-.783,5.933c-1.3,2.375-2.963,4.628-2.65,7.317.281,2.42,1.961,4.1,3.344,5.953a14.174,14.174,0,0,0,2.828,2.419l3.588,2.786,5.215-15.213c.641-1.868,2.939-1.529,4.368-2.891a20.459,20.459,0,0,1,7.754-4.352c2.92-.924,6.127-4.017,6.127-4.017s2.742-6.449,3.55-9.209c.205-.7.416-1.5.585-2.359a2.381,2.381,0,0,0,.043-1.447,9.713,9.713,0,0,1-1.27-2.443,8.775,8.775,0,0,1,.922-6.062,14.479,14.479,0,0,0,10.433-2.717,15.543,15.543,0,0,0,6.169-9.329c3.666,2,6.49,6.69,6.912,10.845s-.508,6.65-2.281,11.221a16.89,16.89,0,0,1-3.145,5.683c-1.306,1.3-3.543,1.259-5.3.71-.017.124-.4,2.9-.45,3.214-.054.342-.276,1.967-.276,1.967s-.833,3.85-.5,3.944a20,20,0,0,1,5.859,3.063c1.267.879,7.714,2.185,8.17,2.8.557-.448,1.282-.711,1.877-1.147a15.545,15.545,0,0,0,1.952-1.7,16.484,16.484,0,0,0,2.9-4.159A15.618,15.618,0,0,0,1173.275,1717.558Z" transform="translate(-1090.443 -1671.572)" fill="#643a24"/>
      <path id="Trazado_624498" data-name="Trazado 624498" d="M1167.468,1692.037a9.428,9.428,0,0,0-6.087-4.577,18.741,18.741,0,0,0-8.174-.141,17.665,17.665,0,0,0-4.09,1.182,11.008,11.008,0,0,0-5.445,4.78,22.436,22.436,0,0,0-2.359,8.015,22.1,22.1,0,0,1,1.2-10.381,9.7,9.7,0,0,1,5.674-5,23.484,23.484,0,0,1,7.426-1.557,15.467,15.467,0,0,1,6.926.862,7.892,7.892,0,0,1,3.193,2.883A18.947,18.947,0,0,1,1167.468,1692.037Z" transform="translate(-1094.115 -1672.017)" fill="#ead6c5"/>
      <path id="Trazado_624499" data-name="Trazado 624499" d="M1176.954,1755.226l-.935.627a87.245,87.245,0,0,0-11.068,8.319c-.75.652-1.586,1.384-2.544,2.227-1.233-2.148-3.258-7.019-4.354-9.653.12.4.1,5.657.007,11.076-.032,1.859-.072,3.735-.119,5.44a49.837,49.837,0,0,1-16.664,2.849q-1.242,0-2.469-.061a49.9,49.9,0,0,1-9.427-1.365q-1.6-.392-3.168-.887a49.423,49.423,0,0,1-7.4-3.016q-.11-.908-.206-1.819a29.387,29.387,0,0,1-.045-3.221,13.992,13.992,0,0,0-.122-2.241,4.9,4.9,0,0,0-.461-1.388c-.338-.69-.787-1.347-1.174-1.995-.1-.167-.2-.332-.284-.5a39.167,39.167,0,0,1-2.134-4.736,14.4,14.4,0,0,1-.995-3.156,18.209,18.209,0,0,0-.373-2.545c-.562-2.218-1.36-1.564-1.15-3.846l0-.019c.023-.247.073-.6.144-1v-.008c.059-.324.13-.686.214-1.056a9.253,9.253,0,0,1,1.172-3.247,20.181,20.181,0,0,1,2.15-2.306c4.992-4.2,11.6-5.984,17.4-8.978a1.237,1.237,0,0,1,.776-.2c.343.068.555.4.725.708a25.4,25.4,0,0,0,2.818,4.745c1.106,1.207,1.525,2.8,2.236,4.262a14.31,14.31,0,0,0,6.9,6.707,1.67,1.67,0,0,0,.939.205,1.714,1.714,0,0,0,.983-.781c1.319-1.793,1.368-2.9,2.128-5a24.7,24.7,0,0,0,.813-3.288c.348-1.661.35-3.536.8-5.149s1.829-1.094,3.017-.486c2.017,1.031,4.1,1.81,6.112,2.816a24.121,24.121,0,0,1,2.155,1.21c2.659,1.7,5.087,6.163,7.16,9.166C1173.823,1748.445,1174.136,1749.872,1176.954,1755.226Z" transform="translate(-1091.331 -1676.219)" fill="#ead6c5"/>
      <g id="Grupo_895586" data-name="Grupo 895586" transform="translate(39.471 51.696)">
        <path id="Trazado_624500" data-name="Trazado 624500" d="M1156.707,1729.3l3.4,2.347a1.45,1.45,0,0,1,.624,1.3l-.454,6.251-2.364-1.375,2.243,2.8a16.225,16.225,0,0,1-8.7,4.777l4.443-15.813A.527.527,0,0,1,1156.707,1729.3Z" transform="translate(-1134.569 -1727.981)" fill="#c6aa95"/>
        <path id="Trazado_624501" data-name="Trazado 624501" d="M1149.083,1744.7c.129-.016-7.128-7.163-10.449-16.849,0,0-3.783.061-5.839,2.853,0,0,1.026,8.235,5.353,10.055l3.313-.459-2.468,2.111S1142.585,1745.544,1149.083,1744.7Z" transform="translate(-1132.795 -1727.853)" fill="#c6aa95"/>
        <path id="Trazado_624502" data-name="Trazado 624502" d="M1149.877,1746.888a1.209,1.209,0,1,0,1.28-1.135A1.209,1.209,0,0,0,1149.877,1746.888Z" transform="translate(-1134.419 -1729.554)" fill="#c6aa95"/>
      </g>
      <path id="Trazado_624503" data-name="Trazado 624503" d="M1138.408,1750.621c-.077.183-6.143,14.363-7.647,17.37-.673,1.348-1.331,2.67-1.994,3.98s-1.345,2.625-2.051,3.931a49.423,49.423,0,0,1-7.4-3.016c-.263-.131-.524-.267-.786-.4q-.421-2.332-.858-4.661-.263-1.417-.53-2.833.675-.38,1.34-.77,1.294-.752,2.554-1.532a115.041,115.041,0,0,0,9.535-6.594q.725-.552,1.447-1.124c.958-.755,1.9-1.526,2.89-2.25C1135.788,1752.072,1138.328,1750.665,1138.408,1750.621Z" transform="translate(-1091.835 -1678.321)" fill="#c6aa95"/>
      <path id="Trazado_624504" data-name="Trazado 624504" d="M1129.608,1777.991q-1.6-.392-3.168-.887a49.428,49.428,0,0,1-7.4-3.016c-.262-.131-.524-.267-.786-.4q-1.613-.85-3.156-1.813c-.133-1-.24-2-.338-3.014-.178-1.835-.323-3.7-.535-5.592,1,.032,1.929.086,2.808.16,1.323.115,2.533.271,3.728.462,2.388.381,4.7.885,7.69,1.4a27.9,27.9,0,0,0-.242,3.094,28.98,28.98,0,0,0,1.4,9.607Z" transform="translate(-1091.558 -1679.523)" fill="#ffa188"/>
      <path id="Trazado_624505" data-name="Trazado 624505" d="M1171.051,1772.12c-.244.156-.486.308-.731.459-.332.205-.666.406-1,.6a10.632,10.632,0,0,0-4.307.261,11.616,11.616,0,0,1,3.293.319,49.709,49.709,0,0,1-24.192,6.24q-1.242,0-2.469-.061c3.763-1.165,7.555-2.3,11.184-3.594v.008c.121-.052.221-.094.273-.112a10.186,10.186,0,0,1,2.286-3.678,6.858,6.858,0,0,0,2.46-2.074,4.508,4.508,0,0,1,.632-.776,1.057,1.057,0,0,1,.923-.277,1.108,1.108,0,0,1,.707.825,10.627,10.627,0,0,1,.148,1.128.553.553,0,0,0,.177.379c.117.083.4.1.413-.039l.05-.02a11.977,11.977,0,0,1,4.3-1.128,6.132,6.132,0,0,1,1.534.187c1.051.268,2.02.816,3.082,1.024.042.009.086.016.13.024a3.466,3.466,0,0,1,.988.228A.95.95,0,0,1,1171.051,1772.12Z" transform="translate(-1094.165 -1680.108)" fill="#ffa188"/>
      <path id="Trazado_624506" data-name="Trazado 624506" d="M1129.285,1747.88a54.731,54.731,0,0,1-.2,18.379c-3.148,1.143-7.579,1.06-9.736,1.042a34.846,34.846,0,0,1-8.452-.791c-.569-6.329.174-15.485,1.172-21.718Z" transform="translate(-1091.223 -1677.767)" fill="#ead6c5"/>
    </g>
    <g id="Grupo_895600" data-name="Grupo 895600" transform="translate(1215.014 1679.936)">
      <path id="Trazado_624507" data-name="Trazado 624507" d="M1600.21,2026.43a25.836,25.836,0,0,1-3.293,2.782,26.134,26.134,0,0,1-4.864,2.73,25.35,25.35,0,0,1-2.622.958,25.136,25.136,0,0,0-2.6.642,1.5,1.5,0,0,0,.624,1.437,4.121,4.121,0,0,0,1.516.633,39.577,39.577,0,0,0,23.3-1.1,3.973,3.973,0,0,0,2.1-1.363c.713-1.107.24-2.558-.2-3.8a45.818,45.818,0,0,1-2.333-10.2q-.145-1.3-.214-2.613c-.036-.674.173-1.374-.608-1.494a12.3,12.3,0,0,0-2.6.212l-2.561.215c-1.216.1-2.272.075-2.5,1.462-.26,1.594-.517,3.187-.894,4.759-.36,1.5-.3,2.613-1.381,3.818Q1600.659,2025.981,1600.21,2026.43Z" transform="translate(-1264.876 -1725.42)" fill="#ffa188"/>
      <path id="Trazado_624508" data-name="Trazado 624508" d="M1616.53,2035.528l1.094,2.676a1.05,1.05,0,0,1-.657,1.4,74.163,74.163,0,0,1-13.022,2.943,46.756,46.756,0,0,1-8.9.415c-2.88-.193-6.446-.347-8.732-2.11,2.546.647,5.891-.7,8.5-1l17.186-2a10.157,10.157,0,0,0,2.608-.539A3.457,3.457,0,0,0,1616.53,2035.528Z" transform="translate(-1264.83 -1727.37)" fill="#1d263f"/>
      <path id="Trazado_624509" data-name="Trazado 624509" d="M1614.748,2029.617c.647,2.262,1.023,3.426,2.077,6.957-1.556,1.64-4.324,1.957-6.53,2.446a92.924,92.924,0,0,1-15.13,2.295c-3.3.207-6.84.128-9.828-1.3a5.483,5.483,0,0,1-2.306-1.878,3.032,3.032,0,0,1-.3-2.869,3.513,3.513,0,0,1,3.416-1.678,20.094,20.094,0,0,1,3.922.924,14.1,14.1,0,0,0,6.135.183Z" transform="translate(-1264.466 -1726.808)" fill="#0b5999"/>
      <path id="Trazado_624510" data-name="Trazado 624510" d="M1559.669,2018.55a20.7,20.7,0,0,0-3.822,16.833,47.222,47.222,0,0,1-18.478,5.128,12.3,12.3,0,0,1-8.553-2.225c3.553-.361,6.44-2.937,8.933-5.495a115.682,115.682,0,0,0,10.344-12.2A32.837,32.837,0,0,0,1559.669,2018.55Z" transform="translate(-1259.363 -1725.756)" fill="#ffa188"/>
      <path id="Trazado_624511" data-name="Trazado 624511" d="M1556.708,2033.212c.623,2.27.986,3.438,2,6.98-1.574,1.623-4.345,1.911-6.556,2.375A92.934,92.934,0,0,1,1537,2044.7c-3.307.171-6.841.053-9.814-1.406a5.479,5.479,0,0,1-2.285-1.9,3.029,3.029,0,0,1-.27-2.872,3.515,3.515,0,0,1,3.434-1.641,20.127,20.127,0,0,1,3.911.966,14.078,14.078,0,0,0,6.133.249Z" transform="translate(-1258.942 -1727.15)" fill="#0b5999"/>
      <path id="Trazado_624512" data-name="Trazado 624512" d="M1505.086,2006.852a36.779,36.779,0,0,1-5.635,8.447,15.023,15.023,0,0,1,8.526,6.322l1.846-3.686c.5-.992.994-1.985,1.532-2.955.272-.49,1.823,0,2.121-.475.231-.37.939-1.031,1.03-1.468.1-.46-.255-.545-.621-.7-.5-.212-2.545-1.2-3.033-1.442a24.278,24.278,0,0,1-5.766-4.045Z" transform="translate(-1256.572 -1724.644)" fill="#ffa188"/>
      <path id="Trazado_624513" data-name="Trazado 624513" d="M1512.447,2009.852a32.209,32.209,0,0,1,4.887,3.161,29.548,29.548,0,0,1-.219,14.995,26.781,26.781,0,0,1-7.5,12.134,2.684,2.684,0,0,1-2.268.971,1.912,1.912,0,0,1-1.293-1.6,6.386,6.386,0,0,1,.161-2.163,30.773,30.773,0,0,0-2.747-19C1507.216,2015.772,1512.447,2009.852,1512.447,2009.852Z" transform="translate(-1256.953 -1724.929)" fill="#0b5999"/>
      <path id="Trazado_624514" data-name="Trazado 624514" d="M1516.849,2012.676a5.164,5.164,0,0,1,1.2,3.318,32.964,32.964,0,0,1-.963,12.494,24.062,24.062,0,0,1-6.992,11.127,4.964,4.964,0,0,1-1.413.883,1.727,1.727,0,0,1-1.956-.159c-.159-.2-.375-.625-.429-.643-.2.3.044.88.168,1.083a7.573,7.573,0,0,0,1.857,1.723,3.279,3.279,0,0,0,4.012-.137,26.078,26.078,0,0,0,2.1-1.9,30.7,30.7,0,0,0,3.475-4.732,29.922,29.922,0,0,0,2.777-5.015,10.067,10.067,0,0,0,.7-5.62l-.156-9.379A10.838,10.838,0,0,0,1516.849,2012.676Z" transform="translate(-1257.216 -1725.198)" fill="#1d263f"/>
      <path id="Trazado_624515" data-name="Trazado 624515" d="M1440.815,2015.386a36.767,36.767,0,0,1-10.145.431,15.014,15.014,0,0,1-.077,10.614l4.066-.683c1.094-.184,2.188-.367,3.289-.505.557-.07,1.075,1.472,1.635,1.432a7,7,0,0,0,1.792-.033c.428-.194.289-.527.2-.913-.126-.532-.536-2.76-.625-3.3a24.362,24.362,0,0,1-.133-7.043Z" transform="translate(-1250.025 -1725.455)" fill="#ffa188"/>
      <path id="Trazado_624516" data-name="Trazado 624516" d="M1441.035,2023.148a32.164,32.164,0,0,1,.329,5.812,29.531,29.531,0,0,1-12.238,8.667,26.784,26.784,0,0,1-14.224,1.1,2.68,2.68,0,0,1-2.122-1.259,1.915,1.915,0,0,1,.53-1.988,6.426,6.426,0,0,1,1.842-1.146,30.767,30.767,0,0,0,13.722-13.423C1433.169,2022.415,1441.035,2023.148,1441.035,2023.148Z" transform="translate(-1248.322 -1725.98)" fill="#0b5999"/>
      <path id="Trazado_624517" data-name="Trazado 624517" d="M1441.373,2028.743a5.162,5.162,0,0,1-1.97,2.929,32.933,32.933,0,0,1-10.659,6.592,24.062,24.062,0,0,1-13.109.916,4.97,4.97,0,0,1-1.547-.62,1.727,1.727,0,0,1-1.024-1.673c.066-.244.284-.671.267-.726-.356.016-.684.554-.775.775a7.53,7.53,0,0,0-.3,2.517,3.278,3.278,0,0,0,2.476,3.158,26.085,26.085,0,0,0,2.774.574,30.659,30.659,0,0,0,5.87.015,30.052,30.052,0,0,0,5.688-.714,10.064,10.064,0,0,0,4.948-2.754l7.482-5.657A10.843,10.843,0,0,0,1441.373,2028.743Z" transform="translate(-1248.282 -1726.725)" fill="#1d263f"/>
      <g id="Grupo_895599" data-name="Grupo 895599">
        <path id="Trazado_624518" data-name="Trazado 624518" d="M1532.6,1822.13l-11.9,24.052s-15.479,11.028-24.861,23.369l-6.9,2.26-4.567,4.387,3.131,1.676-3.32,9.752s7.4-4.653,7.585-4.831,5.443-7.921,5.443-7.921,15.464-7.1,25.41-14.089c0,0,6.508-4.2,14.609-17.09l11.036-14.929S1539.237,1828.3,1532.6,1822.13Z" transform="translate(-1255.121 -1707.083)" fill="#ed836e"/>
        <path id="Trazado_624519" data-name="Trazado 624519" d="M1610.358,2012.173q-1.835-.046-3.67-.1-3.607-.091-7.213-.186a5.243,5.243,0,0,1-3.287-.831c-1.007-.839-1.231-2.274-1.384-3.576q-.286-2.443-.573-4.886-1.851-15.761-3.7-31.52c-.575-4.891-1.811-9.77-2.708-14.639q-1.243-6.762-2.46-13.527c-1.512-8.421-2.508-14.14-2.508-14.14-2.152,8.714-5.677,14.887-7.572,23.284-2.961,13.107-4.182,27.87-7.2,37.284a108.853,108.853,0,0,1-9.814,22.56,4.281,4.281,0,0,1-1.66,1.574c-.112.057-.229.112-.347.16s-.24.092-.363.13a25.3,25.3,0,0,1-5.862,1.163,8.9,8.9,0,0,1-4.575-.719,2.985,2.985,0,0,1-1.471-3.4c5.62-22.044,13.606-123.444,13.606-123.444,16.906,9.6,44.895-8.355,44.895-8.355q1.006,3.816,1.83,7.6.2.92.394,1.841.136.657.27,1.313c.081.4.158.791.235,1.187.017.083.033.167.048.249.052.265.1.529.153.795.067.34.131.683.194,1.026.085.451.166.9.245,1.357s.162.9.237,1.355c.039.22.076.441.113.66q.1.568.187,1.133c.067.406.131.813.2,1.22q.114.727.221,1.449c.044.294.089.589.131.882.052.346.1.694.149,1.042.035.238.068.473.1.711q.182,1.3.344,2.6c.033.263.067.525.1.788.039.306.076.615.113.923.033.281.066.564.1.844a.034.034,0,0,1,0,.014q.1.843.187,1.674c.048.433.092.864.137,1.293.029.273.057.547.082.82.012.1.021.194.03.291q.072.728.138,1.453t.125,1.421q.064.72.12,1.439c.031.366.059.733.086,1.1.007.092.016.184.021.276.016.2.031.4.043.6.026.313.049.628.069.941.027.407.055.816.081,1.224.056.84.1,1.682.147,2.524.014.243.026.487.039.728.071,1.375.184,2.751.23,4.127a3.751,3.751,0,0,0,.1,1.419v.022c0,2.977.062,5.695.052,8.094-.025,7.21-.4,11.568-.4,11.568.031,1.185.042,2.367.062,3.552.076,4.51.091,9.02.095,13.531,0,4.822-.285,9.73.087,14.529Q1610.6,1996.37,1610.358,2012.173Z" transform="translate(-1260.796 -1712.49)" fill="#0b5999"/>
        <path id="Trazado_624520" data-name="Trazado 624520" d="M1583.5,1931.974c-2.151,8.715-5.677,14.888-7.572,23.283-2.96,13.107-4.184,27.87-7.2,37.285a108.806,108.806,0,0,1-9.816,22.56,4.214,4.214,0,0,1-2.367,1.863,25.3,25.3,0,0,1-5.862,1.165,125.725,125.725,0,0,0,16.431-43.792c1.824-10.483,2.337-21.184,3.755-31.741s4.173-20.8,9.4-29.9C1581,1920.568,1583.5,1931.974,1583.5,1931.974Z" transform="translate(-1261.442 -1715.692)" fill="#1d263f"/>
        <path id="Trazado_624521" data-name="Trazado 624521" d="M1615.037,2012.173q-1.835-.046-3.67-.1-.677-10.919-1-21.852-.451-15.235-.213-30.482c.056-3.565.1-7.128.069-10.691a158.81,158.81,0,0,0-1.108-18.7c-1.487-11.732-6.373-30.176-16-40.309,3.45-3.715,10.085-7.76,14.055-11.028.647,2.019,2.095,8.83,2.223,9.444q.136.657.27,1.313c.081.4.158.791.235,1.187.017.083.033.167.048.249.052.265.1.529.153.795.067.34.131.683.194,1.026.085.451.166.9.245,1.357s.162.9.237,1.355c.039.22.076.441.113.66q.1.568.187,1.133c.067.406.131.813.2,1.22q.114.722.221,1.449c.044.294.089.589.131.882.052.346.1.694.149,1.042.035.238.068.473.1.711q.182,1.3.344,2.6c.033.263.067.525.1.788.039.306.076.615.113.923.033.281.066.564.1.844a.034.034,0,0,1,0,.014q.1.836.187,1.674c.048.433.092.864.137,1.293.029.273.057.547.082.82.012.1.021.194.03.291q.072.728.138,1.453t.125,1.421q.064.72.12,1.439c.031.366.059.733.086,1.1.007.092.016.184.021.276.016.2.031.4.043.6.026.313.049.628.069.941.027.407.055.816.081,1.224.056.84.1,1.682.147,2.524.015.242.028.485.039.728.071,1.375.184,2.751.23,4.127a3.769,3.769,0,0,0,.1,1.419v.022c0,1.923.036,3.847.049,5.772a8.726,8.726,0,0,0-.023,2.322c-.025,7.21-.383,11.568-.383,11.568.031,1.185.049,2.367.069,3.552.075,4.51.094,9.02.1,13.531,0,4.822-.283,9.73.089,14.529Q1615.278,1996.37,1615.037,2012.173Z" transform="translate(-1265.476 -1712.49)" fill="#1d263f"/>
        <path id="Trazado_624522" data-name="Trazado 624522" d="M1537.725,1798.425c-.181,3.814.765,16,.584,19.813,3.224,5.4,4.6-2.708,7.828,2.688,2.976-3.638,7.951-6.545,10.278-10.629-.385-5.686-1.95-7.322-1.626-13.012.1-1.823.1-3.7.175-5.526C1551.631,1794.691,1539.731,1798.443,1537.725,1798.425Z" transform="translate(-1260.208 -1704.196)" fill="#ffa188"/>
        <path id="Trazado_624523" data-name="Trazado 624523" d="M1541.041,1805.006c-.055,2.113.281,3.848-.518,5.916-.169.44-3.178,5.028-3.5,4.531q-1.431-2.2-2.858-4.4a8.217,8.217,0,0,0-3.266,4.063q-.857-1.28-1.711-2.557-1.868,2.2-3.739,4.4-.491-2.473-.827-4.976c-.963-7.157-.09-23.965.329-27.6.542-4.677,2.428-10.932,3.962-13.54a25.642,25.642,0,0,1,3.446-4.739,29.42,29.42,0,0,1,4.366-3.643s-4.179,11.52-3.561,12.481c2.059,3.2,1.117,7.884,4.036,10.447,1.016.894,2.228,1.667,2.793,2.9a6.767,6.767,0,0,1,.43,2.747c.013.943.087,1.884.187,2.821q.084.772.184,1.543c.036.291.075.579.113.871.047.378.1.757.141,1.135.048.4.094.8.133,1.194A49.505,49.505,0,0,1,1541.041,1805.006Z" transform="translate(-1258.923 -1701.411)" fill="#643a24"/>
        <path id="Trazado_624524" data-name="Trazado 624524" d="M1535.68,1765.4a31.507,31.507,0,0,0-2.053,30.627,5.5,5.5,0,0,0,1.573,2.181c1.3.94,3.079.7,4.635.331a39.379,39.379,0,0,0,12.227-5.245,11.258,11.258,0,0,0,4.237-4.2c1.073-2.2.834-4.776.571-7.205-2.471.255-4.883-.823-6.983-2.152s1.379-4.467-.189-6.394c-.967-1.19-2.139-3.615-2.992-4.89-1.759-2.633-8.136-2.756-9.356-5.678C1536.744,1763.667,1536.236,1764.558,1535.68,1765.4Z" transform="translate(-1259.532 -1701.441)" fill="#ffa188"/>
        <path id="Trazado_624525" data-name="Trazado 624525" d="M1555.382,1794.748c-.022.946-.074,1.568-.07,2.063-3.684,2.357-12.3,8.889-12.368,8.9.034-.87.108-3.139.016-4.051-.018-.2-.04-.392-.062-.588a39.386,39.386,0,0,0,10.333-4.739A19.22,19.22,0,0,0,1555.382,1794.748Z" transform="translate(-1260.702 -1704.48)" fill="#ed836e"/>
        <path id="Trazado_624526" data-name="Trazado 624526" d="M1535.6,1763.428a2.5,2.5,0,0,0-.3,2.2,3.751,3.751,0,0,0,2.408,2.1c1.038.373,2.148.509,3.186.879a7.347,7.347,0,0,1,1.765.918c3.552,2.5,3.356,7.192,3.341,11.1-.016,4.138-.394,8.582,1.167,12.514a22.566,22.566,0,0,0,5.678,8.37c2.585,2.46,5.5,4.113,7.444,7.107a12.383,12.383,0,0,1,1.157,10.43c2.419-1.7,5.086-4.367,5.9-7.281a6.787,6.787,0,0,1,2.1-3.5c.655-.479,1.982-.252,2.823-.263.22,0,2.632-.05,2.633-.033l-3.641-6.469a64.83,64.83,0,0,1-3.983-7.9,30.965,30.965,0,0,1-1.841-11.121c-.093-5.509-.928-11.526-4.586-15.648-2.911-3.28-6.279-5.65-10.594-6.44a21.694,21.694,0,0,0-8.912.113,17.512,17.512,0,0,0-3.274,1.25A9.26,9.26,0,0,0,1535.6,1763.428Z" transform="translate(-1259.967 -1701.175)" fill="#643a24"/>
        <path id="Trazado_624527" data-name="Trazado 624527" d="M1533.9,1828.479a8.415,8.415,0,0,0-.6,4.34,8,8,0,0,0,1.39,2.947,21.777,21.777,0,0,0,9.7,7.784q-1.028-10.285-2.057-20.57a6.787,6.787,0,0,0-.58-2.509,2.579,2.579,0,0,0-1.84-1.392c-.749-.072-1.223.828-1.619,1.339a28.925,28.925,0,0,0-4.4,8.06Z" transform="translate(-1259.78 -1706.792)" fill="#c6aa95"/>
        <path id="Trazado_624528" data-name="Trazado 624528" d="M1543.052,1813.242l-.018,0c-1.234-.125-2.347,2.106-2.784,3.014a21.689,21.689,0,0,0-1.489,4.8,59.475,59.475,0,0,0-1.534,10.325,24.363,24.363,0,0,0,1.61,10.246,25.124,25.124,0,0,0,6.293,8.567,31.66,31.66,0,0,1,5.957,8.512,51.7,51.7,0,0,1,5.873,21.334c.1,1.969.167,4.15,1.532,5.573a6.692,6.692,0,0,0,3.765,1.653c7.6,1.349,15.188-.9,22.684-1.922,3.483-.475,6.843-.716,10.283-1.42.913-.186,10.069-2.9,9.685-3.929q-3.211-8.56-6.421-17.12c-4.216-11.24-8.486-22.588-15.111-32.6s-15.905-18.713-27.34-22.367a8.751,8.751,0,0,1-5.065,6.357,7.429,7.429,0,0,1-4.193.416,9.455,9.455,0,0,1-2.114-.651A6.94,6.94,0,0,0,1543.052,1813.242Z" transform="translate(-1260.16 -1705.731)" fill="#ead6c5"/>
        <path id="Trazado_624529" data-name="Trazado 624529" d="M1413.666,1966.187q6.268,20.43,13.436,40.568l13.57-2.327.453-.078c.843-9.892-1.343-19.7-3.774-29.321q-4.318-17.08-8.633-34.164c.032-.07.063-.138.1-.205,7.161-15.315,30.584-20.886,44.854-30.043,1.125-.724-7.594-8.03-8.112-9.821h0c-.047-.165-.024-.283.082-.345l-2.911-2.29-18.671-14.69.987-2.314,1.1-2.576c-6.632,7.922-19.772,19.052-25.1,27.9s-12.454,14.5-13.25,24.8C1406.879,1943.12,1410.185,1954.838,1413.666,1966.187Z" transform="translate(-1247.843 -1712.449)" fill="#0b5999"/>
        <path id="Trazado_624530" data-name="Trazado 624530" d="M1428.049,1952.655c4.4,17.411,8.807,34.839,14.3,51.932l.453-.078c.843-9.892-1.343-19.7-3.774-29.321q-4.318-17.08-8.633-34.164c.032-.07.063-.138.1-.205,7.161-15.315,30.584-20.886,44.854-30.043,1.125-.724-7.594-8.03-8.112-9.821h0l-2.829-2.635,3.3-18.071-20.984,1.067-.589.03c-.111.767,10.5,1.92,10.347,2.676-3.732,18.173-30.653,32.588-31.167,51.236C1425.152,1941.146,1426.606,1946.944,1428.049,1952.655Z" transform="translate(-1249.522 -1712.608)" fill="#1d263f"/>
        <path id="Trazado_624531" data-name="Trazado 624531" d="M1450.316,1923.726c.4,9.16,5.007,17.655,8.5,26.135,8.306,20.183,19.958,39.452,35.023,55.245,3.084-2.765,6.2-5.689,9.288-8.466l.339-.3q-5.1-7.581-9.478-15.614a197.65,197.65,0,0,1-10.945-23.68,91.243,91.243,0,0,1-5.43-25.776,20.566,20.566,0,0,1,.36-7.472c.991-3.359,3.522-6.006,5.968-8.512l6.111-6.257c.413-.424.825-.876,1.24-1.339a26.276,26.276,0,0,1,4.437-4.3c1.537-1.04,3.21-1.521,4.694-2.736a30.287,30.287,0,0,0,2.791-2.551c.216-.229,1.912-2.52,2.023-2.52l-15.832-3.023h0l-34.269-15.121c-2.275,7.514-2.242,16.875-3.736,24.583C1450.149,1908.451,1450.032,1917.181,1450.316,1923.726Z" transform="translate(-1251.888 -1712.341)" fill="#0b5999"/>
        <path id="Trazado_624532" data-name="Trazado 624532" d="M1475.473,1945.773c2.957,11.842,6.5,23.7,12.795,34.161a57.417,57.417,0,0,0,16.995,18.295l.339-.3q-5.1-7.581-9.478-15.614a197.651,197.651,0,0,1-10.945-23.68,91.242,91.242,0,0,1-5.43-25.776,20.564,20.564,0,0,1,.36-7.472c.991-3.359,3.522-6.006,5.968-8.511l6.111-6.257c.413-.425.825-.876,1.241-1.339-1.03-4.644-1.508-9.1,1.458-13.65l-3.345-1.478h0a75.409,75.409,0,0,0-9.974,10.165,39.9,39.9,0,0,0-8.4,17.7C1471.806,1929.91,1473.53,1937.993,1475.473,1945.773Z" transform="translate(-1254.026 -1713.929)" fill="#1d263f"/>
        <path id="Trazado_624533" data-name="Trazado 624533" d="M1419.01,1819.87c-3.678-3.364-6.763-7.893-9.6-11.845-3.5-4.866-6.694-9.947-9.731-15.113-.805-1.37-8.014-15.443-8.584-15.3l12.02-2.967a71.916,71.916,0,0,0,12.612,24.7c2.47,3.139,5.36,6.177,9.123,7.516,2.9,1.032,6.712.838,9.157-1.211.881-.738,5.193-6.931,6.175-6.481,6.1,2.792,9.111,7.035,14.807,10.581-3.961,5.508-14.532,12.385-21.533,16.223-4.2,1.4-9.637-2.265-12.791-4.706C1420.1,1820.827,1419.547,1820.36,1419.01,1819.87Z" transform="translate(-1246.27 -1702.568)" fill="#ffa188"/>
        <path id="Trazado_624534" data-name="Trazado 624534" d="M1500.04,1796.346c-1.186,2.916-3.408,4.384-6.326,5.286a13.961,13.961,0,0,1-8.949-.454,24.706,24.706,0,0,1-7.727-5.249,18.489,18.489,0,0,0,2.078-3.138,23.984,23.984,0,0,0,2.231-6.369,35.678,35.678,0,0,0,.724-5.493,26.9,26.9,0,0,0-.2-4.89c5.428,2.668,9.717,2.375,15.287-.04a106.082,106.082,0,0,1,1.7,10.6c.332,2.8.619,5.559.979,8.276C1499.9,1795.37,1499.968,1795.86,1500.04,1796.346Z" transform="translate(-1254.441 -1702.698)" fill="#ffa188"/>
        <path id="Trazado_624535" data-name="Trazado 624535" d="M1498.608,1782.163a10.823,10.823,0,0,1-3.331,4.179,10.673,10.673,0,0,1-3.659,1.383,36.772,36.772,0,0,1-10.235.82c.141-.523.266-1.052.375-1.582.195-.948.358-1.894.481-2.839a36.717,36.717,0,0,0,12.1-.658,10.668,10.668,0,0,0,3.658-1.383c.185-.124.532-.4.532-.4s.008.055.044.291c.006.035.016.1.024.157C1498.606,1782.147,1498.614,1782.153,1498.608,1782.163Z" transform="translate(-1254.854 -1703.238)" fill="#ed836e"/>
        <path id="Trazado_624536" data-name="Trazado 624536" d="M1513.065,1819.98a54.489,54.489,0,0,1-2.8,8.187c-.591,1.416-2.035,1.24-2.672,2.632-1.882,4.08-3.1,9.662-4.983,13.741-5.781,12.543-5.865,27.451-6.894,40.914-.144,1.88-.48,4.073-2.14,4.967a5.653,5.653,0,0,1-3.462.26,253.983,253.983,0,0,1-48.595-11.7c-2.14-.745-4.554-1.812-5.148-4-.62-2.276,1.064-4.466,2.539-6.307a64.79,64.79,0,0,0,11.411-21.708c2.161-7.147,1.352-14.664,3.97-21.87.441-1.218.9-2.424,1.358-3.625a33.846,33.846,0,0,1-6.221,2.646,53.021,53.021,0,0,1-6.492,1.6c-.7-9.268-.79-20.048.955-27.535,8.7-6.54,33.042-9.374,33.042-9.374.091,2.125.258,4.227,1.508,6.078a9.115,9.115,0,0,0,3.988,3.185c2.094.9,4.887,1.533,7.078.637,1.97-.809,6.635-5.127,6.635-5.127s7.041,5.212,9.95,7.772a49.278,49.278,0,0,1,4.784,4.813c1.64,1.877,3.061,3.357,3.41,6.043C1514.641,1814.958,1513.692,1817.382,1513.065,1819.98Z" transform="translate(-1250.562 -1703.916)" fill="#ead6c5"/>
        <path id="Trazado_624537" data-name="Trazado 624537" d="M1507.312,1833.754c-1.165,3-4.4,6.471-4.917,9.378-7.554-2.528-15.978-3.488-24.8-3.433-3.93.024-8.123.282-11.422-.915-.667-.243-1.344-.744-.911-1.209a2.192,2.192,0,0,1,1.157-.444,55.869,55.869,0,0,1,11.718-.873c6.57.212,12.968,1.614,19.588.827a3.274,3.274,0,0,0,1.4-.394c.731-.5.335-1.265-.131-1.818-1.874-2.222-4.107-4.3-5.794-6.6a12.984,12.984,0,0,1-2.152-4.2c-.083-.3-.638-1.46.259-1.462.409,0,1.438,1.4,1.678,1.632a64.891,64.891,0,0,0,7.82,6.427A43.4,43.4,0,0,0,1507.312,1833.754Z" transform="translate(-1253.308 -1707.13)" fill="#c6aa95"/>
        <path id="Trazado_624538" data-name="Trazado 624538" d="M1467.722,1817.285c-6.138,8.164-9.249,12.288-14.461,21.066a60.594,60.594,0,0,1,2.415-10.545c.441-1.218.9-2.424,1.358-3.625a33.842,33.842,0,0,1-6.221,2.646c.131-.367.461-.6,1.165-.942C1456.333,1823.787,1465.688,1819.131,1467.722,1817.285Z" transform="translate(-1251.948 -1706.622)" fill="#c6aa95"/>
        <path id="Trazado_624539" data-name="Trazado 624539" d="M1472.273,1766.589a37.987,37.987,0,0,0,3.271,7.937c1.055,2.1,2.2,4.292,4.174,5.559a11.345,11.345,0,0,0,3.821,1.379,39.852,39.852,0,0,0,12.808.6c1.673-.193,3.469-.564,4.592-1.82a5.653,5.653,0,0,0,1.227-2.926c.076-.463.124-.935.162-1.4.013-.154.024-.307.035-.461q.2-2.7.139-5.4a57.128,57.128,0,0,0-3.563-18.647,4.708,4.708,0,0,0-1.279-2.037,4.944,4.944,0,0,0-2.767-1.6,7.726,7.726,0,0,0-3.208.395,72.835,72.835,0,0,0-10.233,3.31c-3.289,1.435-7.127,3.44-8.657,6.686A12.763,12.763,0,0,0,1472.273,1766.589Z" transform="translate(-1253.944 -1700.009)" fill="#ffa188"/>
        <path id="Trazado_624540" data-name="Trazado 624540" d="M1501.825,1739.906a24.407,24.407,0,0,1,.593,6.186,8.226,8.226,0,0,1-2.453,5.564,9.608,9.608,0,0,1-5.728,2.045c-3.814.3-8.277-.015-10.7,3.609-1.515,2.267-1.676,5.355-3.611,7.276a1.328,1.328,0,0,0-.667-1.807,1.893,1.893,0,0,0-2,.476,3.392,3.392,0,0,0-.878,1.96,3.1,3.1,0,0,0,.094,1.469,1.632,1.632,0,0,0,1,1.031c-.324-.1-1.859,6.2-2.1,6.817-.378.992-2.316-1.177-2.735-1.556a33.33,33.33,0,0,1-8.918-12.96c-2.367-6.735.563-13.305,5.872-17.711a17.494,17.494,0,0,1,8.561-4.021c4.014-.573,8.041.6,11.993,1.509S1498.092,1741.488,1501.825,1739.906Z" transform="translate(-1253.096 -1699.097)" fill="#643a24"/>
        <g id="Grupo_895598" data-name="Grupo 895598">
          <g id="Grupo_895588" data-name="Grupo 895588" transform="translate(137.013 112.685)">
            <rect id="Rect치ngulo_302581" data-name="Rect치ngulo 302581" width="13.984" height="39.584" transform="translate(0 11.865) rotate(-58.048)" fill="#5564a2"/>
          </g>
          <g id="Grupo_895589" data-name="Grupo 895589" transform="translate(81.944 0.774)">
            <path id="Trazado_624541" data-name="Trazado 624541" d="M1322.755,1698.305a19.949,19.949,0,0,1,1.468,9.852,65.832,65.832,0,0,1,3.652,131.538,37.136,37.136,0,0,1-6.236,12.39,78.133,78.133,0,1,0-.03-156.2Q1322.229,1697.077,1322.755,1698.305Z" transform="translate(-1321.609 -1695.852)" fill="#5564a2"/>
          </g>
          <g id="Grupo_895592" data-name="Grupo 895592" transform="translate(131.432 112.467)">
            <g id="Grupo_895590" data-name="Grupo 895590" transform="translate(0.342 0.343)">
              <rect id="Rect치ngulo_302582" data-name="Rect치ngulo 302582" width="13.984" height="39.584" transform="matrix(0.529, -0.848, 0.848, 0.529, 0.421, 12.286)" fill="#fff"/>
              <path id="Trazado_624542" data-name="Trazado 624542" d="M1410.778,1853.313l-34.105-21.271,7.724-12.383,34.105,21.271Zm-33.263-21.466,33.068,20.624,7.077-11.347-33.068-20.624Z" transform="translate(-1376.673 -1819.658)" fill="#fff"/>
            </g>
            <g id="Grupo_895591" data-name="Grupo 895591">
              <path id="Trazado_624543" data-name="Trazado 624543" d="M1418.432,1840.955l-7.664,12.287-34.008-21.211,7.663-12.286Zm-7.822,11.6,7.137-11.443-33.165-20.685-7.137,11.444Z" transform="translate(-1376.339 -1819.323)" fill="#fff"/>
              <path id="Trazado_624544" data-name="Trazado 624544" d="M1410.822,1853.618l-34.527-21.534,7.987-12.806,34.527,21.535Zm-33-21.888,32.646,20.361,6.814-10.925-32.646-20.361Z" transform="translate(-1376.295 -1819.279)" fill="#fff"/>
            </g>
          </g>
          <path id="Trazado_624545" data-name="Trazado 624545" d="M1281.076,1716.5a65.821,65.821,0,1,1-28.516,88.61A65.82,65.82,0,0,1,1281.076,1716.5Z" transform="translate(-1232.409 -1696.35)" fill="#fff" opacity="0.12"/>
          <g id="Grupo_895595" data-name="Grupo 895595">
            <g id="Grupo_895593" data-name="Grupo 895593" transform="translate(0.249 0.249)">
              <path id="Trazado_624546" data-name="Trazado 624546" d="M1240.324,1809.432a78.119,78.119,0,1,0,33.844-105.168A78.121,78.121,0,0,0,1240.324,1809.432Zm128.065-65.706a65.819,65.819,0,1,1-88.605-28.518A65.817,65.817,0,0,1,1368.39,1743.726Z" transform="translate(-1231.365 -1695.306)" fill="#fff"/>
              <path id="Trazado_624547" data-name="Trazado 624547" d="M1379.571,1737.937a78.036,78.036,0,1,1-8.686-13.416A79.23,79.23,0,0,1,1379.571,1737.937Zm-34.253,105.033a77.767,77.767,0,1,0-96.212-20.518A77.9,77.9,0,0,0,1345.318,1842.97Zm23.309-99.418a65.8,65.8,0,1,1-7.323-11.311A66.692,66.692,0,0,1,1368.627,1743.552Zm-78.9,92.55a65.515,65.515,0,1,0-38.221-32.459,66.16,66.16,0,0,0,7.256,11.208A65.059,65.059,0,0,0,1289.725,1836.1Z" transform="translate(-1231.331 -1695.272)" fill="#fff"/>
            </g>
            <g id="Grupo_895594" data-name="Grupo 895594">
              <path id="Trazado_624548" data-name="Trazado 624548" d="M1379.525,1737.969a78.368,78.368,0,1,1-45.717-38.826A77.858,77.858,0,0,1,1379.525,1737.969Zm-139.008,71.321a77.87,77.87,0,1,0,33.737-104.832A77.958,77.958,0,0,0,1240.517,1809.29Zm128.065-65.706a66.069,66.069,0,1,1-38.543-32.732A65.644,65.644,0,0,1,1368.583,1743.583Zm-117.123,60.092a65.571,65.571,0,1,0,28.409-88.275A65.647,65.647,0,0,0,1251.46,1803.675Z" transform="translate(-1231.088 -1695.029)" fill="#fff"/>
              <path id="Trazado_624549" data-name="Trazado 624549" d="M1379.765,1737.8a78.282,78.282,0,1,1-8.713-13.458A79.4,79.4,0,0,1,1379.765,1737.8Zm-139.009,71.321a77.528,77.528,0,1,0,33.6-104.421A77.044,77.044,0,0,0,1240.757,1809.118Zm128.065-65.706a66.043,66.043,0,1,1-7.35-11.353A67.028,67.028,0,0,1,1368.822,1743.412Zm-121.152,10.313a65.16,65.16,0,1,0,32.306-38.085A64.826,64.826,0,0,0,1247.67,1753.725Z" transform="translate(-1231.056 -1694.997)" fill="#fff"/>
            </g>
          </g>
          <g id="Grupo_895596" data-name="Grupo 895596" transform="translate(164.743 126.433)">
            <path id="Trazado_624550" data-name="Trazado 624550" d="M1553.182,1928.311h0a16.568,16.568,0,0,1-22.824,5.29l-109.451-68.263a16.567,16.567,0,0,1-5.289-22.824h0a16.565,16.565,0,0,1,22.823-5.289l109.451,68.263A16.566,16.566,0,0,1,1553.182,1928.311Z" transform="translate(-1413.106 -1834.713)" fill="#ef3c79"/>
          </g>
          <g id="Grupo_895597" data-name="Grupo 895597" transform="translate(161.317 131.462)">
            <path id="Trazado_624551" data-name="Trazado 624551" d="M1549.727,1934.2h0a16.567,16.567,0,0,1-22.824,5.289l-109.451-68.263a16.565,16.565,0,0,1-5.289-22.823h0a16.566,16.566,0,0,1,22.823-5.29l109.451,68.263A16.567,16.567,0,0,1,1549.727,1934.2Z" transform="translate(-1409.352 -1840.301)" fill="#fabbd0"/>
            <path id="Trazado_624552" data-name="Trazado 624552" d="M1552.076,1921.591a16.759,16.759,0,0,1-2.121,12.738h0a16.889,16.889,0,0,1-23.244,5.387l-109.451-68.263a16.872,16.872,0,1,1,17.857-28.631l109.451,68.263a16.766,16.766,0,0,1,7.508,10.506Zm-134.493-50.656,109.451,68.264a16.261,16.261,0,0,0,22.4-5.193h0a16.26,16.26,0,0,0-5.192-22.4l-109.451-68.264a16.261,16.261,0,1,0-17.211,27.6Z" transform="translate(-1409.32 -1840.27)" fill="#a9c5db"/>
          </g>
        </g>
        <path id="Trazado_624553" data-name="Trazado 624553" d="M1468.02,1899.08q3.192-3.744,6.047-7.76a.44.44,0,0,0-.6-.622,7.424,7.424,0,0,0-1.992,1.908c-.864,1.161-1.992,2.291-2.862,3.448a14.589,14.589,0,0,1-2.9,3.027.927.927,0,0,1-1.355-1.194c1.022-1.88,2.766-3.47,4.317-5.167,1.322-1.446,2.123-2.411,3.686-4.422.1-.128.213-.293.329-.477a.445.445,0,0,0-.642-.6c-1.457,1.1-3.228,2.925-4.284,3.775a14.36,14.36,0,0,1-3.482,2.407,1.03,1.03,0,0,1-1.3-1.409,8.342,8.342,0,0,1,2.031-2.382l10.616-9.363c.813-.718,1.71-1.765,1.177-2.756a1.589,1.589,0,0,0-.8-.689,7.691,7.691,0,0,0-2.328-.282,9.511,9.511,0,0,1-3.854-1.221.7.7,0,0,1,.278-1.275,23.7,23.7,0,0,1,8.02.636,14.2,14.2,0,0,0,6.4.377,27.9,27.9,0,0,0,2.613-1.071h0a108.6,108.6,0,0,0,23.221-14.274,23.076,23.076,0,0,0,5.862-6.3l-9.277-12.629,16.781-10.057,6.817,13.437c1.8,3.55,3.76,7.436,3.365,11.4a14.336,14.336,0,0,1-4.246,8.375,34.372,34.372,0,0,1-7.732,5.585,117.351,117.351,0,0,1-28.566,11.7,29.988,29.988,0,0,0-13.928,12.656,25.824,25.824,0,0,1-2.727,3.893,4.6,4.6,0,0,1-1.867,1.623.767.767,0,0,1-.984-1.031,56.177,56.177,0,0,1,2.991-4.871.441.441,0,0,0-.682-.544,16.507,16.507,0,0,0-1.88,2.425,26.874,26.874,0,0,1-3.206,3.634,6.288,6.288,0,0,1-2.154,1.386A.815.815,0,0,1,1468.02,1899.08Z" transform="translate(-1253.094 -1707.899)" fill="#ffa188"/>
        <path id="Trazado_624554" data-name="Trazado 624554" d="M1502.49,1828.559c1.164,4.075,3.532,7.474,8.557,13.751,9.633-2.269,13.436-2.872,20.78-9.505-3.5-8.152-7.8-15-12.87-22.334" transform="translate(-1256.86 -1705.975)" fill="#ead6c5"/>
        <path id="Trazado_624555" data-name="Trazado 624555" d="M1504.7,1910.979a6.494,6.494,0,0,1,1.311-2.048l7.18-8.323c.55-.637,1.13-1.538.615-2.245a1.234,1.234,0,0,0-.687-.445,5.986,5.986,0,0,0-1.821.028,7.4,7.4,0,0,1-3.095-.532.543.543,0,0,1,.08-1.011,18.413,18.413,0,0,1,6.238-.357,11.036,11.036,0,0,0,4.966-.385,21.8,21.8,0,0,0,1.9-1.1h0c.029-.017.286-.036.316-.053,1.234,1.472,2.254,2.934,3.518,4.381q.471.539.947,1.076a23.3,23.3,0,0,0-8.61,10.71,20.006,20.006,0,0,1-1.688,3.283,3.56,3.56,0,0,1-1.265,1.445.6.6,0,0,1-.865-.689,43.689,43.689,0,0,1,1.786-4.064.342.342,0,0,0-.582-.346,12.717,12.717,0,0,0-1.19,2.064,20.888,20.888,0,0,1-2.084,3.134,4.877,4.877,0,0,1-1.51,1.294.633.633,0,0,1-.831-.9q2.062-3.217,3.833-6.609a.342.342,0,0,0-.527-.414,5.782,5.782,0,0,0-1.331,1.677c-.543.985-1.291,1.974-1.839,2.955a11.288,11.288,0,0,1-1.911,2.634.72.72,0,0,1-1.168-.776,22.458,22.458,0,0,1,2.776-4.431c.864-1.252,1.379-2.079,2.369-3.791.063-.109.132-.248.2-.4a.346.346,0,0,0-.557-.391c-1.005,1-2.176,2.591-2.9,3.356a11.122,11.122,0,0,1-2.425,2.219A.8.8,0,0,1,1504.7,1910.979Z" transform="translate(-1257.066 -1713.964)" fill="#ffa188"/>
        <path id="Trazado_624556" data-name="Trazado 624556" d="M1524.956,1896.459a5.942,5.942,0,0,0-.462-.847,5.818,5.818,0,0,0-1.889-2.394,5.971,5.971,0,0,0-1.732-1.061l1.313-1.8c7.648-13.484,22.334-25.713,22.334-25.713l8.152-27.818c7.4,5.223,16.838,6.874,16.838,6.874l-8.942,16.27c-6.306,13.855-12.193,18.89-12.193,18.89-8.923,8.26-23.3,17.358-23.3,17.358Z" transform="translate(-1258.608 -1708.48)" fill="#ffa188"/>
      </g>
    </g>
  </g>
</svg>
